<svg width="48" height="48" viewBox="0 0 48 48" fill="none" xmlns="http://www.w3.org/2000/svg">
<path d="M35.6667 9.00521H28.7C28 7.07188 26.1667 5.67188 24 5.67188C21.8333 5.67188 20 7.07188 19.3 9.00521H12.3333C10.5 9.00521 9 10.5052 9 12.3385V35.6719C9 37.5052 10.5 39.0052 12.3333 39.0052H35.6667C37.5 39.0052 39 37.5052 39 35.6719V12.3385C39 10.5052 37.5 9.00521 35.6667 9.00521ZM24 9.00521C24.9167 9.00521 25.6667 9.75521 25.6667 10.6719C25.6667 11.5885 24.9167 12.3385 24 12.3385C23.0833 12.3385 22.3333 11.5885 22.3333 10.6719C22.3333 9.75521 23.0833 9.00521 24 9.00521ZM27.3333 32.3385H15.6667V29.0052H27.3333V32.3385ZM32.3333 25.6719H15.6667V22.3385H32.3333V25.6719ZM32.3333 19.0052H15.6667V15.6719H32.3333V19.0052Z" fill="#E32934"/>
</svg>
