<svg width="48" height="48" viewBox="0 0 48 48" fill="none" xmlns="http://www.w3.org/2000/svg">
<path d="M20.1366 26.8115L24.0033 23.8781L27.8533 26.8115L26.3866 22.0615L30.2533 18.9948H25.5199L24.0033 14.3115L22.4866 18.9948H17.7533L21.6033 22.0615L20.1366 26.8115ZM37.3366 20.6615C37.3366 13.2948 31.3699 7.32812 24.0033 7.32812C16.6366 7.32812 10.6699 13.2948 10.6699 20.6615C10.6699 24.0448 11.9366 27.1115 14.0033 29.4615V42.3281L24.0033 38.9948L34.0033 42.3281V29.4615C36.0699 27.1115 37.3366 24.0448 37.3366 20.6615ZM24.0033 10.6615C29.5199 10.6615 34.0033 15.1448 34.0033 20.6615C34.0033 26.1781 29.5199 30.6615 24.0033 30.6615C18.4866 30.6615 14.0033 26.1781 14.0033 20.6615C14.0033 15.1448 18.4866 10.6615 24.0033 10.6615Z" fill="#E32934"/>
</svg>
