<svg width="48" height="48" viewBox="0 0 48 48" fill="none" xmlns="http://www.w3.org/2000/svg">
<path d="M29.8333 27.3333H28.5167L28.05 26.8833C29.6833 24.9833 30.6667 22.5167 30.6667 19.8333C30.6667 13.85 25.8167 9 19.8333 9C13.85 9 9 13.85 9 19.8333C9 25.8167 13.85 30.6667 19.8333 30.6667C22.5167 30.6667 24.9833 29.6833 26.8833 28.05L27.3333 28.5167V29.8333L35.6667 38.15L38.15 35.6667L29.8333 27.3333ZM19.8333 27.3333C15.6833 27.3333 12.3333 23.9833 12.3333 19.8333C12.3333 15.6833 15.6833 12.3333 19.8333 12.3333C23.9833 12.3333 27.3333 15.6833 27.3333 19.8333C27.3333 23.9833 23.9833 27.3333 19.8333 27.3333Z" fill="#E32934"/>
</svg>
