<svg width="48" height="48" viewBox="0 0 48 48" fill="none" xmlns="http://www.w3.org/2000/svg">
<path d="M39.0033 21.9635H25.0866C23.7199 18.0802 20.0199 15.2969 15.6699 15.2969C10.1533 15.2969 5.66992 19.7802 5.66992 25.2969C5.66992 30.8135 10.1533 35.2969 15.6699 35.2969C20.0199 35.2969 23.7199 32.5135 25.0866 28.6302H25.6699L29.0033 31.9635L32.3366 28.6302L35.6699 31.9635L42.3366 25.2302L39.0033 21.9635ZM15.6699 30.2969C12.9199 30.2969 10.6699 28.0469 10.6699 25.2969C10.6699 22.5469 12.9199 20.2969 15.6699 20.2969C18.4199 20.2969 20.6699 22.5469 20.6699 25.2969C20.6699 28.0469 18.4199 30.2969 15.6699 30.2969Z" fill="#E32934"/>
</svg>
