<svg width="48" height="48" viewBox="0 0 48 48" fill="none" xmlns="http://www.w3.org/2000/svg">
<path d="M37.3333 29.8333C35.25 29.8333 33.25 29.5 31.3833 28.8833C30.8 28.7 30.15 28.8333 29.6833 29.2833L26.0167 32.95C21.3 30.55 17.4333 26.7 15.0333 21.9667L18.7 18.2833C19.1667 17.85 19.3 17.2 19.1167 16.6167C18.5 14.75 18.1667 12.75 18.1667 10.6667C18.1667 9.75 17.4167 9 16.5 9H10.6667C9.75 9 9 9.75 9 10.6667C9 26.3167 21.6833 39 37.3333 39C38.25 39 39 38.25 39 37.3333V31.5C39 30.5833 38.25 29.8333 37.3333 29.8333ZM35.6667 24H39C39 15.7167 32.2833 9 24 9V12.3333C30.45 12.3333 35.6667 17.55 35.6667 24ZM29 24H32.3333C32.3333 19.4 28.6 15.6667 24 15.6667V19C26.7667 19 29 21.2333 29 24Z" fill="#E32934"/>
</svg>
