<svg width="48" height="48" viewBox="0 0 48 48" fill="none" xmlns="http://www.w3.org/2000/svg">
<path fill-rule="evenodd" clip-rule="evenodd" d="M34.6641 12H13.3307C11.8641 12 10.6641 13.2 10.6641 14.6667V33.3333C10.6641 34.8 11.8641 36 13.3307 36H34.6641C36.1307 36 37.3307 34.8 37.3307 33.3333V14.6667C37.3307 13.2 36.1307 12 34.6641 12ZM21.3307 30.6667H14.6641V28H21.3307V30.6667ZM21.3307 25.3333H14.6641V22.6667H21.3307V25.3333ZM21.3307 20H14.6641V17.3333H21.3307V20ZM27.7574 28L23.9974 24.2133L25.8774 22.3333L27.7574 24.2267L31.9841 20L33.8774 21.8933L27.7574 28Z" fill="#E32934"/>
</svg>
