<svg width="48" height="48" viewBox="0 0 48 48" fill="none" xmlns="http://www.w3.org/2000/svg">
<path d="M10.6699 30.6683V40.6683H37.3366V30.6683C37.3366 28.835 35.8366 27.335 34.0033 27.335H14.0033C12.1699 27.335 10.6699 28.835 10.6699 30.6683ZM34.0033 34.0016H14.0033V30.6683H34.0033V34.0016ZM24.0033 7.33496C19.4033 7.33496 15.6699 11.0683 15.6699 15.6683L24.0033 27.335L32.3366 15.6683C32.3366 11.0683 28.6033 7.33496 24.0033 7.33496ZM24.0033 22.335L19.0033 15.6683C19.0033 12.9016 21.2366 10.6683 24.0033 10.6683C26.7699 10.6683 29.0033 12.9016 29.0033 15.6683L24.0033 22.335Z" fill="#E32934"/>
</svg>
