<svg width="48" height="48" viewBox="0 0 48 48" fill="none" xmlns="http://www.w3.org/2000/svg">
<path d="M10.666 30.6654V40.6654H37.3327V30.6654C37.3327 28.832 35.8327 27.332 33.9993 27.332H13.9993C12.166 27.332 10.666 28.832 10.666 30.6654ZM33.9993 33.9987H13.9993V30.6654H33.9993V33.9987ZM23.9993 7.33203C19.3993 7.33203 15.666 11.0654 15.666 15.6654L23.9993 27.332L32.3327 15.6654C32.3327 11.0654 28.5993 7.33203 23.9993 7.33203ZM23.9993 22.332L18.9993 15.6654C18.9993 12.8987 21.2327 10.6654 23.9993 10.6654C26.766 10.6654 28.9993 12.8987 28.9993 15.6654L23.9993 22.332Z" fill="#E32934"/>
</svg>
