<svg width="48" height="48" viewBox="0 0 48 48" fill="none" xmlns="http://www.w3.org/2000/svg">
<path d="M24.0007 15.6667V9H7.33398V39H40.6673V15.6667H24.0007ZM14.0007 35.6667H10.6673V32.3333H14.0007V35.6667ZM14.0007 29H10.6673V25.6667H14.0007V29ZM14.0007 22.3333H10.6673V19H14.0007V22.3333ZM14.0007 15.6667H10.6673V12.3333H14.0007V15.6667ZM20.6673 35.6667H17.334V32.3333H20.6673V35.6667ZM20.6673 29H17.334V25.6667H20.6673V29ZM20.6673 22.3333H17.334V19H20.6673V22.3333ZM20.6673 15.6667H17.334V12.3333H20.6673V15.6667ZM37.334 35.6667H24.0007V32.3333H27.334V29H24.0007V25.6667H27.334V22.3333H24.0007V19H37.334V35.6667ZM34.0007 22.3333H30.6673V25.6667H34.0007V22.3333ZM34.0007 29H30.6673V32.3333H34.0007V29Z" fill="#E32934"/>
</svg>
