<svg width="48" height="48" viewBox="0 0 48 48" fill="none" xmlns="http://www.w3.org/2000/svg">
<path d="M20.1327 26.8154L23.9993 23.882L27.8493 26.8154L26.3827 22.0654L30.2493 18.9987H25.516L23.9993 14.3154L22.4827 18.9987H17.7493L21.5993 22.0654L20.1327 26.8154ZM37.3327 20.6654C37.3327 13.2987 31.366 7.33203 23.9993 7.33203C16.6327 7.33203 10.666 13.2987 10.666 20.6654C10.666 24.0487 11.9327 27.1154 13.9993 29.4654V42.332L23.9993 38.9987L33.9993 42.332V29.4654C36.066 27.1154 37.3327 24.0487 37.3327 20.6654ZM23.9993 10.6654C29.516 10.6654 33.9993 15.1487 33.9993 20.6654C33.9993 26.182 29.516 30.6654 23.9993 30.6654C18.4827 30.6654 13.9993 26.182 13.9993 20.6654C13.9993 15.1487 18.4827 10.6654 23.9993 10.6654Z" fill="#E32934"/>
</svg>
