<svg width="48" height="48" viewBox="0 0 48 48" fill="none" xmlns="http://www.w3.org/2000/svg">
<path d="M39 34V35.6667C39 37.5 37.5 39 35.6667 39H12.3333C10.4833 39 9 37.5 9 35.6667V12.3333C9 10.5 10.4833 9 12.3333 9H35.6667C37.5 9 39 10.5 39 12.3333V14H24C22.15 14 20.6667 15.5 20.6667 17.3333V30.6667C20.6667 32.5 22.15 34 24 34H39ZM24 30.6667H40.6667V17.3333H24V30.6667ZM30.6667 26.5C29.2833 26.5 28.1667 25.3833 28.1667 24C28.1667 22.6167 29.2833 21.5 30.6667 21.5C32.05 21.5 33.1667 22.6167 33.1667 24C33.1667 25.3833 32.05 26.5 30.6667 26.5Z" fill="#E32934"/>
</svg>
