<svg width="48" height="49" viewBox="0 0 48 49" fill="none" xmlns="http://www.w3.org/2000/svg">
<path d="M14 27C13.0721 27.0012 12.1825 27.3703 11.5264 28.0264C10.8703 28.6825 10.5012 29.5721 10.5 30.5V31.649C10.9673 31.8772 11.48 31.9972 12 32H16C16.52 31.9972 17.0327 31.8772 17.5 31.649V30.5C17.4988 29.5721 17.1297 28.6825 16.4736 28.0264C15.8175 27.3703 14.9279 27.0012 14 27Z" fill="#E32934"/>
<path d="M36 12.5H12C10.6868 12.5 9.38642 12.7587 8.17317 13.2612C6.95991 13.7638 5.85752 14.5003 4.92893 15.4289C3.05357 17.3043 2 19.8478 2 22.5V34.5C2 37.1522 3.05357 39.6957 4.92893 41.5711C5.85752 42.4997 6.95991 43.2362 8.17317 43.7388C9.38642 44.2413 10.6868 44.5 12 44.5H36C37.3132 44.5 38.6136 44.2413 39.8268 43.7388C41.0401 43.2362 42.1425 42.4997 43.0711 41.5711C43.9997 40.6425 44.7362 39.5401 45.2388 38.3268C45.7413 37.1136 46 35.8132 46 34.5V22.5C46 21.1868 45.7413 19.8864 45.2388 18.6732C44.7362 17.4599 43.9997 16.3575 43.0711 15.4289C42.1425 14.5003 41.0401 13.7638 39.8268 13.2612C38.6136 12.7587 37.3132 12.5 36 12.5ZM44.5 34.5C44.4977 36.7536 43.6014 38.9143 42.0078 40.5078C40.4143 42.1014 38.2536 42.9977 36 43H12C9.74638 42.9977 7.58572 42.1014 5.99217 40.5078C4.39861 38.9143 3.50233 36.7536 3.5 34.5V22.5C3.50238 20.2464 4.39868 18.0858 5.99222 16.4922C7.58577 14.8987 9.74639 14.0024 12 14H36C38.2536 14.0023 40.4143 14.8986 42.0078 16.4922C43.6014 18.0857 44.4977 20.2464 44.5 22.5V34.5Z" fill="#E32934"/>
<path d="M17 37H11C10.8674 37 10.7402 37.0527 10.6464 37.1464C10.5527 37.2402 10.5 37.3674 10.5 37.5C10.5 37.6326 10.5527 37.7598 10.6464 37.8536C10.7402 37.9473 10.8674 38 11 38H17C17.1326 38 17.2598 37.9473 17.3536 37.8536C17.4473 37.7598 17.5 37.6326 17.5 37.5C17.5 37.3674 17.4473 37.2402 17.3536 37.1464C17.2598 37.0527 17.1326 37 17 37Z" fill="#E32934"/>
<path d="M16 19H12C11.0721 19.0012 10.1825 19.3703 9.52641 20.0264C8.87029 20.6825 8.50116 21.5721 8.5 22.5V28.5C8.50044 29.4135 8.85954 30.2903 9.5 30.9416V30.5C9.5 29.3065 9.97411 28.1619 10.818 27.318C11.6619 26.4741 12.8065 26 14 26C15.1935 26 16.3381 26.4741 17.182 27.318C18.0259 28.1619 18.5 29.3065 18.5 30.5V30.9416C19.1405 30.2903 19.4996 29.4135 19.5 28.5V22.5C19.4988 21.5721 19.1297 20.6825 18.4736 20.0264C17.8175 19.3703 16.9279 19.0012 16 19ZM14 25C13.5055 25 13.0222 24.8534 12.6111 24.5787C12.2 24.304 11.8795 23.9135 11.6903 23.4567C11.5011 22.9999 11.4516 22.4972 11.548 22.0123C11.6445 21.5273 11.8826 21.0819 12.2322 20.7322C12.5819 20.3826 13.0273 20.1445 13.5123 20.048C13.9972 19.9516 14.4999 20.0011 14.9567 20.1903C15.4135 20.3795 15.804 20.7 16.0787 21.1111C16.3534 21.5222 16.5 22.0055 16.5 22.5C16.4994 23.1629 16.2358 23.7984 15.7671 24.2671C15.2984 24.7358 14.6629 24.9994 14 25Z" fill="#E32934"/>
<path d="M14 24C14.8284 24 15.5 23.3284 15.5 22.5C15.5 21.6716 14.8284 21 14 21C13.1716 21 12.5 21.6716 12.5 22.5C12.5 23.3284 13.1716 24 14 24Z" fill="#E32934"/>
<path d="M36 15H12C10.0116 15.0025 8.10543 15.7935 6.69945 17.1994C5.29346 18.6054 4.50249 20.5116 4.5 22.5V34.5C4.50249 36.4884 5.29346 38.3946 6.69945 39.8006C8.10543 41.2065 10.0116 41.9975 12 42H36C37.9884 41.9975 39.8946 41.2065 41.3006 39.8006C42.7065 38.3946 43.4975 36.4884 43.5 34.5V22.5C43.4975 20.5116 42.7065 18.6054 41.3006 17.1994C39.8946 15.7935 37.9884 15.0025 36 15ZM24 20H28C28.1326 20 28.2598 20.0527 28.3536 20.1464C28.4473 20.2402 28.5 20.3674 28.5 20.5C28.5 20.6326 28.4473 20.7598 28.3536 20.8536C28.2598 20.9473 28.1326 21 28 21H24C23.8674 21 23.7402 20.9473 23.6464 20.8536C23.5527 20.7598 23.5 20.6326 23.5 20.5C23.5 20.3674 23.5527 20.2402 23.6464 20.1464C23.7402 20.0527 23.8674 20 24 20ZM24 22H36C36.1326 22 36.2598 22.0527 36.3536 22.1464C36.4473 22.2402 36.5 22.3674 36.5 22.5C36.5 22.6326 36.4473 22.7598 36.3536 22.8536C36.2598 22.9473 36.1326 23 36 23H24C23.8674 23 23.7402 22.9473 23.6464 22.8536C23.5527 22.7598 23.5 22.6326 23.5 22.5C23.5 22.3674 23.5527 22.2402 23.6464 22.1464C23.7402 22.0527 23.8674 22 24 22ZM17 39H11C10.6022 39 10.2206 38.842 9.93934 38.5607C9.65804 38.2794 9.5 37.8978 9.5 37.5C9.5 37.1022 9.65804 36.7206 9.93934 36.4393C10.2206 36.158 10.6022 36 11 36H17C17.3978 36 17.7794 36.158 18.0607 36.4393C18.342 36.7206 18.5 37.1022 18.5 37.5C18.5 37.8978 18.342 38.2794 18.0607 38.5607C17.7794 38.842 17.3978 39 17 39ZM20.5 28.5C20.4984 29.693 20.0237 30.8366 19.1802 31.6802C18.3366 32.5237 17.193 32.9984 16 33H12C10.807 32.9984 9.66339 32.5237 8.81983 31.6802C7.97627 30.8366 7.50164 29.693 7.5 28.5V22.5C7.50164 21.307 7.97627 20.1634 8.81983 19.3198C9.66339 18.4763 10.807 18.0016 12 18H16C17.193 18.0016 18.3366 18.4763 19.1802 19.3198C20.0237 20.1634 20.4984 21.307 20.5 22.5V28.5ZM23.5 24.5C23.5 24.3674 23.5527 24.2402 23.6464 24.1464C23.7402 24.0527 23.8674 24 24 24H32C32.1326 24 32.2598 24.0527 32.3536 24.1464C32.4473 24.2402 32.5 24.3674 32.5 24.5C32.5 24.6326 32.4473 24.7598 32.3536 24.8536C32.2598 24.9473 32.1326 25 32 25H24C23.8674 25 23.7402 24.9473 23.6464 24.8536C23.5527 24.7598 23.5 24.6326 23.5 24.5ZM36.5 38.5C36.5 38.6326 36.4473 38.7598 36.3536 38.8536C36.2598 38.9473 36.1326 39 36 39C35.8674 39 35.7402 38.9473 35.6464 38.8536C35.5527 38.7598 35.5 38.6326 35.5 38.5V34.5C35.5 34.3674 35.5527 34.2402 35.6464 34.1464C35.7402 34.0527 35.8674 34 36 34C36.1326 34 36.2598 34.0527 36.3536 34.1464C36.4473 34.2402 36.5 34.3674 36.5 34.5V38.5ZM38.5 38.5C38.5 38.6326 38.4473 38.7598 38.3536 38.8536C38.2598 38.9473 38.1326 39 38 39C37.8674 39 37.7402 38.9473 37.6464 38.8536C37.5527 38.7598 37.5 38.6326 37.5 38.5V34.5C37.5 34.1022 37.342 33.7206 37.0607 33.4393C36.7794 33.158 36.3978 33 36 33C35.6022 33 35.2206 33.158 34.9393 33.4393C34.658 33.7206 34.5 34.1022 34.5 34.5V36.5C34.5 36.6326 34.4473 36.7598 34.3536 36.8536C34.2598 36.9473 34.1326 37 34 37C33.8674 37 33.7402 36.9473 33.6464 36.8536C33.5527 36.7598 33.5 36.6326 33.5 36.5V34.5C33.5 33.837 33.7634 33.2011 34.2322 32.7322C34.7011 32.2634 35.337 32 36 32C36.663 32 37.2989 32.2634 37.7678 32.7322C38.2366 33.2011 38.5 33.837 38.5 34.5V38.5ZM40.5 38.5C40.5 38.6326 40.4473 38.7598 40.3536 38.8536C40.2598 38.9473 40.1326 39 40 39C39.8674 39 39.7402 38.9473 39.6464 38.8536C39.5527 38.7598 39.5 38.6326 39.5 38.5V34.5C39.5 33.5717 39.1312 32.6815 38.4749 32.0251C37.8185 31.3687 36.9283 31 36 31C35.0717 31 34.1815 31.3687 33.5251 32.0251C32.8687 32.6815 32.5 33.5717 32.5 34.5V38.5C32.5 38.6326 32.4473 38.7598 32.3536 38.8536C32.2598 38.9473 32.1326 39 32 39C31.8674 39 31.7402 38.9473 31.6464 38.8536C31.5527 38.7598 31.5 38.6326 31.5 38.5V34.5C31.5 33.3065 31.9741 32.1619 32.818 31.318C33.6619 30.4741 34.8065 30 36 30C37.1935 30 38.3381 30.4741 39.182 31.318C40.0259 32.1619 40.5 33.3065 40.5 34.5V38.5Z" fill="#E32934"/>
<path d="M27.9992 8.5H19.9992C19.1145 8.50164 18.2554 8.79721 17.557 9.34024C16.8585 9.88327 16.3603 10.643 16.1406 11.5H31.8578C31.6381 10.643 31.1399 9.88327 30.4415 9.34024C29.743 8.79721 28.8839 8.50164 27.9992 8.5Z" fill="#E32934"/>
</svg>
