<svg width="48" height="48" viewBox="0 0 48 48" fill="none" xmlns="http://www.w3.org/2000/svg">
<path fill-rule="evenodd" clip-rule="evenodd" d="M37.335 9H10.6683C8.83496 9 7.33496 10.5 7.33496 12.3333V35.6667C7.33496 37.5 8.83496 39 10.6683 39H37.335C39.1683 39 40.6683 37.5 40.6683 35.6667V12.3333C40.6683 10.5 39.1683 9 37.335 9ZM20.6683 32.3333H12.335V29H20.6683V32.3333ZM20.6683 25.6667H12.335V22.3333H20.6683V25.6667ZM20.6683 19H12.335V15.6667H20.6683V19ZM28.7016 29L24.0016 24.2667L26.3516 21.9167L28.7016 24.2833L33.985 19L36.3516 21.3667L28.7016 29Z" fill="#E32934"/>
</svg>
