<svg width="48" height="48" viewBox="0 0 48 48" fill="none" xmlns="http://www.w3.org/2000/svg">
<path d="M40.6683 12.634L21.6516 31.6673L14.585 24.6007L16.935 22.2507L21.6516 26.9673L38.3183 10.3007L40.6683 12.634ZM36.985 21.034C37.2016 21.984 37.335 22.984 37.335 24.0007C37.335 31.3673 31.3683 37.334 24.0016 37.334C16.635 37.334 10.6683 31.3673 10.6683 24.0007C10.6683 16.634 16.635 10.6673 24.0016 10.6673C26.635 10.6673 29.0683 11.434 31.135 12.7507L33.535 10.3507C30.835 8.45065 27.5516 7.33398 24.0016 7.33398C14.8016 7.33398 7.33496 14.8007 7.33496 24.0007C7.33496 33.2007 14.8016 40.6673 24.0016 40.6673C33.2016 40.6673 40.6683 33.2007 40.6683 24.0007C40.6683 22.0173 40.3016 20.1173 39.6683 18.3507L36.985 21.034Z" fill="#E32934"/>
</svg>
