<svg width="48" height="48" viewBox="0 0 48 48" fill="none" xmlns="http://www.w3.org/2000/svg">
<path d="M15.0333 21.9833C17.4333 26.7 21.3 30.55 26.0167 32.9667L29.6833 29.3C30.1333 28.85 30.8 28.7 31.3833 28.9C33.25 29.5167 35.2667 29.85 37.3333 29.85C38.25 29.85 39 30.6 39 31.5167V37.3333C39 38.25 38.25 39 37.3333 39C21.6833 39 9 26.3167 9 10.6667C9 9.75 9.75 9 10.6667 9H16.5C17.4167 9 18.1667 9.75 18.1667 10.6667C18.1667 12.75 18.5 14.75 19.1167 16.6167C19.3 17.2 19.1667 17.85 18.7 18.3167L15.0333 21.9833Z" fill="#E32934"/>
</svg>
