<svg width="48" height="48" viewBox="0 0 48 48" fill="none" xmlns="http://www.w3.org/2000/svg">
<path fill-rule="evenodd" clip-rule="evenodd" d="M5.77682 10.113C5.13097 12.9628 7.04512 15.8555 8.76512 17.7794C10.9534 20.2272 15.2695 23.3589 20.0822 25.995C21.0363 25.1374 22.1154 24.4516 23.2968 23.9501C24.7222 23.3462 26.2334 23.0389 27.7885 23.0389C29.3446 23.0389 30.8558 23.3452 32.2802 23.9501C33.6558 24.5335 34.8919 25.3677 35.9534 26.4301C36.7895 27.2662 37.4851 28.2106 38.0276 29.2467C38.1534 29.1501 38.2744 29.0477 38.3895 28.9413C38.7632 28.595 39.0841 28.194 39.3407 27.7481L41.2519 24.4389L33.5954 20.0184C33.3544 19.8789 33.2715 19.5716 33.411 19.3306C33.5505 19.0896 33.8578 19.0077 34.0988 19.1462L41.7563 23.5667L42.2002 22.7979C42.61 22.0886 42.3661 21.1794 41.6568 20.7696L33.8646 16.2711C33.1554 15.8613 32.2461 16.1052 31.8363 16.8145L29.8285 20.2916C29.7319 20.4594 29.5466 20.5569 29.3544 20.5423C28.0832 20.4447 25.2832 19.0564 23.088 17.7881C20.8919 16.5208 18.29 14.7911 17.57 13.7384C17.4607 13.5784 17.4529 13.3706 17.5495 13.2028L19.5573 9.72571C19.9671 9.01644 19.7232 8.10717 19.0139 7.69741L11.2227 3.19888C10.5134 2.78912 9.60414 3.03302 9.19439 3.74229L8.75048 4.51107L16.4071 8.93156C16.648 9.07107 16.73 9.37839 16.5915 9.61936C16.4978 9.78132 16.329 9.87107 16.1554 9.87107C16.0705 9.87107 15.9837 9.84961 15.9037 9.80375L8.24512 5.38229L6.3339 8.69156C6.07731 9.13741 5.88902 9.61546 5.77682 10.113Z" fill="#E32934"/>
<path fill-rule="evenodd" clip-rule="evenodd" d="M24.6875 32.5488V34.0688H25.7616H25.7841C26.1987 34.0639 26.5353 33.7254 26.5353 33.3088C26.5353 32.8893 26.1948 32.5488 25.7753 32.5488H24.6875Z" fill="#E32934"/>
<path fill-rule="evenodd" clip-rule="evenodd" d="M32.7232 28.5737H22.9778C22.6997 28.5737 22.4744 28.3483 22.4744 28.0703C22.4744 27.7922 22.6997 27.5669 22.9778 27.5669H32.7232C33.0012 27.5669 33.2266 27.7922 33.2266 28.0703C33.2266 28.3483 33.0012 28.5737 32.7232 28.5737ZM27.7915 24.0469C21.9739 24.0469 17.2422 28.7796 17.2422 34.5961C17.2422 40.4127 21.9749 45.1454 27.7915 45.1454C33.609 45.1454 38.3407 40.4127 38.3407 34.5961C38.3407 28.7796 33.609 24.0469 27.7915 24.0469ZM24.1885 31.5435H25.7797C26.7544 31.5435 27.5466 32.3357 27.5466 33.3103C27.5466 34.0439 27.0968 34.6742 26.4588 34.9415L27.2324 36.9679C27.3319 37.2274 27.2012 37.5181 26.9417 37.6176C26.8822 37.64 26.8217 37.6508 26.7622 37.6508C26.5593 37.6508 26.368 37.5278 26.2919 37.3269L25.4334 35.0771H24.6919V37.1474C24.6919 37.4254 24.4666 37.6508 24.1885 37.6508C23.9105 37.6508 23.6851 37.4254 23.6851 37.1474V34.5737V32.0469C23.6851 31.7688 23.9105 31.5435 24.1885 31.5435ZM22.4568 33.6957C22.7349 33.6957 22.9602 33.921 22.9602 34.1991C22.9602 34.4771 22.7349 34.7025 22.4568 34.7025H20.3397V37.1474C20.3397 37.4254 20.1144 37.6508 19.8363 37.6508C19.5583 37.6508 19.3329 37.4254 19.3329 37.1474V34.1991V32.0469C19.3329 31.7688 19.5583 31.5435 19.8363 31.5435H22.4568C22.7349 31.5435 22.9602 31.7688 22.9602 32.0469C22.9602 32.3249 22.7349 32.5503 22.4568 32.5503H20.3397V33.6957H22.4568ZM22.8607 40.6205H32.6061C32.8841 40.6205 33.1095 40.8459 33.1095 41.1239C33.1095 41.402 32.8841 41.6274 32.6061 41.6274H22.8607C22.5827 41.6274 22.3573 41.402 22.3573 41.1239C22.3573 40.8459 22.5827 40.6205 22.8607 40.6205ZM28.7739 31.5435H31.3944C31.6724 31.5435 31.8978 31.7688 31.8978 32.0469V32.0596V32.0722L31.8968 32.0849L31.8958 32.0976L31.8949 32.1103L31.8929 32.123L31.891 32.1357L31.889 32.1483L31.8861 32.161L31.8832 32.1727L31.8802 32.1844L31.8763 32.1961L31.8724 32.2078L31.8685 32.2196L31.8646 32.2313L31.8597 32.243L31.8549 32.2547L31.85 32.2654L31.8441 32.2761L31.8383 32.2869L31.8324 32.2976L31.8266 32.3083L31.8197 32.3191L31.8129 32.3288L31.8061 32.3386L31.7993 32.3483L31.7915 32.3581L31.7836 32.3679L31.7758 32.3766L31.768 32.3854L31.7602 32.3942L31.7515 32.403L31.7427 32.4118L31.7339 32.4196L31.7251 32.4274L31.7163 32.4352L31.7066 32.443L31.6968 32.4508L31.6871 32.4576L31.6773 32.4644L31.6676 32.4713L31.6568 32.4781L31.6461 32.4839L31.6354 32.4898L31.6246 32.4957L31.6139 32.5015L31.6032 32.5064L31.5915 32.5113L31.5797 32.5161L31.568 32.52L31.5563 32.5239L31.5446 32.5278L31.5329 32.5318L31.5212 32.5347L31.5095 32.5376L31.4968 32.5405L31.4841 32.5425L31.4715 32.5444L31.4588 32.5464L31.4461 32.5474L31.4334 32.5483L31.4207 32.5493H31.408H31.3954H29.2783V34.0927H31.3954C31.6734 34.0927 31.8988 34.3181 31.8988 34.5961C31.8988 34.8742 31.6734 35.0996 31.3954 35.0996H29.2783V36.643H31.3954C31.6734 36.643 31.8988 36.8683 31.8988 37.1464C31.8988 37.4244 31.6734 37.6498 31.3954 37.6498H28.7749C28.4968 37.6498 28.2715 37.4244 28.2715 37.1464V34.5961V32.0459C28.2705 31.7688 28.4958 31.5435 28.7739 31.5435ZM32.6227 34.5971V32.0469C32.6227 31.7688 32.848 31.5435 33.1261 31.5435H35.7466C36.0246 31.5435 36.25 31.7688 36.25 32.0469V32.0596V32.0722L36.249 32.0849L36.248 32.0976L36.2471 32.1103L36.2451 32.123L36.2432 32.1357L36.2412 32.1483L36.2383 32.161L36.2354 32.1727L36.2324 32.1844L36.2285 32.1961L36.2246 32.2078L36.2207 32.2196L36.2168 32.2313L36.2119 32.243L36.2071 32.2547L36.2022 32.2654L36.1963 32.2761L36.1905 32.2869L36.1846 32.2976L36.1788 32.3083L36.1719 32.3191L36.1651 32.3288L36.1583 32.3386L36.1515 32.3483L36.1437 32.3581L36.1358 32.3679L36.128 32.3766L36.1202 32.3854L36.1124 32.3942L36.1036 32.403L36.0949 32.4118L36.0861 32.4196L36.0773 32.4274L36.0685 32.4352L36.0588 32.443L36.049 32.4508L36.0393 32.4576L36.0295 32.4644L36.0197 32.4713L36.009 32.4781L35.9983 32.4839L35.9876 32.4898L35.9768 32.4957L35.9661 32.5015L35.9554 32.5064L35.9437 32.5113L35.9319 32.5161L35.9202 32.52L35.9085 32.5239L35.8968 32.5278L35.8851 32.5318L35.8734 32.5347L35.8617 32.5376L35.849 32.5405L35.8363 32.5425L35.8236 32.5444L35.811 32.5464L35.7983 32.5474L35.7856 32.5483L35.7729 32.5493H35.7602H35.7476H33.6305V34.0927H35.7476C36.0256 34.0927 36.251 34.3181 36.251 34.5961C36.251 34.8742 36.0256 35.0996 35.7476 35.0996H33.6305V36.643H35.7476C36.0256 36.643 36.251 36.8683 36.251 37.1464C36.251 37.4244 36.0256 37.6498 35.7476 37.6498H33.1271C32.849 37.6498 32.6237 37.4244 32.6237 37.1464V34.5971H32.6227Z" fill="#E32934"/>
</svg>
