<svg width="48" height="48" viewBox="0 0 48 48" fill="none" xmlns="http://www.w3.org/2000/svg">
<path d="M19.0007 38.9987C19.0007 39.832 19.6673 40.6654 20.6673 40.6654H27.334C28.334 40.6654 29.0007 39.832 29.0007 38.9987V37.332H19.0007V38.9987ZM24.0007 7.33203C17.5007 7.33203 12.334 12.4987 12.334 18.9987C12.334 22.9987 14.334 26.4987 17.334 28.4987V32.332C17.334 33.1654 18.0007 33.9987 19.0007 33.9987H29.0007C30.0007 33.9987 30.6673 33.1654 30.6673 32.332V28.4987C33.6673 26.332 35.6673 22.832 35.6673 18.9987C35.6673 12.4987 30.5007 7.33203 24.0007 7.33203Z" fill="#E32934"/>
</svg>
