<svg width="48" height="48" viewBox="0 0 48 48" fill="none" xmlns="http://www.w3.org/2000/svg">
<g clip-path="url(#clip0_1_57488)">
<path d="M20.2126 41.6531C20.3439 41.8125 20.3251 42.0563 20.1751 42.1875L13.5001 47.85C13.3407 47.9813 13.097 47.9625 12.9657 47.8031L11.0439 45.5344C10.9126 45.3844 10.9314 45.15 11.072 45.0188C11.147 45 11.2126 44.9625 11.2782 44.9156L17.5314 39.5625C17.6064 39.4781 17.672 39.3937 17.7564 39.3375C17.9157 39.2062 18.1595 39.225 18.2907 39.3844L20.2126 41.6531ZM15.7032 37.2281C15.1595 35.8688 13.3876 35.4281 12.197 34.8844L8.0345 33.0656C7.48137 32.8125 6.84387 32.9906 6.69387 33.5906C6.52512 34.2469 6.96575 34.9781 7.57512 35.2312L11.1845 36.825C11.8032 37.1156 11.4001 38.0344 10.7626 37.7812L7.15325 36.1875C6.37512 35.8688 5.822 35.0906 5.61575 34.3031L2.147 23.9062C1.86575 22.8469 0.0938706 22.5375 0.234496 23.9062L1.87512 35.1281C1.98762 35.8594 2.38137 36.5719 2.96262 37.0875L6.3845 40.0969L10.8751 43.8094L16.5282 39.0188C16.5376 39.0094 15.7032 37.2281 15.7032 37.2281ZM45.8439 23.9062C45.7782 24.075 42.422 34.2281 42.3282 34.4062C42.1595 35.1656 41.5501 35.8781 40.8376 36.1875L37.2282 37.7812C36.6001 38.0438 36.1782 37.1156 36.8064 36.825L40.4157 35.2312C40.622 35.1469 40.8189 34.9875 40.9782 34.8C41.747 33.9563 41.1939 32.5312 39.9564 33.0656L33.8532 35.7094C32.5501 36.1594 32.0064 37.8844 31.4626 39.0094L37.1157 43.8C39.1032 42.1969 43.1626 38.7844 45.0282 37.0781C45.6189 36.5719 46.0126 35.8594 46.1251 35.1188L47.7657 23.9062C47.897 22.5094 46.1345 22.8563 45.8439 23.9062ZM36.7314 44.9156L30.4782 39.5625C30.3001 39.3187 29.972 39.0938 29.7095 39.3844L27.7876 41.6531C27.647 41.8125 27.6657 42.0563 27.8251 42.1875L34.5001 47.85C34.6595 47.9813 34.9032 47.9625 35.0439 47.8031L36.9657 45.5344C37.0314 45.4594 37.0595 45.3562 37.0501 45.2625C37.0501 45.0562 36.872 45.0094 36.7314 44.9156ZM14.8689 15.7031C14.7189 7.65937 24.5814 3.20625 30.3657 8.91562C34.2095 12.4875 33.9751 19.125 29.9157 22.4437C28.0407 24.0187 27.1782 26.3719 27.3282 28.7438H20.672C20.8314 26.3719 19.9876 24.0469 18.047 22.4062C16.0876 20.7375 14.9251 18.2906 14.8689 15.7031ZM16.8095 16.6312C18.4501 18.9844 21.1407 20.3906 24.0001 20.3906C26.8595 20.3906 29.5501 18.9844 31.2001 16.6312C31.322 16.4531 31.322 16.2188 31.2001 16.0406C29.5595 13.6875 26.8689 12.2812 24.0001 12.2812C21.1314 12.2812 18.4501 13.6875 16.8095 16.0406C16.6782 16.2094 16.6782 16.4531 16.8095 16.6312ZM26.7751 31.4906H28.3876C28.8564 31.4906 29.2407 31.1062 29.2407 30.6375C29.2407 30.1594 28.8564 29.7844 28.3876 29.7844H19.6126C19.1439 29.7844 18.7595 30.1687 18.7595 30.6375C18.7595 31.1062 19.1439 31.4906 19.6126 31.4906H22.2845C22.9689 31.5 22.9689 32.5219 22.2845 32.5312H19.6126C18.4876 32.55 18.497 34.2094 19.6126 34.2375H28.3876C28.8564 34.2375 29.2407 33.8531 29.2407 33.3844C29.2407 32.9156 28.8564 32.5406 28.3876 32.5406H26.7751C26.1001 32.5219 26.0907 31.5094 26.7751 31.4906ZM23.447 38.0813H24.5532C26.147 38.0813 27.4595 36.8438 27.5907 35.2781H20.4189C20.5407 36.8438 21.8532 38.0813 23.447 38.0813ZM20.6157 18.5625C20.1845 17.925 19.9407 17.1562 19.9407 16.3312C19.9407 15.5062 20.1845 14.7469 20.6157 14.1C19.5564 14.625 18.6095 15.375 17.8689 16.3312C18.6095 17.2875 19.5564 18.0469 20.6157 18.5625ZM24.3376 13.3312C28.2845 13.8937 27.647 19.6406 23.672 19.3219C19.7251 18.7594 20.3626 13.0219 24.3376 13.3312ZM24.0001 17.7938C25.9314 17.7469 25.9314 14.9156 24.0001 14.8688C22.0689 14.9156 22.0689 17.7469 24.0001 17.7938ZM30.122 16.3312C29.3814 15.375 28.4439 14.6156 27.3845 14.1C28.2657 15.3656 28.2657 17.2969 27.3845 18.5625C28.4532 18.0469 29.3907 17.2875 30.122 16.3312ZM24.422 16.3312C24.422 15.7781 23.5876 15.7781 23.5782 16.3312C23.5876 16.8844 24.422 16.8844 24.422 16.3312ZM13.9595 25.6406L12.4876 27.1125C12.2814 27.3188 12.2814 27.6469 12.4876 27.8438C12.6939 28.0406 13.022 28.05 13.2189 27.8438L14.6907 26.3719C14.897 26.1656 14.897 25.8375 14.6907 25.6406C14.4939 25.4344 14.1657 25.4344 13.9595 25.6406ZM34.0407 7.02188L35.5126 5.55C35.7189 5.34375 35.7189 5.01562 35.5126 4.81875C35.3064 4.6125 34.9782 4.6125 34.7814 4.81875L33.3095 6.29062C33.1032 6.49687 33.1032 6.825 33.3095 7.02188C33.5157 7.22813 33.8439 7.22813 34.0407 7.02188ZM8.24075 16.8563H10.322C11.0064 16.8563 11.0064 15.8156 10.322 15.8156H8.24075C7.55637 15.8156 7.55637 16.8469 8.24075 16.8563ZM37.6876 16.8563H39.7689C40.4532 16.8563 40.4532 15.8156 39.7689 15.8156H37.6876C37.0032 15.8156 37.0032 16.8469 37.6876 16.8563ZM13.9595 7.02188C14.4376 7.5 15.1782 6.76875 14.6907 6.29062L13.2189 4.81875C12.7407 4.34063 12.0001 5.07188 12.4876 5.55L13.9595 7.02188ZM34.7814 27.8438C35.2595 28.3219 36.0001 27.5906 35.5126 27.1125L34.0407 25.6406C33.5626 25.1625 32.822 25.8937 33.3095 26.3719L34.7814 27.8438ZM24.5251 2.65312V0.571875C24.5251 -0.1125 23.4845 -0.1125 23.4845 0.571875V2.65312C23.4845 3.32812 24.5157 3.32812 24.5251 2.65312Z" fill="#E32934"/>
</g>
<defs>
<clipPath id="clip0_1_57488">
<rect width="48" height="48" fill="white"/>
</clipPath>
</defs>
</svg>
