<svg width="48" height="48" viewBox="0 0 48 48" fill="none" xmlns="http://www.w3.org/2000/svg">
<path d="M22.5 40.2727C22.7993 40.5307 23.031 40.8645 23.1525 41.25H23.25C24.15 41.25 24.9495 41.6565 25.5 42.2865V37.5H22.5V40.2727Z" fill="#E32934"/>
<path d="M28.5 36H31.5V45.75H28.5V36Z" fill="#E32934"/>
<path d="M34.5 34.5H37.5V45.75H34.5V34.5Z" fill="#E32934"/>
<path d="M19.5 24.0879V24.6961C19.5 24.8431 19.5142 24.9879 19.5195 25.1341L20.6708 24.6736L19.5 24.0879Z" fill="#E32934"/>
<path d="M25.4989 24.6961V24.0879L24.3281 24.6729L25.4794 25.1334C25.4846 24.9871 25.4989 24.8431 25.4989 24.6961Z" fill="#E32934"/>
<path d="M24.6306 29.1846C24.9516 28.3844 25.1863 27.5496 25.3288 26.6901L24.7363 26.4531L24.0703 27.7844L24.6306 29.1846Z" fill="#E32934"/>
<path d="M24.35 21.7324C24.2345 21.7399 24.119 21.7497 24.002 21.7497H21.002C20.885 21.7497 20.7695 21.7399 20.654 21.7324L20.375 22.8484L22.502 23.9112L24.6282 22.8477L24.35 21.7324Z" fill="#E32934"/>
<path d="M29.25 12.75V15.75C30.0773 15.75 30.75 15.0773 30.75 14.25C30.75 13.4227 30.0773 12.75 29.25 12.75Z" fill="#E32934"/>
<path d="M15.75 15.75V12.75C14.9227 12.75 14.25 13.4227 14.25 14.25C14.25 15.0773 14.9227 15.75 15.75 15.75Z" fill="#E32934"/>
<path d="M23.3426 25.8946L22.5033 25.5586L21.6641 25.8946L22.2168 27.0008H22.7898L23.3426 25.8946Z" fill="#E32934"/>
<path d="M14.5275 11.517C14.9018 11.3483 15.3135 11.25 15.75 11.25V10.5C15.75 8.63925 17.1165 7.10175 18.8962 6.81075C18.8047 6.39975 18.75 5.9775 18.75 5.54625V5.25H20.25V5.54625C20.25 6.98775 20.9663 8.3265 22.1663 9.126L21.3345 10.374C20.517 9.82875 19.8675 9.0975 19.4235 8.2575C18.2183 8.2995 17.25 9.28575 17.25 10.5V16.5C17.25 18.5677 18.9323 20.25 21 20.25H24C26.0677 20.25 27.75 18.5677 27.75 16.5V11.25C27.75 10.4227 27.0773 9.75 26.25 9.75C23.7682 9.75 21.75 7.73175 21.75 5.25H23.25C23.25 6.9045 24.5955 8.25 26.25 8.25C27.9045 8.25 29.25 9.5955 29.25 11.25C29.6865 11.25 30.0983 11.3483 30.4725 11.517L30.5332 11.2755C30.6772 10.7003 30.75 10.1078 30.75 9.51375C30.75 5.508 27.492 2.25 23.4862 2.25H21.513C17.508 2.25 14.25 5.508 14.25 9.51375C14.25 10.1078 14.3227 10.7003 14.4667 11.2755L14.5275 11.517ZM19.5 12.75C19.086 12.75 18.75 12.414 18.75 12C18.75 11.586 19.086 11.25 19.5 11.25C19.914 11.25 20.25 11.586 20.25 12C20.25 12.414 19.914 12.75 19.5 12.75ZM25.5 11.25C25.914 11.25 26.25 11.586 26.25 12C26.25 12.414 25.914 12.75 25.5 12.75C25.086 12.75 24.75 12.414 24.75 12C24.75 11.586 25.086 11.25 25.5 11.25ZM23.25 17.25C24.0773 17.25 24.75 16.5773 24.75 15.75H26.25C26.25 17.4045 24.9045 18.75 23.25 18.75H20.25V17.25H23.25Z" fill="#E32934"/>
<path d="M22.4994 32.655C22.9629 32.1293 23.3724 31.5675 23.7331 30.9795L22.7416 28.5H22.2571L21.2656 30.9795C21.6264 31.5675 22.0359 32.1293 22.4994 32.655Z" fill="#E32934"/>
<path d="M20.9304 27.7844L20.2644 26.4531L19.6719 26.6901C19.8144 27.5496 20.0491 28.3836 20.3701 29.1846L20.9304 27.7844Z" fill="#E32934"/>
<path d="M38.2566 25.5625L35.7891 32.9995H39.0006V37.9232C40.3228 37.3277 41.2506 35.9762 41.2506 34.4027V27.6115C41.0151 27.6955 40.7646 27.7495 40.5006 27.7495C39.2811 27.7495 38.2911 26.773 38.2566 25.5625Z" fill="#E32934"/>
<path d="M27 24.3242V24.697C27 28.3172 25.59 31.7215 23.0303 34.2805L22.5 34.8107L21.9697 34.2805C19.41 31.7215 18 28.3172 18 24.697V24.355C13.2015 25.7732 9.75 30.238 9.75 35.3575V39.0002C9.75 42.7225 12.7785 45.7502 16.5 45.7502H18.75V42.7502H16.5C14.4323 42.7502 12.75 41.068 12.75 39.0002V30.7502H14.25V39.0002C14.25 40.2407 15.2595 41.2502 16.5 41.2502H19.0365L19.1947 40.9337C19.5428 40.237 20.2297 39.805 21 39.7652V36.0002H27V34.5002H30.75V30.7502H32.25V33.0197L34.2075 33.0002L35.1667 30.1097C33.2437 27.2845 30.2873 25.204 27 24.3242Z" fill="#E32934"/>
<path d="M23.25 42.75H21.75V41.8905C21.75 41.538 21.4627 41.25 21.1095 41.25C20.865 41.25 20.6452 41.3857 20.5365 41.6047L20.25 42.177V45.75H22.5H23.25C24.0773 45.75 24.75 45.0773 24.75 44.25C24.75 43.4227 24.0773 42.75 23.25 42.75Z" fill="#E32934"/>
<path d="M39.75 20.2051V25.4993C39.75 25.9133 40.0868 26.2493 40.5 26.2493C40.9132 26.2493 41.25 25.9133 41.25 25.4993V20.2051C41.0033 20.2328 40.7535 20.2493 40.5 20.2493C40.2465 20.2493 39.9967 20.2328 39.75 20.2051Z" fill="#E32934"/>
<path d="M43.5 20.25C43.0868 20.25 42.75 20.5868 42.75 21V24C42.75 24.4132 43.0868 24.75 43.5 24.75C43.9132 24.75 44.25 24.4132 44.25 24V21C44.25 20.5868 43.9132 20.25 43.5 20.25Z" fill="#E32934"/>
<path d="M37.5 21.75C37.9142 21.75 38.25 21.4142 38.25 21C38.25 20.5858 37.9142 20.25 37.5 20.25C37.0858 20.25 36.75 20.5858 36.75 21C36.75 21.4142 37.0858 21.75 37.5 21.75Z" fill="#E32934"/>
<path d="M40.5 18.75C43.395 18.75 45.75 16.395 45.75 13.5C45.75 10.605 43.395 8.25 40.5 8.25C37.605 8.25 35.25 10.605 35.25 13.5C35.25 16.395 37.605 18.75 40.5 18.75ZM40.5 10.5C42.1568 10.5 43.5 11.8432 43.5 13.5C43.5 15.1568 42.1568 16.5 40.5 16.5C38.8432 16.5 37.5 15.1568 37.5 13.5C37.5 11.8432 38.8432 10.5 40.5 10.5Z" fill="#E32934"/>
<path d="M2.25 9.75H3.75V11.25H2.25V9.75Z" fill="#E32934"/>
<path d="M5.25 9.75H12.75V11.25H5.25V9.75Z" fill="#E32934"/>
<path d="M2.25 12.75H3.75V14.25H2.25V12.75Z" fill="#E32934"/>
<path d="M5.25 12.75H12.75V14.25H5.25V12.75Z" fill="#E32934"/>
<path d="M2.25 15.75H3.75V17.25H2.25V15.75Z" fill="#E32934"/>
<path d="M5.25 15.75H12.75V17.25H5.25V15.75Z" fill="#E32934"/>
</svg>
