<svg width="48" height="48" viewBox="0 0 48 48" fill="none" xmlns="http://www.w3.org/2000/svg">
<path d="M30.75 10.5V16.5C30.7497 16.6988 30.6706 16.8894 30.53 17.03C30.3894 17.1706 30.1988 17.2497 30 17.25H21.75V9.75H24C24.1775 9.75001 24.3493 9.68705 24.4847 9.57232C24.6202 9.45758 24.7106 9.29851 24.7397 9.12341L25.3854 5.25H26.25L26.2504 9C26.2504 9.19891 26.3294 9.38968 26.47 9.53033C26.6107 9.67098 26.8015 9.75 27.0004 9.75H30C30.1988 9.75026 30.3894 9.82936 30.53 9.96995C30.6706 10.1106 30.7497 10.3012 30.75 10.5ZM17.25 8.25V18.75H20.2511L20.25 8.25H17.25ZM37.5 21.75H10.5V3.75C10.5004 3.3523 10.6586 2.971 10.9398 2.68978C11.221 2.40856 11.6023 2.2504 12 2.25H36C36.3977 2.25045 36.779 2.40864 37.0602 2.68984C37.3414 2.97105 37.4995 3.35231 37.5 3.75V21.75ZM32.25 10.5C32.2493 9.90346 32.0121 9.33154 31.5903 8.90973C31.1685 8.48791 30.5965 8.25065 30 8.25H27.7504L27.75 5.25C27.7496 4.8523 27.5914 4.471 27.3102 4.18978C27.029 3.90856 26.6477 3.7504 26.25 3.75H25.3854C25.0301 3.74908 24.6861 3.87468 24.415 4.10431C24.1439 4.33394 23.9634 4.65259 23.9059 5.00317L23.3646 8.25H21.75C21.7496 7.8523 21.5914 7.471 21.3102 7.18978C21.029 6.90856 20.6477 6.7504 20.25 6.75H17.25C16.8523 6.7504 16.471 6.90856 16.1898 7.18978C15.9086 7.471 15.7504 7.8523 15.75 8.25V18.75C15.7504 19.1477 15.9086 19.529 16.1898 19.8102C16.471 20.0914 16.8523 20.2496 17.25 20.25H20.25C20.6477 20.2496 21.029 20.0914 21.3102 19.8102C21.5914 19.529 21.7496 19.1477 21.75 18.75H30C30.5965 18.7493 31.1685 18.5121 31.5903 18.0903C32.0121 17.6685 32.2493 17.0965 32.25 16.5V10.5ZM40.5 25.5V43.5C40.4993 44.0965 40.2621 44.6685 39.8403 45.0903C39.4185 45.5121 38.8465 45.7493 38.25 45.75H9.75C9.15346 45.7493 8.58154 45.5121 8.15973 45.0903C7.73791 44.6685 7.50065 44.0965 7.5 43.5V25.5C7.50065 24.9035 7.73791 24.3315 8.15973 23.9097C8.58154 23.4879 9.15346 23.2507 9.75 23.25H38.25C38.8465 23.2507 39.4185 23.4879 39.8403 23.9097C40.2621 24.3315 40.4993 24.9035 40.5 25.5ZM38.1852 25.9453C38.1454 25.8551 38.0882 25.7737 38.0169 25.7057C37.9455 25.6377 37.8614 25.5845 37.7694 25.5491C37.6774 25.5137 37.5793 25.4969 37.4808 25.4996C37.3823 25.5023 37.2852 25.5245 37.1953 25.5648L24 31.4293L10.8047 25.5648C10.623 25.4843 10.4168 25.4792 10.2314 25.5506C10.046 25.622 9.89645 25.7641 9.81571 25.9457C9.73497 26.1273 9.7296 26.3335 9.80077 26.519C9.87195 26.7045 10.0139 26.8542 10.1953 26.9352L23.6953 32.9352C23.7912 32.9779 23.895 33 24 33C24.105 33 24.2088 32.9779 24.3047 32.9352L37.8047 26.9352C37.8947 26.8952 37.9759 26.8379 38.0438 26.7665C38.1116 26.6951 38.1647 26.611 38.2 26.5191C38.2354 26.4272 38.2522 26.3292 38.2497 26.2307C38.2471 26.1323 38.2252 26.0353 38.1852 25.9453Z" fill="#E32934"/>
</svg>
