<svg width="48" height="48" viewBox="0 0 48 48" fill="none" xmlns="http://www.w3.org/2000/svg">
<path d="M45.6 20.1996C45.4 19.9996 45.2 19.9996 44.8 19.9996H41.6C41.2 18.1996 40.4 16.3996 39.4 14.9996L41.6 12.7996C42 12.3996 42 11.7996 41.6 11.5996L36.6 6.59961C36.4 6.39961 36.2 6.39961 36 6.39961C35.8 6.39961 35.6 6.59961 35.4 6.59961L33.2 8.79961C31.6 7.79961 30 7.19961 28.2 6.59961V3.39961C28.2 3.19961 28 2.99961 28 2.79961C27.8 2.59961 27.6 2.59961 27.4 2.59961H20.4C19.8 2.59961 19.4 2.99961 19.4 3.59961V6.79961C17.6 6.99961 16 7.59961 14.4 8.59961L12.2 6.39961C12 6.19961 11.8 6.19961 11.6 6.19961C11.4 6.19961 11.2 6.39961 11 6.39961L6 11.3996C5.8 11.3996 5.6 11.7996 5.6 11.9996C5.6 12.1996 5.8 12.3996 5.8 12.5996L8 14.7996C7.2 16.3996 6.4 18.1996 6 19.9996H2.8C2.6 19.9996 2.4 20.1996 2.2 20.1996C2.2 20.3996 2 20.5996 2 20.7996V27.7996C2 28.1996 2.4 28.5996 3 28.5996H6C6.4 30.3996 7.2 32.1996 8.2 33.7996L6 35.9996C5.8 36.1996 5.8 36.3996 5.8 36.5996C5.8 36.7996 6 36.9996 6 37.1996L11 42.1996C11.4 42.5996 12 42.5996 12.2 42.1996L14.4 39.9996C16 40.7996 17.6 41.5996 19.4 41.9996V45.1996C19.4 45.7996 19.8 46.1996 20.4 46.1996H27.4C27.6 46.1996 27.8 45.9996 28 45.9996C28.2 45.7996 28.2 45.5996 28.2 45.3996V42.1996C30 41.7996 31.8 40.9996 33.2 40.1996L35.4 42.3996C35.8 42.7996 36.4 42.7996 36.6 42.3996L41.6 37.3996C42 36.9996 42 36.3996 41.6 35.9996L39.4 33.7996C40.4 32.1996 41 30.3996 41.6 28.5996H44.8C45 28.5996 45.2 28.5996 45.4 28.3996C45.6 28.1996 45.6 27.9996 45.6 27.7996V20.7996C45.8 20.5996 45.6 20.3996 45.6 20.1996ZM32.2 24.9996C31 26.1996 29.4 26.7996 27.8 26.7996C27.6 26.7996 27.4 26.7996 27.2 26.7996C26.6 26.7996 26.4 26.1996 26.4 25.7996C26.4 25.3996 26.8 24.9996 27.4 24.9996C28.8 25.1996 30.2 24.5996 31 23.7996C31.8 22.9996 32.2 21.7996 32.2 20.5996C32.2 19.3996 31.8 18.1996 31 17.3996C29.2 15.5996 26.4 15.5996 24.6 17.3996C22.8 19.1996 22.8 21.9996 24.6 23.7996C27 26.3996 27 30.1996 24.6 32.7996C23.4 33.9996 21.8 34.5996 20.2 34.5996C18.6 34.5996 17 33.9996 15.8 32.7996C14.6 31.5996 14 29.9996 14 28.3996C14 26.7996 14.6 25.1996 15.8 23.9996C17.2 22.5996 19 21.9996 20.8 22.1996C21.4 22.1996 21.6 22.7996 21.6 23.1996C21.6 23.7996 21 23.9996 20.6 23.9996C19.2 23.7996 17.8 24.3996 17 25.1996C16.2 25.9996 15.6 27.1996 15.6 28.3996C15.6 29.5996 16 30.7996 17 31.5996C18.8 33.3996 21.6 33.3996 23.4 31.5996C25.2 29.7996 25.2 26.9996 23.4 25.1996C21 22.7996 21 18.7996 23.4 16.1996C25.8 13.7996 29.8 13.7996 32.4 16.1996C33.6 17.3996 34.2 18.9996 34.2 20.5996C34 22.1996 33.4 23.7996 32.2 24.9996Z" fill="#E32934"/>
</svg>
