<svg width="48" height="48" viewBox="0 0 48 48" fill="none" xmlns="http://www.w3.org/2000/svg">
<path d="M35.9008 25.5667C35.9675 25.0667 36.0008 24.55 36.0008 24C36.0008 23.4667 35.9675 22.9333 35.8842 22.4333L39.2675 19.8C39.5675 19.5667 39.6508 19.1167 39.4675 18.7833L36.2675 13.25C36.0675 12.8833 35.6508 12.7667 35.2842 12.8833L31.3008 14.4833C30.4675 13.85 29.5842 13.3167 28.6008 12.9167L28.0008 8.68333C27.9342 8.28333 27.6008 8 27.2008 8H20.8008C20.4008 8 20.0842 8.28333 20.0175 8.68333L19.4175 12.9167C18.4342 13.3167 17.5342 13.8667 16.7175 14.4833L12.7342 12.8833C12.3675 12.75 11.9508 12.8833 11.7508 13.25L8.5675 18.7833C8.3675 19.1333 8.43417 19.5667 8.7675 19.8L12.1508 22.4333C12.0675 22.9333 12.0008 23.4833 12.0008 24C12.0008 24.5167 12.0342 25.0667 12.1175 25.5667L8.73417 28.2C8.43417 28.4333 8.35083 28.8833 8.53417 29.2167L11.7342 34.75C11.9342 35.1167 12.3508 35.2333 12.7175 35.1167L16.7008 33.5167C17.5342 34.15 18.4175 34.6833 19.4008 35.0833L20.0008 39.3167C20.0842 39.7167 20.4008 40 20.8008 40H27.2008C27.6008 40 27.9342 39.7167 27.9842 39.3167L28.5842 35.0833C29.5675 34.6833 30.4675 34.15 31.2842 33.5167L35.2675 35.1167C35.6342 35.25 36.0508 35.1167 36.2508 34.75L39.4508 29.2167C39.6508 28.85 39.5675 28.4333 39.2508 28.2L35.9008 25.5667ZM24.0008 30C20.7008 30 18.0008 27.3 18.0008 24C18.0008 20.7 20.7008 18 24.0008 18C27.3008 18 30.0008 20.7 30.0008 24C30.0008 27.3 27.3008 30 24.0008 30Z" fill="#E32934"/>
</svg>
