<svg width="48" height="48" viewBox="0 0 48 48" fill="none" xmlns="http://www.w3.org/2000/svg">
<path fill-rule="evenodd" clip-rule="evenodd" d="M7.48969 12.5852C7.80094 12.5852 8.05219 12.8374 8.05219 13.1477V23.8784H10.215L9.28312 22.8143C8.92969 22.4112 8.75531 21.8918 8.79094 21.3537C8.82656 20.8155 9.06844 20.3243 9.4725 19.9709C9.88313 19.6109 10.4062 19.4543 10.9237 19.4918V13.1487C10.9237 12.8374 11.1759 12.5862 11.4862 12.5862H12.3066L9.48844 8.83523L6.67031 12.5862H7.48969V12.5852ZM33.1481 39.4446L35.4938 41.6627C35.6334 41.7949 35.6953 41.988 35.6597 42.1765L35.0541 45.3396L37.8891 43.7946C37.9734 43.7487 38.0662 43.7262 38.1581 43.7262C38.2519 43.7262 38.3456 43.7496 38.43 43.7955L41.2509 45.348L40.6566 42.1746C40.6219 41.9862 40.6847 41.7921 40.8253 41.6609L43.1737 39.4577L39.9722 39.0415C39.7819 39.0171 39.6169 38.8962 39.5353 38.7227L38.1656 35.808L36.7809 38.7246C36.6984 38.898 36.5334 39.0171 36.3431 39.0415L33.1481 39.4446ZM11.6419 39.4446L8.44687 39.0424C8.25656 39.018 8.09156 38.899 8.00906 38.7255L6.62437 35.809L5.25562 38.7237C5.17406 38.8971 5.00906 39.0171 4.81875 39.0424L1.61719 39.4587L3.96562 41.6618C4.10625 41.793 4.16906 41.9871 4.13437 42.1755L3.54 45.349L6.36094 43.7965C6.52969 43.7046 6.73313 43.7037 6.90188 43.7955L9.73688 45.3405L9.13125 42.1774C9.09562 41.989 9.1575 41.7949 9.29719 41.6637L11.6419 39.4446ZM24.1219 37.2368L22.4006 33.574L20.6606 37.2387C20.5781 37.4121 20.4131 37.5312 20.2228 37.5555L16.2075 38.0609L19.155 40.849C19.2947 40.9812 19.3566 41.1743 19.3209 41.3637L18.5606 45.3387L22.1222 43.3971C22.2066 43.3512 22.2994 43.3287 22.3922 43.3287C22.485 43.3287 22.5787 43.3521 22.6631 43.398L26.2087 45.3499L25.4625 41.3618C25.4269 41.1734 25.4906 40.9793 25.6303 40.848L28.5825 38.0787L24.5588 37.5546C24.3684 37.5302 24.2034 37.4102 24.1219 37.2368ZM26.2913 27.9115C26.4431 27.9115 26.5894 27.8496 26.6953 27.7399L33.3019 20.9205C33.6675 20.5437 34.215 20.4987 34.5778 20.8165C34.7559 20.9721 34.8619 21.1887 34.8778 21.4268C34.8937 21.6649 34.8169 21.8946 34.6613 22.0718L26.8847 30.9546C26.7956 31.0568 26.7459 31.189 26.7459 31.3249V36.7034L25.0097 36.4784L22.9125 32.0168C22.8206 31.8199 22.6228 31.6934 22.4044 31.6934C22.4044 31.6934 22.4044 31.6934 22.4034 31.6934C22.1869 31.6934 21.9891 31.818 21.8953 32.0149L19.7766 36.4774L18.045 36.6949V31.3259C18.045 31.1899 17.9963 31.0577 17.9062 30.9555L10.1297 22.0727C9.97406 21.8946 9.89719 21.6659 9.91313 21.4277C9.92906 21.1896 10.0359 20.9721 10.2131 20.8174C10.5759 20.4996 11.1244 20.5446 11.4891 20.9215L18.0956 27.7409C18.2016 27.8505 18.3478 27.9124 18.4997 27.9124H26.2913V27.9115ZM26.1394 20.9074C26.1394 18.843 24.4594 17.164 22.3959 17.164C20.3316 17.164 18.6516 18.843 18.6516 20.9074C18.6516 22.9718 20.3316 24.6509 22.3959 24.6509C24.4584 24.6509 26.1394 22.9718 26.1394 20.9074ZM35.3016 8.83336L32.4834 12.5843H33.3037C33.6141 12.5843 33.8662 12.8365 33.8662 13.1468V19.4899C34.3838 19.4524 34.9069 19.609 35.3175 19.969C35.7216 20.3224 35.9634 20.8137 35.9991 21.3518C36.0356 21.8909 35.8603 22.4093 35.5069 22.8124L34.575 23.8765H36.7378V13.1477C36.7378 12.8365 36.9891 12.5852 37.3003 12.5852H38.1197L35.3016 8.83336ZM22.3959 3.26367L17.5706 9.41648H19.2356C19.5469 9.41648 19.7981 9.66867 19.7981 9.97898V16.7918C20.5509 16.3155 21.4406 16.038 22.3959 16.038C23.3503 16.038 24.2409 16.3146 24.9928 16.7918V9.97898C24.9928 9.66773 25.245 9.41648 25.5553 9.41648H27.2203L22.3959 3.26367Z" fill="#E32934"/>
</svg>
