<svg width="48" height="48" viewBox="0 0 48 48" fill="none" xmlns="http://www.w3.org/2000/svg">
<path d="M35.6667 12.3333H32.3333V9H15.6667V12.3333H12.3333C10.5 12.3333 9 13.8333 9 15.6667V17.3333C9 21.5833 12.2 25.05 16.3167 25.5667C17.3667 28.0667 19.6167 29.95 22.3333 30.5V35.6667H15.6667V39H32.3333V35.6667H25.6667V30.5C28.3833 29.95 30.6333 28.0667 31.6833 25.5667C35.8 25.05 39 21.5833 39 17.3333V15.6667C39 13.8333 37.5 12.3333 35.6667 12.3333ZM12.3333 17.3333V15.6667H15.6667V22.0333C13.7333 21.3333 12.3333 19.5 12.3333 17.3333ZM35.6667 17.3333C35.6667 19.5 34.2667 21.3333 32.3333 22.0333V15.6667H35.6667V17.3333Z" fill="#E32934"/>
</svg>
