<svg width="48" height="48" viewBox="0 0 48 48" fill="none" xmlns="http://www.w3.org/2000/svg">
<path d="M35.6634 17.3333H12.3301C9.56341 17.3333 7.33008 19.5667 7.33008 22.3333V32.3333H13.9967V39H33.9967V32.3333H40.6634V22.3333C40.6634 19.5667 38.4301 17.3333 35.6634 17.3333ZM30.6634 35.6667H17.3301V27.3333H30.6634V35.6667ZM35.6634 24C34.7467 24 33.9967 23.25 33.9967 22.3333C33.9967 21.4167 34.7467 20.6667 35.6634 20.6667C36.5801 20.6667 37.3301 21.4167 37.3301 22.3333C37.3301 23.25 36.5801 24 35.6634 24ZM33.9967 9H13.9967V15.6667H33.9967V9Z" fill="#E32934"/>
</svg>
