<svg width="48" height="48" viewBox="0 0 48 48" fill="none" xmlns="http://www.w3.org/2000/svg">
<path d="M16.6289 10.7193L14.2456 8.33594C10.2456 11.3859 7.61224 16.0859 7.37891 21.4193H10.7122C10.9622 17.0026 13.2289 13.1359 16.6289 10.7193ZM37.2789 21.4193H40.6122C40.3622 16.0859 37.7289 11.3859 33.7456 8.33594L31.3789 10.7193C34.7456 13.1359 37.0289 17.0026 37.2789 21.4193ZM33.9956 22.2526C33.9956 17.1359 31.2622 12.8526 26.4956 11.7193V10.5859C26.4956 9.2026 25.3789 8.08594 23.9956 8.08594C22.6122 8.08594 21.4956 9.2026 21.4956 10.5859V11.7193C16.7122 12.8526 13.9956 17.1193 13.9956 22.2526V30.5859L10.6622 33.9193V35.5859H37.3289V33.9193L33.9956 30.5859V22.2526ZM23.9956 40.5859C24.2289 40.5859 24.4456 40.5693 24.6622 40.5193C25.7456 40.2859 26.6289 39.5526 27.0622 38.5526C27.2289 38.1526 27.3122 37.7193 27.3122 37.2526H20.6456C20.6622 39.0859 22.1456 40.5859 23.9956 40.5859Z" fill="#E32934"/>
</svg>
