<svg width="44" height="45" viewBox="0 0 44 45" fill="none" xmlns="http://www.w3.org/2000/svg">
<path d="M33.6016 27.7422C33.6016 21.3447 28.3974 16.1406 22 16.1406C15.6026 16.1406 10.3984 21.3447 10.3984 27.7422C10.3984 34.1396 15.6026 39.3438 22 39.3438C28.3974 39.3438 33.6016 34.1396 33.6016 27.7422ZM22 21.2969C24.1325 21.2969 25.8672 23.0316 25.8672 25.1641C25.8672 26.3876 25.2781 27.5521 24.2924 28.2784C23.6642 28.7417 23.2891 29.4819 23.2891 30.2599L20.7109 30.3203C20.7109 28.6662 21.4776 27.1505 22.7616 26.2039C23.0964 25.9572 23.2891 25.5783 23.2891 25.1641C23.2891 24.4528 22.7112 23.875 22 23.875C21.2888 23.875 20.7109 24.4528 20.7109 25.1641H18.1328C18.1328 23.0316 19.8675 21.2969 22 21.2969ZM20.7109 31.6094H23.2891V34.1875H20.7109V31.6094Z" fill="#E32934"/>
<path d="M41.4219 18.9562C41.4219 17.3618 41.4219 11.7832 41.4219 12.1016C41.4219 5.70412 36.2178 0.5 29.8203 0.5H14.1797C7.78224 0.5 2.57812 5.70412 2.57812 12.1016C2.57812 12.5133 2.57812 19.3491 2.57812 18.9562C1.08092 19.4901 0 20.9076 0 22.5859V32.8984C0 35.0309 1.73473 36.7656 3.86719 36.7656H7.73438V18.7188H5.15625V15.9688H10.3125V12.1016C10.3125 9.96911 12.0472 8.23438 14.1797 8.23438H29.8203C31.9528 8.23438 33.6875 9.96911 33.6875 12.1016V15.9688H38.8438V18.7188H36.2656V36.7656H38.8438V38.0547C38.8438 40.1871 37.109 41.9219 34.9766 41.9219H20.7109V44.5H34.9766C38.5303 44.5 41.4219 41.6085 41.4219 38.0547V36.5282C42.9191 35.9943 44 34.5768 44 32.8984V22.5859C44 20.9076 42.9191 19.4901 41.4219 18.9562Z" fill="#E32934"/>
</svg>
