<svg width="48" height="48" viewBox="0 0 48 48" fill="none" xmlns="http://www.w3.org/2000/svg">
<path d="M41.25 10.125H30.21V10.515C29.8831 18.7473 18.1118 18.7362 17.79 10.5149V10.125H6.75C5.75555 10.1254 4.80193 10.5206 4.09875 11.2237C3.39556 11.9269 3.00036 12.8805 3 13.875V34.125C3.00036 35.1195 3.39556 36.0731 4.09875 36.7763C4.80193 37.4794 5.75555 37.8746 6.75 37.875H41.25C42.2445 37.8746 43.1981 37.4794 43.9013 36.7763C44.6044 36.0731 44.9996 35.1195 45 34.125V13.875C44.9996 12.8805 44.6044 11.9269 43.9013 11.2237C43.1981 10.5206 42.2445 10.1254 41.25 10.125ZM20.1825 17.895H40.5825C40.7795 17.8979 40.9674 17.9782 41.1057 18.1186C41.2439 18.2589 41.3214 18.448 41.3214 18.645C41.3214 18.842 41.2439 19.0311 41.1056 19.1715C40.9674 19.3118 40.7794 19.3921 40.5825 19.395H20.1825C19.9855 19.3921 19.7976 19.3118 19.6593 19.1714C19.521 19.0311 19.4435 18.842 19.4435 18.645C19.4435 18.448 19.521 18.2589 19.6593 18.1186C19.7976 17.9782 19.9855 17.8979 20.1825 17.895ZM20.1825 22.9275H40.5825C40.7795 22.9304 40.9674 23.0107 41.1057 23.1511C41.2439 23.2914 41.3214 23.4805 41.3214 23.6775C41.3214 23.8745 41.2439 24.0636 41.1056 24.204C40.9674 24.3443 40.7794 24.4246 40.5825 24.4275H20.1825C19.9855 24.4246 19.7976 24.3443 19.6593 24.2039C19.521 24.0636 19.4435 23.8745 19.4435 23.6775C19.4435 23.4805 19.521 23.2914 19.6593 23.1511C19.7976 23.0107 19.9855 22.9304 20.1825 22.9275ZM20.1825 27.9525H40.5825C40.7795 27.9554 40.9674 28.0357 41.1057 28.176C41.2439 28.3164 41.3214 28.5055 41.3214 28.7025C41.3214 28.8995 41.2439 29.0886 41.1056 29.2289C40.9674 29.3693 40.7794 29.4495 40.5825 29.4525H20.1825C19.9857 29.4492 19.7981 29.3688 19.6601 29.2285C19.5221 29.0882 19.4447 28.8993 19.4447 28.7025C19.4447 28.5057 19.5221 28.3168 19.6601 28.1765C19.7981 28.0362 19.9857 27.9557 20.1825 27.9525ZM40.5825 32.985C40.7794 32.988 40.9672 33.0684 41.1054 33.2087C41.2435 33.349 41.321 33.5381 41.3209 33.735C41.3209 33.9319 41.2435 34.1209 41.1053 34.2612C40.9672 34.4016 40.7794 34.4819 40.5825 34.485H9.3975C9.2006 34.4819 9.0128 34.4015 8.87464 34.2612C8.73648 34.1209 8.65905 33.9319 8.65905 33.7349C8.65906 33.538 8.7365 33.349 8.87467 33.2087C9.01284 33.0684 9.20064 32.988 9.39754 32.985H40.5825ZM6.57 15.6825C6.57175 15.0863 6.80936 14.515 7.23094 14.0934C7.65252 13.6719 8.2238 13.4342 8.82 13.4325H14.7375C15.3337 13.4343 15.905 13.6719 16.3266 14.0934C16.7481 14.515 16.9857 15.0863 16.9875 15.6825V21.6C16.9858 22.1962 16.7481 22.7675 16.3266 23.1891C15.905 23.6106 15.3337 23.8483 14.7375 23.85H8.82C8.2238 23.8483 7.65251 23.6106 7.23093 23.1891C6.80935 22.7675 6.57174 22.1962 6.57 21.6V15.6825Z" fill="#E32934"/>
<path d="M23.9991 15.2249C25.248 15.224 26.4455 14.7275 27.3286 13.8444C28.2117 12.9613 28.7082 11.7638 28.7091 10.5149V4.85986C28.7086 4.26327 28.4714 3.69125 28.0495 3.2694C27.6277 2.84754 27.0557 2.61034 26.4591 2.60986H21.5391C20.9425 2.61034 20.3705 2.84754 19.9486 3.2694C19.5267 3.69125 19.2895 4.26327 19.2891 4.85986V10.5149C19.2899 11.7638 19.7864 12.9613 20.6695 13.8444C21.5526 14.7275 22.7502 15.224 23.9991 15.2249ZM23.9991 4.74736C24.6579 4.75422 25.2875 5.02077 25.751 5.48911C26.2145 5.95744 26.4744 6.58974 26.4744 7.24865C26.4744 7.90756 26.2144 8.53985 25.7509 9.00817C25.2874 9.4765 24.6579 9.74303 23.999 9.74986C23.3401 9.74301 22.7106 9.47646 22.2471 9.00812C21.7836 8.53978 21.5236 7.90748 21.5236 7.24858C21.5236 6.58967 21.7836 5.95738 22.2471 5.48905C22.7106 5.02073 23.3402 4.7542 23.9991 4.74736Z" fill="#E32934"/>
<path d="M14.7378 14.9321H8.82031C8.4061 14.9321 8.07031 15.2679 8.07031 15.6821V21.5996C8.07031 22.0138 8.4061 22.3496 8.82031 22.3496H14.7378C15.152 22.3496 15.4878 22.0138 15.4878 21.5996V15.6821C15.4878 15.2679 15.152 14.9321 14.7378 14.9321Z" fill="#E32934"/>
<path d="M24.0047 8.25006C24.2681 8.24683 24.5197 8.13991 24.7048 7.95249C24.89 7.76507 24.9938 7.51223 24.9938 7.24879C24.9938 6.98534 24.8899 6.73251 24.7048 6.5451C24.5196 6.35768 24.2681 6.25078 24.0047 6.24756C23.7412 6.25079 23.4897 6.3577 23.3046 6.54513C23.1194 6.73255 23.0156 6.98539 23.0156 7.24883C23.0156 7.51228 23.1195 7.76511 23.3046 7.95252C23.4897 8.13994 23.7413 8.24684 24.0047 8.25006Z" fill="#E32934"/>
</svg>
