<svg width="36" height="45" viewBox="0 0 36 45" fill="none" xmlns="http://www.w3.org/2000/svg">
<path d="M19.2498 37.5041C19.8568 38.0081 20.5501 38.3979 21.2961 38.6548V44.1771C21.2955 44.246 21.2679 44.3119 21.2192 44.3606C21.1705 44.4093 21.1045 44.4369 21.0356 44.4375H19.5102C19.4535 44.4369 19.3985 44.418 19.3534 44.3835C19.3084 44.349 19.2758 44.3008 19.2604 44.2462C19.2338 44.1531 19.2498 38.328 19.2498 37.5041ZM12.3749 9.59262H23.624C23.7657 9.59261 23.9015 9.53633 24.0017 9.43616C24.1019 9.33598 24.1582 9.20012 24.1582 9.05846V7.96358C24.1582 7.82191 24.1019 7.68605 24.0017 7.58588C23.9015 7.4857 23.7657 7.42942 23.624 7.42941H12.3749C12.2334 7.42987 12.0978 7.4863 11.9977 7.58637C11.8976 7.68645 11.8412 7.82205 11.8407 7.96358V9.05846C11.8412 9.19998 11.8976 9.33558 11.9977 9.43566C12.0978 9.53574 12.2334 9.59216 12.3749 9.59262ZM21.7904 32.4788C21.7904 34.0361 23.6825 34.8201 24.7853 33.7199C25.1134 33.3902 25.2976 32.944 25.2976 32.4788C25.2976 32.0137 25.1134 31.5675 24.7853 31.2378C23.6825 30.1376 21.7904 30.9215 21.7904 32.4788ZM27.3631 28.6574C28.1186 29.4129 28.6332 30.3756 28.8416 31.4235C29.0501 32.4715 28.9431 33.5578 28.5342 34.5449C28.1253 35.5321 27.4328 36.3759 26.5444 36.9695C25.656 37.5631 24.6115 37.88 23.5429 37.88C22.4744 37.88 21.4299 37.5631 20.5415 36.9695C19.6531 36.3759 18.9606 35.5321 18.5517 34.5449C18.1428 33.5578 18.0358 32.4715 18.2443 31.4235C18.4527 30.3756 18.9673 29.4129 19.7228 28.6574C20.2245 28.1557 20.82 27.7577 21.4755 27.4861C22.1309 27.2146 22.8335 27.0748 23.5429 27.0748C24.2524 27.0748 24.955 27.2146 25.6104 27.4861C26.2659 27.7577 26.8614 28.1557 27.3631 28.6574ZM26.4223 32.4788C26.4223 31.9096 26.2535 31.3532 25.9373 30.8799C25.621 30.4066 25.1716 30.0377 24.6457 29.8199C24.1198 29.602 23.5411 29.545 22.9828 29.6561C22.4245 29.7671 21.9117 30.0412 21.5092 30.4437C21.1067 30.8463 20.8326 31.3591 20.7215 31.9174C20.6105 32.4756 20.6675 33.0543 20.8853 33.5802C21.1031 34.1061 21.472 34.5556 21.9453 34.8718C22.4186 35.1881 22.975 35.3569 23.5443 35.3569C24.3075 35.3568 25.0395 35.0535 25.5792 34.5138C26.119 33.9741 26.4222 33.2421 26.4223 32.4788ZM17.0175 32.4788C17.0145 33.7759 17.4005 35.0441 18.1257 36.1196V39.7152H7.66317C6.86753 38.2377 5.67699 37.0103 4.22441 36.1701V8.02203C5.61124 7.22041 6.76034 6.06489 7.55422 4.67361H28.2082C29.0483 6.14543 30.2849 7.35168 31.7772 8.15492V36.2099C30.6637 36.8646 29.7039 37.751 28.9629 38.809V36.1196C29.5317 35.273 29.8942 34.3049 30.0213 33.2929C30.1484 32.2809 30.0366 31.2532 29.6949 30.2923C29.3531 29.3313 28.7909 28.4638 28.0534 27.7593C27.3158 27.0548 26.4235 26.533 25.4479 26.2356C24.4722 25.9383 23.4405 25.8737 22.4354 26.047C21.4303 26.2204 20.4798 26.6269 19.6602 27.2339C18.8406 27.8409 18.1746 28.6315 17.7156 29.5423C17.2567 30.4532 17.0176 31.4589 17.0175 32.4788ZM10.7166 9.05846C10.7171 9.49836 10.8919 9.92015 11.2027 10.2315C11.5135 10.5428 11.935 10.7182 12.3749 10.7194H23.624C24.0642 10.7183 24.486 10.543 24.7973 10.2317C25.1085 9.92048 25.2839 9.49863 25.2849 9.05846V7.96358C25.2838 7.52368 25.1083 7.10217 24.797 6.79136C24.4857 6.48055 24.0639 6.30577 23.624 6.30531H12.3749C11.9353 6.30587 11.5138 6.48077 11.2029 6.79163C10.8921 7.10249 10.7172 7.52395 10.7166 7.96358L10.7166 9.05846ZM6.09794 13.8047C6.09801 13.9541 6.15739 14.0974 6.26303 14.203C6.36866 14.3086 6.51192 14.368 6.66131 14.3681H29.3775C29.5269 14.3681 29.6702 14.3087 29.7758 14.2031C29.8815 14.0974 29.9408 13.9541 29.9408 13.8047C29.9408 13.6553 29.8815 13.512 29.7758 13.4064C29.6702 13.3007 29.5269 13.2413 29.3775 13.2413H6.66131C6.51192 13.2414 6.36867 13.3008 6.26303 13.4064C6.1574 13.5121 6.09802 13.6553 6.09794 13.8047ZM6.09794 17.4534C6.09801 17.6028 6.15739 17.7461 6.26303 17.8517C6.36866 17.9574 6.51192 18.0167 6.66131 18.0168H29.3775C29.5269 18.0168 29.6702 17.9575 29.7758 17.8518C29.8815 17.7462 29.9408 17.6029 29.9408 17.4534C29.9408 17.304 29.8815 17.1607 29.7758 17.0551C29.6702 16.9494 29.5269 16.8901 29.3775 16.8901H6.66131C6.51192 16.8901 6.36867 16.9495 6.26303 17.0552C6.1574 17.1608 6.09802 17.304 6.09794 17.4534ZM6.09794 21.1021C6.09801 21.2515 6.15739 21.3948 6.26303 21.5004C6.36866 21.6061 6.51192 21.6655 6.66131 21.6655H29.3775C29.5269 21.6655 29.6702 21.6062 29.7758 21.5005C29.8815 21.3949 29.9408 21.2516 29.9408 21.1022C29.9408 20.9527 29.8815 20.8094 29.7758 20.7038C29.6702 20.5981 29.5269 20.5388 29.3775 20.5388H6.66131C6.51192 20.5389 6.36867 20.5982 6.26303 20.7039C6.1574 20.8095 6.09802 20.9528 6.09794 21.1021ZM11.1843 27.7299C11.3335 27.7295 11.4764 27.67 11.5818 27.5644C11.6871 27.4588 11.7463 27.3157 11.7463 27.1665C11.7463 27.0174 11.6871 26.8743 11.5818 26.7687C11.4764 26.6631 11.3335 26.6035 11.1843 26.6031H6.66131C6.51214 26.6035 6.36921 26.6631 6.26387 26.7687C6.15853 26.8743 6.09937 27.0174 6.09937 27.1665C6.09937 27.3157 6.15853 27.4588 6.26387 27.5644C6.36921 27.67 6.51214 27.7295 6.66131 27.7299H11.1843ZM12.3643 32.9067C12.0055 32.7499 11.1711 32.5054 10.7352 32.3274C10.6287 32.2874 10.538 32.214 10.4767 32.1182C10.4154 32.0224 10.3868 31.9093 10.3951 31.7959C10.427 31.0464 11.5697 31.0332 12.1145 31.6125C12.165 31.6662 12.2257 31.7093 12.293 31.7395C12.3603 31.7698 12.4328 31.7864 12.5065 31.7885C12.5803 31.7907 12.6537 31.7783 12.7226 31.752C12.7915 31.7258 12.8546 31.6862 12.9082 31.6356C12.9618 31.5849 13.0049 31.5242 13.035 31.4569C13.0651 31.3896 13.0817 31.317 13.0838 31.2433C13.0858 31.1696 13.0733 31.0962 13.047 31.0273C13.0206 30.9584 12.981 30.8954 12.9303 30.8418C12.6454 30.5355 12.284 30.3108 11.8833 30.1908V29.343C11.8829 29.1942 11.8235 29.0516 11.7181 28.9465C11.6128 28.8414 11.47 28.7824 11.3212 28.7824C11.1724 28.7824 11.0297 28.8414 10.9243 28.9465C10.8189 29.0516 10.7596 29.1942 10.7592 29.343V30.1163C8.99458 30.4007 8.75274 32.7047 10.2914 33.3585C10.7033 33.5339 11.466 33.7518 11.9231 33.9378C12.3855 34.1265 12.3536 34.8334 11.8514 35.0035C11.6199 35.0706 11.3745 35.0732 11.1417 35.0109C10.9089 34.9486 10.6976 34.8238 10.5306 34.65C10.4802 34.5962 10.4197 34.553 10.3525 34.5226C10.2853 34.4922 10.2129 34.4754 10.1392 34.4731C10.0655 34.4707 9.99213 34.4829 9.92318 34.5089C9.85423 34.535 9.79108 34.5743 9.73733 34.6247C9.68359 34.6752 9.6403 34.7357 9.60994 34.8028C9.57959 34.87 9.56276 34.9425 9.56041 35.0161C9.55807 35.0898 9.57025 35.1632 9.59627 35.2322C9.6223 35.3011 9.66164 35.3643 9.71207 35.418C9.99697 35.7243 10.3584 35.9491 10.7592 36.0691V36.9168C10.759 36.9908 10.7734 37.064 10.8015 37.1324C10.8297 37.2007 10.8711 37.2629 10.9233 37.3152C10.9755 37.3675 11.0375 37.4091 11.1058 37.4374C11.1741 37.4657 11.2473 37.4803 11.3212 37.4803C11.3951 37.4803 11.4683 37.4657 11.5366 37.4374C11.6049 37.4091 11.6669 37.3675 11.7191 37.3152C11.7714 37.2629 11.8127 37.2007 11.8409 37.1324C11.869 37.064 11.8834 36.9908 11.8832 36.9168V36.1435C13.6239 35.8645 13.9056 33.5897 12.3643 32.9067ZM22.4202 43.8263H24.6684V40.8393H22.4202V43.8263ZM35.8883 1.09664V43.2921C35.8874 43.4335 35.8308 43.5689 35.7308 43.6688C35.6308 43.7688 35.4955 43.8254 35.3541 43.8263H28.9629V40.7967C29.0969 40.7402 29.2043 40.6347 29.2632 40.5018C29.9871 39.0246 31.1552 37.811 32.6036 37.0311C32.693 36.9831 32.7676 36.9118 32.8196 36.8248C32.8715 36.7377 32.8988 36.6382 32.8986 36.5368H32.9013V7.8121C32.9014 7.70263 32.8695 7.59552 32.8095 7.50392C32.7496 7.41233 32.6642 7.34025 32.5638 7.29655C31.8159 6.92881 31.1307 6.44541 30.5335 5.86416C29.9327 5.27649 29.4287 4.59754 29.04 3.85244C28.9927 3.7608 28.921 3.684 28.8329 3.63053C28.7447 3.57707 28.6435 3.54902 28.5404 3.5495H7.22203C7.1152 3.54903 7.01047 3.57903 6.92009 3.63598C6.82972 3.69294 6.75747 3.77448 6.7118 3.87105C6.34518 4.57272 5.87483 5.21508 5.31663 5.77647C4.75308 6.34333 4.1071 6.82176 3.40057 7.19557C3.31003 7.24254 3.23415 7.31348 3.18119 7.40065C3.12823 7.48782 3.10024 7.58786 3.10028 7.68986H3.09762V36.4996C3.09755 36.6087 3.12915 36.7155 3.18859 36.807C3.24803 36.8986 3.33275 36.9709 3.43248 37.0152C4.90221 37.798 6.08643 39.0259 6.81545 40.523C6.86117 40.618 6.93285 40.6982 7.0222 40.7541C7.11156 40.8101 7.21493 40.8396 7.32036 40.8393H18.1257V43.8263H0.647442C0.505917 43.8258 0.370317 43.7694 0.270242 43.6693C0.170167 43.5693 0.113741 43.4337 0.113281 43.2921V1.09664C0.113296 0.95498 0.169579 0.819124 0.269751 0.718956C0.369922 0.618787 0.50578 0.562509 0.647442 0.5625H35.3541C35.4956 0.562958 35.6312 0.619381 35.7313 0.719452C35.8314 0.819523 35.8878 0.955117 35.8883 1.09664ZM2.84516 39.7152C2.69635 39.7155 2.55376 39.7749 2.44867 39.8803C2.34357 39.9857 2.28456 40.1284 2.28456 40.2772C2.28456 40.426 2.34357 40.5688 2.44867 40.6741C2.55376 40.7795 2.69635 40.8389 2.84516 40.8393H3.28365C3.43247 40.8389 3.57505 40.7795 3.68015 40.6741C3.78524 40.5688 3.84426 40.426 3.84426 40.2772C3.84426 40.1284 3.78524 39.9857 3.68015 39.8803C3.57505 39.7749 3.43247 39.7155 3.28365 39.7152H2.84516ZM3.84437 3.91093C3.84444 3.76194 3.78548 3.619 3.68038 3.51341C3.57529 3.40781 3.43263 3.34817 3.28365 3.34753H2.84516C2.69635 3.34792 2.55376 3.4073 2.44867 3.51267C2.34358 3.61803 2.28456 3.76077 2.28456 3.90959C2.28456 4.0584 2.34358 4.20114 2.44867 4.30651C2.55376 4.41187 2.69635 4.47126 2.84516 4.47164H3.28366C3.43236 4.47161 3.57496 4.41253 3.68011 4.30738C3.78526 4.20223 3.84434 4.05963 3.84437 3.91093ZM32.9013 40.2759C32.9012 40.202 32.8865 40.1289 32.8582 40.0608C32.8298 39.9926 32.7882 39.9307 32.7359 39.8786C32.6836 39.8266 32.6215 39.7853 32.5532 39.7573C32.4849 39.7292 32.4117 39.7149 32.3379 39.7152H31.9021C31.8281 39.715 31.7549 39.7294 31.6865 39.7575C31.6182 39.7857 31.5561 39.8271 31.5037 39.8793C31.4514 39.9315 31.4098 39.9935 31.3815 40.0618C31.3532 40.1301 31.3386 40.2033 31.3386 40.2772C31.3386 40.3511 31.3532 40.4244 31.3815 40.4926C31.4098 40.5609 31.4514 40.623 31.5037 40.6752C31.5561 40.7274 31.6182 40.7687 31.6865 40.7969C31.7549 40.8251 31.8281 40.8395 31.9021 40.8393H32.3379C32.4873 40.8392 32.6305 40.7798 32.7362 40.6742C32.8418 40.5685 32.9012 40.4253 32.9013 40.2759ZM32.9013 3.91093C32.9012 3.76152 32.8418 3.61826 32.7362 3.51262C32.6305 3.40698 32.4873 3.3476 32.3379 3.34753H31.9021C31.8281 3.34734 31.7549 3.36174 31.6866 3.3899C31.6182 3.41806 31.5561 3.45943 31.5037 3.51164C31.4514 3.56385 31.4098 3.62587 31.3815 3.69416C31.3532 3.76245 31.3386 3.83565 31.3386 3.90958C31.3386 3.98352 31.3532 4.05672 31.3815 4.12501C31.4098 4.1933 31.4514 4.25532 31.5037 4.30753C31.5561 4.35974 31.6182 4.40111 31.6866 4.42927C31.7549 4.45743 31.8281 4.47183 31.9021 4.47164H32.3379C32.4117 4.4719 32.4849 4.4576 32.5532 4.42955C32.6215 4.40149 32.6836 4.36025 32.7359 4.30816C32.7882 4.25608 32.8298 4.19418 32.8582 4.12602C32.8865 4.05785 32.9012 3.98476 32.9013 3.91093ZM25.8032 44.2462C25.8185 44.3008 25.8511 44.349 25.8962 44.3835C25.9412 44.418 25.9962 44.4369 26.053 44.4375H27.5783C27.6472 44.4369 27.7131 44.4093 27.7619 44.3606C27.8106 44.3119 27.8382 44.246 27.8388 44.1771V37.5041C27.2314 38.0076 26.5382 38.3973 25.7925 38.6548C25.7925 39.5026 25.7766 44.1505 25.8032 44.2462Z" fill="#E32934"/>
</svg>
