<svg width="48" height="48" viewBox="0 0 48 48" fill="none" xmlns="http://www.w3.org/2000/svg">
<path d="M24.0007 16.9635V10.2969H7.33398V40.2969H40.6673V16.9635H24.0007ZM14.0007 36.9635H10.6673V33.6302H14.0007V36.9635ZM14.0007 30.2969H10.6673V26.9635H14.0007V30.2969ZM14.0007 23.6302H10.6673V20.2969H14.0007V23.6302ZM14.0007 16.9635H10.6673V13.6302H14.0007V16.9635ZM20.6673 36.9635H17.334V33.6302H20.6673V36.9635ZM20.6673 30.2969H17.334V26.9635H20.6673V30.2969ZM20.6673 23.6302H17.334V20.2969H20.6673V23.6302ZM20.6673 16.9635H17.334V13.6302H20.6673V16.9635ZM37.334 36.9635H24.0007V33.6302H27.334V30.2969H24.0007V26.9635H27.334V23.6302H24.0007V20.2969H37.334V36.9635ZM34.0007 23.6302H30.6673V26.9635H34.0007V23.6302ZM34.0007 30.2969H30.6673V33.6302H34.0007V30.2969Z" fill="#E32934"/>
</svg>
