<svg width="48" height="48" viewBox="0 0 48 48" fill="none" xmlns="http://www.w3.org/2000/svg">
<path d="M35.6667 10.2943H28.7C28 8.36094 26.1667 6.96094 24 6.96094C21.8333 6.96094 20 8.36094 19.3 10.2943H12.3333C10.5 10.2943 9 11.7943 9 13.6276V36.9609C9 38.7943 10.5 40.2943 12.3333 40.2943H35.6667C37.5 40.2943 39 38.7943 39 36.9609V13.6276C39 11.7943 37.5 10.2943 35.6667 10.2943ZM24 10.2943C24.9167 10.2943 25.6667 11.0443 25.6667 11.9609C25.6667 12.8776 24.9167 13.6276 24 13.6276C23.0833 13.6276 22.3333 12.8776 22.3333 11.9609C22.3333 11.0443 23.0833 10.2943 24 10.2943ZM20.6667 33.6276L14 26.9609L16.35 24.6109L20.6667 28.9109L31.65 17.9276L34 20.2943L20.6667 33.6276Z" fill="#E32934"/>
</svg>
