<svg width="60" height="60" viewBox="0 0 60 60" fill="none" xmlns="http://www.w3.org/2000/svg">
<path fill-rule="evenodd" clip-rule="evenodd" d="M20.75 0C19.4296 0 18.2994 0.904175 17.9288 2.13089C16.7225 2.50783 15.8334 3.65728 15.8334 4.99998V7.99996H4.03335C1.87129 7.99996 0.100006 9.80125 0.100006 11.9999V22.9999C0.100006 25.1986 1.87129 26.9999 4.03335 26.9999H20.75C20.75 25.3379 22.0657 23.9999 23.7 23.9999H30.5834C32.2177 23.9999 33.5334 25.3379 33.5334 26.9999H50.2501C52.4121 26.9999 54.1834 25.1986 54.1834 22.9999V11.9999C54.1834 9.80125 52.4121 7.99996 50.2501 7.99996H38.4501V4.99998C38.4501 3.65718 37.561 2.50779 36.3547 2.13089C35.984 0.904195 34.8537 0 33.5334 0H20.75ZM18.09 4.27728C18.5662 5.28997 19.5816 5.99997 20.75 5.99997H33.5334C34.7018 5.99997 35.7172 5.29006 36.1934 4.27728C36.3743 4.45641 36.4834 4.70956 36.4834 4.99994V7.99992H17.8001V4.99994C17.8001 4.70956 17.9091 4.45641 18.09 4.27728ZM49.2667 53V37.0001C49.2667 35.3554 50.5994 34.0001 52.2167 34.0001V28.6467C51.5996 28.8718 50.9392 29.0002 50.25 29.0002H33.5333C33.5333 30.6622 32.2176 32.0002 30.5833 32.0002H23.6999C22.0656 32.0002 20.7499 30.6622 20.7499 29.0002H4.03325C3.34408 29.0002 2.68362 28.8718 2.06658 28.6467V49.0006C2.06658 51.1992 3.83786 53.0005 5.99992 53.0005H21.7333V49.0006C21.7333 47.3559 23.066 46.0006 24.6833 46.0006H30.5833C32.2006 46.0006 33.5333 47.3559 33.5333 49.0006V53.0005H35.5V43.0006C35.5 41.3559 36.8327 40.0006 38.45 40.0006H44.35C45.9673 40.0006 47.3 41.3559 47.3 43.0006V53.0005L49.2667 53ZM52.2167 36.0001C51.6549 36.0001 51.2333 36.4288 51.2333 37.0001V59C51.2333 59.5641 51.6619 60 52.2167 60H58.1167C58.6714 60 59.1 59.5641 59.1 59V37.0001C59.1 36.4288 58.6785 36.0001 58.1167 36.0001H52.2167ZM38.45 42.0001C37.8882 42.0001 37.4666 42.4288 37.4666 43.0001V59C37.4666 59.5641 37.8952 60 38.45 60H44.35C44.9047 60 45.3333 59.5641 45.3333 59V43.0001C45.3333 42.4288 44.9118 42.0001 44.35 42.0001H38.45ZM24.6833 48.0001C24.1215 48.0001 23.6999 48.4288 23.6999 49.0001V59C23.6999 59.5641 24.1286 60 24.6833 60H30.5833C31.138 60 31.5666 59.5641 31.5666 59V49.0001C31.5666 48.4288 31.1451 48.0001 30.5833 48.0001H24.6833Z" fill="#E32934"/>
</svg>
