<svg width="61" height="60" viewBox="0 0 61 60" fill="none" xmlns="http://www.w3.org/2000/svg">
<path fill-rule="evenodd" clip-rule="evenodd" d="M2.94535 29.5342C1.64431 28.4635 0.800018 26.8366 0.800018 25.029V5.79838C0.800018 2.60023 3.38825 0 6.57164 0H55.0284C58.2118 0 60.8 2.60023 60.8 5.79838V25.029C60.8 26.8366 59.9557 28.4635 58.6547 29.5342H2.94535ZM17.2844 47.3048C19.2083 47.3048 20.7862 45.7335 20.7862 43.7868C20.7862 41.854 19.2083 40.2688 17.2844 40.2688C15.3467 40.2688 13.7827 41.854 13.7827 43.7868C13.7827 45.7335 15.3467 47.3048 17.2844 47.3048ZM54.4332 55.0915C55.0422 55.0915 55.0422 54.146 54.4332 54.146H33.0353C32.4263 54.146 32.4263 55.0915 33.0353 55.0915H54.4332ZM54.4332 48.8343C55.0422 48.8343 55.0422 47.8888 54.4332 47.8888H33.0353C32.4263 47.8888 32.4263 48.8343 33.0353 48.8343H54.4332ZM54.4332 42.5771C55.0422 42.5771 55.0422 41.6454 54.4332 41.6454H33.0353C32.4263 41.6454 32.4263 42.5771 33.0353 42.5771H54.4332ZM54.4332 36.3337C55.0422 36.3337 55.0422 35.3882 54.4332 35.3882H33.0353C32.4263 35.3882 32.4263 36.3337 33.0353 36.3337H54.4332ZM25.7135 55.0915C26.9038 55.0915 27.8588 54.1182 27.8588 52.9224V37.5574C27.8588 36.3615 26.9038 35.3882 25.7135 35.3882H8.85538C7.66507 35.3882 6.69621 36.3615 6.69621 37.5574V52.9224C6.69621 54.1182 7.66507 55.0915 8.85538 55.0915H25.7135ZM8.85538 36.3337H25.7135C26.3779 36.3337 26.9315 36.876 26.9315 37.5574V52.9224C26.9315 53.6037 26.3779 54.146 25.7135 54.146H23.7758V53.0892C23.7758 50.4751 22.0457 48.2642 19.6651 47.5411C23.319 45.2051 21.7827 39.3233 17.2844 39.3233C12.7862 39.3233 11.2498 45.2051 14.89 47.5411C12.5232 48.2642 10.7793 50.4751 10.7793 53.0892V54.146H8.85538C8.17718 54.146 7.63739 53.6037 7.63739 52.9224V37.5574C7.63739 36.876 8.17718 36.3337 8.85538 36.3337ZM22.8485 54.146H20.3156C20.3156 53.3951 20.5232 52.2271 19.845 52.2271C19.1668 52.2271 19.3744 53.3951 19.3744 54.146H15.1945C15.1945 53.3951 15.4021 52.2271 14.7239 52.2271C14.0457 52.2271 14.2533 53.3951 14.2533 54.146H11.7204V53.0892C11.7204 50.4195 13.8796 48.2503 16.537 48.2503H18.0319C20.6754 48.2503 22.8485 50.4195 22.8485 53.0892V54.146ZM54.5855 23.2491C55.1806 23.2491 55.1806 22.3036 54.5855 22.3036H32.3986C31.8035 22.3036 31.8035 23.2491 32.3986 23.2491H54.5855ZM54.5855 17.9096C55.1806 17.9096 55.1806 16.9641 54.5855 16.9641H32.3986C31.8035 16.9641 31.8035 17.9096 32.3986 17.9096H54.5855ZM54.5855 12.5562C55.1806 12.5562 55.1806 11.6246 54.5855 11.6246H32.3986C31.8035 11.6246 31.8035 12.5562 32.3986 12.5562H54.5855ZM54.5855 7.21669C55.1806 7.21669 55.1806 6.28505 54.5855 6.28505H32.3986C31.8035 6.28505 31.8035 7.21669 32.3986 7.21669H54.5855ZM17.5613 25.8216C23.8035 25.752 28.5232 20.7601 28.5647 14.7671C28.5924 8.76014 23.6651 3.69873 17.5613 3.69873C11.4298 3.69873 6.51628 8.77404 6.5578 14.781C6.58549 20.7601 11.3883 25.8216 17.5613 25.8216ZM19.7896 4.89455C22.281 5.46466 24.4263 6.9664 25.8381 9.02433H21.6581C21.2844 7.5365 20.8139 6.11819 19.7896 4.89455ZM20.6893 9.02433H14.4194C16.0111 3.22596 19.1114 3.22596 20.6893 9.02433ZM13.4505 9.02433H9.27061C10.6824 6.9664 12.8277 5.46466 15.3329 4.89455C14.2948 6.11819 13.8242 7.5365 13.4505 9.02433ZM26.4194 9.96987C27.1114 11.263 27.5405 12.737 27.6097 14.2943H22.3363C22.3087 12.8482 22.1703 11.4299 21.8796 9.96987H26.4194ZM21.3952 14.2943H13.7135C13.7412 12.876 13.8796 11.3882 14.1979 9.96987H20.9246C21.2291 11.3882 21.3675 12.876 21.3952 14.2943ZM12.7723 14.2943H7.49898C7.56818 12.737 7.99725 11.263 8.68929 9.96987H13.2291C12.9384 11.4299 12.8 12.8482 12.7723 14.2943ZM27.6097 15.226C27.5405 16.7972 27.1114 18.2572 26.4194 19.5504H21.8796C22.1703 18.0904 22.3087 16.6721 22.3363 15.226H27.6097ZM20.9246 19.5504H14.1841C13.8796 18.1321 13.7412 16.6443 13.7135 15.226H21.3952C21.3675 16.6443 21.2291 18.1321 20.9246 19.5504ZM13.2291 19.5504H8.68929C7.99725 18.2572 7.56818 16.7972 7.49898 15.226H12.7723C12.8 16.6721 12.9384 18.0904 13.2291 19.5504ZM25.8381 20.4959C24.4263 22.5539 22.281 24.0556 19.7896 24.6257C20.8139 23.4021 21.2844 21.9838 21.6581 20.4959H25.8381ZM15.3329 24.6257C12.8277 24.0556 10.6824 22.5539 9.27061 20.4959H13.4505C13.8242 21.9838 14.2948 23.4021 15.3329 24.6257ZM14.4194 20.4959H20.6893C19.1114 26.2943 15.9972 26.2943 14.4194 20.4959ZM58.6547 30.4658C59.9557 31.5365 60.8 33.1634 60.8 34.971V54.2016C60.8 57.3998 58.2118 60 55.0284 60H6.57164C3.38825 60 0.800018 57.3998 0.800018 54.2016V34.971C0.800018 33.1634 1.64431 31.5365 2.94535 30.4658H58.6547Z" fill="#E32934"/>
</svg>
