<svg width="60" height="60" viewBox="0 0 60 60" fill="none" xmlns="http://www.w3.org/2000/svg">
<path d="M58.0824 48.7678C60.6393 51.34 60.6391 55.5105 58.0824 58.0828C55.5095 60.6391 51.3382 60.6391 48.7653 58.0828L40.6632 49.9661L49.9635 40.6679L58.0824 48.7678Z" fill="#E32934"/>
<path d="M29.9442 26.8815C29.4436 29.0984 27.4652 30.7544 25.0993 30.7546H22.8983V26.8815H29.9442Z" fill="#E32934"/>
<path d="M30.068 24.1466V25.3896H22.8983V24.1466H30.068Z" fill="#E32934"/>
<path d="M25.0993 18.6754C27.5029 18.6756 29.508 20.3839 29.9684 22.654H22.8983V18.6754H25.0993Z" fill="#E32934"/>
<path fill-rule="evenodd" clip-rule="evenodd" d="M12.0409 12.0529C19.0885 4.71971 31.8417 4.71971 38.8893 12.0529C50.795 23.8118 42.1973 44.566 25.4655 44.4385C8.71748 44.5822 0.135143 23.8119 12.0409 12.0529ZM20.2719 18.0001C20.7828 18.6536 20.9579 19.5984 20.9816 19.9894V22.654H19.7394C19.2783 22.6539 18.9234 22.5122 18.7814 22.3346C18.6932 22.8354 18.7662 23.6147 19.3278 23.9797C19.5768 24.1414 19.8893 24.1466 20.1862 24.1466H20.9816V25.3896H19.7394C19.2783 25.3895 18.9235 25.2478 18.7814 25.0702C18.6932 25.571 18.7663 26.3503 19.3278 26.7153C19.5768 26.877 19.8893 26.8815 20.1862 26.8815H20.9816V28.6935C20.9816 30.2283 20.5085 31.2397 20.2719 31.5002H26.1283C30.4827 31.0531 31.8544 28.2803 32.0119 26.8815H33.5104C33.9716 26.8815 34.3264 27.024 34.4684 27.2016C34.568 26.6365 34.4626 25.7168 33.6811 25.4379C33.6281 25.419 33.5733 25.407 33.5177 25.3998L33.3485 25.3896H32.0199V24.1466H33.5104C33.9716 24.1467 34.3263 24.2884 34.4684 24.466C34.568 23.9009 34.4626 22.9812 33.6811 22.7023C33.575 22.6645 33.4613 22.6555 33.3485 22.6547L32.0089 22.654C31.5144 19.1302 27.8193 18.0825 26.0214 18.0001H20.2719Z" fill="#E32934"/>
<path fill-rule="evenodd" clip-rule="evenodd" d="M7.53433 43.3999C-15.2699 18.6517 18.6575 -15.2829 43.3959 7.54772C59.3765 23.4287 47.7266 50.9723 25.4655 50.8289C18.9772 50.8289 12.4724 48.3527 7.53433 43.3999ZM25.4655 3.31357C6.00081 3.18576 -4.16307 27.247 9.788 41.1469C31.4421 61.0861 61.0863 31.4494 41.1422 9.80065C36.8275 5.48708 31.1385 3.31367 25.4655 3.31357Z" fill="#E32934"/>
</svg>
