<svg width="63" height="60" viewBox="0 0 63 60" fill="none" xmlns="http://www.w3.org/2000/svg">
<path d="M48.54 0H0.199951V26.9271H48.54V0ZM47.2701 21.3896C47.2701 22.0069 46.7752 22.5078 46.163 22.5078C45.0647 22.5078 44.1712 23.4102 44.1712 24.5195C44.1712 25.1368 43.6763 25.6378 43.0641 25.6378H5.6792C5.06695 25.6378 4.57206 25.1368 4.57206 24.5195C4.57206 23.4102 3.67859 22.5078 2.58031 22.5078C1.96806 22.5078 1.47317 22.0069 1.47317 21.3896V5.52967C1.47317 4.91241 1.96806 4.41144 2.58031 4.41144C3.67859 4.41144 4.57206 3.5079 4.57206 2.39861C4.57206 1.78135 5.06695 1.28038 5.6792 1.28038H43.0641C43.6763 1.28038 44.1712 1.78135 44.1712 2.39861C44.1712 3.5079 45.0647 4.41144 46.163 4.41144C46.7752 4.41144 47.2701 4.91241 47.2701 5.52967V21.3896Z" fill="#E32934"/>
<path d="M43.7394 41.3501C41.3259 43.7878 40.6682 47.4858 41.9636 50.5878L52.8944 39.5475C51.8592 39.1069 50.7576 38.8911 49.6593 38.8911C47.4949 38.8911 45.3437 39.7298 43.7394 41.349V41.3501Z" fill="#E32934"/>
<path d="M46.4088 55.0787C49.4744 56.3792 53.1336 55.7127 55.5471 53.2772C57.9651 50.835 58.6283 47.1381 57.3396 44.0394L46.4088 55.0787Z" fill="#E32934"/>
<path d="M42.1053 3.51797H6.63799C6.24716 4.96384 5.11899 6.10444 3.68745 6.49918V20.4212C5.11788 20.8159 6.24716 21.9565 6.63799 23.4024H42.1042C42.495 21.9577 43.6243 20.8171 45.0547 20.4212V6.49918C43.6232 6.10444 42.4961 4.96384 42.1053 3.51797ZM24.3722 22.2182C19.5916 22.2182 15.7011 18.2898 15.7011 13.4602C15.7011 8.63054 19.5916 4.70218 24.3722 4.70218C29.1528 4.70218 33.0422 8.63165 33.0422 13.4602C33.0422 18.2887 29.1528 22.2182 24.3722 22.2182Z" fill="#E32934"/>
<path d="M0.203272 43.3282H35.4281C35.4337 43.3103 35.4403 43.2913 35.4458 43.2723C35.5466 42.9156 35.6617 42.5544 35.7979 42.1821C36.0548 41.4619 36.3714 40.7641 36.7368 40.0898H0.203272V43.3282Z" fill="#E32934"/>
<path d="M52.2545 34.9046C51.3843 34.7145 50.5174 34.6194 49.6671 34.6183C49.6604 34.6183 49.6549 34.6217 49.6483 34.6217H49.5376C48.9009 34.6273 48.2411 34.6843 47.5203 34.8017C46.8096 34.9236 46.0977 35.1148 45.4112 35.3698C43.1106 36.2017 41.1188 37.6789 39.6419 39.6481C38.8957 40.6557 38.3012 41.7683 37.8793 42.948C37.6612 43.5496 37.4974 44.1132 37.3789 44.6791C37.1885 45.5166 37.0944 46.3956 37.0944 47.308C37.0944 50.2412 38.0609 52.9954 39.8899 55.2755C42.2847 58.279 45.8408 60 49.6472 60C51.733 60 53.8034 59.47 55.6346 58.468C59.6834 56.2461 62.1999 51.97 62.1999 47.3092C62.1999 41.3378 58.0172 36.1201 52.2545 34.9046ZM41.6868 53.5668C41.6481 53.5668 41.6082 53.5646 41.5683 53.5601C41.2351 53.5243 40.9373 53.3376 40.7557 53.0524C38.0997 48.8691 38.6964 43.2824 42.1751 39.7689C45.6592 36.2487 51.1938 35.6437 55.3357 38.3275C55.618 38.5109 55.8029 38.8128 55.8383 39.1483C55.8737 39.4849 55.7575 39.8203 55.5206 40.0585L42.4707 53.2392C42.2625 53.4494 41.9791 53.5668 41.6868 53.5668ZM57.1137 54.8572C55.0877 56.9036 52.3663 57.9648 49.6306 57.9648C47.6687 57.9648 45.6969 57.4191 43.9697 56.2986C43.6874 56.1153 43.5025 55.8133 43.4671 55.4779C43.4317 55.1413 43.5479 54.8058 43.7848 54.5676L56.8347 41.387C57.0706 41.1488 57.3961 41.028 57.7359 41.0661C58.0692 41.1018 58.367 41.2886 58.5486 41.5737C61.2013 45.7503 60.6001 51.337 57.1137 54.8572Z" fill="#E32934"/>
<path d="M0.203272 29.168H48.54V32.3852H0.203272V29.168Z" fill="#E32934"/>
<path d="M38.3211 37.7471C38.692 37.2987 39.085 36.8738 39.5013 36.4757C39.57 36.4097 39.6408 36.346 39.7106 36.2822C40.1401 35.8864 40.5885 35.5151 41.0602 35.1752C41.1244 35.1282 41.1908 35.0857 41.2561 35.041C41.4598 34.8979 41.6647 34.7559 41.8761 34.625H0.203272V37.8578H38.2214C38.2524 37.8198 38.2901 37.7874 38.3222 37.7494L38.3211 37.7471Z" fill="#E32934"/>
<path d="M24.3722 6.93865C20.8116 6.93865 17.9153 9.86395 17.9153 13.4602C17.9153 17.0564 20.8116 19.9817 24.3722 19.9817C27.9328 19.9817 30.8279 17.0564 30.8279 13.4602C30.8279 9.86395 27.9317 6.93865 24.3722 6.93865Z" fill="#E32934"/>
</svg>
