<svg width="52" height="60" viewBox="0 0 52 60" fill="none" xmlns="http://www.w3.org/2000/svg">
<path d="M26.6048 42.4392C25.1845 42.4392 24.0288 43.6216 24.0288 45.0746V46.652H1.61078C1.2192 46.652 0.899902 46.3254 0.899902 45.9248V36.8933C0.899902 29.6574 5.70259 23.5138 12.2077 21.6329C12.4654 26.2442 13.2271 29.7272 15.2458 33.8028L18.8677 25.4475L16.9935 23.6242L16.9901 23.5836C18.0076 23.8484 19.0743 23.9893 20.1736 23.9893C21.2728 23.9893 22.3394 23.8484 23.357 23.5836L23.3536 23.6242L21.4794 25.4473L25.1014 33.8028C27.12 29.7271 27.8817 26.2442 28.1394 21.6329C32.9395 23.0208 36.8127 26.7299 38.5133 31.486H37.3112C35.8909 31.486 34.7352 32.6684 34.7352 34.1214V35.6097C34.7352 35.7744 34.666 35.8804 34.5173 35.9433C34.3688 36.0062 34.2462 35.9813 34.1326 35.865L33.104 34.8127C32.0997 33.7853 30.4653 33.7853 29.4609 34.8127L27.2804 37.0434C26.2762 38.0708 26.2762 39.7429 27.2804 40.7705L28.3092 41.8228C28.4228 41.9391 28.4472 42.0645 28.3857 42.2164C28.3241 42.3685 28.2205 42.4393 28.0597 42.4393H26.6048V42.4392ZM51.8999 48.2295C51.8999 48.6789 51.5404 49.0467 51.1011 49.0467H49.6463C48.7664 49.0467 48.0151 49.5603 47.6784 50.392C47.3416 51.2238 47.5179 52.1304 48.1401 52.7669L49.1688 53.8194C49.4795 54.1372 49.4795 54.6573 49.1688 54.9752L46.9883 57.2059C46.6777 57.5238 46.1693 57.5238 45.8586 57.2059L44.8299 56.1536C44.2077 55.517 43.3215 55.3366 42.5085 55.6811C41.6956 56.0256 41.1936 56.7943 41.1936 57.6944V59.1828C41.1936 59.6322 40.8341 60 40.3948 60H37.3112C36.8718 60 36.5124 59.6322 36.5124 59.1828V57.6944C36.5124 56.7942 36.0104 56.0256 35.1975 55.6811C34.3845 55.3366 33.4982 55.517 32.876 56.1535L31.8474 57.2058C31.5367 57.5236 31.0283 57.5236 30.7177 57.2058L28.5372 54.975C28.2265 54.6572 28.2265 54.1371 28.5372 53.8193L29.5659 52.7668C30.188 52.1303 30.3643 51.2237 30.0276 50.3919C29.6909 49.5603 28.9395 49.0466 28.0597 49.0466H26.6049C26.1656 49.0466 25.8061 48.6788 25.8061 48.2294V45.0745C25.8061 44.625 26.1656 44.2572 26.6049 44.2572H28.0597C28.9396 44.2572 29.6909 43.7437 30.0276 42.912C30.3643 42.0803 30.188 41.1736 29.5659 40.537L28.5372 39.4846C28.2265 39.1668 28.2265 38.6467 28.5372 38.3289L30.7177 36.0981C31.0283 35.7803 31.5367 35.7803 31.8474 36.0981L32.876 37.1505C33.4982 37.787 34.3845 37.9673 35.1975 37.6228C36.0104 37.2783 36.5124 36.5097 36.5124 35.6095V34.1211C36.5124 33.6717 36.8718 33.3039 37.3112 33.3039H40.3948C40.8341 33.3039 41.1936 33.6717 41.1936 34.1211V35.6095C41.1936 36.5097 41.6956 37.2784 42.5085 37.623C43.3215 37.9674 44.2077 37.7871 44.8299 37.1505L45.8586 36.0981C46.1693 35.7803 46.6777 35.7803 46.9883 36.0981L49.1688 38.3289C49.4795 38.6467 49.4795 39.1668 49.1688 39.4846L48.1401 40.537C47.5179 41.1735 47.3416 42.0803 47.6784 42.912C48.0151 43.7437 48.7664 44.2572 49.6463 44.2572H51.1011C51.5404 44.2572 51.8999 44.625 51.8999 45.0745V48.2295ZM45.2959 46.652C45.2959 43.0117 42.4112 40.0605 38.8529 40.0605C35.2946 40.0605 32.41 43.0115 32.41 46.652C32.41 50.2924 35.2946 53.2435 38.8529 53.2435C42.4112 53.2435 45.2959 50.2924 45.2959 46.652ZM20.1736 22.1711C26.2323 22.1711 31.1438 17.208 31.1438 11.0856C31.1438 4.96314 26.2323 0 20.1736 0C14.1149 0 9.20331 4.96314 9.20331 11.0856C9.20331 17.208 14.1149 22.1711 20.1736 22.1711Z" fill="#E32934"/>
<path fill-rule="evenodd" clip-rule="evenodd" d="M38.8047 44.1817C39.4446 44.2115 40.7647 44.5926 40.9253 45.8787V47.346C40.8835 47.8393 40.4083 48.8669 38.8423 49.0302H36.7719C36.8555 48.9366 37.0228 48.5734 37.0228 48.0222V44.8962C37.0145 44.7559 36.9526 44.4165 36.7719 44.1817H38.8047ZM37.7004 44.4242V48.7623H38.4784C39.4486 48.7623 40.2352 47.9625 40.2352 46.976V46.2104C40.2352 45.2239 39.4486 44.4242 38.4784 44.4242H37.7004Z" fill="#E32934"/>
<path d="M36.2448 45.7383C36.295 45.8021 36.4205 45.8532 36.5836 45.8532H41.3953C41.4351 45.8535 41.4752 45.8568 41.5127 45.8704C41.7891 45.9706 41.8264 46.3009 41.7912 46.5039C41.741 46.4401 41.6155 46.3891 41.4524 46.3891H36.7416C36.6366 46.3891 36.526 46.3873 36.4379 46.3292C36.2393 46.1981 36.2136 45.9182 36.2448 45.7383Z" fill="#E32934"/>
<path d="M36.2448 46.7208C36.295 46.7846 36.4205 46.8356 36.5836 46.8356H41.3953C41.4351 46.8359 41.4752 46.8393 41.5127 46.8529C41.7891 46.9531 41.8264 47.2834 41.7912 47.4863C41.741 47.4226 41.6155 47.3715 41.4524 47.3715H36.7416C36.6366 47.3715 36.526 47.3698 36.4379 47.3116C36.2393 47.1805 36.2136 46.9007 36.2448 46.7208Z" fill="#E32934"/>
</svg>
