<svg width="48" height="48" viewBox="0 0 48 48" fill="none" xmlns="http://www.w3.org/2000/svg">
<g clip-path="url(#clip0_80_4471)">
<path d="M40.8 7.66406H7.2C4.89 7.66406 3 9.51633 3 11.7802V38.8291C3 41.093 4.89 42.9453 7.2 42.9453H40.8C43.11 42.9453 45 41.093 45 38.8291V11.7802C45 9.51633 43.11 7.66406 40.8 7.66406ZM40.8 38.8291H7.2V15.8963H40.8V38.8291ZM26.5 20.0125L15 31.1602L19.2 35.2763L26.5 28.2448L34.9 20.0125H30.7H26.5Z" fill="#E32934"/>
<path d="M11.3984 20.0078H15.5984V24.124H11.3984V20.0078Z" fill="#E32934"/>
<path d="M32.3984 30.3047H36.5984V34.4208H32.3984V30.3047Z" fill="#E32934"/>
</g>
<defs>
<clipPath id="clip0_80_4471">
<rect width="42" height="35.2812" fill="white" transform="translate(3 7.66406)"/>
</clipPath>
</defs>
</svg>
