<svg width="48" height="48" viewBox="0 0 48 48" fill="none" xmlns="http://www.w3.org/2000/svg">
<path fill-rule="evenodd" clip-rule="evenodd" d="M19 32.3346L24 27.4346C23.35 27.368 22.8667 27.3346 22.3333 27.3346C17.8833 27.3346 9 29.568 9 34.0013V37.3346H24L19 32.3346ZM22.3333 24.0013C26.0167 24.0013 29 21.018 29 17.3346C29 13.6513 26.0167 10.668 22.3333 10.668C18.65 10.668 15.6667 13.6513 15.6667 17.3346C15.6667 21.018 18.65 24.0013 22.3333 24.0013ZM29.7833 38.168L24 32.3346L26.3333 29.9846L29.7833 33.4513L38.3333 24.8346L40.6667 27.1846L29.7833 38.168Z" fill="#E32934"/>
</svg>
