<svg width="48" height="48" viewBox="0 0 48 48" fill="none" xmlns="http://www.w3.org/2000/svg">
<path d="M35.6016 29.2422C35.6016 22.8447 30.3974 17.6406 24 17.6406C17.6026 17.6406 12.3984 22.8447 12.3984 29.2422C12.3984 35.6396 17.6026 40.8438 24 40.8438C30.3974 40.8438 35.6016 35.6396 35.6016 29.2422ZM24 22.7969C26.1325 22.7969 27.8672 24.5316 27.8672 26.6641C27.8672 27.8876 27.2781 29.0521 26.2924 29.7784C25.6642 30.2417 25.2891 30.9819 25.2891 31.7599L22.7109 31.8203C22.7109 30.1662 23.4776 28.6505 24.7616 27.7039C25.0964 27.4572 25.2891 27.0783 25.2891 26.6641C25.2891 25.9528 24.7112 25.375 24 25.375C23.2888 25.375 22.7109 25.9528 22.7109 26.6641H20.1328C20.1328 24.5316 21.8675 22.7969 24 22.7969ZM22.7109 33.1094H25.2891V35.6875H22.7109V33.1094Z" fill="#E32934"/>
<path d="M43.4219 20.4562C43.4219 18.8618 43.4219 13.2832 43.4219 13.6016C43.4219 7.20412 38.2178 2 31.8203 2H16.1797C9.78224 2 4.57812 7.20412 4.57812 13.6016C4.57812 14.0133 4.57812 20.8491 4.57812 20.4562C3.08092 20.9901 2 22.4076 2 24.0859V34.3984C2 36.5309 3.73473 38.2656 5.86719 38.2656H9.73438V20.2188H7.15625V17.4688H12.3125V13.6016C12.3125 11.4691 14.0472 9.73438 16.1797 9.73438H31.8203C33.9528 9.73438 35.6875 11.4691 35.6875 13.6016V17.4688H40.8438V20.2188H38.2656V38.2656H40.8438V39.5547C40.8438 41.6871 39.109 43.4219 36.9766 43.4219H22.7109V46H36.9766C40.5303 46 43.4219 43.1085 43.4219 39.5547V38.0282C44.9191 37.4943 46 36.0768 46 34.3984V24.0859C46 22.4076 44.9191 20.9901 43.4219 20.4562Z" fill="#E32934"/>
</svg>
