<svg width="48" height="48" viewBox="0 0 48 48" fill="none" xmlns="http://www.w3.org/2000/svg">
<path d="M27.3317 7.33496H13.9984C12.165 7.33496 10.665 8.83496 10.665 10.6683V37.335C10.665 39.1683 12.165 40.6683 13.9984 40.6683H33.9984C35.8317 40.6683 37.3317 39.1683 37.3317 37.335V17.335L27.3317 7.33496ZM28.9984 22.335H22.3317V24.0016H27.3317C28.2484 24.0016 28.9984 24.7516 28.9984 25.6683V30.6683C28.9984 31.585 28.2484 32.335 27.3317 32.335H25.665V34.0016H22.3317V32.335H18.9984V29.0016H25.665V27.335H20.665C19.7484 27.335 18.9984 26.585 18.9984 25.6683V20.6683C18.9984 19.7516 19.7484 19.0016 20.665 19.0016H22.3317V17.335H25.665V19.0016H28.9984V22.335Z" fill="#E32934"/>
</svg>
