<svg width="48" height="48" viewBox="0 0 48 48" fill="none" xmlns="http://www.w3.org/2000/svg">
<path d="M37.3301 16.9627H28.9967V11.9627C28.9967 10.1294 27.4967 8.62939 25.6634 8.62939H22.3301C20.4967 8.62939 18.9967 10.1294 18.9967 11.9627V16.9627H10.6634C8.83008 16.9627 7.33008 18.4627 7.33008 20.2961V38.6294C7.33008 40.4627 8.83008 41.9627 10.6634 41.9627H37.3301C39.1634 41.9627 40.6634 40.4627 40.6634 38.6294V20.2961C40.6634 18.4627 39.1634 16.9627 37.3301 16.9627ZM18.9967 25.2961C20.3801 25.2961 21.4967 26.4127 21.4967 27.7961C21.4967 29.1794 20.3801 30.2961 18.9967 30.2961C17.6134 30.2961 16.4967 29.1794 16.4967 27.7961C16.4967 26.4127 17.6134 25.2961 18.9967 25.2961ZM23.9967 35.2961H13.9967V34.0461C13.9967 32.3794 17.3301 31.5461 18.9967 31.5461C20.6634 31.5461 23.9967 32.3794 23.9967 34.0461V35.2961ZM25.6634 20.2961H22.3301V11.9627H25.6634V20.2961ZM33.9967 32.7961H27.3301V30.2961H33.9967V32.7961ZM33.9967 27.7961H27.3301V25.2961H33.9967V27.7961Z" fill="#E32934"/>
</svg>
