<svg width="24" height="25" viewBox="0 0 24 25" fill="none" xmlns="http://www.w3.org/2000/svg">
<g clip-path="url(#clip0_16133_26776)">
<path d="M5.61357 17.4719C5.25681 17.4719 4.96335 17.1765 4.96335 16.8178V8.44425H17.6459V13.4117C18.1694 13.5297 18.6621 13.7296 19.1089 13.9975V6.23733C19.1089 5.13834 18.215 4.23926 17.1219 4.23926H16.6926V5.08398C16.6926 5.9877 15.9609 6.72799 15.062 6.72799H14.0593C13.1605 6.72799 12.4288 5.9877 12.4288 5.08398V4.23926H10.1797V5.08398C10.1797 5.9877 9.44803 6.72799 8.54455 6.72799H7.54645C6.64759 6.72799 5.91592 5.9877 5.91592 5.08398V4.23926H5.61322C4.4483 4.23926 3.5 5.19305 3.5 6.36035V16.8181C3.5 17.9897 4.4483 18.9435 5.61357 18.9435H11.3542C11.3361 18.7937 11.3318 18.6388 11.3318 18.4847C11.3318 18.1396 11.3635 17.7991 11.4311 17.4722H5.61357V17.4719Z" fill="#E32934"/>
<path d="M8.80068 9.89897C8.80068 9.75985 8.68828 9.64648 8.54956 9.64648H6.52847C6.3901 9.64648 6.27734 9.75949 6.27734 9.89897V11.0169C6.27734 11.1567 6.38975 11.2694 6.52847 11.2694H8.54956C8.68793 11.2694 8.80068 11.1567 8.80068 11.0169V9.89897Z" fill="#E32934"/>
<path d="M8.54956 14.6455H6.52847C6.3901 14.6455 6.27734 14.7585 6.27734 14.8984V16.0163C6.27734 16.1554 6.38975 16.2688 6.52847 16.2688H8.54956C8.68793 16.2688 8.80068 16.1558 8.80068 16.0163V14.8984C8.80068 14.7585 8.68828 14.6455 8.54956 14.6455Z" fill="#E32934"/>
<path d="M14.0636 11.2694H16.084C16.2231 11.2694 16.3355 11.1567 16.3355 11.0169V9.89897C16.3355 9.75985 16.2231 9.64648 16.084 9.64648H14.0636C13.9253 9.64648 13.8125 9.75949 13.8125 9.89897V11.0169C13.8125 11.1567 13.9249 11.2694 14.0636 11.2694Z" fill="#E32934"/>
<path d="M12.566 9.89897C12.566 9.75985 12.4536 9.64648 12.3145 9.64648H10.2941C10.1557 9.64648 10.043 9.75949 10.043 9.89897V11.0169C10.043 11.1567 10.1554 11.2694 10.2941 11.2694H12.3145C12.4536 11.2694 12.566 11.1567 12.566 11.0169V9.89897Z" fill="#E32934"/>
<path d="M12.5631 14.8971C12.5631 14.7608 12.4546 14.6475 12.3145 14.6475H10.2912C10.1557 14.6475 10.043 14.7608 10.043 14.8971V16.0186C10.043 16.1549 10.1557 16.2682 10.2912 16.2682H11.8222C12.0168 15.8505 12.265 15.4646 12.5631 15.1192V14.8971Z" fill="#E32934"/>
<path d="M8.80068 12.398C8.80068 12.2582 8.68828 12.1455 8.54956 12.1455H6.52847C6.3901 12.1455 6.27734 12.2582 6.27734 12.398V13.5159C6.27734 13.6551 6.38975 13.7684 6.52847 13.7684H8.54956C8.68793 13.7684 8.80068 13.6554 8.80068 13.5159V12.398Z" fill="#E32934"/>
<path d="M14.0608 13.7703H14.3229C14.9372 13.4799 15.6191 13.3118 16.3373 13.2893V12.3992C16.3373 12.2583 16.2245 12.1445 16.0844 12.1445H14.0608C13.9253 12.1445 13.8125 12.2579 13.8125 12.3992V13.5164C13.8125 13.6569 13.9253 13.7707 14.0608 13.7707V13.7703Z" fill="#E32934"/>
<path d="M12.3145 12.1455H10.2941C10.1557 12.1455 10.043 12.2582 10.043 12.398V13.5159C10.043 13.6551 10.1554 13.7684 10.2941 13.7684H12.3145C12.4536 13.7684 12.566 13.6554 12.566 13.5159V12.398C12.566 12.2582 12.4536 12.1455 12.3145 12.1455Z" fill="#E32934"/>
<path d="M7.54704 5.61351H8.54798C8.83894 5.61351 9.07513 5.3764 9.07513 5.08351V3.03036C9.07513 2.73711 8.8393 2.5 8.54798 2.5H7.54704C7.25607 2.5 7.01953 2.73711 7.01953 3.03036V5.08351C7.01953 5.37605 7.25607 5.61351 7.54704 5.61351Z" fill="#E32934"/>
<path d="M14.0623 5.61351H15.0632C15.3542 5.61351 15.5904 5.3764 15.5904 5.08351V3.03036C15.5904 2.73711 15.3546 2.5 15.0632 2.5H14.0623C13.7713 2.5 13.5352 2.73711 13.5352 3.03036V5.08351C13.5352 5.37605 13.771 5.61351 14.0623 5.61351Z" fill="#E32934"/>
<path d="M16.5038 14.4648C14.2966 14.4648 12.5078 16.2634 12.5078 18.4824C12.5078 20.7015 14.2966 22.5 16.5038 22.5C18.7109 22.5 20.4997 20.7015 20.4997 18.4824C20.4997 16.2634 18.7102 14.4648 16.5038 14.4648ZM17.8903 19.0729H16.5016C16.2964 19.0729 16.1303 18.9055 16.1303 18.6995V16.5734C16.1303 16.3671 16.2967 16.2001 16.5016 16.2001C16.7065 16.2001 16.873 16.3674 16.873 16.5734V18.3262H17.8903C18.0955 18.3262 18.2616 18.4935 18.2616 18.6995C18.2616 18.9055 18.0952 19.0729 17.8903 19.0729Z" fill="#E32934"/>
</g>
<defs>
<clipPath id="clip0_16133_26776">
<rect width="17" height="20" fill="white" transform="translate(3.5 2.5)"/>
</clipPath>
</defs>
</svg>
