<svg width="24" height="24" viewBox="0 0 24 24" fill="none" xmlns="http://www.w3.org/2000/svg">
<path d="M21.7063 18.7753L20.0805 17.1338C19.901 16.9528 19.6705 16.8552 19.4358 16.84L18.8835 16.2824C19.704 14.9655 19.547 13.2011 18.4125 12.0558C17.0958 10.7261 14.953 10.7263 13.636 12.0558C12.3192 13.3853 12.3192 15.5489 13.636 16.8786C14.7705 18.0241 16.518 18.1827 17.822 17.3542L18.3743 17.9118C18.389 18.1488 18.4858 18.3816 18.6653 18.5628L20.291 20.2043C20.6818 20.5989 21.3153 20.5989 21.7063 20.2043C22.097 19.8098 22.097 19.1699 21.7063 18.7753ZM17.705 16.1643C16.7783 17.0998 15.2705 17.0998 14.3438 16.1643C13.4173 15.2285 13.4173 13.7062 14.3438 12.7704C15.2703 11.8347 16.778 11.8347 17.705 12.7704C18.6315 13.7062 18.6315 15.2285 17.705 16.1643Z" fill="#E32934"/>
<path d="M13.0718 11.5384C13.8456 10.7572 14.8758 10.3268 15.9726 10.3268C17.0693 10.3268 18.0993 10.7569 18.8733 11.5384C19.5341 12.2053 19.9518 13.0893 20.0503 14.0278C20.1261 14.7495 20.0126 15.4818 19.7221 16.1462L19.7318 16.156C20.0383 16.2317 20.3181 16.3908 20.5413 16.6159L20.7018 16.778V5.44821C20.7018 5.26974 20.6143 5.10289 20.4681 5.00268C19.0351 4.01949 17.4078 3.5 15.7613 3.5C14.2271 3.5 12.7098 3.95133 11.3508 4.80806C9.99154 3.95133 8.47378 3.5 6.93952 3.5C5.29352 3.5 3.66601 4.01949 2.23375 5.00243C2.0875 5.10289 2 5.26974 2 5.44795V18.0782C2 18.2779 2.10925 18.4612 2.284 18.5546C2.45875 18.648 2.67 18.6361 2.83375 18.524C4.08851 17.6632 5.50852 17.2079 6.93977 17.2079C8.37103 17.2079 9.79154 17.6632 11.0465 18.524C11.1363 18.5859 11.2413 18.6172 11.346 18.6172C11.3465 18.6172 11.3473 18.6172 11.3478 18.6172C11.4553 18.6187 11.5628 18.5871 11.6548 18.524C12.1915 18.1557 12.7588 17.8624 13.3441 17.6463C13.2503 17.5671 13.1593 17.484 13.0718 17.3957C11.4723 15.7807 11.4723 13.1532 13.0718 11.5382V11.5384ZM12.8951 7.13187C13.8961 6.44099 15.2638 6.33775 15.9901 6.33775C16.7163 6.33775 18.0843 6.44099 19.0851 7.13187C19.3316 7.30201 19.3946 7.64152 19.2263 7.89015C19.0578 8.13879 18.7216 8.20265 18.4753 8.03277C17.9196 7.64909 17.0138 7.42898 15.9903 7.42898C14.9668 7.42898 14.0608 7.64909 13.5051 8.03277C13.4118 8.09714 13.3056 8.12794 13.2006 8.12794C13.0281 8.12794 12.8586 8.04489 12.7538 7.89015C12.5855 7.64152 12.6488 7.30201 12.8951 7.13187ZM12.8951 9.49229C13.8961 8.8014 15.2638 8.69816 15.9901 8.69816C16.7163 8.69816 18.0843 8.8014 19.0851 9.49229C19.3316 9.66242 19.3946 10.0019 19.2263 10.2506C19.0578 10.4992 18.7216 10.5631 18.4753 10.3932C17.9196 10.0095 17.0138 9.78939 15.9903 9.78939C14.9668 9.78939 14.0608 10.0095 13.5051 10.3932C13.4118 10.4576 13.3056 10.4884 13.2006 10.4884C13.0281 10.4884 12.8586 10.4053 12.7538 10.2506C12.5855 10.0019 12.6488 9.66242 12.8951 9.49229ZM9.94729 14.9714C9.77879 15.2203 9.44253 15.2839 9.19628 15.114C8.64053 14.7303 7.73478 14.5102 6.71102 14.5102C5.68727 14.5102 4.78151 14.7303 4.22576 15.114C4.13251 15.1784 4.02626 15.2094 3.92126 15.2094C3.74876 15.2094 3.57926 15.1264 3.47451 14.9716C3.30601 14.7228 3.36926 14.3835 3.61576 14.2134C4.61676 13.5222 5.98452 13.4192 6.71077 13.4192C7.43703 13.4192 8.80503 13.5225 9.80579 14.2134C10.052 14.3833 10.1153 14.7228 9.94704 14.9714H9.94729ZM9.94729 12.611C9.77879 12.8599 9.44253 12.9235 9.19628 12.7536C8.64053 12.3699 7.73478 12.1498 6.71102 12.1498C5.68727 12.1498 4.78151 12.3699 4.22576 12.7536C4.13251 12.818 4.02626 12.849 3.92126 12.849C3.74876 12.849 3.57926 12.766 3.47451 12.6112C3.30601 12.3623 3.36926 12.0231 3.61576 11.853C4.61676 11.1621 5.98452 11.0588 6.71077 11.0588C7.43703 11.0588 8.80503 11.1621 9.80579 11.853C10.052 12.0228 10.1153 12.3623 9.94704 12.611H9.94729ZM9.94729 10.2506C9.77879 10.4992 9.44253 10.5631 9.19628 10.3932C8.64053 10.0095 7.73478 9.78939 6.71102 9.78939C5.68727 9.78939 4.78151 10.0095 4.22576 10.3932C4.13251 10.4576 4.02626 10.4884 3.92126 10.4884C3.74876 10.4884 3.57926 10.4053 3.47451 10.2506C3.30601 10.0019 3.36926 9.66242 3.61576 9.49229C4.61676 8.8014 5.98452 8.69816 6.71077 8.69816C7.43703 8.69816 8.80503 8.8014 9.80579 9.49229C10.052 9.66217 10.1153 10.0017 9.94704 10.2506H9.94729ZM9.94729 7.89015C9.77879 8.13879 9.44253 8.20265 9.19628 8.03277C8.64053 7.64909 7.73478 7.42898 6.71102 7.42898C5.68727 7.42898 4.78151 7.64909 4.22576 8.03277C4.13251 8.09714 4.02626 8.12794 3.92126 8.12794C3.74876 8.12794 3.57926 8.04489 3.47451 7.89015C3.30601 7.64152 3.36926 7.30201 3.61576 7.13187C4.61676 6.44099 5.98452 6.33775 6.71077 6.33775C7.43703 6.33775 8.80503 6.44099 9.80579 7.13187C10.052 7.30175 10.1153 7.64126 9.94704 7.89015H9.94729Z" fill="#E32934"/>
</svg>
