<svg width="24" height="25" viewBox="0 0 24 25" fill="none" xmlns="http://www.w3.org/2000/svg">
<path fill-rule="evenodd" clip-rule="evenodd" d="M11.4 4.02734C16.334 4.02734 20.25 7.76585 20.25 12.2773C20.25 16.7888 16.334 20.5273 11.4 20.5273C10.9586 20.5273 10.5251 20.4972 10.1018 20.4392C9.6914 20.383 9.3132 20.6701 9.2569 21.0805C9.2007 21.4909 9.4878 21.8691 9.8982 21.9253C10.3889 21.9926 10.8904 22.0273 11.4 22.0273C17.0698 22.0273 21.75 17.7069 21.75 12.2773C21.75 6.8477 17.0698 2.52734 11.4 2.52734C10.8904 2.52734 10.3889 2.56208 9.8982 2.62929C9.4878 2.68551 9.2007 3.06376 9.2569 3.47414C9.3132 3.88452 9.6914 4.17163 10.1018 4.11542C10.5251 4.05743 10.9586 4.02734 11.4 4.02734Z" fill="#2A282F"/>
<path fill-rule="evenodd" clip-rule="evenodd" d="M10.6407 13.688C10.396 13.8802 10.1388 14.0824 9.9773 14.2395C9.6802 14.5282 9.6735 15.003 9.9622 15.3C10.2509 15.5971 10.7257 15.6038 11.0227 15.3151C11.114 15.2264 11.2958 15.0808 11.5672 14.8676C11.5869 14.8522 11.6069 14.8365 11.6272 14.8205C11.8693 14.6305 12.1534 14.4075 12.4245 14.1778C12.715 13.9316 13.0168 13.656 13.2515 13.3805C13.369 13.2425 13.485 13.0869 13.5746 12.9195C13.661 12.758 13.75 12.5356 13.75 12.2773C13.75 12.019 13.661 11.7966 13.5746 11.6351C13.485 11.4677 13.369 11.3121 13.2515 11.1741C13.0168 10.8986 12.715 10.623 12.4245 10.3768C12.1534 10.1471 11.8693 9.92416 11.6272 9.73408C11.6069 9.71817 11.5869 9.70248 11.5672 9.68705C11.2958 9.47385 11.114 9.32823 11.0227 9.23953C10.7257 8.95083 10.2509 8.95757 9.9622 9.2546C9.6735 9.55162 9.6802 10.0264 9.9773 10.3151C10.1388 10.4722 10.396 10.6744 10.6407 10.8666C10.6596 10.8815 10.6786 10.8964 10.6976 10.9113C10.9434 11.1043 11.2061 11.3106 11.4548 11.5212C11.4572 11.5233 11.4595 11.5253 11.4619 11.5273H3C2.5858 11.5273 2.25 11.8631 2.25 12.2773C2.25 12.6915 2.5858 13.0273 3 13.0273H11.4619C11.4595 13.0293 11.4572 13.0313 11.4548 13.0334C11.2061 13.244 10.9434 13.4503 10.6976 13.6433C10.6786 13.6582 10.6596 13.6731 10.6407 13.688Z" fill="#2A282F"/>
</svg>
