<svg width="20" height="21" viewBox="0 0 20 21" fill="none" xmlns="http://www.w3.org/2000/svg">
<path fill-rule="evenodd" clip-rule="evenodd" d="M10.6 2.02734C5.66595 2.02734 1.75 5.76585 1.75 10.2773C1.75 14.7888 5.66595 18.5273 10.6 18.5273C11.0414 18.5273 11.4749 18.4972 11.8982 18.4392C12.3086 18.383 12.6868 18.6701 12.7431 19.0805C12.7993 19.4909 12.5122 19.8691 12.1018 19.9253C11.6111 19.9926 11.1096 20.0273 10.6 20.0273C4.93018 20.0273 0.25 15.7069 0.25 10.2773C0.25 4.8477 4.93018 0.527344 10.6 0.527344C11.1096 0.527344 11.6111 0.562084 12.1018 0.629294C12.5122 0.685514 12.7993 1.06376 12.7431 1.47414C12.6868 1.88452 12.3086 2.17163 11.8982 2.11542C11.4749 2.05743 11.0414 2.02734 10.6 2.02734Z" fill="#2A282F"/>
<path fill-rule="evenodd" clip-rule="evenodd" d="M11.3593 11.688C11.604 11.8802 11.8612 12.0824 12.0227 12.2395C12.3198 12.5282 12.3265 13.003 12.0378 13.3C11.7491 13.5971 11.2743 13.6038 10.9773 13.3151C10.886 13.2264 10.7042 13.0808 10.4328 12.8676C10.4131 12.8522 10.3931 12.8365 10.3728 12.8205C10.1307 12.6305 9.8466 12.4075 9.5755 12.1778C9.285 11.9316 8.9832 11.656 8.7485 11.3805C8.631 11.2425 8.515 11.0869 8.4254 10.9195C8.339 10.758 8.25 10.5356 8.25 10.2773C8.25 10.019 8.339 9.79664 8.4254 9.63514C8.515 9.46774 8.631 9.31214 8.7485 9.17414C8.9832 8.89864 9.285 8.62304 9.5755 8.37684C9.8466 8.14714 10.1307 7.92416 10.3728 7.73408C10.3931 7.71817 10.4131 7.70248 10.4328 7.68705C10.7042 7.47385 10.886 7.32823 10.9773 7.23953C11.2743 6.95083 11.7491 6.95757 12.0378 7.2546C12.3265 7.55162 12.3198 8.02644 12.0227 8.31514C11.8612 8.47224 11.604 8.67444 11.3593 8.86664C11.3404 8.88154 11.3214 8.89644 11.3024 8.91134C11.0566 9.10434 10.7939 9.31064 10.5452 9.52124C10.5428 9.52334 10.5405 9.52534 10.5381 9.52734H19C19.4142 9.52734 19.75 9.86314 19.75 10.2773C19.75 10.6915 19.4142 11.0273 19 11.0273H10.5381C10.5405 11.0293 10.5428 11.0313 10.5452 11.0334C10.7939 11.244 11.0566 11.4503 11.3024 11.6433C11.3214 11.6582 11.3404 11.6731 11.3593 11.688Z" fill="#2A282F"/>
</svg>
