<svg width="48" height="48" viewBox="0 0 48 48" fill="none" xmlns="http://www.w3.org/2000/svg">
<g clip-path="url(#clip0_41_12693)">
<path d="M2.67131 24.7844V18.8996C2.67131 18.7828 2.76116 18.684 2.87795 18.666L8.69085 17.9652C9.0592 16.5187 9.64319 15.1082 10.4248 13.7875L6.81311 9.1875C6.74124 9.09766 6.75022 8.96289 6.83108 8.88203L10.9908 4.72227C11.0717 4.64141 11.2065 4.62344 11.2963 4.7043L15.8963 8.31602C17.208 7.54336 18.6096 6.95937 20.074 6.58203L20.7838 0.769141C20.8018 0.643359 20.8916 0.5625 21.0084 0.5625H26.8932C27.01 0.5625 27.1088 0.652344 27.1178 0.769141L27.8276 6.58203C29.292 6.95937 30.7026 7.53438 32.0053 8.31602L36.6053 4.7043C36.7041 4.63242 36.8299 4.64141 36.9198 4.72227L41.0705 8.87305C41.1514 8.96289 41.1604 9.09766 41.0885 9.1875L37.4768 13.7875C38.2494 15.1082 38.8334 16.5187 39.2108 17.9652C39.2108 17.9652 45.0147 18.666 45.0237 18.666C45.1405 18.684 45.2303 18.7828 45.2303 18.8996V24.7844C45.2303 24.8922 45.1405 25 45.0237 25.009L44.2151 25.1078C44.5205 24.4879 44.224 23.6793 43.4694 23.6523C42.4451 23.7242 41.4209 23.7152 40.4147 23.5266C37.8182 23.1762 36.228 21.2086 33.6764 21.9723C33.7752 16.5637 29.3639 12.0984 23.9553 12.1074C17.9268 12.0445 13.192 17.7855 14.4139 23.6883C12.5272 23.6883 10.8022 23.0145 9.11311 22.2688C7.01077 21.3793 4.75569 21.9453 3.61467 23.9668C3.51585 24.3531 3.69553 24.7395 3.79436 25.1168L2.88694 25.009C2.76116 25 2.67131 24.9012 2.67131 24.7844ZM9.30178 23.4637C7.51389 22.5293 5.93264 22.5113 4.59397 24.2363C4.85452 25.6469 5.83381 26.8687 6.73225 27.9109H13.5514C14.5307 26.734 15.1416 25.9074 15.5729 24.6945C13.3717 24.7844 11.3233 24.3531 9.30178 23.4637ZM6.03147 28.9262C5.42952 28.9352 5.42952 29.8426 6.03147 29.8516H14.2522C14.8451 29.8426 14.8541 28.9262 14.2612 28.9262H6.03147ZM12.2127 38.3238C12.078 35.7992 13.3268 33.4363 14.7373 31.4148C14.5666 31.2441 14.3869 31.0195 14.2162 30.8758H6.06741C2.83303 34.209 1.126 37.075 1.126 39.1594C1.10803 46.7422 10.8201 47.7574 15.7885 45.116C13.5963 43.5258 12.3475 40.9832 12.2127 38.3238ZM19.1307 25.4941C18.2862 25.5121 18.2862 26.7699 19.1307 26.7789H28.8787C29.7233 26.7699 29.7143 25.5031 28.8787 25.4941H19.1307ZM24.0002 46.4098C15.1057 46.6164 9.74202 39.3121 15.8065 31.6664H15.8155C16.8307 30.2828 17.9088 29.0699 19.1307 27.7941H28.8787C31.8346 30.8578 35.6619 35.4129 34.6647 39.357C33.7752 44.3973 29.0225 46.4188 24.0002 46.4098ZM24.4584 36.5809V33.4633H26.6776C26.9651 33.4633 27.1807 33.2387 27.1807 32.9602C27.1807 32.6816 26.9561 32.457 26.6776 32.457H24.4584C24.4315 32.0078 24.6381 31.1902 23.9553 31.1723C23.6768 31.1723 23.4522 31.3969 23.4522 31.6754V32.457C19.8494 32.4121 19.8494 37.65 23.4522 37.6051V40.7496H21.233C20.9545 40.7496 20.7299 40.9742 20.7299 41.2527C20.7299 41.5312 20.9545 41.7559 21.233 41.7559H23.4522V42.5375C23.4522 42.816 23.6768 43.0406 23.9553 43.0406C24.6471 43.0137 24.4315 42.1961 24.4584 41.7559C28.0522 41.8187 28.0612 36.518 24.4584 36.5809ZM24.4584 40.7316C26.7315 40.8125 26.7045 37.4973 24.4584 37.5871V40.7316ZM23.4432 36.5809V33.4633C21.1881 33.3645 21.1881 36.6707 23.4432 36.5809ZM33.7483 28.9262C33.1463 28.9352 33.1463 29.8426 33.7483 29.8516H41.969C42.5709 29.8426 42.5799 28.9262 41.969 28.9262H33.7483ZM41.933 30.8758H33.7752C33.6045 31.0555 33.4338 31.2352 33.2631 31.4148C34.0807 32.5918 34.8444 33.8676 35.3205 35.2242C36.5783 38.7641 35.2487 42.9238 32.2209 45.125C37.1983 47.7574 46.8924 46.7512 46.8834 39.1594C46.8834 37.066 45.1674 34.209 41.933 30.8758ZM37.0096 23.4637C35.2576 22.5742 33.6045 22.4934 32.3018 24.2363C32.5623 25.548 33.5596 26.8777 34.4401 27.9109H41.2592C42.2655 26.707 42.8494 25.8895 43.2807 24.6766C41.2502 24.9191 38.6448 24.2902 37.0096 23.4637ZM23.0389 19.0254C20.7748 17.8574 18.924 17.9113 17.3248 19.9957C17.5135 21.1906 18.4119 22.7449 19.9123 24.4699H28.0881C29.4178 22.9336 30.2533 21.568 30.5678 20.427C28.1151 20.7773 25.0065 20.0137 23.0389 19.0254Z" fill="#E32934"/>
</g>
<defs>
<clipPath id="clip0_41_12693">
<rect width="46" height="46" fill="white" transform="translate(1 0.5)"/>
</clipPath>
</defs>
</svg>
