<svg width="48" height="48" viewBox="0 0 48 48" fill="none" xmlns="http://www.w3.org/2000/svg">
<path d="M10.667 30.6654V40.6654H37.3337V30.6654C37.3337 28.832 35.8337 27.332 34.0003 27.332H14.0003C12.167 27.332 10.667 28.832 10.667 30.6654ZM34.0003 33.9987H14.0003V30.6654H34.0003V33.9987ZM24.0003 7.33203C19.4003 7.33203 15.667 11.0654 15.667 15.6654L24.0003 27.332L32.3337 15.6654C32.3337 11.0654 28.6003 7.33203 24.0003 7.33203ZM24.0003 22.332L19.0003 15.6654C19.0003 12.8987 21.2337 10.6654 24.0003 10.6654C26.767 10.6654 29.0003 12.8987 29.0003 15.6654L24.0003 22.332Z" fill="#E32934"/>
</svg>
