<svg width="48" height="48" viewBox="0 0 48 48" fill="none" xmlns="http://www.w3.org/2000/svg">
<path d="M23.9987 7.33203C14.7987 7.33203 7.33203 14.7987 7.33203 23.9987C7.33203 33.1987 14.7987 40.6654 23.9987 40.6654C33.1987 40.6654 40.6654 33.1987 40.6654 23.9987C40.6654 14.7987 33.1987 7.33203 23.9987 7.33203ZM36.432 19.1987L31.7987 21.1154C30.9487 18.8487 29.1654 17.0487 26.882 16.2154L28.7987 11.582C32.2987 12.9154 35.082 15.6987 36.432 19.1987ZM23.9987 28.9987C21.232 28.9987 18.9987 26.7654 18.9987 23.9987C18.9987 21.232 21.232 18.9987 23.9987 18.9987C26.7654 18.9987 28.9987 21.232 28.9987 23.9987C28.9987 26.7654 26.7654 28.9987 23.9987 28.9987ZM19.2154 11.5654L21.1654 16.1987C18.8654 17.032 17.0487 18.8487 16.1987 21.1487L11.5654 19.2154C12.9154 15.6987 15.6987 12.9154 19.2154 11.5654ZM11.5654 28.782L16.1987 26.8654C17.0487 29.1654 18.8487 30.9654 21.1487 31.7987L19.1987 36.432C15.6987 35.082 12.9154 32.2987 11.5654 28.782ZM28.7987 36.432L26.882 31.7987C29.1654 30.9487 30.9654 29.1487 31.7987 26.8487L36.432 28.7987C35.082 32.2987 32.2987 35.082 28.7987 36.432Z" fill="#E32934"/>
</svg>
