<svg width="94" height="95" viewBox="0 0 94 95" fill="none" xmlns="http://www.w3.org/2000/svg">
<path d="M29.1711 0.0898438H25.9297V3.33123H29.1711V0.0898438Z" fill="white"/>
<path d="M35.6554 0.0898438H32.4141V3.33123H35.6554V0.0898438Z" fill="white"/>
<path d="M45.3781 0.0898438H42.1367V3.33123H45.3781V0.0898438Z" fill="white"/>
<path d="M48.6203 0.0898438H45.3789V3.33123H48.6203V0.0898438Z" fill="white"/>
<path d="M51.8625 0.0898438H48.6211V3.33123H51.8625V0.0898438Z" fill="white"/>
<path d="M29.1711 3.33008H25.9297V6.57147H29.1711V3.33008Z" fill="white"/>
<path d="M38.8976 3.33008H35.6562V6.57147H38.8976V3.33008Z" fill="white"/>
<path d="M42.1398 3.33008H38.8984V6.57147H42.1398V3.33008Z" fill="white"/>
<path d="M48.6203 3.33008H45.3789V6.57147H48.6203V3.33008Z" fill="white"/>
<path d="M55.1046 3.33008H51.8633V6.57147H55.1046V3.33008Z" fill="white"/>
<path d="M58.3429 3.33008H55.1016V6.57147H58.3429V3.33008Z" fill="white"/>
<path d="M68.0695 3.33008H64.8281V6.57147H68.0695V3.33008Z" fill="white"/>
<path d="M29.1711 6.57031H25.9297V9.8117H29.1711V6.57031Z" fill="white"/>
<path d="M32.4132 6.57031H29.1719V9.8117H32.4132V6.57031Z" fill="white"/>
<path d="M38.8976 6.57031H35.6562V9.8117H38.8976V6.57031Z" fill="white"/>
<path d="M42.1398 6.57031H38.8984V9.8117H42.1398V6.57031Z" fill="white"/>
<path d="M45.3781 6.57031H42.1367V9.8117H45.3781V6.57031Z" fill="white"/>
<path d="M51.8625 6.57031H48.6211V9.8117H51.8625V6.57031Z" fill="white"/>
<path d="M55.1046 6.57031H51.8633V9.8117H55.1046V6.57031Z" fill="white"/>
<path d="M68.0695 6.57031H64.8281V9.8117H68.0695V6.57031Z" fill="white"/>
<path d="M35.6554 9.81445H32.4141V13.0558H35.6554V9.81445Z" fill="white"/>
<path d="M45.3781 9.81445H42.1367V13.0558H45.3781V9.81445Z" fill="white"/>
<path d="M48.6203 9.81445H45.3789V13.0558H48.6203V9.81445Z" fill="white"/>
<path d="M58.3429 9.81445H55.1016V13.0558H58.3429V9.81445Z" fill="white"/>
<path d="M61.5851 9.81445H58.3438V13.0558H61.5851V9.81445Z" fill="white"/>
<path d="M68.0695 9.81445H64.8281V13.0558H68.0695V9.81445Z" fill="white"/>
<path d="M32.4132 13.0547H29.1719V16.2961H32.4132V13.0547Z" fill="white"/>
<path d="M35.6554 13.0547H32.4141V16.2961H35.6554V13.0547Z" fill="white"/>
<path d="M42.1398 13.0547H38.8984V16.2961H42.1398V13.0547Z" fill="white"/>
<path d="M61.5851 13.0547H58.3438V16.2961H61.5851V13.0547Z" fill="white"/>
<path d="M29.1711 16.2969H25.9297V19.5383H29.1711V16.2969Z" fill="white"/>
<path d="M35.6554 16.2969H32.4141V19.5383H35.6554V16.2969Z" fill="white"/>
<path d="M42.1398 16.2969H38.8984V19.5383H42.1398V16.2969Z" fill="white"/>
<path d="M45.3781 16.2969H42.1367V19.5383H45.3781V16.2969Z" fill="white"/>
<path d="M48.6203 16.2969H45.3789V19.5383H48.6203V16.2969Z" fill="white"/>
<path d="M51.8625 16.2969H48.6211V19.5383H51.8625V16.2969Z" fill="white"/>
<path d="M61.5851 16.2969H58.3438V19.5383H61.5851V16.2969Z" fill="white"/>
<path d="M68.0695 16.2969H64.8281V19.5383H68.0695V16.2969Z" fill="white"/>
<path d="M29.1711 19.5371H25.9297V22.7785H29.1711V19.5371Z" fill="white"/>
<path d="M35.6554 19.5371H32.4141V22.7785H35.6554V19.5371Z" fill="white"/>
<path d="M42.1398 19.5371H38.8984V22.7785H42.1398V19.5371Z" fill="white"/>
<path d="M48.6203 19.5371H45.3789V22.7785H48.6203V19.5371Z" fill="white"/>
<path d="M55.1046 19.5371H51.8633V22.7785H55.1046V19.5371Z" fill="white"/>
<path d="M61.5851 19.5371H58.3438V22.7785H61.5851V19.5371Z" fill="white"/>
<path d="M68.0695 19.5371H64.8281V22.7785H68.0695V19.5371Z" fill="white"/>
<path d="M29.1711 22.7793H25.9297V26.0207H29.1711V22.7793Z" fill="white"/>
<path d="M45.3781 22.7793H42.1367V26.0207H45.3781V22.7793Z" fill="white"/>
<path d="M51.8625 22.7793H48.6211V26.0207H51.8625V22.7793Z" fill="white"/>
<path d="M55.1046 22.7793H51.8633V26.0207H55.1046V22.7793Z" fill="white"/>
<path d="M61.5851 22.7793H58.3438V26.0207H61.5851V22.7793Z" fill="white"/>
<path d="M64.8273 22.7793H61.5859V26.0207H64.8273V22.7793Z" fill="white"/>
<path d="M68.0695 22.7793H64.8281V26.0207H68.0695V22.7793Z" fill="white"/>
<path d="M9.72574 26.0215H6.48438V29.2629H9.72574V26.0215Z" fill="white"/>
<path d="M12.964 26.0215H9.72266V29.2629H12.964V26.0215Z" fill="white"/>
<path d="M16.2062 26.0215H12.9648V29.2629H16.2062V26.0215Z" fill="white"/>
<path d="M22.6906 26.0215H19.4492V29.2629H22.6906V26.0215Z" fill="white"/>
<path d="M29.1711 26.0215H25.9297V29.2629H29.1711V26.0215Z" fill="white"/>
<path d="M35.6554 26.0215H32.4141V29.2629H35.6554V26.0215Z" fill="white"/>
<path d="M38.8976 26.0215H35.6562V29.2629H38.8976V26.0215Z" fill="white"/>
<path d="M42.1398 26.0215H38.8984V29.2629H42.1398V26.0215Z" fill="white"/>
<path d="M55.1046 26.0215H51.8633V29.2629H55.1046V26.0215Z" fill="white"/>
<path d="M61.5851 26.0215H58.3438V29.2629H61.5851V26.0215Z" fill="white"/>
<path d="M68.0695 26.0215H64.8281V29.2629H68.0695V26.0215Z" fill="white"/>
<path d="M71.3117 26.0215H68.0703V29.2629H71.3117V26.0215Z" fill="white"/>
<path d="M74.5539 26.0215H71.3125V29.2629H74.5539V26.0215Z" fill="white"/>
<path d="M77.7921 26.0215H74.5508V29.2629H77.7921V26.0215Z" fill="white"/>
<path d="M87.5148 26.0215H84.2734V29.2629H87.5148V26.0215Z" fill="white"/>
<path d="M90.757 26.0215H87.5156V29.2629H90.757V26.0215Z" fill="white"/>
<path d="M93.9992 26.0215H90.7578V29.2629H93.9992V26.0215Z" fill="white"/>
<path d="M3.24137 29.2617H0V32.5031H3.24137V29.2617Z" fill="white"/>
<path d="M6.48356 29.2617H3.24219V32.5031H6.48356V29.2617Z" fill="white"/>
<path d="M16.2062 29.2617H12.9648V32.5031H16.2062V29.2617Z" fill="white"/>
<path d="M29.1711 29.2617H25.9297V32.5031H29.1711V29.2617Z" fill="white"/>
<path d="M71.3117 29.2617H68.0703V32.5031H71.3117V29.2617Z" fill="white"/>
<path d="M74.5539 29.2617H71.3125V32.5031H74.5539V29.2617Z" fill="white"/>
<path d="M81.0343 29.2617H77.793V32.5031H81.0343V29.2617Z" fill="white"/>
<path d="M90.757 29.2617H87.5156V32.5031H90.757V29.2617Z" fill="white"/>
<path d="M93.9992 29.2617H90.7578V32.5031H93.9992V29.2617Z" fill="white"/>
<path d="M6.48356 32.502H3.24219V35.7433H6.48356V32.502Z" fill="white"/>
<path d="M12.964 32.502H9.72266V35.7433H12.964V32.502Z" fill="white"/>
<path d="M16.2062 32.502H12.9648V35.7433H16.2062V32.502Z" fill="white"/>
<path d="M19.4484 32.502H16.207V35.7433H19.4484V32.502Z" fill="white"/>
<path d="M22.6906 32.502H19.4492V35.7433H22.6906V32.502Z" fill="white"/>
<path d="M29.1711 32.502H25.9297V35.7433H29.1711V32.502Z" fill="white"/>
<path d="M68.0695 32.502H64.8281V35.7433H68.0695V32.502Z" fill="white"/>
<path d="M87.5148 32.502H84.2734V35.7433H87.5148V32.502Z" fill="white"/>
<path d="M9.72574 35.7461H6.48438V38.9875H9.72574V35.7461Z" fill="white"/>
<path d="M16.2062 35.7461H12.9648V38.9875H16.2062V35.7461Z" fill="white"/>
<path d="M19.4484 35.7461H16.207V38.9875H19.4484V35.7461Z" fill="white"/>
<path d="M29.1711 35.7461H25.9297V38.9875H29.1711V35.7461Z" fill="white"/>
<path d="M68.0695 35.7461H64.8281V38.9875H68.0695V35.7461Z" fill="white"/>
<path d="M74.5539 35.7461H71.3125V38.9875H74.5539V35.7461Z" fill="white"/>
<path d="M77.7921 35.7461H74.5508V38.9875H77.7921V35.7461Z" fill="white"/>
<path d="M81.0343 35.7461H77.793V38.9875H81.0343V35.7461Z" fill="white"/>
<path d="M84.2765 35.7461H81.0352V38.9875H84.2765V35.7461Z" fill="white"/>
<path d="M87.5148 35.7461H84.2734V38.9875H87.5148V35.7461Z" fill="white"/>
<path d="M3.24137 38.9863H0V42.2277H3.24137V38.9863Z" fill="white"/>
<path d="M6.48356 38.9863H3.24219V42.2277H6.48356V38.9863Z" fill="white"/>
<path d="M9.72574 38.9863H6.48438V42.2277H9.72574V38.9863Z" fill="white"/>
<path d="M19.4484 38.9863H16.207V42.2277H19.4484V38.9863Z" fill="white"/>
<path d="M22.6906 38.9863H19.4492V42.2277H22.6906V38.9863Z" fill="white"/>
<path d="M25.9289 38.9863H22.6875V42.2277H25.9289V38.9863Z" fill="white"/>
<path d="M68.0695 38.9863H64.8281V42.2277H68.0695V38.9863Z" fill="white"/>
<path d="M71.3117 38.9863H68.0703V42.2277H71.3117V38.9863Z" fill="white"/>
<path d="M81.0343 38.9863H77.793V42.2277H81.0343V38.9863Z" fill="white"/>
<path d="M87.5148 38.9863H84.2734V42.2277H87.5148V38.9863Z" fill="white"/>
<path d="M90.757 38.9863H87.5156V42.2277H90.757V38.9863Z" fill="white"/>
<path d="M16.2062 42.2266H12.9648V45.4679H16.2062V42.2266Z" fill="white"/>
<path d="M25.9289 42.2266H22.6875V45.4679H25.9289V42.2266Z" fill="white"/>
<path d="M29.1711 42.2266H25.9297V45.4679H29.1711V42.2266Z" fill="white"/>
<path d="M68.0695 42.2266H64.8281V45.4679H68.0695V42.2266Z" fill="white"/>
<path d="M74.5539 42.2266H71.3125V45.4679H74.5539V42.2266Z" fill="white"/>
<path d="M81.0343 42.2266H77.793V45.4679H81.0343V42.2266Z" fill="white"/>
<path d="M84.2765 42.2266H81.0352V45.4679H84.2765V42.2266Z" fill="white"/>
<path d="M93.9992 42.2266H90.7578V45.4679H93.9992V42.2266Z" fill="white"/>
<path d="M6.48356 45.4688H3.24219V48.7101H6.48356V45.4688Z" fill="white"/>
<path d="M12.964 45.4688H9.72266V48.7101H12.964V45.4688Z" fill="white"/>
<path d="M19.4484 45.4688H16.207V48.7101H19.4484V45.4688Z" fill="white"/>
<path d="M22.6906 45.4688H19.4492V48.7101H22.6906V45.4688Z" fill="white"/>
<path d="M25.9289 45.4688H22.6875V48.7101H25.9289V45.4688Z" fill="white"/>
<path d="M29.1711 45.4688H25.9297V48.7101H29.1711V45.4688Z" fill="white"/>
<path d="M77.7921 45.4688H74.5508V48.7101H77.7921V45.4688Z" fill="white"/>
<path d="M87.5148 45.4688H84.2734V48.7101H87.5148V45.4688Z" fill="white"/>
<path d="M93.9992 45.4688H90.7578V48.7101H93.9992V45.4688Z" fill="white"/>
<path d="M6.48356 48.7109H3.24219V51.9523H6.48356V48.7109Z" fill="white"/>
<path d="M9.72574 48.7109H6.48438V51.9523H9.72574V48.7109Z" fill="white"/>
<path d="M16.2062 48.7109H12.9648V51.9523H16.2062V48.7109Z" fill="white"/>
<path d="M19.4484 48.7109H16.207V51.9523H19.4484V48.7109Z" fill="white"/>
<path d="M25.9289 48.7109H22.6875V51.9523H25.9289V48.7109Z" fill="white"/>
<path d="M71.3117 48.7109H68.0703V51.9523H71.3117V48.7109Z" fill="white"/>
<path d="M74.5539 48.7109H71.3125V51.9523H74.5539V48.7109Z" fill="white"/>
<path d="M77.7921 48.7109H74.5508V51.9523H77.7921V48.7109Z" fill="white"/>
<path d="M81.0343 48.7109H77.793V51.9523H81.0343V48.7109Z" fill="white"/>
<path d="M87.5148 48.7109H84.2734V51.9523H87.5148V48.7109Z" fill="white"/>
<path d="M90.757 48.7109H87.5156V51.9523H90.757V48.7109Z" fill="white"/>
<path d="M93.9992 48.7109H90.7578V51.9523H93.9992V48.7109Z" fill="white"/>
<path d="M12.964 51.9512H9.72266V55.1926H12.964V51.9512Z" fill="white"/>
<path d="M16.2062 51.9512H12.9648V55.1926H16.2062V51.9512Z" fill="white"/>
<path d="M22.6906 51.9512H19.4492V55.1926H22.6906V51.9512Z" fill="white"/>
<path d="M25.9289 51.9512H22.6875V55.1926H25.9289V51.9512Z" fill="white"/>
<path d="M29.1711 51.9512H25.9297V55.1926H29.1711V51.9512Z" fill="white"/>
<path d="M77.7921 51.9512H74.5508V55.1926H77.7921V51.9512Z" fill="white"/>
<path d="M3.24137 55.1934H0V58.4347H3.24137V55.1934Z" fill="white"/>
<path d="M9.72574 55.1934H6.48438V58.4347H9.72574V55.1934Z" fill="white"/>
<path d="M12.964 55.1934H9.72266V58.4347H12.964V55.1934Z" fill="white"/>
<path d="M29.1711 55.1934H25.9297V58.4347H29.1711V55.1934Z" fill="white"/>
<path d="M74.5539 55.1934H71.3125V58.4347H74.5539V55.1934Z" fill="white"/>
<path d="M77.7921 55.1934H74.5508V58.4347H77.7921V55.1934Z" fill="white"/>
<path d="M84.2765 55.1934H81.0352V58.4347H84.2765V55.1934Z" fill="white"/>
<path d="M90.757 55.1934H87.5156V58.4347H90.757V55.1934Z" fill="white"/>
<path d="M3.24137 58.4336H0V61.675H3.24137V58.4336Z" fill="white"/>
<path d="M9.72574 58.4336H6.48438V61.675H9.72574V58.4336Z" fill="white"/>
<path d="M16.2062 58.4336H12.9648V61.675H16.2062V58.4336Z" fill="white"/>
<path d="M22.6906 58.4336H19.4492V61.675H22.6906V58.4336Z" fill="white"/>
<path d="M29.1711 58.4336H25.9297V61.675H29.1711V58.4336Z" fill="white"/>
<path d="M68.0695 58.4336H64.8281V61.675H68.0695V58.4336Z" fill="white"/>
<path d="M71.3117 58.4336H68.0703V61.675H71.3117V58.4336Z" fill="white"/>
<path d="M87.5148 58.4336H84.2734V61.675H87.5148V58.4336Z" fill="white"/>
<path d="M3.24137 61.6758H0V64.9172H3.24137V61.6758Z" fill="white"/>
<path d="M9.72574 61.6758H6.48438V64.9172H9.72574V61.6758Z" fill="white"/>
<path d="M12.964 61.6758H9.72266V64.9172H12.964V61.6758Z" fill="white"/>
<path d="M19.4484 61.6758H16.207V64.9172H19.4484V61.6758Z" fill="white"/>
<path d="M25.9289 61.6758H22.6875V64.9172H25.9289V61.6758Z" fill="white"/>
<path d="M29.1711 61.6758H25.9297V64.9172H29.1711V61.6758Z" fill="white"/>
<path d="M68.0695 61.6758H64.8281V64.9172H68.0695V61.6758Z" fill="white"/>
<path d="M74.5539 61.6758H71.3125V64.9172H74.5539V61.6758Z" fill="white"/>
<path d="M81.0343 61.6758H77.793V64.9172H81.0343V61.6758Z" fill="white"/>
<path d="M84.2765 61.6758H81.0352V64.9172H84.2765V61.6758Z" fill="white"/>
<path d="M90.757 61.6758H87.5156V64.9172H90.757V61.6758Z" fill="white"/>
<path d="M93.9992 61.6758H90.7578V64.9172H93.9992V61.6758Z" fill="white"/>
<path d="M3.24137 64.918H0V68.1594H3.24137V64.918Z" fill="white"/>
<path d="M9.72574 64.918H6.48438V68.1594H9.72574V64.918Z" fill="white"/>
<path d="M12.964 64.918H9.72266V68.1594H12.964V64.918Z" fill="white"/>
<path d="M22.6906 64.918H19.4492V68.1594H22.6906V64.918Z" fill="white"/>
<path d="M25.9289 64.918H22.6875V68.1594H25.9289V64.918Z" fill="white"/>
<path d="M42.1398 64.918H38.8984V68.1594H42.1398V64.918Z" fill="white"/>
<path d="M45.3781 64.918H42.1367V68.1594H45.3781V64.918Z" fill="white"/>
<path d="M51.8625 64.918H48.6211V68.1594H51.8625V64.918Z" fill="white"/>
<path d="M61.5851 64.918H58.3438V68.1594H61.5851V64.918Z" fill="white"/>
<path d="M68.0695 64.918H64.8281V68.1594H68.0695V64.918Z" fill="white"/>
<path d="M71.3117 64.918H68.0703V68.1594H71.3117V64.918Z" fill="white"/>
<path d="M74.55 64.918H71.3086V68.1594H74.55V64.918Z" fill="white"/>
<path d="M77.7921 64.918H74.5508V68.1594H77.7921V64.918Z" fill="white"/>
<path d="M81.0343 64.918H77.793V68.1594H81.0343V64.918Z" fill="white"/>
<path d="M90.757 64.918H87.5156V68.1594H90.757V64.918Z" fill="white"/>
<path d="M93.9992 64.918H90.7578V68.1594H93.9992V64.918Z" fill="white"/>
<path d="M29.1711 68.1582H25.9297V71.3996H29.1711V68.1582Z" fill="white"/>
<path d="M32.4132 68.1582H29.1719V71.3996H32.4132V68.1582Z" fill="white"/>
<path d="M42.1398 68.1582H38.8984V71.3996H42.1398V68.1582Z" fill="white"/>
<path d="M45.3781 68.1582H42.1367V71.3996H45.3781V68.1582Z" fill="white"/>
<path d="M48.6203 68.1582H45.3789V71.3996H48.6203V68.1582Z" fill="white"/>
<path d="M51.8625 68.1582H48.6211V71.3996H51.8625V68.1582Z" fill="white"/>
<path d="M55.1046 68.1582H51.8633V71.3996H55.1046V68.1582Z" fill="white"/>
<path d="M58.3429 68.1582H55.1016V71.3996H58.3429V68.1582Z" fill="white"/>
<path d="M61.5851 68.1582H58.3438V71.3996H61.5851V68.1582Z" fill="white"/>
<path d="M64.8273 68.1582H61.5859V71.3996H64.8273V68.1582Z" fill="white"/>
<path d="M68.0695 68.1582H64.8281V71.3996H68.0695V68.1582Z" fill="white"/>
<path d="M81.0343 68.1582H77.793V71.3996H81.0343V68.1582Z" fill="white"/>
<path d="M84.2765 68.1582H81.0352V71.3996H84.2765V68.1582Z" fill="white"/>
<path d="M93.9992 68.1582H90.7578V71.3996H93.9992V68.1582Z" fill="white"/>
<path d="M32.4132 71.3984H29.1719V74.6398H32.4132V71.3984Z" fill="white"/>
<path d="M45.3781 71.3984H42.1367V74.6398H45.3781V71.3984Z" fill="white"/>
<path d="M58.3429 71.3984H55.1016V74.6398H58.3429V71.3984Z" fill="white"/>
<path d="M64.8273 71.3984H61.5859V74.6398H64.8273V71.3984Z" fill="white"/>
<path d="M68.0695 71.3984H64.8281V74.6398H68.0695V71.3984Z" fill="white"/>
<path d="M74.5539 71.3984H71.3125V74.6398H74.5539V71.3984Z" fill="white"/>
<path d="M81.0343 71.3984H77.793V74.6398H81.0343V71.3984Z" fill="white"/>
<path d="M84.2765 71.3984H81.0352V74.6398H84.2765V71.3984Z" fill="white"/>
<path d="M87.5148 71.3984H84.2734V74.6398H87.5148V71.3984Z" fill="white"/>
<path d="M90.757 71.3984H87.5156V74.6398H90.757V71.3984Z" fill="white"/>
<path d="M32.4132 74.6406H29.1719V77.882H32.4132V74.6406Z" fill="white"/>
<path d="M35.6554 74.6406H32.4141V77.882H35.6554V74.6406Z" fill="white"/>
<path d="M45.3781 74.6406H42.1367V77.882H45.3781V74.6406Z" fill="white"/>
<path d="M64.8273 74.6406H61.5859V77.882H64.8273V74.6406Z" fill="white"/>
<path d="M68.0695 74.6406H64.8281V77.882H68.0695V74.6406Z" fill="white"/>
<path d="M81.0343 74.6406H77.793V77.882H81.0343V74.6406Z" fill="white"/>
<path d="M84.2765 74.6406H81.0352V77.882H84.2765V74.6406Z" fill="white"/>
<path d="M90.757 74.6406H87.5156V77.882H90.757V74.6406Z" fill="white"/>
<path d="M93.9992 74.6406H90.7578V77.882H93.9992V74.6406Z" fill="white"/>
<path d="M29.1711 77.8828H25.9297V81.1242H29.1711V77.8828Z" fill="white"/>
<path d="M35.6554 77.8828H32.4141V81.1242H35.6554V77.8828Z" fill="white"/>
<path d="M38.8976 77.8828H35.6562V81.1242H38.8976V77.8828Z" fill="white"/>
<path d="M51.8625 77.8828H48.6211V81.1242H51.8625V77.8828Z" fill="white"/>
<path d="M55.1046 77.8828H51.8633V81.1242H55.1046V77.8828Z" fill="white"/>
<path d="M58.3429 77.8828H55.1016V81.1242H58.3429V77.8828Z" fill="white"/>
<path d="M61.5851 77.8828H58.3438V81.1242H61.5851V77.8828Z" fill="white"/>
<path d="M64.8273 77.8828H61.5859V81.1242H64.8273V77.8828Z" fill="white"/>
<path d="M68.0695 77.8828H64.8281V81.1242H68.0695V77.8828Z" fill="white"/>
<path d="M71.3117 77.8828H68.0703V81.1242H71.3117V77.8828Z" fill="white"/>
<path d="M74.55 77.8828H71.3086V81.1242H74.55V77.8828Z" fill="white"/>
<path d="M77.7921 77.8828H74.5508V81.1242H77.7921V77.8828Z" fill="white"/>
<path d="M81.0343 77.8828H77.793V81.1242H81.0343V77.8828Z" fill="white"/>
<path d="M29.1711 81.125H25.9297V84.3664H29.1711V81.125Z" fill="white"/>
<path d="M32.4132 81.125H29.1719V84.3664H32.4132V81.125Z" fill="white"/>
<path d="M35.6554 81.125H32.4141V84.3664H35.6554V81.125Z" fill="white"/>
<path d="M42.1398 81.125H38.8984V84.3664H42.1398V81.125Z" fill="white"/>
<path d="M45.3781 81.125H42.1367V84.3664H45.3781V81.125Z" fill="white"/>
<path d="M51.8625 81.125H48.6211V84.3664H51.8625V81.125Z" fill="white"/>
<path d="M58.3429 81.125H55.1016V84.3664H58.3429V81.125Z" fill="white"/>
<path d="M61.5851 81.125H58.3438V84.3664H61.5851V81.125Z" fill="white"/>
<path d="M68.0695 81.125H64.8281V84.3664H68.0695V81.125Z" fill="white"/>
<path d="M71.3117 81.125H68.0703V84.3664H71.3117V81.125Z" fill="white"/>
<path d="M74.5539 81.125H71.3125V84.3664H74.5539V81.125Z" fill="white"/>
<path d="M81.0343 81.125H77.793V84.3664H81.0343V81.125Z" fill="white"/>
<path d="M84.2765 81.125H81.0352V84.3664H84.2765V81.125Z" fill="white"/>
<path d="M29.1711 84.3652H25.9297V87.6066H29.1711V84.3652Z" fill="white"/>
<path d="M32.4132 84.3652H29.1719V87.6066H32.4132V84.3652Z" fill="white"/>
<path d="M42.1398 84.3652H38.8984V87.6066H42.1398V84.3652Z" fill="white"/>
<path d="M45.3781 84.3652H42.1367V87.6066H45.3781V84.3652Z" fill="white"/>
<path d="M48.6203 84.3652H45.3789V87.6066H48.6203V84.3652Z" fill="white"/>
<path d="M58.3429 84.3652H55.1016V87.6066H58.3429V84.3652Z" fill="white"/>
<path d="M61.5851 84.3652H58.3438V87.6066H61.5851V84.3652Z" fill="white"/>
<path d="M71.3117 84.3652H68.0703V87.6066H71.3117V84.3652Z" fill="white"/>
<path d="M74.5539 84.3652H71.3125V87.6066H74.5539V84.3652Z" fill="white"/>
<path d="M77.7921 84.3652H74.5508V87.6066H77.7921V84.3652Z" fill="white"/>
<path d="M81.0343 84.3652H77.793V87.6066H81.0343V84.3652Z" fill="white"/>
<path d="M87.5148 84.3652H84.2734V87.6066H87.5148V84.3652Z" fill="white"/>
<path d="M90.757 84.3652H87.5156V87.6066H90.757V84.3652Z" fill="white"/>
<path d="M32.4132 87.6055H29.1719V90.8469H32.4132V87.6055Z" fill="white"/>
<path d="M48.6203 87.6055H45.3789V90.8469H48.6203V87.6055Z" fill="white"/>
<path d="M55.1046 87.6055H51.8633V90.8469H55.1046V87.6055Z" fill="white"/>
<path d="M58.3429 87.6055H55.1016V90.8469H58.3429V87.6055Z" fill="white"/>
<path d="M61.5851 87.6055H58.3438V90.8469H61.5851V87.6055Z" fill="white"/>
<path d="M64.8273 87.6055H61.5859V90.8469H64.8273V87.6055Z" fill="white"/>
<path d="M71.3117 87.6055H68.0703V90.8469H71.3117V87.6055Z" fill="white"/>
<path d="M77.7921 87.6055H74.5508V90.8469H77.7921V87.6055Z" fill="white"/>
<path d="M84.2765 87.6055H81.0352V90.8469H84.2765V87.6055Z" fill="white"/>
<path d="M93.9992 87.6055H90.7578V90.8469H93.9992V87.6055Z" fill="white"/>
<path d="M35.6554 90.8496H32.4141V94.091H35.6554V90.8496Z" fill="white"/>
<path d="M48.6203 90.8496H45.3789V94.091H48.6203V90.8496Z" fill="white"/>
<path d="M58.3429 90.8496H55.1016V94.091H58.3429V90.8496Z" fill="white"/>
<path d="M61.5851 90.8496H58.3438V94.091H61.5851V90.8496Z" fill="white"/>
<path d="M74.5539 90.8496H71.3125V94.091H74.5539V90.8496Z" fill="white"/>
<path d="M77.7921 90.8496H74.5508V94.091H77.7921V90.8496Z" fill="white"/>
<path d="M81.0343 90.8496H77.793V94.091H81.0343V90.8496Z" fill="white"/>
<path d="M84.2765 90.8496H81.0352V94.091H84.2765V90.8496Z" fill="white"/>
<g clip-path="url(#clip0_16023_4338)">
<path d="M0.686505 0.0859375C0.307265 0.0859375 -0.00390625 0.397111 -0.00390625 0.776353V3.33057V6.57195V9.81334V13.0547V16.2961V19.5375V22.0917C-0.00390625 22.471 0.304024 22.7821 0.686505 22.7821H22.0017C22.381 22.7821 22.6922 22.4742 22.6922 22.0917V19.5375V16.2961V13.0547V9.81334V6.57195V3.33057V0.776353C22.6922 0.397111 22.3842 0.0859375 22.0017 0.0859375H0.686505ZM19.4475 6.57195V9.81334V13.0547V16.2961V19.1421C19.4475 19.3625 19.2693 19.5375 19.0521 19.5375H3.63615C3.41574 19.5375 3.2407 19.3592 3.2407 19.1421V16.2961V13.0547V9.81334V6.57195V3.72602C3.2407 3.5056 3.41898 3.33057 3.63615 3.33057H19.0521C19.2725 3.33057 19.4475 3.50884 19.4475 3.72602V6.57195Z" fill="white"/>
</g>
<path d="M16.2078 13.0544V9.81299V7.25877C16.2078 6.87953 15.8999 6.56836 15.5174 6.56836H7.17088C6.79164 6.56836 6.48047 6.87629 6.48047 7.25877V9.81299V13.0544V15.6086C6.48047 15.9878 6.7884 16.299 7.17088 16.299H15.5174C15.8966 16.299 16.2078 15.9911 16.2078 15.6086V13.0544Z" fill="white"/>
<g clip-path="url(#clip1_16023_4338)">
<path d="M71.9951 0.0859375C71.6159 0.0859375 71.3047 0.397111 71.3047 0.776353V3.33057V6.57195V9.81334V13.0547V16.2961V19.5375V22.0917C71.3047 22.471 71.6126 22.7821 71.9951 22.7821H93.3103C93.6896 22.7821 94.0007 22.4742 94.0007 22.0917V19.5375V16.2961V13.0547V9.81334V6.57195V3.33057V0.776353C94.0007 0.397111 93.6928 0.0859375 93.3103 0.0859375H71.9951ZM90.7561 6.57195V9.81334V13.0547V16.2961V19.1421C90.7561 19.3625 90.5779 19.5375 90.3607 19.5375H74.9447C74.7243 19.5375 74.5493 19.3592 74.5493 19.1421V16.2961V13.0547V9.81334V6.57195V3.72602C74.5493 3.5056 74.7276 3.33057 74.9447 3.33057H90.3607C90.5811 3.33057 90.7561 3.50884 90.7561 3.72602V6.57195Z" fill="white"/>
</g>
<path d="M87.5164 13.0544V9.81299V7.25877C87.5164 6.87953 87.2085 6.56836 86.826 6.56836H78.4795C78.1002 6.56836 77.7891 6.87629 77.7891 7.25877V9.81299V13.0544V15.6086C77.7891 15.9878 78.097 16.299 78.4795 16.299H86.826C87.2052 16.299 87.5164 15.9911 87.5164 15.6086V13.0544Z" fill="white"/>
<g clip-path="url(#clip2_16023_4338)">
<path d="M0.686505 71.3945C0.307265 71.3945 -0.00390625 71.7057 -0.00390625 72.0849V74.6392V77.8805V81.1219V84.3633V87.6047V90.8461V93.4003C-0.00390625 93.7796 0.304024 94.0907 0.686505 94.0907H22.0017C22.381 94.0907 22.6922 93.7828 22.6922 93.4003V90.8461V87.6047V84.3633V81.1219V77.8805V74.6392V72.0849C22.6922 71.7057 22.3842 71.3945 22.0017 71.3945H0.686505ZM19.4475 77.8805V81.1219V84.3633V87.6047V90.4506C19.4475 90.6711 19.2693 90.8461 19.0521 90.8461H3.63615C3.41574 90.8461 3.2407 90.6678 3.2407 90.4506V87.6047V84.3633V81.1219V77.8805V75.0346C3.2407 74.8142 3.41898 74.6392 3.63615 74.6392H19.0521C19.2725 74.6392 19.4475 74.8174 19.4475 75.0346V77.8805Z" fill="white"/>
</g>
<path d="M16.2078 84.363V81.1216V78.5674C16.2078 78.1881 15.8999 77.877 15.5174 77.877H7.17088C6.79164 77.877 6.48047 78.1849 6.48047 78.5674V81.1216V84.363V86.9172C6.48047 87.2964 6.7884 87.6076 7.17088 87.6076H15.5174C15.8966 87.6076 16.2078 87.2997 16.2078 86.9172V84.363Z" fill="white"/>
<rect width="14" height="14" transform="translate(40 40.0898)" fill="white"/>
<defs>
<clipPath id="clip0_16023_4338">
<rect width="22.6896" height="22.6897" fill="white" transform="translate(0 0.0898438)"/>
</clipPath>
<clipPath id="clip1_16023_4338">
<rect width="22.6896" height="22.6897" fill="white" transform="translate(71.3086 0.0898438)"/>
</clipPath>
<clipPath id="clip2_16023_4338">
<rect width="22.6896" height="22.6897" fill="white" transform="translate(0 71.3984)"/>
</clipPath>
</defs>
</svg>
