<svg width="48" height="48" viewBox="0 0 48 48" fill="none" xmlns="http://www.w3.org/2000/svg">
<path d="M7.5 1.5V6.75C7.5 7.16437 7.16437 7.5 6.75 7.5H1.5V46.5H31.8984C30.9909 46.095 30.0591 45.6188 29.1319 45.0834C26.9147 43.8038 24.9741 42.3309 23.6681 40.9359C22.605 39.8016 21.4875 38.1891 22.2019 36.9534L25.0275 32.0588C25.7409 30.8222 27.6956 30.9834 29.2097 31.3369C29.7722 31.4681 30.3694 31.6462 30.9909 31.8656C31.7231 31.4878 33.8616 30.2484 35.1103 28.0856C35.4731 27.4566 35.7647 26.8031 36 26.1637V1.5H7.5ZM18.9263 6.01406C23.4328 6.01406 27.0994 9.67969 27.0994 14.1863C27.0994 18.6928 23.4328 22.3584 18.9263 22.3584C14.4197 22.3584 10.7541 18.6928 10.7541 14.1863C10.7541 9.67969 14.4206 6.01406 18.9263 6.01406ZM20.3719 42.3206H5.45813C5.04375 42.3206 4.70813 41.985 4.70813 41.5706C4.70813 41.1562 5.04375 40.8206 5.45813 40.8206H20.3719C20.7863 40.8206 21.1219 41.1572 21.1219 41.5706C21.1219 41.9841 20.7863 42.3206 20.3719 42.3206ZM4.70813 36.4538C4.70813 36.0394 5.04375 35.7038 5.45813 35.7038H18.9263C19.3406 35.7038 19.6763 36.0394 19.6763 36.4538C19.6763 36.8681 19.3406 37.2038 18.9263 37.2038H5.45813C5.04375 37.2038 4.70813 36.8681 4.70813 36.4538ZM21.2831 32.2556H5.45813C5.04375 32.2556 4.70813 31.9191 4.70813 31.5056C4.70813 31.0922 5.04375 30.7556 5.45813 30.7556H21.2831C21.6966 30.7556 22.0331 31.0912 22.0331 31.5056C22.0331 31.92 21.6966 32.2556 21.2831 32.2556ZM32.3944 27.3066H5.45813C5.04375 27.3066 4.70813 26.9709 4.70813 26.5566C4.70813 26.1422 5.04375 25.8066 5.45813 25.8066H32.3944C32.8088 25.8066 33.1444 26.1431 33.1444 26.5566C33.1444 26.97 32.8088 27.3066 32.3944 27.3066Z" fill="#E32934"/>
<path d="M45.9595 24.0394C45.6502 24.5766 45.2348 25.0219 44.7258 25.365C44.4942 25.5131 41.4492 27.495 39.6089 30.6825C38.572 32.4787 38.2683 34.4044 38.1989 35.7225C37.3795 35.1253 36.4823 34.5422 35.5336 33.9947C34.6017 33.4566 33.6652 32.9794 32.7539 32.5734C33.8602 31.8525 35.3733 30.6281 36.4083 28.8356C38.2495 25.6472 38.4436 22.0191 38.4558 21.7462C38.498 21.1331 38.6761 20.55 38.9864 20.0137C39.5236 19.0819 40.3917 18.4153 41.4314 18.1369C42.4702 17.8584 43.5548 18.0019 44.4867 18.54C46.4086 19.65 47.0705 22.1166 45.9595 24.0394Z" fill="#E32934"/>
<path d="M38.3385 46.2702C38.2888 46.3555 38.0272 46.5008 37.4085 46.5008C37.0222 46.5008 36.4963 46.4436 35.796 46.2805C34.0747 45.8792 31.9738 44.9933 29.8813 43.7848C27.7878 42.5764 25.97 41.2002 24.7616 39.9102C23.481 38.5433 23.42 37.8411 23.4997 37.7033C23.5494 37.618 23.81 37.4727 24.4297 37.4727C24.816 37.4727 25.3419 37.5289 26.0422 37.692C27.7635 38.0933 29.8644 38.9802 31.9569 40.1886C34.0503 41.397 35.8681 42.7733 37.0766 44.0623C38.3563 45.4292 38.4181 46.1314 38.3385 46.2702Z" fill="#E32934"/>
<path d="M41.1639 41.3754L39.3339 44.5442C39.0142 44.0032 38.5886 43.4829 38.1705 43.0376C36.8645 41.6426 34.9239 40.1698 32.7067 38.8892C30.4895 37.6095 28.2433 36.6654 26.3833 36.2314C25.788 36.0926 25.1252 35.9839 24.4961 35.9773L26.3261 32.8086C26.4058 32.6698 27.0433 32.3717 28.8686 32.7973C30.5889 33.1986 32.6898 34.0854 34.7833 35.2939C36.8758 36.5023 38.6945 37.8776 39.902 39.1676C41.1827 40.5354 41.2436 41.2367 41.1639 41.3754Z" fill="#E32934"/>
<path d="M18.9261 7.51367C15.2473 7.51367 12.2539 10.5071 12.2539 14.1859C12.2539 17.8646 15.2473 20.858 18.9261 20.858C22.6048 20.858 25.5992 17.8646 25.5992 14.1859C25.5992 10.5071 22.6058 7.51367 18.9261 7.51367ZM22.9498 13.0562L18.7039 17.9818C18.5558 18.1524 18.3467 18.2424 18.1358 18.2424C17.9858 18.2424 17.8348 18.1974 17.7036 18.1046L15.3486 16.4452C15.0102 16.2062 14.9295 15.7384 15.1677 15.3999C15.4067 15.0615 15.8745 14.9799 16.213 15.219L18.012 16.4874L21.8145 12.0765C22.0845 11.7634 22.558 11.7287 22.872 11.9987C23.1861 12.2696 23.2208 12.743 22.9498 13.0562Z" fill="#E32934"/>
<path d="M5.99828 2.56055V6.00023H2.55859L5.99828 2.56055Z" fill="#E32934"/>
</svg>
