<svg width="48" height="48" viewBox="0 0 48 48" fill="none" xmlns="http://www.w3.org/2000/svg">
<path d="M13.1058 8.35742V18.8753H8.10156V10.1312C8.10156 9.1572 8.90137 8.35743 9.87988 8.35743L13.1058 8.35742Z" fill="#E32934"/>
<path d="M43.7211 10.9804H37.211C36.4847 10.9804 35.8984 10.3941 35.8984 9.66783V3.15771C36.0866 3.24522 36.2616 3.36336 36.4103 3.51209L43.3667 10.4685C43.5154 10.6172 43.6336 10.7922 43.7211 10.9804Z" fill="#E32934"/>
<path d="M19.1505 11.932H31.3371C31.4589 11.932 31.5579 11.833 31.5579 11.7114V7.65633C31.5579 7.53459 31.4589 7.43555 31.3371 7.43555H19.1505C19.0287 7.43555 18.9297 7.53459 18.9297 7.65633V11.7114C18.9297 11.833 19.0287 11.932 19.1505 11.932ZM22.5792 8.58201H25.3923C25.639 8.58201 25.8391 8.78207 25.8391 9.02883C25.8391 9.27556 25.639 9.47565 25.3923 9.47565H22.5792C22.3324 9.47565 22.1324 9.27556 22.1324 9.02883C22.1324 8.78207 22.3324 8.58201 22.5792 8.58201ZM20.6866 8.58201H20.9277C21.1744 8.58201 21.3745 8.78207 21.3745 9.02883C21.3745 9.27556 21.1744 9.47565 20.9277 9.47565H20.6866C20.4398 9.47565 20.2398 9.27556 20.2398 9.02883C20.2398 8.78207 20.4398 8.58201 20.6866 8.58201Z" fill="#E32934"/>
<path d="M37.2117 11.8736C35.9919 11.8736 35.0045 10.8862 35.0045 9.66638V3H16.0777C14.9294 3 14 3.92934 14 5.07764V18.9823C14.5674 19.1476 15.0723 19.4962 15.4208 19.9921L17.914 23.504H37.6406C39.1017 23.504 40.2902 24.6925 40.2902 26.1536V37.7081H41.8004C42.9487 37.7081 43.8781 36.7787 43.8781 35.6304V11.8736H37.2117ZM18.0337 7.65648C18.0337 7.04191 18.5335 6.54208 19.1481 6.54208H31.3347C31.9491 6.54208 32.4491 7.04191 32.4491 7.65648V11.7116C32.4491 12.3259 31.9491 12.8258 31.3347 12.8258H19.1481C18.5335 12.8258 18.0337 12.3259 18.0337 11.7116V7.65648ZM39.3987 21.7379H18.48C18.2333 21.7379 18.0332 21.5379 18.0332 21.2911C18.0332 21.0444 18.2333 20.8443 18.48 20.8443H39.3987C39.6456 20.8443 39.8455 21.0444 39.8455 21.2911C39.8455 21.5379 39.6456 21.7379 39.3987 21.7379ZM39.3987 19.1288H18.48C18.2333 19.1288 18.0332 18.9288 18.0332 18.682C18.0332 18.4353 18.2333 18.2352 18.48 18.2352H39.3987C39.6456 18.2352 39.8455 18.4353 39.8455 18.682C39.8455 18.9288 39.6456 19.1288 39.3987 19.1288ZM39.3987 16.5198H18.4805C18.2337 16.5198 18.0337 16.3197 18.0337 16.073C18.0337 15.8262 18.2337 15.6262 18.4805 15.6262H39.3987C39.6456 15.6262 39.8455 15.8262 39.8455 16.073C39.8455 16.3197 39.6456 16.5198 39.3987 16.5198Z" fill="#E32934"/>
<path d="M32.5552 30.4824H10.96C10.6245 30.4824 10.3516 30.7554 10.3516 31.0909V39.0361C10.3516 39.3715 10.6245 39.6444 10.96 39.6444H32.5552C32.8907 39.6444 33.1639 39.3715 33.1639 39.0361V31.0909C33.1639 30.7554 32.8907 30.4824 32.5552 30.4824ZM13.2648 32.9377H13.0235C12.7767 32.9377 12.5767 32.7376 12.5767 32.4909C12.5767 32.2441 12.7767 32.0441 13.0235 32.0441H13.2648C13.5115 32.0441 13.7116 32.2441 13.7116 32.4909C13.7116 32.7376 13.5115 32.9377 13.2648 32.9377ZM17.8875 32.9377H14.7577C14.5109 32.9377 14.3109 32.7376 14.3109 32.4909C14.3109 32.2441 14.5109 32.0441 14.7577 32.0441H17.8875C18.1343 32.0441 18.3343 32.2441 18.3343 32.4909C18.3343 32.7376 18.1343 32.9377 17.8875 32.9377Z" fill="#E32934"/>
<path d="M37.6429 24.3979H17.4505L14.6912 20.5071C14.362 20.0429 13.8282 19.7671 13.2592 19.7671H5.87662C4.90706 19.7671 4.12109 20.5531 4.12109 21.5226V43.2445C4.12109 44.2141 4.90707 45 5.87662 45H37.6429C38.6125 45 39.3985 44.2141 39.3985 43.2445V26.1535C39.3985 25.1839 38.6125 24.3979 37.6429 24.3979ZM34.0596 39.0361C34.0596 39.8642 33.3855 40.5379 32.5573 40.5379H10.9621C10.134 40.5379 9.46004 39.8642 9.46004 39.0361V31.0908C9.46004 30.2627 10.134 29.5887 10.9621 29.5887H32.5573C33.3855 29.5887 34.0596 30.2627 34.0596 31.0908L34.0596 39.0361Z" fill="#E32934"/>
</svg>
