<svg width="48" height="48" viewBox="0 0 48 48" fill="none" xmlns="http://www.w3.org/2000/svg">
<g clip-path="url(#clip0_5_21308)">
<path fill-rule="evenodd" clip-rule="evenodd" d="M10.1523 6.42969H35.4817C37.8614 6.42969 39.8083 8.37663 39.8083 10.7562V43.6737C39.8083 46.0533 37.8613 48.0002 35.4817 48.0002H10.1523C9.07605 48.0002 8.19531 47.1196 8.19531 46.0432V8.38671C8.19531 7.31031 9.07594 6.42969 10.1523 6.42969ZM26.6785 18.319C28.6506 18.9116 30.3465 20.1421 31.5266 21.7709H28.7181C28.533 21.2362 28.3215 20.7375 28.0873 20.2817C27.6837 19.4968 27.2089 18.8325 26.6785 18.319ZM27.0144 21.7709H24.8018V18.9158C25.4963 19.2445 26.1406 19.9863 26.6684 21.0131C26.7911 21.2518 26.9066 21.505 27.0144 21.7709ZM23.2018 21.7709H20.9892C21.0971 21.505 21.2126 21.2518 21.3353 21.0131C21.8631 19.9863 22.5073 19.2445 23.2018 18.9158V21.7709ZM19.2856 21.7709H16.477C17.6572 20.1421 19.3531 18.9116 21.3252 18.319C20.7948 18.8325 20.32 19.4968 19.9164 20.2817C19.6822 20.7375 19.4707 21.2362 19.2856 21.7709ZM32.4581 23.3711C32.8866 24.3122 33.1631 25.3372 33.255 26.4149H29.5592C29.5139 25.3446 29.3787 24.3206 29.168 23.3711H32.4581ZM27.9579 26.4149H24.8018V23.3711H27.5284C27.7592 24.3019 27.9086 25.3283 27.9579 26.4149ZM23.2018 26.4149H20.0457C20.0951 25.3283 20.2445 24.3019 20.4752 23.3711H23.2018V26.4149ZM18.4445 26.4149H14.7487C14.8406 25.3372 15.1171 24.3122 15.5456 23.3711H18.8357C18.625 24.3206 18.4898 25.3446 18.4445 26.4149ZM33.2556 28.015C33.1636 29.0926 32.8876 30.1177 32.4592 31.0587H29.168C29.3787 30.1092 29.5139 29.0852 29.5592 28.015H33.2556ZM27.5284 31.0587H24.8018V28.015H27.9579C27.9086 29.1015 27.7592 30.128 27.5284 31.0587ZM23.2018 31.0587H20.4752C20.2445 30.128 20.0951 29.1015 20.0457 28.015H23.2018V31.0587ZM18.8357 31.0587H15.5445C15.1161 30.1177 14.84 29.0926 14.748 28.015H18.4445C18.4898 29.0852 18.625 30.1092 18.8357 31.0587ZM31.5271 32.6589C30.3467 34.2877 28.6507 35.5182 26.6785 36.111C27.209 35.5974 27.6838 34.9331 28.0873 34.1481C28.3215 33.6924 28.533 33.1936 28.7181 32.6589H31.5271ZM21.3252 36.111C19.353 35.5182 17.657 34.2877 16.4766 32.6589H19.2856C19.4707 33.1936 19.6822 33.6924 19.9164 34.1481C20.3199 34.9331 20.7947 35.5974 21.3252 36.111ZM20.9892 32.6589H23.2018V35.514C22.5073 35.1855 21.8631 34.4435 21.3353 33.4167C21.2126 33.178 21.097 32.925 20.9892 32.6589ZM24.8018 32.6589H27.0144C26.9067 32.925 26.7911 33.178 26.6684 33.4167C26.1406 34.4435 25.4963 35.1855 24.8018 35.514V32.6589ZM17.6621 13.0928H30.3416V14.1595H17.6621V13.0928ZM13.9034 9.62897H34.1003V10.6957H13.9034V9.62897ZM13.9034 43.7341H34.1003V44.8009H13.9034V43.7341ZM17.6621 40.2703H30.3416V41.337H17.6621V40.2703Z" fill="#E32934"/>
<path fill-rule="evenodd" clip-rule="evenodd" d="M12.1445 5.36276L31.7725 0.103369C33.6547 -0.40089 35.4835 1.00238 35.4835 2.95087V5.36276H12.1445Z" fill="#E32934"/>
</g>
<defs>
<clipPath id="clip0_5_21308">
<rect width="48" height="48" fill="white"/>
</clipPath>
</defs>
</svg>
