<svg width="48" height="48" viewBox="0 0 48 48" fill="none" xmlns="http://www.w3.org/2000/svg">
<path d="M18.2211 32.0303L12.2211 26.0303C12.0805 25.8896 12.0015 25.6989 12.0015 25.5C12.0015 25.3011 12.0805 25.1104 12.2211 24.9697L13.9408 23.25L11.3158 20.625L10.1263 22.1077C9.3368 23.0935 8.93852 24.3357 9.00771 25.5968C9.0769 26.8578 9.60869 28.0491 10.5013 28.9425L15.4378 33.879C16.3159 34.7569 17.5067 35.25 18.7483 35.25C19.9899 35.25 21.1807 34.7569 22.0588 33.879L23.6263 32.3123L21.0568 30.255L19.2816 32.0303C19.1409 32.1709 18.9502 32.2498 18.7513 32.2498C18.5524 32.2498 18.3617 32.1709 18.2211 32.0303Z" fill="#E32934"/>
<path d="M18.75 6.75H14.25C14.1106 6.75006 13.974 6.71129 13.8554 6.63803C13.7369 6.56477 13.641 6.45992 13.5787 6.33525L13.0365 5.25H6.75C6.35218 5.25 5.97064 5.40804 5.68934 5.68934C5.40804 5.97064 5.25 6.35218 5.25 6.75V41.25C5.25 41.6478 5.40804 42.0294 5.68934 42.3107C5.97064 42.592 6.35218 42.75 6.75 42.75H26.25C26.6478 42.75 27.0294 42.592 27.3107 42.3107C27.592 42.0294 27.75 41.6478 27.75 41.25V26.325C25.8852 25.4052 24.2591 24.0655 22.9994 22.4113C21.7396 20.7571 20.8806 18.8333 20.4897 16.791C20.0989 14.7488 20.1869 12.6438 20.7467 10.6413C21.3066 8.63879 22.3231 6.79338 23.7165 5.25H19.9665L19.425 6.33525C19.3624 6.4605 19.266 6.56572 19.1467 6.63902C19.0274 6.71232 18.89 6.75076 18.75 6.75ZM20.4697 28.7197C20.6002 28.5892 20.7743 28.5113 20.9586 28.5011C21.143 28.4908 21.3246 28.5489 21.4688 28.6643L25.2188 31.6643C25.3011 31.7302 25.3686 31.8127 25.4169 31.9065C25.4652 32.0003 25.4931 32.1032 25.4989 32.2085C25.5047 32.3138 25.4883 32.4192 25.4506 32.5177C25.4129 32.6162 25.3549 32.7057 25.2803 32.7803L23.121 34.9395C22.547 35.5135 21.8655 35.9688 21.1156 36.2795C20.3656 36.5901 19.5618 36.75 18.75 36.75C17.9382 36.75 17.1344 36.5901 16.3844 36.2795C15.6345 35.9688 14.953 35.5135 14.379 34.9395L9.4425 30C8.8251 29.3859 8.33554 28.6555 8.00212 27.8511C7.66871 27.0466 7.49804 26.1841 7.5 25.3132C7.50195 23.8077 8.01405 22.3473 8.95275 21.1702L10.6642 19.0312C10.7302 18.9489 10.8127 18.8814 10.9065 18.8331C11.0003 18.7848 11.1032 18.7569 11.2085 18.7511C11.3138 18.7453 11.4192 18.7617 11.5177 18.7994C11.6162 18.8371 11.7057 18.8951 11.7802 18.9697L15.5303 22.7197C15.6709 22.8604 15.7498 23.0511 15.7498 23.25C15.7498 23.4489 15.6709 23.6396 15.5303 23.7803L13.8105 25.5L18.75 30.4395L20.4697 28.7197Z" fill="#E32934"/>
<path d="M29.25 41.25C29.25 42.0457 28.9339 42.8087 28.3713 43.3713C27.8087 43.9339 27.0456 44.25 26.25 44.25H6.75C5.95435 44.25 5.19129 43.9339 4.62868 43.3713C4.06607 42.8087 3.75 42.0457 3.75 41.25V6.75C3.75 5.95435 4.06607 5.19129 4.62868 4.62868C5.19129 4.06607 5.95435 3.75 6.75 3.75H13.5C13.6394 3.74994 13.776 3.78871 13.8946 3.86197C14.0131 3.93523 14.109 4.04008 14.1713 4.16475L14.7135 5.25H18.2865L18.8288 4.16475C18.8911 4.04008 18.9869 3.93523 19.1054 3.86197C19.224 3.78871 19.3606 3.74994 19.5 3.75H25.284C26.0011 3.17291 26.7751 2.67032 27.594 2.25H4.5C3.90326 2.25 3.33097 2.48705 2.90901 2.90901C2.48705 3.33097 2.25 3.90326 2.25 4.5V43.5C2.25 44.0967 2.48705 44.669 2.90901 45.091C3.33097 45.5129 3.90326 45.75 4.5 45.75H28.5C29.0967 45.75 29.669 45.5129 30.091 45.091C30.5129 44.669 30.75 44.0967 30.75 43.5V27.402C30.2418 27.2851 29.7409 27.1384 29.25 26.9625V41.25Z" fill="#E32934"/>
<path d="M36.6383 16.3672C36.2692 16.7998 35.8474 17.1845 35.3828 17.5124L38.3791 20.7809C38.4424 20.8501 38.5195 20.9053 38.6054 20.943C38.6912 20.9807 38.784 21.0001 38.8778 20.9999C39.0469 20.9999 39.2123 20.9508 39.3539 20.8586C39.4956 20.7663 39.6073 20.6349 39.6757 20.4803C39.744 20.3256 39.7659 20.1545 39.7388 19.9877C39.7117 19.8208 39.6366 19.6654 39.5228 19.5404L36.6383 16.3672Z" fill="#E32934"/>
<path d="M31.5 17.25C34.3995 17.25 36.75 14.8995 36.75 12C36.75 9.10051 34.3995 6.75 31.5 6.75C28.6005 6.75 26.25 9.10051 26.25 12C26.25 14.8995 28.6005 17.25 31.5 17.25Z" fill="#E32934"/>
<path d="M33.75 2.25C31.3766 2.25 29.0566 2.95379 27.0832 4.27236C25.1098 5.59094 23.5717 7.46509 22.6635 9.6578C21.7552 11.8505 21.5176 14.2633 21.9806 16.5911C22.4436 18.9189 23.5865 21.0571 25.2647 22.7353C26.943 24.4135 29.0811 25.5564 31.4089 26.0194C33.7367 26.4824 36.1495 26.2448 38.3422 25.3366C40.5349 24.4283 42.4091 22.8902 43.7276 20.9168C45.0462 18.9435 45.75 16.6234 45.75 14.25C45.7462 11.0686 44.4807 8.0185 42.2311 5.76888C39.9815 3.51926 36.9314 2.25377 33.75 2.25ZM38.8778 22.5C38.5762 22.4997 38.2779 22.4369 38.0018 22.3156C37.7257 22.1942 37.4777 22.017 37.2735 21.795L34.0275 18.2542C32.5551 18.8519 30.9195 18.9127 29.4068 18.4262C27.8941 17.9396 26.6007 16.9367 25.7528 15.5928C24.9049 14.249 24.5565 12.6497 24.7686 11.0749C24.9807 9.50014 25.7398 8.05007 26.913 6.97842C28.0863 5.90678 29.599 5.2818 31.1865 5.21283C32.7741 5.14386 34.3353 5.6353 35.597 6.60116C36.8588 7.56702 37.7408 8.9458 38.0887 10.4963C38.4366 12.0467 38.2282 13.6702 37.5 15.0825L40.6358 18.5325C40.9446 18.8729 41.1479 19.2956 41.221 19.7493C41.2942 20.203 41.234 20.6682 41.0478 21.0883C40.8617 21.5085 40.5575 21.8656 40.1723 22.1162C39.787 22.3668 39.3373 22.5001 38.8778 22.5Z" fill="#E32934"/>
</svg>
