<svg width="48" height="48" viewBox="0 0 48 48" fill="none" xmlns="http://www.w3.org/2000/svg">
<path d="M18.4366 16.2803C17.8891 16.0036 17.3716 15.6711 16.8923 15.2881C15.8461 16.4617 15.1975 17.9359 15.0391 19.5001H18.0188C18.0549 18.416 18.1948 17.3378 18.4366 16.2803Z" fill="#E32934"/>
<path d="M18.0188 21H15.0391C15.1975 22.5642 15.8461 24.0384 16.8923 25.212C17.3713 24.8287 17.8888 24.4961 18.4366 24.2197C18.1948 23.1623 18.0549 22.0841 18.0188 21Z" fill="#E32934"/>
<path d="M18.0156 26.2452C18.4896 26.605 19.0047 26.9071 19.5501 27.1452C19.2821 26.6811 19.0562 26.1939 18.8751 25.6895C18.5763 25.8549 18.2891 26.0406 18.0156 26.2452Z" fill="#E32934"/>
<path d="M19.5501 13.3584C19.0047 13.5965 18.4896 13.8986 18.0156 14.2584C18.2888 14.464 18.5758 14.6506 18.8744 14.8171C19.0553 14.3116 19.2815 13.8234 19.5501 13.3584Z" fill="#E32934"/>
<path d="M20.2656 25.0882C20.8566 26.7367 21.7056 27.7499 22.5014 27.7499C23.2971 27.7499 24.1461 26.7367 24.7371 25.0882C23.2797 24.6438 21.723 24.6438 20.2656 25.0882Z" fill="#E32934"/>
<path d="M19.5156 21C19.5524 21.8889 19.6661 22.773 19.8554 23.6423C21.5792 23.1236 23.4175 23.1236 25.1414 23.6423C25.3306 22.773 25.4443 21.8889 25.4811 21H19.5156Z" fill="#E32934"/>
<path d="M43.5025 6.13477V36.7498C43.5017 37.069 43.4588 37.3867 43.375 37.6948C43.6287 37.5773 43.9033 37.5115 44.1827 37.5012C44.4621 37.4909 44.7408 37.5363 45.0025 37.6348V8.24977C45.0001 7.78582 44.8548 7.33387 44.5864 6.95543C44.318 6.57699 43.9396 6.29044 43.5025 6.13477Z" fill="#E32934"/>
<path d="M25.4811 19.4999C25.4443 18.6112 25.3306 17.7275 25.1414 16.8584C23.418 17.3804 21.5787 17.3804 19.8554 16.8584C19.6661 17.7275 19.5525 18.6112 19.5156 19.4999H25.4811Z" fill="#E32934"/>
<path d="M26.9876 14.2555C26.5136 13.8957 25.9985 13.5935 25.4531 13.3555C25.7212 13.8196 25.9471 14.3068 26.1281 14.8112C26.427 14.6458 26.7141 14.4601 26.9876 14.2555Z" fill="#E32934"/>
<path d="M24.7371 15.4118C24.1461 13.7632 23.2971 12.75 22.5014 12.75C21.7056 12.75 20.8566 13.7632 20.2656 15.4118C21.723 15.8561 23.2797 15.8561 24.7371 15.4118Z" fill="#E32934"/>
<path d="M45.0014 39.75C45.0014 39.5511 44.9224 39.3603 44.7818 39.2197C44.6411 39.079 44.4503 39 44.2514 39C44.0525 39 43.8618 39.079 43.7211 39.2197C43.5805 39.3603 43.5014 39.5511 43.5014 39.75V41.25C43.5014 41.4489 43.4224 41.6397 43.2818 41.7803C43.1411 41.921 42.9503 42 42.7514 42C42.5525 42 42.3618 41.921 42.2211 41.7803C42.0805 41.6397 42.0014 41.4489 42.0014 41.25V39C42.0014 38.8011 41.9224 38.6103 41.7818 38.4697C41.6411 38.329 41.4503 38.25 41.2514 38.25C41.0525 38.25 40.8618 38.329 40.7211 38.4697C40.5805 38.6103 40.5014 38.8011 40.5014 39V40.5C40.5014 40.6989 40.4224 40.8897 40.2818 41.0303C40.1411 41.171 39.9503 41.25 39.7514 41.25C39.5525 41.25 39.3618 41.171 39.2211 41.0303C39.0805 40.8897 39.0014 40.6989 39.0014 40.5V38.25C39.0014 38.0511 38.9224 37.8603 38.7818 37.7197C38.6411 37.579 38.4503 37.5 38.2514 37.5C38.0568 37.513 37.8735 37.5962 37.7356 37.7341C37.5976 37.8721 37.5144 38.0554 37.5014 38.25V40.5C37.5014 40.6989 37.4224 40.8897 37.2818 41.0303C37.1411 41.171 36.9503 41.25 36.7514 41.25C36.5525 41.25 36.3618 41.171 36.2211 41.0303C36.0805 40.8897 36.0014 40.6989 36.0014 40.5V33.75C36.0014 33.5511 35.9224 33.3603 35.7818 33.2197C35.6411 33.079 35.4503 33 35.2514 33C35.0525 33 34.8618 33.079 34.7211 33.2197C34.5805 33.3603 34.5014 33.5511 34.5014 33.75V42.75C34.5022 42.9155 34.4481 43.0766 34.3477 43.2082C34.2473 43.3398 34.1063 43.4345 33.9464 43.4775C33.786 43.5181 33.6168 43.5057 33.4641 43.4421C33.3113 43.3786 33.1832 43.2673 33.0989 43.125L31.5989 40.53C31.5507 40.4443 31.4859 40.3691 31.4083 40.3086C31.3307 40.2482 31.2419 40.2038 31.147 40.178C31.0521 40.1522 30.953 40.1455 30.8555 40.1583C30.758 40.171 30.664 40.2031 30.5789 40.2525C30.4069 40.3529 30.2813 40.517 30.2293 40.7093C30.1774 40.9016 30.2033 41.1066 30.3014 41.28L32.8822 45.75H45.0014V39.75Z" fill="#E32934"/>
<path d="M6.13281 40.5C6.28849 40.9371 6.57504 41.3155 6.95348 41.5839C7.33192 41.8523 7.78386 41.9976 8.24781 42H28.9853C28.7338 41.5429 28.649 41.0127 28.7453 40.5H6.13281Z" fill="#E32934"/>
<path d="M38.25 36C38.6284 36.0002 39.0007 36.0958 39.3324 36.278C39.6641 36.4602 39.9444 36.7232 40.1475 37.0425C40.4829 36.8498 40.8632 36.7489 41.25 36.75C41.5014 36.7546 41.7501 36.8028 41.985 36.8925C41.985 36.84 42 36.795 42 36.75V9H3V36.75C3.00178 37.3462 3.23941 37.9175 3.66098 38.339C4.08255 38.7606 4.65381 38.9982 5.25 39H29.76L29.8275 38.955C30.1795 38.7536 30.5795 38.6514 30.985 38.6594C31.3904 38.6673 31.7861 38.785 32.13 39H33V35.25C33.0006 35.3984 32.9565 35.5435 32.8736 35.6665C32.7907 35.7896 32.6727 35.8848 32.535 35.94C32.446 35.982 32.3484 36.0026 32.25 36C32.0508 36.0006 31.8594 35.9224 31.7175 35.7825L30 34.0575L28.2825 35.7825C28.177 35.8866 28.0431 35.9571 27.8976 35.9851C27.7521 36.0131 27.6016 35.9974 27.465 35.94C27.3273 35.8848 27.2093 35.7896 27.1264 35.6665C27.0435 35.5435 26.9994 35.3984 27 35.25V30.75H28.5V33.4425L29.4675 32.4675C29.6091 32.327 29.8005 32.2481 30 32.2481C30.1995 32.2481 30.3909 32.327 30.5325 32.4675L31.5 33.4425V30.75H33V33.75C33 33.1533 33.2371 32.581 33.659 32.159C34.081 31.7371 34.6533 31.5 35.25 31.5C35.8467 31.5 36.419 31.7371 36.841 32.159C37.2629 32.581 37.5 33.1533 37.5 33.75V36.1425C37.7393 36.0499 37.9934 36.0016 38.25 36ZM18 35.25C18 35.3983 17.956 35.5433 17.8736 35.6666C17.7911 35.7899 17.674 35.886 17.537 35.9428C17.4 35.9995 17.2492 36.0144 17.1037 35.9854C16.9583 35.9565 16.8246 35.8851 16.7197 35.7803L15 34.0605L13.2803 35.7803C13.1754 35.8851 13.0417 35.9565 12.8963 35.9854C12.7508 36.0144 12.6 35.9995 12.463 35.9428C12.326 35.886 12.2089 35.7899 12.1264 35.6666C12.044 35.5433 12 35.3983 12 35.25V30.75H13.5V33.4395L14.4697 32.4697C14.6104 32.3291 14.8011 32.2502 15 32.2502C15.1989 32.2502 15.3896 32.3291 15.5303 32.4697L16.5 33.4395V30.75H18V35.25ZM25.5 35.25C25.5 35.3983 25.456 35.5433 25.3736 35.6666C25.2911 35.7899 25.174 35.886 25.037 35.9428C24.9 35.9995 24.7492 36.0144 24.6037 35.9854C24.4583 35.9565 24.3246 35.8851 24.2197 35.7803L22.5 34.0605L20.7803 35.7803C20.6754 35.8851 20.5417 35.9565 20.3963 35.9854C20.2508 36.0144 20.1 35.9995 19.963 35.9428C19.826 35.886 19.7089 35.7899 19.6264 35.6666C19.544 35.5433 19.5 35.3983 19.5 35.25V30.75H21V33.4395L21.9697 32.4697C22.1104 32.3291 22.3011 32.2502 22.5 32.2502C22.6989 32.2502 22.8896 32.3291 23.0303 32.4697L24 33.4395V30.75H25.5V35.25ZM22.5 29.25C20.72 29.25 18.9799 28.7222 17.4999 27.7332C16.0198 26.7443 14.8663 25.3387 14.1851 23.6942C13.5039 22.0496 13.3257 20.24 13.6729 18.4942C14.0202 16.7484 14.8774 15.1447 16.136 13.886C17.3947 12.6274 18.9984 11.7702 20.7442 11.4229C22.49 11.0757 24.2996 11.2539 25.9442 11.9351C27.5887 12.6163 28.9943 13.7698 29.9832 15.2499C30.9722 16.7299 31.5 18.47 31.5 20.25C31.4974 22.6362 30.5484 24.9238 28.8611 26.6111C27.1738 28.2984 24.8862 29.2474 22.5 29.25Z" fill="#E32934"/>
<path d="M25.4531 27.1414C25.9985 26.9033 26.5136 26.6012 26.9876 26.2414C26.7144 26.0358 26.4275 25.8491 26.1289 25.6826C25.9479 26.1882 25.7218 26.6764 25.4531 27.1414Z" fill="#E32934"/>
<path d="M42 5.25C41.9982 4.65381 41.7606 4.08255 41.339 3.66098C40.9175 3.23941 40.3462 3.00178 39.75 3H5.25C4.65381 3.00178 4.08255 3.23941 3.66098 3.66098C3.23941 4.08255 3.00178 4.65381 3 5.25V7.5H42V5.25ZM6 6H4.5V4.5H6V6ZM9 6H7.5V4.5H9V6ZM12 6H10.5V4.5H12V6Z" fill="#E32934"/>
<path d="M26.5625 16.2803C26.8043 17.3378 26.9442 18.416 26.9803 19.5001H29.96C29.8016 17.9359 29.1529 16.4617 28.1068 15.2881C27.6278 15.6714 27.1102 16.004 26.5625 16.2803Z" fill="#E32934"/>
<path d="M26.5625 24.2197C27.11 24.4965 27.6275 24.829 28.1068 25.212C29.1529 24.0384 29.8016 22.5642 29.96 21H26.9803C26.9442 22.0841 26.8043 23.1623 26.5625 24.2197Z" fill="#E32934"/>
</svg>
