<svg width="48" height="48" viewBox="0 0 48 48" fill="none" xmlns="http://www.w3.org/2000/svg">
<g clip-path="url(#clip0_19_33746)">
<path d="M34.551 33.2986L32.1014 29.3281H24.375V48.0002H47.9834V33.2986H34.551Z" fill="#E32934"/>
<path d="M0.015625 10.8842H22.3124V0H0.015625V10.8842ZM10.5935 4.03685H18.5819V6.84737H10.5935V4.03685ZM4.05247 4.03685H6.863V6.84737H4.05247V4.03685Z" fill="#E32934"/>
<path d="M0.015625 24.5786H22.3124V13.6943H0.015625V24.5786ZM10.5935 17.7312H18.5819V20.5417H10.5935V17.7312ZM4.05247 17.7312H6.863V20.5417H4.05247V17.7312Z" fill="#E32934"/>
<path d="M41.9327 15.8054L41.9448 10.71C41.9555 6.16219 38.2719 2.46973 33.7241 2.46973H29.6094V4.34341C33.0358 5.95909 35.2264 9.40282 35.237 13.191L35.2486 15.8054H33.6304L38.5906 21.6867L43.5767 15.8054H41.9327Z" fill="#E32934"/>
<path d="M12.7615 37.2789L12.7499 34.6645H14.3681L9.40793 28.7832L4.42188 34.6645H6.06594L6.05385 39.7599C6.04308 44.3077 9.72674 48.0002 14.2745 48.0002H18.389V46.1265C14.9626 44.5108 12.7722 41.0671 12.7615 37.2789Z" fill="#E32934"/>
</g>
<defs>
<clipPath id="clip0_19_33746">
<rect width="48" height="48" fill="white"/>
</clipPath>
</defs>
</svg>
