<svg width="48" height="48" viewBox="0 0 48 48" fill="none" xmlns="http://www.w3.org/2000/svg">
<path fill-rule="evenodd" clip-rule="evenodd" d="M28.4988 43.0687C26.1992 44.493 23.6085 45.5048 20.8226 45.9905L20.1402 46.1097L19.4577 45.9905C9.08296 44.1818 1.41406 35.0764 1.41406 24.5394V10.0178C1.41406 9.64129 1.63844 9.30105 1.98442 9.15273L19.7694 1.52929C20.0062 1.42774 20.2742 1.42774 20.511 1.52929L38.2959 9.15273C38.642 9.30105 38.8663 9.64129 38.8663 10.0178V24.5394C38.8663 25.3403 38.8221 26.133 38.7356 26.9148C38.3274 26.867 37.9122 26.8424 37.4913 26.8424C36.2425 26.8424 35.0438 27.0588 33.9307 27.456C34.1007 26.4986 34.1893 25.5169 34.1893 24.5188V13.0497C34.1893 12.7484 34.0096 12.4761 33.7327 12.3575L20.4367 6.66454C20.2474 6.5835 20.0331 6.5835 19.8438 6.66454L6.55242 12.3576C6.27543 12.4762 6.09585 12.7485 6.09585 13.0497V24.5188C6.09585 32.6722 12.0043 39.7444 20.0031 41.2264C20.0938 41.2433 20.1867 41.2433 20.2774 41.2264C22.728 40.7727 24.9822 39.7948 26.9305 38.4223C27.0852 40.1176 27.6398 41.6981 28.4988 43.0687ZM26.9245 36.5408C25.0002 38.1052 22.6889 39.2239 20.1404 39.7197C12.9198 38.3139 7.60173 31.9031 7.60173 24.5188V14.167C7.60173 13.7905 7.8262 13.4501 8.17237 13.3019L19.7698 8.33447C20.0064 8.2331 20.2742 8.2331 20.5108 8.33437L32.1127 13.302C32.4589 13.4502 32.6834 13.7906 32.6834 14.1672V24.5188C32.6834 25.7963 32.5242 27.0447 32.2236 28.2431C29.2829 29.9309 27.226 32.9873 26.9245 36.5408ZM20.1426 13.9988C14.7614 13.9988 10.4015 18.3588 10.4015 23.74C10.4015 29.1212 14.7614 33.4812 20.1426 33.4812C25.5238 33.4812 29.8838 29.1212 29.8838 23.74C29.8838 18.3588 25.5238 13.9988 20.1426 13.9988ZM20.1426 15.5047C24.6919 15.5047 28.3779 19.1908 28.3779 23.74C28.3779 28.2894 24.6919 31.9753 20.1426 31.9753C15.5933 31.9753 11.9073 28.2894 11.9073 23.74C11.9073 19.1908 15.5933 15.5047 20.1426 15.5047ZM19.3897 20.4979V23.74C19.3897 24.0091 19.5332 24.2577 19.7663 24.3922L21.9327 25.6425C22.2926 25.8503 22.7534 25.7268 22.9611 25.3668C23.1689 25.0069 23.0453 24.546 22.6854 24.3383L20.8956 23.3053V20.4979C20.8956 20.0824 20.5582 19.745 20.1426 19.745C19.7271 19.745 19.3897 20.0824 19.3897 20.4979ZM13.3191 24.493H14.0578C14.4735 24.493 14.8108 24.1556 14.8108 23.74C14.8108 23.3245 14.4735 22.9871 14.0578 22.9871H13.3191C12.9036 22.9871 12.5662 23.3245 12.5662 23.74C12.5662 24.1556 12.9036 24.493 13.3191 24.493ZM26.9687 22.9871H26.2274C25.8119 22.9871 25.4745 23.3245 25.4745 23.74C25.4745 24.1556 25.8119 24.493 26.2274 24.493H26.9687C27.3842 24.493 27.7216 24.1556 27.7216 23.74C27.7216 23.3245 27.3842 22.9871 26.9687 22.9871ZM14.7834 19.4455L15.3074 19.9697C15.6014 20.2635 16.0784 20.2635 16.3723 19.9697C16.6661 19.6758 16.6661 19.1987 16.3723 18.9048L15.8481 18.3808C15.5543 18.0869 15.0772 18.0869 14.7834 18.3808C14.4895 18.6746 14.4895 19.1517 14.7834 19.4455ZM19.3897 16.9165V17.6553C19.3897 18.0708 19.7271 18.4083 20.1426 18.4083C20.5582 18.4083 20.8956 18.0708 20.8956 17.6553V16.9165C20.8956 16.501 20.5582 16.1636 20.1426 16.1636C19.7271 16.1636 19.3897 16.501 19.3897 16.9165ZM24.4371 18.3808L23.913 18.9048C23.6191 19.1987 23.6191 19.6758 23.913 19.9697C24.2068 20.2635 24.684 20.2635 24.9778 19.9697L25.502 19.4455C25.7958 19.1517 25.7958 18.6746 25.502 18.3808C25.2081 18.0869 24.731 18.0869 24.4371 18.3808ZM20.8956 30.5635V29.8248C20.8956 29.4093 20.5582 29.0719 20.1426 29.0719C19.7271 29.0719 19.3897 29.4093 19.3897 29.8248V30.5635C19.3897 30.9792 19.7271 31.3165 20.1426 31.3165C20.5582 31.3165 20.8956 30.9792 20.8956 30.5635ZM15.8481 29.0994L16.3723 28.5752C16.6661 28.2814 16.6661 27.8042 16.3723 27.5104C16.0784 27.2165 15.6014 27.2165 15.3074 27.5104L14.7834 28.0345C14.4895 28.3283 14.4895 28.8055 14.7834 29.0994C15.0772 29.3932 15.5543 29.3932 15.8481 29.0994ZM25.502 28.0345L24.9778 27.5104C24.684 27.2165 24.2068 27.2165 23.913 27.5104C23.6191 27.8042 23.6191 28.2814 23.913 28.5752L24.4371 29.0994C24.731 29.3932 25.2081 29.3932 25.502 29.0994C25.7958 28.8055 25.7958 28.3283 25.502 28.0345ZM37.4913 28.3483C42.5133 28.3483 46.5905 32.4256 46.5905 37.4476C46.5905 42.4695 42.5133 46.5468 37.4913 46.5468C32.4693 46.5468 28.392 42.4695 28.392 37.4476C28.392 32.4256 32.4693 28.3483 37.4913 28.3483ZM36.2963 38.25L34.2611 36.2148C33.7341 35.6877 32.8782 35.6877 32.351 36.2148C31.8239 36.7447 31.8239 37.5979 32.351 38.125L35.3425 41.1192C35.8697 41.6464 36.7256 41.6464 37.2527 41.1192C39.0569 39.3151 40.8393 37.4919 42.6353 35.6796C43.1598 35.1497 43.157 34.2965 42.6299 33.7721C42.1027 33.2478 41.2469 33.2505 40.7225 33.7776L36.2963 38.25Z" fill="#E32934"/>
</svg>
