<svg width="48" height="48" viewBox="0 0 48 48" fill="none" xmlns="http://www.w3.org/2000/svg">
<g clip-path="url(#clip0_1_14128)">
<path d="M35.6667 10.4974H28.7C28 8.56406 26.1667 7.16406 24 7.16406C21.8333 7.16406 20 8.56406 19.3 10.4974H12.3333C10.5 10.4974 9 11.9974 9 13.8307V37.1641C9 38.9974 10.5 40.4974 12.3333 40.4974H35.6667C37.5 40.4974 39 38.9974 39 37.1641V13.8307C39 11.9974 37.5 10.4974 35.6667 10.4974ZM24 10.4974C24.9167 10.4974 25.6667 11.2474 25.6667 12.1641C25.6667 13.0807 24.9167 13.8307 24 13.8307C23.0833 13.8307 22.3333 13.0807 22.3333 12.1641C22.3333 11.2474 23.0833 10.4974 24 10.4974ZM27.3333 33.8307H15.6667V30.4974H27.3333V33.8307ZM32.3333 27.1641H15.6667V23.8307H32.3333V27.1641ZM32.3333 20.4974H15.6667V17.1641H32.3333V20.4974Z" fill="#E32934"/>
</g>
<defs>
<clipPath id="clip0_1_14128">
<rect width="48" height="48" fill="white"/>
</clipPath>
</defs>
</svg>
