<svg width="48" height="48" viewBox="0 0 48 48" fill="none" xmlns="http://www.w3.org/2000/svg">
<g clip-path="url(#clip0_1_14146)">
<path d="M19.3173 16.0809C15.9173 19.8975 13.584 25.3809 13.3673 25.8975L7.33398 23.3142L14.084 16.5642C14.8673 15.7809 16.0007 15.4309 17.1007 15.6475L19.3173 16.0809ZM22.6173 33.8309C22.6173 33.8309 28.8506 31.2475 32.434 27.6642C41.434 18.6642 39.934 11.6309 39.4506 10.0475C37.8673 9.54753 30.834 8.0642 21.834 17.0642C18.2507 20.6475 15.6673 26.8809 15.6673 26.8809L22.6173 33.8309ZM33.4173 30.1809C29.6007 33.5809 24.1173 35.9142 23.6007 36.1309L26.184 42.1642L32.934 35.4142C33.7173 34.6309 34.0673 33.4975 33.8507 32.3975L33.4173 30.1809ZM19.0007 35.4975C19.0007 36.8809 18.434 38.1309 17.534 39.0309C15.5673 40.9975 7.33398 42.1642 7.33398 42.1642C7.33398 42.1642 8.50065 33.9309 10.4673 31.9642C11.3673 31.0642 12.6173 30.4975 14.0007 30.4975C16.7673 30.4975 19.0007 32.7309 19.0007 35.4975ZM25.6673 20.4975C25.6673 18.6642 27.1673 17.1642 29.0007 17.1642C30.834 17.1642 32.334 18.6642 32.334 20.4975C32.334 22.3309 30.834 23.8309 29.0007 23.8309C27.1673 23.8309 25.6673 22.3309 25.6673 20.4975Z" fill="#E32934"/>
</g>
<defs>
<clipPath id="clip0_1_14146">
<rect width="48" height="48" fill="white"/>
</clipPath>
</defs>
</svg>
