<svg width="48" height="49" viewBox="0 0 48 49" fill="none" xmlns="http://www.w3.org/2000/svg">
<path d="M24.7266 26.9004H19.4902V24.355C19.4902 22.1004 17.9629 20.2095 15.8538 19.6277C15.0538 19.4095 14.3266 18.5368 14.3266 17.6641V17.2277C15.7084 15.9914 16.5811 13.955 16.5811 12.2095C16.5811 9.37317 14.2538 7.0459 11.4175 7.0459C8.58111 7.0459 6.25384 9.37317 6.25384 12.2095C6.25384 13.955 7.12656 15.9914 8.50838 17.2277V17.7368C8.50838 18.5368 7.78111 19.4823 6.98111 19.7004C4.79929 20.2823 3.34474 22.1732 3.34474 24.4277V26.9732H1.45384C1.01747 26.9732 0.726562 27.3368 0.726562 27.7004V31.2641C0.726562 31.6277 1.01747 31.9914 1.45384 31.9914H2.76293V46.5368C2.76293 46.9732 3.05384 47.2641 3.4902 47.2641H22.6902C23.0538 47.2641 23.4175 46.9732 23.4175 46.5368V31.9914H24.7266C25.1629 31.9914 25.4538 31.6277 25.4538 31.2641V27.7004C25.4538 27.2641 25.1629 26.9004 24.7266 26.9004ZM7.70838 12.2095C7.70838 10.1732 9.38111 8.50044 11.4175 8.50044C13.4538 8.50044 15.1266 10.1732 15.1266 12.2095C15.1266 14.3186 13.3811 17.0095 11.4175 17.0095C9.45383 17.0095 7.70838 14.3186 7.70838 12.2095ZM23.9993 30.4641H2.18111V28.355H23.9993V30.4641Z" fill="#E32934"/>
<path d="M41.2357 20.428V29.6644C41.2357 31.9916 39.3447 33.9553 36.9447 33.9553H30.7629V43.4098C30.7629 44.6462 29.7447 45.6644 28.5084 45.6644C27.272 45.6644 26.2538 44.6462 26.2538 43.4098V31.3371C26.2538 29.8825 27.4175 28.7189 28.872 28.7189H31.9993V24.428L30.3266 26.1007C30.1811 26.2462 30.0357 26.3189 29.8175 26.3189H22.9084C22.3266 26.3189 21.672 26.028 21.3084 25.5916C20.872 25.1553 20.7266 24.5007 20.7266 23.9189C20.872 22.828 21.8175 21.9553 22.9811 21.9553H27.6357L31.4902 18.1007C32.072 17.5189 32.872 17.1553 33.7447 17.1553H37.9629C39.7811 17.1553 41.2357 18.6098 41.2357 20.428Z" fill="#E32934"/>
<path d="M47.2739 23.7732V45.7368C47.2739 46.1732 46.983 46.4641 46.5466 46.4641H43.783C43.4193 46.4641 43.0557 46.1732 43.0557 45.7368V39.555H36.6557V45.7368C36.6557 46.1732 36.3648 46.4641 35.9284 46.4641H33.1648C32.7284 46.4641 32.4375 46.1732 32.4375 45.7368V36.1368C32.4375 35.7004 32.7284 35.4095 33.1648 35.4095H42.692V23.7732C42.692 23.3368 42.983 23.0459 43.4193 23.0459H46.5466C46.983 23.0459 47.2739 23.3368 47.2739 23.7732Z" fill="#E32934"/>
<path d="M36.0722 15.8455C38.4722 15.8455 40.3631 13.9546 40.3631 11.5546C40.3631 9.15458 38.4722 7.26367 36.0722 7.26367C33.6722 7.26367 31.7812 9.15458 31.7812 11.5546C31.7812 13.8819 33.6722 15.8455 36.0722 15.8455ZM36.0722 8.71822C37.6722 8.71822 38.9085 9.95458 38.9085 11.5546C38.9085 13.1546 37.6722 14.3909 36.0722 14.3909C34.5449 14.3909 33.2358 13.1546 33.2358 11.5546C33.2358 9.95458 34.4722 8.71822 36.0722 8.71822Z" fill="#E32934"/>
<path d="M30.9793 3.77321V9.44593C30.9793 10.5368 30.1065 11.4096 29.0156 11.4096H23.6338L20.652 14.3914C20.5065 14.5368 20.3611 14.6096 20.1429 14.6096C20.0702 14.6096 19.9247 14.6096 19.852 14.5368C19.5611 14.3914 19.4156 14.1732 19.4156 13.8823V11.4096H18.9793C17.8884 11.4096 17.0156 10.5368 17.0156 9.44593V3.77321C17.0156 2.6823 17.8884 1.80957 18.9793 1.80957H29.0884C30.1065 1.80957 30.9793 2.6823 30.9793 3.77321Z" fill="#E32934"/>
<path d="M24.7266 26.9004H19.4902V24.355C19.4902 22.1004 17.9629 20.2095 15.8538 19.6277C15.0538 19.4095 14.3266 18.5368 14.3266 17.6641V17.2277C15.7084 15.9914 16.5811 13.955 16.5811 12.2095C16.5811 9.37317 14.2538 7.0459 11.4175 7.0459C8.58111 7.0459 6.25384 9.37317 6.25384 12.2095C6.25384 13.955 7.12656 15.9914 8.50838 17.2277V17.7368C8.50838 18.5368 7.78111 19.4823 6.98111 19.7004C4.79929 20.2823 3.34474 22.1732 3.34474 24.4277V26.9732H1.45384C1.01747 26.9732 0.726562 27.3368 0.726562 27.7004V31.2641C0.726562 31.6277 1.01747 31.9914 1.45384 31.9914H2.76293V46.5368C2.76293 46.9732 3.05384 47.2641 3.4902 47.2641H22.6902C23.0538 47.2641 23.4175 46.9732 23.4175 46.5368V31.9914H24.7266C25.1629 31.9914 25.4538 31.6277 25.4538 31.2641V27.7004C25.4538 27.2641 25.1629 26.9004 24.7266 26.9004ZM7.70838 12.2095C7.70838 10.1732 9.38111 8.50044 11.4175 8.50044C13.4538 8.50044 15.1266 10.1732 15.1266 12.2095C15.1266 14.3186 13.3811 17.0095 11.4175 17.0095C9.45383 17.0095 7.70838 14.3186 7.70838 12.2095ZM23.9993 30.4641H2.18111V28.355H23.9993V30.4641Z" fill="#E32934"/>
<path d="M41.2357 20.428V29.6644C41.2357 31.9916 39.3447 33.9553 36.9447 33.9553H30.7629V43.4098C30.7629 44.6462 29.7447 45.6644 28.5084 45.6644C27.272 45.6644 26.2538 44.6462 26.2538 43.4098V31.3371C26.2538 29.8825 27.4175 28.7189 28.872 28.7189H31.9993V24.428L30.3266 26.1007C30.1811 26.2462 30.0357 26.3189 29.8175 26.3189H22.9084C22.3266 26.3189 21.672 26.028 21.3084 25.5916C20.872 25.1553 20.7266 24.5007 20.7266 23.9189C20.872 22.828 21.8175 21.9553 22.9811 21.9553H27.6357L31.4902 18.1007C32.072 17.5189 32.872 17.1553 33.7447 17.1553H37.9629C39.7811 17.1553 41.2357 18.6098 41.2357 20.428Z" fill="#E32934"/>
<path d="M47.2739 23.7732V45.7368C47.2739 46.1732 46.983 46.4641 46.5466 46.4641H43.783C43.4193 46.4641 43.0557 46.1732 43.0557 45.7368V39.555H36.6557V45.7368C36.6557 46.1732 36.3648 46.4641 35.9284 46.4641H33.1648C32.7284 46.4641 32.4375 46.1732 32.4375 45.7368V36.1368C32.4375 35.7004 32.7284 35.4095 33.1648 35.4095H42.692V23.7732C42.692 23.3368 42.983 23.0459 43.4193 23.0459H46.5466C46.983 23.0459 47.2739 23.3368 47.2739 23.7732Z" fill="#E32934"/>
<path d="M36.0722 15.8455C38.4722 15.8455 40.3631 13.9546 40.3631 11.5546C40.3631 9.15458 38.4722 7.26367 36.0722 7.26367C33.6722 7.26367 31.7812 9.15458 31.7812 11.5546C31.7812 13.8819 33.6722 15.8455 36.0722 15.8455ZM36.0722 8.71822C37.6722 8.71822 38.9085 9.95458 38.9085 11.5546C38.9085 13.1546 37.6722 14.3909 36.0722 14.3909C34.5449 14.3909 33.2358 13.1546 33.2358 11.5546C33.2358 9.95458 34.4722 8.71822 36.0722 8.71822Z" fill="#E32934"/>
<path d="M30.9793 3.77321V9.44593C30.9793 10.5368 30.1065 11.4096 29.0156 11.4096H23.6338L20.652 14.3914C20.5065 14.5368 20.3611 14.6096 20.1429 14.6096C20.0702 14.6096 19.9247 14.6096 19.852 14.5368C19.5611 14.3914 19.4156 14.1732 19.4156 13.8823V11.4096H18.9793C17.8884 11.4096 17.0156 10.5368 17.0156 9.44593V3.77321C17.0156 2.6823 17.8884 1.80957 18.9793 1.80957H29.0884C30.1065 1.80957 30.9793 2.6823 30.9793 3.77321Z" fill="#E32934"/>
</svg>
