<svg width="90" height="90" viewBox="0 0 90 90" fill="none" xmlns="http://www.w3.org/2000/svg">
<g filter="url(#filter0_dii_16023_4097)">
<path d="M75 45C75 61.5685 61.5685 75 45 75C28.4315 75 15 61.5685 15 45C15 28.4315 28.4315 15 45 15C61.5685 15 75 28.4315 75 45Z" fill="#A2142C"/>
<path fill-rule="evenodd" clip-rule="evenodd" d="M54.6874 39.1C55.0688 39.1637 55.4239 39.343 55.701 39.6163C56.0524 39.9637 56.25 40.4348 56.25 40.9259V53.7685L53.3205 51.0274C53.2507 50.9622 53.1585 50.9259 53.0625 50.9259H40.125C39.6278 50.9259 39.1507 50.7308 38.799 50.3837C38.6824 50.2682 38.5822 50.1389 38.5012 50C38.3977 49.823 38.1683 49.7622 37.989 49.8645C37.8098 49.9667 37.7482 50.1933 37.8517 50.3704C37.9654 50.5648 38.1052 50.7456 38.2687 50.9074C38.7611 51.3937 39.429 51.6667 40.125 51.6667H52.9132L56.367 54.8985C56.4758 55.0004 56.6355 55.0282 56.7731 54.97C56.9108 54.9115 57 54.7778 57 54.6296V40.9259C57 40.2382 56.7236 39.5789 56.2313 39.0926C55.8431 38.7096 55.3462 38.4589 54.8126 38.3696C54.6082 38.3356 54.4147 38.4715 54.3802 38.673C54.3457 38.8744 54.4834 39.0659 54.6874 39.1ZM54 37.5926C54 36.9052 53.7236 36.2456 53.2313 35.7593C52.7389 35.2733 52.0714 35 51.375 35C47.4791 35 39.5209 35 35.625 35C34.1753 35 33 36.1607 33 37.5926V52.7778C33 52.9259 33.0896 53.06 33.2276 53.1185C33.3656 53.1767 33.5257 53.1478 33.6341 53.0456L37.8379 49.0741H51.375C52.0714 49.0741 52.7389 48.8011 53.2313 48.3148C53.7236 47.8285 54 47.1693 54 46.4815V37.5926ZM47.625 41.6667V40.5556H49.125C49.332 40.5556 49.5 40.3896 49.5 40.1852C49.5 39.9807 49.332 39.8148 49.125 39.8148H47.25C47.043 39.8148 46.875 39.9807 46.875 40.1852V43.8889C46.875 44.0933 47.043 44.2593 47.25 44.2593H49.125C49.332 44.2593 49.5 44.0933 49.5 43.8889C49.5 43.6844 49.332 43.5185 49.125 43.5185H47.625V42.4074H49.125C49.332 42.4074 49.5 42.2415 49.5 42.037C49.5 41.8326 49.332 41.6667 49.125 41.6667H47.625ZM41.625 43.8889V40.1852C41.625 39.9807 41.457 39.8148 41.25 39.8148C41.043 39.8148 40.875 39.9807 40.875 40.1852V43.8889C40.875 44.0933 41.043 44.2593 41.25 44.2593C41.457 44.2593 41.625 44.0933 41.625 43.8889ZM37.125 40.1852V43.8889C37.125 44.0933 37.293 44.2593 37.5 44.2593H39.375C39.582 44.2593 39.75 44.0933 39.75 43.8889C39.75 43.6844 39.582 43.5185 39.375 43.5185H37.875V40.1852C37.875 39.9807 37.707 39.8148 37.5 39.8148C37.293 39.8148 37.125 39.9807 37.125 40.1852ZM45.0157 40.0789L44.25 42.6L43.4843 40.0789C43.4246 39.883 43.2154 39.7719 43.0174 39.8304C42.819 39.8893 42.7065 40.0959 42.7657 40.2915L43.8907 43.9952C43.9384 44.1519 44.0842 44.2593 44.25 44.2593C44.4158 44.2593 44.5616 44.1519 44.6093 43.9952L45.7343 40.2915C45.7935 40.0959 45.681 39.8893 45.4826 39.8304C45.2846 39.7719 45.0754 39.883 45.0157 40.0789Z" fill="white"/>
<path d="M45 14.5C61.8447 14.5 75.5 28.1553 75.5 45C75.5 61.8447 61.8447 75.5 45 75.5C28.1553 75.5 14.5 61.8447 14.5 45C14.5 28.1553 28.1553 14.5 45 14.5Z" stroke="#7B0015"/>
</g>
<defs>
<filter id="filter0_dii_16023_4097" x="0" y="0" width="90" height="90" filterUnits="userSpaceOnUse" color-interpolation-filters="sRGB">
<feFlood flood-opacity="0" result="BackgroundImageFix"/>
<feColorMatrix in="SourceAlpha" type="matrix" values="0 0 0 0 0 0 0 0 0 0 0 0 0 0 0 0 0 0 127 0" result="hardAlpha"/>
<feOffset/>
<feGaussianBlur stdDeviation="7"/>
<feComposite in2="hardAlpha" operator="out"/>
<feColorMatrix type="matrix" values="0 0 0 0 0 0 0 0 0 0 0 0 0 0 0 0 0 0 0.25 0"/>
<feBlend mode="normal" in2="BackgroundImageFix" result="effect1_dropShadow_16023_4097"/>
<feBlend mode="normal" in="SourceGraphic" in2="effect1_dropShadow_16023_4097" result="shape"/>
<feColorMatrix in="SourceAlpha" type="matrix" values="0 0 0 0 0 0 0 0 0 0 0 0 0 0 0 0 0 0 127 0" result="hardAlpha"/>
<feOffset dy="1"/>
<feGaussianBlur stdDeviation="0.5"/>
<feComposite in2="hardAlpha" operator="arithmetic" k2="-1" k3="1"/>
<feColorMatrix type="matrix" values="0 0 0 0 1 0 0 0 0 1 0 0 0 0 1 0 0 0 0.25 0"/>
<feBlend mode="normal" in2="shape" result="effect2_innerShadow_16023_4097"/>
<feColorMatrix in="SourceAlpha" type="matrix" values="0 0 0 0 0 0 0 0 0 0 0 0 0 0 0 0 0 0 127 0" result="hardAlpha"/>
<feOffset dy="-1"/>
<feGaussianBlur stdDeviation="0.5"/>
<feComposite in2="hardAlpha" operator="arithmetic" k2="-1" k3="1"/>
<feColorMatrix type="matrix" values="0 0 0 0 1 0 0 0 0 1 0 0 0 0 1 0 0 0 0.25 0"/>
<feBlend mode="normal" in2="effect2_innerShadow_16023_4097" result="effect3_innerShadow_16023_4097"/>
</filter>
</defs>
</svg>
