<svg width="48" height="48" viewBox="0 0 48 48" fill="none" xmlns="http://www.w3.org/2000/svg">
<path d="M24.7266 26.3995H19.4902V23.854C19.4902 21.5995 17.9629 19.7086 15.8538 19.1267C15.0538 18.9086 14.3266 18.0358 14.3266 17.1631V16.7267C15.7084 15.4904 16.5811 13.454 16.5811 11.7086C16.5811 8.87219 14.2538 6.54492 11.4175 6.54492C8.58111 6.54492 6.25384 8.87219 6.25384 11.7086C6.25384 13.454 7.12656 15.4904 8.50838 16.7267V17.2358C8.50838 18.0358 7.78111 18.9813 6.98111 19.1995C4.79929 19.7813 3.34474 21.6722 3.34474 23.9267V26.4722H1.45384C1.01747 26.4722 0.726562 26.8358 0.726562 27.1995V30.7631C0.726562 31.1267 1.01747 31.4904 1.45384 31.4904H2.76293V46.0358C2.76293 46.4722 3.05384 46.7631 3.4902 46.7631H22.6902C23.0538 46.7631 23.4175 46.4722 23.4175 46.0358V31.4904H24.7266C25.1629 31.4904 25.4538 31.1267 25.4538 30.7631V27.1995C25.4538 26.7631 25.1629 26.3995 24.7266 26.3995ZM7.70838 11.7086C7.70838 9.67219 9.38111 7.99947 11.4175 7.99947C13.4538 7.99947 15.1266 9.67219 15.1266 11.7086C15.1266 13.8176 13.3811 16.5086 11.4175 16.5086C9.45383 16.5086 7.70838 13.8176 7.70838 11.7086ZM23.9993 29.9631H2.18111V27.854H23.9993V29.9631Z" fill="#E32934"/>
<path d="M41.2357 19.927V29.1634C41.2357 31.4907 39.3447 33.4543 36.9447 33.4543H30.7629V42.9088C30.7629 44.1452 29.7447 45.1634 28.5084 45.1634C27.272 45.1634 26.2538 44.1452 26.2538 42.9088V30.8361C26.2538 29.3816 27.4175 28.2179 28.872 28.2179H31.9993V23.927L30.3266 25.5998C30.1811 25.7452 30.0357 25.8179 29.8175 25.8179H22.9084C22.3266 25.8179 21.672 25.527 21.3084 25.0907C20.872 24.6543 20.7266 23.9998 20.7266 23.4179C20.872 22.327 21.8175 21.4543 22.9811 21.4543H27.6357L31.4902 17.5998C32.072 17.0179 32.872 16.6543 33.7447 16.6543H37.9629C39.7811 16.6543 41.2357 18.1088 41.2357 19.927Z" fill="#E32934"/>
<path d="M47.2739 23.2722V45.2358C47.2739 45.6722 46.983 45.9631 46.5466 45.9631H43.783C43.4193 45.9631 43.0557 45.6722 43.0557 45.2358V39.054H36.6557V45.2358C36.6557 45.6722 36.3648 45.9631 35.9284 45.9631H33.1648C32.7284 45.9631 32.4375 45.6722 32.4375 45.2358V35.6358C32.4375 35.1995 32.7284 34.9086 33.1648 34.9086H42.692V23.2722C42.692 22.8358 42.983 22.5449 43.4193 22.5449H46.5466C46.983 22.5449 47.2739 22.8358 47.2739 23.2722Z" fill="#E32934"/>
<path d="M36.0722 15.3435C38.4722 15.3435 40.3631 13.4526 40.3631 11.0526C40.3631 8.65263 38.4722 6.76172 36.0722 6.76172C33.6722 6.76172 31.7812 8.65263 31.7812 11.0526C31.7812 13.3799 33.6722 15.3435 36.0722 15.3435ZM36.0722 8.21626C37.6722 8.21626 38.9085 9.45263 38.9085 11.0526C38.9085 12.6526 37.6722 13.889 36.0722 13.889C34.5449 13.889 33.2358 12.6526 33.2358 11.0526C33.2358 9.45263 34.4722 8.21626 36.0722 8.21626Z" fill="#E32934"/>
<path d="M30.9793 3.27223V8.94496C30.9793 10.0359 30.1065 10.9086 29.0156 10.9086H23.6338L20.652 13.8904C20.5065 14.0359 20.3611 14.1086 20.1429 14.1086C20.0702 14.1086 19.9247 14.1086 19.852 14.0359C19.5611 13.8904 19.4156 13.6722 19.4156 13.3813V10.9086H18.9793C17.8884 10.9086 17.0156 10.0359 17.0156 8.94496V3.27223C17.0156 2.18132 17.8884 1.30859 18.9793 1.30859H29.0884C30.1065 1.30859 30.9793 2.18132 30.9793 3.27223Z" fill="#E32934"/>
<path d="M24.7266 26.3995H19.4902V23.854C19.4902 21.5995 17.9629 19.7086 15.8538 19.1267C15.0538 18.9086 14.3266 18.0358 14.3266 17.1631V16.7267C15.7084 15.4904 16.5811 13.454 16.5811 11.7086C16.5811 8.87219 14.2538 6.54492 11.4175 6.54492C8.58111 6.54492 6.25384 8.87219 6.25384 11.7086C6.25384 13.454 7.12656 15.4904 8.50838 16.7267V17.2358C8.50838 18.0358 7.78111 18.9813 6.98111 19.1995C4.79929 19.7813 3.34474 21.6722 3.34474 23.9267V26.4722H1.45384C1.01747 26.4722 0.726562 26.8358 0.726562 27.1995V30.7631C0.726562 31.1267 1.01747 31.4904 1.45384 31.4904H2.76293V46.0358C2.76293 46.4722 3.05384 46.7631 3.4902 46.7631H22.6902C23.0538 46.7631 23.4175 46.4722 23.4175 46.0358V31.4904H24.7266C25.1629 31.4904 25.4538 31.1267 25.4538 30.7631V27.1995C25.4538 26.7631 25.1629 26.3995 24.7266 26.3995ZM7.70838 11.7086C7.70838 9.67219 9.38111 7.99947 11.4175 7.99947C13.4538 7.99947 15.1266 9.67219 15.1266 11.7086C15.1266 13.8176 13.3811 16.5086 11.4175 16.5086C9.45383 16.5086 7.70838 13.8176 7.70838 11.7086ZM23.9993 29.9631H2.18111V27.854H23.9993V29.9631Z" fill="#E32934"/>
<path d="M41.2357 19.927V29.1634C41.2357 31.4907 39.3447 33.4543 36.9447 33.4543H30.7629V42.9088C30.7629 44.1452 29.7447 45.1634 28.5084 45.1634C27.272 45.1634 26.2538 44.1452 26.2538 42.9088V30.8361C26.2538 29.3816 27.4175 28.2179 28.872 28.2179H31.9993V23.927L30.3266 25.5998C30.1811 25.7452 30.0357 25.8179 29.8175 25.8179H22.9084C22.3266 25.8179 21.672 25.527 21.3084 25.0907C20.872 24.6543 20.7266 23.9998 20.7266 23.4179C20.872 22.327 21.8175 21.4543 22.9811 21.4543H27.6357L31.4902 17.5998C32.072 17.0179 32.872 16.6543 33.7447 16.6543H37.9629C39.7811 16.6543 41.2357 18.1088 41.2357 19.927Z" fill="#E32934"/>
<path d="M47.2739 23.2722V45.2358C47.2739 45.6722 46.983 45.9631 46.5466 45.9631H43.783C43.4193 45.9631 43.0557 45.6722 43.0557 45.2358V39.054H36.6557V45.2358C36.6557 45.6722 36.3648 45.9631 35.9284 45.9631H33.1648C32.7284 45.9631 32.4375 45.6722 32.4375 45.2358V35.6358C32.4375 35.1995 32.7284 34.9086 33.1648 34.9086H42.692V23.2722C42.692 22.8358 42.983 22.5449 43.4193 22.5449H46.5466C46.983 22.5449 47.2739 22.8358 47.2739 23.2722Z" fill="#E32934"/>
<path d="M36.0722 15.3435C38.4722 15.3435 40.3631 13.4526 40.3631 11.0526C40.3631 8.65263 38.4722 6.76172 36.0722 6.76172C33.6722 6.76172 31.7812 8.65263 31.7812 11.0526C31.7812 13.3799 33.6722 15.3435 36.0722 15.3435ZM36.0722 8.21626C37.6722 8.21626 38.9085 9.45263 38.9085 11.0526C38.9085 12.6526 37.6722 13.889 36.0722 13.889C34.5449 13.889 33.2358 12.6526 33.2358 11.0526C33.2358 9.45263 34.4722 8.21626 36.0722 8.21626Z" fill="#E32934"/>
<path d="M30.9793 3.27223V8.94496C30.9793 10.0359 30.1065 10.9086 29.0156 10.9086H23.6338L20.652 13.8904C20.5065 14.0359 20.3611 14.1086 20.1429 14.1086C20.0702 14.1086 19.9247 14.1086 19.852 14.0359C19.5611 13.8904 19.4156 13.6722 19.4156 13.3813V10.9086H18.9793C17.8884 10.9086 17.0156 10.0359 17.0156 8.94496V3.27223C17.0156 2.18132 17.8884 1.30859 18.9793 1.30859H29.0884C30.1065 1.30859 30.9793 2.18132 30.9793 3.27223Z" fill="#E32934"/>
</svg>
