<svg width="48" height="48" viewBox="0 0 48 48" fill="none" xmlns="http://www.w3.org/2000/svg">
<path d="M13.9519 24.8134C14.0236 24.6617 14.1526 24.5448 14.3106 24.4882C14.4685 24.4317 14.6425 24.4402 14.7941 24.5119C14.9458 24.5836 15.0628 24.7126 15.1193 24.8705C15.1759 25.0285 15.1674 25.2024 15.0957 25.3541C14.7633 26.0606 14.2344 26.6564 13.5722 27.07C12.91 27.4837 12.1426 27.6977 11.3619 27.6865C10.5811 27.6753 9.8202 27.4393 9.17016 27.0067C8.52013 26.5742 8.00854 25.9634 7.69666 25.2476C7.38478 24.5318 7.28582 23.7413 7.41164 22.9707C7.53747 22.2001 7.88273 21.4821 8.40609 20.9027C8.92946 20.3232 9.60874 19.9069 10.3626 19.7036C11.1165 19.5003 11.9129 19.5186 12.6567 19.7563C12.7363 19.7808 12.8102 19.8209 12.8742 19.8741C12.9382 19.9274 12.991 19.9928 13.0296 20.0666C13.0683 20.1404 13.0919 20.221 13.0992 20.304C13.1065 20.3869 13.0973 20.4705 13.0722 20.5499C13.047 20.6293 13.0064 20.7029 12.9527 20.7665C12.8989 20.8301 12.8332 20.8825 12.7591 20.9206C12.6851 20.9586 12.6042 20.9817 12.5212 20.9884C12.4382 20.9951 12.3547 20.9853 12.2755 20.9595C11.8561 20.8267 11.4114 20.7944 10.9773 20.8655C10.5431 20.9365 10.1318 21.1088 9.7767 21.3684C9.42156 21.6279 9.13255 21.9675 8.93309 22.3596C8.73363 22.7517 8.62933 23.1852 8.62863 23.6251C8.62863 25.8324 11.0726 27.1552 12.9161 25.9868C13.3655 25.7016 13.7247 25.2947 13.9519 24.8134ZM28.3638 10.0676H33.8969C33.9134 10.0677 33.9297 10.0632 33.9437 10.0545C33.9578 10.0458 33.9692 10.0333 33.9764 10.0185C33.9837 10.0037 33.9867 9.98705 33.9849 9.9706C33.9832 9.95415 33.9769 9.93853 33.9666 9.92554L28.4336 2.90047C28.4222 2.88634 28.4066 2.87609 28.3891 2.87111C28.3716 2.86614 28.353 2.86668 28.3359 2.87267C28.3187 2.87866 28.3038 2.8898 28.2932 2.90458C28.2826 2.91935 28.2768 2.93704 28.2767 2.95522V9.98057C28.2769 10.0036 28.2862 10.0256 28.3025 10.0419C28.3188 10.0582 28.3408 10.0675 28.3638 10.0678V10.0676ZM33.2018 38.4954C33.0822 38.3778 33.0142 38.2175 33.0128 38.0497C33.0114 37.882 33.0767 37.7206 33.1943 37.601C33.3119 37.4814 33.4722 37.4134 33.6399 37.412C33.8077 37.4106 33.9691 37.4759 34.0887 37.5935L35.1106 38.6C35.119 38.6084 35.129 38.615 35.14 38.6195C35.151 38.6239 35.1628 38.6261 35.1747 38.6259C35.1865 38.6256 35.1983 38.623 35.2091 38.6181C35.2199 38.6132 35.2296 38.6062 35.2377 38.5975L37.9407 35.7151C38.0558 35.5936 38.2144 35.5226 38.3818 35.5178C38.5491 35.513 38.7116 35.5747 38.8335 35.6894C38.9555 35.8041 39.027 35.9625 39.0324 36.1298C39.0378 36.2971 38.9767 36.4598 38.8624 36.5821L35.6532 40.0026C35.5958 40.064 35.5266 40.1133 35.4498 40.1475C35.373 40.1818 35.2901 40.2002 35.206 40.2019C35.1219 40.2035 35.0384 40.1882 34.9603 40.157C34.8822 40.1258 34.8112 40.0792 34.7514 40.02L33.2018 38.4954ZM30.8252 34.4869C31.5352 40.3738 31.5725 40.6876 35.561 43.2612C35.5749 43.2709 35.5914 43.2761 35.6084 43.2761C35.6253 43.2761 35.6418 43.2709 35.6557 43.2612C39.6442 40.6876 39.6815 40.3737 40.3916 34.4869L40.476 33.7894C40.4783 33.7681 40.4727 33.7468 40.4603 33.7293C40.448 33.7119 40.4296 33.6996 40.4088 33.6947L35.7452 32.6384C35.6654 32.621 35.5334 32.7779 35.2295 32.7032C35.1723 32.6883 31.2212 33.6 30.8075 33.6947C30.7867 33.6996 30.7684 33.7119 30.756 33.7293C30.7436 33.7468 30.738 33.7681 30.7403 33.7894L30.8252 34.4869ZM35.2571 44.5715C30.3868 41.445 30.3693 41.2831 29.5671 34.634C29.5222 34.2728 29.4774 33.8892 29.4052 33.2987C29.3849 33.1356 29.4289 32.971 29.528 32.8398C29.6271 32.7086 29.7734 32.6212 29.9358 32.5962L35.1973 31.4051C35.3767 31.3553 35.586 31.303 35.7578 31.3453L41.3233 32.6034C41.6496 32.6784 41.8315 32.9572 41.8115 33.2984C41.8091 33.3433 41.6671 34.5017 41.6496 34.6337C40.8475 41.2879 40.8301 41.4449 35.9496 44.5763C35.8463 44.6432 35.7257 44.6784 35.6026 44.6776C35.4795 44.6767 35.3594 44.6397 35.2571 44.5713V44.5715ZM10.2275 10.444C10.1732 10.3809 10.1318 10.3077 10.1058 10.2286C10.0798 10.1494 10.0697 10.066 10.076 9.98294C10.0824 9.8999 10.1051 9.81894 10.1428 9.74468C10.1805 9.67043 10.2324 9.60435 10.2957 9.55023C10.359 9.49612 10.4324 9.45503 10.5116 9.42933C10.5908 9.40363 10.6743 9.39383 10.7573 9.40047C10.8404 9.40712 10.9212 9.43009 10.9953 9.46807C11.0695 9.50605 11.1353 9.55829 11.1892 9.62179L11.7597 10.292C11.7756 10.3098 11.7979 10.3205 11.8217 10.3219C11.8455 10.3233 11.8689 10.3152 11.8867 10.2994L14.2211 8.1321C14.2819 8.07547 14.3534 8.03137 14.4312 8.00234C14.5091 7.9733 14.592 7.95989 14.6751 7.96287C14.7581 7.96586 14.8398 7.98517 14.9154 8.01972C14.991 8.05426 15.0591 8.10336 15.1157 8.16421C15.1723 8.22506 15.2164 8.29646 15.2455 8.37435C15.2745 8.45224 15.2879 8.53509 15.2849 8.61816C15.2819 8.70123 15.2626 8.78291 15.2281 8.85851C15.1935 8.93412 15.1444 9.00218 15.0836 9.05882L12.1987 11.7369H12.1962C12.1341 11.7952 12.0607 11.8403 11.9806 11.8693C11.9005 11.8984 11.8153 11.9109 11.7303 11.906C11.6452 11.9011 11.562 11.8789 11.4858 11.8409C11.4095 11.8028 11.3419 11.7496 11.2868 11.6846L10.2275 10.444ZM13.9519 11.7743C13.9874 11.6992 14.0374 11.6318 14.0989 11.576C14.1604 11.5202 14.2324 11.4771 14.3106 11.4491C14.3888 11.4211 14.4717 11.4087 14.5547 11.4128C14.6376 11.4168 14.719 11.4372 14.7941 11.4727C14.8692 11.5082 14.9366 11.5581 14.9924 11.6197C15.0482 11.6812 15.0913 11.7531 15.1193 11.8313C15.1473 11.9095 15.1596 11.9925 15.1556 12.0754C15.1515 12.1584 15.1312 12.2397 15.0957 12.3148C13.8998 14.851 10.5417 15.4513 8.54866 13.4586C7.9046 12.8147 7.49562 11.9731 7.38739 11.0689C7.27915 10.1646 7.47795 9.25026 7.95185 8.47259C8.42576 7.69492 9.14726 7.09907 10.0005 6.78075C10.8538 6.46242 11.7892 6.44008 12.6567 6.71732C12.7357 6.74236 12.809 6.78272 12.8724 6.83609C12.9358 6.88946 12.9881 6.9548 13.0263 7.02838C13.0645 7.10196 13.0878 7.18234 13.0949 7.26492C13.102 7.3475 13.0927 7.43068 13.0677 7.50969C13.0426 7.58871 13.0023 7.66202 12.9489 7.72543C12.8955 7.78885 12.8302 7.84113 12.7566 7.8793C12.683 7.91746 12.6027 7.94076 12.5201 7.94787C12.4375 7.95497 12.3543 7.94573 12.2753 7.92069C11.856 7.78784 11.4112 7.75563 10.9771 7.82666C10.543 7.8977 10.1317 8.06998 9.77656 8.32956C9.42142 8.58914 9.13241 8.92872 8.93294 9.32079C8.73348 9.71286 8.62916 10.1464 8.62844 10.5863C8.62844 12.7961 11.0724 14.1164 12.9159 12.948C13.366 12.6634 13.7254 12.2562 13.9519 11.7743ZM18.2319 13.0024C18.0651 13.0004 17.9058 12.9327 17.7886 12.814C17.6713 12.6953 17.6056 12.5352 17.6056 12.3684C17.6056 12.2016 17.6713 12.0415 17.7886 11.9228C17.9058 11.8042 18.0651 11.7365 18.2319 11.7344H24.2413C24.3252 11.7334 24.4085 11.7491 24.4863 11.7805C24.5641 11.8119 24.6349 11.8584 24.6946 11.9174C24.7543 11.9764 24.8017 12.0466 24.834 12.124C24.8664 12.2014 24.883 12.2845 24.883 12.3684C24.883 12.4523 24.8664 12.5354 24.834 12.6128C24.8017 12.6903 24.7543 12.7605 24.6946 12.8195C24.6349 12.8784 24.5641 12.925 24.4863 12.9564C24.4085 12.9878 24.3252 13.0034 24.2413 13.0024H18.2319ZM18.2319 26.0416C18.0638 26.0416 17.9025 25.9748 17.7836 25.8559C17.6647 25.737 17.5979 25.5758 17.5979 25.4076C17.5979 25.2394 17.6647 25.0782 17.7836 24.9593C17.9025 24.8404 18.0638 24.7736 18.2319 24.7736H24.2413C24.4094 24.7736 24.5707 24.8404 24.6896 24.9593C24.8085 25.0782 24.8753 25.2394 24.8753 25.4076C24.8753 25.5758 24.8085 25.737 24.6896 25.8559C24.5707 25.9748 24.4094 26.0416 24.2413 26.0416H18.2319ZM18.2319 22.4742C18.0638 22.4742 17.9025 22.4074 17.7836 22.2885C17.6647 22.1696 17.5979 22.0083 17.5979 21.8401C17.5979 21.672 17.6647 21.5107 17.7836 21.3918C17.9025 21.2729 18.0638 21.2061 18.2319 21.2061H29.5721C29.7403 21.2061 29.9015 21.2729 30.0204 21.3918C30.1393 21.5107 30.2061 21.672 30.2061 21.8401C30.2061 22.0083 30.1393 22.1696 30.0204 22.2885C29.9015 22.4074 29.7403 22.4742 29.5721 22.4742H18.2319ZM9.44538 37.7381C9.27722 37.7381 9.11595 37.6713 8.99705 37.5524C8.87815 37.4335 8.81135 37.2722 8.81135 37.104C8.81135 36.9359 8.87815 36.7746 8.99705 36.6557C9.11595 36.5368 9.27722 36.47 9.44538 36.47H21.8043C21.9725 36.47 22.1338 36.5368 22.2527 36.6557C22.3716 36.7746 22.4384 36.9359 22.4384 37.104C22.4384 37.2722 22.3716 37.4335 22.2527 37.5524C22.1338 37.6713 21.9725 37.7381 21.8043 37.7381H9.44538ZM35.6557 46.4748C42.1031 42.3217 42.1526 41.9279 43.269 32.6561C43.3263 32.1902 43.3861 31.702 43.4408 31.2485C43.4432 31.2269 43.4377 31.2052 43.4253 31.1874C43.413 31.1695 43.3946 31.1568 43.3736 31.1514L35.6283 29.3975C35.6151 29.3951 35.6016 29.3951 35.5885 29.3975L27.8457 31.1512C27.8241 31.156 27.8051 31.1685 27.7922 31.1864C27.7794 31.2043 27.7736 31.2264 27.7759 31.2483C28.73 39.2128 27.7136 41.4126 35.561 46.4748C35.5749 46.4846 35.5914 46.4898 35.6084 46.4898C35.6253 46.4898 35.6419 46.4846 35.6557 46.4748ZM9.44538 34.173C9.27722 34.173 9.11595 34.1062 8.99705 33.9873C8.87815 33.8684 8.81135 33.7072 8.81135 33.539C8.81135 33.3708 8.87815 33.2096 8.99705 33.0907C9.11595 32.9718 9.27722 32.905 9.44538 32.905H26.6025C26.6149 32.9047 26.6272 32.9018 26.6384 32.8965C26.6497 32.8913 26.6598 32.8837 26.668 32.8744C26.6762 32.865 26.6824 32.854 26.6861 32.8422C26.6898 32.8303 26.6911 32.8178 26.6898 32.8054L26.4406 30.7551C26.4206 30.592 26.4648 30.4276 26.5638 30.2965C26.6628 30.1654 26.8089 30.0779 26.9712 30.0525H26.9762L34.6817 28.3088C34.7011 28.304 34.7183 28.2928 34.7305 28.2769C34.7427 28.2611 34.7492 28.2416 34.7489 28.2216V11.423C34.749 11.4115 34.7467 11.4002 34.7424 11.3896C34.738 11.3789 34.7316 11.3693 34.7235 11.3612C34.7154 11.3531 34.7058 11.3467 34.6951 11.3423C34.6845 11.3379 34.6732 11.3357 34.6617 11.3358H27.6414C27.4733 11.3355 27.3121 11.2684 27.1935 11.1492C27.0748 11.0301 27.0083 10.8687 27.0086 10.7006V9.52466C27.0086 9.51287 27.0064 9.50118 27.0019 9.49027C26.9974 9.47936 26.9908 9.46945 26.9824 9.46111C26.9741 9.45277 26.9642 9.44616 26.9533 9.44167C26.9424 9.43718 26.9307 9.43489 26.9189 9.43494H18.2319C18.0651 9.43291 17.9058 9.36523 17.7886 9.24655C17.6713 9.12788 17.6056 8.96778 17.6056 8.80096C17.6056 8.63414 17.6713 8.47404 17.7886 8.35536C17.9058 8.23669 18.0651 8.169 18.2319 8.16697H26.9189C26.9423 8.1672 26.9649 8.15817 26.9817 8.14184C26.9985 8.12551 27.0082 8.10321 27.0086 8.07979V1.595C27.0082 1.57157 26.9985 1.54926 26.9817 1.53292C26.9649 1.51659 26.9423 1.50757 26.9189 1.50782H4.64969C4.62665 1.50809 4.60463 1.51736 4.58833 1.53365C4.57204 1.54994 4.56277 1.57196 4.5625 1.595V42.7853C4.56243 42.7968 4.56463 42.8081 4.56899 42.8187C4.57334 42.8294 4.57976 42.839 4.58787 42.8471C4.59598 42.8552 4.60562 42.8616 4.61624 42.866C4.62685 42.8703 4.63822 42.8725 4.64969 42.8725H28.8795C28.8952 42.8727 28.9108 42.8686 28.9244 42.8606C28.938 42.8527 28.9491 42.8411 28.9566 42.8272C28.964 42.8133 28.9675 42.7976 28.9667 42.7819C28.9658 42.7662 28.9607 42.7509 28.9518 42.7379C27.7734 40.9667 27.4072 38.6947 26.8641 34.2503C26.8618 34.2289 26.8515 34.2091 26.8354 34.1948C26.8193 34.1806 26.7985 34.1728 26.7769 34.173H9.44538ZM10.2275 23.4832C10.1206 23.3554 10.0684 23.1906 10.0823 23.0245C10.0961 22.8585 10.175 22.7046 10.3016 22.5963C10.4283 22.4881 10.5925 22.4341 10.7587 22.4462C10.9249 22.4584 11.0796 22.5356 11.1892 22.6611L11.7597 23.3312C11.7756 23.349 11.7979 23.3598 11.8217 23.3612C11.8455 23.3626 11.8688 23.3545 11.8867 23.3387L14.2211 21.1713C14.344 21.0569 14.5073 20.9961 14.6751 21.0021C14.8428 21.0081 15.0013 21.0805 15.1157 21.2034C15.2301 21.3263 15.291 21.4896 15.2849 21.6574C15.2789 21.8252 15.2065 21.9837 15.0836 22.098L12.1987 24.7762H12.1962C12.1339 24.8342 12.0605 24.8791 11.9805 24.908C11.9004 24.9369 11.8153 24.9493 11.7303 24.9444C11.6453 24.9395 11.5622 24.9174 11.486 24.8795C11.4098 24.8416 11.342 24.7887 11.2868 24.7239L10.2275 23.4832Z" fill="#E32934"/>
</svg>
