<svg width="48" height="48" viewBox="0 0 48 48" fill="none" xmlns="http://www.w3.org/2000/svg">
<path d="M23.9967 15.6667V9H7.33008V39H40.6634V15.6667H23.9967ZM13.9967 35.6667H10.6634V32.3333H13.9967V35.6667ZM13.9967 29H10.6634V25.6667H13.9967V29ZM13.9967 22.3333H10.6634V19H13.9967V22.3333ZM13.9967 15.6667H10.6634V12.3333H13.9967V15.6667ZM20.6634 35.6667H17.3301V32.3333H20.6634V35.6667ZM20.6634 29H17.3301V25.6667H20.6634V29ZM20.6634 22.3333H17.3301V19H20.6634V22.3333ZM20.6634 15.6667H17.3301V12.3333H20.6634V15.6667ZM37.3301 35.6667H23.9967V32.3333H27.3301V29H23.9967V25.6667H27.3301V22.3333H23.9967V19H37.3301V35.6667ZM33.9967 22.3333H30.6634V25.6667H33.9967V22.3333ZM33.9967 29H30.6634V32.3333H33.9967V29Z" fill="#E32934"/>
</svg>
