<svg width="48" height="48" viewBox="0 0 48 48" fill="none" xmlns="http://www.w3.org/2000/svg">
<g clip-path="url(#clip0_28_25240)">
<path d="M40.8 7.2H32.4V3H28.2V7.2H19.8V3H15.6V7.2H7.2C4.89 7.2 3 9.09 3 11.4V40.8C3 43.11 4.89 45 7.2 45H40.8C43.11 45 45 43.11 45 40.8V11.4C45 9.09 43.11 7.2 40.8 7.2ZM24 40.8C18.225 40.8 13.5 36.075 13.5 30.3C13.5 24.525 18.225 19.8 24 19.8C29.775 19.8 34.5 24.525 34.5 30.3C34.5 36.075 29.775 40.8 24 40.8ZM40.8 15.6H7.2V11.4H40.8V15.6Z" fill="#E32934"/>
<path d="M22.9469 34.5102L19.7969 31.3602L21.8969 29.2602L22.9469 30.3102L26.0969 27.1602L28.1969 29.2602L22.9469 34.5102Z" fill="#E32934"/>
</g>
<defs>
<clipPath id="clip0_28_25240">
<rect width="42" height="42" fill="white" transform="translate(3 3)"/>
</clipPath>
</defs>
</svg>
