<svg width="48" height="48" viewBox="0 0 48 48" fill="none" xmlns="http://www.w3.org/2000/svg">
<path d="M20.6673 30.6667V29H9.01732L9.00065 35.6667C9.00065 37.5167 10.484 39 12.334 39H35.6673C37.5173 39 39.0007 37.5167 39.0007 35.6667V29H27.334V30.6667H20.6673ZM37.334 15.6667H30.6507V12.3333L27.3173 9H20.6507L17.3173 12.3333V15.6667H10.6673C8.83398 15.6667 7.33398 17.1667 7.33398 19V24C7.33398 25.85 8.81732 27.3333 10.6673 27.3333H20.6673V24H27.334V27.3333H37.334C39.1673 27.3333 40.6673 25.8333 40.6673 24V19C40.6673 17.1667 39.1673 15.6667 37.334 15.6667ZM27.334 15.6667H20.6673V12.3333H27.334V15.6667Z" fill="#E32934"/>
</svg>
