<svg width="48" height="48" viewBox="0 0 48 48" fill="none" xmlns="http://www.w3.org/2000/svg">
<path d="M35.6667 9.0013H28.7C28 7.06797 26.1667 5.66797 24 5.66797C21.8333 5.66797 20 7.06797 19.3 9.0013H12.3333C10.5 9.0013 9 10.5013 9 12.3346V35.668C9 37.5013 10.5 39.0013 12.3333 39.0013H35.6667C37.5 39.0013 39 37.5013 39 35.668V12.3346C39 10.5013 37.5 9.0013 35.6667 9.0013ZM24 9.0013C24.9167 9.0013 25.6667 9.7513 25.6667 10.668C25.6667 11.5846 24.9167 12.3346 24 12.3346C23.0833 12.3346 22.3333 11.5846 22.3333 10.668C22.3333 9.7513 23.0833 9.0013 24 9.0013ZM20.6667 32.3346L14 25.668L16.35 23.318L20.6667 27.618L31.65 16.6346L34 19.0013L20.6667 32.3346Z" fill="#E32934"/>
</svg>
