<svg width="48" height="48" viewBox="0 0 48 48" fill="none" xmlns="http://www.w3.org/2000/svg">
<path d="M23.9997 16.9635V10.2969H7.33301V40.2969H40.6663V16.9635H23.9997ZM13.9997 36.9635H10.6663V33.6302H13.9997V36.9635ZM13.9997 30.2969H10.6663V26.9635H13.9997V30.2969ZM13.9997 23.6302H10.6663V20.2969H13.9997V23.6302ZM13.9997 16.9635H10.6663V13.6302H13.9997V16.9635ZM20.6663 36.9635H17.333V33.6302H20.6663V36.9635ZM20.6663 30.2969H17.333V26.9635H20.6663V30.2969ZM20.6663 23.6302H17.333V20.2969H20.6663V23.6302ZM20.6663 16.9635H17.333V13.6302H20.6663V16.9635ZM37.333 36.9635H23.9997V33.6302H27.333V30.2969H23.9997V26.9635H27.333V23.6302H23.9997V20.2969H37.333V36.9635ZM33.9997 23.6302H30.6663V26.9635H33.9997V23.6302ZM33.9997 30.2969H30.6663V33.6302H33.9997V30.2969Z" fill="#E32934"/>
</svg>
