<svg width="25" height="24" viewBox="0 0 25 24" fill="none" xmlns="http://www.w3.org/2000/svg">
<g clip-path="url(#clip0_16032_1237)">
<path d="M6.83595 6.42188H6.53502L5.97266 9.23438H7.39831L6.83595 6.42188Z" fill="#404040"/>
<path d="M18.207 12.0469C18.5106 12.8625 18.9145 13.5226 19.3614 14.0844C19.8083 13.5226 20.259 12.8624 20.5626 12.0469H18.207Z" fill="#404040"/>
<path d="M22.2228 4.26562H13.4908L15.3115 18.8756C15.3437 19.4731 15.1804 20.0357 14.7904 20.4762L11.707 24H22.2228C23.386 24 24.3322 23.0538 24.3322 21.8906V6.42188C24.3322 5.25872 23.386 4.26562 22.2228 4.26562ZM22.2228 12.0469H22.035C21.635 13.3305 21.0005 14.3348 20.3412 15.1267C20.8577 15.5989 21.41 15.9862 21.9592 16.4201C22.262 16.6625 22.3114 17.1047 22.0683 17.4082C21.8264 17.7113 21.3825 17.7604 21.0802 17.5174C20.4836 17.0464 19.9235 16.6522 19.3635 16.1383C18.8034 16.6522 18.2902 17.0464 17.6935 17.5174C17.3913 17.7604 16.9474 17.7113 16.7055 17.4082C16.4624 17.1047 16.5118 16.6625 16.8146 16.4201C17.3638 15.9862 17.8692 15.5989 18.3857 15.1267C17.7264 14.3349 17.1388 13.3305 16.7387 12.0469H16.551C16.1623 12.0469 15.8478 11.7324 15.8478 11.3438C15.8478 10.9551 16.1623 10.6406 16.551 10.6406H18.6603V9.9375C18.6603 9.54886 18.9748 9.23438 19.3635 9.23438C19.7521 9.23438 20.0666 9.54886 20.0666 9.9375V10.6406H22.2228C22.6115 10.6406 22.926 10.9551 22.926 11.3438C22.926 11.7324 22.6115 12.0469 22.2228 12.0469Z" fill="#404040"/>
<path d="M11.7772 1.84777C11.6461 0.794437 10.7459 0 9.68434 0H2.44141C1.27825 0 0.332031 0.946219 0.332031 2.10938V17.6719C0.332031 18.835 1.27825 19.7812 2.44141 19.7812C6.64469 19.7812 9.66845 19.7812 13.5297 19.7812C13.7349 19.5468 13.9068 19.4 13.9141 19.0939C13.9158 19.0172 11.7867 1.92389 11.7772 1.84777ZM8.95441 13.4394C8.58156 13.5161 8.20389 13.2741 8.12702 12.888L7.67762 10.6406H5.68961L5.24022 12.888C5.1647 13.2684 4.798 13.5183 4.41283 13.4394C4.03244 13.3632 3.78522 12.9931 3.86144 12.612L5.26764 5.58075C5.33355 5.25253 5.62197 5.01562 5.95703 5.01562H7.41016C7.74522 5.01562 8.03364 5.25253 8.09955 5.58075L9.5058 12.612C9.58202 12.9931 9.33484 13.3632 8.95441 13.4394Z" fill="#404040"/>
<path d="M8.54688 21.1875L8.66753 22.1522C8.74797 22.7983 9.17725 23.4571 9.88337 23.7861C11.2159 22.3192 10.4097 23.2066 12.244 21.1875H8.54688Z" fill="#404040"/>
</g>
<defs>
<clipPath id="clip0_16032_1237">
<rect width="24" height="24" fill="white" transform="translate(0.332031)"/>
</clipPath>
</defs>
</svg>
