<svg width="48" height="48" viewBox="0 0 48 48" fill="none" xmlns="http://www.w3.org/2000/svg">
<path d="M13.1136 8.35742V18.8753H8.10938V10.1312C8.10938 9.1572 8.90918 8.35743 9.88769 8.35743L13.1136 8.35742Z" fill="#E32934"/>
<path d="M43.7289 10.9799H37.2188C36.4925 10.9799 35.9062 10.3936 35.9062 9.66735V3.15723C36.0944 3.24474 36.2694 3.36287 36.4181 3.51161L43.3745 10.468C43.5232 10.6168 43.6414 10.7917 43.7289 10.9799Z" fill="#E32934"/>
<path d="M19.1583 11.932H31.3449C31.4667 11.932 31.5657 11.833 31.5657 11.7114V7.65633C31.5657 7.53459 31.4667 7.43555 31.3449 7.43555H19.1583C19.0365 7.43555 18.9375 7.53459 18.9375 7.65633V11.7114C18.9375 11.833 19.0365 11.932 19.1583 11.932ZM22.587 8.58201H25.4001C25.6468 8.58201 25.8469 8.78207 25.8469 9.02883C25.8469 9.27556 25.6468 9.47565 25.4001 9.47565H22.587C22.3402 9.47565 22.1402 9.27556 22.1402 9.02883C22.1402 8.78207 22.3402 8.58201 22.587 8.58201ZM20.6944 8.58201H20.9355C21.1822 8.58201 21.3823 8.78207 21.3823 9.02883C21.3823 9.27556 21.1822 9.47565 20.9355 9.47565H20.6944C20.4477 9.47565 20.2476 9.27556 20.2476 9.02883C20.2476 8.78207 20.4477 8.58201 20.6944 8.58201Z" fill="#E32934"/>
<path d="M37.2117 11.8736C35.9919 11.8736 35.0045 10.8862 35.0045 9.66638V3H16.0777C14.9294 3 14 3.92934 14 5.07764V18.9823C14.5674 19.1476 15.0723 19.4962 15.4208 19.9921L17.914 23.504H37.6406C39.1017 23.504 40.2902 24.6925 40.2902 26.1536V37.7081H41.8004C42.9487 37.7081 43.8781 36.7787 43.8781 35.6304V11.8736H37.2117ZM18.0337 7.65648C18.0337 7.04191 18.5335 6.54208 19.1481 6.54208H31.3347C31.9491 6.54208 32.4491 7.04191 32.4491 7.65648V11.7116C32.4491 12.3259 31.9491 12.8258 31.3347 12.8258H19.1481C18.5335 12.8258 18.0337 12.3259 18.0337 11.7116V7.65648ZM39.3987 21.7379H18.48C18.2333 21.7379 18.0332 21.5379 18.0332 21.2911C18.0332 21.0444 18.2333 20.8443 18.48 20.8443H39.3987C39.6456 20.8443 39.8455 21.0444 39.8455 21.2911C39.8455 21.5379 39.6456 21.7379 39.3987 21.7379ZM39.3987 19.1288H18.48C18.2333 19.1288 18.0332 18.9288 18.0332 18.682C18.0332 18.4353 18.2333 18.2352 18.48 18.2352H39.3987C39.6456 18.2352 39.8455 18.4353 39.8455 18.682C39.8455 18.9288 39.6456 19.1288 39.3987 19.1288ZM39.3987 16.5198H18.4805C18.2337 16.5198 18.0337 16.3197 18.0337 16.073C18.0337 15.8262 18.2337 15.6262 18.4805 15.6262H39.3987C39.6456 15.6262 39.8455 15.8262 39.8455 16.073C39.8455 16.3197 39.6456 16.5198 39.3987 16.5198Z" fill="#E32934"/>
<path d="M32.563 30.4824H10.9679C10.6323 30.4824 10.3594 30.7554 10.3594 31.0909V39.0361C10.3594 39.3715 10.6323 39.6444 10.9679 39.6444H32.563C32.8985 39.6444 33.1717 39.3715 33.1717 39.0361V31.0909C33.1717 30.7554 32.8985 30.4824 32.563 30.4824ZM13.2726 32.9377H13.0313C12.7845 32.9377 12.5845 32.7376 12.5845 32.4909C12.5845 32.2441 12.7845 32.0441 13.0313 32.0441H13.2726C13.5193 32.0441 13.7194 32.2441 13.7194 32.4909C13.7194 32.7376 13.5193 32.9377 13.2726 32.9377ZM17.8953 32.9377H14.7655C14.5188 32.9377 14.3187 32.7376 14.3187 32.4909C14.3187 32.2441 14.5188 32.0441 14.7655 32.0441H17.8953C18.1421 32.0441 18.3421 32.2441 18.3421 32.4909C18.3422 32.7376 18.1421 32.9377 17.8953 32.9377Z" fill="#E32934"/>
<path d="M37.6469 24.3974H17.4544L14.6951 20.5066C14.3659 20.0424 13.8321 19.7666 13.2631 19.7666H5.88053C4.91097 19.7666 4.125 20.5526 4.125 21.5221V43.244C4.125 44.2136 4.91097 44.9996 5.88053 44.9996H37.6468C38.6164 44.9996 39.4024 44.2136 39.4024 43.244V26.153C39.4024 25.1834 38.6164 24.3974 37.6469 24.3974ZM34.0635 39.0356C34.0635 39.8637 33.3894 40.5374 32.5612 40.5374H10.966C10.1379 40.5374 9.46395 39.8637 9.46395 39.0356V31.0903C9.46395 30.2622 10.1379 29.5882 10.966 29.5882H32.5612C33.3894 29.5882 34.0635 30.2622 34.0635 31.0903L34.0635 39.0356Z" fill="#E32934"/>
</svg>
