<svg width="48" height="48" viewBox="0 0 48 48" fill="none" xmlns="http://www.w3.org/2000/svg">
<path d="M28.8574 21.4287C28.8574 19.9595 28.4218 18.5233 27.6056 17.3017C26.7893 16.08 25.6292 15.1279 24.2718 14.5656C22.9144 14.0033 21.4208 13.8561 19.9798 14.1427C18.5388 14.4292 17.2151 15.1367 16.1762 16.1755C15.1372 17.2143 14.4296 18.5379 14.1429 19.9789C13.8561 21.4198 14.0031 22.9135 14.5652 24.2709C15.1273 25.6283 16.0793 26.7886 17.3008 27.605C18.5224 28.4214 19.9585 28.8573 21.4278 28.8574C23.3975 28.8556 25.286 28.0723 26.6789 26.6796C28.0718 25.2869 28.8553 23.3985 28.8574 21.4287Z" fill="#E32934"/>
<path d="M36 2H12C9.34879 2.00311 6.80706 3.05768 4.93237 4.93237C3.05768 6.80706 2.00311 9.34879 2 12V36C2.00311 38.6512 3.05768 41.1929 4.93237 43.0676C6.80706 44.9423 9.34879 45.9969 12 46H36C38.6512 45.9969 41.1929 44.9423 43.0676 43.0676C44.9423 41.1929 45.9969 38.6512 46 36V12C45.9969 9.34879 44.9423 6.80706 43.0676 4.93237C41.1929 3.05768 38.6512 2.00311 36 2ZM37.414 37.414C37.2283 37.5998 37.0079 37.7471 36.7653 37.8477C36.5226 37.9482 36.2626 37.9999 35.9999 37.9999C35.7373 37.9999 35.4772 37.9482 35.2346 37.8477C34.992 37.7471 34.7715 37.5998 34.5859 37.414L27.9628 30.7912C25.6149 32.4315 22.7376 33.1327 19.8982 32.7565C17.0588 32.3803 14.4634 30.954 12.6236 28.7589C10.7838 26.5637 9.83315 23.7589 9.95907 20.8975C10.085 18.036 11.2783 15.3256 13.3039 13.3005C15.3294 11.2754 18.0401 10.0827 20.9015 9.95733C23.763 9.83202 26.5676 10.7832 28.7624 12.6235C30.9571 14.4638 32.3829 17.0595 32.7585 19.899C33.1341 22.7384 32.4323 25.6156 30.7914 27.9632L37.414 34.586C37.5997 34.7717 37.7471 34.9921 37.8476 35.2347C37.9481 35.4773 37.9999 35.7374 37.9999 36C37.9999 36.2626 37.9481 36.5227 37.8476 36.7653C37.7471 37.0079 37.5997 37.2283 37.414 37.414Z" fill="#E32934"/>
</svg>
