<svg width="44" height="44" viewBox="0 0 44 44" fill="none" xmlns="http://www.w3.org/2000/svg">
<g clip-path="url(#clip0_19_27454)">
<path d="M15.7847 25.1247H10.114C9.85136 24.1265 9.71094 23.0794 9.71094 22C9.71094 20.9206 9.85136 19.8734 10.114 18.8753H15.7847C15.6894 19.8894 15.6401 20.936 15.6401 22C15.6401 23.064 15.6894 24.1106 15.7847 25.1247ZM16.0499 27.1872H10.8611C12.302 30.269 14.9847 32.6581 18.2617 33.707C17.904 33.1404 17.5734 32.4851 17.2755 31.745C16.74 30.4149 16.327 28.8676 16.0499 27.1872ZM18.1422 27.1872C18.3918 28.5844 18.7431 29.8676 19.1887 30.9747C20.0032 32.9978 21.0541 34.2056 21.9999 34.2056C22.9457 34.2056 23.9968 32.9978 24.8111 30.9747C25.2568 29.8675 25.608 28.5843 25.8576 27.1872H18.1422ZM25.8578 16.8128C25.6082 15.4156 25.2569 14.1324 24.8113 13.0253C23.9968 11.0022 22.9459 9.79438 22.0001 9.79438C21.0543 9.79438 20.0032 11.0022 19.1889 13.0253C18.7432 14.1325 18.392 15.4157 18.1424 16.8128H25.8578ZM17.2754 12.255C17.5734 11.5149 17.9039 10.8596 18.2616 10.293C14.9846 11.3419 12.302 13.731 10.861 16.8128H16.0498C16.327 15.1324 16.74 13.5851 17.2754 12.255ZM17.7027 22C17.7027 23.0693 17.7548 24.1168 17.8558 25.1247H26.1442C26.2452 24.1168 26.2973 23.0692 26.2973 22C26.2973 20.9308 26.2452 19.8832 26.1442 18.8753H17.8558C17.7548 19.8832 17.7027 20.9307 17.7027 22ZM25.7383 10.293C26.096 10.8596 26.4266 11.5149 26.7245 12.255C27.26 13.5852 27.673 15.1324 27.9501 16.8128H33.1388C31.698 13.731 29.0153 11.3419 25.7383 10.293ZM26.7246 31.745C26.4266 32.4851 26.0961 33.1404 25.7384 33.707C29.0154 32.6581 31.698 30.269 33.139 27.1872H27.9502C27.673 28.8676 27.26 30.4149 26.7246 31.745ZM44 6.7369V37.2632C44 40.9778 40.9778 44 37.2631 44H6.7369C3.02216 44 0 40.9778 0 37.2631V6.7369C0 3.02216 3.02216 0 6.7369 0H37.2632C40.9778 0 44 3.02216 44 6.7369ZM36.3516 22C36.3516 14.0865 29.9135 7.64844 22 7.64844C14.0865 7.64844 7.64844 14.0865 7.64844 22C7.64844 29.9135 14.0865 36.3516 22 36.3516C29.9135 36.3516 36.3516 29.9135 36.3516 22ZM28.3598 22C28.3598 23.064 28.3105 24.1106 28.2152 25.1247H33.8859C34.1486 24.1265 34.289 23.0794 34.289 22C34.289 20.9206 34.1486 19.8734 33.8859 18.8753H28.2152C28.3106 19.8894 28.3598 20.936 28.3598 22Z" fill="#E32934"/>
</g>
<defs>
<clipPath id="clip0_19_27454">
<rect width="44" height="44" fill="white"/>
</clipPath>
</defs>
</svg>
