<svg width="48" height="48" viewBox="0 0 48 48" fill="none" xmlns="http://www.w3.org/2000/svg">
<path d="M37.334 15.6663H29.0007V10.6663C29.0007 8.83301 27.5007 7.33301 25.6673 7.33301H22.334C20.5007 7.33301 19.0007 8.83301 19.0007 10.6663V15.6663H10.6673C8.83398 15.6663 7.33398 17.1663 7.33398 18.9997V37.333C7.33398 39.1663 8.83398 40.6663 10.6673 40.6663H37.334C39.1673 40.6663 40.6673 39.1663 40.6673 37.333V18.9997C40.6673 17.1663 39.1673 15.6663 37.334 15.6663ZM19.0007 23.9997C20.384 23.9997 21.5007 25.1163 21.5007 26.4997C21.5007 27.883 20.384 28.9997 19.0007 28.9997C17.6173 28.9997 16.5007 27.883 16.5007 26.4997C16.5007 25.1163 17.6173 23.9997 19.0007 23.9997ZM24.0007 33.9997H14.0007V32.7497C14.0007 31.083 17.334 30.2497 19.0007 30.2497C20.6673 30.2497 24.0007 31.083 24.0007 32.7497V33.9997ZM25.6673 18.9997H22.334V10.6663H25.6673V18.9997ZM34.0007 31.4997H27.334V28.9997H34.0007V31.4997ZM34.0007 26.4997H27.334V23.9997H34.0007V26.4997Z" fill="#E32934"/>
</svg>
