<svg width="48" height="48" viewBox="0 0 48 48" fill="none" xmlns="http://www.w3.org/2000/svg">
<path d="M35.6667 10.6683H34V7.33496H30.6667V10.6683H17.3333V7.33496H14V10.6683H12.3333C10.4833 10.6683 9.01667 12.1683 9.01667 14.0016L9 37.335C9 39.1683 10.4833 40.6683 12.3333 40.6683H35.6667C37.5 40.6683 39 39.1683 39 37.335V14.0016C39 12.1683 37.5 10.6683 35.6667 10.6683ZM35.6667 37.335H12.3333V20.6683H35.6667V37.335ZM19 27.335H15.6667V24.0016H19V27.335ZM25.6667 27.335H22.3333V24.0016H25.6667V27.335ZM32.3333 27.335H29V24.0016H32.3333V27.335ZM19 34.0016H15.6667V30.6683H19V34.0016ZM25.6667 34.0016H22.3333V30.6683H25.6667V34.0016ZM32.3333 34.0016H29V30.6683H32.3333V34.0016Z" fill="#E32934"/>
</svg>
