<svg width="48" height="48" viewBox="0 0 48 48" fill="none" xmlns="http://www.w3.org/2000/svg">
<path d="M30.667 12.835C31.6172 12.8351 32.4661 13.3031 32.9746 14.0234L32.9756 14.0244L40.0527 24.001L32.9756 33.9785L32.9746 33.9795C32.4661 34.6998 31.6172 35.1679 30.667 35.168L12.334 35.1514H12.333C10.7727 35.1512 9.5 33.8888 9.5 32.335V15.668C9.50018 14.1143 10.7728 12.8517 12.333 12.8516H12.334L30.667 12.835Z" stroke="#E32934"/>
<path d="M31.25 16.96C30.7763 16.3771 29.9868 16 29.1053 16L14.6316 16.0114C13.1842 16.0114 12 17.0286 12 18.2857V29.7143C12 30.9714 13.1842 31.9886 14.6316 31.9886L29.1053 32C29.9868 32 30.7763 31.6229 31.25 31.04L37 24L31.25 16.96Z" fill="#E32934"/>
</svg>
