<svg width="48" height="48" viewBox="0 0 48 48" fill="none" xmlns="http://www.w3.org/2000/svg">
<path d="M20.1366 26.8183L24.0033 23.885L27.8533 26.8183L26.3866 22.0683L30.2533 19.0016H25.5199L24.0033 14.3183L22.4866 19.0016H17.7533L21.6033 22.0683L20.1366 26.8183ZM37.3366 20.6683C37.3366 13.3016 31.3699 7.33496 24.0033 7.33496C16.6366 7.33496 10.6699 13.3016 10.6699 20.6683C10.6699 24.0516 11.9366 27.1183 14.0033 29.4683V42.335L24.0033 39.0016L34.0033 42.335V29.4683C36.0699 27.1183 37.3366 24.0516 37.3366 20.6683ZM24.0033 10.6683C29.5199 10.6683 34.0033 15.1516 34.0033 20.6683C34.0033 26.185 29.5199 30.6683 24.0033 30.6683C18.4866 30.6683 14.0033 26.185 14.0033 20.6683C14.0033 15.1516 18.4866 10.6683 24.0033 10.6683Z" fill="#E32934"/>
</svg>
