<svg width="30" height="30" viewBox="0 0 30 30" fill="none" xmlns="http://www.w3.org/2000/svg">
<path d="M22.5 6.25L19.4825 3.2325C19.0138 2.76363 18.378 2.50014 17.715 2.5H7.5C6.83696 2.5 6.20107 2.76339 5.73223 3.23223C5.26339 3.70107 5 4.33696 5 5V25C5 25.663 5.26339 26.2989 5.73223 26.7678C6.20107 27.2366 6.83696 27.5 7.5 27.5H22.5C23.163 27.5 23.7989 27.2366 24.2678 26.7678C24.7366 26.2989 25 25.663 25 25" stroke="#E32934" stroke-width="2.5" stroke-linecap="round" stroke-linejoin="round"/>
<path d="M26.7222 15.7827C27.2202 15.2847 27.4999 14.6094 27.4999 13.9052C27.4999 13.201 27.2202 12.5256 26.7222 12.0277C26.2243 11.5297 25.5489 11.25 24.8447 11.25C24.1405 11.25 23.4652 11.5297 22.9672 12.0277L17.9547 17.0427C17.6575 17.3397 17.44 17.7069 17.3222 18.1102L16.276 21.6977C16.2446 21.8052 16.2427 21.9193 16.2705 22.0278C16.2983 22.1363 16.3548 22.2354 16.434 22.3146C16.5133 22.3939 16.6123 22.4503 16.7209 22.4781C16.8294 22.5059 16.9434 22.5041 17.051 22.4727L20.6385 21.4264C21.0418 21.3087 21.4089 21.0911 21.706 20.7939L26.7222 15.7827Z" stroke="#E32934" stroke-width="2.5" stroke-linecap="round" stroke-linejoin="round"/>
<path d="M10 22.5H11.25" stroke="#E32934" stroke-width="2.5" stroke-linecap="round" stroke-linejoin="round"/>
</svg>
