<svg width="30" height="30" viewBox="0 0 30 30" fill="none" xmlns="http://www.w3.org/2000/svg">
<path d="M5 2.5V27.5L7.5 26.25L10 27.5L12.5 26.25L15 27.5L17.5 26.25L20 27.5L22.5 26.25L25 27.5V2.5L22.5 3.75L20 2.5L17.5 3.75L15 2.5L12.5 3.75L10 2.5L7.5 3.75L5 2.5Z" stroke="#E32934" stroke-width="2.5" stroke-linecap="round" stroke-linejoin="round"/>
<path d="M20 10H12.5C11.837 10 11.2011 10.2634 10.7322 10.7322C10.2634 11.2011 10 11.837 10 12.5C10 13.163 10.2634 13.7989 10.7322 14.2678C11.2011 14.7366 11.837 15 12.5 15H17.5C18.163 15 18.7989 15.2634 19.2678 15.7322C19.7366 16.2011 20 16.837 20 17.5C20 18.163 19.7366 18.7989 19.2678 19.2678C18.7989 19.7366 18.163 20 17.5 20H10" stroke="#E32934" stroke-width="2.5" stroke-linecap="round" stroke-linejoin="round"/>
<path d="M15 21.875V8.125" stroke="#E32934" stroke-width="2.5" stroke-linecap="round" stroke-linejoin="round"/>
</svg>
