<svg width="30" height="30" viewBox="0 0 30 30" fill="none" xmlns="http://www.w3.org/2000/svg">
<path d="M3.75 13.75H7.5C8.16304 13.75 8.79893 14.0134 9.26777 14.4822C9.73661 14.9511 10 15.587 10 16.25V20C10 20.663 9.73661 21.2989 9.26777 21.7678C8.79893 22.2366 8.16304 22.5 7.5 22.5H6.25C5.58696 22.5 4.95107 22.2366 4.48223 21.7678C4.01339 21.2989 3.75 20.663 3.75 20V13.75ZM3.75 13.75C3.75 12.2726 4.04099 10.8097 4.60636 9.44481C5.17172 8.0799 6.00039 6.83971 7.04505 5.79505C8.08971 4.75039 9.3299 3.92172 10.6948 3.35636C12.0597 2.79099 13.5226 2.5 15 2.5C16.4774 2.5 17.9403 2.79099 19.3052 3.35636C20.6701 3.92172 21.9103 4.75039 22.955 5.79505C23.9996 6.83971 24.8283 8.0799 25.3936 9.44481C25.959 10.8097 26.25 12.2726 26.25 13.75M26.25 13.75V20C26.25 20.663 25.9866 21.2989 25.5178 21.7678C25.0489 22.2366 24.413 22.5 23.75 22.5H22.5C21.837 22.5 21.2011 22.2366 20.7322 21.7678C20.2634 21.2989 20 20.663 20 20V16.25C20 15.587 20.2634 14.9511 20.7322 14.4822C21.2011 14.0134 21.837 13.75 22.5 13.75H26.25Z" stroke="#E32934" stroke-width="2.5" stroke-linecap="round" stroke-linejoin="round"/>
<path d="M26.25 20V22.5C26.25 23.8261 25.7232 25.0979 24.7855 26.0355C23.8479 26.9732 22.5761 27.5 21.25 27.5H15" stroke="#E32934" stroke-width="2.5" stroke-linecap="round" stroke-linejoin="round"/>
</svg>
