<svg width="48" height="48" viewBox="0 0 48 48" fill="none" xmlns="http://www.w3.org/2000/svg">
<path d="M32.3333 22.3333V9H15.6667V15.6667H9V39H22.3333V32.3333H25.6667V39H39V22.3333H32.3333ZM15.6667 35.6667H12.3333V32.3333H15.6667V35.6667ZM15.6667 29H12.3333V25.6667H15.6667V29ZM15.6667 22.3333H12.3333V19H15.6667V22.3333ZM22.3333 29H19V25.6667H22.3333V29ZM22.3333 22.3333H19V19H22.3333V22.3333ZM22.3333 15.6667H19V12.3333H22.3333V15.6667ZM29 29H25.6667V25.6667H29V29ZM29 22.3333H25.6667V19H29V22.3333ZM29 15.6667H25.6667V12.3333H29V15.6667ZM35.6667 35.6667H32.3333V32.3333H35.6667V35.6667ZM35.6667 29H32.3333V25.6667H35.6667V29Z" fill="#E32934"/>
</svg>
