<svg width="1441" height="241" viewBox="0 0 1441 241" fill="none" xmlns="http://www.w3.org/2000/svg">
<path d="M201.387 182.618H204.846V0.691406H268.409V237.391H165.473L67.0225 55.4729H63.5631V237.391H0V0.691406H105.015L201.395 182.618H201.387Z" fill="#D4D4D4" fill-opacity="0.04"/>
<path d="M307.07 0.691406H549.91V51.4109H370.625V95.0283H530.904V143.045H370.625V186.663H549.91V237.382H307.07V0.691406Z" fill="#D4D4D4" fill-opacity="0.04"/>
<path d="M717.447 163.001L650.778 237.391H568.219L677.72 120.734V117.348L568.219 0.691406H649.743L717.447 75.0817H720.898L787.567 0.691406H869.781L760.28 117.348V120.734L869.781 237.391H787.567L720.898 163.001H717.447Z" fill="#D4D4D4" fill-opacity="0.04"/>
<path d="M884.273 0.691406H947.837V144.743C947.837 169.427 964.763 185.996 989.979 185.996H1053.54C1078.76 185.996 1095.68 169.427 1095.68 144.743V0.691406H1159.25V140.005C1159.25 200.529 1118.14 240.777 1056.31 240.777H987.227C925.398 240.777 884.291 200.538 884.291 140.005V0.691406H884.273Z" fill="#D4D4D4" fill-opacity="0.04"/>
<path d="M1184.79 0.691406H1440.07V44.6466L1284.27 182.609H1440.07V237.391H1184.79V193.436L1340.58 55.4729H1184.79V0.691406Z" fill="#D4D4D4" fill-opacity="0.04"/>
</svg>
