<svg width="856" height="161" viewBox="0 0 856 161" fill="none" xmlns="http://www.w3.org/2000/svg">
<path d="M119.707 121.999H121.764V0H159.547V158.729H98.3596L39.8392 36.7361H37.7829V158.729H0V0H62.4228L119.712 121.999H119.707Z" fill="#E32934" fill-opacity="0.03"/>
<path d="M182.523 0H326.871V34.0122H220.301V63.2617H315.574V95.4617H220.301V124.711H326.871V158.723H182.523V0Z" fill="#E32934" fill-opacity="0.03"/>
<path d="M426.454 108.843L386.825 158.729H337.75L402.839 80.5V78.2291L337.75 0H386.209L426.454 49.8856H428.505L468.134 0H517.003L451.914 78.2291V80.5L517.003 158.729H468.134L428.505 108.843H426.454Z" fill="#E32934" fill-opacity="0.03"/>
<path d="M525.625 0H563.408V96.6C563.408 113.153 573.469 124.264 588.458 124.264H626.241C641.23 124.264 651.291 113.153 651.291 96.6V0H689.074V93.423C689.074 134.01 664.639 161 627.887 161H586.822C550.07 161 525.635 134.016 525.635 93.423V0H525.625Z" fill="#E32934" fill-opacity="0.03"/>
<path d="M704.258 0H856V29.4761L763.394 121.993H856V158.729H704.258V129.253L796.864 36.7361H704.258V0Z" fill="#E32934" fill-opacity="0.03"/>
</svg>
