<svg width="909" height="188" viewBox="0 0 909 188" fill="none" xmlns="http://www.w3.org/2000/svg">
<g opacity="0.05">
<path d="M127.06 142.499H129.242V0H169.348V185.402H104.399L42.2809 42.9092H40.0981V185.402H-0.0078125V0H66.253L127.065 142.499H127.06Z" fill="#F9F9F9"/>
<path d="M193.742 0H346.964V39.7276H233.843V73.8923H334.973V111.503H233.843V145.668H346.964V185.395H193.742V0Z" fill="#F9F9F9"/>
<path d="M452.673 127.134L410.608 185.402H358.516L427.607 94.0273V91.3748L358.516 0H409.954L452.673 58.2685H454.85L496.916 0H548.79L479.699 91.3748V94.0273L548.79 185.402H496.916L454.85 127.134H452.673Z" fill="#F9F9F9"/>
<path d="M557.938 0H598.043V112.833C598.043 132.167 608.723 145.145 624.634 145.145H664.74C680.65 145.145 691.33 132.167 691.33 112.833V0H731.436V109.122C731.436 156.529 705.499 188.055 666.487 188.055H622.897C583.885 188.055 557.948 156.536 557.948 109.122V0H557.938Z" fill="#F9F9F9"/>
<path d="M747.547 0H908.618V34.4293L810.319 142.493H908.618V185.402H747.547V150.973L845.847 42.9092H747.547V0Z" fill="#F9F9F9"/>
</g>
</svg>
