<svg width="660" height="76" viewBox="0 0 660 76" fill="none" xmlns="http://www.w3.org/2000/svg">
<path d="M92.2978 85.4397H93.8832V0.318359H123.015V111.067H75.8381L30.7172 25.95H29.1317V111.067H0V0.318359H48.1297L92.3017 85.4397H92.2978Z" fill="#D4D4D4" fill-opacity="0.08"/>
<path d="M140.734 0.318359H252.03V24.0494H169.862V44.4575H243.32V66.9242H169.862V87.3323H252.03V111.063H140.734V0.318359Z" fill="#D4D4D4" fill-opacity="0.08"/>
<path d="M328.811 76.2609L298.256 111.067H260.418L310.604 56.4851V54.9006L260.418 0.318359H297.781L328.811 35.1247H330.393L360.948 0.318359H398.627L348.442 54.9006V56.4851L398.627 111.067H360.948L330.393 76.2609H328.811Z" fill="#D4D4D4" fill-opacity="0.08"/>
<path d="M405.273 0.318359H434.405V67.7184C434.405 79.2678 442.162 87.0201 453.719 87.0201H482.851C494.408 87.0201 502.166 79.2678 502.166 67.7184V0.318359H531.297V65.5018C531.297 93.8202 512.457 112.652 484.12 112.652H452.458C424.121 112.652 405.281 93.8242 405.281 65.5018V0.318359H405.273Z" fill="#D4D4D4" fill-opacity="0.08"/>
<path d="M543.004 0.318359H660.001V20.8845L588.599 85.4357H660.001V111.067H543.004V90.5012L614.406 25.95H543.004V0.318359Z" fill="#D4D4D4" fill-opacity="0.08"/>
</svg>
