<svg width="197" height="1294" viewBox="0 0 197 1294" fill="none" xmlns="http://www.w3.org/2000/svg">
<g opacity="0.05">
<path d="M202.936 1113.04L202.936 1109.93L2.19504e-06 1109.93L2.87616e-06 1052.82L264.035 1052.82L264.035 1145.31L61.1079 1233.78L61.1079 1236.88L264.035 1236.88L264.035 1294L0 1294L1.1253e-06 1199.64L202.936 1113.03L202.936 1113.04Z" fill="#E32934"/>
<path d="M0 1018.08L2.60216e-06 799.872L56.5769 799.872L56.5769 960.971L105.231 960.971L105.231 816.949L158.794 816.949L158.794 960.971L207.449 960.971L207.449 799.872L264.025 799.872L264.025 1018.08L0 1018.08Z" fill="#E32934"/>
<path d="M181.053 649.331L264.035 709.237L264.035 783.422L133.906 685.028L130.129 685.028L0 783.422L8.7358e-07 710.167L82.9813 649.331L82.9813 646.23L2.35044e-06 586.324L3.23141e-06 512.448L130.129 610.843L133.906 610.843L264.035 512.448L264.035 586.324L181.053 646.23L181.053 649.331Z" fill="#E32934"/>
<path d="M0 499.42L6.81114e-07 442.305L160.687 442.305C188.222 442.305 206.704 427.096 206.704 404.437L206.704 347.321C206.704 324.663 188.222 309.453 160.687 309.453L2.26539e-06 309.453L2.94651e-06 252.338L155.403 252.338C222.916 252.338 267.812 289.275 267.812 344.833L267.812 406.91C267.812 462.467 222.926 499.405 155.403 499.405L1.85065e-10 499.405L0 499.42Z" fill="#E32934"/>
<path d="M0 229.385L2.73546e-06 -4.57764e-05L49.0314 -4.51917e-05L202.927 139.991L202.927 -4.33566e-05L264.035 -4.26279e-05L264.035 229.385L215.003 229.385L61.1079 89.3944L61.1079 229.385L0 229.385Z" fill="#E32934"/>
</g>
</svg>
