<svg width="178" height="1294" viewBox="0 0 178 1294" fill="none" xmlns="http://www.w3.org/2000/svg">
<g opacity="0.05">
<path d="M112.936 1113.04L112.936 1109.93L-90 1109.93L-90 1052.82L174.035 1052.82L174.035 1145.31L-28.8921 1233.78L-28.8921 1236.88L174.035 1236.88L174.035 1294L-90 1294L-90 1199.64L112.936 1113.03L112.936 1113.04Z" fill="#E32934"/>
<path d="M-90 1018.08L-90 799.872L-33.4231 799.872L-33.4231 960.971L15.2314 960.971L15.2314 816.949L68.7939 816.949L68.7939 960.971L117.449 960.971L117.449 799.872L174.025 799.872L174.025 1018.08L-90 1018.08Z" fill="#E32934"/>
<path d="M91.0535 649.331L174.035 709.237L174.035 783.422L43.9061 685.028L40.1287 685.028L-90 783.422L-90 710.167L-7.01871 649.331L-7.01871 646.23L-90 586.324L-90 512.448L40.1287 610.843L43.9061 610.843L174.035 512.448L174.035 586.324L91.0535 646.23L91.0535 649.331Z" fill="#E32934"/>
<path d="M-90 499.42L-90 442.305L70.6873 442.305C98.2222 442.305 116.704 427.096 116.704 404.437L116.704 347.321C116.704 324.663 98.2222 309.453 70.6873 309.453L-90 309.453L-90 252.338L65.4027 252.338C132.916 252.338 177.812 289.275 177.812 344.833L177.812 406.91C177.812 462.467 132.926 499.405 65.4027 499.405L-90 499.405L-90 499.42Z" fill="#E32934"/>
<path d="M-90 229.385L-90 -4.57764e-05L-40.9686 -4.51917e-05L112.927 139.991L112.927 -4.33565e-05L174.035 -4.26279e-05L174.035 229.385L125.003 229.385L-28.8921 89.3944L-28.8921 229.385L-90 229.385Z" fill="#E32934"/>
</g>
</svg>
