<svg width="48" height="48" viewBox="0 0 48 48" fill="none" xmlns="http://www.w3.org/2000/svg">
<path d="M37.333 13.9997H32.333V10.6663C32.333 8.81634 30.8497 7.33301 28.9997 7.33301H18.9997C17.1497 7.33301 15.6663 8.81634 15.6663 10.6663V13.9997H10.6663C8.81634 13.9997 7.33301 15.483 7.33301 17.333V35.6663C7.33301 37.5163 8.81634 38.9997 10.6663 38.9997H37.333C39.183 38.9997 40.6663 37.5163 40.6663 35.6663V17.333C40.6663 15.483 39.183 13.9997 37.333 13.9997ZM18.9997 10.6663H28.9997V13.9997H18.9997V10.6663ZM37.333 35.6663H10.6663V32.333H37.333V35.6663ZM37.333 27.333H10.6663V17.333H15.6663V20.6663H18.9997V17.333H28.9997V20.6663H32.333V17.333H37.333V27.333Z" fill="#E32934"/>
</svg>
