<svg width="109" height="32" viewBox="0 0 109 32" fill="none" xmlns="http://www.w3.org/2000/svg">
<g clip-path="url(#clip0_16184_2749)">
<path d="M2.64365 30.7445C2.34277 31.0465 1.97667 31.1972 1.54534 31.1972C1.11402 31.1972 0.748392 31.0465 0.44894 30.7445C0.149488 30.4426 0 30.0725 0 29.6347C0 29.197 0.149488 28.8269 0.44894 28.5249C0.748392 28.223 1.11402 28.0723 1.54534 28.0723C1.97667 28.0723 2.34277 28.2235 2.64365 28.5249C2.94453 28.8269 3.09497 29.197 3.09497 29.6347C3.09497 30.0725 2.94453 30.4426 2.64365 30.7445ZM0.859793 30.3408C1.04403 30.5256 1.27303 30.6178 1.54534 30.6178C1.81766 30.6178 2.04618 30.5256 2.23089 30.3408C2.41513 30.156 2.50749 29.9208 2.50749 29.6347C2.50749 29.3486 2.41513 29.1125 2.23089 28.9262C2.04618 28.7405 1.81766 28.6473 1.54534 28.6473C1.27303 28.6473 1.04451 28.7405 0.859793 28.9262C0.675076 29.1125 0.583193 29.3486 0.583193 29.6347C0.583193 29.9208 0.675552 30.1565 0.859793 30.3408Z" fill="#EF6078"/>
<path d="M6.7929 28.9316C7.0257 28.9316 7.21804 29.0104 7.3699 29.1678C7.52177 29.3253 7.59747 29.5427 7.59747 29.8202V31.1383H7.04808V29.8893C7.04808 29.7462 7.00999 29.6368 6.93334 29.5609C6.85669 29.4851 6.75434 29.4472 6.62675 29.4472C6.48488 29.4472 6.3711 29.4918 6.28635 29.5801C6.20114 29.669 6.15877 29.8019 6.15877 29.9795V31.1388H5.60938V28.9921H6.15877V29.2326C6.29207 29.0324 6.50345 28.9321 6.79338 28.9321L6.7929 28.9316Z" fill="#EF6078"/>
<path d="M10.661 30.292C10.7348 30.5608 10.9348 30.6957 11.2614 30.6957C11.4713 30.6957 11.6303 30.6242 11.7384 30.4811L12.1811 30.7389C11.9712 31.0452 11.6617 31.1983 11.2528 31.1983C10.901 31.1983 10.6182 31.0908 10.4054 30.8762C10.1926 30.6616 10.0859 30.3909 10.0859 30.065C10.0859 29.739 10.1912 29.4717 10.4011 29.2557C10.611 29.0396 10.881 28.9316 11.21 28.9316C11.5223 28.9316 11.7798 29.0406 11.9826 29.2581C12.1854 29.4755 12.2868 29.7448 12.2868 30.065C12.2868 30.1365 12.2797 30.2123 12.2654 30.2925H10.6601L10.661 30.292ZM10.6525 29.8629H11.7384C11.707 29.717 11.6427 29.608 11.5446 29.5365C11.4466 29.4649 11.3352 29.4289 11.2104 29.4289C11.0628 29.4289 10.9405 29.4669 10.8443 29.5427C10.7477 29.6185 10.6839 29.7251 10.6525 29.8624V29.8629Z" fill="#EF6078"/>
<path d="M19.1307 28.1328C19.4173 28.1328 19.6587 28.2303 19.8543 28.4247C20.05 28.6196 20.1481 28.8581 20.1481 29.1418C20.1481 29.4255 20.05 29.6641 19.8543 29.859C19.6587 30.0539 19.4173 30.1508 19.1307 30.1508H18.607V31.1382H18.0195V28.1333H19.1307V28.1328ZM19.1307 29.5969C19.2554 29.5969 19.3592 29.5532 19.4416 29.4658C19.5239 29.3785 19.5649 29.2705 19.5649 29.1418C19.5649 29.0132 19.5239 28.9013 19.4416 28.8154C19.3592 28.7295 19.2554 28.6868 19.1307 28.6868H18.607V29.5969H19.1307Z" fill="#EF6078"/>
<path d="M24.1114 28.9897H24.6608V31.1363H24.1114V30.8829C23.9467 31.0917 23.7153 31.1963 23.4173 31.1963C23.1193 31.1963 22.8898 31.0869 22.687 30.868C22.4842 30.6491 22.3828 30.3808 22.3828 30.063C22.3828 29.7452 22.4842 29.4769 22.687 29.258C22.8898 29.0391 23.1331 28.9297 23.4173 28.9297C23.7153 28.9297 23.9467 29.0343 24.1114 29.2431V28.9897ZM23.0984 30.4989C23.2088 30.6122 23.3497 30.6683 23.5197 30.6683C23.6896 30.6683 23.831 30.6117 23.9434 30.4989C24.0553 30.3861 24.1114 30.2406 24.1114 30.063C24.1114 29.8854 24.0553 29.7404 23.9434 29.6272C23.831 29.5144 23.6901 29.4577 23.5197 29.4577C23.3492 29.4577 23.2088 29.5144 23.0984 29.6272C22.9874 29.7404 22.9322 29.8854 22.9322 30.063C22.9322 30.2406 22.9874 30.3856 23.0984 30.4989Z" fill="#EF6078"/>
<path d="M27.835 29.3616C27.886 29.2243 27.9707 29.1211 28.0883 29.0524C28.2059 28.9838 28.3373 28.9492 28.482 28.9492V29.5675C28.3144 29.5473 28.1649 29.5819 28.0326 29.6707C27.9007 29.7595 27.8345 29.9069 27.8345 30.1128V31.1386H27.2852V28.9919H27.8345V29.3611L27.835 29.3616Z" fill="#EF6078"/>
<path d="M32.2092 29.524H31.7279V30.4168C31.7279 30.4912 31.7465 30.5454 31.7831 30.58C31.8198 30.6146 31.8741 30.6338 31.945 30.6381C32.0159 30.6424 32.104 30.6419 32.2092 30.6362V31.1383C31.8317 31.181 31.5656 31.1455 31.4108 31.0307C31.2561 30.9165 31.179 30.7115 31.179 30.4168V29.524H30.8086V28.9916H31.179V28.5582L31.7284 28.3906V28.9916H32.2097V29.524H32.2092Z" fill="#EF6078"/>
<path d="M35.9413 28.9316C36.1741 28.9316 36.3665 29.0104 36.5183 29.1678C36.6702 29.3253 36.7459 29.5427 36.7459 29.8202V31.1383H36.1965V29.8893C36.1965 29.7462 36.1584 29.6368 36.0818 29.5609C36.0051 29.4851 35.9028 29.4472 35.7752 29.4472C35.6333 29.4472 35.5195 29.4918 35.4348 29.5801C35.3496 29.669 35.3072 29.8019 35.3072 29.9795V31.1388H34.7578V28.9921H35.3072V29.2326C35.4405 29.0324 35.6519 28.9321 35.9418 28.9321L35.9413 28.9316Z" fill="#EF6078"/>
<path d="M39.8095 30.292C39.8833 30.5608 40.0832 30.6957 40.4098 30.6957C40.6198 30.6957 40.7788 30.6242 40.8868 30.4811L41.3296 30.7389C41.1196 31.0452 40.8102 31.1983 40.4012 31.1983C40.0494 31.1983 39.7666 31.0908 39.5538 30.8762C39.341 30.6616 39.2344 30.3909 39.2344 30.065C39.2344 29.739 39.3396 29.4717 39.5495 29.2557C39.7595 29.0396 40.0294 28.9316 40.3584 28.9316C40.6707 28.9316 40.9283 29.0406 41.1311 29.2581C41.3339 29.4755 41.4353 29.7448 41.4353 30.065C41.4353 30.1365 41.4281 30.2123 41.4139 30.2925H39.8085L39.8095 30.292ZM39.8009 29.8629H40.8868C40.8554 29.717 40.7911 29.608 40.6931 29.5365C40.595 29.4649 40.4836 29.4289 40.3589 29.4289C40.2113 29.4289 40.0889 29.4669 39.9928 29.5427C39.8961 29.6185 39.8323 29.7251 39.8009 29.8624V29.8629Z" fill="#EF6078"/>
<path d="M44.4952 29.3616C44.5461 29.2243 44.6309 29.1211 44.7485 29.0524C44.866 28.9838 44.9974 28.9492 45.1422 28.9492V29.5675C44.9746 29.5473 44.8251 29.5819 44.6928 29.6707C44.5609 29.7595 44.4947 29.9069 44.4947 30.1128V31.1386H43.9453V28.9919H44.4947V29.3611L44.4952 29.3616Z" fill="#EF6078"/>
<path d="M48.0126 30.5449L47.6931 31.7382H47.2461L47.4165 30.5449H48.0126Z" fill="#EF6078"/>
<path d="M54.4078 30.5708H55.6637V31.1377H53.8203V28.1328H55.6427V28.6997H54.4083V29.3396H55.5366V29.8978H54.4083V30.5718L54.4078 30.5708Z" fill="#EF6078"/>
<path d="M59.5805 28.9922H60.1852L59.3763 31.1388H58.7503L57.9414 28.9922H58.546L59.0621 30.4942L59.5805 28.9922Z" fill="#EF6078"/>
<path d="M62.9579 30.292C63.0317 30.5608 63.2317 30.6957 63.5582 30.6957C63.7682 30.6957 63.9272 30.6242 64.0353 30.4811L64.478 30.7389C64.2681 31.0452 63.9586 31.1983 63.5497 31.1983C63.1979 31.1983 62.9151 31.0908 62.7023 30.8762C62.4895 30.6616 62.3828 30.3909 62.3828 30.065C62.3828 29.739 62.488 29.4717 62.698 29.2557C62.9079 29.0396 63.1779 28.9316 63.5068 28.9316C63.8191 28.9316 64.0767 29.0406 64.2795 29.2581C64.4823 29.4755 64.5837 29.7448 64.5837 30.065C64.5837 30.1365 64.5766 30.2123 64.5623 30.2925H62.957L62.9579 30.292ZM62.9493 29.8629H64.0353C64.0039 29.717 63.9396 29.608 63.8415 29.5365C63.7434 29.4649 63.632 29.4289 63.5073 29.4289C63.3597 29.4289 63.2374 29.4669 63.1412 29.5427C63.0446 29.6185 62.9808 29.7251 62.9493 29.8624V29.8629Z" fill="#EF6078"/>
<path d="M67.6436 29.3616C67.6946 29.2243 67.7793 29.1211 67.8969 29.0524C68.0145 28.9838 68.1459 28.9492 68.2906 28.9492V29.5675C68.123 29.5473 67.9735 29.5819 67.8412 29.6707C67.7093 29.7595 67.6431 29.9069 67.6431 30.1128V31.1386H67.0938V28.9919H67.6431V29.3611L67.6436 29.3616Z" fill="#EF6078"/>
<path d="M72.1771 28.9927H72.7645L71.9885 31.1427C71.8776 31.4489 71.731 31.6717 71.5482 31.8109C71.3653 31.9496 71.1378 32.012 70.8655 31.9976V31.4825C71.0131 31.4854 71.1302 31.4537 71.2168 31.388C71.3035 31.3222 71.372 31.2161 71.4234 31.0702L70.5508 28.9922H71.1511L71.7062 30.4346L72.1771 28.9922V28.9927Z" fill="#EF6078"/>
<path d="M79.3855 31.1987C79.0904 31.1987 78.8418 31.1319 78.6405 30.999C78.4391 30.866 78.2972 30.685 78.2148 30.4561L78.7171 30.1599C78.8333 30.4662 79.0618 30.6193 79.4027 30.6193C79.5674 30.6193 79.6878 30.589 79.7645 30.529C79.8411 30.469 79.8792 30.3932 79.8792 30.3015C79.8792 30.1954 79.8326 30.1133 79.7388 30.0548C79.645 29.9962 79.4774 29.9324 79.2365 29.8637C79.1032 29.8239 78.9904 29.7836 78.898 29.7437C78.8057 29.7039 78.7133 29.6501 78.6214 29.5829C78.5291 29.5157 78.4591 29.4308 78.4105 29.3275C78.3624 29.2243 78.3382 29.1043 78.3382 28.9671C78.3382 28.6954 78.4338 28.4784 78.6257 28.3166C78.8176 28.1549 79.048 28.0742 79.3174 28.0742C79.5588 28.0742 79.7707 28.1337 79.954 28.2523C80.1372 28.3709 80.2796 28.5365 80.3819 28.7482L79.8883 29.0357C79.7692 28.7779 79.5788 28.6493 79.3179 28.6493C79.196 28.6493 79.0999 28.6771 79.0304 28.7328C78.9609 28.7885 78.9261 28.861 78.9261 28.9498C78.9261 29.0443 78.9651 29.1207 79.0432 29.1792C79.1213 29.2378 79.2708 29.3016 79.4922 29.3703C79.5831 29.3991 79.6516 29.4212 79.6988 29.437C79.7454 29.4528 79.8097 29.4773 79.8902 29.51C79.9711 29.5431 80.0335 29.5738 80.0777 29.6021C80.1215 29.6309 80.172 29.6693 80.2286 29.7183C80.2853 29.7668 80.3286 29.8172 80.3586 29.8685C80.3886 29.9199 80.4138 29.9823 80.4353 30.0553C80.4567 30.1282 80.4672 30.2074 80.4672 30.2933C80.4672 30.5708 80.3672 30.7911 80.1668 30.9543C79.9668 31.1175 79.7064 31.1991 79.3855 31.1991V31.1987Z" fill="#EF6078"/>
<path d="M84.8305 30.87C84.612 31.0888 84.345 31.1983 84.0303 31.1983C83.7156 31.1983 83.449 31.0888 83.2319 30.87C83.0148 30.6511 82.9062 30.3827 82.9062 30.065C82.9062 29.7472 83.0148 29.4789 83.2319 29.26C83.449 29.0411 83.7151 28.9316 84.0303 28.9316C84.3454 28.9316 84.612 29.0411 84.8305 29.26C85.0491 29.4789 85.1586 29.7472 85.1586 30.065C85.1586 30.3827 85.0491 30.6511 84.8305 30.87ZM83.6194 30.4903C83.7284 30.6021 83.8655 30.6578 84.0303 30.6578C84.195 30.6578 84.3326 30.6021 84.443 30.4903C84.5539 30.3789 84.6092 30.2368 84.6092 30.0654C84.6092 29.8941 84.5539 29.752 84.443 29.6406C84.3326 29.5288 84.1945 29.4731 84.0303 29.4731C83.866 29.4731 83.7284 29.5288 83.6194 29.6406C83.5099 29.752 83.4556 29.8941 83.4556 30.0654C83.4556 30.2368 83.5104 30.3789 83.6194 30.4903Z" fill="#EF6078"/>
<path d="M87.6719 31.138V28.0039H88.2213V31.138H87.6719Z" fill="#EF6078"/>
<path d="M92.2595 28.9927H92.8089V31.1393H92.2595V30.8988C92.1262 31.099 91.9148 31.1993 91.6249 31.1993C91.3921 31.1993 91.1997 31.1206 91.0479 30.9631C90.896 30.8057 90.8203 30.5883 90.8203 30.3108V28.9927H91.3697V30.2417C91.3697 30.3847 91.4078 30.4942 91.4844 30.57C91.5611 30.6459 91.6634 30.6838 91.791 30.6838C91.9329 30.6838 92.0467 30.6396 92.1314 30.5508C92.2166 30.462 92.259 30.329 92.259 30.1514V28.9922L92.2595 28.9927Z" fill="#EF6078"/>
<path d="M96.6584 29.524H96.1771V30.4168C96.1771 30.4912 96.1957 30.5454 96.2323 30.58C96.269 30.6146 96.3233 30.6338 96.3942 30.6381C96.4651 30.6424 96.5532 30.6419 96.6584 30.6362V31.1383C96.2809 31.181 96.0148 31.1455 95.86 31.0307C95.7053 30.9165 95.6282 30.7115 95.6282 30.4168V29.524H95.2578V28.9916H95.6282V28.5582L96.1776 28.3906V28.9916H96.6589V29.524H96.6584Z" fill="#EF6078"/>
<path d="M99.4455 28.7334C99.3546 28.7334 99.276 28.6998 99.2093 28.6326C99.1427 28.5654 99.1094 28.4862 99.1094 28.3945C99.1094 28.3028 99.1427 28.2226 99.2093 28.154C99.276 28.0853 99.3546 28.0508 99.4455 28.0508C99.5364 28.0508 99.6192 28.0853 99.6859 28.154C99.7525 28.2226 99.7859 28.3028 99.7859 28.3945C99.7859 28.4862 99.7525 28.5654 99.6859 28.6326C99.6192 28.6998 99.5388 28.7334 99.4455 28.7334ZM99.1732 31.1373V28.9907H99.7226V31.1373H99.1732Z" fill="#EF6078"/>
<path d="M104.166 30.868C103.948 31.0869 103.681 31.1963 103.366 31.1963C103.052 31.1963 102.785 31.0869 102.568 30.868C102.351 30.6491 102.242 30.3808 102.242 30.063C102.242 29.7452 102.351 29.4769 102.568 29.258C102.785 29.0391 103.051 28.9297 103.366 28.9297C103.681 28.9297 103.948 29.0391 104.166 29.258C104.385 29.4769 104.494 29.7452 104.494 30.063C104.494 30.3808 104.385 30.6491 104.166 30.868ZM102.955 30.4883C103.064 30.6002 103.201 30.6558 103.366 30.6558C103.531 30.6558 103.669 30.6002 103.779 30.4883C103.89 30.3769 103.945 30.2349 103.945 30.0635C103.945 29.8921 103.89 29.75 103.779 29.6387C103.669 29.5268 103.53 29.4712 103.366 29.4712C103.202 29.4712 103.064 29.5268 102.955 29.6387C102.846 29.75 102.792 29.8921 102.792 30.0635C102.792 30.2349 102.846 30.3769 102.955 30.4883Z" fill="#EF6078"/>
<path d="M108.195 28.9316C108.428 28.9316 108.62 29.0104 108.772 29.1678C108.924 29.3253 109 29.5427 109 29.8202V31.1383H108.45V29.8893C108.45 29.7462 108.412 29.6368 108.336 29.5609C108.259 29.4851 108.157 29.4472 108.029 29.4472C107.887 29.4472 107.773 29.4918 107.689 29.5801C107.603 29.669 107.561 29.8019 107.561 29.9795V31.1388H107.012V28.9921H107.561V29.2326C107.694 29.0324 107.906 28.9321 108.196 28.9321L108.195 28.9316Z" fill="#EF6078"/>
<path d="M24.857 25.0652H18.0087L18.3129 22.9805C18.7761 22.9805 20.9599 22.8202 21.2783 22.499C21.5968 22.1779 21.7559 21.7838 21.7559 21.3172V10.5187C21.7559 8.54198 19.484 8.76759 18.002 8.76759L17.0703 7.08944C19.9701 7.08944 22.4081 7.23537 24.857 5.44922V25.0647V25.0652Z" fill="#E32934"/>
<path d="M0 0V25.0637H16.9459L17.0354 24.4488H0.609854V0.614905H24.2475V4.78195C24.4508 4.65955 24.6541 4.52418 24.8574 4.37585V0H0Z" fill="#E32934"/>
<path d="M40.6448 21.9504H40.8357V11.6094H44.3434V25.0638H38.6629L33.2299 14.7233H33.039V25.0638H29.5312V11.6094H35.3265L40.6452 21.9504H40.6448Z" fill="#404040"/>
<path d="M46.4766 11.6094H59.8776V14.4924H49.9838V16.9717H58.8288V19.7011H49.9838V22.1804H59.8776V25.0634H46.4766V11.6094Z" fill="#404040"/>
<path d="M69.1219 20.8353L65.4428 25.0638H60.8867L66.9295 18.4328V18.2404L60.8867 11.6094H65.3856L69.1219 15.8379H69.3123L72.9914 11.6094H77.5284L71.4856 18.2404V18.4328L77.5284 25.0638H72.9914L69.3123 20.8353H69.1219Z" fill="#404040"/>
<path d="M78.3281 11.6094H81.8359V19.7975C81.8359 21.2006 82.7699 22.1424 84.1615 22.1424H87.6692C89.0608 22.1424 89.9948 21.2006 89.9948 19.7975V11.6094H93.5026V19.5283C93.5026 22.9685 91.2341 25.2563 87.822 25.2563H84.0096C80.5976 25.2563 78.3291 22.969 78.3291 19.5283V11.6094H78.3281Z" fill="#404040"/>
<path d="M94.9141 11.6094H109.002V14.1079L100.404 21.9499H109.002V25.0638H94.9141V22.5653L103.512 14.7233H94.9141V11.6094Z" fill="#404040"/>
</g>
<defs>
<clipPath id="clip0_16184_2749">
<rect width="109" height="32" fill="white"/>
</clipPath>
</defs>
</svg>
