<svg width="24" height="24" viewBox="0 0 24 24" fill="none" xmlns="http://www.w3.org/2000/svg">
<path d="M20.75 22.4C20.65 22.4 20.5 22.4 20.4 22.35L16.05 20.65C14.75 21 13.4 21.05 12.1 20.9C6.85 20.2 2.85 15.7 2.85 10.45C2.85 10.15 2.85 9.9 2.9 9.6C3.35 4.2 7.95 0 13.45 0C19.3 0 24 4.7 24 10.45C24 12.85 23.15 15.2 21.6 17.1L21.75 21.35C21.75 21.7 21.6 22 21.35 22.2C21.15 22.3 20.95 22.4 20.75 22.4ZM16.1 18.55C16.25 18.55 16.35 18.55 16.45 18.6L19.65 19.9L19.55 16.8C19.55 16.55 19.65 16.3 19.8 16.1C21.2 14.55 21.95 12.55 21.95 10.5C21.95 5.85 18.1 2.05 13.4 2.05C9 2 5.25 5.4 4.9 9.75C4.9 10 4.85 10.2 4.85 10.45C4.85 14.7 8.05 18.3 12.35 18.85C13.5 19 14.65 18.9 15.8 18.6C15.9 18.55 16 18.55 16.1 18.55Z" fill="white"/>
<path d="M2.45 24C2.25 24 2.05 23.95 1.9 23.85C1.6 23.65 1.45 23.3 1.45 22.95L1.65 19.75C0.6 18.4 0 16.75 0 15.05C0 12.55 1.25 10.25 3.3 8.8C3.75 8.5 4.4 8.6 4.7 9.05C5 9.5 4.9 10.15 4.45 10.45C2.95 11.5 2 13.2 2 15.05C2 16.4 2.5 17.7 3.45 18.75C3.65 18.95 3.7 19.2 3.7 19.5L3.6 21.35L5.4 20.5C5.6 20.4 5.9 20.35 6.1 20.45C8.05 21 10.15 20.5 11.55 19.15C11.95 18.75 12.6 18.8 12.95 19.2C13.35 19.6 13.3 20.25 12.9 20.6C11.05 22.35 8.45 23.05 5.9 22.45L2.9 23.9C2.75 23.95 2.6 24 2.45 24Z" fill="white"/>
<path d="M17.1 9.05H10.2C9.65 9.05 9.2 8.6 9.2 8.05C9.2 7.5 9.65 7.05 10.2 7.05H17.1C17.65 7.05 18.1 7.5 18.1 8.05C18.1 8.6 17.65 9.05 17.1 9.05Z" fill="white"/>
<path d="M17.1 14.3H10.2C9.65 14.3 9.2 13.85 9.2 13.3C9.2 12.75 9.65 12.3 10.2 12.3H17.1C17.65 12.3 18.1 12.75 18.1 13.3C18.1 13.85 17.65 14.3 17.1 14.3Z" fill="white"/>
</svg>
