<svg width="153" height="46" viewBox="0 0 153 46" fill="none" xmlns="http://www.w3.org/2000/svg">
<g clip-path="url(#clip0_266_19142)">
<path d="M3.71081 43.7383C3.28848 44.1629 2.77459 44.3749 2.16915 44.3749C1.56371 44.3749 1.05049 44.1629 0.630163 43.7383C0.209832 43.3138 0 42.7933 0 42.1777C0 41.5621 0.209832 41.0416 0.630163 40.617C1.05049 40.1924 1.56371 39.9805 2.16915 39.9805C2.77459 39.9805 3.28848 40.1931 3.71081 40.617C4.13315 41.0416 4.34432 41.5621 4.34432 42.1777C4.34432 42.7933 4.13315 43.3138 3.71081 43.7383ZM1.20687 43.1706C1.46548 43.4305 1.78691 43.5601 2.16915 43.5601C2.55139 43.5601 2.87215 43.4305 3.13144 43.1706C3.39005 42.9108 3.51969 42.58 3.51969 42.1777C3.51969 41.7754 3.39005 41.4433 3.13144 41.1813C2.87215 40.9201 2.55139 40.7892 2.16915 40.7892C1.78691 40.7892 1.46615 40.9201 1.20687 41.1813C0.947583 41.4433 0.818611 41.7754 0.818611 42.1777C0.818611 42.58 0.948252 42.9114 1.20687 43.1706Z" fill="#EF6078"/>
<path d="M9.53628 41.1875C9.86305 41.1875 10.133 41.2982 10.3462 41.5196C10.5594 41.741 10.6656 42.0468 10.6656 42.437V44.2906H9.89446V42.5342C9.89446 42.333 9.841 42.1791 9.73341 42.0725C9.62582 41.9658 9.48215 41.9125 9.30306 41.9125C9.10392 41.9125 8.94421 41.9753 8.82526 42.0995C8.70564 42.2243 8.64616 42.4113 8.64616 42.6611V44.2913H7.875V41.2726H8.64616V41.6107C8.83328 41.3293 9.12998 41.1882 9.53695 41.1882L9.53628 41.1875Z" fill="#EF6078"/>
<path d="M14.9635 43.1005C15.0671 43.4785 15.3477 43.6682 15.8062 43.6682C16.1009 43.6682 16.3241 43.5676 16.4758 43.3665L17.0972 43.729C16.8025 44.1596 16.3682 44.375 15.7941 44.375C15.3003 44.375 14.9034 44.2238 14.6046 43.922C14.3059 43.6203 14.1562 43.2396 14.1562 42.7812C14.1562 42.3229 14.3039 41.9469 14.5986 41.6431C14.8933 41.3394 15.2722 41.1875 15.734 41.1875C16.1724 41.1875 16.5339 41.3407 16.8186 41.6465C17.1032 41.9523 17.2456 42.331 17.2456 42.7812C17.2456 42.8818 17.2356 42.9885 17.2155 43.1012H14.9622L14.9635 43.1005ZM14.9515 42.4971H16.4758C16.4317 42.2918 16.3414 42.1386 16.2038 42.038C16.0661 41.9375 15.9097 41.8868 15.7347 41.8868C15.5275 41.8868 15.3558 41.9402 15.2208 42.0468C15.0851 42.1535 14.9956 42.3033 14.9515 42.4964V42.4971Z" fill="#EF6078"/>
<path d="M26.8488 40.0645C27.2511 40.0645 27.5899 40.2015 27.8645 40.4749C28.1392 40.7489 28.2768 41.0844 28.2768 41.4834C28.2768 41.8823 28.1392 42.2178 27.8645 42.4919C27.5899 42.7659 27.2511 42.9023 26.8488 42.9023H26.1137V44.2908H25.2891V40.0651H26.8488V40.0645ZM26.8488 42.1233C27.0238 42.1233 27.1695 42.0619 27.2851 41.939C27.4007 41.8161 27.4582 41.6643 27.4582 41.4834C27.4582 41.3025 27.4007 41.1452 27.2851 41.0243C27.1695 40.9035 27.0238 40.8434 26.8488 40.8434H26.1137V42.1233H26.8488Z" fill="#EF6078"/>
<path d="M33.8444 41.2719H34.6156V44.2906H33.8444V43.9342C33.6132 44.2278 33.2884 44.375 32.8701 44.375C32.4518 44.375 32.1297 44.2211 31.845 43.9133C31.5603 43.6054 31.418 43.2281 31.418 42.7812C31.418 42.3344 31.5603 41.957 31.845 41.6492C32.1297 41.3414 32.4711 41.1875 32.8701 41.1875C33.2884 41.1875 33.6132 41.3347 33.8444 41.6283V41.2719ZM32.4224 43.3942C32.5774 43.5535 32.7752 43.6325 33.0138 43.6325C33.2523 43.6325 33.4508 43.5528 33.6085 43.3942C33.7655 43.2355 33.8444 43.031 33.8444 42.7812C33.8444 42.5315 33.7655 42.3276 33.6085 42.1683C33.4508 42.0097 33.253 41.93 33.0138 41.93C32.7745 41.93 32.5774 42.0097 32.4224 42.1683C32.2667 42.3276 32.1891 42.5315 32.1891 42.7812C32.1891 43.031 32.2667 43.2349 32.4224 43.3942Z" fill="#EF6078"/>
<path d="M39.0726 41.7908C39.1441 41.5977 39.2631 41.4526 39.4281 41.3561C39.5932 41.2595 39.7776 41.2109 39.9808 41.2109V42.0804C39.7455 42.052 39.5357 42.1006 39.3499 42.2255C39.1648 42.3504 39.0719 42.5576 39.0719 42.8472V44.2897H38.3008V41.271H39.0719V41.7901L39.0726 41.7908Z" fill="#EF6078"/>
<path d="M45.2121 42.0195H44.5365V43.2751C44.5365 43.3797 44.5626 43.456 44.614 43.5046C44.6655 43.5532 44.7416 43.5802 44.8412 43.5863C44.9408 43.5923 45.0644 43.5917 45.2121 43.5836V44.2896C44.6822 44.3497 44.3086 44.2998 44.0914 44.1384C43.8743 43.9778 43.766 43.6895 43.766 43.2751V42.0195H43.2461V41.2709H43.766V40.6614L44.5372 40.4258V41.2709H45.2128V42.0195H45.2121Z" fill="#EF6078"/>
<path d="M50.4503 41.1875C50.7771 41.1875 51.0471 41.2982 51.2603 41.5196C51.4734 41.741 51.5797 42.0468 51.5797 42.437V44.2906H50.8085V42.5342C50.8085 42.333 50.7551 42.1791 50.6475 42.0725C50.5399 41.9658 50.3962 41.9125 50.2171 41.9125C50.018 41.9125 49.8583 41.9753 49.7393 42.0995C49.6197 42.2243 49.5602 42.4113 49.5602 42.6611V44.2913H48.7891V41.2726H49.5602V41.6107C49.7473 41.3293 50.044 41.1882 50.451 41.1882L50.4503 41.1875Z" fill="#EF6078"/>
<path d="M55.8776 43.1005C55.9811 43.4785 56.2618 43.6682 56.7202 43.6682C57.0149 43.6682 57.2381 43.5676 57.3898 43.3665L58.0113 43.729C57.7166 44.1596 57.2822 44.375 56.7082 44.375C56.2144 44.375 55.8174 44.2238 55.5187 43.922C55.22 43.6203 55.0703 43.2396 55.0703 42.7812C55.0703 42.3229 55.218 41.9469 55.5127 41.6431C55.8074 41.3394 56.1863 41.1875 56.6481 41.1875C57.0864 41.1875 57.448 41.3407 57.7326 41.6465C58.0173 41.9523 58.1597 42.331 58.1597 42.7812C58.1597 42.8818 58.1496 42.9885 58.1296 43.1012H55.8762L55.8776 43.1005ZM55.8655 42.4971H57.3898C57.3457 42.2918 57.2555 42.1386 57.1178 42.038C56.9802 41.9375 56.8238 41.8868 56.6487 41.8868C56.4416 41.8868 56.2698 41.9402 56.1348 42.0468C55.9992 42.1535 55.9096 42.3033 55.8655 42.4964V42.4971Z" fill="#EF6078"/>
<path d="M62.4593 41.7908C62.5308 41.5977 62.6498 41.4526 62.8148 41.3561C62.9799 41.2595 63.1643 41.2109 63.3675 41.2109V42.0804C63.1323 42.052 62.9224 42.1006 62.7367 42.2255C62.5516 42.3504 62.4587 42.5576 62.4587 42.8472V44.2897H61.6875V41.271H62.4587V41.7901L62.4593 41.7908Z" fill="#EF6078"/>
<path d="M67.3962 43.457L66.9478 45.1351H66.3203L66.5595 43.457H67.3962Z" fill="#EF6078"/>
<path d="M76.3715 43.4929H78.1344V44.2901H75.5469V40.0645H78.105V40.8617H76.3722V41.7615H77.9559V42.5465H76.3722V43.4943L76.3715 43.4929Z" fill="#EF6078"/>
<path d="M83.6328 41.2715H84.4815L83.3461 44.2902H82.4674L81.332 41.2715H82.1807L82.9051 43.3836L83.6328 41.2715Z" fill="#EF6078"/>
<path d="M88.3698 43.1005C88.4733 43.4785 88.754 43.6682 89.2124 43.6682C89.5071 43.6682 89.7303 43.5676 89.882 43.3665L90.5035 43.729C90.2088 44.1596 89.7744 44.375 89.2004 44.375C88.7066 44.375 88.3096 44.2238 88.0109 43.922C87.7122 43.6203 87.5625 43.2396 87.5625 42.7812C87.5625 42.3229 87.7102 41.9469 88.0049 41.6431C88.2996 41.3394 88.6785 41.1875 89.1402 41.1875C89.5786 41.1875 89.9401 41.3407 90.2248 41.6465C90.5095 41.9523 90.6518 42.331 90.6518 42.7812C90.6518 42.8818 90.6418 42.9885 90.6218 43.1012H88.3684L88.3698 43.1005ZM88.3577 42.4971H89.882C89.8379 42.2918 89.7477 42.1386 89.61 42.038C89.4724 41.9375 89.316 41.8868 89.1409 41.8868C88.9338 41.8868 88.762 41.9402 88.627 42.0468C88.4914 42.1535 88.4018 42.3033 88.3577 42.4964V42.4971Z" fill="#EF6078"/>
<path d="M94.9515 41.7908C95.023 41.5977 95.142 41.4526 95.307 41.3561C95.4721 41.2595 95.6565 41.2109 95.8597 41.2109V42.0804C95.6245 42.052 95.4146 42.1006 95.2289 42.2255C95.0437 42.3504 94.9509 42.5576 94.9509 42.8472V44.2897H94.1797V41.271H94.9509V41.7901L94.9515 41.7908Z" fill="#EF6078"/>
<path d="M101.31 41.2722H102.135L101.045 44.2956C100.89 44.7263 100.684 45.0395 100.427 45.2352C100.171 45.4303 99.8513 45.5181 99.4691 45.4978V44.7735C99.6762 44.7776 99.8406 44.733 99.9622 44.6405C100.084 44.5481 100.18 44.3989 100.252 44.1937L99.0273 41.2715H99.87L100.649 43.2999L101.31 41.2715V41.2722Z" fill="#EF6078"/>
<path d="M111.432 44.3742C111.018 44.3742 110.669 44.2804 110.386 44.0934C110.104 43.9064 109.905 43.6519 109.789 43.33L110.494 42.9135C110.657 43.3441 110.978 43.5595 111.456 43.5595C111.688 43.5595 111.857 43.5169 111.964 43.4326C112.072 43.3482 112.125 43.2415 112.125 43.1126C112.125 42.9634 112.06 42.848 111.928 42.7656C111.796 42.6833 111.561 42.5935 111.223 42.497C111.036 42.4409 110.878 42.3842 110.748 42.3282C110.618 42.2722 110.489 42.1966 110.36 42.1021C110.23 42.0076 110.132 41.8881 110.064 41.743C109.996 41.5978 109.962 41.4291 109.962 41.236C109.962 40.854 110.096 40.5488 110.366 40.3214C110.635 40.0939 110.959 39.9805 111.337 39.9805C111.676 39.9805 111.973 40.0642 112.23 40.2309C112.487 40.3976 112.687 40.6305 112.831 40.9282L112.138 41.3325C111.971 40.9701 111.704 40.7891 111.337 40.7891C111.166 40.7891 111.031 40.8283 110.934 40.9066C110.836 40.9849 110.787 41.0868 110.787 41.2117C110.787 41.3447 110.842 41.452 110.952 41.5344C111.061 41.6167 111.271 41.7065 111.582 41.803C111.71 41.8435 111.806 41.8746 111.872 41.8969C111.938 41.9191 112.028 41.9536 112.141 41.9995C112.254 42.0461 112.342 42.0893 112.404 42.1291C112.465 42.1696 112.536 42.2236 112.616 42.2924C112.695 42.3606 112.756 42.4315 112.798 42.5037C112.84 42.5759 112.876 42.6637 112.906 42.7663C112.936 42.8689 112.951 42.9803 112.951 43.1011C112.951 43.4913 112.81 43.8011 112.529 44.0306C112.248 44.2601 111.883 44.3749 111.432 44.3749V44.3742Z" fill="#EF6078"/>
<path d="M119.072 43.9133C118.765 44.2211 118.391 44.375 117.949 44.375C117.507 44.375 117.133 44.2211 116.828 43.9133C116.523 43.6054 116.371 43.2281 116.371 42.7812C116.371 42.3344 116.523 41.957 116.828 41.6492C117.133 41.3414 117.506 41.1875 117.949 41.1875C118.391 41.1875 118.765 41.3414 119.072 41.6492C119.379 41.957 119.533 42.3344 119.533 42.7812C119.533 43.2281 119.379 43.6054 119.072 43.9133ZM117.372 43.3793C117.525 43.5366 117.718 43.6149 117.949 43.6149C118.18 43.6149 118.373 43.5366 118.528 43.3793C118.684 43.2227 118.761 43.0229 118.761 42.7819C118.761 42.5409 118.684 42.3411 118.528 42.1845C118.373 42.0272 118.179 41.9489 117.949 41.9489C117.718 41.9489 117.525 42.0272 117.372 42.1845C117.218 42.3411 117.142 42.5409 117.142 42.7819C117.142 43.0229 117.219 43.2227 117.372 43.3793Z" fill="#EF6078"/>
<path d="M123.062 44.2901V39.8828H123.834V44.2901H123.062Z" fill="#EF6078"/>
<path d="M129.501 41.2722H130.272V44.2909H129.501V43.9527C129.313 44.2342 129.017 44.3753 128.61 44.3753C128.283 44.3753 128.013 44.2646 127.8 44.0431C127.587 43.8217 127.48 43.516 127.48 43.1258V41.2722H128.252V43.0286C128.252 43.2297 128.305 43.3836 128.413 43.4903C128.52 43.597 128.664 43.6503 128.843 43.6503C129.042 43.6503 129.202 43.5882 129.321 43.4633C129.44 43.3384 129.5 43.1514 129.5 42.9017V41.2715L129.501 41.2722Z" fill="#EF6078"/>
<path d="M135.673 42.0195H134.997V43.2751C134.997 43.3797 135.023 43.456 135.075 43.5046C135.126 43.5532 135.203 43.5802 135.302 43.5863C135.402 43.5923 135.525 43.5917 135.673 43.5836V44.2896C135.143 44.3497 134.77 44.2998 134.552 44.1384C134.335 43.9778 134.227 43.6895 134.227 43.2751V42.0195H133.707V41.2709H134.227V40.6614L134.998 40.4258V41.2709H135.674V42.0195H135.673Z" fill="#EF6078"/>
<path d="M139.589 40.9111C139.461 40.9111 139.351 40.8638 139.258 40.7693C139.164 40.6748 139.117 40.5634 139.117 40.4345C139.117 40.3056 139.164 40.1928 139.258 40.0963C139.351 39.9998 139.461 39.9512 139.589 39.9512C139.717 39.9512 139.833 39.9998 139.926 40.0963C140.02 40.1928 140.067 40.3056 140.067 40.4345C140.067 40.5634 140.02 40.6748 139.926 40.7693C139.833 40.8638 139.72 40.9111 139.589 40.9111ZM139.207 44.2916V41.2729H139.978V44.2916H139.207Z" fill="#EF6078"/>
<path d="M146.217 43.9133C145.91 44.2211 145.535 44.375 145.093 44.375C144.652 44.375 144.277 44.2211 143.973 43.9133C143.668 43.6054 143.516 43.2281 143.516 42.7812C143.516 42.3344 143.668 41.957 143.973 41.6492C144.277 41.3414 144.651 41.1875 145.093 41.1875C145.536 41.1875 145.91 41.3414 146.217 41.6492C146.523 41.957 146.677 42.3344 146.677 42.7812C146.677 43.2281 146.523 43.6054 146.217 43.9133ZM144.517 43.3793C144.67 43.5366 144.862 43.6149 145.093 43.6149C145.325 43.6149 145.518 43.5366 145.673 43.3793C145.828 43.2227 145.906 43.0229 145.906 42.7819C145.906 42.5409 145.828 42.3411 145.673 42.1845C145.518 42.0272 145.324 41.9489 145.093 41.9489C144.863 41.9489 144.67 42.0272 144.517 42.1845C144.363 42.3411 144.287 42.5409 144.287 42.7819C144.287 43.0229 144.364 43.2227 144.517 43.3793Z" fill="#EF6078"/>
<path d="M151.868 41.1875C152.195 41.1875 152.465 41.2982 152.678 41.5196C152.891 41.741 152.998 42.0468 152.998 42.437V44.2906H152.226V42.5342C152.226 42.333 152.173 42.1791 152.065 42.0725C151.958 41.9658 151.814 41.9125 151.635 41.9125C151.436 41.9125 151.276 41.9753 151.157 42.0995C151.038 42.2243 150.978 42.4113 150.978 42.6611V44.2913H150.207V41.2726H150.978V41.6107C151.165 41.3293 151.462 41.1882 151.869 41.1882L151.868 41.1875Z" fill="#EF6078"/>
<path d="M34.8909 35.7471H25.2781L25.7051 32.8154C26.3553 32.8154 29.4206 32.59 29.8676 32.1384C30.3147 31.6868 30.5379 31.1326 30.5379 30.4765V15.2911C30.5379 12.5113 27.349 12.8286 25.2687 12.8286L23.9609 10.4687C28.0313 10.4687 31.4534 10.6739 34.8909 8.16211V35.7464V35.7471Z" fill="#E32934"/>
<path d="M0 0.5V35.7459H23.7865L23.9121 34.8811H0.856033V1.36471H34.0355V7.22462C34.3208 7.05249 34.6062 6.86213 34.8915 6.65355V0.5H0Z" fill="#E32934"/>
<path d="M57.0489 31.3683H57.3169V16.8262H62.2406V35.7465H54.267L46.6409 21.2051H46.3729V35.7465H41.4492V16.8262H49.5839L57.0496 31.3683H57.0489Z" fill="white"/>
<path d="M65.2344 16.8262H84.045V20.8804H70.1574V24.3669H82.5729V28.2051H70.1574V31.6916H84.045V35.7458H65.2344V16.8262Z" fill="white"/>
<path d="M97.0243 29.8002L91.86 35.7465H85.4648L93.947 26.4217V26.151L85.4648 16.8262H91.7798L97.0243 22.7725H97.2916L102.456 16.8262H108.824L100.342 26.151V26.4217L108.824 35.7465H102.456L97.2916 29.8002H97.0243Z" fill="white"/>
<path d="M109.945 16.8262H114.869V28.3408C114.869 30.3139 116.18 31.6383 118.133 31.6383H123.057C125.01 31.6383 126.322 30.3139 126.322 28.3408V16.8262H131.245V27.9621C131.245 32.8 128.061 36.0172 123.272 36.0172H117.92C113.131 36.0172 109.947 32.8007 109.947 27.9621V16.8262H109.945Z" fill="white"/>
<path d="M133.227 16.8262H153.001V20.3397L140.933 31.3676H153.001V35.7465H133.227V32.233L145.295 21.2051H133.227V16.8262Z" fill="white"/>
</g>
<defs>
<clipPath id="clip0_266_19142">
<rect width="153" height="45" fill="white" transform="translate(0 0.5)"/>
</clipPath>
</defs>
</svg>
