<svg width="48" height="48" viewBox="0 0 48 48" fill="none" xmlns="http://www.w3.org/2000/svg">
<path d="M35.6667 8.99935H28.7C28 7.06602 26.1667 5.66602 24 5.66602C21.8333 5.66602 20 7.06602 19.3 8.99935H12.3333C10.5 8.99935 9 10.4993 9 12.3327V35.666C9 37.4993 10.5 38.9994 12.3333 38.9994H35.6667C37.5 38.9994 39 37.4993 39 35.666V12.3327C39 10.4993 37.5 8.99935 35.6667 8.99935ZM24 8.99935C24.9167 8.99935 25.6667 9.74935 25.6667 10.666C25.6667 11.5827 24.9167 12.3327 24 12.3327C23.0833 12.3327 22.3333 11.5827 22.3333 10.666C22.3333 9.74935 23.0833 8.99935 24 8.99935ZM27.3333 32.3327H15.6667V28.9993H27.3333V32.3327ZM32.3333 25.666H15.6667V22.3327H32.3333V25.666ZM32.3333 18.9993H15.6667V15.666H32.3333V18.9993Z" fill="#E32934"/>
</svg>
