<svg width="51" height="50" viewBox="0 0 51 50" fill="none" xmlns="http://www.w3.org/2000/svg">
<path d="M29.8281 26.5625H26.2812V23.7968C26.2812 22.7422 25.4219 21.875 24.3594 21.875H6.07032C3.85937 21.875 2.0625 23.6719 2.0625 25.8828V46.5234C2.0625 47.5781 2.92186 48.4375 3.98439 48.4375H29.8281C30.8906 48.4375 31.75 47.5781 31.75 46.5234V28.4843C31.75 27.4297 30.8906 26.5625 29.8281 26.5625ZM3.625 26.5625V25.8828C3.625 24.539 4.71877 23.4375 6.07032 23.4375H24.3594C24.5547 23.4375 24.7188 23.6015 24.7188 23.7968V26.5625H3.625ZM27.8438 40.2734C27.8438 41.3281 26.9844 42.1875 25.9219 42.1875H24.2969C23.2344 42.1875 22.375 41.3281 22.375 40.2734V36.2968C22.375 35.2422 23.2344 34.375 24.2969 34.375H25.9219C26.9844 34.375 27.8438 35.2422 27.8438 36.2968V40.2734Z" fill="#E32934"/>
<path d="M47.0156 17.1875C48.0781 17.1875 48.9375 16.3281 48.9375 15.2656V11.5703C48.9375 10.7734 48.4375 10.0547 47.7031 9.77347L29.5547 2.35937C26.9375 1.29688 24.0625 1.28906 21.4453 2.35937L3.31248 9.76565C2.56251 10.0469 2.0625 10.7734 2.0625 11.5703V15.2656C2.0625 16.3281 2.92186 17.1875 3.98439 17.1875H7.53125V19.5313C7.53125 19.9688 7.88282 20.3125 8.3125 20.3125C8.74218 20.3125 9.09375 19.9688 9.09375 19.5313V17.1875H15.3438V19.5313C15.3438 19.9688 15.6953 20.3125 16.125 20.3125C16.5547 20.3125 16.9062 19.9688 16.9062 19.5313V17.1875H34.875V34.375H34.0938C33.0703 34.3984 33.0625 35.9219 34.0938 35.9375C34.9844 35.9454 42.3828 35.9375 43.4688 35.9375H47.0156C47.2187 35.9375 47.375 36.1016 47.375 36.2969V40.2656C47.375 40.4688 47.2187 40.625 47.0156 40.625H34.0938C33.0703 40.6406 33.0625 42.1719 34.0938 42.1875H47.0156C48.0781 42.1875 48.9375 41.3281 48.9375 40.2656V36.2969C48.9375 35.2422 48.0781 34.375 47.0156 34.375H44.25V17.1875H47.0156ZM25.5 13.2813C21.375 13.1563 21.3672 7.16408 25.5 7.03128C29.625 7.16408 29.6328 13.1484 25.5 13.2813ZM42.6875 34.375H36.4375V17.1875H42.6875V34.375Z" fill="#E32934"/>
<path d="M26.2812 36.2968V40.2734C26.2812 40.4687 26.1172 40.625 25.9219 40.625H24.2969C24.1016 40.625 23.9375 40.4687 23.9375 40.2734V36.2968C23.9375 36.1015 24.1016 35.9375 24.2969 35.9375H25.9219C26.1172 35.9375 26.2812 36.1015 26.2812 36.2968Z" fill="#E32934"/>
</svg>
