<svg width="40" height="46" viewBox="0 0 40 46" fill="none" xmlns="http://www.w3.org/2000/svg">
<path d="M1.81818 3.63647C0.8182 3.63647 0 4.45462 0 5.45466V31.8183H1.81818V3.63647Z" fill="#E32934"/>
<path d="M8.1818 41.2819V33.6365H0.536377L8.1818 41.2819Z" fill="#E32934"/>
<path d="M32.7268 30.9092C28.7178 30.9092 25.4541 34.1728 25.4541 38.1819C25.4541 42.191 28.7178 45.4546 32.7268 45.4546C36.7359 45.4546 39.9996 42.191 39.9996 38.1819C39.9996 34.1728 36.7359 30.9092 32.7268 30.9092ZM36.5541 36.7001L32.3086 40.9455C31.9632 41.291 31.3723 41.291 31.0268 40.9455C31.0086 40.9364 28.8995 38.8273 28.8995 38.8273C28.545 38.4728 28.545 37.891 28.8995 37.5364C29.2541 37.1819 29.8359 37.1819 30.1905 37.5364L31.6632 39.0183L35.2632 35.4182C35.6177 35.0637 36.1996 35.0637 36.5541 35.4182C36.9086 35.7728 36.9086 36.3455 36.5541 36.7001Z" fill="#E32934"/>
<path d="M9.09088 18.1819H21.8182V20.0001H9.09088V18.1819Z" fill="#E32934"/>
<path d="M9.09088 14.5454H29.0909V16.3636H9.09088V14.5454Z" fill="#E32934"/>
<path d="M18.6366 6.90918L18.1063 8.18182H19.1669L18.6366 6.90918Z" fill="#E32934"/>
<path d="M10 40V41.8182H24.4007C24.1473 41.2401 23.9486 40.633 23.8196 40H10Z" fill="#E32934"/>
<path d="M23.6367 18.1819H29.0913V20.0001H23.6367V18.1819Z" fill="#E32934"/>
<path d="M10.0004 38.1818H23.6367C23.6367 33.1727 27.7185 29.0909 32.7276 29.0909C33.3458 29.0909 33.9549 29.1546 34.5458 29.2727V1.81818C34.5458 0.818146 33.7276 0 32.7276 0H5.4549C4.45492 0 3.63672 0.818146 3.63672 1.81818V31.8182H8.18217C9.18216 31.8182 10.0004 32.6363 10.0004 33.6364V38.1818ZM23.364 5.09089C23.064 4.69089 23.1458 4.11815 23.5458 3.8182C23.9458 3.51818 24.5185 3.59997 24.8185 3.99997L26.1367 5.75451L27.4549 3.99997C27.7549 3.59997 28.3276 3.51818 28.7276 3.8182C29.1276 4.11816 29.2094 4.69089 28.9094 5.09089L27.2731 7.27273L28.9094 9.45451C29.2095 9.85451 29.1276 10.4272 28.7276 10.7273C28.3186 11.0273 27.7367 10.9272 27.4549 10.5454L26.1367 8.79089L24.8185 10.5454C24.5185 10.9454 23.9458 11.0273 23.5458 10.7273C23.1458 10.4272 23.064 9.85451 23.364 9.45451L25.0004 7.27273L23.364 5.09089ZM17.8004 4.2C17.9367 3.85454 18.2731 3.63636 18.6367 3.63636C19.0004 3.63636 19.3367 3.85454 19.4731 4.2L21.7458 9.65455C21.9458 10.1091 21.7185 10.6454 21.2549 10.8364C20.8004 11.0273 20.264 10.8091 20.0731 10.3455L19.9276 10H17.3458L17.2003 10.3455C17.0095 10.8091 16.4822 11.0364 16.0185 10.8363C15.5549 10.6454 15.3276 10.1091 15.5276 9.65455L17.8004 4.2ZM10.0004 3.63636H14.5458C15.0458 3.63636 15.4549 4.04546 15.4549 4.54545C15.4549 5.04545 15.0458 5.45455 14.5458 5.45455H13.1822V10C13.1822 10.5 12.7731 10.9091 12.2731 10.9091C11.7731 10.9091 11.364 10.5 11.364 10V5.45455H10.0004C9.50036 5.45455 9.09126 5.04545 9.09126 4.54545C9.09126 4.04546 9.50036 3.63636 10.0004 3.63636ZM7.27308 13.6364C7.27308 13.1364 7.68218 12.7273 8.18217 12.7273H30.0004C30.5003 12.7273 30.9094 13.1364 30.9094 13.6364V20.9091C30.9094 21.4091 30.5003 21.8182 30.0004 21.8182H8.18217C7.68218 21.8182 7.27308 21.4091 7.27308 20.9091V13.6364ZM8.18217 23.6364H30.0004C30.5003 23.6364 30.9094 24.0455 30.9094 24.5455C30.9094 25.0454 30.5003 25.4545 30.0004 25.4545H8.18217C7.68218 25.4545 7.27308 25.0454 7.27308 24.5455C7.27308 24.0455 7.68218 23.6364 8.18217 23.6364ZM8.18217 29.0909C7.68218 29.0909 7.27308 28.6818 7.27308 28.1818C7.27308 27.6818 7.68218 27.2727 8.18217 27.2727H19.0913C19.5913 27.2727 20.0004 27.6818 20.0004 28.1818C20.0004 28.6818 19.5913 29.0909 19.0913 29.0909H8.18217Z" fill="#E32934"/>
</svg>
