<svg width="46" height="46" viewBox="0 0 46 46" fill="none" xmlns="http://www.w3.org/2000/svg">
<path d="M44.0391 0.34375H1.96094C1.53203 0.34375 1.12069 0.514132 0.817413 0.817413C0.514132 1.12069 0.34375 1.53203 0.34375 1.96094V15.1328C0.34375 15.3452 0.38558 15.5555 0.466851 15.7517C0.548122 15.9479 0.667243 16.1262 0.817413 16.2763C0.967583 16.4265 1.14586 16.5456 1.34207 16.6269C1.53827 16.7082 1.74857 16.75 1.96094 16.75H15.1875V19.875H1.90625C1.49185 19.875 1.09442 20.0396 0.801396 20.3326C0.50837 20.6257 0.34375 21.0231 0.34375 21.4375C0.34375 21.8519 0.50837 22.2493 0.801396 22.5424C1.09442 22.8354 1.49185 23 1.90625 23H4.25L1.90625 44.8203C1.89099 45.0239 1.95603 45.2254 2.08744 45.3816C2.21885 45.5378 2.40619 45.6364 2.60938 45.6562H2.6875C2.87825 45.6579 3.063 45.5896 3.20691 45.4644C3.35083 45.3392 3.44396 45.1657 3.46875 44.9766L5.8125 23.0547C5.81654 23.0367 5.81654 23.018 5.8125 23H15.1875V26.2812C15.1896 26.8608 15.4207 27.416 15.8305 27.8258C16.2403 28.2356 16.7955 28.4667 17.375 28.4688H21.4375V31.5938H16.75C16.3356 31.5938 15.9382 31.7584 15.6451 32.0514C15.3521 32.3444 15.1875 32.7418 15.1875 33.1562C15.1875 33.5707 15.3521 33.9681 15.6451 34.2611C15.9382 34.5541 16.3356 34.7188 16.75 34.7188H22.2188V40.1875C18.2188 40.4141 15.1875 42.3828 15.1875 44.875C15.1875 45.0822 15.2698 45.2809 15.4163 45.4274C15.5628 45.5739 15.7615 45.6562 15.9688 45.6562C16.176 45.6562 16.3747 45.5739 16.5212 45.4274C16.6677 45.2809 16.75 45.0822 16.75 44.875C16.75 43.5078 18.9609 41.9922 22.2188 41.75V44.875C22.2188 45.0822 22.3011 45.2809 22.4476 45.4274C22.5941 45.5739 22.7928 45.6562 23 45.6562C23.2072 45.6562 23.4059 45.5739 23.5524 45.4274C23.6989 45.2809 23.7812 45.0822 23.7812 44.875V41.75C27.0391 41.9609 29.25 43.4766 29.25 44.875C29.25 45.0822 29.3323 45.2809 29.4788 45.4274C29.6253 45.5739 29.824 45.6562 30.0312 45.6562C30.2385 45.6562 30.4372 45.5739 30.5837 45.4274C30.7302 45.2809 30.8125 45.0822 30.8125 44.875C30.8125 42.4062 27.7812 40.4375 23.7812 40.1875V34.7188H29.25C29.6644 34.7188 30.0618 34.5541 30.3549 34.2611C30.6479 33.9681 30.8125 33.5707 30.8125 33.1562C30.8125 32.7418 30.6479 32.3444 30.3549 32.0514C30.0618 31.7584 29.6644 31.5938 29.25 31.5938H24.5625V28.4688H28.625C29.2045 28.4667 29.7597 28.2356 30.1695 27.8258C30.5793 27.416 30.8104 26.8608 30.8125 26.2812V23H40.1875C40.1835 23.018 40.1835 23.0367 40.1875 23.0547L42.5312 44.9766C42.556 45.1657 42.6492 45.3392 42.7931 45.4644C42.937 45.5896 43.1217 45.6579 43.3125 45.6562H43.3906C43.5938 45.6364 43.7812 45.5378 43.9126 45.3816C44.044 45.2254 44.109 45.0239 44.0938 44.8203L41.75 23H44.0938C44.5082 23 44.9056 22.8354 45.1986 22.5424C45.4916 22.2493 45.6562 21.8519 45.6562 21.4375C45.6562 21.0231 45.4916 20.6257 45.1986 20.3326C44.9056 20.0396 44.5082 19.875 44.0938 19.875H30.8125V16.75H44.0391C44.468 16.75 44.8793 16.5796 45.1826 16.2763C45.4859 15.9731 45.6562 15.5617 45.6562 15.1328V1.96094C45.6562 1.53203 45.4859 1.12069 45.1826 0.817413C44.8793 0.514132 44.468 0.34375 44.0391 0.34375ZM18.3125 3.46875V5.03125H27.6875V3.46875L32.375 5.8125L27.6875 8.15625V6.59375H18.3125V8.15625L13.625 5.8125L18.3125 3.46875ZM43.3125 13.625C43.3125 13.8322 43.2302 14.0309 43.0837 14.1774C42.9372 14.3239 42.7384 14.4062 42.5312 14.4062H30.8125V13.4687C30.8104 12.8892 30.5793 12.334 30.1695 11.9242C29.7597 11.5144 29.2045 11.2833 28.625 11.2812H17.375C16.7955 11.2833 16.2403 11.5144 15.8305 11.9242C15.4207 12.334 15.1896 12.8892 15.1875 13.4687V14.4062H3.46875C3.26155 14.4062 3.06284 14.3239 2.91632 14.1774C2.76981 14.0309 2.6875 13.8322 2.6875 13.625V12.6875C2.74982 11.5536 3.217 10.4796 4.0041 9.661C4.7912 8.84236 5.84595 8.33336 6.97656 8.22656C6.47115 7.82191 6.1039 7.27027 5.92557 6.64787C5.74724 6.02547 5.76662 5.36304 5.98105 4.75214C6.19548 4.14123 6.59436 3.61201 7.12257 3.23761C7.65078 2.86321 8.28224 2.66211 8.92969 2.66211C9.57713 2.66211 10.2086 2.86321 10.7368 3.23761C11.265 3.61201 11.6639 4.14123 11.8783 4.75214C12.0928 5.36304 12.1121 6.02547 11.9338 6.64787C11.7555 7.27027 11.3882 7.82191 10.8828 8.22656C11.679 8.33026 12.4393 8.62069 13.1019 9.07416C13.7645 9.52764 14.3104 10.1313 14.6953 10.8359C15.0456 10.4813 15.4629 10.1999 15.9229 10.0081C16.383 9.81631 16.8766 9.71795 17.375 9.71875H28.625C29.1208 9.72001 29.6115 9.81938 30.0687 10.0111C30.5259 10.2029 30.9407 10.4832 31.2891 10.8359C31.6739 10.1313 32.2199 9.52764 32.8825 9.07416C33.545 8.62069 34.3054 8.33026 35.1016 8.22656C34.5962 7.82191 34.2289 7.27027 34.0506 6.64787C33.8722 6.02547 33.8916 5.36304 34.106 4.75214C34.3205 4.14123 34.7194 3.61201 35.2476 3.23761C35.7758 2.86321 36.4072 2.66211 37.0547 2.66211C37.7021 2.66211 38.3336 2.86321 38.8618 3.23761C39.39 3.61201 39.7889 4.14123 40.0033 4.75214C40.2178 5.36304 40.2371 6.02547 40.0588 6.64787C39.8805 7.27027 39.5132 7.82191 39.0078 8.22656C40.1412 8.32983 41.1997 8.83727 41.99 9.65625C42.7803 10.4752 43.2497 11.5511 43.3125 12.6875V13.625Z" fill="#E32934"/>
</svg>
