<svg width="49" height="50" viewBox="0 0 49 50" fill="none" xmlns="http://www.w3.org/2000/svg">
<path d="M21.052 14.6553H14.1554C12.7289 14.6595 11.5735 15.8149 11.5692 17.2415V20.6898C11.5692 21.1659 11.9552 21.5518 12.4313 21.5518C12.9074 21.5518 13.2934 21.1659 13.2934 20.6898V17.2415C13.2934 16.7654 13.6793 16.3794 14.1554 16.3794C14.6315 16.3794 15.0175 16.7654 15.0175 17.2415V30.1725C15.0136 30.3971 15.1043 30.613 15.2675 30.7673C15.5097 31.0201 15.8813 31.0999 16.2059 30.969C16.5305 30.838 16.7427 30.5226 16.7416 30.1725V23.276C16.7416 22.7999 17.1276 22.4139 17.6037 22.4139C18.0798 22.4139 18.4658 22.7999 18.4658 23.276V30.1725C18.4718 30.6461 18.8543 31.0286 19.3278 31.0346C19.8039 31.0346 20.1899 30.6486 20.1899 30.1725V17.2415C20.1899 16.7654 20.5759 16.3794 21.052 16.3794C21.5281 16.3794 21.914 16.7654 21.914 17.2415V20.6898C21.914 21.1659 22.3 21.5518 22.7761 21.5518C23.2522 21.5518 23.6382 21.1659 23.6382 20.6898V17.2415C23.6398 16.5551 23.3678 15.8963 22.8825 15.411C22.3971 14.9256 21.7384 14.6537 21.052 14.6553Z" fill="#E32934"/>
<path d="M17.604 12.9312C18.5562 12.9312 19.3282 12.1593 19.3282 11.207C19.3282 10.2548 18.5562 9.48291 17.604 9.48291C16.6518 9.48291 15.8799 10.2548 15.8799 11.207C15.8799 12.1593 16.6518 12.9312 17.604 12.9312Z" fill="#E32934"/>
<path d="M11.6985 43.1034H17.6037C18.0798 43.1034 18.4658 42.7175 18.4658 42.2414V41.5C18.494 39.8502 17.9622 38.2396 16.9572 36.931C15.1399 34.6534 14.6451 36.3491 9.37958 31.9052C8.99371 31.5849 8.51029 31.4055 8.00889 31.3965C7.66289 31.3939 7.34828 31.5967 7.20793 31.913C7.06757 32.2293 7.12822 32.5987 7.36234 32.8534C7.51665 33.0259 6.94251 32.4405 11.5865 37.0948C11.9207 37.4311 11.9207 37.9741 11.5865 38.3103C11.4275 38.4757 11.2081 38.5691 10.9787 38.5691C10.7494 38.5691 10.5299 38.4757 10.371 38.3103C4.31493 32.2672 5.45717 33.9509 2.32786 26.6638C2.18751 26.3181 1.87012 26.0761 1.49957 26.0324C1.12901 25.9888 0.764048 26.1502 0.547135 26.4538C0.330221 26.7574 0.295746 27.155 0.457167 27.4914C4.12786 35.5724 4.1132 35.8802 5.35372 37.1207L11.0865 42.8534C11.2509 43.0122 11.47 43.1017 11.6985 43.1034Z" fill="#E32934"/>
<path d="M47.6119 26.0432C47.2024 26.0427 46.8324 26.2872 46.6722 26.6639C43.5756 33.8794 44.7489 32.2044 38.6291 38.3105C38.4701 38.4758 38.2507 38.5692 38.0213 38.5692C37.792 38.5692 37.5725 38.4758 37.4136 38.3105C37.0793 37.9742 37.0793 37.4312 37.4136 37.0949C42.0575 32.4398 41.4834 33.0225 41.6377 32.8536C41.871 32.5985 41.9311 32.2296 41.7909 31.9136C41.6507 31.5977 41.3368 31.3948 40.9912 31.3967C40.4898 31.4056 40.0063 31.585 39.6205 31.9053C34.3515 36.3527 33.861 34.6518 32.0429 36.9311C31.0379 38.2398 30.5061 39.8504 30.5343 41.5001V42.2415C30.5343 42.7176 30.9202 43.1036 31.3963 43.1036H37.3015C37.5301 43.1019 37.7492 43.0123 37.9136 42.8536L43.6463 37.1208C44.8998 35.8674 44.8834 35.5467 48.5429 27.4915C48.6866 27.1747 48.6597 26.8066 48.4716 26.5139C48.2835 26.2213 47.9597 26.0441 47.6119 26.0432Z" fill="#E32934"/>
<path d="M25.3623 17.2415V20.6898C25.3623 21.1659 25.7483 21.5518 26.2244 21.5518C26.7005 21.5518 27.0864 21.1659 27.0864 20.6898V17.2415C27.0864 16.7654 27.4724 16.3794 27.9485 16.3794C28.4246 16.3794 28.8106 16.7654 28.8106 17.2415C28.8106 21.1208 28.8494 21.8105 28.7158 21.9398L26.7589 25.8622H36.0347L34.0778 21.9398C33.9511 21.8105 33.983 21.1587 33.983 17.2415C33.983 16.7654 34.369 16.3794 34.8451 16.3794C35.3212 16.3794 35.7071 16.7654 35.7071 17.2415V20.6898C35.7071 21.1659 36.0931 21.5518 36.5692 21.5518C37.0453 21.5518 37.4313 21.1659 37.4313 20.6898V17.2415C37.4329 16.5551 37.1609 15.8963 36.6756 15.411C36.1902 14.9256 35.5315 14.6537 34.8451 14.6553H27.9485C26.522 14.6595 25.3666 15.8149 25.3623 17.2415Z" fill="#E32934"/>
<path d="M19.3278 44.8276H12.4313C11.4803 44.8305 10.71 45.6007 10.7072 46.5518V48.2759C10.71 49.2269 11.4803 49.9972 12.4313 50.0001H19.3278C20.2789 49.9972 21.0491 49.2269 21.052 48.2759V46.5518C21.0491 45.6007 20.2789 44.8305 19.3278 44.8276ZM18.4658 48.2759H17.6037C17.1276 48.2759 16.7416 47.89 16.7416 47.4138C16.7416 46.9377 17.1276 46.5518 17.6037 46.5518H18.4658C18.9419 46.5518 19.3278 46.9377 19.3278 47.4138C19.3278 47.89 18.9419 48.2759 18.4658 48.2759Z" fill="#E32934"/>
<path d="M36.5689 44.8276H29.6724C28.7213 44.8305 27.9511 45.6007 27.9482 46.5518V48.2759C27.9511 49.2269 28.7213 49.9972 29.6724 50.0001H36.5689C37.52 49.9972 38.2902 49.2269 38.2931 48.2759V46.5518C38.2902 45.6007 37.52 44.8305 36.5689 44.8276ZM31.3965 48.2759H30.5344C30.0583 48.2759 29.6724 47.89 29.6724 47.4138C29.6724 46.9377 30.0583 46.5518 30.5344 46.5518H31.3965C31.8726 46.5518 32.2586 46.9377 32.2586 47.4138C32.2586 47.89 31.8726 48.2759 31.3965 48.2759Z" fill="#E32934"/>
<path d="M39.1551 7.06918V3.44849C39.1551 2.97239 38.7691 2.58643 38.293 2.58643H35.7068C35.2307 2.58643 34.8448 2.97239 34.8448 3.44849V5.12953C34.8427 5.40136 34.9709 5.65775 35.1896 5.81918L37.7758 7.75884C38.037 7.95476 38.3865 7.98627 38.6786 7.84024C38.9706 7.69421 39.1551 7.39571 39.1551 7.06918Z" fill="#E32934"/>
<path d="M31.3969 12.9312C32.3491 12.9312 33.121 12.1593 33.121 11.207C33.121 10.2548 32.3491 9.48291 31.3969 9.48291C30.4447 9.48291 29.6727 10.2548 29.6727 11.207C29.6727 12.1593 30.4447 12.9312 31.3969 12.9312Z" fill="#E32934"/>
<path d="M28.8107 30.1726C28.8167 30.6462 29.1992 31.0287 29.6727 31.0347C30.1488 31.0347 30.5348 30.6487 30.5348 30.1726V27.5864H28.8107V30.1726Z" fill="#E32934"/>
<path d="M32.2589 30.1726C32.265 30.6462 32.6474 31.0287 33.121 31.0347C33.5971 31.0347 33.983 30.6487 33.983 30.1726V27.5864H32.2589V30.1726Z" fill="#E32934"/>
<path d="M23.983 0.353555L14.3451 7.57769C14.3403 7.57769 14.3365 7.58155 14.3365 7.58631C8.7658 11.7596 9.92873 10.8889 8.4658 11.9829C8.2502 12.1469 8.12284 12.4016 8.12097 12.6725V28.9311C8.12171 29.3435 8.41438 29.6976 8.81925 29.776C9.43475 29.9048 10.0091 30.1831 10.4917 30.5863C14.9494 34.3561 15.5279 33.2665 17.3968 34.9225C17.7358 35.203 18.1639 35.3528 18.6037 35.3449H30.3968C31.6615 35.3449 31.8106 34.338 33.5692 33.7587C35.3886 32.9981 37.0604 31.9244 38.5089 30.5863C38.9941 30.1854 39.5671 29.9048 40.1813 29.7673C40.5841 29.6915 40.8768 29.341 40.8796 28.9311V12.6725C40.8777 12.4016 40.7504 12.1469 40.5348 11.9829C39.2313 11.0148 41.5089 12.7199 25.0175 0.353555C24.712 0.120755 24.2886 0.120755 23.983 0.353555ZM31.3968 7.75873C32.6294 7.75595 33.7688 8.41436 34.3818 9.48364C34.9949 10.5529 34.9875 11.8689 34.3623 12.9311H34.8451C37.2241 12.9349 39.1517 14.8625 39.1555 17.2415V20.6898C39.1518 22.0785 38.0519 23.2164 36.6641 23.2673L37.5779 25.0949C37.8434 25.6292 37.8138 26.2628 37.4996 26.77C37.1855 27.2772 36.6314 27.586 36.0348 27.5863H35.7072V30.1725C35.7063 31.192 35.1053 32.1155 34.1735 32.5292C33.2417 32.943 32.1537 32.7694 31.3968 32.0863C30.6405 32.771 29.5516 32.9456 28.6191 32.5315C27.6866 32.1175 27.0858 31.1928 27.0865 30.1725V27.5863H26.7589C26.1623 27.586 25.6082 27.2772 25.2941 26.77C24.9799 26.2628 24.9503 25.6292 25.2158 25.0949L26.1296 23.2673C25.5252 23.2451 24.9481 23.01 24.5003 22.6036C23.8033 23.247 22.805 23.4466 21.9141 23.1208V30.1725C21.9132 31.192 21.3122 32.1155 20.3804 32.5292C19.4486 32.943 18.3606 32.7694 17.6037 32.0863C16.8474 32.771 15.7585 32.9456 14.826 32.5315C13.8935 32.1175 13.2927 31.1928 13.2934 30.1725V23.1208C12.503 23.4028 11.6248 23.2829 10.9389 22.7993C10.2531 22.3158 9.84509 21.529 9.84511 20.6898V17.2415C9.84511 14.8609 11.7749 12.9311 14.1555 12.9311H14.6382C13.7932 11.4875 14.1105 9.64516 15.3897 8.5674C16.669 7.48963 18.5385 7.48963 19.8177 8.5674C21.097 9.64516 21.4143 11.4875 20.5692 12.9311H21.052C22.4159 12.9262 23.699 13.5774 24.5003 14.6811C25.3083 13.5854 26.5871 12.9364 27.9486 12.9311H28.4313C27.8056 11.8689 27.7979 10.5527 28.4111 9.48321C29.0242 8.41372 30.164 7.75541 31.3968 7.75873Z" fill="#E32934"/>
</svg>
