<svg width="187" height="104" viewBox="0 0 187 104" fill="none" xmlns="http://www.w3.org/2000/svg">
<path d="M168.505 42.8866C167.681 41.166 166.573 39.5949 165.228 38.2382C164.957 37.9775 164.668 37.7376 164.361 37.5206C164.13 37.3424 163.889 37.1772 163.64 37.0257H163.588L163.523 36.9876C163.253 36.8419 162.976 36.7104 162.693 36.5936H162.62C161.908 36.3137 161.149 36.1697 160.383 36.1691H160.066C159.224 36.2224 158.403 36.447 157.655 36.8315C156.77 37.2988 155.958 37.8913 155.245 38.5904H155.201L155.157 38.6342C155.129 38.6662 155.097 38.6949 155.063 38.7198L154.925 38.8493C154.435 39.308 153.944 39.8048 153.374 40.3854L152.97 40.8042C152.458 41.3139 151.95 41.8279 151.447 42.346C151.604 39.6316 151.772 36.8525 151.908 34.0943C151.908 33.7421 151.944 33.3767 151.973 33.0302C152.074 31.8253 152.099 30.6128 152.046 29.404V29.109C151.973 27.7308 151.858 25.6541 150.477 23.8743C149.463 22.5495 147.439 21 143.586 21C142.714 21.0059 141.843 21.0707 140.98 21.1942C139.562 21.3945 138.163 21.7142 136.8 22.1497C132.512 23.5507 130.037 25.7398 129.415 28.715C128.96 30.9192 129.776 32.838 130.31 34.1076L130.425 34.3817C130.909 35.4953 131.466 36.5746 132.093 37.6139L132.614 38.5409C133.942 40.9442 135.287 43.3383 136.649 45.7229L134.582 45.0052L134.056 44.8187C133.291 44.5389 132.614 44.3009 131.984 44.0992L131.812 44.0497L131.69 44.0135H131.573C130.622 43.6966 129.629 43.5202 128.627 43.49H128.47C127.679 43.4867 126.895 43.6428 126.166 43.9488C125.359 44.2876 124.636 44.794 124.043 45.4354C123.845 45.6674 123.658 45.9074 123.48 46.155L123.438 46.2121L123.394 46.2768C123.029 46.8288 122.731 47.4217 122.506 48.0433V48.087C121.894 49.8834 121.588 51.7693 121.603 53.6662C119.763 46.4843 113.729 41.1754 106.61 41.1754C104.026 41.1836 101.49 41.8733 99.2613 43.1741C98.0052 42.1171 96.4259 41.5152 94.7815 41.4668C93.1372 41.4184 91.5249 41.9263 90.2082 42.9076V39.1291C90.1638 37.2257 89.3791 35.4137 88.0193 34.0742C86.6594 32.7347 84.8304 31.9722 82.9171 31.9471C80.9777 31.9542 79.1205 32.7267 77.7531 34.095C76.3857 35.4633 75.62 37.3156 75.6241 39.2452V47.0953C75.4422 46.8572 75.2474 46.629 75.0405 46.4119C72.9411 44.224 70.2988 42.6259 67.3802 41.7788C64.4409 40.956 61.33 40.9586 58.3921 41.7864H58.3137C55.9448 42.4038 53.7544 43.5649 51.9179 45.1766C51.3379 43.9637 50.4229 42.9401 49.2798 42.2255C48.1367 41.5109 46.8128 41.1348 45.4629 41.1411C44.778 41.1411 44.0988 41.2401 43.4426 41.4342C39.8324 42.5193 38.388 46.0103 37.5079 48.0928C37.4275 48.2869 37.3548 48.4677 37.2783 48.6391C37.0602 49.1568 36.8517 49.6156 36.6852 49.9829C36.5175 50.3388 36.363 50.7007 36.2222 51.0679C36.1208 51.3478 36.0347 51.54 35.9353 51.7856C35.3327 50.5685 34.7237 49.3547 34.1082 48.1441L33.7447 47.3827C32.8359 45.4412 31.4718 42.5269 28.0798 41.5066C26.3887 40.9925 24.5661 41.1216 22.9653 41.8691C21.3646 42.6165 20.1 43.9289 19.4169 45.5516C17.7773 49.4081 19.8129 52.8116 20.9035 54.637C21.684 55.9314 22.6865 57.6446 23.6259 59.4282C24.0277 60.1458 24.1807 60.4485 25.0684 62.1635L25.1985 62.4015L26.3254 64.5563C26.5932 65.0512 26.8879 65.6184 27.2341 66.2809C27.6034 66.9985 28.0224 67.7732 28.4834 68.6355C28.405 68.744 28.3247 68.8582 28.2309 68.9667L28.1659 69.0448L28.0645 68.9953C27.3445 68.6314 26.5807 68.3608 25.7916 68.1901C25.2352 68.0617 24.6659 67.9965 24.0946 67.9959C22.8449 67.9955 21.6171 68.3224 20.5346 68.9439C19.4522 69.5655 18.5533 70.4596 17.9285 71.5365C17.3042 72.6211 16.9838 73.8526 17.0006 75.1024C17.0175 76.3522 17.3709 77.5746 18.0241 78.6423C20.1879 82.2323 24.5997 83.54 28.03 83.54C28.9388 83.5438 29.8475 83.4506 30.7353 83.2602C38.4396 81.5946 41.7743 74.209 44.2078 68.8163L44.6976 67.7313C45.1994 66.587 45.7218 65.4517 46.2645 64.3259L46.7485 63.2695C47.2406 64.8413 47.9626 66.3326 48.8913 67.6952C49.4652 68.5441 50.1061 69.3455 50.8121 70.0879C51.5295 70.8169 52.3101 71.4813 53.1443 72.0771C53.9861 72.6595 54.8852 73.1621 55.8227 73.577C56.7793 74.0225 57.7799 74.3575 58.8111 74.584C59.4424 74.7382 60.0853 74.8562 60.7319 74.9342C61.325 74.9971 61.9181 75.0237 62.515 75.0142H63.0411C65.1795 75.0164 67.3023 74.652 69.3163 73.9368C70.2423 73.6322 71.1396 73.242 71.9948 72.7737C73.5151 71.8953 74.7633 70.6178 75.603 69.0809C75.8252 70.8332 76.6798 72.4454 78.0077 73.6174C79.3356 74.7894 81.0463 75.4414 82.8214 75.452C84.3845 75.452 85.9035 74.9476 87.1547 74.0148V76.2857C87.1547 78.2097 87.9229 80.0549 89.2903 81.4153C90.6576 82.7757 92.5121 83.54 94.4459 83.54C96.3796 83.54 98.2341 82.7757 99.6014 81.4153C100.969 80.0549 101.737 78.2097 101.737 76.2857V74.3042C103.275 74.8372 104.894 75.1094 106.524 75.1075C115.085 75.1075 122.051 67.5219 122.066 58.1985C122.242 58.7639 122.485 59.3064 122.788 59.8165C123.247 60.536 123.848 61.1547 124.557 61.6325C125.577 62.3094 126.768 62.6855 127.993 62.7175H128.556C129.509 62.6948 130.456 62.56 131.378 62.3158H131.531L135.522 61.4174C134.894 62.2797 134.28 63.1191 133.689 63.9529L133.356 64.4192C132.874 65.0797 132.461 65.6622 132.093 66.2218L131.992 66.3798L131.919 66.4883L131.885 66.5378V66.5892C131.312 67.4181 130.865 68.3254 130.555 69.2827C130.302 70.093 130.224 70.9472 130.326 71.7896C130.436 72.65 130.733 73.4781 131.19 74.2166V74.2528C131.357 74.5117 131.544 74.7629 131.732 74.9704L131.776 75.0142L131.812 75.0637C132.013 75.3016 132.237 75.5243 132.463 75.7394C132.727 76.0002 133.012 76.2401 133.314 76.459C134.741 77.4297 136.302 78.1912 137.948 78.7203C139.35 79.1848 140.806 79.4627 142.279 79.5465H142.7C142.941 79.5489 143.182 79.5369 143.421 79.5103C143.722 79.4855 144.02 79.4456 144.315 79.3885H144.445C144.747 79.318 145.047 79.2305 145.34 79.1296H145.384C146.194 78.8303 146.932 78.3653 147.55 77.7648C148.143 77.1631 148.608 76.4474 148.914 75.6614C149.263 74.7195 149.473 73.732 149.536 72.73V72.6005C149.54 72.5575 149.54 72.5141 149.536 72.4711V72.3055C149.599 71.5879 149.629 70.9273 149.664 70.1507V69.0467L149.911 69.4902L150.192 70.0156C150.582 70.7332 150.913 71.3366 151.259 71.9115L151.347 72.0542L151.426 72.1837V72.2274L151.464 72.2845C152.017 73.1373 152.692 73.9025 153.469 74.5612C154.091 75.1417 154.828 75.5852 155.635 75.8613H155.679C156.305 76.0706 156.961 76.1772 157.621 76.1772C157.825 76.1772 158.03 76.1639 158.233 76.1411H158.3C158.61 76.1068 158.918 76.0554 159.224 75.9831H159.352C159.649 75.9069 159.941 75.8099 160.227 75.6976C160.567 75.57 160.896 75.4177 161.216 75.2445C162.508 74.5265 163.697 73.6398 164.753 72.6081C165.999 71.4146 167.069 70.0507 167.929 68.5575C168.261 67.9625 168.514 67.3271 168.681 66.6673V66.5454C168.752 66.2475 168.805 65.9456 168.84 65.6413V65.5461C168.921 64.6927 168.823 63.8317 168.551 63.0182C168.266 62.2143 167.813 61.4798 167.221 60.8634C166.522 60.1409 165.722 59.5217 164.847 59.0246H164.795L164.738 58.9904L164.623 58.9257L164.478 58.8305C163.902 58.4936 163.259 58.1129 162.58 57.7836L162.017 57.4809C161.12 56.9827 160.212 56.5035 159.295 56.0437L163.251 55.132H163.404C164.528 54.9208 165.611 54.5354 166.615 53.9898C167.7 53.4272 168.604 52.5707 169.222 51.5191C169.628 50.7862 169.875 49.9772 169.944 49.1416C170.261 46.549 169.165 44.2572 168.509 42.8866H168.505Z" fill="white" fill-opacity="0.96"/>
<path d="M138.683 56.9618L141.064 56.4136C141.114 56.4021 141.198 56.3831 141.298 56.3507C141.956 56.1752 142.52 55.7525 142.87 55.1716C143.221 54.5907 143.332 53.897 143.179 53.2366L143.169 53.1947C143.09 52.8783 142.953 52.5794 142.763 52.3134C142.497 51.9766 142.167 51.6947 141.791 51.4835C141.35 51.2331 140.888 51.0204 140.41 50.8477L137.799 49.8978C136.333 49.3553 134.868 48.828 133.387 48.3122C132.428 47.9734 131.615 47.6745 130.909 47.4556C130.775 47.4186 130.642 47.378 130.509 47.3338C129.656 47.0749 129.055 46.9664 128.548 46.9626C128.21 46.9501 127.872 47.0111 127.559 47.1415C127.233 47.2823 126.939 47.4898 126.698 47.7507C126.579 47.8856 126.467 48.0267 126.362 48.1732C126.158 48.4848 125.99 48.8181 125.86 49.1669C125.375 50.5927 125.133 52.0892 125.145 53.5944C125.154 54.9536 125.191 56.6991 125.943 57.8831C126.124 58.1876 126.367 58.4503 126.656 58.654C127.192 59.0214 127.732 59.0709 128.296 59.1108C129.138 59.1698 129.951 58.9662 130.764 58.7777L138.677 56.9599L138.683 56.9618ZM165.257 44.3814C164.606 43.0236 163.732 41.7837 162.67 40.7134C162.533 40.5772 162.386 40.4513 162.23 40.3365C162.086 40.2291 161.937 40.1294 161.782 40.0376C161.623 39.951 161.46 39.8728 161.292 39.8035C160.962 39.6743 160.608 39.6159 160.254 39.6322C159.915 39.6512 159.584 39.7464 159.284 39.9044C158.83 40.129 158.338 40.4906 157.684 41.0941C157.594 41.1835 157.481 41.2844 157.378 41.3796C156.84 41.884 156.24 42.5065 155.526 43.2298C154.422 44.3396 153.337 45.455 152.257 46.58L150.324 48.5749C149.971 48.9387 149.65 49.3316 149.364 49.7493C149.119 50.1028 148.945 50.5005 148.853 50.92C148.801 51.2423 148.809 51.5713 148.876 51.8908L148.885 51.9327C149.038 52.5924 149.442 53.1673 150.012 53.5366C150.583 53.9058 151.275 54.0405 151.943 53.9123C152.023 53.9011 152.103 53.8858 152.182 53.8667L162.479 51.4987C163.292 51.3121 164.114 51.1408 164.843 50.7182C165.333 50.4384 165.798 50.1586 166.117 49.5952C166.288 49.2848 166.391 48.9424 166.42 48.5901C166.579 47.1929 165.846 45.6073 165.257 44.3814ZM146.823 48.6891C147.569 47.7564 147.569 46.3668 147.634 45.2285C147.86 41.431 148.095 37.6335 148.285 33.834C148.356 32.395 148.511 30.975 148.424 29.5245C148.354 28.3291 148.346 26.9547 147.586 25.9725C146.247 24.2403 143.389 24.3831 141.439 24.6534C140.838 24.736 140.241 24.8478 139.651 24.9884C139.058 25.1293 138.468 25.2835 137.894 25.4681C136.023 26.0772 133.393 27.1965 132.949 29.3417C132.696 30.5543 133.293 31.7935 133.752 32.9013C134.313 34.2414 135.076 35.4501 135.773 36.7122C137.615 40.0452 139.49 43.3592 141.359 46.6752C141.92 47.665 142.526 48.9175 143.607 49.4315C143.68 49.4619 143.752 49.4886 143.827 49.5133C144.311 49.6961 144.841 49.7303 145.344 49.6142L145.434 49.5952C145.901 49.4676 146.322 49.2145 146.653 48.8661C146.714 48.809 146.768 48.7519 146.823 48.6891ZM145.93 58.8558C145.638 58.4482 145.225 58.1427 144.749 57.9831C144.273 57.8234 143.758 57.8177 143.278 57.9668C143.165 58.0038 143.055 58.049 142.949 58.102C142.785 58.1854 142.628 58.2828 142.48 58.3932C142.059 58.7234 141.683 59.1067 141.361 59.5334C141.279 59.6381 141.202 59.7771 141.103 59.8684L139.446 62.1336C138.508 63.4052 137.581 64.6786 136.664 65.9711C136.063 66.8068 135.547 67.513 135.136 68.1354C135.059 68.2534 134.979 68.3829 134.906 68.4895C134.414 69.2433 134.137 69.7953 133.993 70.2864C133.886 70.6126 133.852 70.9583 133.894 71.2991C133.94 71.6531 134.06 71.9938 134.246 72.3003C134.345 72.4526 134.453 72.6011 134.567 72.7438C134.815 73.0278 135.094 73.2832 135.4 73.5052C136.544 74.2971 137.795 74.8662 139.111 75.306C140.207 75.6676 141.346 75.8846 142.497 75.9493C142.694 75.9589 142.892 75.9551 143.087 75.9379C143.268 75.9211 143.448 75.8957 143.626 75.8618C143.805 75.8204 143.981 75.7696 144.154 75.7095C144.491 75.584 144.797 75.3894 145.053 75.1385C145.296 74.8967 145.484 74.6055 145.601 74.2838C145.792 73.8079 145.918 73.2064 146.002 72.3117C146.008 72.1842 146.027 72.0319 146.041 71.893C146.106 71.1506 146.136 70.275 146.182 69.2509C146.264 67.6729 146.328 66.1025 146.377 64.5283L146.484 61.7263C146.509 61.0829 146.488 60.3672 146.308 59.7257C146.229 59.4175 146.102 59.1239 145.93 58.8558ZM164.627 63.2396C164.283 62.8608 163.793 62.4858 163.02 62.0213C162.909 61.9585 162.777 61.8767 162.657 61.8043C162.014 61.4179 161.239 61.0144 160.334 60.5252C158.943 59.7637 157.552 59.0252 156.146 58.2904L153.665 56.9808C153.536 56.9427 153.406 56.8514 153.284 56.7924C152.807 56.5499 152.3 56.3701 151.776 56.2575C151.596 56.2228 151.413 56.2037 151.229 56.2004C151.11 56.1997 150.991 56.2067 150.873 56.2213C150.377 56.2976 149.917 56.5281 149.559 56.8798C149.202 57.2316 148.966 57.6866 148.884 58.18C148.847 58.4941 148.859 58.812 148.92 59.1204C149.04 59.779 149.335 60.4281 149.641 60.9972L150.965 63.4699C151.704 64.8633 152.45 66.249 153.215 67.631C153.709 68.5313 154.12 69.3023 154.504 69.9419C154.577 70.0618 154.659 70.1912 154.723 70.3035C155.191 71.0706 155.566 71.5541 155.947 71.9025C156.201 72.1452 156.505 72.329 156.838 72.4409C157.172 72.5528 157.526 72.59 157.876 72.5497C158.058 72.5276 158.238 72.4958 158.417 72.4545C158.783 72.357 159.137 72.2184 159.471 72.0414C160.478 71.4798 161.406 70.7886 162.232 69.9856C163.223 69.0148 164.099 67.9565 164.78 66.7458C164.876 66.5745 164.956 66.3975 165.025 66.2129C165.089 66.0438 165.145 65.8716 165.191 65.697C165.232 65.5181 165.262 65.3391 165.283 65.1583C165.318 64.8029 165.277 64.4443 165.163 64.1057C165.05 63.7807 164.868 63.4843 164.627 63.2377V63.2396Z" fill="#FF1A1A"/>
<path fill-rule="evenodd" clip-rule="evenodd" d="M79.176 39.1946C79.176 37.1578 80.8424 35.4941 82.855 35.4941C84.839 35.4941 86.4499 37.1578 86.536 39.225V68.109C86.536 70.1458 84.8677 71.8094 82.855 71.8094C82.3686 71.8092 81.887 71.713 81.4381 71.5265C80.9892 71.34 80.5819 71.0667 80.2398 70.7226C79.8977 70.3786 79.6276 69.9704 79.445 69.5218C79.2624 69.0732 79.171 68.593 79.176 68.109V39.1946ZM75.7533 57.0362C75.7246 57.6092 75.5812 58.6714 74.835 59.4461C74.0296 60.2779 72.9371 60.4778 72.3039 60.4778C69.6733 60.493 67.0427 60.5006 64.412 60.5063C61.7814 60.514 59.1508 60.5216 56.5202 60.5349C56.7498 61.2525 57.2089 62.3432 58.244 63.3464C58.8753 63.9498 59.4799 64.2924 59.7401 64.4371C60.0557 64.637 61.1482 65.2118 62.4989 65.2118C63.9376 65.2118 65.2022 64.7512 66.44 64.1211L66.5414 64.0678C67.4023 63.6243 68.2881 63.1675 69.2275 63.0019C70.1458 62.8591 71.1254 63.0304 71.8428 63.6624C72.7057 64.4086 73.0519 65.4974 72.7344 66.6166C72.3613 67.8787 71.2976 68.9694 70.1764 69.628C69.5348 70.0016 68.8613 70.3182 68.1638 70.5741C66.3844 71.2023 64.5028 71.4947 62.6156 71.4363C62.1564 71.4363 61.6666 71.4363 61.1769 71.3792C60.6603 71.3221 60.1438 71.206 59.654 71.0918C58.86 70.9205 58.0879 70.6606 57.3524 70.3171C56.6167 69.9925 55.9139 69.5986 55.2537 69.1407C54.5952 68.6698 53.9799 68.1417 53.4151 67.5627C52.8535 66.9765 52.3433 66.3435 51.8903 65.6706C50.3387 63.3178 49.6194 60.4207 49.7629 57.6092C49.8777 54.8567 50.7979 52.1023 52.4662 49.8657C52.646 49.584 52.8546 49.346 53.0516 49.1214C53.1377 49.0224 53.2219 48.9273 53.3003 48.8321C55.3589 46.3271 58.11 45.5352 59.2446 45.2078L59.3077 45.1888C61.6103 44.5382 64.0494 44.5382 66.352 45.1888C66.8992 45.3334 69.9756 46.2795 72.3613 48.8321C72.4761 48.9463 72.7937 49.3194 73.1954 49.8657C74.2159 51.2483 74.9655 52.8097 75.4051 54.4684L75.409 54.4836C75.5812 55.1137 75.7533 55.976 75.7533 57.0362ZM58.8772 52.3041C57.742 53.2226 56.9519 54.4957 56.635 55.917H69.1701C68.8318 54.4969 68.0339 53.2269 66.8992 52.3022C65.7561 51.3902 64.3389 50.8856 62.8739 50.8688C61.4165 50.8832 60.007 51.3885 58.8753 52.3022L58.8772 52.3041ZM106.546 44.7015C103.269 44.7015 100.278 46.1653 98.1509 48.5466V48.459C98.1082 47.5027 97.6896 46.6014 96.9852 45.9493C96.2809 45.2972 95.3472 44.9467 94.3855 44.9731C93.4238 44.9996 92.511 45.401 91.844 46.0908C91.1769 46.7806 90.809 47.7036 90.8196 48.6608V76.2256C90.8173 76.7076 90.9109 77.1853 91.095 77.6312C91.279 78.0771 91.5499 78.4824 91.8921 78.8237C92.2342 79.165 92.6408 79.4356 93.0885 79.6198C93.5362 79.8041 94.016 79.8985 94.5005 79.8975C94.9848 79.8982 95.4645 79.8037 95.912 79.6193C96.3594 79.4349 96.7658 79.1643 97.1078 78.823C97.4497 78.4817 97.7204 78.0766 97.9044 77.6308C98.0883 77.185 98.1818 76.7075 98.1796 76.2256V67.6198C100.307 69.9725 103.269 71.4649 106.575 71.4649C113.16 71.4649 118.507 65.5259 118.507 58.125C118.478 50.7261 113.131 44.7015 106.546 44.7015ZM104.937 65.4688C101.199 65.4688 98.1509 62.2271 98.1509 58.1841C98.1509 54.1105 101.17 50.8688 104.937 50.8688C108.673 50.8688 111.721 54.1105 111.721 58.1841C111.692 62.2271 108.673 65.4688 104.937 65.4688ZM44.2434 60.0476L43.0361 62.6878C42.489 63.8337 41.9418 65.0101 41.4253 66.1864L40.9259 67.2905C38.6263 72.3767 35.9 78.4146 29.9539 79.6957C27.0784 80.3277 22.7374 79.4673 21.1265 76.77C19.5175 74.0461 21.9032 70.9186 24.9796 71.6362C25.4656 71.7428 25.9419 71.9788 26.4241 72.2187C27.2257 72.6184 28.0388 73.0201 28.9188 72.8411C29.753 72.6984 30.2695 72.095 30.9315 71.3202C31.8498 70.26 32.2535 69.1407 32.4257 68.4802L32.3836 68.3812C32.3703 68.347 32.3556 68.3134 32.3396 68.2803C31.5915 66.8907 30.9372 65.6497 30.392 64.6122C30.0854 64.0264 29.7761 63.442 29.4641 62.8591L28.211 60.4911C27.2926 58.7589 27.1396 58.4734 26.734 57.7253C25.8398 56.0461 24.9001 54.3914 23.9159 52.7628C22.8522 50.9831 21.7597 49.0053 22.6513 46.9095C22.9864 46.0981 23.6156 45.4415 24.4143 45.0699C25.213 44.6984 26.1229 44.6388 26.9636 44.9032C28.8136 45.461 29.6344 47.2141 30.3996 48.8511C30.5393 49.1481 30.6751 49.4412 30.8167 49.721C32.0526 52.1594 33.2598 54.5978 34.467 57.0362C34.5742 57.278 34.7349 57.6073 34.9339 58.0108C35.1099 58.3687 35.3146 58.7856 35.5308 59.2443L35.8503 59.9067C35.9746 60.1656 36.0837 60.3864 36.164 60.5635C36.7246 59.1739 37.2928 57.79 37.8591 56.4043C38.4273 55.0204 38.9955 53.6366 39.5561 52.2451C39.5714 52.1689 39.7053 51.872 39.9081 51.4247C40.0784 51.0459 40.2965 50.5605 40.5337 50.0085L40.7767 49.4241C41.5228 47.6157 42.422 45.44 44.4155 44.8461C45.1231 44.6418 45.8771 44.6618 46.5727 44.9033C47.2684 45.1448 47.8712 45.5959 48.2974 46.1938C48.7278 46.7953 48.9 47.4844 48.9287 48.1735C48.9517 49.6963 48.2132 51.3295 47.578 52.7305C47.425 53.0731 47.2757 53.4005 47.1476 53.7089L47.071 53.8764C46.895 54.2704 46.4167 55.3364 45.5941 57.0933C45.2975 57.7215 45.0125 58.3535 44.7236 58.9911L44.2434 60.0476Z" fill="#242424"/>
</svg>
