<svg width="187" height="104" viewBox="0 0 187 104" fill="none" xmlns="http://www.w3.org/2000/svg">
<path d="M56.1147 31.4814H43.0324L39.1077 19L34.8811 31.4814H22L32.3652 38.9702L28.4405 51.5514L39.1077 43.763L49.4729 51.5514L45.5482 38.9702L56.1147 31.4814Z" fill="#13B57A"/>
<path d="M46.3533 41.766L45.5482 38.9702L39.1077 43.763L46.3533 41.766Z" fill="#055229"/>
<path d="M48.8691 59.3398H22V86H48.8691V59.3398Z" fill="#13B57A"/>
<path d="M77.7509 59.3398H50.8818V86H77.7509V59.3398Z" fill="#13B57A"/>
<path d="M106.834 59.3398H79.9648V86H106.834V59.3398Z" fill="#13B57A"/>
<path d="M135.716 59.3398H108.847V86H135.716V59.3398Z" fill="#13B57A"/>
<path d="M164.799 59.3398H137.93V86H151.364H164.799V59.3398Z" fill="#DCDCE6"/>
<path d="M137.93 59.3398H151.415V86H137.93V59.3398Z" fill="#13B57A"/>
<path d="M35.183 77.1133L39.4096 76.0149L41.1203 81.307L35.183 77.1133ZM44.6425 70.4232H37.3969L35.183 63.7332L32.969 70.4232H25.9247L31.7614 74.617L29.5475 81.307L35.3842 77.1133L39.007 74.617L44.6425 70.4232Z" fill="white"/>
<path d="M64.266 77.1133L68.4926 76.0149L70.2034 81.307L64.266 77.1133ZM73.5243 70.4232H66.2787L64.0647 63.7332L61.8508 70.4232H54.5046L60.3413 74.617L58.1274 81.307L63.9641 77.1133L67.5869 74.617L73.5243 70.4232Z" fill="white"/>
<path d="M93.4505 77.1133L97.677 76.015L99.3878 81.3071L93.4505 77.1133ZM102.709 70.4233H95.4631L93.2492 63.7333L91.0352 70.4233H83.7897L89.6264 74.6171L87.7143 81.3071L93.5511 77.1133L97.1739 74.6171L102.709 70.4233Z" fill="white"/>
<path d="M122.331 77.1133L126.557 76.015L128.268 81.3071L122.331 77.1133ZM131.79 70.4233H124.545L122.331 63.7333L120.117 70.4233H112.871L118.708 74.6171L116.494 81.3071L122.331 77.1133L125.953 74.6171L131.79 70.4233Z" fill="white"/>
<path d="M151.415 77.1133L155.642 76.015L157.353 81.3071L151.415 77.1133ZM160.673 70.4233H153.428L151.214 63.7333L149.302 70.4233H142.056L147.893 74.6171L145.679 81.3071L151.516 77.1133L155.139 74.6171L160.673 70.4233Z" fill="white"/>
<path d="M65.5209 49.0449V34.5596H60V31.7416H74.087V34.5596H68.5661V49.0449H65.5209Z" fill="#434343"/>
<path d="M73.7705 49.0449V35.9933H76.7909V38.9348C77.6079 36.9573 79.1181 35.6472 81.4206 35.7461V38.9101H81.2473C78.5982 38.9101 76.7909 40.6157 76.7909 44.0764V49.0449H73.7705Z" fill="#434343"/>
<path d="M87.1664 49.3169C84.1955 49.3169 82.512 47.364 82.512 44.2989V35.9933H85.5077V43.409C85.5077 45.4607 86.5227 46.573 88.3053 46.573C90.063 46.573 91.2514 45.4112 91.2514 43.3596V35.9933H94.2718V49.0449H91.2514V47.018C90.3849 48.2787 89.1718 49.3169 87.1664 49.3169Z" fill="#434343"/>
<path d="M101.132 49.2921C99.2509 49.2921 97.2456 48.6494 95.5868 47.3393L96.9237 45.3124C98.3844 46.3753 99.8451 46.9191 101.207 46.9191C102.494 46.9191 103.237 46.3753 103.237 45.5101V45.4607C103.237 44.4719 101.85 44.1011 100.315 43.6315C98.4092 43.1124 96.2305 42.2966 96.2305 39.8247V39.7753C96.2305 37.2787 98.2854 35.7708 100.885 35.7708C102.544 35.7708 104.301 36.3393 105.688 37.2539L104.499 39.3798C103.237 38.6135 101.9 38.1438 100.811 38.1438C99.647 38.1438 98.9786 38.7124 98.9786 39.4292V39.4787C98.9786 40.418 100.39 40.8629 101.925 41.3326C103.806 41.9258 105.985 42.791 105.985 45.1393V45.1888C105.985 47.9326 103.856 49.2921 101.132 49.2921Z" fill="#434343"/>
<path d="M111.833 49.2674C109.629 49.2674 108.07 48.3034 108.07 45.436V38.564H106.411V35.9933H108.07V32.409H111.065V35.9933H114.581V38.564H111.065V44.9663C111.065 46.1281 111.66 46.5978 112.675 46.5978C113.318 46.5978 113.937 46.4494 114.531 46.1528V48.6C113.764 49.0202 112.996 49.2674 111.833 49.2674Z" fill="#434343"/>
<path d="M116.243 53V35.9933H119.263V38.1685C120.229 36.809 121.566 35.7213 123.72 35.7213C126.79 35.7213 129.785 38.1438 129.785 42.4944V42.5438C129.785 46.8944 126.814 49.3169 123.72 49.3169C121.541 49.3169 120.179 48.2292 119.263 47.018V53H116.243ZM123.002 46.7213C125.057 46.7213 126.74 45.1146 126.74 42.5438V42.4944C126.74 39.973 125.007 38.3169 123.002 38.3169C120.947 38.3169 119.189 39.9978 119.189 42.4944V42.5438C119.189 45.0405 120.947 46.7213 123.002 46.7213Z" fill="#434343"/>
<path d="M131.565 33.991V31.1483H134.784V33.991H131.565ZM131.664 49.0449V35.9933H134.685V49.0449H131.664Z" fill="#434343"/>
<path d="M137.387 49.0449V31H140.407V49.0449H137.387Z" fill="#434343"/>
<path d="M149.174 49.3416C145.188 49.3416 142.242 46.3011 142.242 42.5933V42.5438C142.242 38.8112 145.213 35.7213 149.224 35.7213C153.259 35.7213 156.181 38.7618 156.181 42.4944V42.5438C156.181 46.227 153.21 49.3416 149.174 49.3416ZM149.224 46.7213C151.675 46.7213 153.185 44.8427 153.185 42.5933V42.5438C153.185 40.2449 151.526 38.3416 149.174 38.3416C146.773 38.3416 145.238 40.2202 145.238 42.4944V42.5438C145.238 44.818 146.921 46.7213 149.224 46.7213Z" fill="#434343"/>
<path d="M162.252 49.2674C160.049 49.2674 158.489 48.3034 158.489 45.436V38.564H156.83V35.9933H158.489V32.409H161.484V35.9933H165V38.564H161.484V44.9663C161.484 46.1281 162.079 46.5978 163.094 46.5978C163.737 46.5978 164.356 46.4494 164.95 46.1528V48.6C164.183 49.0202 163.416 49.2674 162.252 49.2674Z" fill="#434343"/>
</svg>
