<svg width="187" height="104" viewBox="0 0 187 104" fill="none" xmlns="http://www.w3.org/2000/svg">
<mask id="mask0_16071_1347" style="mask-type:luminance" maskUnits="userSpaceOnUse" x="15" y="29" width="46" height="47">
<path d="M60.3265 48.0716H38.7043V57.0777H51.1502C49.99 62.7992 45.1382 66.0837 38.7043 66.0837C31.1102 66.0837 24.9927 59.9384 24.9927 52.3098C24.9927 44.6811 31.1102 38.5358 38.7043 38.5358C41.974 38.5358 44.9273 39.7013 47.2477 41.6085L53.998 34.8274C49.8845 31.225 44.6108 29 38.7043 29C25.8365 29 15.5 39.3834 15.5 52.3098C15.5 65.2361 25.8365 75.6195 38.7043 75.6195C50.3064 75.6195 60.8539 67.1433 60.8539 52.3098C60.8539 50.9324 60.6429 49.449 60.3265 48.0716Z" fill="white"/>
</mask>
<g mask="url(#mask0_16071_1347)">
<path d="M13.3906 66.0831V38.5352L31.3212 52.3091L13.3906 66.0831Z" fill="#FBBC05"/>
</g>
<mask id="mask1_16071_1347" style="mask-type:luminance" maskUnits="userSpaceOnUse" x="15" y="29" width="46" height="47">
<path d="M60.3265 48.0716H38.7043V57.0777H51.1502C49.99 62.7992 45.1382 66.0837 38.7043 66.0837C31.1102 66.0837 24.9927 59.9384 24.9927 52.3098C24.9927 44.6811 31.1102 38.5358 38.7043 38.5358C41.974 38.5358 44.9273 39.7013 47.2477 41.6085L53.998 34.8274C49.8845 31.225 44.6108 29 38.7043 29C25.8365 29 15.5 39.3834 15.5 52.3098C15.5 65.2361 25.8365 75.6195 38.7043 75.6195C50.3064 75.6195 60.8539 67.1433 60.8539 52.3098C60.8539 50.9324 60.6429 49.449 60.3265 48.0716Z" fill="white"/>
</mask>
<g mask="url(#mask1_16071_1347)">
<path d="M13.3906 38.5357L31.3212 52.3097L38.7044 45.8465L64.0182 41.7143V26.8809H13.3906V38.5357Z" fill="#EA4335"/>
</g>
<mask id="mask2_16071_1347" style="mask-type:luminance" maskUnits="userSpaceOnUse" x="15" y="29" width="46" height="47">
<path d="M60.3265 48.0716H38.7043V57.0777H51.1502C49.99 62.7992 45.1382 66.0837 38.7043 66.0837C31.1102 66.0837 24.9927 59.9384 24.9927 52.3098C24.9927 44.6811 31.1102 38.5358 38.7043 38.5358C41.974 38.5358 44.9273 39.7013 47.2477 41.6085L53.998 34.8274C49.8845 31.225 44.6108 29 38.7043 29C25.8365 29 15.5 39.3834 15.5 52.3098C15.5 65.2361 25.8365 75.6195 38.7043 75.6195C50.3064 75.6195 60.8539 67.1433 60.8539 52.3098C60.8539 50.9324 60.6429 49.449 60.3265 48.0716Z" fill="white"/>
</mask>
<g mask="url(#mask2_16071_1347)">
<path d="M13.3906 66.0837L45.0328 41.7143L53.3653 42.7739L64.0182 26.8809V77.7385H13.3906V66.0837Z" fill="#34A853"/>
</g>
<mask id="mask3_16071_1347" style="mask-type:luminance" maskUnits="userSpaceOnUse" x="15" y="29" width="46" height="47">
<path d="M60.3265 48.0716H38.7043V57.0777H51.1502C49.99 62.7992 45.1382 66.0837 38.7043 66.0837C31.1102 66.0837 24.9927 59.9384 24.9927 52.3098C24.9927 44.6811 31.1102 38.5358 38.7043 38.5358C41.974 38.5358 44.9273 39.7013 47.2477 41.6085L53.998 34.8274C49.8845 31.225 44.6108 29 38.7043 29C25.8365 29 15.5 39.3834 15.5 52.3098C15.5 65.2361 25.8365 75.6195 38.7043 75.6195C50.3064 75.6195 60.8539 67.1433 60.8539 52.3098C60.8539 50.9324 60.6429 49.449 60.3265 48.0716Z" fill="white"/>
</mask>
<g mask="url(#mask3_16071_1347)">
<path d="M64.0214 77.738L31.3244 52.3091L27.1055 49.1305L64.0214 38.5352V77.738Z" fill="#4285F4"/>
</g>
<path d="M77.8365 52.1015L74.5668 47.3336H74.3558H70.9807V52.1015H67.0781V35.043H74.4613C78.9967 35.043 81.8445 37.3739 81.8445 41.1883C81.8445 43.7312 80.5788 45.6383 78.3639 46.5919L82.1609 52.1015H77.8365ZM74.1449 38.2216H70.9807V44.155H74.1449C76.5708 44.155 77.731 42.9895 77.731 41.1883C77.731 39.2811 76.4653 38.2216 74.1449 38.2216Z" fill="#434343"/>
<path d="M97.2429 46.5925H87.3283C87.6447 48.1818 89.1214 49.2414 91.0199 49.2414C92.3911 49.2414 93.4458 48.8175 94.2896 47.9699L96.2936 50.1949C95.0279 51.5723 93.2349 52.314 90.9144 52.314C86.3791 52.314 83.4258 49.4533 83.4258 45.533C83.4258 41.6127 86.3791 38.752 90.3871 38.752C94.1841 38.752 97.1374 41.2948 97.1374 45.533C97.3484 45.8508 97.2429 46.2747 97.2429 46.5925ZM87.3283 44.3675H93.7622C93.4458 42.6722 92.2856 41.6127 90.598 41.6127C88.805 41.6127 87.6447 42.6722 87.3283 44.3675Z" fill="#434343"/>
<path d="M112.536 38.9668L107.051 52.105H103.149L97.6641 38.9668H101.567L105.153 47.8669L108.844 38.9668H112.536Z" fill="#434343"/>
<path d="M113.699 35.0429C113.699 33.8774 114.648 32.9238 116.02 32.9238C117.391 32.9238 118.34 33.7715 118.34 34.9369C118.34 36.2084 117.391 37.162 116.02 37.162C114.648 37.162 113.699 36.2084 113.699 35.0429ZM114.121 38.9632H117.918V52.1014H114.121V38.9632Z" fill="#434343"/>
<path d="M134.161 46.5925H124.246C124.563 48.1818 126.039 49.2414 127.938 49.2414C129.309 49.2414 130.364 48.8175 131.208 47.9699L133.212 50.1949C131.946 51.5723 130.153 52.314 127.832 52.314C123.297 52.314 120.344 49.4533 120.344 45.533C120.344 41.6127 123.297 38.752 127.305 38.752C131.102 38.752 134.055 41.2948 134.055 45.533C134.161 45.8508 134.161 46.2747 134.161 46.5925ZM124.246 44.3675H130.68C130.364 42.6722 129.204 41.6127 127.516 41.6127C125.723 41.6127 124.457 42.6722 124.246 44.3675Z" fill="#434343"/>
<path d="M157.466 38.9668L152.72 52.105H149.134L146.18 43.9466L143.122 52.105H139.535L134.789 38.9668H138.375L141.434 47.8669L144.598 38.9668H147.762L150.821 47.8669L153.985 38.9668H157.466Z" fill="#434343"/>
<path d="M157.785 50.8307L159.051 48.0759C160.211 48.8175 162.004 49.3473 163.586 49.3473C165.379 49.3473 166.012 48.9235 166.012 48.1818C166.012 46.0627 158.102 48.1818 158.102 42.9901C158.102 40.5532 160.317 38.752 164.114 38.752C165.907 38.752 167.911 39.1758 169.176 39.9174L167.911 42.6722C166.645 41.9306 165.379 41.7187 164.114 41.7187C162.426 41.7187 161.688 42.2484 161.688 42.8841C161.688 45.1092 169.598 42.9901 169.598 48.0759C169.598 50.5128 167.383 52.208 163.481 52.208C161.16 52.314 158.945 51.6783 157.785 50.8307Z" fill="#434343"/>
<path d="M73.7191 62.1643L76.8833 56.125L80.153 62.1643L86.4815 63.2239L82.0515 67.8858L82.7899 74.9847L76.8833 72.018L70.8713 75.0907L71.6096 67.8858L66.9688 63.2239L73.7191 62.1643Z" fill="#FCB002"/>
<path d="M94.8207 62.1643L97.9849 56.125L101.255 62.1643L107.583 63.2239L103.153 67.8858L103.891 74.9847L97.9849 72.018L91.9729 75.0907L92.7112 67.8858L88.0703 63.2239L94.8207 62.1643Z" fill="#FCB002"/>
<path d="M115.91 62.1643L119.075 56.125L122.344 62.1643L128.673 63.2239L124.243 67.8858L124.981 74.9847L119.075 72.018L113.063 75.0907L113.801 67.8858L109.16 63.2239L115.91 62.1643Z" fill="#FCB002"/>
<path d="M137.004 62.1643L140.168 56.125L143.438 62.1643L149.767 63.2239L145.337 67.8858L146.075 74.9847L140.168 72.018L134.156 75.0907L134.895 67.8858L130.254 63.2239L137.004 62.1643Z" fill="#FCB002"/>
<path d="M158.102 62.1643L161.266 56.125L164.536 62.1643L170.864 63.2239L166.434 67.8858L167.173 74.9847L161.266 72.018L155.254 75.0907L155.992 67.8858L151.352 63.2239L158.102 62.1643Z" fill="#FCB002"/>
</svg>
