<svg width="48" height="48" viewBox="0 0 48 48" fill="none" xmlns="http://www.w3.org/2000/svg">
<path d="M23.0007 6.33203C13.8007 6.33203 6.33398 13.7987 6.33398 22.9987C6.33398 32.1987 13.8007 39.6654 23.0007 39.6654C32.2007 39.6654 39.6673 32.1987 39.6673 22.9987C39.6673 13.7987 32.2007 6.33203 23.0007 6.33203ZM35.434 18.1987L30.8007 20.1154C29.9507 17.8487 28.1673 16.0487 25.884 15.2154L27.8007 10.582C31.3006 11.9154 34.084 14.6987 35.434 18.1987ZM23.0007 27.9987C20.234 27.9987 18.0007 25.7654 18.0007 22.9987C18.0007 20.232 20.234 17.9987 23.0007 17.9987C25.7673 17.9987 28.0007 20.232 28.0007 22.9987C28.0007 25.7654 25.7673 27.9987 23.0007 27.9987ZM18.2173 10.5654L20.1673 15.1987C17.8673 16.032 16.0507 17.8487 15.2007 20.1487L10.5673 18.2154C11.9173 14.6987 14.7007 11.9154 18.2173 10.5654ZM10.5673 27.782L15.2007 25.8654C16.0507 28.1654 17.8507 29.9654 20.1507 30.7987L18.2007 35.432C14.7007 34.082 11.9173 31.2987 10.5673 27.782ZM27.8007 35.432L25.884 30.7987C28.1673 29.9487 29.9673 28.1487 30.8007 25.8487L35.434 27.7987C34.084 31.2987 31.3006 34.082 27.8007 35.432Z" fill="#E32934"/>
</svg>
