<svg width="48" height="48" viewBox="0 0 48 48" fill="none" xmlns="http://www.w3.org/2000/svg">
<g clip-path="url(#clip0_1_43412)">
<path d="M19.3163 14.5848C15.9163 18.4014 13.583 23.8848 13.3663 24.4014L7.33301 21.8181L14.083 15.0681C14.8663 14.2848 15.9997 13.9348 17.0997 14.1514L19.3163 14.5848ZM22.6163 32.3348C22.6163 32.3348 28.8497 29.7514 32.433 26.1681C41.433 17.1681 39.933 10.1348 39.4497 8.55144C37.8663 8.05144 30.833 6.56811 21.833 15.5681C18.2497 19.1514 15.6663 25.3848 15.6663 25.3848L22.6163 32.3348ZM33.4163 28.6848C29.5997 32.0848 24.1163 34.4181 23.5997 34.6348L26.183 40.6681L32.933 33.9181C33.7163 33.1348 34.0663 32.0014 33.8497 30.9014L33.4163 28.6848ZM18.9997 34.0014C18.9997 35.3848 18.433 36.6348 17.533 37.5348C15.5663 39.5014 7.33301 40.6681 7.33301 40.6681C7.33301 40.6681 8.49967 32.4348 10.4663 30.4681C11.3663 29.5681 12.6163 29.0014 13.9997 29.0014C16.7663 29.0014 18.9997 31.2348 18.9997 34.0014ZM25.6663 19.0014C25.6663 17.1681 27.1663 15.6681 28.9997 15.6681C30.833 15.6681 32.333 17.1681 32.333 19.0014C32.333 20.8348 30.833 22.3348 28.9997 22.3348C27.1663 22.3348 25.6663 20.8348 25.6663 19.0014Z" fill="#E32934"/>
</g>
<defs>
<clipPath id="clip0_1_43412">
<rect width="42" height="42" fill="white" transform="translate(3 3)"/>
</clipPath>
</defs>
</svg>
