<svg width="166" height="34" viewBox="0 0 166 34" fill="none" xmlns="http://www.w3.org/2000/svg">
<path d="M53.5774 12.9244C54.6346 12.4795 71.7186 1.6609 75.9641 3.56028L59.7137 13.8035C44.897 13.7116 14.3684 11.5861 5.25249 23.6484C33.2908 6.31998 78.1183 29.5404 159.362 13.4869C138.426 12.6027 121.953 2.6485 98.2317 0.405364C78.5543 -1.45542 67.8322 3.15357 53.5774 12.9244ZM148.528 16.9575C151.844 16.5407 155.16 15.8472 158.476 14.7617C160.401 15.9561 158.636 18.5274 160.662 20.1455C163.366 22.9176 164.337 26.1052 162.187 30.9564C162.187 30.9564 163.643 23.8184 158.928 21.6704C154.213 19.5224 149.43 20.6998 148.528 16.9575ZM149.49 11.2883C151.421 11.73 160.822 14.6165 166 9.3577C166 9.3577 155.7 6.32365 149.49 11.2883ZM0 30.693C5.68058 20.8547 21.2077 18.1037 30.8073 18.0008C10.9395 19.379 16.3948 27.2417 0 30.693ZM62.9315 13.81C68.5937 10.2042 78.9943 3.1168 84.776 3.02902C92.2301 1.82726 116.732 5.64947 128.41 10.4892C113.641 13.8987 85.3545 13.7659 62.9315 13.81Z" fill="#D40815"/>
<path d="M23.1772 31.608L21.4095 33.8925H16.9442C13.8611 33.8925 11.5885 31.9401 11.5885 29.3633C11.5885 26.7864 13.8611 25.0065 16.9442 25.0065H23.1772L21.4095 27.3175H16.9442C15.4557 27.3175 14.3394 28.2073 14.3394 29.4827C14.3394 30.758 15.4424 31.608 16.9442 31.608H23.1772Z" fill="#434343"/>
<path d="M27.4429 33.8925L29.1039 31.608H31.3366C31.868 31.608 32.4928 31.608 32.918 31.6345C32.6786 31.3157 32.3065 30.7713 32.0145 30.3463L30.4198 27.9955L26.2469 33.893H22.9908L28.692 25.8573C29.0641 25.3395 29.6088 24.861 30.4729 24.861C31.337 24.861 31.8419 25.2992 32.2273 25.8573L37.7824 33.893L27.4429 33.8925Z" fill="#434343"/>
<path d="M51.3775 33.8925H47.6962L45.7162 31.5417H41.4902V33.8925H38.7394V29.35H46.4741C47.3245 29.35 47.9891 28.9648 47.9891 28.3537C47.9891 27.6629 47.4174 27.3175 46.4741 27.3175H38.7394L40.5336 25.0065H46.248C48.2679 25.0065 50.8196 25.6442 50.8196 28.1808C50.8196 29.5623 49.9559 30.7045 48.494 30.9964C48.7997 31.2224 49.132 31.5408 49.743 32.1652L51.3775 33.8925Z" fill="#434343"/>
<path d="M62.7437 28.5378C64.6627 28.5378 65.6816 29.2255 65.6816 30.5484C65.6816 32.4663 64.4774 33.8552 61.328 33.8552H53.0836L55.2407 31.58H61.9501C62.691 31.58 63.0089 31.342 63.0089 30.8262C63.0089 30.469 62.7309 30.2971 62.1753 30.2971H57.345C55.3334 30.2971 54.4337 29.4507 54.4337 28.1678C54.4337 26.3691 55.6646 25.0068 58.7612 25.0068H66.4501L64.2797 27.3081H58.1392C57.3983 27.3081 57.0803 27.5066 57.0803 28.0358C57.0803 28.3929 57.3583 28.5383 57.9272 28.5383L62.7437 28.5378Z" fill="#434343"/>
<path d="M79.8818 28.6038C79.8818 32.2412 77.4733 34 72.5109 34C68.6862 34 66.7544 32.8097 66.7544 30.2439C66.7544 26.6065 69.1629 24.861 74.1253 24.861C77.95 24.861 79.8818 26.038 79.8818 28.6038ZM77.1292 28.8817C77.1292 27.4534 76.1236 27.1622 73.7151 27.1622C70.1551 27.1622 69.5069 27.7047 69.5069 29.9793C69.5069 31.4076 70.5258 31.6987 72.9077 31.6987C76.4677 31.6987 77.1292 31.143 77.1292 28.8817Z" fill="#434343"/>
<path d="M90.4025 31.58L88.2188 33.8552H80.3978L81.9728 25.0068H84.6987L83.5344 31.5805L90.4025 31.58Z" fill="#434343"/>
<path d="M103.08 29.9926C102.604 32.6644 100.553 34 96.8604 34C93.1683 34 91.3819 32.9417 91.3819 30.8257C91.3819 30.5612 91.4085 30.2833 91.4613 29.9926L92.3481 25.0063H95.0873L94.1877 29.9926C94.1611 30.1779 94.1478 30.3365 94.1478 30.4819C94.1478 31.4076 94.8359 31.7253 97.2577 31.7253C99.3749 31.7253 100.103 31.2361 100.328 29.9926L101.215 25.0063H103.967L103.08 29.9926Z" fill="#434343"/>
<path d="M116.525 25.0063L114.329 27.3076H111.18L110.015 33.8547H107.276L108.427 27.3076H104.272L106.468 25.0063H116.525Z" fill="#434343"/>
<path d="M118.564 33.8547H115.825L117.4 25.0063H120.125L118.564 33.8547Z" fill="#434343"/>
<path d="M133.809 28.6038C133.809 32.2412 131.4 34 126.438 34C122.614 34 120.681 32.8097 120.681 30.2439C120.681 26.6065 123.09 24.861 128.052 24.861C131.877 24.861 133.809 26.038 133.809 28.6038ZM131.056 28.8817C131.056 27.4534 130.051 27.1622 127.642 27.1622C124.082 27.1622 123.434 27.7047 123.434 29.9793C123.434 31.4076 124.453 31.6987 126.835 31.6987C130.395 31.6987 131.056 31.143 131.056 28.8817Z" fill="#434343"/>
<path d="M142.252 33.5241L137.686 28.657L136.773 33.8552H134.285L135.569 26.5144C135.768 25.3374 136.549 24.861 137.369 24.861C137.7 24.861 138.03 24.9403 138.388 25.3369L142.953 30.204L143.88 25.0058H146.367L145.057 32.3333C144.846 33.5103 144.065 34 143.271 34C142.9 34 142.622 33.9212 142.252 33.5241Z" fill="#434343"/>
<path d="M155.565 28.5378C157.484 28.5378 158.503 29.2255 158.503 30.5484C158.503 32.4663 157.299 33.8552 154.149 33.8552H145.905L148.062 31.58H154.771C155.512 31.58 155.83 31.342 155.83 30.8262C155.83 30.469 155.552 30.2971 154.997 30.2971H150.166C148.155 30.2971 147.255 29.4507 147.255 28.1678C147.255 26.3691 148.486 25.0068 151.583 25.0068H159.271L157.101 27.3081H150.96C150.22 27.3081 149.902 27.5066 149.902 28.0358C149.902 28.3929 150.18 28.5383 150.749 28.5383L155.565 28.5378Z" fill="#434343"/>
</svg>
