<svg width="153" height="46" viewBox="0 0 153 46" fill="none" xmlns="http://www.w3.org/2000/svg">
<g clip-path="url(#clip0_16066_269)">
<path d="M3.7118 43.7373C3.28946 44.1619 2.77557 44.3739 2.17014 44.3739C1.5647 44.3739 1.05148 44.1619 0.631147 43.7373C0.210816 43.3127 0.000984192 42.7923 0.000984192 42.1766C0.000984192 41.561 0.210816 41.0406 0.631147 40.616C1.05148 40.1914 1.5647 39.9794 2.17014 39.9794C2.77557 39.9794 3.28946 40.1921 3.7118 40.616C4.13413 41.0406 4.3453 41.561 4.3453 42.1766C4.3453 42.7923 4.13413 43.3127 3.7118 43.7373ZM1.20785 43.1696C1.46646 43.4295 1.78789 43.5591 2.17014 43.5591C2.55238 43.5591 2.87314 43.4295 3.13242 43.1696C3.39103 42.9097 3.52068 42.579 3.52068 42.1766C3.52068 41.7743 3.39103 41.4422 3.13242 41.1803C2.87314 40.9191 2.55238 40.7881 2.17014 40.7881C1.78789 40.7881 1.46713 40.9191 1.20785 41.1803C0.948568 41.4422 0.819595 41.7743 0.819595 42.1766C0.819595 42.579 0.949236 42.9104 1.20785 43.1696Z" fill="#EF6078"/>
<path d="M9.53853 41.1859C9.8653 41.1859 10.1353 41.2966 10.3485 41.518C10.5616 41.7394 10.6679 42.0452 10.6679 42.4354V44.289H9.89671V42.5326C9.89671 42.3314 9.84325 42.1775 9.73566 42.0709C9.62807 41.9642 9.4844 41.9109 9.30531 41.9109C9.10617 41.9109 8.94646 41.9737 8.82751 42.0979C8.70789 42.2228 8.64842 42.4097 8.64842 42.6595V44.2897H7.87725V41.271H8.64842V41.6092C8.83553 41.3277 9.13223 41.1866 9.5392 41.1866L9.53853 41.1859Z" fill="#EF6078"/>
<path d="M14.9657 43.0997C15.0693 43.4777 15.35 43.6674 15.8084 43.6674C16.1031 43.6674 16.3263 43.5668 16.478 43.3657L17.0995 43.7282C16.8048 44.1588 16.3704 44.3742 15.7964 44.3742C15.3025 44.3742 14.9056 44.223 14.6069 43.9212C14.3082 43.6195 14.1585 43.2388 14.1585 42.7804C14.1585 42.3221 14.3062 41.9461 14.6009 41.6423C14.8956 41.3386 15.2745 41.1867 15.7362 41.1867C16.1746 41.1867 16.5361 41.3399 16.8208 41.6457C17.1055 41.9515 17.2478 42.3302 17.2478 42.7804C17.2478 42.881 17.2378 42.9877 17.2177 43.1004H14.9644L14.9657 43.0997ZM14.9537 42.4962H16.478C16.4339 42.291 16.3437 42.1378 16.206 42.0372C16.0683 41.9366 15.912 41.886 15.7369 41.886C15.5297 41.886 15.358 41.9393 15.223 42.046C15.0873 42.1526 14.9978 42.3025 14.9537 42.4956V42.4962Z" fill="#EF6078"/>
<path d="M26.8515 40.0632C27.2538 40.0632 27.5926 40.2002 27.8673 40.4736C28.1419 40.7476 28.2796 41.0831 28.2796 41.4821C28.2796 41.881 28.1419 42.2165 27.8673 42.4906C27.5926 42.7646 27.2538 42.901 26.8515 42.901H26.1164V44.2895H25.2918V40.0638H26.8515V40.0632ZM26.8515 42.122C27.0266 42.122 27.1723 42.0606 27.2879 41.9377C27.4035 41.8149 27.461 41.663 27.461 41.4821C27.461 41.3012 27.4035 41.1439 27.2879 41.023C27.1723 40.9022 27.0266 40.8421 26.8515 40.8421H26.1164V42.122H26.8515Z" fill="#EF6078"/>
<path d="M33.8442 41.2701H34.6154V44.2888H33.8442V43.9324C33.613 44.226 33.2882 44.3732 32.8699 44.3732C32.4516 44.3732 32.1295 44.2192 31.8448 43.9114C31.5601 43.6036 31.4178 43.2263 31.4178 42.7794C31.4178 42.3325 31.5601 41.9552 31.8448 41.6474C32.1295 41.3396 32.471 41.1857 32.8699 41.1857C33.2882 41.1857 33.613 41.3328 33.8442 41.6265V41.2701ZM32.4222 43.3923C32.5772 43.5516 32.775 43.6306 33.0136 43.6306C33.2521 43.6306 33.4506 43.551 33.6083 43.3923C33.7654 43.2337 33.8442 43.0292 33.8442 42.7794C33.8442 42.5297 33.7654 42.3258 33.6083 42.1665C33.4506 42.0079 33.2528 41.9282 33.0136 41.9282C32.7743 41.9282 32.5772 42.0079 32.4222 42.1665C32.2665 42.3258 32.189 42.5297 32.189 42.7794C32.189 43.0292 32.2665 43.233 32.4222 43.3923Z" fill="#EF6078"/>
<path d="M39.0734 41.7905C39.1449 41.5975 39.2639 41.4524 39.4289 41.3558C39.594 41.2593 39.7784 41.2107 39.9816 41.2107V42.0801C39.7464 42.0518 39.5365 42.1004 39.3507 42.2253C39.1656 42.3501 39.0728 42.5574 39.0728 42.847V44.2895H38.3016V41.2708H39.0728V41.7899L39.0734 41.7905Z" fill="#EF6078"/>
<path d="M45.2114 42.0193H44.5358V43.2749C44.5358 43.3795 44.5619 43.4558 44.6133 43.5044C44.6648 43.553 44.741 43.58 44.8405 43.5861C44.9401 43.5921 45.0637 43.5915 45.2114 43.5834V44.2894C44.6815 44.3495 44.3079 44.2996 44.0907 44.1382C43.8736 43.9776 43.7653 43.6893 43.7653 43.2749V42.0193H43.2454V41.2707H43.7653V40.6612L44.5365 40.4256V41.2707H45.2121V42.0193H45.2114Z" fill="#EF6078"/>
<path d="M50.4519 41.1859C50.7787 41.1859 51.0486 41.2966 51.2618 41.518C51.475 41.7394 51.5812 42.0452 51.5812 42.4354V44.289H50.8101V42.5326C50.8101 42.3314 50.7566 42.1775 50.649 42.0709C50.5414 41.9642 50.3978 41.9109 50.2187 41.9109C50.0195 41.9109 49.8598 41.9737 49.7409 42.0979C49.6213 42.2228 49.5618 42.4097 49.5618 42.6595V44.2897H48.7906V41.271H49.5618V41.6092C49.7489 41.3277 50.0456 41.1866 50.4526 41.1866L50.4519 41.1859Z" fill="#EF6078"/>
<path d="M55.8793 43.0997C55.9829 43.4777 56.2635 43.6674 56.7219 43.6674C57.0166 43.6674 57.2398 43.5668 57.3915 43.3657L58.013 43.7282C57.7183 44.1588 57.2839 44.3742 56.7099 44.3742C56.2161 44.3742 55.8191 44.223 55.5204 43.9212C55.2217 43.6195 55.072 43.2388 55.072 42.7804C55.072 42.3221 55.2197 41.9461 55.5144 41.6423C55.8091 41.3386 56.188 41.1867 56.6498 41.1867C57.0881 41.1867 57.4497 41.3399 57.7343 41.6457C58.019 41.9515 58.1614 42.3302 58.1614 42.7804C58.1614 42.881 58.1513 42.9877 58.1313 43.1004H55.8779L55.8793 43.0997ZM55.8672 42.4962H57.3915C57.3474 42.291 57.2572 42.1378 57.1196 42.0372C56.9819 41.9366 56.8255 41.886 56.6504 41.886C56.4433 41.886 56.2715 41.9393 56.1365 42.046C56.0009 42.1526 55.9113 42.3025 55.8672 42.4956V42.4962Z" fill="#EF6078"/>
<path d="M62.4587 41.7905C62.5302 41.5975 62.6491 41.4524 62.8142 41.3558C62.9793 41.2593 63.1637 41.2107 63.3668 41.2107V42.0801C63.1316 42.0518 62.9218 42.1004 62.736 42.2253C62.5509 42.3501 62.458 42.5574 62.458 42.847V44.2895H61.6869V41.2708H62.458V41.7899L62.4587 41.7905Z" fill="#EF6078"/>
<path d="M67.3958 43.4559L66.9474 45.134H66.3199L66.5592 43.4559H67.3958Z" fill="#EF6078"/>
<path d="M76.3714 43.4926H78.1343V44.2898H75.5468V40.0641H78.1049V40.8613H76.3721V41.7611H77.9559V42.5462H76.3721V43.4939L76.3714 43.4926Z" fill="#EF6078"/>
<path d="M83.6329 41.2705H84.4816L83.3462 44.2892H82.4675L81.3321 41.2705H82.1808L82.9052 43.3826L83.6329 41.2705Z" fill="#EF6078"/>
<path d="M88.3719 43.0997C88.4754 43.4777 88.7561 43.6674 89.2145 43.6674C89.5092 43.6674 89.7324 43.5668 89.8841 43.3657L90.5056 43.7282C90.2109 44.1588 89.7765 44.3742 89.2025 44.3742C88.7087 44.3742 88.3117 44.223 88.013 43.9212C87.7143 43.6195 87.5646 43.2388 87.5646 42.7804C87.5646 42.3221 87.7123 41.9461 88.007 41.6423C88.3017 41.3386 88.6806 41.1867 89.1424 41.1867C89.5807 41.1867 89.9422 41.3399 90.2269 41.6457C90.5116 41.9515 90.6539 42.3302 90.6539 42.7804C90.6539 42.881 90.6439 42.9877 90.6239 43.1004H88.3705L88.3719 43.0997ZM88.3598 42.4962H89.8841C89.84 42.291 89.7498 42.1378 89.6121 42.0372C89.4745 41.9366 89.3181 41.886 89.143 41.886C88.9359 41.886 88.7641 41.9393 88.6291 42.046C88.4935 42.1526 88.4039 42.3025 88.3598 42.4956V42.4962Z" fill="#EF6078"/>
<path d="M94.9527 41.7905C95.0242 41.5975 95.1431 41.4524 95.3082 41.3558C95.4733 41.2593 95.6577 41.2107 95.8609 41.2107V42.0801C95.6256 42.0518 95.4158 42.1004 95.23 42.2253C95.0449 42.3501 94.952 42.5574 94.952 42.847V44.2895H94.1809V41.2708H94.952V41.7899L94.9527 41.7905Z" fill="#EF6078"/>
<path d="M101.311 41.2709H102.136L101.047 44.2944C100.891 44.725 100.685 45.0383 100.429 45.234C100.172 45.4291 99.8526 45.5168 99.4704 45.4966V44.7723C99.6775 44.7763 99.8419 44.7318 99.9635 44.6393C100.085 44.5468 100.181 44.3977 100.254 44.1924L99.0287 41.2702H99.8713L100.651 43.2987L101.311 41.2702V41.2709Z" fill="#EF6078"/>
<path d="M111.435 44.3734C111.02 44.3734 110.672 44.2795 110.389 44.0925C110.106 43.9056 109.907 43.6511 109.791 43.3291L110.496 42.9126C110.66 43.3433 110.98 43.5586 111.459 43.5586C111.69 43.5586 111.859 43.5161 111.967 43.4317C112.074 43.3473 112.128 43.2407 112.128 43.1117C112.128 42.9625 112.062 42.8471 111.931 42.7648C111.799 42.6824 111.564 42.5926 111.226 42.4961C111.038 42.4401 110.88 42.3834 110.75 42.3273C110.621 42.2713 110.491 42.1957 110.362 42.1012C110.232 42.0067 110.134 41.8872 110.066 41.7421C109.999 41.597 109.965 41.4282 109.965 41.2351C109.965 40.8531 110.099 40.548 110.368 40.3205C110.637 40.093 110.961 39.9796 111.339 39.9796C111.678 39.9796 111.975 40.0633 112.233 40.23C112.49 40.3968 112.69 40.6296 112.833 40.9273L112.14 41.3317C111.973 40.9692 111.706 40.7883 111.34 40.7883C111.169 40.7883 111.034 40.8274 110.936 40.9057C110.839 40.984 110.79 41.086 110.79 41.2108C110.79 41.3438 110.845 41.4512 110.954 41.5335C111.064 41.6159 111.274 41.7056 111.584 41.8022C111.712 41.8427 111.808 41.8737 111.874 41.896C111.94 41.9183 112.03 41.9527 112.143 41.9986C112.257 42.0452 112.344 42.0884 112.406 42.1282C112.468 42.1687 112.539 42.2227 112.618 42.2916C112.698 42.3597 112.758 42.4306 112.801 42.5029C112.843 42.5751 112.878 42.6628 112.908 42.7654C112.938 42.868 112.953 42.9794 112.953 43.1002C112.953 43.4904 112.813 43.8003 112.531 44.0298C112.251 44.2593 111.885 44.374 111.435 44.374V44.3734Z" fill="#EF6078"/>
<path d="M119.073 43.9117C118.766 44.2195 118.391 44.3734 117.949 44.3734C117.508 44.3734 117.133 44.2195 116.829 43.9117C116.524 43.6039 116.372 43.2265 116.372 42.7797C116.372 42.3328 116.524 41.9555 116.829 41.6476C117.133 41.3398 117.507 41.1859 117.949 41.1859C118.392 41.1859 118.766 41.3398 119.073 41.6476C119.379 41.9555 119.533 42.3328 119.533 42.7797C119.533 43.2265 119.379 43.6039 119.073 43.9117ZM117.373 43.3777C117.526 43.535 117.718 43.6133 117.949 43.6133C118.181 43.6133 118.374 43.535 118.529 43.3777C118.684 43.2211 118.762 43.0213 118.762 42.7803C118.762 42.5393 118.684 42.3395 118.529 42.1829C118.374 42.0257 118.18 41.9474 117.949 41.9474C117.719 41.9474 117.526 42.0257 117.373 42.1829C117.219 42.3395 117.143 42.5393 117.143 42.7803C117.143 43.0213 117.22 43.2211 117.373 43.3777Z" fill="#EF6078"/>
<path d="M123.065 44.2892V39.8819H123.836V44.2892H123.065Z" fill="#EF6078"/>
<path d="M129.501 41.2709H130.272V44.2896H129.501V43.9515C129.314 44.2329 129.017 44.374 128.61 44.374C128.284 44.374 128.014 44.2633 127.8 44.0419C127.587 43.8205 127.481 43.5147 127.481 43.1245V41.2709H128.252V43.0273C128.252 43.2285 128.306 43.3824 128.413 43.4891C128.521 43.5957 128.665 43.649 128.844 43.649C129.043 43.649 129.202 43.5869 129.321 43.4621C129.441 43.3372 129.501 43.1502 129.501 42.9004V41.2702L129.501 41.2709Z" fill="#EF6078"/>
<path d="M135.675 42.0191H134.999V43.2746C134.999 43.3793 135.025 43.4555 135.076 43.5041C135.128 43.5527 135.204 43.5797 135.304 43.5858C135.403 43.5919 135.527 43.5912 135.675 43.5831V44.2892C135.145 44.3493 134.771 44.2993 134.554 44.138C134.337 43.9773 134.228 43.6891 134.228 43.2746V42.0191H133.709V41.2705H134.228V40.6609L135 40.4253V41.2705H135.675V42.0191H135.675Z" fill="#EF6078"/>
<path d="M139.589 40.9093C139.462 40.9093 139.351 40.862 139.258 40.7675C139.164 40.673 139.117 40.5616 139.117 40.4327C139.117 40.3038 139.164 40.1911 139.258 40.0945C139.351 39.998 139.462 39.9494 139.589 39.9494C139.717 39.9494 139.833 39.998 139.927 40.0945C140.02 40.1911 140.067 40.3038 140.067 40.4327C140.067 40.5616 140.02 40.673 139.927 40.7675C139.833 40.862 139.72 40.9093 139.589 40.9093ZM139.207 44.2898V41.2711H139.978V44.2898H139.207Z" fill="#EF6078"/>
<path d="M146.217 43.9114C145.911 44.2192 145.536 44.3732 145.094 44.3732C144.652 44.3732 144.278 44.2192 143.973 43.9114C143.669 43.6036 143.516 43.2263 143.516 42.7794C143.516 42.3325 143.669 41.9552 143.973 41.6474C144.278 41.3396 144.652 41.1857 145.094 41.1857C145.536 41.1857 145.911 41.3396 146.217 41.6474C146.524 41.9552 146.678 42.3325 146.678 42.7794C146.678 43.2263 146.524 43.6036 146.217 43.9114ZM144.517 43.3775C144.67 43.5348 144.863 43.6131 145.094 43.6131C145.325 43.6131 145.518 43.5348 145.673 43.3775C145.829 43.2209 145.907 43.0211 145.907 42.7801C145.907 42.5391 145.829 42.3393 145.673 42.1827C145.518 42.0254 145.324 41.9471 145.094 41.9471C144.863 41.9471 144.67 42.0254 144.517 42.1827C144.364 42.3393 144.287 42.5391 144.287 42.7801C144.287 43.0211 144.364 43.2209 144.517 43.3775Z" fill="#EF6078"/>
<path d="M151.87 41.1859C152.197 41.1859 152.467 41.2966 152.68 41.518C152.893 41.7394 152.999 42.0452 152.999 42.4354V44.289H152.228V42.5326C152.228 42.3314 152.175 42.1775 152.067 42.0709C151.96 41.9642 151.816 41.9109 151.637 41.9109C151.438 41.9109 151.278 41.9737 151.159 42.0979C151.039 42.2228 150.98 42.4097 150.98 42.6595V44.2897H150.209V41.271H150.98V41.6092C151.167 41.3277 151.464 41.1866 151.871 41.1866L151.87 41.1859Z" fill="#EF6078"/>
<path d="M34.892 35.7463H25.2792L25.7062 32.8147C26.3564 32.8147 29.4217 32.5892 29.8687 32.1376C30.3158 31.686 30.539 31.1318 30.539 30.4757V15.2903C30.539 12.5105 27.3501 12.8278 25.2698 12.8278L23.962 10.4679C28.0324 10.4679 31.4545 10.6731 34.892 8.16135V35.7457V35.7463Z" fill="#E32934"/>
<path d="M0 0.5V35.7459H23.7865L23.9121 34.8811H0.856033V1.36471H34.0355V7.22462C34.3208 7.05249 34.6062 6.86213 34.8915 6.65355V0.5H0Z" fill="#E32934"/>
<path d="M57.0502 31.3675H57.3181V16.8254H62.2418V35.7457H54.2682L46.6421 21.2043H46.3741V35.7457H41.4505V16.8254H49.5851L57.0508 31.3675H57.0502Z" fill="#2B2A6C"/>
<path d="M65.2362 16.8254H84.0468V20.8796H70.1592V24.3661H82.5747V28.2043H70.1592V31.6909H84.0468V35.7451H65.2362V16.8254Z" fill="#2B2A6C"/>
<path d="M97.0244 29.7994L91.8601 35.7457H85.465L93.9471 26.4209V26.1502L85.465 16.8254H91.78L97.0244 22.7717H97.2917L102.456 16.8254H108.824L100.342 26.1502V26.4209L108.824 35.7457H102.456L97.2917 29.7994H97.0244Z" fill="#2B2A6C"/>
<path d="M109.948 16.8254H114.871V28.34C114.871 30.3131 116.183 31.6375 118.136 31.6375H123.06C125.013 31.6375 126.324 30.3131 126.324 28.34V16.8254H131.248V27.9613C131.248 32.7992 128.063 36.0164 123.274 36.0164H117.923C113.133 36.0164 109.949 32.7999 109.949 27.9613V16.8254H109.948Z" fill="#2B2A6C"/>
<path d="M133.226 16.8254H153.001V20.3389L140.933 31.3668H153.001V35.7457H133.226V32.2322L145.294 21.2043H133.226V16.8254Z" fill="#2B2A6C"/>
</g>
<defs>
<clipPath id="clip0_16066_269">
<rect width="153" height="45" fill="white" transform="translate(0 0.5)"/>
</clipPath>
</defs>
</svg>
