<svg width="48" height="48" viewBox="0 0 48 48" fill="none" xmlns="http://www.w3.org/2000/svg">
<path d="M42.8929 3.5H5.10714C4.01798 3.50039 2.97354 3.93324 2.20339 4.70339C1.43324 5.47354 1.00039 6.51798 1 7.60714V40.4643C1.00039 41.5534 1.43324 42.5979 2.20339 43.368C2.97354 44.1382 4.01798 44.571 5.10714 44.5714H42.8929C43.982 44.571 45.0265 44.1382 45.7966 43.368C46.5668 42.5979 46.9996 41.5534 47 40.4643V7.60714C46.9996 6.51798 46.5668 5.47354 45.7966 4.70339C45.0265 3.93324 43.982 3.50039 42.8929 3.5ZM13.3296 5.96429H13.3379C13.5564 5.96537 13.7657 6.05311 13.9197 6.20825C14.0737 6.36339 14.1598 6.57328 14.1593 6.79186C14.1587 7.01045 14.0715 7.21991 13.9168 7.37428C13.762 7.52865 13.5523 7.61535 13.3337 7.61535C13.1152 7.61535 12.9055 7.52865 12.7507 7.37428C12.596 7.21991 12.5088 7.01045 12.5082 6.79186C12.5077 6.57328 12.5938 6.36339 12.7478 6.20825C12.9018 6.05311 13.1111 5.96537 13.3296 5.96429ZM9.2225 5.96429H9.23071C9.4493 5.96537 9.65853 6.05311 9.81252 6.20825C9.96651 6.36339 10.0527 6.57328 10.0521 6.79186C10.0516 7.01045 9.96438 7.21991 9.80962 7.37428C9.65486 7.52865 9.4452 7.61535 9.22661 7.61535C9.00802 7.61535 8.79835 7.52865 8.64359 7.37428C8.48883 7.21991 8.40162 7.01045 8.40107 6.79186C8.40053 6.57328 8.4867 6.36339 8.64069 6.20825C8.79468 6.05311 9.00391 5.96537 9.2225 5.96429ZM5.11536 5.96429H5.12357C5.34216 5.96537 5.55139 6.05311 5.70538 6.20825C5.85937 6.36339 5.94554 6.57328 5.945 6.79186C5.94445 7.01045 5.85724 7.21991 5.70248 7.37428C5.54772 7.52865 5.33805 7.61535 5.11946 7.61535C4.90087 7.61535 4.69121 7.52865 4.53645 7.37428C4.38169 7.21991 4.29448 7.01045 4.29393 6.79186C4.29339 6.57328 4.37956 6.36339 4.53355 6.20825C4.68754 6.05311 4.89677 5.96537 5.11536 5.96429ZM43.7143 40.4643C43.7136 40.6819 43.6269 40.8905 43.473 41.0444C43.3191 41.1983 43.1105 41.2851 42.8929 41.2857H5.10714C4.88949 41.2851 4.68093 41.1983 4.52702 41.0444C4.37312 40.8905 4.28636 40.6819 4.28571 40.4643V10.8929C4.28636 10.6752 4.37312 10.4666 4.52702 10.3127C4.68093 10.1588 4.88949 10.0721 5.10714 10.0714H42.8929C43.1105 10.0721 43.3191 10.1588 43.473 10.3127C43.6269 10.4666 43.7136 10.6752 43.7143 10.8929V40.4643Z" fill="#E32934"/>
<path d="M40.4283 33.4824H27.3761C27.1583 33.4824 26.9493 33.569 26.7953 33.723C26.6412 33.8771 26.5547 34.086 26.5547 34.3039C26.5547 34.5217 26.6412 34.7306 26.7953 34.8847C26.9493 35.0387 27.1583 35.1253 27.3761 35.1253H40.4283C40.6462 35.1253 40.8551 35.0387 41.0092 34.8847C41.1632 34.7306 41.2498 34.5217 41.2498 34.3039C41.2498 34.086 41.1632 33.8771 41.0092 33.723C40.8551 33.569 40.6462 33.4824 40.4283 33.4824Z" fill="#E32934"/>
<path d="M40.4283 29.375H30.2511C30.0333 29.375 29.8243 29.4615 29.6703 29.6156C29.5162 29.7696 29.4297 29.9786 29.4297 30.1964C29.4297 30.4143 29.5162 30.6232 29.6703 30.7773C29.8243 30.9313 30.0333 31.0179 30.2511 31.0179H40.4283C40.6462 31.0179 40.8551 30.9313 41.0092 30.7773C41.1632 30.6232 41.2498 30.4143 41.2498 30.1964C41.2498 29.9786 41.1632 29.7696 41.0092 29.6156C40.8551 29.4615 40.6462 29.375 40.4283 29.375Z" fill="#E32934"/>
<path d="M40.4286 25.2676H31.3351C31.1172 25.2676 30.9083 25.3541 30.7543 25.5082C30.6002 25.6622 30.5137 25.8712 30.5137 26.089C30.5137 26.3069 30.6002 26.5158 30.7543 26.6698C30.9083 26.8239 31.1172 26.9104 31.3351 26.9104H40.4286C40.6464 26.9104 40.8554 26.8239 41.0094 26.6698C41.1635 26.5158 41.25 26.3069 41.25 26.089C41.25 25.8712 41.1635 25.6622 41.0094 25.5082C40.8554 25.3541 40.6464 25.2676 40.4286 25.2676Z" fill="#E32934"/>
<path d="M40.4286 37.1777H7.57143C7.35357 37.1777 7.14464 37.2643 6.99059 37.4183C6.83654 37.5724 6.75 37.7813 6.75 37.9992C6.75 38.217 6.83654 38.426 6.99059 38.58C7.14464 38.734 7.35357 38.8206 7.57143 38.8206H40.4286C40.6464 38.8206 40.8554 38.734 41.0094 38.58C41.1635 38.426 41.25 38.217 41.25 37.9992C41.25 37.7813 41.1635 37.5724 41.0094 37.4183C40.8554 37.2643 40.6464 37.1777 40.4286 37.1777Z" fill="#E32934"/>
<path d="M34.4093 15.5802L34.646 15.3436V21.9816C34.646 22.1994 34.7325 22.4084 34.8866 22.5624C35.0406 22.7164 35.2496 22.803 35.4674 22.803C35.6853 22.803 35.8942 22.7164 36.0483 22.5624C36.2023 22.4084 36.2889 22.1994 36.2889 21.9816V15.3355L36.5335 15.5802C36.6879 15.7326 36.8963 15.8178 37.1132 15.8171C37.3302 15.8164 37.538 15.7299 37.6914 15.5765C37.8448 15.4232 37.9313 15.2153 37.932 14.9984C37.9326 14.7814 37.8475 14.573 37.695 14.4187L36.0522 12.7758C35.9759 12.6995 35.8854 12.639 35.7857 12.5977C35.6861 12.5564 35.5793 12.5352 35.4714 12.5352C35.3635 12.5352 35.2567 12.5564 35.1571 12.5977C35.0574 12.639 34.9669 12.6995 34.8906 12.7758L33.2478 14.4187C33.1708 14.4948 33.1096 14.5854 33.0678 14.6852C33.0259 14.785 33.0042 14.8922 33.0039 15.0004C33.0036 15.1087 33.0247 15.2159 33.066 15.316C33.1073 15.4161 33.1679 15.507 33.2445 15.5835C33.321 15.6601 33.412 15.7207 33.512 15.762C33.6121 15.8033 33.7194 15.8244 33.8276 15.8241C33.9359 15.8238 34.043 15.802 34.1428 15.7602C34.2427 15.7183 34.3332 15.6572 34.4093 15.5802Z" fill="#E32934"/>
<path d="M17.4299 24.7841C18.3161 24.7849 19.1827 24.5229 19.9201 24.0312C20.6574 23.5395 21.2324 22.8402 21.5722 22.0217C21.9121 21.2033 22.0017 20.3024 21.8296 19.433C21.6575 18.5636 21.2315 17.7648 20.6054 17.1376C19.9793 16.5104 19.1813 16.0829 18.3122 15.9092C17.4432 15.7355 16.5421 15.8234 15.723 16.1618C14.904 16.5002 14.2036 17.0739 13.7106 17.8103C13.2175 18.5467 12.9539 19.4128 12.9531 20.2991C12.9528 21.4872 13.4241 22.627 14.2635 23.4679C15.1029 24.3088 16.2417 24.7822 17.4299 24.7841Z" fill="#E32934"/>
<path d="M17.4286 33.8923C19.5406 33.8923 21.6052 33.266 23.3613 32.0926C25.1173 30.9193 26.486 29.2515 27.2943 27.3002C28.1025 25.349 28.314 23.2019 27.902 21.1304C27.4899 19.059 26.4729 17.1563 24.9795 15.6628C23.486 14.1694 21.5833 13.1524 19.5119 12.7403C17.4404 12.3283 15.2933 12.5398 13.3421 13.348C11.3908 14.1563 9.72304 15.525 8.54966 17.281C7.37629 19.0371 6.75 21.1017 6.75 23.2137C6.75271 26.045 7.87864 28.7596 9.88068 30.7616C11.8827 32.7637 14.5973 33.8896 17.4286 33.8923ZM17.4286 14.178C19.125 14.1782 20.7871 14.656 22.2248 15.5566C23.6625 16.4571 24.8176 17.7442 25.558 19.2705C26.2985 20.7969 26.5944 22.5008 26.4118 24.1874C26.2292 25.874 25.5756 27.4751 24.5257 28.8077V28.1423C24.525 27.3208 24.3224 26.512 23.9357 25.7872C23.5489 25.0624 22.9899 24.4438 22.3079 23.9859C21.7397 24.7434 21.0031 25.3582 20.1562 25.7816C19.3093 26.2051 18.3754 26.4255 17.4286 26.4255C16.4817 26.4255 15.5479 26.2051 14.701 25.7816C13.8541 25.3582 13.1174 24.7434 12.5493 23.9859C11.8672 24.4438 11.3082 25.0624 10.9215 25.7872C10.5347 26.512 10.3321 27.3208 10.3314 28.1423V28.8077C9.28153 27.4751 8.62791 25.874 8.44534 24.1874C8.26278 22.5008 8.55865 20.7969 9.2991 19.2705C10.0396 17.7442 11.1947 16.4571 12.6323 15.5566C14.07 14.656 15.7321 14.1782 17.4286 14.178Z" fill="#E32934"/>
</svg>
