<svg width="48" height="48" viewBox="0 0 48 48" fill="none" xmlns="http://www.w3.org/2000/svg">
<g clip-path="url(#clip0_41_15336)">
<path d="M2.67034 24.7844V18.8996C2.67034 18.7828 2.76018 18.684 2.87698 18.666L8.68987 17.9652C9.05823 16.5187 9.64221 15.1082 10.4239 13.7875L6.81213 9.1875C6.74026 9.09766 6.74924 8.96289 6.8301 8.88203L10.9899 4.72227C11.0707 4.64141 11.2055 4.62344 11.2953 4.7043L15.8953 8.31602C17.2071 7.54336 18.6086 6.95937 20.0731 6.58203L20.7828 0.769141C20.8008 0.643359 20.8906 0.5625 21.0074 0.5625H26.8922C27.009 0.5625 27.1078 0.652344 27.1168 0.769141L27.8266 6.58203C29.291 6.95937 30.7016 7.53438 32.0043 8.31602L36.6043 4.7043C36.7031 4.63242 36.8289 4.64141 36.9188 4.72227L41.0696 8.87305C41.1504 8.96289 41.1594 9.09766 41.0875 9.1875L37.4758 13.7875C38.2485 15.1082 38.8324 16.5187 39.2098 17.9652C39.2098 17.9652 45.0137 18.666 45.0227 18.666C45.1395 18.684 45.2293 18.7828 45.2293 18.8996V24.7844C45.2293 24.8922 45.1395 25 45.0227 25.009L44.2141 25.1078C44.5196 24.4879 44.2231 23.6793 43.4684 23.6523C42.4442 23.7242 41.4199 23.7152 40.4137 23.5266C37.8172 23.1762 36.227 21.2086 33.6754 21.9723C33.7742 16.5637 29.3629 12.0984 23.9543 12.1074C17.9258 12.0445 13.191 17.7855 14.4129 23.6883C12.5262 23.6883 10.8012 23.0145 9.11213 22.2688C7.00979 21.3793 4.75471 21.9453 3.6137 23.9668C3.51487 24.3531 3.69456 24.7395 3.79338 25.1168L2.88596 25.009C2.76018 25 2.67034 24.9012 2.67034 24.7844ZM9.30081 23.4637C7.51292 22.5293 5.93167 22.5113 4.59299 24.2363C4.85354 25.6469 5.83284 26.8687 6.73127 27.9109H13.5504C14.5297 26.734 15.1406 25.9074 15.5719 24.6945C13.3707 24.7844 11.3223 24.3531 9.30081 23.4637ZM6.03049 28.9262C5.42854 28.9352 5.42854 29.8426 6.03049 29.8516H14.2512C14.8442 29.8426 14.8532 28.9262 14.2602 28.9262H6.03049ZM12.2117 38.3238C12.077 35.7992 13.3258 33.4363 14.7364 31.4148C14.5656 31.2441 14.386 31.0195 14.2153 30.8758H6.06643C2.83206 34.209 1.12502 37.075 1.12502 39.1594C1.10706 46.7422 10.8192 47.7574 15.7875 45.116C13.5953 43.5258 12.3465 40.9832 12.2117 38.3238ZM19.1297 25.4941C18.2852 25.5121 18.2852 26.7699 19.1297 26.7789H28.8778C29.7223 26.7699 29.7133 25.5031 28.8778 25.4941H19.1297ZM23.9992 46.4098C15.1047 46.6164 9.74104 39.3121 15.8055 31.6664H15.8145C16.8297 30.2828 17.9078 29.0699 19.1297 27.7941H28.8778C31.8336 30.8578 35.661 35.4129 34.6637 39.357C33.7742 44.3973 29.0215 46.4188 23.9992 46.4098ZM24.4574 36.5809V33.4633H26.6766C26.9641 33.4633 27.1797 33.2387 27.1797 32.9602C27.1797 32.6816 26.9551 32.457 26.6766 32.457H24.4574C24.4305 32.0078 24.6371 31.1902 23.9543 31.1723C23.6758 31.1723 23.4512 31.3969 23.4512 31.6754V32.457C19.8485 32.4121 19.8485 37.65 23.4512 37.6051V40.7496H21.2321C20.9535 40.7496 20.7289 40.9742 20.7289 41.2527C20.7289 41.5312 20.9535 41.7559 21.2321 41.7559H23.4512V42.5375C23.4512 42.816 23.6758 43.0406 23.9543 43.0406C24.6461 43.0137 24.4305 42.1961 24.4574 41.7559C28.0512 41.8187 28.0602 36.518 24.4574 36.5809ZM24.4574 40.7316C26.7305 40.8125 26.7035 37.4973 24.4574 37.5871V40.7316ZM23.4422 36.5809V33.4633C21.1871 33.3645 21.1871 36.6707 23.4422 36.5809ZM33.7473 28.9262C33.1453 28.9352 33.1453 29.8426 33.7473 29.8516H41.968C42.5699 29.8426 42.5789 28.9262 41.968 28.9262H33.7473ZM41.9321 30.8758H33.7742C33.6035 31.0555 33.4328 31.2352 33.2621 31.4148C34.0797 32.5918 34.8434 33.8676 35.3196 35.2242C36.5774 38.7641 35.2477 42.9238 32.2199 45.125C37.1973 47.7574 46.8914 46.7512 46.8824 39.1594C46.8824 37.066 45.1664 34.209 41.9321 30.8758ZM37.0086 23.4637C35.2567 22.5742 33.6035 22.4934 32.3008 24.2363C32.5614 25.548 33.5586 26.8777 34.4391 27.9109H41.2582C42.2645 26.707 42.8485 25.8895 43.2797 24.6766C41.2492 24.9191 38.6438 24.2902 37.0086 23.4637ZM23.0379 19.0254C20.7739 17.8574 18.9231 17.9113 17.3239 19.9957C17.5125 21.1906 18.411 22.7449 19.9114 24.4699H28.0871C29.4168 22.9336 30.2524 21.568 30.5668 20.427C28.1141 20.7773 25.0055 20.0137 23.0379 19.0254Z" fill="#E32934"/>
</g>
<defs>
<clipPath id="clip0_41_15336">
<rect width="46" height="46" fill="white" transform="translate(1 0.5)"/>
</clipPath>
</defs>
</svg>
