<svg width="24" height="24" viewBox="0 0 24 24" fill="none" xmlns="http://www.w3.org/2000/svg">
<g clip-path="url(#clip0_339_55761)">
<path d="M12.0013 24C17.2429 24 21.6813 20.6784 23.3229 16H0.679688C2.32129 20.6784 6.75969 24 12.0013 24Z" fill="black"/>
<path d="M12.0013 0C6.75969 0 2.32129 3.36 0.679688 8H23.3197C21.6813 3.36 17.2429 0 12.0013 0Z" fill="#21763B"/>
<path d="M23.3216 16C23.7632 14.7616 24 13.4016 24 12C24 10.5984 23.76 9.2416 23.3216 8H0.6784C0.24 9.2416 0 10.5984 0 12C0 13.4016 0.24 14.7616 0.6784 16H23.3216Z" fill="#F9F9F9"/>
<path d="M5.20757 13.0667L6.56491 14L6.06032 12.4667L7.41766 11.5013H5.74748L5.20757 10L4.70298 11.4987H3L4.35482 12.4667L3.85023 14L5.20757 13.0667Z" fill="#CE1329"/>
<path d="M12.1451 13.0667L13.5024 14L12.9978 12.4667L14.3552 11.5013H12.685L12.1451 10L11.6405 11.4987H9.9375L11.2948 12.4667L10.7903 14L12.1451 13.0667Z" fill="#CE1329"/>
<path d="M18.7896 13.0667L20.1469 14L19.6424 12.4667L20.9997 11.5013H19.3295L18.7896 10L18.285 11.4987H16.582L17.9394 12.4667L17.4348 14L18.7896 13.0667Z" fill="#CE1329"/>
</g>
<defs>
<clipPath id="clip0_339_55761">
<rect width="24" height="24" fill="white"/>
</clipPath>
</defs>
</svg>
