<svg width="1350" height="151" viewBox="0 0 1350 151" fill="none" xmlns="http://www.w3.org/2000/svg">
<g clip-path="url(#clip0_331_18)">
<path opacity="0.5" d="M435.72 104.793C444.317 101.186 583.254 13.4666 617.78 28.8672L485.624 111.922C365.126 111.176 116.851 93.9424 42.7161 191.745C270.738 51.2434 635.3 239.519 1296.01 109.354C1125.75 102.185 991.784 21.4744 798.872 3.28655C638.845 -11.801 551.648 25.5732 435.72 104.797V104.793ZM1207.91 137.495C1234.88 134.115 1261.84 128.492 1288.81 119.691C1304.47 129.375 1290.11 150.224 1306.59 163.344C1328.58 185.82 1336.47 211.666 1318.99 251C1318.99 251 1330.84 193.124 1292.49 175.707C1254.15 158.291 1215.24 167.841 1207.91 137.499V137.495ZM1215.73 91.5278C1231.44 95.1087 1307.89 118.513 1350 75.8738C1350 75.8738 1266.23 51.2732 1215.73 91.5278ZM0 248.865C46.1975 169.093 172.472 146.788 250.541 145.953C88.9659 157.128 133.331 220.881 0 248.865ZM511.792 111.974C557.84 82.7376 642.424 25.2714 689.444 24.5597C750.064 14.8156 949.322 45.8068 1044.3 85.0479C924.189 112.693 694.152 111.612 511.796 111.97L511.792 111.974Z" fill="#FFEAEB"/>
</g>
<defs>
<clipPath id="clip0_331_18">
<rect width="1350" height="151" fill="white"/>
</clipPath>
</defs>
</svg>
