<svg width="1440" height="460" viewBox="0 0 1440 460" fill="none" xmlns="http://www.w3.org/2000/svg">
<g clip-path="url(#clip0_1_6909)">
<path opacity="0.5" d="M480.72 403.793C489.317 400.186 628.254 312.467 662.78 327.867L530.624 410.922C410.126 410.176 161.851 392.942 87.7161 490.745C315.738 350.243 680.3 538.519 1341.01 408.354C1170.75 401.185 1036.78 320.474 843.872 302.287C683.845 287.199 596.648 324.573 480.72 403.797V403.793ZM1252.91 436.495C1279.88 433.115 1306.84 427.492 1333.81 418.691C1349.47 428.375 1335.11 449.224 1351.59 462.344C1373.58 484.82 1381.47 510.666 1363.99 550C1363.99 550 1375.84 492.124 1337.49 474.707C1299.15 457.291 1260.24 466.841 1252.91 436.499L1252.91 436.495ZM1260.73 390.528C1276.44 394.109 1352.89 417.513 1395 374.874C1395 374.874 1311.23 350.273 1260.73 390.528ZM45 547.865C91.1975 468.093 217.472 445.788 295.541 444.953C133.966 456.128 178.331 519.881 45 547.865ZM556.792 410.974C602.84 381.738 687.424 324.271 734.444 323.56C795.064 313.816 994.322 344.807 1089.3 384.048C969.189 411.693 739.152 410.612 556.796 410.97L556.792 410.974Z" fill="#FFEAEB"/>
</g>
<defs>
<clipPath id="clip0_1_6909">
<rect width="1440" height="460" fill="white"/>
</clipPath>
</defs>
</svg>
