<svg width="221" height="66" viewBox="0 0 221 66" fill="none" xmlns="http://www.w3.org/2000/svg">
<g clip-path="url(#clip0_392_78)">
<path d="M190.417 23.0974C189.544 21.2817 188.371 19.6236 186.947 18.1919C186.661 17.9167 186.354 17.6635 186.029 17.4346C185.785 17.2465 185.53 17.0721 185.265 16.9123H185.211L185.142 16.8721C184.856 16.7183 184.563 16.5795 184.263 16.4563H184.186C183.432 16.1609 182.628 16.0089 181.818 16.0083H181.481C180.59 16.0646 179.721 16.3016 178.929 16.7074C177.992 17.2005 177.133 17.8257 176.377 18.5635H176.33L176.283 18.6097C176.254 18.6435 176.221 18.6739 176.184 18.7001L176.038 18.8367C175.52 19.3209 174.999 19.8452 174.395 20.4579L173.968 20.8998C173.426 21.4378 172.889 21.9802 172.356 22.5269C172.522 19.6624 172.7 16.7295 172.844 13.8187C172.844 13.4471 172.882 13.0614 172.913 12.6958C173.02 11.4242 173.046 10.1446 172.99 8.86895V8.55759C172.913 7.1032 172.791 4.91157 171.329 3.03332C170.255 1.63518 168.112 0 164.032 0C163.109 0.00617761 162.187 0.0746356 161.273 0.2049C159.771 0.416343 158.291 0.753696 156.847 1.21333C152.307 2.69182 149.686 5.00197 149.027 8.14176C148.545 10.468 149.41 12.4929 149.976 13.8328L150.097 14.122C150.61 15.2972 151.199 16.4362 151.863 17.533L152.414 18.5113C153.821 21.0476 155.245 23.5741 156.687 26.0906L154.499 25.3333L153.942 25.1364C153.132 24.8411 152.414 24.59 151.748 24.3771L151.566 24.3248L151.436 24.2867H151.312C150.305 23.9522 149.254 23.7661 148.193 23.7342H148.027C147.189 23.7307 146.36 23.8954 145.588 24.2184C144.733 24.5759 143.967 25.1103 143.339 25.7873C143.13 26.032 142.932 26.2854 142.744 26.5466L142.699 26.6069L142.653 26.6752C142.266 27.2577 141.951 27.8834 141.713 28.5394V28.5856C141.064 30.4813 140.741 32.4716 140.756 34.4734C138.808 26.8941 132.419 21.2915 124.881 21.2915C122.145 21.3002 119.46 22.028 117.1 23.4008C115.77 22.2853 114.098 21.6501 112.357 21.5991C110.616 21.548 108.909 22.084 107.515 23.1195V19.132C107.468 17.1234 106.637 15.2111 105.197 13.7975C103.757 12.3839 101.82 11.5792 99.7945 11.5527C97.7411 11.5602 95.7746 12.3754 94.3268 13.8195C92.879 15.2635 92.0682 17.2183 92.0725 19.2546V27.539C91.8799 27.2876 91.6737 27.0469 91.4547 26.8178C89.2318 24.5088 86.434 22.8223 83.3437 21.9283C80.2315 21.06 76.9377 21.0628 73.8269 21.9363H73.7439C71.2357 22.5879 68.9164 23.8132 66.9719 25.5141C66.3578 24.2341 65.3889 23.1539 64.1786 22.3997C62.9683 21.6456 61.5665 21.2487 60.1372 21.2554C59.4119 21.2554 58.6928 21.3598 57.998 21.5647C54.1755 22.7097 52.6461 26.3939 51.7142 28.5916C51.6292 28.7965 51.5522 28.9873 51.4712 29.1681C51.2402 29.7145 51.0194 30.1986 50.8432 30.5863C50.6655 30.9619 50.502 31.3438 50.353 31.7314C50.2456 32.0267 50.1544 32.2296 50.0491 32.4887C49.4111 31.2043 48.7663 29.9234 48.1145 28.6458L47.7297 27.8423C46.7674 25.7933 45.3231 22.7178 41.7315 21.6411C39.941 21.0985 38.0111 21.2348 36.3163 22.0236C34.6214 22.8124 33.2824 24.1973 32.5591 25.9098C30.8231 29.9797 32.9784 33.5715 34.1331 35.4979C34.9596 36.8639 36.021 38.6719 37.0157 40.5541C37.4411 41.3114 37.6031 41.6309 38.543 43.4408L38.6808 43.6919L39.8739 45.9659C40.1575 46.4882 40.4695 47.0868 40.8362 47.7859C41.2271 48.5432 41.6708 49.3608 42.1589 50.2708C42.0759 50.3853 41.9908 50.5058 41.8916 50.6203L41.8227 50.7027L41.7153 50.6505C40.953 50.2664 40.1443 49.9809 39.3088 49.8007C38.7196 49.6652 38.1168 49.5965 37.512 49.5958C36.1887 49.5953 34.8886 49.9404 33.7425 50.5963C32.5964 51.2522 31.6447 52.1958 30.9831 53.3322C30.3221 54.4769 29.9829 55.7765 30.0007 57.0954C30.0185 58.4144 30.3927 59.7045 31.0844 60.8312C33.3755 64.6198 38.0467 65.9999 41.6789 65.9999C42.6411 66.0039 43.6033 65.9055 44.5432 65.7046C52.7008 63.9469 56.2316 56.1526 58.8083 50.4616L59.3269 49.3166C59.8582 48.1089 60.4113 46.9108 60.9859 45.7228L61.4984 44.6079C62.0195 46.2667 62.7839 47.8405 63.7672 49.2784C64.3749 50.1744 65.0536 51.0201 65.801 51.8035C66.5607 52.5729 67.3872 53.274 68.2704 53.9028C69.1617 54.5175 70.1138 55.0478 71.1064 55.4857C72.1192 55.9558 73.1787 56.3093 74.2706 56.5484C74.939 56.7111 75.6197 56.8356 76.3044 56.918C76.9323 56.9843 77.5603 57.0124 78.1923 57.0024H78.7494C81.0136 57.0048 83.2613 56.6201 85.3938 55.8654C86.3742 55.544 87.3243 55.1322 88.2297 54.638C89.8395 53.7109 91.1612 52.3627 92.0502 50.7409C92.2855 52.59 93.1904 54.2914 94.5964 55.5283C96.0024 56.7652 97.8138 57.4532 99.6933 57.4644C101.348 57.4644 102.957 56.9321 104.281 55.9477V58.3443C104.281 60.3747 105.095 62.3219 106.543 63.7576C107.99 65.1933 109.954 65.9999 112.001 65.9999C114.049 65.9999 116.013 65.1933 117.46 63.7576C118.908 62.3219 119.721 60.3747 119.721 58.3443V56.2531C121.35 56.8155 123.064 57.1028 124.79 57.1008C133.855 57.1008 141.231 49.0956 141.247 39.2564C141.433 39.853 141.69 40.4256 142.01 40.9639C142.497 41.7233 143.133 42.3761 143.884 42.8803C144.964 43.5947 146.225 43.9917 147.522 44.0254H148.118C149.127 44.0014 150.13 43.8592 151.106 43.6015H151.268L155.494 42.6533C154.829 43.5633 154.179 44.4492 153.553 45.3291L153.2 45.8213C152.69 46.5183 152.252 47.133 151.863 47.7236L151.756 47.8903L151.679 48.0048L151.643 48.0571V48.1113C151.037 48.986 150.562 49.9436 150.235 50.9538C149.967 51.809 149.884 52.7104 149.992 53.5994C150.109 54.5074 150.423 55.3812 150.907 56.1607V56.1988C151.084 56.472 151.282 56.7372 151.481 56.9562L151.527 57.0024L151.566 57.0546C151.778 57.3057 152.015 57.5407 152.254 57.7677C152.534 58.0429 152.836 58.296 153.156 58.5271C154.667 59.5516 156.32 60.3551 158.062 60.9135C159.547 61.4037 161.089 61.697 162.648 61.7854H163.094C163.349 61.788 163.604 61.7752 163.858 61.7472C164.176 61.7211 164.492 61.6789 164.804 61.6186H164.941C165.262 61.5443 165.58 61.4519 165.89 61.3454H165.936C166.794 61.0296 167.575 60.5389 168.229 59.9051C168.858 59.2702 169.349 58.5149 169.674 57.6854C170.043 56.6913 170.265 55.6492 170.332 54.5918V54.4552C170.336 54.4098 170.336 54.364 170.332 54.3186V54.1438C170.399 53.3865 170.431 52.6894 170.468 51.8698V50.7047L170.729 51.1728L171.027 51.7272C171.44 52.4845 171.79 53.1213 172.157 53.728L172.25 53.8786L172.333 54.0152V54.0615L172.374 54.1217C172.959 55.0217 173.674 55.8292 174.497 56.5243C175.155 57.137 175.935 57.605 176.79 57.8963H176.836C177.499 58.1173 178.194 58.2298 178.893 58.2298C179.109 58.2298 179.326 58.2157 179.541 58.1916H179.612C179.94 58.1554 180.266 58.1012 180.59 58.0249H180.726C181.04 57.9445 181.35 57.8421 181.652 57.7235C182.012 57.5889 182.361 57.4282 182.699 57.2454C184.067 56.4877 185.327 55.552 186.444 54.4632C187.764 53.2037 188.896 51.7643 189.807 50.1884C190.158 49.5605 190.426 48.89 190.603 48.1937V48.0651C190.679 47.7507 190.735 47.432 190.771 47.1109V47.0105C190.857 46.1098 190.753 45.2013 190.465 44.3428C190.164 43.4944 189.684 42.7193 189.058 42.0688C188.317 41.3063 187.471 40.6528 186.544 40.1283H186.489L186.428 40.0921L186.307 40.0238L186.153 39.9234C185.543 39.5678 184.862 39.166 184.143 38.8185L183.548 38.4991C182.598 37.9733 181.637 37.4677 180.665 36.9824L184.854 36.0202H185.016C186.206 35.7974 187.353 35.3907 188.415 34.8149C189.565 34.2211 190.522 33.3172 191.177 32.2075C191.606 31.4341 191.867 30.5803 191.94 29.6984C192.276 26.9624 191.116 24.5438 190.421 23.0974H190.417Z" fill="black" fill-opacity="0.96"/>
<path d="M158.84 37.9507L161.362 37.3721C161.415 37.3601 161.504 37.34 161.609 37.3059C162.306 37.1206 162.903 36.6745 163.274 36.0615C163.646 35.4484 163.763 34.7163 163.6 34.0194L163.59 33.9752C163.507 33.6413 163.361 33.3259 163.161 33.0451C162.878 32.6897 162.529 32.3922 162.132 32.1693C161.664 31.9051 161.175 31.6807 160.669 31.4983L157.904 30.4959C156.352 29.9234 154.801 29.367 153.233 28.8226C152.218 28.465 151.357 28.1496 150.61 27.9186C150.467 27.8796 150.326 27.8367 150.186 27.7901C149.283 27.5169 148.647 27.4024 148.11 27.3983C147.751 27.3851 147.394 27.4495 147.063 27.5872C146.717 27.7357 146.406 27.9547 146.151 28.23C146.024 28.3724 145.905 28.5213 145.794 28.676C145.579 29.0048 145.401 29.3565 145.264 29.7246C144.75 31.2292 144.494 32.8086 144.506 34.3971C144.516 35.8314 144.555 37.6735 145.351 38.923C145.543 39.2444 145.801 39.5216 146.106 39.7365C146.674 40.1242 147.245 40.1765 147.842 40.2186C148.734 40.2809 149.595 40.066 150.456 39.8671L158.834 37.9487L158.84 37.9507ZM186.977 24.6744C186.289 23.2414 185.363 21.9329 184.238 20.8034C184.093 20.6597 183.937 20.5268 183.773 20.4056C183.62 20.2923 183.462 20.1871 183.299 20.0902C183.13 19.9988 182.957 19.9163 182.78 19.8432C182.43 19.7068 182.055 19.6452 181.68 19.6624C181.321 19.6824 180.971 19.7829 180.653 19.9496C180.173 20.1867 179.652 20.5683 178.959 21.2051C178.864 21.2996 178.745 21.406 178.635 21.5065C178.066 22.0388 177.43 22.6957 176.674 23.459C175.506 24.6302 174.357 25.8074 173.212 26.9946L171.167 29.0998C170.793 29.4838 170.453 29.8984 170.15 30.3393C169.89 30.7123 169.706 31.1319 169.609 31.5747C169.554 31.9148 169.562 32.262 169.633 32.5992L169.643 32.6434C169.805 33.3395 170.233 33.9463 170.836 34.336C171.44 34.7257 172.173 34.8679 172.88 34.7326C172.965 34.7207 173.05 34.7046 173.133 34.6843L184.036 32.1854C184.897 31.9885 185.768 31.8077 186.54 31.3617C187.058 31.0664 187.55 30.7712 187.889 30.1765C188.069 29.849 188.178 29.4877 188.209 29.1159C188.377 27.6414 187.601 25.9681 186.977 24.6744ZM167.459 29.2203C168.249 28.236 168.249 26.7696 168.318 25.5683C168.557 21.5607 168.807 17.5531 169.007 13.5435C169.082 12.0248 169.246 10.5262 169.155 8.99551C169.08 7.73397 169.072 6.2836 168.268 5.24705C166.85 3.41902 163.823 3.56968 161.759 3.85493C161.122 3.94216 160.49 4.06015 159.865 4.20848C159.237 4.35714 158.613 4.51985 158.005 4.71471C156.024 5.35753 153.239 6.53872 152.769 8.80266C152.502 10.0823 153.134 11.39 153.62 12.5592C154.213 13.9734 155.022 15.249 155.759 16.5808C157.71 20.0983 159.695 23.5956 161.674 27.095C162.268 28.1396 162.91 29.4614 164.054 30.0038C164.131 30.0359 164.208 30.064 164.287 30.0902C164.8 30.283 165.361 30.3192 165.894 30.1966L165.989 30.1765C166.483 30.0419 166.929 29.7748 167.279 29.4072C167.344 29.3469 167.401 29.2866 167.459 29.2203ZM166.513 39.9495C166.205 39.5193 165.767 39.197 165.263 39.0285C164.759 38.86 164.214 38.854 163.706 39.0113C163.586 39.0504 163.47 39.098 163.357 39.154C163.183 39.242 163.017 39.3448 162.861 39.4613C162.415 39.8098 162.017 40.2143 161.676 40.6646C161.589 40.7751 161.508 40.9217 161.403 41.0182L159.648 43.4087C158.656 44.7506 157.673 46.0945 156.703 47.4584C156.067 48.3403 155.52 49.0856 155.084 49.7425C155.003 49.867 154.918 50.0036 154.841 50.1161C154.321 50.9116 154.027 51.4942 153.875 52.0124C153.762 52.3568 153.726 52.7216 153.77 53.0811C153.818 53.4548 153.946 53.8144 154.142 54.1378C154.248 54.2985 154.361 54.4552 154.483 54.6058C154.745 54.9055 155.041 55.175 155.364 55.4094C156.575 56.245 157.9 56.8457 159.294 57.3097C160.455 57.6914 161.66 57.9204 162.879 57.9887C163.088 57.9987 163.297 57.9947 163.503 57.9766C163.695 57.9589 163.885 57.9321 164.074 57.8963C164.264 57.8526 164.45 57.799 164.634 57.7356C164.99 57.6031 165.314 57.3978 165.586 57.1329C165.843 56.8778 166.041 56.5705 166.165 56.231C166.368 55.7288 166.501 55.094 166.59 54.1498C166.597 54.0152 166.617 53.8545 166.631 53.7079C166.7 52.9245 166.732 52.0004 166.781 50.9196C166.868 49.2543 166.935 47.5971 166.987 45.9358L167.101 42.9788C167.127 42.2998 167.105 41.5445 166.915 40.8675C166.831 40.5423 166.695 40.2324 166.513 39.9495ZM186.311 44.5758C185.946 44.176 185.428 43.7803 184.609 43.2901C184.492 43.2238 184.352 43.1375 184.224 43.0611C183.544 42.6533 182.723 42.2275 181.765 41.7112C180.292 40.9077 178.82 40.1283 177.331 39.3528L174.703 37.9708C174.568 37.9306 174.43 37.8342 174.3 37.7719C173.795 37.516 173.259 37.3262 172.704 37.2074C172.513 37.1709 172.319 37.1507 172.125 37.1472C171.999 37.1465 171.873 37.1539 171.748 37.1693C171.222 37.2498 170.735 37.493 170.357 37.8642C169.978 38.2354 169.728 38.7156 169.641 39.2363C169.603 39.5678 169.615 39.9033 169.68 40.2287C169.807 40.9237 170.119 41.6088 170.443 42.2094L171.845 44.8189C172.627 46.2893 173.417 47.7517 174.227 49.2101C174.75 50.1603 175.186 50.9739 175.593 51.6489C175.67 51.7754 175.757 51.912 175.824 52.0305C176.32 52.8401 176.717 53.3503 177.12 53.7179C177.389 53.9741 177.711 54.1681 178.064 54.2862C178.417 54.4043 178.792 54.4435 179.162 54.4009C179.355 54.3776 179.546 54.3441 179.735 54.3005C180.123 54.1976 180.497 54.0514 180.851 53.8646C181.918 53.2719 182.901 52.5424 183.775 51.6951C184.824 50.6706 185.752 49.5536 186.473 48.276C186.574 48.0952 186.659 47.9084 186.732 47.7136C186.8 47.5351 186.859 47.3534 186.908 47.1692C186.951 46.9803 186.983 46.7915 187.006 46.6007C187.042 46.2256 186.998 45.8472 186.878 45.4898C186.759 45.1469 186.565 44.8341 186.311 44.5738V44.5758Z" fill="#FF1A1A"/>
<path fill-rule="evenodd" clip-rule="evenodd" d="M95.832 19.202C95.832 17.0526 97.5964 15.2969 99.7275 15.2969C101.828 15.2969 103.534 17.0526 103.625 19.2342V49.7161C103.625 51.8655 101.859 53.6212 99.7275 53.6212C99.2124 53.621 98.7025 53.5195 98.2272 53.3226C97.7519 53.1258 97.3207 52.8374 96.9584 52.4743C96.5962 52.1112 96.3102 51.6804 96.1168 51.207C95.9235 50.7336 95.8267 50.2268 95.832 49.7161V19.202ZM92.208 38.0307C92.1777 38.6354 92.0257 39.7563 91.2357 40.5739C90.3829 41.4518 89.2262 41.6627 88.5557 41.6627C85.7703 41.6787 82.985 41.6868 80.1996 41.6928C77.4143 41.7008 74.6289 41.7089 71.8435 41.7229C72.0866 42.4803 72.5728 43.6313 73.6687 44.69C74.3372 45.3268 74.9773 45.6884 75.2528 45.841C75.5871 46.052 76.7437 46.6586 78.1739 46.6586C79.6972 46.6586 81.0362 46.1725 82.3469 45.5076L82.4542 45.4513C83.3658 44.9833 84.3037 44.5011 85.2983 44.3264C86.2707 44.1757 87.3078 44.3565 88.0675 45.0234C88.9811 45.8109 89.3477 46.9599 89.0115 48.1411C88.6164 49.473 87.4902 50.624 86.3031 51.3191C85.6237 51.7134 84.9106 52.0474 84.172 52.3175C82.2879 52.9804 80.2957 53.2891 78.2975 53.2275C77.8113 53.2275 77.2927 53.2275 76.7741 53.1672C76.2272 53.1069 75.6802 52.9844 75.1617 52.8639C74.3209 52.6831 73.5035 52.4088 72.7247 52.0463C71.9457 51.7038 71.2016 51.2881 70.5025 50.8048C69.8053 50.3079 69.1538 49.7506 68.5558 49.1395C67.9611 48.5209 67.421 47.8528 66.9413 47.1427C65.2985 44.6598 64.5368 41.6024 64.6887 38.6354C64.8103 35.7306 65.7846 32.8239 67.5511 30.4635C67.7415 30.1662 67.9623 29.9151 68.1709 29.678C68.2621 29.5736 68.3512 29.4731 68.4343 29.3727C70.6139 26.7291 73.5269 25.8934 74.7282 25.5479L74.795 25.5278C77.233 24.8413 79.8156 24.8413 82.2537 25.5278C82.833 25.6805 86.0904 26.6789 88.6164 29.3727C88.738 29.4932 89.0743 29.887 89.4997 30.4635C90.5802 31.9226 91.3739 33.5704 91.8394 35.3208L91.8434 35.3369C92.0257 36.0018 92.208 36.9118 92.208 38.0307ZM74.3392 33.0368C73.1373 34.0061 72.3007 35.3497 71.9651 36.8495H85.2376C84.8794 35.351 84.0346 34.0106 82.833 33.0348C81.6228 32.0723 80.1222 31.5398 78.5709 31.5221C77.0278 31.5373 75.5355 32.0705 74.3372 33.0348L74.3392 33.0368ZM124.812 25.0136C121.342 25.0136 118.176 26.5583 115.923 29.0714V28.979C115.878 27.9698 115.435 27.0186 114.689 26.3304C113.943 25.6423 112.955 25.2723 111.936 25.3003C110.918 25.3282 109.951 25.7518 109.245 26.4798C108.539 27.2077 108.149 28.1818 108.161 29.1919V58.2817C108.158 58.7904 108.257 59.2945 108.452 59.7651C108.647 60.2356 108.934 60.6633 109.296 61.0235C109.658 61.3837 110.089 61.6692 110.563 61.8637C111.037 62.0582 111.545 62.1578 112.058 62.1567C112.571 62.1575 113.079 62.0577 113.552 61.8631C114.026 61.6685 114.457 61.3829 114.819 61.0228C115.181 60.6626 115.467 60.235 115.662 59.7646C115.857 59.2942 115.956 58.7902 115.953 58.2817V49.1998C118.206 51.6827 121.342 53.2576 124.842 53.2576C131.815 53.2576 137.477 46.9901 137.477 39.1798C137.446 31.3715 131.784 25.0136 124.812 25.0136ZM123.108 46.9298C119.15 46.9298 115.923 43.5088 115.923 39.242C115.923 34.9432 119.12 31.5221 123.108 31.5221C127.064 31.5221 130.291 34.9432 130.291 39.242C130.261 43.5088 127.064 46.9298 123.108 46.9298ZM58.8445 41.2087L57.5663 43.9949C56.987 45.2042 56.4076 46.4457 55.8607 47.6871L55.3319 48.8523C52.897 54.2198 50.0104 60.5918 43.7145 61.9438C40.6698 62.6107 36.0735 61.7027 34.3678 58.8562C32.6642 55.9816 35.1903 52.6811 38.4476 53.4384C38.9622 53.5509 39.4666 53.8 39.977 54.0531C40.8258 54.475 41.6867 54.8988 42.6186 54.71C43.5018 54.5593 44.0487 53.9225 44.7496 53.1049C45.722 51.986 46.1494 50.8048 46.3317 50.1078L46.2871 50.0033C46.273 49.9672 46.2575 49.9317 46.2405 49.8968C45.4485 48.4304 44.7557 47.1207 44.1784 46.0258C43.8538 45.4076 43.5263 44.7909 43.1959 44.1757L41.8691 41.6767C40.8967 39.8487 40.7347 39.5474 40.3052 38.7579C39.3584 36.9859 38.3635 35.2395 37.3213 33.5209C36.195 31.6427 35.0383 29.5555 35.9823 27.3438C36.3371 26.4875 37.0034 25.7946 37.8491 25.4024C38.6947 25.0103 39.6581 24.9475 40.5483 25.2265C42.5072 25.8151 43.3762 27.6652 44.1865 29.3928C44.3343 29.7062 44.4782 30.0155 44.6281 30.3108C45.9367 32.8841 47.2149 35.4574 48.4931 38.0307C48.6066 38.2858 48.7767 38.6334 48.9874 39.0592C49.1738 39.4369 49.3905 39.8768 49.6194 40.361L49.9577 41.06C50.0894 41.3332 50.2049 41.5663 50.2899 41.7531C50.8835 40.2866 51.4851 38.8262 52.0847 37.3638C52.6864 35.9034 53.288 34.443 53.8815 32.9745C53.8977 32.8942 54.0395 32.5808 54.2543 32.1087C54.4346 31.709 54.6655 31.1967 54.9167 30.6142L55.1739 29.9974C55.964 28.0891 56.9161 25.793 59.0268 25.1662C59.7761 24.9506 60.5744 24.9717 61.3109 25.2266C62.0475 25.4815 62.6857 25.9575 63.137 26.5885C63.5928 27.2233 63.7751 27.9505 63.8055 28.6776C63.8298 30.2847 63.0479 32.0083 62.3754 33.4868C62.2133 33.8484 62.0553 34.1939 61.9196 34.5193L61.8385 34.6961C61.6522 35.1119 61.1457 36.2368 60.2747 38.091C59.9607 38.7539 59.6589 39.4208 59.353 40.0938L58.8445 41.2087Z" fill="white"/>
</g>
<defs>
<clipPath id="clip0_392_78">
<rect width="162" height="66" fill="white" transform="translate(30)"/>
</clipPath>
</defs>
</svg>
