<svg width="579" height="253" viewBox="0 0 579 253" fill="none" xmlns="http://www.w3.org/2000/svg">
<path d="M189.151 21.24C183.727 21.24 180.679 17.664 180.679 12.456C180.679 7.248 183.727 3.672 189.151 3.672C193.855 3.672 197.047 6.456 197.047 10.152H193.951C193.663 7.968 192.127 6.336 189.151 6.336C185.719 6.336 183.943 8.52 183.943 12.456C183.943 16.392 185.719 18.576 189.151 18.576C192.079 18.576 193.663 17.04 193.951 14.616H197.047C197.047 18.384 193.951 21.24 189.151 21.24ZM204.639 21.24C200.607 21.24 198.351 18.72 198.351 14.808C198.351 10.92 200.607 8.376 204.639 8.376C208.695 8.376 210.951 10.92 210.951 14.808C210.951 18.72 208.695 21.24 204.639 21.24ZM204.639 18.888C206.703 18.888 207.855 17.544 207.855 14.808C207.855 12.072 206.703 10.728 204.639 10.728C202.599 10.728 201.447 12.072 201.447 14.808C201.447 17.544 202.599 18.888 204.639 18.888ZM229.818 21H226.842V13.32C226.842 11.664 226.29 10.896 225.09 10.896C223.794 10.896 222.762 11.976 222.762 13.992V21H219.762V13.32C219.762 11.664 219.21 10.896 218.034 10.896C216.738 10.896 215.706 11.976 215.706 13.992V21H212.73V8.616H215.682V10.632C216.282 9.312 217.338 8.376 219.042 8.376C220.842 8.376 221.97 9.144 222.474 10.704C223.098 9.264 224.322 8.376 226.026 8.376C228.57 8.376 229.818 9.816 229.818 12.816V21ZM238.978 21.24C237.105 21.24 235.858 20.472 235.162 19.128V25.704H232.066V8.616H235.018V10.728C235.69 9.288 236.89 8.376 238.978 8.376C242.314 8.376 244.426 10.752 244.426 14.808C244.426 18.864 242.314 21.24 238.978 21.24ZM238.234 18.888C240.082 18.888 241.33 17.64 241.33 14.808C241.33 11.976 240.082 10.728 238.234 10.728C236.41 10.728 235.162 11.976 235.162 14.808C235.162 17.64 236.41 18.888 238.234 18.888ZM250.182 21.24C247.278 21.24 245.718 19.776 245.718 17.496C245.718 15.6 246.846 14.088 249.966 13.848L252.486 13.632C253.734 13.512 254.094 13.176 254.094 12.528C254.094 11.304 253.35 10.584 251.814 10.584C250.374 10.584 249.582 11.208 249.462 12.528H246.39C246.39 10.008 247.974 8.376 251.79 8.376C255.606 8.376 257.19 10.008 257.19 12.528V17.832C257.19 19.512 257.334 20.592 257.574 21H254.766C254.406 20.544 254.238 20.04 254.238 19.08C253.542 20.496 252.294 21.24 250.182 21.24ZM251.094 19.128C253.014 19.128 254.094 17.664 254.094 15.864V15C253.878 15.264 253.302 15.408 252.462 15.48L250.998 15.6C249.438 15.744 248.814 16.392 248.814 17.28C248.814 18.384 249.51 19.128 251.094 19.128ZM262.537 21H259.441V8.616H262.393V11.376C263.041 9.192 264.121 8.448 265.849 8.448C266.185 8.448 266.689 8.544 266.977 8.616V11.328L265.705 11.304C263.809 11.304 262.537 12.72 262.537 15.24V21ZM273.967 21.24C269.935 21.24 267.679 18.72 267.679 14.808C267.679 10.992 269.839 8.376 273.823 8.376C277.831 8.376 279.991 11.016 279.991 14.664C279.991 14.928 279.967 15.168 279.943 15.456H270.775C270.871 17.976 272.071 19.128 273.967 19.128C275.503 19.128 276.511 18.36 276.871 17.088H279.727C279.199 19.632 277.303 21.24 273.967 21.24ZM273.823 10.488C272.119 10.488 271.039 11.472 270.775 13.44H276.895C276.631 11.472 275.527 10.488 273.823 10.488ZM293.32 21V14.088L286.816 3.912H290.584L294.952 11.04L299.32 3.912H303.088L296.584 14.088V21H293.32ZM306.92 21.24C302.888 21.24 300.632 18.72 300.632 14.808C300.632 10.92 302.888 8.376 306.92 8.376C310.976 8.376 313.232 10.92 313.232 14.808C313.232 18.72 310.976 21.24 306.92 21.24ZM306.92 18.888C308.984 18.888 310.136 17.544 310.136 14.808C310.136 12.072 308.984 10.728 306.92 10.728C304.88 10.728 303.728 12.072 303.728 14.808C303.728 17.544 304.88 18.888 306.92 18.888ZM319.235 21.24C316.403 21.24 315.011 19.8 315.011 16.8V8.616H318.107V16.2C318.107 17.88 318.707 18.72 320.219 18.72C321.851 18.72 322.907 17.544 322.907 15.528V8.616H326.003V21H323.051V18.984C322.379 20.304 321.275 21.24 319.235 21.24ZM331.349 21H328.253V8.616H331.205V11.376C331.853 9.192 332.933 8.448 334.661 8.448C334.997 8.448 335.501 8.544 335.789 8.616V11.328L334.517 11.304C332.621 11.304 331.349 12.72 331.349 15.24V21ZM351.386 21.24C345.962 21.24 342.914 17.664 342.914 12.456C342.914 7.248 345.962 3.672 351.386 3.672C356.834 3.672 359.882 7.248 359.882 12.456C359.882 17.664 356.834 21.24 351.386 21.24ZM351.386 18.576C354.842 18.576 356.618 16.392 356.618 12.456C356.618 8.52 354.842 6.336 351.386 6.336C347.954 6.336 346.178 8.52 346.178 12.456C346.178 16.392 347.954 18.576 351.386 18.576ZM365.803 21H362.707V10.824H360.763V8.616H362.707V7.536C362.707 4.944 363.787 3.792 366.451 3.792C367.003 3.792 367.987 3.864 368.491 3.912V6L367.195 5.976C366.211 5.976 365.803 6.456 365.803 7.416V8.616H368.491V10.824H365.803V21ZM374.241 21H371.145V10.824H369.201V8.616H371.145V7.536C371.145 4.944 372.225 3.792 374.889 3.792C375.441 3.792 376.425 3.864 376.929 3.912V6L375.633 5.976C374.649 5.976 374.241 6.456 374.241 7.416V8.616H376.929V10.824H374.241V21ZM383.678 21.24C379.646 21.24 377.39 18.72 377.39 14.808C377.39 10.992 379.55 8.376 383.534 8.376C387.542 8.376 389.702 11.016 389.702 14.664C389.702 14.928 389.678 15.168 389.654 15.456H380.486C380.582 17.976 381.782 19.128 383.678 19.128C385.214 19.128 386.222 18.36 386.582 17.088H389.438C388.91 19.632 387.014 21.24 383.678 21.24ZM383.534 10.488C381.83 10.488 380.75 11.472 380.486 13.44H386.606C386.342 11.472 385.238 10.488 383.534 10.488ZM394.583 21H391.487V8.616H394.439V11.376C395.087 9.192 396.167 8.448 397.895 8.448C398.231 8.448 398.735 8.544 399.023 8.616V11.328L397.751 11.304C395.855 11.304 394.583 12.72 394.583 15.24V21Z" fill="#242424"/>
<path d="M1 180.999H25.9065V173.397C25.9065 172.664 25.6149 171.961 25.0959 171.442C24.5769 170.924 23.873 170.632 23.1391 170.632H3.76739C3.03343 170.632 2.32953 170.924 1.81055 171.442C1.29156 171.961 1 172.664 1 173.397V180.999Z" fill="url(#paint0_linear_1_15219)"/>
<path d="M30.0576 180.999H54.964V169.595C54.964 168.862 54.6725 168.159 54.1535 167.641C53.6345 167.122 52.9306 166.831 52.1966 166.831H32.8249C32.091 166.831 31.3871 167.122 30.8681 167.641C30.3491 168.159 30.0576 168.862 30.0576 169.595V180.999Z" fill="url(#paint1_linear_1_15219)"/>
<path d="M59.1151 180.999H84.0216V161.992C84.0216 161.259 83.73 160.556 83.211 160.038C82.692 159.519 81.9881 159.228 81.2542 159.228H61.8825C61.1485 159.228 60.4446 159.519 59.9257 160.038C59.4067 160.556 59.1151 161.259 59.1151 161.992V180.999Z" fill="url(#paint2_linear_1_15219)"/>
<path d="M88.1727 180.998H113.079V150.588C113.079 149.855 112.788 149.152 112.269 148.633C111.75 148.115 111.046 147.824 110.312 147.824H90.94C90.2061 147.824 89.5022 148.115 88.9832 148.633C88.4642 149.152 88.1727 149.855 88.1727 150.588V180.998Z" fill="url(#paint3_linear_1_15219)"/>
<path d="M117.23 181H142.137V142.985C142.137 142.252 141.845 141.549 141.326 141.03C140.807 140.512 140.103 140.221 139.369 140.221H119.998C119.264 140.221 118.56 140.512 118.041 141.03C117.522 141.549 117.23 142.252 117.23 142.985V181Z" fill="url(#paint4_linear_1_15219)"/>
<path d="M146.288 181H171.194V131.581C171.194 130.848 170.903 130.144 170.384 129.626C169.865 129.107 169.161 128.816 168.427 128.816H149.055C148.321 128.816 147.617 129.107 147.098 129.626C146.579 130.144 146.288 130.848 146.288 131.581V181Z" fill="url(#paint5_linear_1_15219)"/>
<path d="M175.345 181H200.252V120.176C200.252 119.443 199.96 118.74 199.441 118.222C198.922 117.703 198.218 117.412 197.484 117.412H178.113C177.379 117.412 176.675 117.703 176.156 118.222C175.637 118.74 175.345 119.443 175.345 120.176V181Z" fill="url(#paint6_linear_1_15219)"/>
<path d="M204.403 181H229.309C229.309 152.793 229.309 136.979 229.309 108.772C229.309 108.039 229.018 107.336 228.499 106.817C227.98 106.299 227.276 106.007 226.542 106.007H207.17C206.436 106.007 205.732 106.299 205.213 106.817C204.694 107.336 204.403 108.039 204.403 108.772V181Z" fill="url(#paint7_linear_1_15219)"/>
<path d="M233.46 181H258.367V97.3672C258.367 96.634 258.075 95.9307 257.556 95.4123C257.037 94.8938 256.333 94.6025 255.6 94.6025H236.228C235.494 94.6025 234.79 94.8938 234.271 95.4123C233.752 95.9307 233.46 96.634 233.46 97.3672V181Z" fill="url(#paint8_linear_1_15219)"/>
<path d="M262.518 181H287.424V89.7647C287.424 89.0315 287.133 88.3282 286.614 87.8098C286.095 87.2913 285.391 87 284.657 87H265.285C264.551 87 263.848 87.2913 263.329 87.8098C262.81 88.3282 262.518 89.0315 262.518 89.7647V181Z" fill="url(#paint9_linear_1_15219)"/>
<path d="M291.576 181H316.482V89.7647C316.482 89.0315 316.19 88.3282 315.671 87.8098C315.152 87.2913 314.449 87 313.715 87H294.343C293.609 87 292.905 87.2913 292.386 87.8098C291.867 88.3282 291.576 89.0315 291.576 89.7647V181Z" fill="url(#paint10_linear_1_15219)"/>
<path d="M320.633 181H345.54V97.3672C345.54 96.634 345.248 95.9307 344.729 95.4123C344.21 94.8938 343.506 94.6025 342.772 94.6025H323.4C322.667 94.6025 321.963 94.8938 321.444 95.4123C320.925 95.9307 320.633 96.634 320.633 97.3672V181Z" fill="url(#paint11_linear_1_15219)"/>
<path d="M349.691 181H374.597V108.772C374.597 108.039 374.306 107.336 373.787 106.817C373.268 106.299 372.564 106.007 371.83 106.007H352.458C351.724 106.007 351.02 106.299 350.501 106.817C349.982 107.336 349.691 108.039 349.691 108.772V181Z" fill="url(#paint12_linear_1_15219)"/>
<path d="M378.748 181H403.655V120.176C403.655 119.443 403.363 118.74 402.844 118.222C402.325 117.703 401.621 117.412 400.887 117.412H381.516C380.782 117.412 380.078 117.703 379.559 118.222C379.04 118.74 378.748 119.443 378.748 120.176V181Z" fill="url(#paint13_linear_1_15219)"/>
<path d="M407.806 181H432.712V131.581C432.712 130.848 432.421 130.144 431.902 129.626C431.383 129.107 430.679 128.816 429.945 128.816H410.573C409.839 128.816 409.135 129.107 408.616 129.626C408.097 130.144 407.806 130.848 407.806 131.581V181Z" fill="url(#paint14_linear_1_15219)"/>
<path d="M436.863 181H461.77V142.985C461.77 142.252 461.478 141.549 460.959 141.03C460.44 140.512 459.736 140.221 459.002 140.221H439.631C438.897 140.221 438.193 140.512 437.674 141.03C437.155 141.549 436.863 142.252 436.863 142.985V181Z" fill="url(#paint15_linear_1_15219)"/>
<path d="M465.921 180.998H490.827V150.588C490.827 149.855 490.536 149.152 490.017 148.633C489.498 148.115 488.794 147.824 488.06 147.824H468.688C467.954 147.824 467.25 148.115 466.731 148.633C466.212 149.152 465.921 149.855 465.921 150.588V180.998Z" fill="url(#paint16_linear_1_15219)"/>
<path d="M494.978 180.999H519.885V161.992C519.885 161.259 519.593 160.556 519.074 160.038C518.555 159.519 517.851 159.228 517.117 159.228H497.746C497.012 159.228 496.308 159.519 495.789 160.038C495.27 160.556 494.978 161.259 494.978 161.992V180.999Z" fill="url(#paint17_linear_1_15219)"/>
<path d="M524.036 180.999H548.942V169.595C548.942 168.862 548.651 168.159 548.132 167.641C547.613 167.122 546.909 166.831 546.175 166.831H526.803C526.069 166.831 525.365 167.122 524.846 167.641C524.328 168.159 524.036 168.862 524.036 169.595V180.999Z" fill="url(#paint18_linear_1_15219)"/>
<path d="M553.094 180.999H578V173.397C578 172.664 577.708 171.961 577.189 171.442C576.67 170.924 575.967 170.632 575.233 170.632H555.861C555.127 170.632 554.423 170.924 553.904 171.442C553.385 171.961 553.094 172.664 553.094 173.397V180.999Z" fill="url(#paint19_linear_1_15219)"/>
<path d="M1 180.999H25.9065V173.397C25.9065 172.664 25.6149 171.961 25.0959 171.442C24.5769 170.924 23.873 170.632 23.1391 170.632H3.76739C3.03343 170.632 2.32953 170.924 1.81055 171.442C1.29156 171.961 1 172.664 1 173.397V180.999Z" stroke="#242424" stroke-width="0.680118"/>
<path d="M30.0576 180.999H54.964V169.595C54.964 168.862 54.6725 168.159 54.1535 167.641C53.6345 167.122 52.9306 166.831 52.1966 166.831H32.8249C32.091 166.831 31.3871 167.122 30.8681 167.641C30.3491 168.159 30.0576 168.862 30.0576 169.595V180.999Z" stroke="#242424" stroke-width="0.680118"/>
<path d="M59.1151 180.999H84.0216V161.992C84.0216 161.259 83.73 160.556 83.211 160.038C82.692 159.519 81.9881 159.228 81.2542 159.228H61.8825C61.1485 159.228 60.4446 159.519 59.9257 160.038C59.4067 160.556 59.1151 161.259 59.1151 161.992V180.999Z" stroke="#242424" stroke-width="0.680118"/>
<path d="M88.1727 180.998H113.079V150.588C113.079 149.855 112.788 149.152 112.269 148.633C111.75 148.115 111.046 147.824 110.312 147.824H90.94C90.2061 147.824 89.5022 148.115 88.9832 148.633C88.4642 149.152 88.1727 149.855 88.1727 150.588V180.998Z" stroke="#242424" stroke-width="0.680118"/>
<path d="M117.23 181H142.137V142.985C142.137 142.252 141.845 141.549 141.326 141.03C140.807 140.512 140.103 140.221 139.369 140.221H119.998C119.264 140.221 118.56 140.512 118.041 141.03C117.522 141.549 117.23 142.252 117.23 142.985V181Z" stroke="#242424" stroke-width="0.680118"/>
<path d="M146.288 181H171.194V131.581C171.194 130.848 170.903 130.144 170.384 129.626C169.865 129.107 169.161 128.816 168.427 128.816H149.055C148.321 128.816 147.617 129.107 147.098 129.626C146.579 130.144 146.288 130.848 146.288 131.581V181Z" stroke="#242424" stroke-width="0.680118"/>
<path d="M175.345 181H200.252V120.176C200.252 119.443 199.96 118.74 199.441 118.222C198.922 117.703 198.218 117.412 197.484 117.412H178.113C177.379 117.412 176.675 117.703 176.156 118.222C175.637 118.74 175.345 119.443 175.345 120.176V181Z" stroke="#242424" stroke-width="0.680118"/>
<path d="M204.403 181H229.309C229.309 152.793 229.309 136.979 229.309 108.772C229.309 108.039 229.018 107.336 228.499 106.817C227.98 106.299 227.276 106.007 226.542 106.007H207.17C206.436 106.007 205.732 106.299 205.213 106.817C204.694 107.336 204.403 108.039 204.403 108.772V181Z" stroke="#242424" stroke-width="0.680118"/>
<path d="M233.46 181H258.367V97.3672C258.367 96.634 258.075 95.9307 257.556 95.4123C257.037 94.8938 256.333 94.6025 255.6 94.6025H236.228C235.494 94.6025 234.79 94.8938 234.271 95.4123C233.752 95.9307 233.46 96.634 233.46 97.3672V181Z" stroke="#242424" stroke-width="0.680118"/>
<path d="M262.518 181H287.424V89.7647C287.424 89.0315 287.133 88.3282 286.614 87.8098C286.095 87.2913 285.391 87 284.657 87H265.285C264.551 87 263.848 87.2913 263.329 87.8098C262.81 88.3282 262.518 89.0315 262.518 89.7647V181Z" stroke="#242424" stroke-width="0.680118"/>
<path d="M291.576 181H316.482V89.7647C316.482 89.0315 316.19 88.3282 315.671 87.8098C315.152 87.2913 314.449 87 313.715 87H294.343C293.609 87 292.905 87.2913 292.386 87.8098C291.867 88.3282 291.576 89.0315 291.576 89.7647V181Z" stroke="#242424" stroke-width="0.680118"/>
<path d="M320.633 181H345.54V97.3672C345.54 96.634 345.248 95.9307 344.729 95.4123C344.21 94.8938 343.506 94.6025 342.772 94.6025H323.4C322.667 94.6025 321.963 94.8938 321.444 95.4123C320.925 95.9307 320.633 96.634 320.633 97.3672V181Z" stroke="#242424" stroke-width="0.680118"/>
<path d="M349.691 181H374.597V108.772C374.597 108.039 374.306 107.336 373.787 106.817C373.268 106.299 372.564 106.007 371.83 106.007H352.458C351.724 106.007 351.02 106.299 350.501 106.817C349.982 107.336 349.691 108.039 349.691 108.772V181Z" stroke="#242424" stroke-width="0.680118"/>
<path d="M378.748 181H403.655V120.176C403.655 119.443 403.363 118.74 402.844 118.222C402.325 117.703 401.621 117.412 400.887 117.412H381.516C380.782 117.412 380.078 117.703 379.559 118.222C379.04 118.74 378.748 119.443 378.748 120.176V181Z" stroke="#242424" stroke-width="0.680118"/>
<path d="M407.806 181H432.712V131.581C432.712 130.848 432.421 130.144 431.902 129.626C431.383 129.107 430.679 128.816 429.945 128.816H410.573C409.839 128.816 409.135 129.107 408.616 129.626C408.097 130.144 407.806 130.848 407.806 131.581V181Z" stroke="#242424" stroke-width="0.680118"/>
<path d="M436.863 181H461.77V142.985C461.77 142.252 461.478 141.549 460.959 141.03C460.44 140.512 459.736 140.221 459.002 140.221H439.631C438.897 140.221 438.193 140.512 437.674 141.03C437.155 141.549 436.863 142.252 436.863 142.985V181Z" stroke="#242424" stroke-width="0.680118"/>
<path d="M465.921 180.998H490.827V150.588C490.827 149.855 490.536 149.152 490.017 148.633C489.498 148.115 488.794 147.824 488.06 147.824H468.688C467.954 147.824 467.25 148.115 466.731 148.633C466.212 149.152 465.921 149.855 465.921 150.588V180.998Z" stroke="#242424" stroke-width="0.680118"/>
<path d="M494.978 180.999H519.885V161.992C519.885 161.259 519.593 160.556 519.074 160.038C518.555 159.519 517.851 159.228 517.117 159.228H497.746C497.012 159.228 496.308 159.519 495.789 160.038C495.27 160.556 494.978 161.259 494.978 161.992V180.999Z" stroke="#242424" stroke-width="0.680118"/>
<path d="M524.036 180.999H548.942V169.595C548.942 168.862 548.651 168.159 548.132 167.641C547.613 167.122 546.909 166.831 546.175 166.831H526.803C526.069 166.831 525.365 167.122 524.846 167.641C524.328 168.159 524.036 168.862 524.036 169.595V180.999Z" stroke="#242424" stroke-width="0.680118"/>
<path d="M553.094 180.999H578V173.397C578 172.664 577.708 171.961 577.189 171.442C576.67 170.924 575.967 170.632 575.233 170.632H555.861C555.127 170.632 554.423 170.924 553.904 171.442C553.385 171.961 553.094 172.664 553.094 173.397V180.999Z" stroke="#242424" stroke-width="0.680118"/>
<path d="M5.63167 194.12C2.99167 194.12 1.65967 192.332 1.65967 189.728C1.65967 187.124 3.03967 185.336 5.71567 185.336C8.11567 185.336 9.41167 186.764 9.41167 188.3H8.49967C8.30767 187.1 7.37167 186.188 5.71567 186.188C3.72367 186.188 2.69167 187.472 2.69167 189.728C2.69167 191.984 3.72367 193.268 5.71567 193.268C7.67167 193.268 8.42767 192.104 8.47567 190.28H5.94367V189.548H9.47167V194H8.67967L8.60767 192.236C8.25967 193.376 7.34767 194.12 5.63167 194.12ZM11.6965 194H10.7005V187.808H11.6485V189.272C11.9845 188.192 12.5485 187.748 13.4725 187.748C13.6405 187.748 13.8565 187.772 14.0365 187.808V188.672L13.4365 188.648C12.3805 188.648 11.6965 189.488 11.6965 191.012V194ZM17.3151 194.12C15.4071 194.12 14.3511 192.896 14.3511 190.904C14.3511 188.996 15.3351 187.688 17.2431 187.688C19.1631 187.688 20.1471 189.032 20.1471 190.76C20.1471 190.856 20.1471 190.964 20.1231 191.06H15.3471C15.3711 192.74 16.1631 193.424 17.3151 193.424C18.3111 193.424 18.9111 192.896 19.1271 192.116H20.0151C19.7271 193.352 18.8751 194.12 17.3151 194.12ZM17.2431 188.384C16.1751 188.384 15.4791 189.044 15.3471 190.388H19.1511C19.0191 189.044 18.3111 188.384 17.2431 188.384ZM23.133 194.12C21.729 194.12 20.937 193.4 20.937 192.248C20.937 191.336 21.513 190.628 23.025 190.496L24.165 190.4C25.005 190.328 25.245 190.148 25.245 189.692C25.245 188.9 24.801 188.408 23.769 188.408C22.809 188.408 22.305 188.816 22.233 189.692H21.273C21.273 188.468 22.029 187.688 23.757 187.688C25.485 187.688 26.241 188.468 26.241 189.692V192.416C26.241 193.256 26.313 193.796 26.433 194H25.557C25.365 193.736 25.293 193.484 25.293 192.824C24.957 193.688 24.225 194.12 23.133 194.12ZM23.397 193.424C24.621 193.424 25.245 192.452 25.245 191.3V190.688C25.101 190.88 24.717 191 24.165 191.048L23.313 191.12C22.329 191.192 21.933 191.612 21.933 192.188C21.933 192.896 22.365 193.424 23.397 193.424ZM29.5717 194.06C28.3837 194.06 27.9397 193.712 27.9397 192.56V188.528H26.8837V187.808H27.9397V185.936H28.9357V187.808H30.4237V188.528H28.9357V192.584C28.9357 193.184 29.1397 193.328 29.7757 193.328L30.4237 193.304V194C30.1837 194.024 29.7877 194.06 29.5717 194.06Z" fill="#242424"/>
<path d="M193.479 194.12C190.839 194.12 189.507 192.332 189.507 189.728C189.507 187.124 190.887 185.336 193.563 185.336C195.963 185.336 197.259 186.764 197.259 188.3H196.347C196.155 187.1 195.219 186.188 193.563 186.188C191.571 186.188 190.539 187.472 190.539 189.728C190.539 191.984 191.571 193.268 193.563 193.268C195.519 193.268 196.275 192.104 196.323 190.28H193.791V189.548H197.319V194H196.527L196.455 192.236C196.107 193.376 195.195 194.12 193.479 194.12ZM201.272 194.12C199.364 194.12 198.308 192.896 198.308 190.904C198.308 188.924 199.364 187.688 201.272 187.688C203.192 187.688 204.248 188.924 204.248 190.904C204.248 192.896 203.192 194.12 201.272 194.12ZM201.272 193.352C202.532 193.352 203.252 192.524 203.252 190.904C203.252 189.284 202.532 188.456 201.272 188.456C200.024 188.456 199.304 189.284 199.304 190.904C199.304 192.524 200.024 193.352 201.272 193.352ZM207.999 194.12C206.091 194.12 205.035 192.896 205.035 190.904C205.035 188.924 206.091 187.688 207.999 187.688C209.919 187.688 210.975 188.924 210.975 190.904C210.975 192.896 209.919 194.12 207.999 194.12ZM207.999 193.352C209.259 193.352 209.979 192.524 209.979 190.904C209.979 189.284 209.259 188.456 207.999 188.456C206.751 188.456 206.031 189.284 206.031 190.904C206.031 192.524 206.751 193.352 207.999 193.352ZM214.449 194.12C212.781 194.12 211.761 192.932 211.761 190.904C211.761 188.876 212.781 187.688 214.449 187.688C215.505 187.688 216.237 188.12 216.585 188.984V185.456H217.581V194H216.633V192.764C216.285 193.64 215.553 194.12 214.449 194.12ZM214.665 193.352C215.805 193.352 216.585 192.596 216.585 190.904C216.585 189.212 215.805 188.456 214.665 188.456C213.537 188.456 212.757 189.212 212.757 190.904C212.757 192.596 213.537 193.352 214.665 193.352Z" fill="#242424"/>
<path d="M378.377 194H377.345V185.456H383.213V186.308H378.377V189.236H382.829V190.052H378.377V194ZM385.803 194.12C384.399 194.12 383.607 193.4 383.607 192.248C383.607 191.336 384.183 190.628 385.695 190.496L386.835 190.4C387.675 190.328 387.915 190.148 387.915 189.692C387.915 188.9 387.471 188.408 386.439 188.408C385.479 188.408 384.975 188.816 384.903 189.692H383.943C383.943 188.468 384.699 187.688 386.427 187.688C388.155 187.688 388.911 188.468 388.911 189.692V192.416C388.911 193.256 388.983 193.796 389.103 194H388.227C388.035 193.736 387.963 193.484 387.963 192.824C387.627 193.688 386.895 194.12 385.803 194.12ZM386.067 193.424C387.291 193.424 387.915 192.452 387.915 191.3V190.688C387.771 190.88 387.387 191 386.835 191.048L385.983 191.12C384.999 191.192 384.603 191.612 384.603 192.188C384.603 192.896 385.035 193.424 386.067 193.424ZM391.183 194H390.187V187.808H391.183V194ZM390.679 186.572C390.283 186.572 390.067 186.332 390.067 186.02C390.067 185.708 390.283 185.468 390.679 185.468C391.075 185.468 391.303 185.708 391.303 186.02C391.303 186.332 391.075 186.572 390.679 186.572ZM393.456 194H392.46V187.808H393.408V189.272C393.744 188.192 394.308 187.748 395.232 187.748C395.4 187.748 395.616 187.772 395.796 187.808V188.672L395.196 188.648C394.14 188.648 393.456 189.488 393.456 191.012V194Z" fill="#242424"/>
<path d="M561.738 194H560.706V190.088H555.822V194H554.79V185.456H555.822V189.2H560.706V185.456H561.738V194ZM564.081 194H563.085V187.808H564.081V194ZM563.577 186.572C563.181 186.572 562.965 186.332 562.965 186.02C562.965 185.708 563.181 185.468 563.577 185.468C563.973 185.468 564.201 185.708 564.201 186.02C564.201 186.332 563.973 186.572 563.577 186.572ZM567.807 193.76C566.139 193.76 565.119 192.524 565.119 190.724C565.119 188.924 566.139 187.688 567.807 187.688C568.911 187.688 569.643 188.168 569.991 189.044V187.808H570.939V193.592C570.939 195.5 569.919 196.472 568.083 196.472C566.343 196.472 565.455 195.596 565.455 194.324H566.367C566.451 195.272 567.087 195.788 568.131 195.788C569.271 195.788 569.943 195.176 569.943 193.808V192.464C569.595 193.328 568.863 193.76 567.807 193.76ZM568.023 193.04C569.163 193.04 569.943 192.236 569.943 190.724C569.943 189.212 569.163 188.408 568.023 188.408C566.895 188.408 566.115 189.212 566.115 190.724C566.115 192.236 566.895 193.04 568.023 193.04ZM577.278 194H576.282V190.064C576.282 189.032 575.91 188.492 574.914 188.492C573.882 188.492 573.21 189.296 573.21 190.544V194H572.214V185.456H573.21V188.888C573.546 188.144 574.182 187.688 575.19 187.688C576.606 187.688 577.278 188.408 577.278 189.908V194Z" fill="#242424"/>
<path d="M150.698 226.846C150.698 228.12 150.082 228.974 148.92 229.31C149.998 229.562 150.558 230.304 150.558 231.396V232.992C150.558 233.412 150.614 233.762 150.698 234H149.228C149.102 233.734 149.004 233.426 149.004 232.992V231.452C149.004 230.178 148.206 229.842 147.142 229.842H144.524V234H142.97V224.032H147.506C149.564 224.032 150.698 225.11 150.698 226.846ZM149.144 226.944C149.144 225.908 148.612 225.208 147.338 225.208H144.524V228.666H147.338C148.612 228.666 149.144 227.98 149.144 226.944ZM155.254 234.14C152.958 234.14 151.684 232.684 151.684 230.388C151.684 228.162 152.888 226.636 155.17 226.636C157.452 226.636 158.656 228.19 158.656 230.262C158.656 230.402 158.642 230.528 158.628 230.668H153.168C153.21 232.376 154.022 233.118 155.254 233.118C156.276 233.118 156.92 232.586 157.144 231.76H158.502C158.18 233.23 157.13 234.14 155.254 234.14ZM155.17 227.658C154.05 227.658 153.322 228.33 153.168 229.688H157.172C157.018 228.33 156.29 227.658 155.17 227.658ZM162.626 234.14C160.358 234.14 159.49 233.146 159.49 231.76H160.918C160.988 232.586 161.352 233.146 162.64 233.146C163.9 233.146 164.278 232.6 164.278 231.984C164.278 231.41 163.858 231.116 163.172 231.018L161.842 230.822C160.33 230.612 159.686 230.08 159.686 228.876C159.686 227.63 160.47 226.636 162.626 226.636C164.782 226.636 165.566 227.63 165.566 228.904H164.138C164.068 228.232 163.844 227.63 162.612 227.63C161.562 227.63 161.17 228.064 161.17 228.764C161.17 229.352 161.506 229.562 162.066 229.646L163.396 229.842C164.866 230.052 165.762 230.584 165.762 231.9C165.762 233.146 164.894 234.14 162.626 234.14ZM169.33 234.14C167.678 234.14 166.88 233.3 166.88 231.55V226.776H168.364V231.284C168.364 232.376 168.756 232.936 169.778 232.936C170.856 232.936 171.556 232.124 171.556 230.808V226.776H173.04V234H171.626V232.754C171.22 233.58 170.534 234.14 169.33 234.14ZM175.924 234H174.44V224.032H175.924V234ZM179.985 234.07C178.473 234.07 177.941 233.622 177.941 232.152V227.84H176.765V226.776H177.941V224.592H179.425V226.776H181.091V227.84H179.425V232.194C179.425 232.824 179.663 233.006 180.321 233.006L181.091 232.992V234C180.797 234.028 180.279 234.07 179.985 234.07ZM185.007 234.14C182.739 234.14 181.871 233.146 181.871 231.76H183.299C183.369 232.586 183.733 233.146 185.021 233.146C186.281 233.146 186.659 232.6 186.659 231.984C186.659 231.41 186.239 231.116 185.553 231.018L184.223 230.822C182.711 230.612 182.067 230.08 182.067 228.876C182.067 227.63 182.851 226.636 185.007 226.636C187.163 226.636 187.947 227.63 187.947 228.904H186.519C186.449 228.232 186.225 227.63 184.993 227.63C183.943 227.63 183.551 228.064 183.551 228.764C183.551 229.352 183.887 229.562 184.447 229.646L185.777 229.842C187.247 230.052 188.143 230.584 188.143 231.9C188.143 233.146 187.275 234.14 185.007 234.14ZM200.979 234H199.397L197.857 228.736L196.303 234H194.735L192.201 226.776H193.741L195.603 232.32L197.185 226.776H198.529L200.111 232.32L201.959 226.776H203.513L200.979 234ZM205.838 234H204.354V226.776H205.838V234ZM205.096 225.516C204.522 225.516 204.214 225.18 204.214 224.732C204.214 224.284 204.522 223.934 205.096 223.934C205.656 223.934 205.978 224.284 205.978 224.732C205.978 225.18 205.656 225.516 205.096 225.516ZM208.723 234H207.239V224.032H208.723V234ZM211.608 234H210.124V224.032H211.608V234ZM220.345 234.14C219.099 234.14 218.315 233.594 217.923 232.67V234H216.509V224.032H217.993V228.008C218.399 227.112 219.183 226.636 220.345 226.636C222.291 226.636 223.509 228.022 223.509 230.388C223.509 232.754 222.291 234.14 220.345 234.14ZM220.009 233.006C221.199 233.006 222.025 232.208 222.025 230.388C222.025 228.582 221.199 227.77 220.009 227.77C218.805 227.77 217.993 228.582 217.993 230.388C217.993 232.208 218.805 233.006 220.009 233.006ZM227.92 234.14C225.624 234.14 224.35 232.684 224.35 230.388C224.35 228.162 225.554 226.636 227.836 226.636C230.118 226.636 231.322 228.19 231.322 230.262C231.322 230.402 231.308 230.528 231.294 230.668H225.834C225.876 232.376 226.688 233.118 227.92 233.118C228.942 233.118 229.586 232.586 229.81 231.76H231.168C230.846 233.23 229.796 234.14 227.92 234.14ZM227.836 227.658C226.716 227.658 225.988 228.33 225.834 229.688H229.838C229.684 228.33 228.956 227.658 227.836 227.658ZM239.772 234.14C238.526 234.14 237.742 233.594 237.35 232.67V234H235.936V224.032H237.42V228.008C237.826 227.112 238.61 226.636 239.772 226.636C241.718 226.636 242.936 228.022 242.936 230.388C242.936 232.754 241.718 234.14 239.772 234.14ZM239.436 233.006C240.626 233.006 241.452 232.208 241.452 230.388C241.452 228.582 240.626 227.77 239.436 227.77C238.232 227.77 237.42 228.582 237.42 230.388C237.42 232.208 238.232 233.006 239.436 233.006ZM246.367 234.14C244.687 234.14 243.777 233.3 243.777 231.956C243.777 230.878 244.435 230.024 246.227 229.87L247.627 229.758C248.481 229.674 248.733 229.478 248.733 229.016C248.733 228.19 248.257 227.7 247.207 227.7C246.227 227.7 245.695 228.12 245.625 229.016H244.169C244.169 227.56 245.065 226.636 247.193 226.636C249.307 226.636 250.217 227.56 250.217 229.016V232.152C250.217 233.132 250.301 233.762 250.441 234H249.111C248.887 233.72 248.803 233.426 248.803 232.754C248.411 233.678 247.613 234.14 246.367 234.14ZM246.773 233.118C248.047 233.118 248.733 232.124 248.733 230.934V230.318C248.579 230.514 248.187 230.626 247.627 230.668L246.703 230.752C245.667 230.836 245.261 231.27 245.261 231.858C245.261 232.6 245.709 233.118 246.773 233.118ZM254.474 234.14C252.206 234.14 251.338 233.146 251.338 231.76H252.766C252.836 232.586 253.2 233.146 254.488 233.146C255.748 233.146 256.126 232.6 256.126 231.984C256.126 231.41 255.706 231.116 255.02 231.018L253.69 230.822C252.178 230.612 251.534 230.08 251.534 228.876C251.534 227.63 252.318 226.636 254.474 226.636C256.63 226.636 257.414 227.63 257.414 228.904H255.986C255.916 228.232 255.692 227.63 254.46 227.63C253.41 227.63 253.018 228.064 253.018 228.764C253.018 229.352 253.354 229.562 253.914 229.646L255.244 229.842C256.714 230.052 257.61 230.584 257.61 231.9C257.61 233.146 256.742 234.14 254.474 234.14ZM262.017 234.14C259.721 234.14 258.447 232.684 258.447 230.388C258.447 228.162 259.651 226.636 261.933 226.636C264.215 226.636 265.419 228.19 265.419 230.262C265.419 230.402 265.405 230.528 265.391 230.668H259.931C259.973 232.376 260.785 233.118 262.017 233.118C263.039 233.118 263.683 232.586 263.907 231.76H265.265C264.943 233.23 263.893 234.14 262.017 234.14ZM261.933 227.658C260.813 227.658 260.085 228.33 259.931 229.688H263.935C263.781 228.33 263.053 227.658 261.933 227.658ZM269.404 234.14C267.458 234.14 266.254 232.754 266.254 230.388C266.254 228.022 267.458 226.636 269.404 226.636C270.566 226.636 271.364 227.112 271.77 228.008V224.032H273.254V234H271.84V232.67C271.434 233.594 270.664 234.14 269.404 234.14ZM269.754 233.006C270.944 233.006 271.77 232.208 271.77 230.388C271.77 228.582 270.944 227.77 269.754 227.77C268.55 227.77 267.738 228.582 267.738 230.388C267.738 232.208 268.55 233.006 269.754 233.006ZM281.445 234.14C279.149 234.14 277.875 232.684 277.875 230.388C277.875 228.092 279.149 226.636 281.445 226.636C283.741 226.636 285.015 228.092 285.015 230.388C285.015 232.684 283.741 234.14 281.445 234.14ZM281.445 233.006C282.775 233.006 283.531 232.138 283.531 230.388C283.531 228.652 282.775 227.77 281.445 227.77C280.115 227.77 279.359 228.652 279.359 230.388C279.359 232.138 280.115 233.006 281.445 233.006ZM292.299 234H290.815V229.492C290.815 228.4 290.423 227.84 289.401 227.84C288.323 227.84 287.623 228.652 287.623 229.968V234H286.139V226.776H287.553V228.036C287.945 227.196 288.645 226.636 289.849 226.636C291.501 226.636 292.299 227.476 292.299 229.226V234ZM298.684 234H297.2V226.776H298.614V228.442C298.992 227.168 299.636 226.692 300.686 226.692C300.882 226.692 301.162 226.734 301.344 226.776V228.078L300.63 228.05C299.454 228.05 298.684 228.96 298.684 230.57V234ZM305.303 234.14C303.007 234.14 301.733 232.684 301.733 230.388C301.733 228.162 302.937 226.636 305.219 226.636C307.501 226.636 308.704 228.19 308.704 230.262C308.704 230.402 308.691 230.528 308.677 230.668H303.217C303.259 232.376 304.071 233.118 305.303 233.118C306.325 233.118 306.969 232.586 307.193 231.76H308.551C308.229 233.23 307.179 234.14 305.303 234.14ZM305.219 227.658C304.099 227.658 303.37 228.33 303.217 229.688H307.221C307.067 228.33 306.339 227.658 305.219 227.658ZM313.039 234.14C310.813 234.14 309.539 232.684 309.539 230.388C309.539 228.092 310.813 226.636 313.039 226.636C315.321 226.636 316.315 228.092 316.315 229.436H314.943C314.803 228.54 314.271 227.77 313.039 227.77C311.779 227.77 311.023 228.652 311.023 230.388C311.023 232.138 311.779 233.006 313.039 233.006C314.117 233.006 314.789 232.432 314.943 231.284H316.315C316.315 232.768 315.237 234.14 313.039 234.14ZM320.588 234.14C318.292 234.14 317.018 232.684 317.018 230.388C317.018 228.162 318.222 226.636 320.504 226.636C322.786 226.636 323.99 228.19 323.99 230.262C323.99 230.402 323.976 230.528 323.962 230.668H318.502C318.544 232.376 319.356 233.118 320.588 233.118C321.61 233.118 322.254 232.586 322.478 231.76H323.836C323.514 233.23 322.464 234.14 320.588 234.14ZM320.504 227.658C319.384 227.658 318.656 228.33 318.502 229.688H322.506C322.352 228.33 321.624 227.658 320.504 227.658ZM331.264 234H329.78V229.492C329.78 228.4 329.388 227.84 328.366 227.84C327.288 227.84 326.588 228.652 326.588 229.968V234H325.104V226.776H326.518V228.036C326.91 227.196 327.61 226.636 328.814 226.636C330.466 226.636 331.264 227.476 331.264 229.226V234ZM335.188 234.07C333.676 234.07 333.144 233.622 333.144 232.152V227.84H331.968V226.776H333.144V224.592H334.628V226.776H336.294V227.84H334.628V232.194C334.628 232.824 334.866 233.006 335.524 233.006L336.294 232.992V234C336 234.028 335.482 234.07 335.188 234.07ZM344.69 234.14C343.528 234.14 342.744 233.664 342.338 232.768V236.744H340.854V226.776H342.268V228.12C342.66 227.182 343.444 226.636 344.69 226.636C346.636 226.636 347.854 228.022 347.854 230.388C347.854 232.754 346.636 234.14 344.69 234.14ZM344.354 233.006C345.544 233.006 346.37 232.208 346.37 230.388C346.37 228.582 345.544 227.77 344.354 227.77C343.15 227.77 342.338 228.582 342.338 230.388C342.338 232.208 343.15 233.006 344.354 233.006ZM351.425 234.14C349.773 234.14 348.975 233.3 348.975 231.55V226.776H350.459V231.284C350.459 232.376 350.851 232.936 351.873 232.936C352.951 232.936 353.651 232.124 353.651 230.808V226.776H355.135V234H353.721V232.754C353.315 233.58 352.629 234.14 351.425 234.14ZM358.02 234H356.536V226.776H357.95V228.442C358.328 227.168 358.972 226.692 360.022 226.692C360.218 226.692 360.498 226.734 360.68 226.776V228.078L359.966 228.05C358.79 228.05 358.02 228.96 358.02 230.57V234ZM364.568 234.14C362.342 234.14 361.068 232.684 361.068 230.388C361.068 228.092 362.342 226.636 364.568 226.636C366.85 226.636 367.844 228.092 367.844 229.436H366.472C366.332 228.54 365.8 227.77 364.568 227.77C363.308 227.77 362.552 228.652 362.552 230.388C362.552 232.138 363.308 233.006 364.568 233.006C365.646 233.006 366.318 232.432 366.472 231.284H367.844C367.844 232.768 366.766 234.14 364.568 234.14ZM374.987 234H373.503V229.492C373.503 228.4 373.111 227.84 372.089 227.84C371.011 227.84 370.311 228.652 370.311 229.968V234H368.827V224.032H370.311V227.924C370.703 227.14 371.389 226.636 372.537 226.636C374.189 226.636 374.987 227.476 374.987 229.226V234ZM378.698 234.14C377.018 234.14 376.108 233.3 376.108 231.956C376.108 230.878 376.766 230.024 378.558 229.87L379.958 229.758C380.812 229.674 381.064 229.478 381.064 229.016C381.064 228.19 380.588 227.7 379.538 227.7C378.558 227.7 378.026 228.12 377.956 229.016H376.5C376.5 227.56 377.396 226.636 379.524 226.636C381.638 226.636 382.548 227.56 382.548 229.016V232.152C382.548 233.132 382.632 233.762 382.772 234H381.442C381.218 233.72 381.134 233.426 381.134 232.754C380.742 233.678 379.944 234.14 378.698 234.14ZM379.104 233.118C380.378 233.118 381.064 232.124 381.064 230.934V230.318C380.91 230.514 380.518 230.626 379.958 230.668L379.034 230.752C377.998 230.836 377.592 231.27 377.592 231.858C377.592 232.6 378.04 233.118 379.104 233.118ZM386.804 234.14C384.536 234.14 383.668 233.146 383.668 231.76H385.096C385.166 232.586 385.53 233.146 386.818 233.146C388.078 233.146 388.456 232.6 388.456 231.984C388.456 231.41 388.036 231.116 387.35 231.018L386.02 230.822C384.508 230.612 383.864 230.08 383.864 228.876C383.864 227.63 384.648 226.636 386.804 226.636C388.96 226.636 389.744 227.63 389.744 228.904H388.316C388.246 228.232 388.022 227.63 386.79 227.63C385.74 227.63 385.348 228.064 385.348 228.764C385.348 229.352 385.684 229.562 386.244 229.646L387.574 229.842C389.044 230.052 389.94 230.584 389.94 231.9C389.94 233.146 389.072 234.14 386.804 234.14ZM394.347 234.14C392.051 234.14 390.777 232.684 390.777 230.388C390.777 228.162 391.981 226.636 394.263 226.636C396.545 226.636 397.749 228.19 397.749 230.262C397.749 230.402 397.735 230.528 397.721 230.668H392.261C392.303 232.376 393.115 233.118 394.347 233.118C395.369 233.118 396.013 232.586 396.237 231.76H397.595C397.273 233.23 396.223 234.14 394.347 234.14ZM394.263 227.658C393.143 227.658 392.415 228.33 392.261 229.688H396.265C396.111 228.33 395.383 227.658 394.263 227.658ZM401.72 234.14C399.452 234.14 398.584 233.146 398.584 231.76H400.012C400.082 232.586 400.446 233.146 401.734 233.146C402.994 233.146 403.372 232.6 403.372 231.984C403.372 231.41 402.952 231.116 402.266 231.018L400.936 230.822C399.424 230.612 398.78 230.08 398.78 228.876C398.78 227.63 399.564 226.636 401.72 226.636C403.876 226.636 404.66 227.63 404.66 228.904H403.232C403.162 228.232 402.938 227.63 401.706 227.63C400.656 227.63 400.264 228.064 400.264 228.764C400.264 229.352 400.6 229.562 401.16 229.646L402.49 229.842C403.96 230.052 404.856 230.584 404.856 231.9C404.856 233.146 403.988 234.14 401.72 234.14ZM415.633 234H414.149V229.492C414.149 228.4 413.757 227.84 412.735 227.84C411.657 227.84 410.957 228.652 410.957 229.968V234H409.473V226.776H410.887V228.036C411.279 227.196 411.979 226.636 413.183 226.636C414.835 226.636 415.633 227.476 415.633 229.226V234ZM420.324 234.14C418.028 234.14 416.754 232.684 416.754 230.388C416.754 228.162 417.958 226.636 420.24 226.636C422.522 226.636 423.726 228.19 423.726 230.262C423.726 230.402 423.712 230.528 423.698 230.668H418.238C418.28 232.376 419.092 233.118 420.324 233.118C421.346 233.118 421.99 232.586 422.214 231.76H423.572C423.25 233.23 422.2 234.14 420.324 234.14ZM420.24 227.658C419.12 227.658 418.392 228.33 418.238 229.688H422.242C422.088 228.33 421.36 227.658 420.24 227.658ZM427.151 234.14C425.471 234.14 424.561 233.3 424.561 231.956C424.561 230.878 425.219 230.024 427.011 229.87L428.411 229.758C429.265 229.674 429.517 229.478 429.517 229.016C429.517 228.19 429.041 227.7 427.991 227.7C427.011 227.7 426.479 228.12 426.409 229.016H424.953C424.953 227.56 425.849 226.636 427.977 226.636C430.091 226.636 431.001 227.56 431.001 229.016V232.152C431.001 233.132 431.085 233.762 431.225 234H429.895C429.671 233.72 429.587 233.426 429.587 232.754C429.195 233.678 428.397 234.14 427.151 234.14ZM427.557 233.118C428.831 233.118 429.517 232.124 429.517 230.934V230.318C429.363 230.514 428.971 230.626 428.411 230.668L427.487 230.752C426.451 230.836 426.045 231.27 426.045 231.858C426.045 232.6 426.493 233.118 427.557 233.118ZM433.885 234H432.401V226.776H433.815V228.442C434.193 227.168 434.837 226.692 435.887 226.692C436.083 226.692 436.363 226.734 436.545 226.776V228.078L435.831 228.05C434.655 228.05 433.885 228.96 433.885 230.57V234Z" fill="#242424"/>
<path d="M221.266 250H214.798V240.032H216.352V248.726H221.266V250ZM224.598 250.14C222.918 250.14 222.008 249.3 222.008 247.956C222.008 246.878 222.666 246.024 224.458 245.87L225.858 245.758C226.712 245.674 226.964 245.478 226.964 245.016C226.964 244.19 226.488 243.7 225.438 243.7C224.458 243.7 223.926 244.12 223.856 245.016H222.4C222.4 243.56 223.296 242.636 225.424 242.636C227.538 242.636 228.448 243.56 228.448 245.016V248.152C228.448 249.132 228.532 249.762 228.672 250H227.342C227.118 249.72 227.034 249.426 227.034 248.754C226.642 249.678 225.844 250.14 224.598 250.14ZM225.004 249.118C226.278 249.118 226.964 248.124 226.964 246.934V246.318C226.81 246.514 226.418 246.626 225.858 246.668L224.934 246.752C223.898 246.836 223.492 247.27 223.492 247.858C223.492 248.6 223.94 249.118 225.004 249.118ZM232.704 250.14C230.436 250.14 229.568 249.146 229.568 247.76H230.996C231.066 248.586 231.43 249.146 232.718 249.146C233.978 249.146 234.356 248.6 234.356 247.984C234.356 247.41 233.936 247.116 233.25 247.018L231.92 246.822C230.408 246.612 229.764 246.08 229.764 244.876C229.764 243.63 230.548 242.636 232.704 242.636C234.86 242.636 235.644 243.63 235.644 244.904H234.216C234.146 244.232 233.922 243.63 232.69 243.63C231.64 243.63 231.248 244.064 231.248 244.764C231.248 245.352 231.584 245.562 232.144 245.646L233.474 245.842C234.944 246.052 235.84 246.584 235.84 247.9C235.84 249.146 234.972 250.14 232.704 250.14ZM245.61 250H243.706L239.898 240.032H241.564L244.658 248.418L247.738 240.032H249.418L245.61 250ZM252.293 250.14C249.997 250.14 248.723 248.684 248.723 246.388C248.723 244.162 249.927 242.636 252.209 242.636C254.491 242.636 255.695 244.19 255.695 246.262C255.695 246.402 255.681 246.528 255.667 246.668H250.207C250.249 248.376 251.061 249.118 252.293 249.118C253.315 249.118 253.959 248.586 254.183 247.76H255.541C255.219 249.23 254.169 250.14 252.293 250.14ZM252.209 243.658C251.089 243.658 250.361 244.33 250.207 245.688H254.211C254.057 244.33 253.329 243.658 252.209 243.658ZM259.679 249.72C257.733 249.72 256.529 248.292 256.529 246.178C256.529 244.064 257.733 242.636 259.679 242.636C260.939 242.636 261.709 243.182 262.115 244.12V242.776H263.529V249.468C263.529 251.708 262.325 252.884 260.071 252.884C257.971 252.884 256.921 251.862 256.921 250.336H258.307C258.405 251.344 259.049 251.89 260.141 251.89C261.345 251.89 262.045 251.246 262.045 249.846V248.348C261.639 249.244 260.841 249.72 259.679 249.72ZM260.029 248.656C261.219 248.656 262.045 247.816 262.045 246.178C262.045 244.554 261.219 243.7 260.029 243.7C258.825 243.7 258.013 244.554 258.013 246.178C258.013 247.816 258.825 248.656 260.029 248.656ZM267.24 250.14C265.56 250.14 264.65 249.3 264.65 247.956C264.65 246.878 265.308 246.024 267.1 245.87L268.5 245.758C269.354 245.674 269.606 245.478 269.606 245.016C269.606 244.19 269.13 243.7 268.08 243.7C267.1 243.7 266.568 244.12 266.498 245.016H265.042C265.042 243.56 265.938 242.636 268.066 242.636C270.18 242.636 271.09 243.56 271.09 245.016V248.152C271.09 249.132 271.174 249.762 271.314 250H269.984C269.76 249.72 269.676 249.426 269.676 248.754C269.284 249.678 268.486 250.14 267.24 250.14ZM267.646 249.118C268.92 249.118 269.606 248.124 269.606 246.934V246.318C269.452 246.514 269.06 246.626 268.5 246.668L267.576 246.752C266.54 246.836 266.134 247.27 266.134 247.858C266.134 248.6 266.582 249.118 267.646 249.118ZM275.347 250.14C273.079 250.14 272.211 249.146 272.211 247.76H273.639C273.709 248.586 274.073 249.146 275.361 249.146C276.621 249.146 276.999 248.6 276.999 247.984C276.999 247.41 276.579 247.116 275.893 247.018L274.563 246.822C273.051 246.612 272.407 246.08 272.407 244.876C272.407 243.63 273.191 242.636 275.347 242.636C277.503 242.636 278.287 243.63 278.287 244.904H276.859C276.789 244.232 276.565 243.63 275.333 243.63C274.283 243.63 273.891 244.064 273.891 244.764C273.891 245.352 274.227 245.562 274.787 245.646L276.117 245.842C277.587 246.052 278.483 246.584 278.483 247.9C278.483 249.146 277.615 250.14 275.347 250.14ZM280.048 252.016L279.278 251.68C279.628 251.12 279.698 250.672 279.698 249.804V248.306H280.972V249.804C280.972 250.812 280.72 251.526 280.048 252.016ZM294.399 250H292.705L287.567 242.216V250H286.083V240.032H287.777L292.915 247.816V240.032H294.399V250ZM301.049 250H299.145L295.337 240.032H297.003L300.097 248.418L303.177 240.032H304.857L301.049 250Z" fill="#242424"/>
<path d="M316.474 250.14C314.248 250.14 312.834 249.16 312.834 247.368C312.834 245.94 313.618 245.17 315.004 244.89C313.856 244.61 313.114 243.854 313.114 242.594C313.114 240.9 314.472 239.892 316.474 239.892C318.49 239.892 319.848 240.9 319.848 242.594C319.848 243.854 319.106 244.61 317.958 244.89C319.344 245.17 320.128 245.94 320.128 247.368C320.128 249.16 318.7 250.14 316.474 250.14ZM316.474 249.244C318.07 249.244 318.966 248.53 318.966 247.312C318.966 246.08 318.07 245.366 316.474 245.366C314.892 245.366 314.01 246.08 314.01 247.312C314.01 248.53 314.892 249.244 316.474 249.244ZM316.474 244.47C317.874 244.47 318.742 243.77 318.742 242.622C318.742 241.488 317.874 240.788 316.474 240.788C315.088 240.788 314.22 241.488 314.22 242.622C314.22 243.77 315.088 244.47 316.474 244.47ZM324.593 239.892C326.973 239.892 328.303 241.278 328.303 244.246C328.303 248.082 327.029 250.14 324.593 250.14C322.731 250.14 321.611 249.3 321.373 247.592H322.409C322.563 248.53 323.193 249.244 324.537 249.244C326.147 249.244 327.071 247.802 327.155 244.778C326.693 245.926 325.727 246.444 324.453 246.444C322.437 246.444 321.051 245.324 321.051 243.21C321.051 241.124 322.437 239.892 324.593 239.892ZM324.621 240.788C323.221 240.788 322.213 241.642 322.213 243.196C322.213 244.736 323.221 245.59 324.621 245.59C326.035 245.59 327.043 244.736 327.043 243.196C327.043 241.642 326.035 240.788 324.621 240.788ZM332.769 250H331.607V241.866C331.201 242.454 330.207 242.72 329.465 242.72H329.227V241.838C330.585 241.782 331.453 241.236 331.831 240.032H332.769V250ZM340.983 250H334.053V249.398C334.053 247.27 334.753 246.178 336.741 245.45L338.267 244.89C339.415 244.484 339.821 243.812 339.821 242.902C339.821 241.6 338.953 240.83 337.637 240.83C336.167 240.83 335.453 241.656 335.313 243.294H334.277C334.277 241.068 335.439 239.892 337.623 239.892C339.765 239.892 340.983 241.068 340.983 242.93C340.983 244.33 340.157 245.198 338.757 245.716L337.175 246.29C335.803 246.78 335.229 247.62 335.215 249.062H340.983V250ZM345.526 250.14C343.356 250.14 341.9 249.244 341.9 246.738H342.936C343.09 248.544 343.958 249.202 345.54 249.202C347.136 249.202 348.004 248.362 348.004 247.2C348.004 245.954 347.332 245.366 345.918 245.366H344.574V244.47H345.778C347.122 244.47 347.864 243.938 347.864 242.776C347.864 241.656 346.996 240.83 345.526 240.83C343.972 240.83 343.202 241.628 343.076 243.014H342.04C342.04 241.068 343.3 239.892 345.526 239.892C347.612 239.892 349.026 240.984 349.026 242.692C349.026 243.952 348.354 244.666 347.36 244.89C348.466 245.17 349.166 245.842 349.166 247.354C349.166 249.076 347.696 250.14 345.526 250.14Z" fill="#D40815"/>
<path d="M365 243.438L364.375 242.812L360 247.188L355.625 242.812L355 243.438L360 248.438L365 243.438Z" fill="#D40815"/>
<defs>
<linearGradient id="paint0_linear_1_15219" x1="3174.5" y1="-1072.33" x2="-31.0555" y2="-1072.33" gradientUnits="userSpaceOnUse">
<stop offset="0.1" stop-color="#FF9C4C" stop-opacity="0.5"/>
<stop offset="0.4" stop-color="#58B883" stop-opacity="0.5"/>
<stop offset="0.65" stop-color="#16C7DF" stop-opacity="0.5"/>
<stop offset="0.91" stop-color="#4E91F5" stop-opacity="0.5"/>
</linearGradient>
<linearGradient id="paint1_linear_1_15219" x1="2501.33" y1="-736.073" x2="-704.222" y2="-736.073" gradientUnits="userSpaceOnUse">
<stop offset="0.1" stop-color="#FF9C4C" stop-opacity="0.5"/>
<stop offset="0.4" stop-color="#58B883" stop-opacity="0.5"/>
<stop offset="0.65" stop-color="#16C7DF" stop-opacity="0.5"/>
<stop offset="0.91" stop-color="#4E91F5" stop-opacity="0.5"/>
</linearGradient>
<linearGradient id="paint2_linear_1_15219" x1="1828.17" y1="-415.825" x2="-1377.39" y2="-415.825" gradientUnits="userSpaceOnUse">
<stop offset="0.1" stop-color="#FF9C4C" stop-opacity="0.5"/>
<stop offset="0.4" stop-color="#58B883" stop-opacity="0.5"/>
<stop offset="0.65" stop-color="#16C7DF" stop-opacity="0.5"/>
<stop offset="0.91" stop-color="#4E91F5" stop-opacity="0.5"/>
</linearGradient>
<linearGradient id="paint3_linear_1_15219" x1="1155" y1="-210.667" x2="-2050.56" y2="-210.667" gradientUnits="userSpaceOnUse">
<stop offset="0.1" stop-color="#FF9C4C" stop-opacity="0.5"/>
<stop offset="0.4" stop-color="#58B883" stop-opacity="0.5"/>
<stop offset="0.65" stop-color="#16C7DF" stop-opacity="0.5"/>
<stop offset="0.91" stop-color="#4E91F5" stop-opacity="0.5"/>
</linearGradient>
<linearGradient id="paint4_linear_1_15219" x1="481.833" y1="-137.644" x2="-2723.72" y2="-137.644" gradientUnits="userSpaceOnUse">
<stop offset="0.1" stop-color="#FF9C4C" stop-opacity="0.5"/>
<stop offset="0.4" stop-color="#58B883" stop-opacity="0.5"/>
<stop offset="0.65" stop-color="#16C7DF" stop-opacity="0.5"/>
<stop offset="0.91" stop-color="#4E91F5" stop-opacity="0.5"/>
</linearGradient>
<linearGradient id="paint5_linear_1_15219" x1="-191.333" y1="-68.0066" x2="-3396.89" y2="-68.0066" gradientUnits="userSpaceOnUse">
<stop offset="0.1" stop-color="#FF9C4C" stop-opacity="0.5"/>
<stop offset="0.4" stop-color="#58B883" stop-opacity="0.5"/>
<stop offset="0.65" stop-color="#16C7DF" stop-opacity="0.5"/>
<stop offset="0.91" stop-color="#4E91F5" stop-opacity="0.5"/>
</linearGradient>
<linearGradient id="paint6_linear_1_15219" x1="-864.5" y1="-23.3478" x2="-4070.06" y2="-23.3478" gradientUnits="userSpaceOnUse">
<stop offset="0.1" stop-color="#FF9C4C" stop-opacity="0.5"/>
<stop offset="0.4" stop-color="#58B883" stop-opacity="0.5"/>
<stop offset="0.65" stop-color="#16C7DF" stop-opacity="0.5"/>
<stop offset="0.91" stop-color="#4E91F5" stop-opacity="0.5"/>
</linearGradient>
<linearGradient id="paint7_linear_1_15219" x1="-1537.67" y1="7.72811" x2="-4743.22" y2="7.72811" gradientUnits="userSpaceOnUse">
<stop offset="0.1" stop-color="#FF9C4C" stop-opacity="0.5"/>
<stop offset="0.4" stop-color="#58B883" stop-opacity="0.5"/>
<stop offset="0.65" stop-color="#16C7DF" stop-opacity="0.5"/>
<stop offset="0.91" stop-color="#4E91F5" stop-opacity="0.5"/>
</linearGradient>
<linearGradient id="paint8_linear_1_15219" x1="-2210.83" y1="30.6" x2="-5416.39" y2="30.6" gradientUnits="userSpaceOnUse">
<stop offset="0.1" stop-color="#FF9C4C" stop-opacity="0.5"/>
<stop offset="0.4" stop-color="#58B883" stop-opacity="0.5"/>
<stop offset="0.65" stop-color="#16C7DF" stop-opacity="0.5"/>
<stop offset="0.91" stop-color="#4E91F5" stop-opacity="0.5"/>
</linearGradient>
<linearGradient id="paint9_linear_1_15219" x1="-2884" y1="42.7647" x2="-6089.56" y2="42.7647" gradientUnits="userSpaceOnUse">
<stop offset="0.1" stop-color="#FF9C4C" stop-opacity="0.5"/>
<stop offset="0.4" stop-color="#58B883" stop-opacity="0.5"/>
<stop offset="0.65" stop-color="#16C7DF" stop-opacity="0.5"/>
<stop offset="0.91" stop-color="#4E91F5" stop-opacity="0.5"/>
</linearGradient>
<linearGradient id="paint10_linear_1_15219" x1="-3557.17" y1="42.7647" x2="-6762.72" y2="42.7647" gradientUnits="userSpaceOnUse">
<stop offset="0.1" stop-color="#FF9C4C" stop-opacity="0.5"/>
<stop offset="0.4" stop-color="#58B883" stop-opacity="0.5"/>
<stop offset="0.65" stop-color="#16C7DF" stop-opacity="0.5"/>
<stop offset="0.91" stop-color="#4E91F5" stop-opacity="0.5"/>
</linearGradient>
<linearGradient id="paint11_linear_1_15219" x1="-4230.33" y1="30.6" x2="-7435.89" y2="30.6" gradientUnits="userSpaceOnUse">
<stop offset="0.1" stop-color="#FF9C4C" stop-opacity="0.5"/>
<stop offset="0.4" stop-color="#58B883" stop-opacity="0.5"/>
<stop offset="0.65" stop-color="#16C7DF" stop-opacity="0.5"/>
<stop offset="0.91" stop-color="#4E91F5" stop-opacity="0.5"/>
</linearGradient>
<linearGradient id="paint12_linear_1_15219" x1="-4903.5" y1="7.72811" x2="-8109.06" y2="7.72811" gradientUnits="userSpaceOnUse">
<stop offset="0.1" stop-color="#FF9C4C" stop-opacity="0.5"/>
<stop offset="0.4" stop-color="#58B883" stop-opacity="0.5"/>
<stop offset="0.65" stop-color="#16C7DF" stop-opacity="0.5"/>
<stop offset="0.91" stop-color="#4E91F5" stop-opacity="0.5"/>
</linearGradient>
<linearGradient id="paint13_linear_1_15219" x1="-5576.67" y1="-23.3478" x2="-8782.22" y2="-23.3478" gradientUnits="userSpaceOnUse">
<stop offset="0.1" stop-color="#FF9C4C" stop-opacity="0.5"/>
<stop offset="0.4" stop-color="#58B883" stop-opacity="0.5"/>
<stop offset="0.65" stop-color="#16C7DF" stop-opacity="0.5"/>
<stop offset="0.91" stop-color="#4E91F5" stop-opacity="0.5"/>
</linearGradient>
<linearGradient id="paint14_linear_1_15219" x1="-6249.83" y1="-68.0066" x2="-9455.39" y2="-68.0066" gradientUnits="userSpaceOnUse">
<stop offset="0.1" stop-color="#FF9C4C" stop-opacity="0.5"/>
<stop offset="0.4" stop-color="#58B883" stop-opacity="0.5"/>
<stop offset="0.65" stop-color="#16C7DF" stop-opacity="0.5"/>
<stop offset="0.91" stop-color="#4E91F5" stop-opacity="0.5"/>
</linearGradient>
<linearGradient id="paint15_linear_1_15219" x1="-6923" y1="-137.644" x2="-10128.6" y2="-137.644" gradientUnits="userSpaceOnUse">
<stop offset="0.1" stop-color="#FF9C4C" stop-opacity="0.5"/>
<stop offset="0.4" stop-color="#58B883" stop-opacity="0.5"/>
<stop offset="0.65" stop-color="#16C7DF" stop-opacity="0.5"/>
<stop offset="0.91" stop-color="#4E91F5" stop-opacity="0.5"/>
</linearGradient>
<linearGradient id="paint16_linear_1_15219" x1="-7596.17" y1="-210.667" x2="-10801.7" y2="-210.667" gradientUnits="userSpaceOnUse">
<stop offset="0.1" stop-color="#FF9C4C" stop-opacity="0.5"/>
<stop offset="0.4" stop-color="#58B883" stop-opacity="0.5"/>
<stop offset="0.65" stop-color="#16C7DF" stop-opacity="0.5"/>
<stop offset="0.91" stop-color="#4E91F5" stop-opacity="0.5"/>
</linearGradient>
<linearGradient id="paint17_linear_1_15219" x1="-8269.33" y1="-415.825" x2="-11474.9" y2="-415.825" gradientUnits="userSpaceOnUse">
<stop offset="0.1" stop-color="#FF9C4C" stop-opacity="0.5"/>
<stop offset="0.4" stop-color="#58B883" stop-opacity="0.5"/>
<stop offset="0.65" stop-color="#16C7DF" stop-opacity="0.5"/>
<stop offset="0.91" stop-color="#4E91F5" stop-opacity="0.5"/>
</linearGradient>
<linearGradient id="paint18_linear_1_15219" x1="-8942.5" y1="-736.073" x2="-12148.1" y2="-736.073" gradientUnits="userSpaceOnUse">
<stop offset="0.1" stop-color="#FF9C4C" stop-opacity="0.5"/>
<stop offset="0.4" stop-color="#58B883" stop-opacity="0.5"/>
<stop offset="0.65" stop-color="#16C7DF" stop-opacity="0.5"/>
<stop offset="0.91" stop-color="#4E91F5" stop-opacity="0.5"/>
</linearGradient>
<linearGradient id="paint19_linear_1_15219" x1="137.986" y1="42.7719" x2="-0.38365" y2="42.7719" gradientUnits="userSpaceOnUse">
<stop offset="0.1" stop-color="#FF9C4C" stop-opacity="0.5"/>
<stop offset="0.4" stop-color="#58B883" stop-opacity="0.5"/>
<stop offset="0.65" stop-color="#16C7DF" stop-opacity="0.5"/>
<stop offset="0.91" stop-color="#4E91F5" stop-opacity="0.5"/>
</linearGradient>
</defs>
</svg>
