<svg width="221" height="68" viewBox="0 0 221 68" fill="none" xmlns="http://www.w3.org/2000/svg">
<path d="M73.6147 13.4814H60.5324L56.6077 1L52.3811 13.4814H39.5L49.8652 20.9702L45.9405 33.5514L56.6077 25.763L66.9729 33.5514L63.0482 20.9702L73.6147 13.4814Z" fill="#13B57A"/>
<path d="M63.8533 23.766L63.0482 20.9702L56.6077 25.763L63.8533 23.766Z" fill="#055229"/>
<path d="M66.3691 41.3398H39.5V68H66.3691V41.3398Z" fill="#13B57A"/>
<path d="M95.2509 41.3398H68.3818V68H95.2509V41.3398Z" fill="#13B57A"/>
<path d="M124.334 41.3398H97.4648V68H124.334V41.3398Z" fill="#13B57A"/>
<path d="M153.216 41.3398H126.347V68H153.216V41.3398Z" fill="#13B57A"/>
<path d="M182.299 41.3398H155.43V68H168.864H182.299V41.3398Z" fill="#DCDCE6"/>
<path d="M155.43 41.3398H168.915V68H155.43V41.3398Z" fill="#13B57A"/>
<path d="M52.683 59.1133L56.9096 58.0149L58.6203 63.307L52.683 59.1133ZM62.1425 52.4232H54.8969L52.683 45.7332L50.469 52.4232H43.4247L49.2614 56.617L47.0475 63.307L52.8842 59.1133L56.507 56.617L62.1425 52.4232Z" fill="white"/>
<path d="M81.766 59.1133L85.9926 58.0149L87.7034 63.307L81.766 59.1133ZM91.0243 52.4232H83.7787L81.5647 45.7332L79.3508 52.4232H72.0046L77.8413 56.617L75.6274 63.307L81.4641 59.1133L85.0869 56.617L91.0243 52.4232Z" fill="white"/>
<path d="M110.95 59.1133L115.177 58.015L116.888 63.3071L110.95 59.1133ZM120.209 52.4233H112.963L110.749 45.7333L108.535 52.4233H101.29L107.126 56.6171L105.214 63.3071L111.051 59.1133L114.674 56.6171L120.209 52.4233Z" fill="white"/>
<path d="M139.831 59.1133L144.057 58.015L145.768 63.3071L139.831 59.1133ZM149.29 52.4233H142.045L139.831 45.7333L137.617 52.4233H130.371L136.208 56.6171L133.994 63.3071L139.831 59.1133L143.453 56.6171L149.29 52.4233Z" fill="white"/>
<path d="M168.915 59.1133L173.142 58.015L174.853 63.3071L168.915 59.1133ZM178.173 52.4233H170.928L168.714 45.7333L166.802 52.4233H159.556L165.393 56.6171L163.179 63.3071L169.016 59.1133L172.639 56.6171L178.173 52.4233Z" fill="white"/>
<path d="M83.0209 31.0449V16.5596H77.5V13.7416H91.587V16.5596H86.0661V31.0449H83.0209Z" fill="#434343"/>
<path d="M91.2705 31.0449V17.9933H94.2909V20.9348C95.1079 18.9573 96.6181 17.6472 98.9206 17.7461V20.9101H98.7473C96.0982 20.9101 94.2909 22.6157 94.2909 26.0764V31.0449H91.2705Z" fill="#434343"/>
<path d="M104.666 31.3169C101.696 31.3169 100.012 29.364 100.012 26.2989V17.9933H103.008V25.409C103.008 27.4607 104.023 28.573 105.805 28.573C107.563 28.573 108.751 27.4112 108.751 25.3596V17.9933H111.772V31.0449H108.751V29.018C107.885 30.2787 106.672 31.3169 104.666 31.3169Z" fill="#434343"/>
<path d="M118.632 31.2921C116.751 31.2921 114.746 30.6494 113.087 29.3393L114.424 27.3124C115.884 28.3753 117.345 28.9191 118.707 28.9191C119.994 28.9191 120.737 28.3753 120.737 27.5101V27.4607C120.737 26.4719 119.35 26.1011 117.815 25.6315C115.909 25.1124 113.731 24.2966 113.731 21.8247V21.7753C113.731 19.2787 115.785 17.7708 118.385 17.7708C120.044 17.7708 121.801 18.3393 123.188 19.2539L121.999 21.3798C120.737 20.6135 119.4 20.1438 118.311 20.1438C117.147 20.1438 116.479 20.7124 116.479 21.4292V21.4787C116.479 22.418 117.89 22.8629 119.425 23.3326C121.306 23.9258 123.485 24.791 123.485 27.1393V27.1888C123.485 29.9326 121.356 31.2921 118.632 31.2921Z" fill="#434343"/>
<path d="M129.333 31.2674C127.129 31.2674 125.57 30.3034 125.57 27.436V20.564H123.911V17.9933H125.57V14.409H128.565V17.9933H132.081V20.564H128.565V26.9663C128.565 28.1281 129.16 28.5978 130.175 28.5978C130.818 28.5978 131.437 28.4494 132.031 28.1528V30.6C131.264 31.0202 130.496 31.2674 129.333 31.2674Z" fill="#434343"/>
<path d="M133.743 35V17.9933H136.763V20.1685C137.729 18.809 139.066 17.7213 141.22 17.7213C144.29 17.7213 147.285 20.1438 147.285 24.4944V24.5438C147.285 28.8944 144.314 31.3169 141.22 31.3169C139.041 31.3169 137.679 30.2292 136.763 29.018V35H133.743ZM140.502 28.7213C142.557 28.7213 144.24 27.1146 144.24 24.5438V24.4944C144.24 21.973 142.507 20.3169 140.502 20.3169C138.447 20.3169 136.689 21.9978 136.689 24.4944V24.5438C136.689 27.0404 138.447 28.7213 140.502 28.7213Z" fill="#434343"/>
<path d="M149.065 15.991V13.1483H152.284V15.991H149.065ZM149.164 31.0449V17.9933H152.185V31.0449H149.164Z" fill="#434343"/>
<path d="M154.887 31.0449V13H157.907V31.0449H154.887Z" fill="#434343"/>
<path d="M166.674 31.3416C162.688 31.3416 159.742 28.3011 159.742 24.5933V24.5438C159.742 20.8112 162.713 17.7213 166.724 17.7213C170.759 17.7213 173.681 20.7618 173.681 24.4944V24.5438C173.681 28.227 170.71 31.3416 166.674 31.3416ZM166.724 28.7213C169.175 28.7213 170.685 26.8427 170.685 24.5933V24.5438C170.685 22.2449 169.026 20.3416 166.674 20.3416C164.273 20.3416 162.738 22.2202 162.738 24.4944V24.5438C162.738 26.818 164.421 28.7213 166.724 28.7213Z" fill="#434343"/>
<path d="M179.752 31.2674C177.549 31.2674 175.989 30.3034 175.989 27.436V20.564H174.33V17.9933H175.989V14.409H178.984V17.9933H182.5V20.564H178.984V26.9663C178.984 28.1281 179.579 28.5978 180.594 28.5978C181.237 28.5978 181.856 28.4494 182.45 28.1528V30.6C181.683 31.0202 180.916 31.2674 179.752 31.2674Z" fill="#434343"/>
</svg>
