<svg width="303" height="52" viewBox="0 0 303 52" fill="none" xmlns="http://www.w3.org/2000/svg">
<path d="M42.3731 38.9977H43.101V0H56.4751V50.7388H34.8166L14.102 11.7429H13.3741V50.7388H0V0H22.0959L42.3749 38.9977H42.3731Z" fill="white" fill-opacity="0.3"/>
<path d="M64.6104 0H115.705V10.8722H77.9826V20.222H111.707V30.515H77.9826V39.8648H115.705V50.737H64.6104V0Z" fill="white" fill-opacity="0.3"/>
<path d="M150.955 34.7925L136.928 50.7388H119.557L142.596 25.7324V25.0065L119.557 0H136.71L150.955 15.9463H151.681L165.709 0H183.007L159.968 25.0065V25.7324L183.007 50.7388H165.709L151.681 34.7925H150.955Z" fill="white" fill-opacity="0.3"/>
<path d="M186.058 0H199.432V30.8788C199.432 36.1701 202.993 39.7218 208.299 39.7218H221.673C226.979 39.7218 230.54 36.1701 230.54 30.8788V0H243.914V29.8633C243.914 42.8372 235.265 51.4647 222.256 51.4647H207.72C194.71 51.4647 186.061 42.839 186.061 29.8633V0H186.058Z" fill="white" fill-opacity="0.3"/>
<path d="M249.287 0H303V9.42222L270.22 38.9959H303V50.7388H249.287V41.3166L282.067 11.7429H249.287V0Z" fill="white" fill-opacity="0.3"/>
</svg>
