<svg width="459" height="3054" viewBox="0 0 459 3054" fill="none" xmlns="http://www.w3.org/2000/svg">
<path opacity="0.5" d="M378.041 1127.71C387.367 1149.96 614.18 1509.55 574.359 1598.91L359.609 1256.87C361.536 945.001 406.097 302.428 153.212 110.555C516.502 700.711 29.6848 1644.25 366.248 3354.27C384.785 2913.61 593.475 2566.88 640.502 2067.6C679.513 1653.43 582.876 1427.75 378.031 1127.71L378.041 1127.71ZM293.486 3126.25C302.224 3196.04 316.763 3265.83 339.521 3335.62C314.48 3376.16 260.573 3338.99 226.649 3381.64C168.532 3438.56 101.705 3458.99 -3.38858e-05 3413.75C-3.38858e-05 3413.75 149.648 3444.4 194.681 3345.16C239.714 3245.92 215.02 3145.21 293.476 3126.24L293.486 3126.25ZM412.341 3146.5C403.081 3187.15 342.565 3385 452.816 3494C452.816 3494 516.425 3277.2 412.341 3146.5ZM5.52051 2.81274e-05C211.782 119.566 269.456 446.384 271.615 648.438C242.72 230.257 77.8779 345.081 5.52051 2.81274e-05ZM359.474 1324.59C435.069 1443.77 583.657 1662.69 585.497 1784.38C610.692 1941.28 530.559 2456.99 429.095 2702.8C357.615 2391.94 360.409 1796.57 359.484 1324.6L359.474 1324.59Z" fill="#FFEAEB"/>
</svg>
