<svg width="582" height="2806" viewBox="0 0 582 2806" fill="none" xmlns="http://www.w3.org/2000/svg">
<path opacity="0.5" d="M203.959 1127.71C194.633 1149.96 -32.1799 1509.55 7.64071 1598.91L222.391 1256.87C220.464 945.001 175.903 302.428 428.788 110.555C65.4978 700.711 552.315 1644.25 215.752 3354.27C197.215 2913.61 -11.4747 2566.88 -58.5022 2067.6C-97.5135 1653.43 -0.876436 1427.75 203.969 1127.71L203.959 1127.71ZM288.514 3126.25C279.776 3196.04 265.237 3265.83 242.479 3335.62C267.52 3376.16 321.427 3338.99 355.351 3381.64C413.468 3438.56 480.295 3458.99 582 3413.75C582 3413.75 432.352 3444.4 387.319 3345.16C342.286 3245.92 366.98 3145.21 288.524 3126.24L288.514 3126.25ZM169.659 3146.5C178.919 3187.15 239.435 3385 129.184 3494C129.184 3494 65.5747 3277.2 169.659 3146.5ZM576.479 2.81274e-05C370.218 119.566 312.544 446.384 310.385 648.438C339.28 230.257 504.122 345.081 576.479 2.81274e-05ZM222.526 1324.59C146.931 1443.77 -1.65687 1662.69 -3.49713 1784.38C-28.6921 1941.28 51.4405 2456.99 152.905 2702.8C224.385 2391.94 221.591 1796.57 222.516 1324.6L222.526 1324.59Z" fill="#FFEAEB"/>
</svg>
