<svg width="221" height="68" viewBox="0 0 221 68" fill="none" xmlns="http://www.w3.org/2000/svg">
<mask id="mask0_391_30" style="mask-type:luminance" maskUnits="userSpaceOnUse" x="37" y="12" width="44" height="44">
<path d="M79.6436 30H59.2364V38.5H70.983C69.888 43.9 65.3088 47 59.2364 47C52.069 47 46.2952 41.2 46.2952 34C46.2952 26.8 52.069 21 59.2364 21C62.3224 21 65.1097 22.1 67.2997 23.9L73.6708 17.5C69.7884 14.1 64.8111 12 59.2364 12C47.0916 12 37.3359 21.8 37.3359 34C37.3359 46.2 47.0916 56 59.2364 56C70.1866 56 80.1414 48 80.1414 34C80.1414 32.7 79.9423 31.3 79.6436 30Z" fill="white"/>
</mask>
<g mask="url(#mask0_391_30)">
<path d="M35.3438 47V21L52.2668 34L35.3438 47Z" fill="#FBBC05"/>
</g>
<mask id="mask1_391_30" style="mask-type:luminance" maskUnits="userSpaceOnUse" x="37" y="12" width="44" height="44">
<path d="M79.6436 30H59.2364V38.5H70.983C69.888 43.9 65.3088 47 59.2364 47C52.069 47 46.2952 41.2 46.2952 34C46.2952 26.8 52.069 21 59.2364 21C62.3224 21 65.1097 22.1 67.2997 23.9L73.6708 17.5C69.7884 14.1 64.8111 12 59.2364 12C47.0916 12 37.3359 21.8 37.3359 34C37.3359 46.2 47.0916 56 59.2364 56C70.1866 56 80.1414 48 80.1414 34C80.1414 32.7 79.9423 31.3 79.6436 30Z" fill="white"/>
</mask>
<g mask="url(#mask1_391_30)">
<path d="M35.3438 21L52.2668 34L59.2352 27.9L83.1266 24V10H35.3438V21Z" fill="#EA4335"/>
</g>
<mask id="mask2_391_30" style="mask-type:luminance" maskUnits="userSpaceOnUse" x="37" y="12" width="44" height="44">
<path d="M79.6436 30H59.2364V38.5H70.983C69.888 43.9 65.3088 47 59.2364 47C52.069 47 46.2952 41.2 46.2952 34C46.2952 26.8 52.069 21 59.2364 21C62.3224 21 65.1097 22.1 67.2997 23.9L73.6708 17.5C69.7884 14.1 64.8111 12 59.2364 12C47.0916 12 37.3359 21.8 37.3359 34C37.3359 46.2 47.0916 56 59.2364 56C70.1866 56 80.1414 48 80.1414 34C80.1414 32.7 79.9423 31.3 79.6436 30Z" fill="white"/>
</mask>
<g mask="url(#mask2_391_30)">
<path d="M35.3438 47L65.208 24L73.0723 25L83.1266 10V58H35.3438V47Z" fill="#34A853"/>
</g>
<mask id="mask3_391_30" style="mask-type:luminance" maskUnits="userSpaceOnUse" x="37" y="12" width="44" height="44">
<path d="M79.6436 30H59.2364V38.5H70.983C69.888 43.9 65.3088 47 59.2364 47C52.069 47 46.2952 41.2 46.2952 34C46.2952 26.8 52.069 21 59.2364 21C62.3224 21 65.1097 22.1 67.2997 23.9L73.6708 17.5C69.7884 14.1 64.8111 12 59.2364 12C47.0916 12 37.3359 21.8 37.3359 34C37.3359 46.2 47.0916 56 59.2364 56C70.1866 56 80.1414 48 80.1414 34C80.1414 32.7 79.9423 31.3 79.6436 30Z" fill="white"/>
</mask>
<g mask="url(#mask3_391_30)">
<path d="M83.1307 58L52.271 34L48.2891 31L83.1307 21V58Z" fill="#4285F4"/>
</g>
<path d="M96.1695 33.8031L93.0835 29.3031H92.8844H89.6989V33.8031H86.0156V17.7031H92.984C97.2645 17.7031 99.9523 19.9031 99.9523 23.5031C99.9523 25.9031 98.7577 27.7031 96.6672 28.6031L100.251 33.8031H96.1695ZM92.6853 20.7031H89.6989V26.3031H92.6853C94.9749 26.3031 96.0699 25.2031 96.0699 23.5031C96.0699 21.7031 94.8754 20.7031 92.6853 20.7031Z" fill="#434343"/>
<path d="M114.486 28.6031H105.129C105.427 30.1031 106.821 31.1031 108.613 31.1031C109.907 31.1031 110.903 30.7031 111.699 29.9031L113.59 32.0031C112.396 33.3031 110.703 34.0031 108.513 34.0031C104.233 34.0031 101.445 31.3031 101.445 27.6031C101.445 23.9031 104.233 21.2031 108.016 21.2031C111.599 21.2031 114.387 23.6031 114.387 27.6031C114.586 27.9031 114.486 28.3031 114.486 28.6031ZM105.129 26.5031H111.201C110.903 24.9031 109.807 23.9031 108.215 23.9031C106.522 23.9031 105.427 24.9031 105.129 26.5031Z" fill="#434343"/>
<path d="M128.919 21.4062L123.743 33.8062H120.059L114.883 21.4062H118.566L121.951 29.8062L125.435 21.4062H128.919Z" fill="#434343"/>
<path d="M130.016 17.7031C130.016 16.6031 130.912 15.7031 132.206 15.7031C133.5 15.7031 134.396 16.5031 134.396 17.6031C134.396 18.8031 133.5 19.7031 132.206 19.7031C130.912 19.7031 130.016 18.8031 130.016 17.7031ZM130.414 21.4031H133.998V33.8031H130.414V21.4031Z" fill="#434343"/>
<path d="M149.33 28.6031H139.972C140.271 30.1031 141.665 31.1031 143.456 31.1031C144.751 31.1031 145.746 30.7031 146.542 29.9031L148.434 32.0031C147.239 33.3031 145.547 34.0031 143.357 34.0031C139.076 34.0031 136.289 31.3031 136.289 27.6031C136.289 23.9031 139.076 21.2031 142.859 21.2031C146.443 21.2031 149.23 23.6031 149.23 27.6031C149.33 27.9031 149.33 28.3031 149.33 28.6031ZM139.972 26.5031H146.045C145.746 24.9031 144.651 23.9031 143.058 23.9031C141.366 23.9031 140.171 24.9031 139.972 26.5031Z" fill="#434343"/>
<path d="M171.325 21.4062L166.845 33.8062H163.46L160.673 26.1063L157.786 33.8062H154.402L149.922 21.4062H153.306L156.193 29.8062L159.18 21.4062H162.166L165.053 29.8062L168.04 21.4062H171.325Z" fill="#434343"/>
<path d="M171.625 32.6031L172.82 30.0031C173.915 30.7031 175.607 31.2031 177.1 31.2031C178.792 31.2031 179.39 30.8031 179.39 30.1031C179.39 28.1031 171.924 30.1031 171.924 25.2031C171.924 22.9031 174.014 21.2031 177.598 21.2031C179.29 21.2031 181.182 21.6031 182.376 22.3031L181.182 24.9031C179.987 24.2031 178.792 24.0031 177.598 24.0031C176.005 24.0031 175.308 24.5031 175.308 25.1031C175.308 27.2031 182.774 25.2031 182.774 30.0031C182.774 32.3031 180.684 33.9031 177.001 33.9031C174.811 34.0031 172.72 33.4031 171.625 32.6031Z" fill="#434343"/>
<path d="M92.2851 43.3016L95.2715 37.6016L98.3575 43.3016L104.33 44.3016L100.149 48.7016L100.846 55.4016L95.2715 52.6016L89.5973 55.5016L90.2942 48.7016L85.9141 44.3016L92.2851 43.3016Z" fill="#FCB002"/>
<path d="M112.199 43.3016L115.186 37.6016L118.272 43.3016L124.244 44.3016L120.063 48.7016L120.76 55.4016L115.186 52.6016L109.511 55.5016L110.208 48.7016L105.828 44.3016L112.199 43.3016Z" fill="#FCB002"/>
<path d="M132.105 43.3016L135.092 37.6016L138.178 43.3016L144.151 44.3016L139.97 48.7016L140.667 55.4016L135.092 52.6016L129.418 55.5016L130.114 48.7016L125.734 44.3016L132.105 43.3016Z" fill="#FCB002"/>
<path d="M152.012 43.3016L154.998 37.6016L158.084 43.3016L164.057 44.3016L159.876 48.7016L160.573 55.4016L154.998 52.6016L149.324 55.5016L150.021 48.7016L145.641 44.3016L152.012 43.3016Z" fill="#FCB002"/>
<path d="M171.926 43.3016L174.912 37.6016L177.998 43.3016L183.971 44.3016L179.79 48.7016L180.487 55.4016L174.912 52.6016L169.238 55.5016L169.935 48.7016L165.555 44.3016L171.926 43.3016Z" fill="#FCB002"/>
</svg>
