<svg width="30" height="30" viewBox="0 0 30 30" fill="none" xmlns="http://www.w3.org/2000/svg">
<g clip-path="url(#clip0_50_105)">
<path d="M7.75841 13.2203H16.5513V22.3729H7.75841V13.2203ZM24.4597 25.8102L24.47 26.9949C24.47 28.6525 22.7632 30 20.6632 30H3.56888C1.531 30 0 28.7085 0 27V3.24916C0 1.68814 1.18444 0 3.09819 0H15.0048C15.1341 0 15.2582 0.0457475 15.3513 0.132208L19.2047 3.52372L19.9443 2.73559C20.2236 2.43558 20.6012 2.26272 21.0201 2.24745C21.4287 2.23221 21.8218 2.36948 22.127 2.63898L24.5476 4.78982C24.8528 5.05933 25.0286 5.42541 25.0493 5.83219C25.07 6.22881 24.9252 6.61017 24.6459 6.90506L23.9218 7.67287L24.1442 7.87118C24.2476 7.9627 24.3097 8.0949 24.3097 8.23729L24.3717 15.2898L21.8063 19.6525C21.0356 20.9644 21.0356 22.5305 21.8063 23.8373C22.4011 24.8441 23.3528 25.5407 24.4597 25.8102ZM20.2132 4.16441L23.4356 6.96102L24.17 6.19321C24.2631 6.0966 24.3097 5.96949 24.3045 5.83728C24.2993 5.70507 24.2373 5.58304 24.1338 5.49152L21.6925 3.35592C21.5891 3.2644 21.4597 3.22371 21.3201 3.2288C21.1805 3.23389 21.0511 3.28982 20.9581 3.38643L20.2132 4.16441ZM8.64802 1.01695L11.0169 3.05085H17.3944L15.0513 1.01695H8.64802ZM20.5908 25.1186L17.5857 22.4491V12.7017C17.5857 12.6966 17.5857 12.6915 17.5805 12.6864L20.1201 10.0576C20.3115 9.85424 20.296 9.53899 20.0891 9.35086C19.877 9.16778 19.5564 9.17796 19.3598 9.38137L16.6444 12.2034H7.51533L4.79988 9.38137C4.60334 9.17797 4.27748 9.16779 4.0654 9.35086C3.85853 9.53899 3.843 9.85424 4.03954 10.0576L6.72395 12.8491V22.2509L4.03954 25.0424C3.843 25.2407 3.85853 25.5559 4.0654 25.7441C4.16885 25.8305 4.29298 25.8763 4.41711 25.8763C4.55677 25.8763 4.69643 25.8203 4.79988 25.7186L7.06531 23.3593C7.12223 23.3796 7.17911 23.3898 7.24118 23.3898H17.0685C17.084 23.3898 17.0995 23.3898 17.1151 23.3847L19.8926 25.8508C19.9908 25.9373 20.115 25.983 20.2391 25.983C20.3788 25.983 20.5184 25.9271 20.6218 25.8254C20.8132 25.622 20.7977 25.3068 20.5908 25.1186ZM25.4941 15.4068L22.7063 20.161C22.1218 21.1525 22.1218 22.3373 22.7063 23.3288C23.1045 24.0101 23.7252 24.5034 24.4493 24.7474C24.7752 24.8593 25.1269 24.9152 25.4941 24.9152C26.6631 24.9152 27.7027 24.3203 28.2872 23.3288C28.8716 22.3373 28.8716 21.1525 28.2872 20.161L25.4941 15.4068ZM29.7406 2.36485L28.5298 0.303397C28.345 -0.0114204 27.8186 -0.0114204 27.6338 0.303397L26.423 2.36485C26.077 2.95452 26.077 3.65863 26.4235 4.24805C26.7695 4.83746 27.3893 5.18927 28.0818 5.18927C28.7743 5.18927 29.3941 4.83746 29.7401 4.24805C30.0866 3.65863 30.0866 2.95451 29.7406 2.36485ZM27.0473 10.5292C27.553 10.5292 28.0055 10.2723 28.2586 9.84201C28.5116 9.4115 28.5117 8.89731 28.2591 8.46655L27.4954 7.16656C27.3105 6.85175 26.7842 6.85224 26.5993 7.16656L25.8361 8.46655C25.5836 8.89706 25.5831 9.411 25.8361 9.84151C26.0892 10.2723 26.5417 10.5292 27.0473 10.5292Z" fill="#D40815"/>
</g>
<defs>
<clipPath id="clip0_50_105">
<rect width="30" height="30" fill="white"/>
</clipPath>
</defs>
</svg>
