<svg width="30" height="30" viewBox="0 0 30 30" fill="none" xmlns="http://www.w3.org/2000/svg">
<g clip-path="url(#clip0_50_107)">
<path d="M29.7011 18.5982L27.544 17.7067C27.3564 17.1437 27.1688 16.6276 26.8875 16.1584L27.7784 14C27.8253 13.8123 27.8253 13.6246 27.6846 13.4839L26.3716 12.217C26.2309 12.0762 26.0434 12.0293 25.8558 12.1232L23.6987 13.0147C23.2298 12.7331 22.7139 12.5455 22.1512 12.3578L21.2603 10.1994C21.1665 10.0117 21.0258 9.91789 20.8382 9.91789H19.0094C18.8218 9.91789 18.6342 10.0587 18.5873 10.1994L17.6964 12.3578C17.1336 12.4985 16.6178 12.7331 16.1489 13.0147L13.9918 12.1232C13.8042 12.0762 13.6166 12.0762 13.476 12.217L12.163 13.4839C12.0223 13.6246 11.9754 13.8123 12.0692 14L12.9601 16.1584C12.6788 16.6276 12.4912 17.1437 12.3036 17.7067L10.1465 18.5982C9.95897 18.6452 9.86518 18.8328 9.86518 19.0205V20.8504C9.86518 21.0381 9.95897 21.2258 10.1465 21.2727L12.3036 22.1642C12.4443 22.6804 12.6788 23.2434 12.9601 23.7126L12.0692 25.871C12.0223 26.0586 12.0223 26.2463 12.163 26.3871L13.476 27.7009C13.6166 27.8416 13.8042 27.8886 13.9918 27.7947L16.1489 26.9032C16.6178 27.1847 17.1336 27.3724 17.6964 27.5601L18.5873 29.7185C18.6811 29.9062 18.8218 30 19.0094 30H20.8382C21.0258 30 21.2134 29.9062 21.2603 29.7185L22.1512 27.5601C22.7139 27.4194 23.1829 27.1847 23.6987 26.9032L25.8558 27.7947C26.0434 27.8416 26.2309 27.8416 26.3716 27.7009L27.6846 26.3871C27.8253 26.2463 27.8722 26.0586 27.7784 25.871L26.8875 23.7126C27.1688 23.2434 27.3564 22.7273 27.544 22.1642L29.7011 21.2727C29.8886 21.1789 29.9824 21.0381 29.9824 20.8504V19.0205C29.9824 18.8798 29.8886 18.6921 29.7011 18.5982ZM23.0891 19.9589C23.0891 21.695 21.6823 23.1496 19.9004 23.1496C18.1653 23.1496 16.7116 21.7419 16.7116 19.9589C16.7116 18.176 18.1184 16.7683 19.9004 16.7683C21.6823 16.7683 23.0891 18.2229 23.0891 19.9589Z" fill="#D40815"/>
<path d="M14.6483 8.88563L13.3822 7.75953C13.3822 7.38416 13.3822 7.0088 13.3353 6.58651L14.4607 5.36657C14.6014 5.22581 14.6014 5.03812 14.5545 4.85044L13.9918 3.6305C13.898 3.44281 13.7104 3.30205 13.5229 3.30205L11.8347 3.39589C11.5533 3.11437 11.272 2.83284 10.9906 2.64516L10.9437 0.956012C10.9437 0.768328 10.803 0.580645 10.6155 0.533724L9.30246 0.0645161C9.11489 0.0175953 8.92731 0.0645161 8.78663 0.205279L7.70809 1.42522C7.33294 1.42522 6.9578 1.42522 6.58265 1.47214L5.36342 0.346041C5.22274 0.205279 5.03517 0.205279 4.8476 0.252199L3.53458 0.815249C3.34701 0.909091 3.25322 1.09677 3.25322 1.28446L3.34701 2.97361C3.06565 3.25513 2.78429 3.53666 2.59672 3.81818L0.908558 3.91202C0.720985 3.91202 0.533411 4.05279 0.486518 4.24047L0.017585 5.55425C-0.0293083 5.74194 0.017585 5.92962 0.158265 6.07038L1.37749 7.14956C1.37749 7.52493 1.37749 7.90029 1.42438 8.32258L0.298945 9.54252C0.158265 9.68328 0.158265 9.87097 0.205158 10.0587L0.767878 11.2786C0.861665 11.4663 1.00234 11.5601 1.23681 11.5601L2.92497 11.4663C3.20633 11.7478 3.48769 12.0293 3.76905 12.217L3.86284 13.9062C3.86284 14.0938 4.00352 14.2815 4.19109 14.3284L5.5041 14.7977C5.551 14.7977 5.59789 14.8446 5.64478 14.8446C5.78546 14.8446 5.87925 14.7977 5.97304 14.7038L7.09848 13.4369C7.47362 13.4369 7.84877 13.4369 8.22391 13.39L9.49003 14.5161C9.63071 14.6569 9.81829 14.6569 10.0059 14.61L11.2251 14.0469C11.4127 13.9531 11.5064 13.8123 11.5064 13.6246L11.4127 11.9355C11.694 11.654 11.9754 11.3724 12.163 11.0909L13.8511 11.044C14.0387 11.044 14.2263 10.9032 14.2732 10.7155L14.7421 9.40176C14.8359 9.21408 14.789 9.02639 14.6483 8.88563ZM9.63071 7.43108C9.63071 8.65103 8.64595 9.68328 7.37983 9.68328C6.16061 9.68328 5.12896 8.69795 5.12896 7.43108C5.12896 6.16422 6.11372 5.17889 7.37983 5.17889C8.64595 5.17889 9.63071 6.21114 9.63071 7.43108Z" fill="#D40815"/>
<path d="M29.8417 6.21114L28.9977 5.46041C28.9977 5.22581 28.9977 4.9912 28.9508 4.7566L29.7011 3.91202C29.8417 3.77126 29.8417 3.58358 29.7948 3.39589L29.3728 2.55132C29.279 2.36364 29.1383 2.26979 28.9039 2.26979L27.8722 2.36364C27.7315 2.17595 27.544 2.03519 27.3564 1.89443L27.3095 0.768328C27.3095 0.580645 27.1688 0.392962 26.9812 0.346041L26.0903 0.0175953C25.9027 -0.0293255 25.7151 0.0175953 25.5744 0.158358L24.8241 1.00293C24.5897 1.00293 24.3552 1.00293 24.1208 1.04985L23.3236 0.29912C23.1829 0.158358 22.9953 0.158358 22.8077 0.205279L21.9637 0.627566C21.7761 0.721408 21.6823 0.86217 21.6823 1.09677L21.7292 2.22287C21.5416 2.36364 21.4009 2.55132 21.2603 2.739L20.1348 2.69208C19.9472 2.69208 19.7597 2.83284 19.7128 3.02053L19.3845 3.91202C19.3376 4.09971 19.3845 4.28739 19.5252 4.42815L20.3693 5.17889C20.3693 5.41349 20.3693 5.64809 20.4162 5.8827L19.6659 6.68035C19.5252 6.82111 19.5252 7.0088 19.5721 7.19648L19.9941 8.04106C20.0879 8.22874 20.2755 8.32258 20.4631 8.32258L21.5885 8.27566C21.7292 8.46334 21.9168 8.60411 22.1043 8.74487L22.1512 9.87097C22.1512 10.0587 22.2919 10.2463 22.4795 10.2933L23.3705 10.6217C23.4174 10.6217 23.4642 10.6686 23.5111 10.6686C23.6518 10.6686 23.7456 10.6217 23.8394 10.5279L24.5897 9.68328C24.8242 9.68328 25.0586 9.68328 25.2931 9.63636L26.1372 10.3871C26.2778 10.5279 26.4654 10.5279 26.653 10.4809L27.4971 10.0587C27.6846 9.96481 27.7784 9.77713 27.7784 9.58944L27.6377 8.51026C27.8253 8.3695 27.966 8.18182 28.1067 7.99414L29.2321 7.94721C29.4197 7.94721 29.6073 7.80645 29.6542 7.61877L29.9824 6.72727C30.0293 6.53959 29.9824 6.35191 29.8417 6.21114ZM26.0903 5.31965C26.0903 6.1173 25.4338 6.72727 24.6835 6.72727C23.8863 6.72727 23.2767 6.07038 23.2767 5.31965C23.2767 4.56892 23.9332 3.91202 24.6835 3.91202C25.4807 3.91202 26.0903 4.52199 26.0903 5.31965Z" fill="#D40815"/>
</g>
<defs>
<clipPath id="clip0_50_107">
<rect width="30" height="30" fill="white"/>
</clipPath>
</defs>
</svg>
