<svg width="36" height="36" viewBox="0 0 36 36" fill="none" xmlns="http://www.w3.org/2000/svg">
<g clip-path="url(#clip0_87_6080)">
<path fill-rule="evenodd" clip-rule="evenodd" d="M22.7665 20.9324L35.2154 35.4642H18.3457L19.0712 20.6514L22.7665 20.9324Z" fill="#FB4455"/>
<path fill-rule="evenodd" clip-rule="evenodd" d="M22.1786 12.5574H11.0673C10.9477 9.20495 11.2586 7.95529 11.5516 7.30356C13.0544 3.98305 17.4472 6.70759 21.3776 5.32841C22.7529 4.84607 22.3543 10.5962 22.1788 12.5574H22.1786Z" fill="#3C6DA6"/>
<path fill-rule="evenodd" clip-rule="evenodd" d="M11.4902 35.465V23.9946L7.6015 27.8852L10.9835 31.2516C11.1309 31.4008 11.2474 31.5777 11.3261 31.7722C11.4048 31.9666 11.4443 32.1747 11.4423 32.3844C11.4403 32.5942 11.3969 32.8015 11.3144 32.9944C11.232 33.1873 11.1122 33.3619 10.962 33.5083C10.8118 33.6548 10.6341 33.77 10.4391 33.8475C10.2442 33.9249 10.0359 33.9631 9.82611 33.9597C9.61638 33.9563 9.40938 33.9114 9.21704 33.8277C9.0247 33.744 8.85082 33.6231 8.70541 33.4719L4.4605 28.8339C4.30646 28.6878 4.18326 28.5122 4.09815 28.3177C4.01305 28.1231 3.96777 27.9135 3.96498 27.7012C3.9622 27.4889 4.00196 27.2781 4.08193 27.0814C4.16191 26.8847 4.28046 26.706 4.43062 26.5558C10.5016 20.3772 10.0851 20.2058 16.7181 20.3711C23.3492 20.2058 22.9326 20.3772 29.0037 26.5558C29.1538 26.706 29.2723 26.8846 29.3522 27.0813C29.4322 27.2779 29.4721 27.4885 29.4695 27.7008C29.4668 27.9131 29.4218 28.1227 29.337 28.3173C29.2522 28.5119 29.1293 28.6875 28.9756 28.8339L24.7282 33.4719C24.4331 33.7708 24.0317 33.9407 23.6117 33.9447C23.1917 33.9487 22.7871 33.7865 22.4863 33.4933C22.1855 33.2001 22.0129 32.7999 22.0061 32.3799C21.9993 31.9599 22.1589 31.5543 22.4501 31.2516L25.8344 27.8852L21.9439 23.9946V35.465H11.4902Z" fill="#2D47EA"/>
<path fill-rule="evenodd" clip-rule="evenodd" d="M9.75687 30.0293L10.9846 31.2511C11.132 31.4004 11.2484 31.5773 11.3272 31.7717C11.4059 31.9662 11.4454 32.1742 11.4434 32.384C11.4414 32.5937 11.3979 32.801 11.3155 32.9939C11.2331 33.1868 11.1133 33.3615 10.9631 33.5079C10.8128 33.6543 10.6351 33.7696 10.4402 33.847C10.2453 33.9245 10.0369 33.9626 9.82718 33.9592C9.61744 33.9558 9.41044 33.911 9.2181 33.8273C9.02576 33.7436 8.85188 33.6226 8.70647 33.4714L7.56445 32.2237L9.75687 30.0293Z" fill="#FBBD80"/>
<path fill-rule="evenodd" clip-rule="evenodd" d="M14.3613 17.3936H19.071V21.3957C19.0696 22.0197 18.8212 22.6178 18.3801 23.0593C17.9391 23.5008 17.3412 23.7497 16.7171 23.7516C16.0929 23.75 15.4946 23.5012 15.0533 23.0598C14.6119 22.6183 14.3632 22.02 14.3617 21.3957L14.3613 17.3936Z" fill="#E2AA73"/>
<path fill-rule="evenodd" clip-rule="evenodd" d="M12.9655 11.7227C13.2311 11.8735 13.446 12.0997 13.5831 12.3726C13.7202 12.6456 13.7733 12.953 13.7357 13.2561C13.6981 13.5592 13.5715 13.8444 13.3718 14.0755C13.1722 14.3067 12.9085 14.4735 12.6141 14.5548C12.3197 14.6361 12.0078 14.6283 11.7178 14.5324C11.4279 14.4365 11.1728 14.2568 10.985 14.016C10.7971 13.7752 10.6848 13.4841 10.6624 13.1795C10.6399 12.8749 10.7083 12.5705 10.8588 12.3047C10.9589 12.1281 11.0928 11.973 11.2528 11.8482C11.4129 11.7234 11.5959 11.6313 11.7916 11.5773C11.9872 11.5232 12.1916 11.5083 12.393 11.5332C12.5944 11.5582 12.789 11.6226 12.9655 11.7227ZM21.9943 11.7227C22.2601 11.8733 22.4754 12.0993 22.6127 12.3722C22.7501 12.6452 22.8035 12.9527 22.7661 13.2559C22.7287 13.5592 22.6021 13.8445 22.4025 14.0758C22.2029 14.3072 21.9392 14.4741 21.6447 14.5555C21.3502 14.637 21.0382 14.6292 20.7481 14.5333C20.458 14.4374 20.2029 14.2576 20.015 14.0166C19.8271 13.7757 19.7149 13.4844 19.6926 13.1797C19.6702 12.875 19.7388 12.5705 19.8895 12.3047C20.0918 11.9487 20.4269 11.6875 20.8215 11.5784C21.2161 11.4693 21.6379 11.5212 21.9943 11.7227Z" fill="#E2AA73"/>
<path fill-rule="evenodd" clip-rule="evenodd" d="M19.0711 19.6836C18.3616 20.2058 17.5564 20.5386 16.7233 20.5466H16.7092C15.8761 20.5386 15.0728 20.2058 14.3613 19.6836V17.3936H19.071L19.0711 19.6836Z" fill="#CB9968"/>
<path fill-rule="evenodd" clip-rule="evenodd" d="M12.6578 10.3833C12.0061 13.3809 12.1716 14.545 12.4366 15.7169C12.8691 17.6203 14.7706 19.8845 16.7178 19.9024C18.6632 19.8845 20.5646 17.6203 20.9971 15.7169C21.2642 14.545 21.4276 13.3809 20.7758 10.3833C18.6632 10.7102 16.7358 10.4331 15.3844 8.89844C14.5095 9.96276 13.8099 10.1681 12.6578 10.3833Z" fill="#FBBD80"/>
<path fill-rule="evenodd" clip-rule="evenodd" d="M23.6779 30.0293L22.4501 31.2511C22.1589 31.5538 21.9993 31.9595 22.0061 32.3794C22.0129 32.7994 22.1855 33.1997 22.4863 33.4928C22.7871 33.786 23.1916 33.9483 23.6116 33.9443C24.0317 33.9403 24.433 33.7703 24.7282 33.4714L25.8703 32.2237L23.6779 30.0293Z" fill="#FBBD80"/>
<path fill-rule="evenodd" clip-rule="evenodd" d="M16.7174 23.751H18.9835L17.6541 26.3539L18.1425 31.1534L16.7174 33.8521L15.2903 31.1534L15.7786 26.3539L14.4492 23.751H16.7174Z" fill="#CB3745"/>
<path fill-rule="evenodd" clip-rule="evenodd" d="M17.6549 26.3545L18.1432 31.154L16.7181 33.8526L15.291 31.154L15.7793 26.3545H17.6549Z" fill="#FB4455"/>
<path fill-rule="evenodd" clip-rule="evenodd" d="M16.7182 23.7512L18.6757 24.9829C18.8153 25.0706 18.9448 25.1483 19.1103 25.1284C19.1901 25.1244 19.2677 25.1002 19.3357 25.058C19.4037 25.0158 19.4598 24.9571 19.4989 24.8873L21.6694 20.5642C20.9539 20.4008 20.1307 20.343 19.0724 20.335L16.7182 23.7512L14.7593 24.9829C14.6197 25.0706 14.4902 25.1483 14.3248 25.1284C14.2449 25.1244 14.1673 25.1002 14.0994 25.058C14.0314 25.0158 13.9752 24.9571 13.9362 24.8873L11.7656 20.5642C12.4811 20.4008 13.3043 20.343 14.3627 20.335L16.7182 23.7512Z" fill="white"/>
<path fill-rule="evenodd" clip-rule="evenodd" d="M31.2279 11.9778L28.9299 10.2997L26.6299 11.9778L27.5148 9.27318L25.2107 7.60495L28.0549 7.60895L28.9299 4.90234L29.8049 7.60895L32.649 7.60495L30.345 9.27318L31.2279 11.9778ZM2.20624 11.9778L4.50434 10.2997L6.8044 11.9778L5.91945 9.27318L8.22352 7.60495L5.37931 7.60895L4.50434 4.90234L3.63134 7.60895L0.785156 7.60495L3.09141 9.27318L2.20624 11.9778ZM3.70312 19.8366L5.47697 18.5429L7.25088 19.8366L6.56885 17.7499L8.34677 16.4624L6.15035 16.4664L5.47669 14.3776L4.80302 16.4664L2.60857 16.4624L4.38677 17.7499L3.70312 19.8366ZM29.7311 19.8366L27.9573 18.5429L26.1834 19.8366L26.867 17.7499L25.0872 16.4624L27.2836 16.4664L27.9573 14.3776L28.6309 16.4664L30.8274 16.4624L29.0475 17.7499L29.7311 19.8366Z" fill="#FFD23B"/>
<path fill-rule="evenodd" clip-rule="evenodd" d="M13.1503 9.63379C14.5735 6.48667 18.5912 8.76676 22.3529 7.84201C22.2911 6.30533 22.0399 5.09547 21.3782 5.32869C17.4478 6.70787 13.055 3.98333 11.5522 7.30384C11.2752 7.91971 10.9802 9.07375 11.0519 12.0355C11.2228 11.8451 11.4383 11.7001 11.679 11.6134C11.9197 11.5268 12.1782 11.5013 12.4312 11.5392C12.493 11.1864 12.5667 10.8017 12.6584 10.3832C12.7461 10.3673 12.8318 10.3513 12.9155 10.3334C12.9724 10.0935 13.0511 9.85933 13.1507 9.63379H13.1503Z" fill="#366295"/>
<path fill-rule="evenodd" clip-rule="evenodd" d="M12.927 14.4297C12.8603 13.8076 12.861 13.1801 12.929 12.5581C12.953 12.311 12.9848 12.0479 13.0287 11.7609C13.0945 11.3144 13.1861 10.8141 13.3078 10.2461C13.1821 10.278 13.0506 10.3059 12.9151 10.3338C12.8314 10.3518 12.7457 10.3677 12.658 10.3836C12.5665 10.8022 12.4926 11.1869 12.4308 11.5396C12.365 11.9104 12.3171 12.2492 12.2813 12.5581C12.1918 13.2389 12.1791 13.9276 12.2434 14.6112C12.2854 14.9835 12.3499 15.3529 12.4367 15.7174C12.6859 16.8096 13.4154 18.0195 14.3621 18.8566C15.0657 19.4784 15.8868 19.895 16.7176 19.903C17.1855 19.8908 17.6444 19.7715 18.0589 19.5541C17.841 19.6123 17.6166 19.643 17.391 19.6455C16.2768 19.6336 15.1787 18.8882 14.3615 17.8956C13.7498 17.1522 13.2971 16.2732 13.1117 15.46C13.0311 15.1202 12.9692 14.7762 12.9264 14.4296L12.927 14.4297Z" fill="#E2AA73"/>
<path fill-rule="evenodd" clip-rule="evenodd" d="M9.73296 33.4713L8.10059 31.6875L7.56445 32.2236L8.70647 33.4713C8.91662 33.6863 9.18329 33.8374 9.47567 33.9072C9.76805 33.977 10.0742 33.9627 10.3588 33.8659C10.122 33.7855 9.90762 33.6503 9.73303 33.4713H9.73296Z" fill="#E2AA73"/>
<path fill-rule="evenodd" clip-rule="evenodd" d="M5.4872 28.8339C5.33316 28.6877 5.20996 28.5122 5.12485 28.3177C5.03975 28.1231 4.99447 27.9135 4.99168 27.7011C4.9889 27.4888 5.02866 27.2781 5.10864 27.0814C5.18861 26.8846 5.30717 26.7059 5.45732 26.5558C8.83935 23.1136 10.2088 21.5355 11.905 20.8415L11.7635 20.5645C9.58108 21.0628 8.37719 22.5396 4.43062 26.5558C4.28046 26.7059 4.16191 26.8846 4.08193 27.0814C4.00196 27.2781 3.9622 27.4888 3.96498 27.7011C3.96777 27.9135 4.01305 28.1231 4.09815 28.3177C4.18326 28.5122 4.30646 28.6877 4.4605 28.8339L7.56402 32.2242L8.10015 31.688L5.4872 28.8339Z" fill="#5F96E6"/>
<path fill-rule="evenodd" clip-rule="evenodd" d="M11.4902 23.9942V35.4646H12.5167V22.9678L11.4902 23.9942Z" fill="#5F96E6"/>
<path fill-rule="evenodd" clip-rule="evenodd" d="M22.4495 31.2511C22.1981 31.5091 22.0417 31.8447 22.0059 32.2031C21.9701 32.5615 22.057 32.9215 22.2524 33.224C22.4478 33.5266 22.7401 33.7539 23.0815 33.8687C23.4229 33.9836 23.7932 33.9791 24.1317 33.8561C23.8823 33.7649 23.6596 33.6127 23.4841 33.4134C23.3085 33.2141 23.1856 32.9741 23.1265 32.7151C23.0675 32.4561 23.0742 32.1865 23.146 31.9308C23.2178 31.6751 23.3525 31.4415 23.5377 31.2511L24.2194 30.5734L23.6773 30.0293L22.4495 31.2511Z" fill="#E2AA73"/>
<path fill-rule="evenodd" clip-rule="evenodd" d="M23.6772 30.0297L24.2193 30.5738L26.92 27.8851L22.1126 23.0777L22.0827 23.0479L22.0509 23.285L21.9512 24.0026L25.8338 27.8851L23.6772 30.0297Z" fill="#5F96E6"/>
<path fill-rule="evenodd" clip-rule="evenodd" d="M5.88359 18.2462L5.47697 18.5432L7.25088 19.8369L6.99572 19.0557L5.88359 18.2462ZM28.3638 18.2462L27.9573 18.5432L29.7311 19.8369L29.476 19.0557L28.3638 18.2462ZM26.8671 17.7499L26.1835 19.8366L27.2538 19.0554L27.6804 17.7499L25.9045 16.4643L25.0873 16.4624L26.8671 17.7499ZM27.2837 16.4664H28.0969L28.364 15.6392L27.9575 14.3776L27.2837 16.4664ZM28.93 10.3L31.228 11.9781L30.9729 11.1969L29.3365 10.003L28.93 10.3ZM27.7002 11.1969L28.3301 9.27346L26.026 7.60523H25.2107L27.5148 9.27346L26.6299 11.9781L27.7002 11.1969ZM28.057 7.60923H28.8702L29.3365 6.16227L28.93 4.90263L28.057 7.60923ZM6.54923 11.1966L4.91095 10.0027L4.50434 10.2997L6.8044 11.9778L6.54923 11.1966ZM3.27457 11.1966L3.90443 9.27318L1.6024 7.60495H0.785156L3.09141 9.27318L2.20624 11.9778L3.27457 11.1966ZM3.63134 7.60895H4.44443L4.91081 6.16199L4.50434 4.90234L3.63134 7.60895ZM4.80302 16.4664H5.61647L5.88366 15.6392L5.47704 14.3776L4.80302 16.4664ZM5.19966 17.7499L3.42405 16.4643L2.60885 16.4624L4.38677 17.7499L3.70312 19.8366L4.77342 19.0554L5.19966 17.7499Z" fill="#E6BD35"/>
<path d="M16.2224 3.83084V0.492188C16.2224 0.361651 16.2742 0.236461 16.3665 0.144158C16.4588 0.0518553 16.584 0 16.7145 0C16.8451 0 16.9703 0.0518553 17.0626 0.144158C17.1549 0.236461 17.2067 0.361651 17.2067 0.492188V3.83084C17.2067 3.96137 17.1549 4.08656 17.0626 4.17887C16.9703 4.27117 16.8451 4.32302 16.7145 4.32302C16.584 4.32302 16.4588 4.27117 16.3665 4.17887C16.2742 4.08656 16.2224 3.96137 16.2224 3.83084ZM13.344 4.02891C13.37 4.0881 13.4073 4.1416 13.454 4.18635C13.5007 4.2311 13.5557 4.26622 13.6159 4.28971C13.6761 4.3132 13.7404 4.32459 13.805 4.32325C13.8696 4.3219 13.9334 4.30783 13.9926 4.28186C14.0518 4.25588 14.1053 4.21849 14.15 4.17184C14.1948 4.12518 14.2299 4.07017 14.2534 4.00994C14.2769 3.94972 14.2883 3.88545 14.2869 3.82082C14.2856 3.75619 14.2715 3.69245 14.2455 3.63326L13.2649 1.39873C13.2389 1.33953 13.2015 1.28603 13.1549 1.24128C13.1082 1.19653 13.0532 1.16141 12.993 1.13792C12.9327 1.11443 12.8685 1.10304 12.8038 1.10439C12.7392 1.10573 12.6755 1.1198 12.6163 1.14578C12.5571 1.17176 12.5036 1.20914 12.4588 1.25579C12.4141 1.30245 12.379 1.35746 12.3555 1.41769C12.332 1.47792 12.3206 1.54218 12.3219 1.60681C12.3233 1.67144 12.3374 1.73518 12.3633 1.79438L13.344 4.02891ZM24.6176 16.3554C24.6497 16.2565 24.7123 16.1703 24.7964 16.1091C24.8806 16.048 24.9819 16.0151 25.0859 16.0151H25.0867L26.9239 16.0185L27.4873 14.2715C27.5192 14.1723 27.5818 14.0858 27.666 14.0244C27.7502 13.963 27.8517 13.9299 27.9559 13.9299C28.0601 13.9299 28.1616 13.963 28.2458 14.0244C28.33 14.0858 28.3926 14.1723 28.4245 14.2715L28.9879 16.0185L30.8231 16.0151H30.8239C30.928 16.015 31.0295 16.048 31.1137 16.1092C31.1978 16.1704 31.2604 16.2568 31.2925 16.3558C31.3245 16.4548 31.3243 16.5615 31.2919 16.6604C31.2595 16.7593 31.1966 16.8454 31.1122 16.9064L29.6259 17.981L30.1976 19.7263C30.2301 19.8253 30.2303 19.932 30.1983 20.0311C30.1662 20.1302 30.1036 20.2166 30.0194 20.2778C29.9351 20.3391 29.8336 20.372 29.7295 20.3719C29.6253 20.3718 29.5239 20.3387 29.4398 20.2773L27.9559 19.1953L26.4723 20.2773C26.3882 20.3387 26.2868 20.3719 26.1827 20.372C26.0785 20.3721 25.977 20.3392 25.8928 20.278C25.8085 20.2168 25.7458 20.1305 25.7138 20.0314C25.6817 19.9323 25.6819 19.8256 25.7143 19.7267L26.2844 17.9812L24.7975 16.9061C24.7131 16.8451 24.6502 16.7589 24.6179 16.6599C24.5855 16.5609 24.5854 16.4542 24.6176 16.3551V16.3554ZM26.6106 17.0023L27.152 17.3938C27.2365 17.4549 27.2995 17.5413 27.3317 17.6405C27.364 17.7397 27.3639 17.8465 27.3315 17.9456L27.123 18.5839L27.6656 18.1882C27.7499 18.1268 27.8515 18.0937 27.9557 18.0937C28.06 18.0937 28.1616 18.1268 28.2458 18.1882L28.7868 18.5827L28.5782 17.9461C28.5457 17.8469 28.5456 17.74 28.5778 17.6407C28.6101 17.5414 28.673 17.455 28.7576 17.3938L29.299 17.0023L28.6303 17.0035H28.6294C28.5252 17.0035 28.4237 16.9705 28.3396 16.9092C28.2554 16.8479 28.1928 16.7614 28.1609 16.6623L27.9556 16.0262L27.7504 16.6623C27.7185 16.7614 27.6559 16.8479 27.5718 16.9092C27.4876 16.9705 27.3861 17.0035 27.282 17.0035H27.281L26.6106 17.0023ZM19.4387 4.28168C19.4979 4.30767 19.5617 4.32174 19.6263 4.32308C19.691 4.32443 19.7553 4.31302 19.8155 4.28951C19.8757 4.26601 19.9307 4.23086 19.9774 4.18608C20.024 4.14131 20.0614 4.08778 20.0874 4.02855L21.0681 1.79438C21.1206 1.67481 21.1234 1.53931 21.0759 1.41766C21.0285 1.29602 20.9347 1.19821 20.8151 1.14574C20.6955 1.09328 20.56 1.09045 20.4384 1.1379C20.3167 1.18534 20.2189 1.27916 20.1665 1.39873L19.1858 3.63298C19.1598 3.69218 19.1458 3.75592 19.1444 3.82056C19.143 3.8852 19.1544 3.94947 19.1779 4.00971C19.2014 4.06994 19.2366 4.12496 19.2813 4.17161C19.3261 4.21826 19.3796 4.25564 19.4388 4.28161L19.4387 4.28168ZM24.7413 7.49531C24.7734 7.39645 24.836 7.3103 24.9201 7.2492C25.0042 7.1881 25.1055 7.1552 25.2094 7.15521H25.2105L27.6955 7.16048L28.4602 4.79348C28.4922 4.69442 28.5547 4.60805 28.6389 4.54679C28.7231 4.48553 28.8245 4.45253 28.9286 4.45254C29.0327 4.45255 29.1342 4.4856 29.2184 4.54693C29.3025 4.60826 29.3651 4.69471 29.397 4.79384L30.1598 7.16048L32.6466 7.15521H32.6476C32.7516 7.15518 32.853 7.18814 32.9372 7.24936C33.0214 7.31058 33.084 7.3969 33.116 7.49592C33.148 7.59494 33.1479 7.70157 33.1155 7.80048C33.0831 7.89939 33.0202 7.98549 32.9359 8.04642L30.9209 9.50414L31.6943 11.8674C31.7268 11.9664 31.727 12.0731 31.6949 12.1722C31.6628 12.2714 31.6001 12.3577 31.5159 12.4189C31.4316 12.4802 31.33 12.513 31.2259 12.5129C31.1217 12.5127 31.0203 12.4795 30.9362 12.418L28.9285 10.9519L26.9187 12.4183C26.8346 12.4798 26.7332 12.513 26.629 12.5131C26.5248 12.5132 26.4233 12.4803 26.339 12.4191C26.2547 12.3578 26.1921 12.2714 26.16 12.1723C26.128 12.0732 26.1282 11.9665 26.1607 11.8675L26.9341 9.50407L24.9208 8.04642C24.8364 7.98537 24.7736 7.89912 24.7413 7.80009C24.7091 7.70106 24.709 7.59435 24.7413 7.49531ZM26.7332 8.1431L27.802 8.9171C27.8864 8.97824 27.9493 9.06463 27.9815 9.1638C28.0137 9.26298 28.0136 9.36982 27.9811 9.46891L27.5707 10.7235L28.6382 9.94458C28.7225 9.88305 28.8241 9.84989 28.9285 9.84989C29.0328 9.84989 29.1344 9.88305 29.2187 9.94458L30.284 10.7227L29.8739 9.46898C29.8415 9.36986 29.8413 9.26299 29.8736 9.1638C29.9058 9.06461 29.9687 8.97822 30.0533 8.9171L31.1228 8.14324L29.8026 8.14605H29.8015C29.6974 8.14607 29.5959 8.11302 29.5117 8.05168C29.4275 7.99033 29.3649 7.90385 29.333 7.80469L28.9281 6.54827L28.5221 7.80504C28.4901 7.90413 28.4276 7.99052 28.3434 8.0518C28.2592 8.11307 28.1578 8.14608 28.0536 8.14605H28.0526L26.7332 8.1431ZM3.41206 20.2777C3.3278 20.2165 3.26514 20.1301 3.23307 20.0311C3.201 19.932 3.20119 19.8253 3.2336 19.7263L3.80524 17.9812L2.31708 16.9062C2.23262 16.8453 2.16964 16.7592 2.13722 16.6602C2.10479 16.5613 2.10459 16.4546 2.13663 16.3555C2.16867 16.2565 2.23131 16.1701 2.31553 16.1089C2.39976 16.0476 2.50123 16.0147 2.60536 16.0148H2.60628L4.44354 16.0182L5.00696 14.2712C5.03888 14.172 5.10144 14.0856 5.18563 14.0243C5.26982 13.9629 5.37129 13.9299 5.47545 13.9299C5.57961 13.9299 5.68108 13.9629 5.76527 14.0243C5.84945 14.0856 5.91201 14.172 5.94394 14.2712L6.50749 16.0182L8.34469 16.0148H8.3456C8.44973 16.0147 8.55121 16.0476 8.63543 16.1089C8.71966 16.1701 8.7823 16.2565 8.81434 16.3555C8.84638 16.4546 8.84617 16.5613 8.81375 16.6602C8.78132 16.7592 8.71835 16.8453 8.63389 16.9062L7.14558 17.9812L7.71722 19.7263C7.7497 19.8253 7.74994 19.932 7.71792 20.0311C7.68589 20.1302 7.62324 20.2166 7.53898 20.2779C7.45473 20.3391 7.35322 20.3721 7.24905 20.372C7.14489 20.3719 7.04345 20.3387 6.95932 20.2773L5.47538 19.1953L3.99178 20.2774C3.90763 20.3388 3.80615 20.3719 3.70198 20.3719C3.5978 20.372 3.49629 20.339 3.41206 20.2777ZM4.13149 17.0022L4.67346 17.3936C4.75812 17.4547 4.82114 17.5412 4.85342 17.6405C4.8857 17.7398 4.88557 17.8468 4.85304 17.946L4.64449 18.5826L5.18534 18.1882C5.26957 18.1267 5.37113 18.0936 5.47538 18.0936C5.57963 18.0936 5.68119 18.1267 5.76542 18.1882L6.3064 18.5827L6.09785 17.946C6.06533 17.8468 6.06519 17.7398 6.09748 17.6405C6.12976 17.5412 6.19278 17.4547 6.27743 17.3936L6.81954 17.0022L6.15017 17.0035H6.14925C6.0451 17.0035 5.94364 16.9704 5.85945 16.9091C5.77527 16.8478 5.7127 16.7614 5.68076 16.6622L5.47552 16.0261L5.27042 16.6622C5.23847 16.7614 5.17589 16.8478 5.09169 16.9091C5.0075 16.9705 4.90601 17.0035 4.80185 17.0035H4.80087L4.13149 17.0022ZM2.20493 12.513C2.12717 12.513 2.05051 12.4946 1.98123 12.4593C1.91195 12.424 1.85202 12.3727 1.80636 12.3098C1.7607 12.2468 1.7306 12.174 1.71853 12.0972C1.70647 12.0203 1.71277 11.9417 1.73693 11.8678L2.50854 9.50428L0.494861 8.04642C0.410519 7.98545 0.347672 7.89932 0.315352 7.80039C0.283032 7.70147 0.282901 7.59484 0.314978 7.49584C0.347055 7.39683 0.40969 7.31054 0.493882 7.24937C0.578075 7.18819 0.679493 7.15528 0.783565 7.15535H0.784619L3.27143 7.16062L4.03418 4.79398C4.06611 4.69485 4.12866 4.6084 4.21283 4.54707C4.297 4.48574 4.39846 4.45269 4.5026 4.45268C4.60672 4.45265 4.70816 4.48564 4.79234 4.54691C4.87652 4.60817 4.9391 4.69455 4.9711 4.79363L5.73581 7.16062L8.22094 7.15535H8.22192C8.326 7.15526 8.42743 7.18816 8.51163 7.24933C8.59584 7.31051 8.65848 7.39679 8.69057 7.4958C8.72266 7.59481 8.72253 7.70144 8.69021 7.80038C8.65789 7.89931 8.59505 7.98545 8.5107 8.04642L6.49737 9.50407L7.27081 11.8675C7.3033 11.9665 7.30354 12.0732 7.27149 12.1724C7.23944 12.2715 7.17676 12.3579 7.09248 12.4192C7.00819 12.4804 6.90664 12.5133 6.80245 12.5132C6.69826 12.513 6.59681 12.4798 6.5127 12.4183L4.50288 10.9519L2.49532 12.4182C2.41098 12.4798 2.3092 12.513 2.20472 12.513H2.20493ZM3.37634 8.91724C3.46077 8.97833 3.52363 9.06465 3.55586 9.16375C3.58809 9.26286 3.58804 9.36963 3.55571 9.4687L3.14599 10.7236L4.21242 9.94486C4.29669 9.88333 4.39833 9.85017 4.50267 9.85017C4.60702 9.85017 4.70866 9.88333 4.79292 9.94486L5.86048 10.7236L5.44999 9.46906C5.41756 9.36996 5.41743 9.26312 5.44963 9.16395C5.48182 9.06477 5.54469 8.97838 5.62915 8.91724L6.6979 8.14324L5.37856 8.14605H5.37814C5.27403 8.14606 5.1726 8.11305 5.08843 8.05178C5.00426 7.9905 4.94169 7.90412 4.90971 7.80504L4.50331 6.54827L4.09845 7.80469C4.06652 7.90385 4.00396 7.99033 3.91976 8.05168C3.83556 8.11302 3.73406 8.14607 3.62988 8.14605H3.6289L2.30745 8.14324L3.37634 8.91724ZM18.606 13.6047C18.7791 13.4512 18.8959 13.416 19.1304 13.6132C19.2303 13.6972 19.3596 13.7382 19.4896 13.7269C19.6197 13.7157 19.74 13.6533 19.8241 13.5533C19.9081 13.4534 19.949 13.3242 19.9378 13.1941C19.9266 13.064 19.8641 12.9437 19.7642 12.8597C19.1765 12.3653 18.5162 12.3683 17.9526 12.8682C17.8549 12.9548 17.7957 13.0767 17.7879 13.2071C17.7801 13.3374 17.8244 13.4655 17.9111 13.5631C17.9977 13.6608 18.1196 13.7201 18.2499 13.7279C18.3803 13.7356 18.5084 13.6913 18.606 13.6047ZM15.16 16.767C15.1172 16.8154 15.0843 16.8718 15.0633 16.933C15.0422 16.9941 15.0335 17.0588 15.0374 17.1233C15.0414 17.1878 15.058 17.251 15.0864 17.3091C15.1148 17.3671 15.1543 17.4191 15.2028 17.4619C15.6787 17.8828 16.1854 18.0933 16.6982 18.0933C17.2072 18.0933 17.7222 17.8857 18.2185 17.4708C18.2681 17.4293 18.309 17.3784 18.3389 17.3211C18.3689 17.2638 18.3872 17.2012 18.393 17.1368C18.3987 17.0724 18.3917 17.0075 18.3724 16.9458C18.353 16.8841 18.3217 16.8268 18.2802 16.7772C18.2388 16.7276 18.1879 16.6867 18.1306 16.6568C18.0733 16.6268 18.0107 16.6084 17.9463 16.6027C17.8819 16.597 17.817 16.604 17.7553 16.6233C17.6936 16.6427 17.6363 16.674 17.5867 16.7155C16.9593 17.2402 16.4415 17.2428 15.8549 16.7243C15.8065 16.6815 15.7501 16.6486 15.689 16.6276C15.6278 16.6065 15.5631 16.5977 15.4986 16.6017C15.4341 16.6057 15.371 16.6223 15.3129 16.6507C15.2548 16.679 15.2028 16.7186 15.16 16.767ZM35.6621 35.7135C35.6228 35.799 35.5598 35.8715 35.4805 35.9223C35.4012 35.973 35.309 36 35.2149 36H22.0344C22.0189 36 22.0037 35.9991 21.9885 35.9977C21.9734 35.9991 21.9582 36 21.9427 36H11.4887C11.3582 36 11.233 35.9481 11.1407 35.8558C11.0484 35.7635 10.9965 35.6383 10.9965 35.5078V34.1389C10.5918 34.4063 10.1067 34.5245 9.62435 34.4734C9.142 34.4223 8.69245 34.205 8.35278 33.8587C8.34898 33.8549 8.34525 33.851 8.34174 33.847L4.10506 29.2205C3.9065 29.0281 3.7482 28.7982 3.63937 28.544C3.53054 28.2899 3.47336 28.0166 3.47114 27.7402C3.46893 27.4638 3.52174 27.1896 3.62649 26.9338C3.73124 26.6779 3.88584 26.4455 4.08129 26.25C4.55534 25.7674 4.99362 25.3191 5.39613 24.9049C7.42444 22.8236 8.64872 21.5673 9.87349 20.8388C10.4179 20.5129 11.0103 20.275 11.6289 20.1337C11.6424 20.1298 11.6561 20.1267 11.6697 20.1241C12.3427 19.9716 13.0735 19.9112 13.9322 19.8934V19.182C12.9597 18.2867 12.2211 17.0404 11.9553 15.8708C11.8991 15.6235 11.8472 15.3742 11.8058 15.1083C11.4892 15.0457 11.1921 14.9089 10.9388 14.7091C10.6855 14.5092 10.4833 14.2521 10.3488 13.9588C10.2143 13.6655 10.1514 13.3444 10.1653 13.0221C10.1792 12.6997 10.2694 12.3853 10.4286 12.1046C10.4669 12.0381 10.5089 11.9737 10.5543 11.9118C10.4946 8.86655 10.8365 7.73374 11.1017 7.14621C11.57 6.11079 12.3344 5.48951 13.4386 5.24658C14.3674 5.04218 15.435 5.12184 16.5652 5.20629C18.1041 5.32111 19.6952 5.43973 21.2136 4.90704C21.3553 4.85318 21.5086 4.83673 21.6586 4.85926C21.8086 4.8818 21.9502 4.94257 22.0699 5.03571C22.4014 5.29017 22.7901 5.87109 22.8523 8.12327C22.8862 9.34741 22.8147 10.7293 22.7415 11.7437C22.9833 12.011 23.1498 12.3376 23.2241 12.6903C23.2984 13.0429 23.2778 13.409 23.1644 13.7511C23.0509 14.0932 22.8488 14.399 22.5785 14.6374C22.3082 14.8759 21.9795 15.0383 21.6259 15.1081C21.5845 15.3701 21.5327 15.6192 21.476 15.8701C21.2103 17.0398 20.4716 18.286 19.4991 19.1814V19.8934C20.3569 19.9112 21.0875 19.9716 21.76 20.1238C21.774 20.1265 21.7886 20.1298 21.8029 20.1339C22.4206 20.2751 23.0123 20.5127 23.556 20.838C24.78 21.5658 26.0029 22.8205 28.0297 24.8993C28.4349 25.315 28.8738 25.7654 29.3534 26.2533C29.55 26.4492 29.7051 26.6828 29.8094 26.9401C29.9137 27.1973 29.9651 27.473 29.9604 27.7505C29.9577 27.9937 29.9125 28.2344 29.8268 28.462L35.5886 35.1873C35.6499 35.2588 35.6894 35.3464 35.7025 35.4396C35.7155 35.5329 35.7015 35.6279 35.6621 35.7135ZM19.3281 20.8751L17.4117 23.6507L18.936 24.6094C18.9758 24.6362 19.0173 24.6603 19.0604 24.6815C19.0654 24.6807 19.0697 24.6799 19.0734 24.6792L20.9338 20.972C20.4008 20.9092 19.8648 20.8768 19.3281 20.8751ZM17.7892 25.0511L16.7146 24.3756L15.6418 25.0506L16.0789 25.9045H17.3524L17.7892 25.0511ZM17.2086 26.8894H16.2227L15.7944 31.0983L16.715 32.843L17.637 31.0982L17.2086 26.8894ZM16.7148 22.9271L18.5143 20.3208V19.9125C17.9477 20.2379 17.3385 20.4334 16.7196 20.4398H16.7094C16.0912 20.4335 15.4828 20.2383 14.9168 19.9133V20.3201L16.7148 22.9271ZM21.75 12.1961C21.6976 12.1663 21.6428 12.141 21.5862 12.1203C21.6837 12.7557 21.729 13.398 21.7215 14.0407C21.8995 13.9465 22.047 13.8035 22.1466 13.6285C22.2147 13.5084 22.2585 13.3761 22.2754 13.2391C22.2923 13.1021 22.282 12.9631 22.2452 12.8301C22.2084 12.697 22.1457 12.5726 22.0607 12.4638C21.9757 12.355 21.8701 12.264 21.75 12.1961ZM11.8469 12.1177C11.657 12.1853 11.4904 12.306 11.3672 12.4655C11.2439 12.6251 11.1691 12.8166 11.1516 13.0175C11.1342 13.2183 11.1748 13.4199 11.2687 13.5983C11.3625 13.7767 11.5057 13.9244 11.6811 14.0238C11.6914 14.0297 11.7022 14.0349 11.7126 14.0405C11.7057 13.397 11.7506 12.754 11.8469 12.1177ZM12.5663 9.94219C13.7053 9.72928 14.2448 9.5509 15.0031 8.62861C15.0484 8.5735 15.1051 8.5289 15.1693 8.49788C15.2335 8.46686 15.3037 8.45017 15.375 8.44896C15.4462 8.44853 15.5167 8.46318 15.5818 8.49195C15.6469 8.52072 15.7052 8.56296 15.7528 8.61588C16.8422 9.85338 18.4603 10.2859 20.6994 9.93966C20.8234 9.92046 20.95 9.9493 21.0534 10.0203C21.1567 10.0913 21.2291 10.199 21.2558 10.3216C21.3138 10.5888 21.3652 10.8409 21.4111 11.081C21.5409 11.0925 21.6693 11.1168 21.7943 11.1534C21.8512 10.2429 21.8953 9.14562 21.8685 8.15955C21.8218 6.44351 21.5839 5.9663 21.4997 5.85C19.7954 6.43458 18.0415 6.30366 16.492 6.18799C14.0972 6.00933 12.7079 5.98451 11.999 7.55142C11.6875 8.24189 11.5336 9.43523 11.5317 11.1843C11.6898 11.1294 11.8541 11.0943 12.0208 11.0799C12.0666 10.8397 12.1177 10.5877 12.1755 10.3215C12.1961 10.2268 12.2442 10.1403 12.3137 10.0729C12.3832 10.0054 12.471 9.95994 12.5663 9.94219ZM14.7209 18.5625C14.7393 18.5761 14.7567 18.5911 14.7729 18.6071C15.3727 19.1142 16.0505 19.4468 16.7146 19.4553C17.3826 19.4468 18.0637 19.1114 18.6658 18.6004C18.6785 18.5883 18.6918 18.5768 18.7057 18.5661C19.5815 17.8071 20.2828 16.6789 20.5159 15.6529C20.7593 14.5749 20.9041 13.5309 20.3869 10.9755C18.2569 11.2193 16.616 10.7878 15.3984 9.66171C14.6487 10.4224 13.9478 10.6663 13.0707 10.8473C12.521 13.5027 12.667 14.5608 12.9155 15.6528C13.1482 16.6769 13.8474 17.8031 14.7209 18.5625ZM12.4976 20.972L14.3581 24.6794C14.3618 24.6801 14.366 24.6809 14.3708 24.6816C14.4125 24.6612 14.4527 24.6379 14.4913 24.612L16.0179 23.6512L14.1039 20.8751C13.5671 20.8767 13.0307 20.909 12.4976 20.9716V20.972ZM10.9409 32.4211C10.9434 32.2773 10.9173 32.1345 10.8643 32.0009C10.8114 31.8672 10.7324 31.7454 10.6322 31.6424L9.75558 30.7699L8.2433 32.2823L9.06146 33.1758C9.2656 33.3814 9.54251 33.4983 9.83222 33.5012C10.1219 33.5042 10.4012 33.3929 10.6095 33.1915C10.713 33.0914 10.7955 32.9718 10.8524 32.8395C10.9093 32.7073 10.9394 32.5651 10.9409 32.4211ZM10.9964 25.2259L8.29512 27.9271L10.9961 30.6155L10.9964 25.2259ZM22.2909 23.6894L26.1792 27.58C26.2249 27.6258 26.2612 27.6801 26.286 27.7399C26.3107 27.7997 26.3234 27.8638 26.3233 27.9286C26.3232 27.9933 26.3104 28.0574 26.2855 28.1171C26.2607 28.1769 26.2243 28.2311 26.1784 28.2768L24.3728 30.0748L25.8535 31.5555L28.6111 28.5443C28.6187 28.5359 28.6267 28.5278 28.635 28.5199C28.7054 28.4526 28.7665 28.3762 28.8168 28.2928C28.823 28.2819 28.8297 28.2712 28.8368 28.2608C28.9531 28.0516 28.9982 27.8102 28.9652 27.5732C28.9322 27.3361 28.823 27.1162 28.654 26.9467C28.1705 26.4545 27.7305 26.0034 27.3244 25.5868C24.6244 22.8165 23.4899 21.6536 21.9308 21.1801L19.9369 25.1532C19.8615 25.2966 19.7508 25.4185 19.6152 25.5074C19.4796 25.5962 19.3236 25.649 19.162 25.6609C19.1255 25.6653 19.0887 25.6675 19.0519 25.6675C18.9059 25.6661 18.762 25.6319 18.6309 25.5675L18.1577 26.4921L18.6314 31.1468C18.6412 31.2434 18.6222 31.3407 18.5768 31.4266L17.1495 34.1273C17.1077 34.2065 17.045 34.2727 16.9683 34.319C16.8916 34.3652 16.8038 34.3896 16.7142 34.3896C16.6246 34.3896 16.5367 34.3651 16.46 34.3188C16.3833 34.2726 16.3207 34.2062 16.2789 34.127L14.8539 31.4264C14.8086 31.3406 14.7896 31.2433 14.7994 31.1468L15.2731 26.4921L14.7999 25.5675C14.668 25.6318 14.5233 25.6659 14.3766 25.6672C14.1972 25.6661 14.0213 25.618 13.8663 25.5277C13.7114 25.4374 13.5828 25.308 13.4935 25.1525L11.5 21.1798C9.9391 21.6536 8.8039 22.8181 6.10003 25.5925C5.6963 26.0073 5.2586 26.4568 4.78048 26.9438C4.6762 27.0473 4.59373 27.1707 4.53794 27.3066C4.48215 27.4426 4.45417 27.5883 4.45566 27.7353C4.45714 27.8822 4.48807 28.0274 4.5466 28.1622C4.60513 28.297 4.69008 28.4187 4.79644 28.5201C4.80467 28.528 4.81268 28.536 4.82028 28.5444L7.57786 31.5556L9.05801 30.0755L7.25098 28.2771C7.20507 28.2314 7.16862 28.1771 7.14372 28.1174C7.11882 28.0576 7.10597 27.9935 7.10589 27.9287C7.10581 27.864 7.11851 27.7998 7.14326 27.74C7.16802 27.6802 7.20433 27.6258 7.25014 27.58L11.1407 23.6894C11.2096 23.6205 11.2973 23.5735 11.3928 23.5545C11.4884 23.5355 11.5874 23.5452 11.6774 23.5825C11.7674 23.6198 11.8443 23.6829 11.8984 23.7639C11.9524 23.8449 11.9813 23.9402 11.9812 24.0376V35.0156H21.4504V24.0372C21.4503 23.9398 21.4792 23.8446 21.5333 23.7636C21.5873 23.6826 21.6643 23.6195 21.7543 23.5822C21.8443 23.5449 21.9433 23.5352 22.0388 23.5542C22.1343 23.5733 22.2221 23.6203 22.2909 23.6892V23.6894ZM22.4905 32.4211C22.492 32.565 22.522 32.7073 22.5789 32.8395C22.6358 32.9717 22.7184 33.0914 22.8219 33.1914C23.0301 33.3929 23.3094 33.5042 23.5991 33.5013C23.8888 33.4983 24.1658 33.3814 24.3699 33.1758L25.1881 32.2823L23.6755 30.7695L22.7991 31.6422C22.6988 31.7452 22.6199 31.8671 22.567 32.0008C22.514 32.1345 22.488 32.2773 22.4905 32.4211ZM25.1343 27.9271L22.4349 25.2264V30.6154L25.1343 27.9271ZM34.1449 35.0156L29.2511 29.3036L25.0901 33.847C25.0865 33.851 25.0831 33.8549 25.079 33.8587C24.7393 34.2049 24.2897 34.4222 23.8074 34.4733C23.3251 34.5244 22.84 34.4062 22.4352 34.1389V35.0156H34.1449ZM14.8362 13.614C14.9363 13.6978 15.0656 13.7383 15.1956 13.7268C15.3257 13.7152 15.4458 13.6525 15.5296 13.5524C15.6134 13.4523 15.6539 13.323 15.6424 13.1929C15.6308 13.0629 15.5681 12.9427 15.468 12.859C14.8793 12.3662 14.2192 12.3696 13.6574 12.8682C13.5598 12.9548 13.5005 13.0767 13.4927 13.2071C13.4849 13.3374 13.5292 13.4655 13.6159 13.5631C13.7025 13.6608 13.8244 13.7201 13.9548 13.7279C14.0851 13.7356 14.2132 13.6913 14.3108 13.6047C14.4868 13.4486 14.5986 13.4152 14.8362 13.614Z" fill="black"/>
</g>
<defs>
<clipPath id="clip0_87_6080">
<rect width="36" height="36" fill="white"/>
</clipPath>
</defs>
</svg>
