<svg width="30" height="30" viewBox="0 0 30 30" fill="none" xmlns="http://www.w3.org/2000/svg">
<path d="M16.0983 22.7822C16.3207 22.6445 16.5044 22.4516 16.6319 22.2219C16.7594 21.9922 16.8265 21.7333 16.8266 21.4701V15.4598H16.0983V22.7822Z" fill="#D40815"/>
<path d="M11.4718 11.7594C10.8168 11.7599 10.1827 11.5274 9.68086 11.1029C9.877 11.6872 10.1237 12.2531 10.418 12.7939C11.1347 14.1045 12.0029 14.9513 12.6299 14.9513H16.3717C16.6649 14.6727 17.853 13.4522 18.126 11.7594H11.4718Z" fill="#D40815"/>
<path d="M11.4718 11.2509H18.5282C18.9949 11.2503 19.4503 11.1063 19.8338 10.838C20.2173 10.5698 20.5107 10.19 20.6749 9.74924C20.7683 9.27114 20.8172 8.78527 20.8208 8.29799V2.31286C20.8201 1.69967 20.5784 1.11179 20.1486 0.678201C19.7188 0.244609 19.136 0.00070652 18.5282 0H11.4718C10.864 0.00070652 10.2812 0.244609 9.85143 0.678201C9.42163 1.11179 9.17986 1.69967 9.17916 2.31286V8.29799C9.18282 8.78525 9.23169 9.2711 9.32514 9.74917C9.48927 10.1899 9.78264 10.5697 10.1661 10.838C10.5497 11.1063 11.0051 11.2503 11.4718 11.2509ZM11.8135 2.50233C11.8135 2.4349 11.84 2.37024 11.8873 2.32256C11.9345 2.27488 11.9986 2.24809 12.0655 2.24809C12.1323 2.24809 12.1964 2.27488 12.2437 2.32256C12.2909 2.37024 12.3175 2.4349 12.3175 2.50233V4.91892H14.748V2.50233C14.748 2.4349 14.7745 2.37024 14.8218 2.32256C14.8691 2.27488 14.9332 2.24809 15 2.24809C15.0668 2.24809 15.1309 2.27488 15.1782 2.32256C15.2255 2.37024 15.252 2.4349 15.252 2.50233V4.91892H17.6825V2.50233C17.6825 2.4349 17.7091 2.37024 17.7563 2.32256C17.8036 2.27488 17.8677 2.24809 17.9345 2.24809C18.0014 2.24809 18.0655 2.27488 18.1127 2.32256C18.16 2.37024 18.1865 2.4349 18.1865 2.50233V7.92623C18.1865 7.99366 18.16 8.05832 18.1127 8.106C18.0655 8.15368 18.0014 8.18047 17.9345 8.18047C17.8677 8.18047 17.8036 8.15368 17.7563 8.106C17.7091 8.05832 17.6825 7.99366 17.6825 7.92623V5.42739H15.252V7.92623C15.252 7.99366 15.2255 8.05832 15.1782 8.106C15.1309 8.15368 15.0668 8.18047 15 8.18047C14.9332 8.18047 14.8691 8.15368 14.8218 8.106C14.7745 8.05832 14.748 7.99366 14.748 7.92623V5.42739H12.3175V7.92623C12.3175 7.99366 12.2909 8.05832 12.2437 8.106C12.1964 8.15368 12.1323 8.18047 12.0655 8.18047C11.9986 8.18047 11.9345 8.15368 11.8873 8.106C11.84 8.05832 11.8135 7.99366 11.8135 7.92623V2.50233Z" fill="#D40815"/>
<path d="M11.008 19.4893C10.5232 19.4898 10.0583 19.6844 9.71548 20.0302C9.37263 20.3761 9.17977 20.8451 9.17922 21.3342V24.5368C9.17977 25.0259 9.37263 25.4949 9.71547 25.8407C10.0583 26.1866 10.5232 26.3812 11.008 26.3818H18.992C19.4768 26.3812 19.9417 26.1866 20.2845 25.8407C20.6274 25.4949 20.8202 25.0259 20.8208 24.5368V21.3342C20.8202 20.8451 20.6274 20.3761 20.2845 20.0302C19.9417 19.6844 19.4768 19.4898 18.992 19.4893H17.3306V21.4703C17.33 22.0135 17.1159 22.5342 16.7352 22.9182C16.3545 23.3023 15.8383 23.5183 15.3 23.5189H14.7C14.1617 23.5183 13.6455 23.3023 13.2648 22.9182C12.8841 22.5342 12.67 22.0135 12.6694 21.4703V19.4893H11.008Z" fill="#D40815"/>
<path d="M21.1302 18.3744H17.3306V18.9808H18.992C19.6105 18.9815 20.2034 19.2297 20.6408 19.6709C21.0781 20.1121 21.3241 20.7102 21.3248 21.3342V24.5368C21.3241 25.1607 21.0781 25.7589 20.6408 26.2001C20.2034 26.6413 19.6105 26.8895 18.992 26.8902H11.008C10.3895 26.8895 9.79657 26.6413 9.35924 26.2001C8.9219 25.7589 8.6759 25.1607 8.6752 24.5368V21.3342C8.6759 20.7102 8.9219 20.1121 9.35924 19.6709C9.79658 19.2297 10.3895 18.9815 11.008 18.9808H12.6694V18.3744H8.86975C8.10892 18.3753 7.37949 18.6806 6.84149 19.2233C6.3035 19.766 6.00087 20.5019 6 21.2694V27.105C6.00087 27.8725 6.3035 28.6084 6.84149 29.1511C7.37949 29.6939 8.10892 29.9991 8.86975 30H21.1302C21.8911 29.9991 22.6205 29.6939 23.1585 29.1511C23.6965 28.6084 23.9991 27.8725 24 27.105V21.2694C23.9991 20.5019 23.6965 19.766 23.1585 19.2233C22.6205 18.6806 21.8911 18.3753 21.1302 18.3744Z" fill="#D40815"/>
<path d="M14.7 23.0102H15.3C15.3988 23.0101 15.4973 23.0004 15.5943 22.9812V15.4598H13.1734V21.4703C13.1739 21.8786 13.3349 22.27 13.6211 22.5587C13.9073 22.8474 14.2953 23.0097 14.7 23.0102Z" fill="#D40815"/>
<path d="M19.5819 12.7939C19.8762 12.2531 20.1229 11.6872 20.319 11.1029C19.8458 11.5029 19.2542 11.7328 18.6373 11.7566C18.4268 13.2318 17.6009 14.3633 17.0765 14.9513H17.3699C17.997 14.9513 18.8652 14.1045 19.5819 12.7939Z" fill="#D40815"/>
</svg>
