<svg width="36" height="36" viewBox="0 0 36 36" fill="none" xmlns="http://www.w3.org/2000/svg">
<path d="M21.7103 13.8721C20.9284 13.8721 20.2946 14.5059 20.2946 15.2878V15.541C20.1974 14.8538 19.6071 14.3252 18.8932 14.3252C18.1113 14.3252 17.4774 14.9591 17.4774 15.741V16.1941C17.4774 15.4122 16.8436 14.7783 16.0617 14.7783C15.2798 14.7783 14.6459 15.4122 14.6459 16.1941V17.4917C14.6459 16.7098 14.0121 16.0759 13.2302 16.0759C12.4483 16.0759 11.8145 16.7098 11.8145 17.4917V23.6527C11.8145 24.8682 12.3927 25.9482 13.2886 26.6343V35.4716H22.5644V25.9094C22.9188 25.3775 23.1258 24.7389 23.1258 24.0518V15.2877C23.126 14.5059 22.4922 13.8721 21.7103 13.8721Z" fill="#FFCEBF"/>
<path d="M13.4534 23.6529V17.4918C13.4534 17.0157 13.6892 16.5954 14.0496 16.3388C13.8182 16.174 13.5359 16.0762 13.2302 16.0762C12.4483 16.0762 11.8145 16.71 11.8145 17.4919V23.653C11.8145 24.8685 12.3927 25.9485 13.2886 26.6345V35.4718H14.9275V26.6344C14.0315 25.9484 13.4534 24.8685 13.4534 23.6529Z" fill="#FFB09E"/>
<path d="M21.6075 18.3828H19.2314C18.3906 18.3828 17.709 19.0644 17.709 19.9052C17.709 20.746 18.3906 21.4276 19.2314 21.4276H20.6059C19.2236 21.6483 18.1671 22.8456 18.1671 24.29V27.4069H20.4861C22.5279 27.4069 24.1831 25.7516 24.1831 23.7098V20.9585C24.1831 19.5359 23.03 18.3828 21.6075 18.3828Z" fill="#FFCEBF"/>
<path d="M20.4786 3.85567V11.5539H15.5227V3.85567H14.2129L18.0007 0.446289L21.7885 3.85567H20.4786Z" fill="#2D47EA"/>
<path d="M15.85 3.85567L18.8193 1.18309L18.0007 0.446289L14.2129 3.85567H15.5227V11.5539H17.1599V3.85567H15.85Z" fill="#DADEF9" fill-opacity="0.81"/>
<path d="M31.6446 10.302V18.0001H26.6887V10.302H25.3789L29.1666 6.89258L32.9544 10.302H31.6446Z" fill="#2D47EA"/>
<path d="M27.016 10.302L29.9852 7.62938L29.1666 6.89258L25.3789 10.302H26.6887V18.0001H28.3258V10.302H27.016Z" fill="#DADEF9" fill-opacity="0.81"/>
<path d="M9.31068 10.302V18.0001H4.35477V10.302H3.04492L6.83273 6.89258L10.6205 10.302H9.31068Z" fill="#2D47EA"/>
<path d="M4.68208 10.302L7.6513 7.62938L6.83273 6.89258L3.04492 10.302H4.35477V18.0001H5.99193V10.302H4.68208Z" fill="#DADEF9" fill-opacity="0.81"/>
<path d="M23.4794 18.7077V15.2878C23.4794 14.3134 22.6866 13.5205 21.7121 13.5205C21.0257 13.5205 20.4295 13.9138 20.137 14.4868C19.8149 14.1686 19.3734 13.9736 18.895 13.9736C18.2054 13.9736 17.6069 14.3706 17.3158 14.948C16.9955 14.6261 16.5524 14.4266 16.0636 14.4266C15.126 14.4266 14.3567 15.1605 14.2997 16.084C14.0029 15.8583 13.633 15.7242 13.2321 15.7242C12.2577 15.7242 11.4648 16.517 11.4648 17.4915V23.6525C11.4648 24.8814 11.9998 26.0198 12.9389 26.803V35.4714C12.9389 35.6655 13.0963 35.8229 13.2905 35.8229H22.5664C22.7606 35.8229 22.918 35.6655 22.918 35.4714V26.9479C23.9174 26.1965 24.5368 25.0048 24.5368 23.7094V20.958C24.5369 20.0543 24.125 19.2451 23.4794 18.7077ZM21.7121 14.2237C22.2989 14.2237 22.7763 14.7011 22.7763 15.2879V18.2741C22.4186 18.118 22.0242 18.0309 21.6096 18.0309H20.6623V15.5948C20.6623 15.562 20.6564 15.5309 20.6479 15.5007V15.288C20.6479 14.7011 21.1254 14.2237 21.7121 14.2237ZM17.8309 15.7409C17.8309 15.1541 18.3082 14.6768 18.895 14.6768C19.4219 14.6768 19.8747 15.0695 19.9483 15.5902C19.9505 15.6059 19.955 15.6206 19.9592 15.6354V18.0308H19.2335C18.6757 18.0308 18.1744 18.2761 17.8309 18.664V16.1941V16.0478V15.7409ZM14.9995 16.1941C14.9995 15.6073 15.4768 15.1299 16.0636 15.1299C16.6504 15.1299 17.1277 15.6073 17.1277 16.1941V19.2368C17.1277 19.8236 16.6504 20.301 16.0636 20.301C15.4768 20.301 14.9995 19.8236 14.9995 19.2368V17.4916V17.3454V16.1941ZM12.168 17.4916C12.168 16.9049 12.6454 16.4275 13.2322 16.4275C13.819 16.4275 14.2964 16.9049 14.2964 17.4916V19.7543C14.2964 20.3411 13.819 20.8185 13.2322 20.8185C12.6454 20.8185 12.168 20.3411 12.168 19.7543V17.4916ZM23.8337 23.7094C23.8337 25.1287 22.9344 26.3978 21.5959 26.8672C21.4127 26.9315 21.3162 27.1321 21.3805 27.3153C21.4313 27.46 21.5671 27.5507 21.7123 27.5507C21.7509 27.5507 21.7901 27.5443 21.8286 27.5308C21.9612 27.4843 22.0898 27.4306 22.2149 27.3716V35.12H13.6421V26.6342C13.6421 26.5248 13.5912 26.4217 13.5043 26.3551C12.6551 25.7048 12.168 24.7198 12.168 23.6527V21.1637C12.4643 21.388 12.8328 21.5216 13.2322 21.5216C13.9391 21.5216 14.5502 21.1042 14.8325 20.503C15.151 20.8128 15.5853 21.0041 16.0636 21.0041C16.6071 21.0041 17.094 20.7572 17.4185 20.3699C17.6081 21.1094 18.2384 21.6742 19.012 21.7657C18.2758 22.3639 17.8177 23.2757 17.8177 24.2896C17.8177 24.4838 17.9751 24.6412 18.1693 24.6412C18.3635 24.6412 18.5208 24.4838 18.5208 24.2896C18.5208 23.0386 19.4104 21.9867 20.6394 21.7788H22.0917C22.2859 21.7788 22.4433 21.6214 22.4433 21.4272C22.4433 21.2331 22.2859 21.0757 22.0917 21.0757H19.2336C18.5879 21.0757 18.0628 20.5504 18.0628 19.9048C18.0628 19.2592 18.588 18.734 19.2336 18.734H21.6097C22.836 18.734 23.8338 19.7317 23.8338 20.958V23.7094H23.8337Z" fill="black"/>
<path d="M14.2128 4.20723H15.1711V11.5538C15.1711 11.748 15.3284 11.9054 15.5226 11.9054H20.4785C20.6727 11.9054 20.8301 11.748 20.8301 11.5538V4.20723H21.7883C21.9339 4.20723 22.0644 4.11752 22.1165 3.98167C22.1687 3.84576 22.1317 3.69177 22.0235 3.59439L18.2358 0.185008C18.1022 0.0646328 17.899 0.0646328 17.7655 0.185008L13.9777 3.59439C13.8695 3.69177 13.8325 3.84576 13.8847 3.98167C13.9367 4.11759 14.0673 4.20723 14.2128 4.20723ZM18.0006 0.919281L20.8723 3.50411H20.4785C20.2843 3.50411 20.127 3.66154 20.127 3.85567V11.2023H15.8742V3.85567C15.8742 3.66154 15.7168 3.50411 15.5226 3.50411H15.1289L18.0006 0.919281Z" fill="black"/>
<path d="M33.1895 10.0407L29.4018 6.6313C29.2682 6.51092 29.0651 6.51092 28.9315 6.6313L25.1437 10.0407C25.0355 10.1381 24.9985 10.292 25.0507 10.428C25.1028 10.5639 25.2334 10.6535 25.3789 10.6535H26.3371V18.0001C26.3371 18.1943 26.4945 18.3517 26.6887 18.3517H31.6446C31.8388 18.3517 31.9962 18.1943 31.9962 18.0001V10.6535H32.9544C33.0999 10.6535 33.2305 10.5638 33.2826 10.428C33.3348 10.292 33.2977 10.1381 33.1895 10.0407ZM31.6445 9.9504C31.4503 9.9504 31.293 10.1078 31.293 10.302V17.6486H27.0402V10.302C27.0402 10.1078 26.8828 9.9504 26.6886 9.9504H26.2949L29.1666 7.36557L32.0383 9.9504H31.6445Z" fill="black"/>
<path d="M7.06781 6.6313C6.93421 6.51092 6.73108 6.51092 6.59748 6.6313L2.80975 10.0407C2.70154 10.1381 2.66455 10.292 2.71673 10.428C2.76883 10.5639 2.8994 10.6535 3.04495 10.6535H4.00316V18.0001C4.00316 18.1943 4.16052 18.3517 4.35473 18.3517H9.31063C9.50484 18.3517 9.6622 18.1943 9.6622 18.0001V10.6535H10.6205C10.766 10.6535 10.8966 10.5638 10.9487 10.428C11.0009 10.292 10.9639 10.1381 10.8557 10.0407L7.06781 6.6313ZM9.31063 9.9504C9.11643 9.9504 8.95907 10.1078 8.95907 10.302V17.6486H4.70629V10.302C4.70629 10.1078 4.54893 9.9504 4.35473 9.9504H3.96098L6.83268 7.36557L9.70445 9.9504H9.31063Z" fill="black"/>
</svg>
