<svg width="36" height="36" viewBox="0 0 36 36" fill="none" xmlns="http://www.w3.org/2000/svg">
<path fill-rule="evenodd" clip-rule="evenodd" d="M21.8065 17.3072C21.8065 17.3072 21.9685 20.3493 22.3195 25.8107C22.3195 25.8107 23.1835 26.4657 24.9302 27.3678C25.5848 26.2832 25.3903 26.1544 24.301 24.8828L24.9454 17.8591C25.099 16.184 25.3635 14.4804 26.0988 12.7555C26.0988 12.7555 28.1185 11.1693 32.1776 6.81975C32.4424 6.5072 32.4233 6.04374 32.1336 5.75408C31.8439 5.46443 31.3805 5.44527 31.0679 5.71009C29.1148 7.62767 27.5965 8.79551 26.5131 9.21368C25.6691 9.35595 24.815 9.31131 24.007 9.09481C23.1989 8.87831 22.437 8.48994 21.7772 7.94468C21.048 7.04079 20.3171 5.27024 19.5845 2.63303C19.4461 2.24739 19.0352 2.03226 18.6395 2.13831C18.2438 2.24437 17.9956 2.63612 18.0686 3.03925C19.4091 8.83568 20.3651 11.2192 20.3651 11.2192C20.1544 12.957 19.5331 14.5666 18.8228 16.1234L15.8584 22.6207C14.2792 23.1772 14.0464 23.1915 14.071 24.4582C16.0347 24.5503 17.1104 24.415 17.1104 24.415C20.1451 19.8608 21.8065 17.3072 21.8065 17.3072Z" fill="#FA6E85"/>
<path d="M26.3545 7.80026C26.5761 6.76844 25.9192 5.75238 24.8874 5.53082C23.8556 5.30926 22.8395 5.96611 22.618 6.99794C22.3964 8.02976 23.0533 9.04582 24.0851 9.26737C25.1169 9.48893 26.133 8.83208 26.3545 7.80026Z" fill="#F0B16E"/>
<path fill-rule="evenodd" clip-rule="evenodd" d="M14.1896 17.3072C14.1896 17.3072 14.0275 20.3493 13.6765 25.8107C13.6765 25.8107 12.8126 26.4657 11.0659 27.3678C10.4112 26.2832 10.6057 26.1544 11.695 24.8828L11.0507 17.8591C10.897 16.184 10.6326 14.4804 9.89722 12.7555C9.89722 12.7555 7.87755 11.1693 3.8184 6.81975C3.55366 6.5072 3.57274 6.04374 3.86247 5.75408C4.15212 5.46443 4.61552 5.44527 4.92814 5.71009C6.88121 7.62767 8.39948 8.79551 9.48293 9.21368C10.3269 9.35595 11.181 9.31131 11.989 9.09481C12.7971 8.87831 13.559 8.48994 14.2188 7.94468C14.948 7.04079 15.679 5.27024 16.4116 2.63303C16.5499 2.24739 16.9608 2.03226 17.3565 2.13831C17.7522 2.2443 18.0005 2.63612 17.9275 3.03925C16.587 8.83568 15.6309 11.2192 15.6309 11.2192C15.8416 12.957 16.463 14.5666 17.1733 16.1234L20.1376 22.6207C21.7168 23.1772 21.9496 23.1915 21.925 24.4582C19.9613 24.5503 18.8856 24.415 18.8856 24.415C15.851 19.8607 14.1896 17.3072 14.1896 17.3072Z" fill="#19CFBA"/>
<path fill-rule="evenodd" clip-rule="evenodd" d="M11.0629 5.54019C12.0819 5.26709 13.1295 5.87189 13.4025 6.89098C13.6756 7.91007 13.0708 8.9576 12.0517 9.23062C11.0326 9.50372 9.98509 8.89892 9.71206 7.87983C9.43897 6.86074 10.0438 5.81321 11.0629 5.54019Z" fill="#F0B16E"/>
<path d="M26.1954 23.0654C27.3229 18.5645 24.5883 14.0017 20.0873 12.8742C15.5864 11.7466 11.0236 14.4813 9.8961 18.9822C8.76855 23.4831 11.5032 28.0459 16.0041 29.1734C20.505 30.301 25.0678 27.5663 26.1954 23.0654Z" fill="#60B7FE"/>
<path fill-rule="evenodd" clip-rule="evenodd" d="M20.9331 19.5073C19.0094 19.7164 17.0691 19.7216 15.1445 19.5232C15.4369 17.2183 16.4031 14.9137 18.0398 12.6094C19.6728 14.9084 20.6383 17.2077 20.9331 19.5073Z" fill="#60B7FE"/>
<path fill-rule="evenodd" clip-rule="evenodd" d="M15.9564 26.8244L10.8335 22.8104C10.2732 22.3714 9.40082 22.4097 8.89451 22.8955C8.51342 22.4879 8.25911 22.0366 8.1046 21.5007L6.7227 16.7076C6.52406 16.0187 5.51807 15.8782 5.02372 16.3441C4.83436 16.5226 4.74904 16.7383 4.7723 16.98C5.01479 19.5035 4.95374 23.6724 6.33628 25.8156C7.33636 27.3658 8.68751 27.9018 10.0285 29.1656C11.2089 30.2778 11.6538 31.5121 11.7937 32.8225C11.859 33.4343 12.37 33.8936 12.9853 33.8936H20.6443L18.0403 30.0316C18.0403 28.4027 17.1087 27.8497 15.9564 26.8244Z" fill="#F0B16E"/>
<path fill-rule="evenodd" clip-rule="evenodd" d="M20.1249 26.8244L25.2479 22.8104C25.8081 22.3714 26.6805 22.4097 27.1868 22.8955C27.5679 22.4879 27.8222 22.0366 27.9767 21.5007L29.3586 16.7076C29.5572 16.0187 30.5633 15.8782 31.0576 16.3441C31.247 16.5226 31.3323 16.7383 31.309 16.98C31.0665 19.5035 31.1276 23.6724 29.745 25.8156C28.745 27.3658 27.3938 27.9018 26.0528 29.1656C24.8724 30.2778 24.4275 31.5121 24.2876 32.8225C24.2223 33.4343 23.7114 33.8936 23.096 33.8936H18.041V30.0316C18.041 28.4027 18.9726 27.8497 20.1249 26.8244Z" fill="#F0B16E"/>
<path fill-rule="evenodd" clip-rule="evenodd" d="M32.4763 5.408C32.0116 4.93842 31.2298 4.91423 30.7547 5.33759C30.7424 5.34911 30.7259 5.36149 30.7136 5.37424C29.7622 6.31448 28.9097 7.06854 28.1684 7.63813C27.5218 8.13688 26.9658 8.48896 26.4922 8.69495C27.3718 7.34264 26.6656 5.50628 25.1002 5.08681C23.5572 4.67332 22.0031 5.86405 22.0854 7.55296C21.7766 7.1378 21.4553 6.53732 21.13 5.75195C20.7717 4.88543 20.4134 3.80147 20.0509 2.50129C20.0468 2.47984 20.0386 2.45924 20.0303 2.43908C19.6948 1.59553 18.6546 1.36506 17.9999 1.94488C17.3181 1.34101 16.2336 1.62872 15.9448 2.50129C15.5824 3.80147 15.2241 4.885 14.8659 5.75195C14.557 6.50233 14.2522 7.08344 13.9515 7.49651C13.9975 6.59752 13.5248 5.75267 12.7572 5.30879L12.7531 5.31044V5.30879C12.2218 5.00279 11.5793 4.8986 10.941 5.06867V5.06946C9.35375 5.4944 8.64779 7.37245 9.57781 8.7262C9.09181 8.52604 8.51113 8.16323 7.82749 7.63813C7.08618 7.06854 6.23781 6.31448 5.2823 5.37424C5.0506 5.14067 4.67685 5.02482 4.36804 5.03778C3.70406 5.06564 3.18472 5.57908 3.15311 6.25638C3.13662 6.61004 3.23685 6.86384 3.46199 7.1476C7.02851 10.9658 9.03832 12.6762 9.49962 13.0514C9.73434 13.6296 9.92385 14.2103 10.0721 14.791C10.2162 15.3577 10.3233 15.9173 10.4057 16.4717C10.0556 17.0569 9.76732 17.6845 9.5655 18.3419L9.55729 18.3641C9.2937 19.2018 9.14956 20.0881 9.14956 20.9991C9.14956 21.371 9.17425 21.7511 9.22372 22.1362C9.14135 22.1654 9.06309 22.2001 8.98482 22.2399C8.79258 21.9421 8.67335 21.728 8.56888 21.3652L7.18914 16.5717C6.81726 15.2989 4.85044 15.2577 4.36804 16.4581C4.29806 16.6335 4.27329 16.823 4.28978 17.0227C4.54862 19.8506 4.50153 23.8649 5.92893 26.0754C7.69991 28.8179 10.8886 28.9177 11.3117 32.8707C11.4037 33.7298 12.1248 34.3765 12.9879 34.3765H23.0986C23.9556 34.3765 24.6817 33.7296 24.7707 32.8707C25.1787 28.933 28.3888 28.8079 30.1535 26.0754C31.5807 23.8652 31.5338 19.8506 31.7926 17.0227C31.8811 16.0558 30.8973 15.412 29.9475 15.6265C29.4491 15.7391 29.0421 16.0623 28.8933 16.5717L27.5136 21.3651C27.417 21.7007 27.2872 21.9627 27.0935 22.2399C27.0194 22.1999 26.9411 22.1654 26.8588 22.1361C26.9081 21.7511 26.9328 21.3709 26.9328 20.999C26.9328 20.053 26.7805 19.1334 26.4963 18.2677C26.4922 18.2615 26.4922 18.2553 26.488 18.2492C26.2739 17.5833 25.9773 16.9495 25.6108 16.3593C25.6931 15.8173 25.7961 15.2761 25.9361 14.7378C26.0844 14.1794 26.2656 13.6172 26.5004 13.0514C26.9575 12.6762 28.9714 10.9658 32.5339 7.1476C32.538 7.14061 32.5462 7.13442 32.5503 7.1278C32.7604 6.87616 32.8592 6.56396 32.8468 6.25638C32.8345 5.94628 32.711 5.64107 32.4763 5.408ZM23.1027 7.03146C23.3094 6.26675 24.0864 5.82157 24.8448 6.02454C26.0853 6.35646 26.2766 8.01138 25.1908 8.63605V8.63692C24.0868 9.26764 22.7746 8.24927 23.1027 7.03146ZM18 4.82977C18.976 8.78884 19.6886 10.7842 19.8698 11.2735L19.6886 12.2746C19.1926 12.1751 18.5558 12.121 18.0412 12.121C17.4022 12.121 16.9224 12.1793 16.3115 12.2903C16.2727 12.118 16.1211 11.3524 16.1302 11.2734C16.3115 10.7842 17.024 8.78876 18 4.82977ZM25.4173 18.1306C24.0788 18.5152 22.7157 18.7949 21.3442 18.9675C21.023 17.0228 20.2363 15.0826 18.9926 13.1469C19.1491 13.1659 19.3097 13.1889 19.4662 13.2169L19.9769 13.3269C21.6367 13.742 23.0698 14.6773 24.12 15.9355C24.6636 16.5887 25.1043 17.3304 25.4173 18.1306ZM25.9609 20.999C25.9609 21.3458 25.9362 21.6909 25.8909 22.036C25.5532 22.0813 25.2238 22.2106 24.9478 22.4265L20.5534 25.8695C21.3153 23.9548 21.6242 22.0373 21.4842 20.1181C21.4801 20.0551 21.4718 19.9929 21.4677 19.9307C22.8968 19.7495 24.3177 19.4575 25.7138 19.0547C25.8744 19.6796 25.9609 20.3314 25.9609 20.999ZM10.1915 22.036C10.0635 21.0609 10.1221 20.0374 10.3562 19.0959C11.7565 19.4917 13.1814 19.7747 14.6146 19.9476C14.6105 19.9847 14.6064 20.0221 14.6023 20.0588C14.4498 21.9985 14.7546 23.9346 15.5248 25.869L11.1346 22.4264C10.8587 22.2107 10.5251 22.0814 10.1915 22.036ZM11.9625 15.9355C13.2451 14.3972 15.0847 13.3834 17.0899 13.1469C15.842 15.0892 15.0554 17.0355 14.73 18.9868C13.3585 18.82 11.9913 18.5494 10.6487 18.1709C10.9658 17.3547 11.4106 16.5998 11.9625 15.9355ZM18.0412 13.4631C19.2767 15.337 20.0592 17.2064 20.3805 19.0716C19.5774 19.1445 18.7702 19.1803 17.963 19.1803V19.182C17.2093 19.182 16.4515 19.149 15.6979 19.0856C16.0191 17.2163 16.8016 15.3429 18.0412 13.4631ZM15.5702 20.1314C15.5702 20.1029 15.5743 20.0753 15.5743 20.0469C16.3691 20.1149 17.1681 20.1499 17.9629 20.1499V20.1515C18.8113 20.1515 19.6598 20.1128 20.5081 20.0358C20.5081 20.0856 20.5163 20.1359 20.5205 20.1857C20.6894 22.574 20.1087 24.9668 18.7702 27.3653C18.4819 27.6302 18.2389 27.897 18.0413 28.2022C17.8395 27.8925 17.5924 27.6219 17.3 27.3543L17.3041 27.3514C15.9573 24.9396 15.3848 22.5332 15.5702 20.1314ZM10.3233 6.67024V6.67067C10.7109 5.99185 11.5906 5.75468 12.2713 6.1468V6.14766C12.9522 6.54258 13.1865 7.4145 12.7943 8.09728C12.5007 8.60862 11.8619 8.91361 11.2664 8.77926C10.2867 8.55829 9.85242 7.48895 10.3233 6.67024ZM11.0152 14.5521C10.8463 13.8964 10.628 13.2338 10.3438 12.5629C10.3067 12.476 10.2491 12.4055 10.175 12.3557C9.94847 12.1724 7.97574 10.5576 4.18271 6.49729C4.0287 6.32212 4.15269 6.0154 4.40922 6.00517C4.47928 6.00229 4.54926 6.02368 4.61104 6.07062C5.59125 7.03477 6.46842 7.8123 7.23861 8.40493C8.03349 9.0178 8.72533 9.43662 9.31019 9.66313C9.33899 9.67465 9.37197 9.68329 9.40494 9.68826V9.68912C9.69733 9.73895 10.0021 9.76739 10.311 9.77516C10.591 9.78172 10.8711 9.76983 11.1388 9.74096C11.4765 9.80108 11.8307 9.78999 12.1767 9.6969C12.5432 9.5997 12.8603 9.42424 13.128 9.19283C13.3627 9.08288 13.5975 8.95969 13.8199 8.8226C14.0183 8.70013 14.483 8.39543 14.6148 8.22378C15.0019 7.73742 15.3849 7.03607 15.7638 6.12052C16.1345 5.22102 16.5052 4.1066 16.8758 2.7772C16.9485 2.57236 17.2683 2.51461 17.4112 2.73436C17.4483 2.79239 17.4648 2.86244 17.4565 2.93329C16.122 8.69488 15.183 11.0321 15.183 11.0378C15.1665 11.1193 15.1397 11.1077 15.15 11.2734C15.1662 11.5299 15.3045 12.2274 15.3724 12.5291C13.721 13.0476 12.2919 14.0323 11.217 15.3164C11.2088 15.3272 11.2005 15.3391 11.1923 15.3498C11.1387 15.0838 11.0811 14.8178 11.0152 14.5521ZM12.5102 33.2238C12.3825 33.1096 12.296 32.9507 12.2754 32.7679C12.1079 31.2315 11.5566 29.9285 10.3645 28.8101C9.07907 27.6041 7.67313 26.9837 6.7485 25.5508C5.7148 23.9541 5.52947 21.044 5.38115 18.6817C5.34407 18.0619 5.31117 17.4791 5.2576 16.9314C5.22174 16.5666 5.89717 16.4128 6.18013 16.7085C6.21721 16.7456 6.24191 16.7888 6.2584 16.8374L7.63806 21.6308C7.77947 22.1164 7.97999 22.5107 8.27641 22.9055C7.86587 23.5982 8.05854 24.4594 8.69646 24.9553L12.2754 27.7603C12.4895 27.9251 12.7902 27.888 12.9549 27.6772C13.1196 27.4667 13.0826 27.1628 12.8725 26.9984L9.28953 24.1926C8.71713 23.7118 9.14531 23.0191 9.8661 22.9871C10.1091 22.9764 10.3521 23.0431 10.5333 23.1889L15.6319 27.1817V27.1842C15.7595 27.2962 15.9243 27.4366 16.0849 27.5721C16.9251 28.2949 17.5552 28.8352 17.5552 30.0288V33.4054H12.9879C12.8026 33.4053 12.6337 33.337 12.5102 33.2238ZM28.4402 21.6308L29.8239 16.8374C29.9607 16.4013 30.8656 16.4984 30.8247 16.9313C30.5719 19.6058 30.632 23.5484 29.338 25.5507C28.0064 27.6114 25.5099 28.1116 24.3382 30.7177C24.0418 31.3795 23.8811 32.0648 23.807 32.7678C23.7676 33.1292 23.4611 33.4053 23.0986 33.4053H18.5271V30.0287C18.5271 28.8351 19.1572 28.2949 19.9974 27.5721C20.1581 27.4365 20.3228 27.2961 20.4505 27.1841V27.1817L25.5491 23.1888C26.1119 22.7421 27.0904 23.0804 27.0523 23.723C27.0417 23.9015 26.9439 24.0744 26.7928 24.1929L23.2098 26.9984C22.9998 27.1627 22.9627 27.4666 23.1274 27.6771C23.2922 27.888 23.5928 27.9251 23.807 27.7603L27.3859 24.9552C28.0238 24.4594 28.2165 23.5982 27.8059 22.9054C28.1021 22.511 28.3036 22.1166 28.4402 21.6308ZM31.8131 6.49729C28.0242 10.5577 26.0515 12.1725 25.8209 12.3557C25.7509 12.4055 25.689 12.476 25.652 12.5629C25.2753 13.4521 25.012 14.3495 24.8201 15.2691C23.737 13.9882 22.2955 13.0097 20.6317 12.5043C20.7246 12.0394 20.786 11.7762 20.85 11.2733L20.8459 11.2729C20.8541 11.1959 20.8459 11.1156 20.8171 11.0378C20.813 11.032 19.874 8.6948 18.5437 2.93315C18.5046 2.7075 18.7708 2.50662 18.9885 2.62758C19.0421 2.65969 19.0915 2.71074 19.1203 2.77705C19.4951 4.10646 19.8616 5.22095 20.2364 6.12037C20.6112 7.03592 20.9983 7.73728 21.3813 8.22364C21.5079 8.38924 22.0138 8.72231 22.1968 8.83564C22.4274 8.97769 22.6704 9.1029 22.9134 9.21371C23.1811 9.44353 23.4983 9.61856 23.8607 9.71497C24.2272 9.8134 24.5979 9.82002 24.9438 9.74917C25.2033 9.77307 25.4668 9.78215 25.7304 9.77387C26.0228 9.76479 26.311 9.73679 26.5952 9.68905V9.68819C26.6241 9.68322 26.657 9.67458 26.69 9.66306C27.2748 9.43655 27.9626 9.01772 28.7616 8.40486C29.5317 7.81223 30.4089 7.0347 31.3891 6.07055C31.5586 5.91884 31.8761 6.04304 31.8833 6.29461C31.8832 6.36546 31.8626 6.4376 31.8131 6.49729Z" fill="#1E2F3F"/>
</svg>
