<svg width="36" height="36" viewBox="0 0 36 36" fill="none" xmlns="http://www.w3.org/2000/svg">
<g clip-path="url(#clip0_87_5961)">
<path d="M21.4474 29.0094L13.5076 21.0696C13.0099 20.572 13.0094 19.7669 13.506 19.2704C13.7023 19.074 13.9476 18.955 14.2028 18.9149C14.5914 18.852 15.0048 18.971 15.3055 19.2717L13.261 17.2274C13.0124 16.9786 12.8874 16.6531 12.8877 16.3279C12.8877 16.2604 12.8932 16.1923 12.9039 16.1244C12.9448 15.869 13.0632 15.6243 13.2596 15.4279C13.454 15.2334 13.6949 15.1156 13.9465 15.0739C14.2893 15.0167 14.6502 15.1002 14.938 15.3246L14.1599 14.5465C13.9113 14.2979 13.7864 13.9711 13.7864 13.6459C13.7861 13.577 13.7919 13.5072 13.8034 13.4391C13.8441 13.1856 13.9624 12.942 14.158 12.7464C14.3544 12.55 14.5994 12.4314 14.8556 12.391C15.2443 12.3284 15.6576 12.4473 15.9584 12.7481L16.8494 13.639C16.5489 13.3386 16.4297 12.9249 16.4923 12.5363C16.5327 12.2811 16.6508 12.0364 16.8477 11.8395C17.344 11.3435 18.1499 11.3437 18.6473 11.8411L23.807 17.0011L23.8215 16.9805C24.083 16.7191 24.3912 16.5331 24.7199 16.4222C25.5316 16.1489 26.4651 16.3356 27.1125 16.983L29.5185 19.389C29.981 19.8515 30.2403 20.478 30.2414 21.1312L30.2428 22.6363C30.2433 23.3397 30.5232 24.0145 31.0214 24.5127L31.5581 25.0492L25.4214 31.1856L24.7359 30.5C24.2799 30.0441 23.6735 29.7694 23.0305 29.7274C22.4331 29.6881 21.8709 29.4332 21.4474 29.0094Z" fill="#FECBAA"/>
<path d="M25.0228 31.5835L31.9878 24.6185C32.2175 24.3889 32.5896 24.3889 32.819 24.6185L35.2997 27.0989C35.529 27.3285 35.529 27.7004 35.2997 27.93L28.3343 34.8954C28.1047 35.1247 27.7328 35.1247 27.5032 34.8954L25.0228 32.4147C24.7932 32.1853 24.7932 31.8132 25.0228 31.5835Z" fill="#FDD559"/>
<path d="M14.5511 29.0096L22.4909 21.0698C22.9886 20.5721 22.9889 19.7671 22.4923 19.2705C22.2959 19.0738 22.0507 18.9552 21.7958 18.9148C21.4069 18.8522 20.9938 18.9711 20.6928 19.2719L22.7373 17.2273C22.9859 16.9787 23.1108 16.653 23.1106 16.3278C23.1106 16.2602 23.1053 16.1921 23.0944 16.1246C23.0534 15.8691 22.9351 15.6244 22.7387 15.428C22.5445 15.2336 22.3033 15.1157 22.0518 15.074C21.709 15.0169 21.3481 15.1004 21.0602 15.3245L21.8383 14.5464C22.0869 14.2978 22.2119 13.9712 22.2119 13.6461C22.2122 13.5768 22.2064 13.5073 22.1949 13.4392C22.1542 13.1857 22.0358 12.9418 21.8403 12.7465C21.6439 12.5502 21.3989 12.4312 21.1429 12.3911C20.754 12.3285 20.3409 12.4472 20.0399 12.7479L19.1489 13.6389C19.4494 13.3387 19.5686 12.9251 19.506 12.5362C19.4659 12.2813 19.3475 12.0366 19.1505 11.8396C18.6542 11.3433 17.8484 11.3439 17.3513 11.841L12.1913 17.001L12.1767 16.9807C11.9152 16.7192 11.6071 16.5333 11.2783 16.4223C10.467 16.1487 9.53313 16.3358 8.88576 16.9831L6.48004 19.3891C6.01751 19.8517 5.75796 20.4782 5.75714 21.1313L5.75549 22.6364C5.75522 23.3401 5.47534 24.0147 4.97711 24.5129L4.44043 25.0493L10.5768 31.1857L11.2627 30.5001C11.7186 30.0442 12.325 29.7696 12.968 29.7275C13.5651 29.6883 14.1273 29.4331 14.5511 29.0096Z" fill="#FECBAA"/>
<path d="M10.9765 31.5848L4.01117 24.6195C3.78156 24.3899 3.4094 24.3899 3.18006 24.6195L0.699348 27.1002C0.470009 27.3295 0.470009 27.7017 0.699348 27.9313L7.66467 34.8963C7.89428 35.126 8.26617 35.126 8.49578 34.8963L10.9765 32.4159C11.2058 32.1863 11.2058 31.8141 10.9765 31.5848Z" fill="#FF84A7"/>
<path d="M23.0772 9.98174V21.2103C23.0772 21.9142 22.5084 22.4836 21.8058 22.4836C21.5281 22.4836 21.2708 22.3944 21.0618 22.2425C20.7426 22.0118 20.5344 21.6357 20.5344 21.2103V24.1016C20.5344 24.4532 20.3924 24.7718 20.1625 25.0017C20.1148 25.0495 20.0628 25.0937 20.0071 25.1338C19.7975 25.2857 19.541 25.3749 19.2633 25.3749C18.9884 25.3749 18.7346 25.2879 18.527 25.1396C18.2443 24.9377 18.0482 24.6235 18.0032 24.2612V25.3618C18.0032 25.7133 17.8604 26.0325 17.6305 26.2624C17.5821 26.3115 17.5286 26.3566 17.4723 26.3967C17.2641 26.5472 17.0084 26.6359 16.7318 26.6359C16.4541 26.6359 16.1968 26.5464 15.9872 26.3939C15.6681 26.1632 15.4599 25.7872 15.4599 25.3618V24.1016C15.4599 24.5262 15.2517 24.9033 14.9325 25.1338C14.7238 25.2857 14.467 25.3749 14.1887 25.3749C13.487 25.3749 12.9174 24.8047 12.9174 24.1016V16.8042L12.8926 16.8086C12.5229 16.8086 12.1733 16.7221 11.8627 16.568C11.0955 16.1876 10.5674 15.3952 10.5674 14.4798V11.0774C10.5674 10.4234 10.8269 9.7969 11.2881 9.3341L12.3513 8.26898C12.8484 7.77102 13.1275 7.09591 13.1275 6.39142V5.63281H21.8058V6.60235C21.8058 7.24725 22.0407 7.87017 22.4653 8.35467C22.86 8.80456 23.0772 9.38271 23.0772 9.98174Z" fill="#FEDFC5"/>
<path d="M22.4924 19.2705C22.296 19.0738 22.0508 18.9552 21.7959 18.9148C21.407 18.8522 20.9939 18.9711 20.6931 19.2719L22.7377 17.2273C22.9862 16.9787 23.1109 16.653 23.1109 16.3278C23.1109 16.2602 23.1054 16.1921 23.0945 16.1246C23.0538 15.8689 22.9354 15.6244 22.7391 15.428C22.5446 15.2336 22.3034 15.1157 22.0519 15.074C21.7094 15.0169 21.3485 15.1004 21.0606 15.3245L21.8387 14.5464C22.0873 14.2978 22.212 13.9712 22.212 13.646C22.2125 13.5768 22.2065 13.5073 22.195 13.4392C22.1543 13.1857 22.0359 12.9418 21.8406 12.7465C21.6443 12.5502 21.399 12.4312 21.143 12.3911C20.7541 12.3285 20.341 12.4472 20.0403 12.7479L19.1493 13.6389C19.4495 13.3387 19.569 12.9251 19.5061 12.5362C19.466 12.2813 19.3476 12.0366 19.1506 11.8396C18.6543 11.3433 17.8485 11.3439 17.3514 11.841L12.1914 17.001L12.1768 16.9807C11.9153 16.7192 11.6072 16.5333 11.2784 16.4223C10.8892 16.291 10.4717 16.2671 10.0713 16.3479C10.394 16.8354 10.8447 17.2397 11.3946 17.5124C11.547 17.5879 11.7033 17.6514 11.8626 17.7027V24.1009C11.8626 25.3846 12.906 26.4289 14.1887 26.4289C14.3428 26.4289 14.4949 26.4141 14.643 26.3847C14.8086 26.7231 15.0552 27.0208 15.3664 27.2457C15.5595 27.3863 15.7702 27.494 15.9918 27.5687L22.4908 21.0695C22.9887 20.5721 22.9893 19.7671 22.4924 19.2705Z" fill="#FFAE85"/>
<path d="M24.1312 21.2101V16.7197C24.0222 16.7961 23.9181 16.8832 23.8206 16.9807L23.8063 17.001L18.6463 11.841C18.1492 11.3439 17.343 11.3433 16.847 11.8396C16.6501 12.0366 16.5317 12.281 16.4913 12.5362C16.4287 12.9251 16.5482 13.3387 16.8484 13.6389L15.9574 12.7479C15.6566 12.4472 15.2436 12.3285 14.8546 12.3911C14.5987 12.4312 14.3534 12.5502 14.157 12.7465C13.9617 12.9418 13.8434 13.1857 13.8024 13.4392C13.7912 13.5073 13.7851 13.5768 13.7857 13.646C13.7857 13.9712 13.9104 14.2978 14.1592 14.5464L14.9373 15.3245C14.6492 15.1004 14.2883 15.0169 13.9458 15.074C13.6942 15.1157 13.4531 15.2336 13.2586 15.428C13.0622 15.6244 12.9438 15.8689 12.9032 16.1246C12.8922 16.1921 12.8867 16.2602 12.8867 16.3278C12.8867 16.653 13.0114 16.9787 13.26 17.2273L15.3045 19.2719C15.0038 18.9711 14.5907 18.8522 14.2018 18.9148C13.9469 18.9552 13.7016 19.0738 13.5052 19.2702C13.0087 19.7671 13.0092 20.5721 13.5069 21.0698L18.8259 26.3888C18.9687 26.416 19.1149 26.4297 19.2629 26.4297C19.7556 26.4297 20.2269 26.277 20.6236 25.9894C20.7249 25.9164 20.8205 25.8348 20.9078 25.7475C21.347 25.3086 21.5887 24.7241 21.5887 24.1017V23.5285C21.6604 23.5351 21.7326 23.5384 21.8054 23.5384C23.0878 23.5381 24.1312 22.4939 24.1312 21.2101Z" fill="#FFAE85"/>
<path d="M23.0772 9.98174V21.2103C23.0772 21.9142 22.5084 22.4836 21.8058 22.4836C21.7869 22.4836 21.7666 22.4836 21.746 22.4822C21.4922 22.4704 21.2568 22.3839 21.0634 22.2433C21.0626 22.2433 21.0626 22.2425 21.0618 22.2425C20.7426 22.0118 20.5344 21.6357 20.5344 21.2103V24.1016C20.5344 24.4532 20.3924 24.7718 20.1625 25.0017C20.1148 25.0495 20.0628 25.0937 20.0071 25.1338C19.7975 25.2857 19.541 25.3749 19.2633 25.3749C18.9884 25.3749 18.7346 25.2879 18.527 25.1396C18.2443 24.9377 18.0482 24.6235 18.0032 24.2612V25.3618C18.0032 25.7133 17.8604 26.0325 17.6305 26.2624C17.5821 26.3115 17.5286 26.3566 17.4723 26.3967C17.2641 26.5472 17.0084 26.6359 16.7318 26.6359C16.4541 26.6359 16.1968 26.5464 15.9872 26.3939C15.6681 26.1632 15.4599 25.7872 15.4599 25.3618V24.1016C15.4599 24.5262 15.2517 24.9033 14.9325 25.1338C14.7238 25.2857 14.467 25.3749 14.1887 25.3749C13.487 25.3749 12.9174 24.8047 12.9174 24.1016V16.8042L12.8926 16.8086C12.5229 16.8086 12.1733 16.7221 11.8627 16.568C11.0955 16.1876 10.5674 15.3952 10.5674 14.4798V11.0774C10.5674 10.4234 10.8269 9.7969 11.2881 9.3341L12.3513 8.26898C12.6586 7.96081 12.883 7.58535 13.0088 7.17611C13.0876 6.92315 13.1275 6.65646 13.1275 6.39142V5.63281H21.8058V6.60235C21.8058 6.81961 21.8289 7.04895 21.8896 7.25851C21.9907 7.66143 22.1876 8.03744 22.4653 8.35467C22.8564 8.80126 23.0772 9.38683 23.0772 9.98174Z" fill="#FEDFC5"/>
<path d="M23.0772 9.98174V21.2103C23.0772 21.9142 22.5084 22.4836 21.8058 22.4836C21.7868 22.4836 21.7665 22.4836 21.7459 22.4822C21.4921 22.4704 21.2568 22.3839 21.0634 22.2433L21.0851 11.4231C21.0851 11.3578 21.0703 11.2545 21.0428 11.1229C20.5578 8.75979 18.5629 7.17611 16.1503 7.17611H13.0088C13.0876 6.92315 13.1274 6.65646 13.1274 6.39142V5.63281H21.8058V6.60235C21.8058 6.81961 21.8289 7.04895 21.8896 7.25851C21.9906 7.66143 22.1876 8.03744 22.4653 8.35467C22.8564 8.80126 23.0772 9.38683 23.0772 9.98174Z" fill="#FECBAA"/>
<path d="M22.3697 5.63268H12.5191C12.1948 5.63268 11.9316 5.36956 11.9316 5.04491V1.53699C11.9316 1.21234 12.1948 0.949219 12.5191 0.949219H22.3697C22.6941 0.949219 22.9572 1.21234 22.9572 1.53699V5.04491C22.9572 5.36956 22.6941 5.63268 22.3697 5.63268Z" fill="#83D9FF"/>
<path d="M14.7905 31.9139L14.6847 32.4306L14.7866 31.9134C14.501 31.8571 14.2236 32.043 14.1673 32.3287C14.111 32.6146 14.2969 32.8917 14.5828 32.948C14.5837 32.9483 14.5916 32.9497 14.5924 32.9499C14.626 32.9562 14.6592 32.9595 14.6921 32.9595C14.9402 32.9595 15.1613 32.7838 15.2093 32.5311C15.2643 32.2449 15.0767 31.9686 14.7905 31.9139Z" fill="black"/>
<path d="M18.8226 32.083L18.8751 32.6076L18.821 32.0833C18.5312 32.1129 18.3206 32.3719 18.3505 32.6617C18.3782 32.9331 18.6073 33.1352 18.8743 33.1352C18.8924 33.1352 18.9108 33.1341 18.9289 33.1325L18.9435 33.1308C19.2319 33.097 19.4365 32.8369 19.4044 32.5485C19.3719 32.2604 19.111 32.0528 18.8226 32.083Z" fill="black"/>
<path d="M16.8038 32.1502C16.8038 32.1502 16.7964 32.15 16.7961 32.15C16.5055 32.1368 16.2627 32.3625 16.2495 32.6534C16.2366 32.9443 16.4652 33.1906 16.756 33.2038C16.7643 33.2044 16.7722 33.2044 16.7805 33.2044C17.0606 33.2044 17.2941 32.9838 17.3067 32.7009C17.3199 32.4101 17.0949 32.1634 16.8038 32.1502Z" fill="black"/>
<path d="M12.8425 31.3782L12.8359 31.3757C12.5618 31.2774 12.263 31.4208 12.1647 31.6949C12.0661 31.969 12.2116 32.2722 12.4858 32.3708C12.5448 32.392 12.605 32.4019 12.664 32.4019C12.8802 32.4019 13.0831 32.2681 13.1603 32.0528C13.2589 31.7787 13.1166 31.4765 12.8425 31.3782Z" fill="black"/>
<path d="M20.8127 31.7144L20.9426 32.2256L20.8111 31.715C20.529 31.7875 20.3593 32.0751 20.4318 32.3571C20.493 32.595 20.7073 32.7532 20.9421 32.7532C20.9858 32.7532 21.03 32.7477 21.0742 32.7362C21.0764 32.7356 21.0857 32.7331 21.0882 32.7326C21.3681 32.6562 21.5318 32.3687 21.4571 32.0882C21.3824 31.8081 21.0937 31.6414 20.8127 31.7144Z" fill="black"/>
<path d="M22.719 31.0497L22.928 31.5337L22.7173 31.0503C22.4504 31.1667 22.3281 31.4774 22.4443 31.7443C22.5308 31.9429 22.7247 32.0613 22.9283 32.0613C22.9983 32.0613 23.07 32.047 23.1384 32.0173C23.1406 32.0162 23.1491 32.0127 23.1513 32.0116C23.4158 31.8921 23.5325 31.5823 23.4144 31.3172C23.2963 31.0519 22.9848 30.933 22.719 31.0497Z" fill="black"/>
<path d="M10.8283 7.01051C10.9129 7.01051 10.9989 6.99018 11.0782 6.94789C11.3353 6.81083 11.4323 6.4914 11.2952 6.23433C11.1582 5.97752 10.839 5.88002 10.5819 6.01735L10.5756 6.02064C10.3188 6.1577 10.2246 6.47547 10.3617 6.73255C10.4561 6.90998 10.6396 7.01051 10.8283 7.01051Z" fill="black"/>
<path d="M4.72875 12.9003C4.80703 12.9412 4.8908 12.9607 4.97347 12.9607C5.16326 12.9607 5.34673 12.858 5.44094 12.6781L5.45028 12.6597C5.57882 12.3982 5.47115 12.0821 5.20968 11.9538C4.95013 11.8259 4.63647 11.9313 4.50628 12.1892C4.3717 12.4469 4.47112 12.7652 4.72875 12.9003Z" fill="black"/>
<path d="M3.98646 14.8843C4.04249 14.9032 4.09935 14.9123 4.15565 14.9123C4.37538 14.9123 4.58055 14.7736 4.65498 14.5539L4.66185 14.533C4.74754 14.2548 4.59126 13.9595 4.31276 13.8741C4.03673 13.789 3.74367 13.9422 3.6555 14.2169C3.56294 14.4924 3.71098 14.7912 3.98646 14.8843Z" fill="black"/>
<path d="M5.76888 11.0553C5.86253 11.1234 5.97102 11.1563 6.07869 11.1563C6.24156 11.1563 6.40251 11.0808 6.50551 10.9391L6.51237 10.9297C6.68156 10.693 6.62636 10.3645 6.39015 10.1953C6.15367 10.0258 5.82408 10.0802 5.65434 10.3164L6.07924 10.629L5.65269 10.3186C5.48131 10.5543 5.53349 10.8842 5.76888 11.0553Z" fill="black"/>
<path d="M9.03825 8.14901C9.14894 8.14901 9.26045 8.11413 9.35576 8.04162C9.59087 7.86969 9.64168 7.53982 9.46974 7.30472C9.29753 7.06961 8.96767 7.0188 8.73284 7.19073L8.71965 7.20035C8.48784 7.3764 8.4417 7.70791 8.61775 7.94C8.72157 8.07678 8.87895 8.14901 9.03825 8.14901Z" fill="black"/>
<path d="M3.51582 22.8818C3.58558 23.1084 3.79377 23.2537 4.01899 23.2537C4.07035 23.2537 4.12281 23.246 4.17445 23.2301C4.4513 23.1452 4.60758 22.8519 4.52463 22.5745C4.44526 22.2976 4.15824 22.135 3.87891 22.2111C3.59794 22.2877 3.43232 22.5778 3.50895 22.8588C3.5106 22.8642 3.51417 22.8763 3.51582 22.8818Z" fill="black"/>
<path d="M7.44538 9.53914C7.58243 9.53914 7.71949 9.48613 7.82304 9.38066C8.02875 9.17467 8.02875 8.84068 7.82304 8.63496C7.61704 8.42897 7.28306 8.42897 7.07706 8.63496L7.06828 8.64375C6.86448 8.85167 6.8686 9.1851 7.07652 9.3889C7.17896 9.48942 7.31217 9.53914 7.44538 9.53914Z" fill="black"/>
<path d="M4.0983 20.5824C4.06122 20.296 3.79947 20.0927 3.51273 20.1268C3.22379 20.1614 3.01725 20.4237 3.05158 20.7129L3.0546 20.734C3.09305 20.9961 3.318 21.1839 3.57535 21.1839C3.60062 21.1839 3.62644 21.182 3.65253 21.1782C3.93955 21.1364 4.13868 20.8694 4.0983 20.5824Z" fill="black"/>
<path d="M3.43641 19.0723C3.4419 19.0723 3.44712 19.0726 3.45234 19.0726C3.73633 19.0726 3.97089 18.8465 3.97913 18.5606L3.97968 18.5381C3.97968 18.2467 3.74347 18.0107 3.45234 18.0107C3.16312 18.0107 2.92856 18.2431 2.92499 18.5312C2.9173 18.8218 3.14609 19.0638 3.43641 19.0723Z" fill="black"/>
<path d="M3.55169 16.9569C3.58328 16.9624 3.61431 16.9651 3.64535 16.9651C3.89584 16.9651 4.11804 16.7858 4.1639 16.5306C4.16528 16.5229 4.16638 16.5152 4.16747 16.5075C4.21005 16.2194 4.01092 15.9514 3.72253 15.9091C3.43771 15.8668 3.17102 16.0626 3.12515 16.3466C3.07516 16.6328 3.26577 16.9055 3.55169 16.9569Z" fill="black"/>
<path d="M28.4276 11.2214C28.5297 11.3697 28.694 11.4491 28.8615 11.4491C28.9645 11.4491 29.0689 11.4189 29.1601 11.356C29.3999 11.1912 29.4606 10.8627 29.2958 10.6227L28.8574 10.916L29.2941 10.6202C29.1304 10.3791 28.8025 10.3162 28.5616 10.4796C28.3205 10.643 28.2576 10.9709 28.421 11.2121L28.4276 11.2214Z" fill="black"/>
<path d="M31.1207 16.5287C30.8312 16.5611 30.623 16.8223 30.6557 17.1118L30.6585 17.1346C30.6961 17.3975 30.9219 17.5873 31.18 17.5873C31.2048 17.5873 31.23 17.5856 31.2553 17.582C31.5412 17.5411 31.7406 17.2777 31.7035 16.9921C31.6703 16.7034 31.4083 16.4963 31.1207 16.5287Z" fill="black"/>
<path d="M30.2305 15.0407L30.2327 15.0476C30.3003 15.2775 30.5104 15.4263 30.7384 15.4263C30.7875 15.4263 30.8375 15.4195 30.8872 15.4046C31.1668 15.3225 31.3267 15.0294 31.2446 14.7498L31.2424 14.743C31.1602 14.4634 30.8672 14.3035 30.5876 14.3859C30.3083 14.468 30.1484 14.7611 30.2305 15.0407Z" fill="black"/>
<path d="M29.4854 13.0686C29.5774 13.2557 29.7655 13.3647 29.9611 13.3647C30.0388 13.3647 30.1179 13.3474 30.1923 13.3106C30.4535 13.182 30.562 12.8678 30.4332 12.6064L29.9553 12.8291L30.4327 12.6053C30.3091 12.3416 29.9951 12.2282 29.7315 12.3518C29.4678 12.4753 29.3541 12.7893 29.4777 13.053L29.4854 13.0686Z" fill="black"/>
<path d="M27.0992 9.57464C27.2024 9.68011 27.3389 9.73284 27.4757 9.73284C27.6089 9.73284 27.7421 9.68285 27.8449 9.58205C28.0514 9.3799 28.0561 9.04949 27.8569 8.8413C27.6595 8.62844 27.3266 8.61553 27.1129 8.81274C26.8989 9.01022 26.8858 9.34392 27.0832 9.55788L27.0992 9.57464Z" fill="black"/>
<path d="M31.292 18.7306C31.0023 18.7232 30.7597 18.9504 30.7496 19.2401C30.7364 19.5288 30.958 19.7746 31.247 19.7908C31.2571 19.7914 31.2668 19.7916 31.2769 19.7916C31.5546 19.7916 31.7872 19.5744 31.8029 19.2934L31.8037 19.2717C31.812 18.9809 31.5829 18.7392 31.292 18.7306Z" fill="black"/>
<path d="M23.7271 6.98493L23.7397 6.9918C23.8182 7.03355 23.9026 7.05332 23.9855 7.05332C24.1731 7.05332 24.3547 6.95225 24.45 6.77509C24.5873 6.51939 24.4906 6.19969 24.2357 6.06126L23.9806 6.52268L24.2341 6.06016C23.9786 5.92009 23.6581 6.01374 23.518 6.26918C23.3782 6.52433 23.4716 6.84513 23.7271 6.98493Z" fill="black"/>
<path d="M25.51 8.14208L25.5183 8.14839C25.6136 8.22063 25.7253 8.25551 25.8366 8.25551C25.9959 8.25551 26.1533 8.18355 26.2571 8.04677C26.4331 7.81468 26.3875 7.484 26.1557 7.30794L26.1522 7.30547C25.9212 7.12804 25.5902 7.17144 25.4128 7.40242C25.2354 7.63341 25.279 7.96465 25.51 8.14208Z" fill="black"/>
<path d="M35.6745 26.7138L33.199 24.2339C32.9883 24.0229 32.7084 23.9068 32.4104 23.9068C32.1127 23.9068 31.8326 24.0229 31.6222 24.2339L31.5648 24.2913L31.4022 24.1287C31.2014 23.9274 31.0459 23.6931 30.9405 23.4379C30.9311 23.4041 30.9188 23.3712 30.9028 23.3401C30.8221 23.1133 30.7801 22.8718 30.7801 22.6238V21.9224C30.8281 21.9476 30.8806 21.966 30.9369 21.9756C30.9671 21.9809 30.997 21.9833 31.0267 21.9833C31.2769 21.9833 31.4983 21.8048 31.5447 21.551C31.601 21.2659 31.4162 20.9888 31.1308 20.9317C31.0053 20.9067 30.8811 20.9284 30.7768 20.9849C30.7444 20.2357 30.4381 19.5359 29.9053 19.0019L27.5037 16.5962C26.9648 16.0565 26.2482 15.7593 25.486 15.7593C24.8961 15.7593 24.3341 15.9381 23.8601 16.2691L23.6052 16.0128V9.98134C23.6052 9.25432 23.3412 8.55284 22.8622 8.00655C22.5214 7.61818 22.3338 7.1194 22.3338 6.60195V6.16002H22.37C22.9847 6.16002 23.4849 5.65987 23.4849 5.04491V1.53699C23.4849 0.922027 22.9847 0.421875 22.37 0.421875H12.5194C11.9048 0.421875 11.4046 0.922027 11.4046 1.53699V5.04491C11.4046 5.65987 11.9048 6.16002 12.5194 6.16002H12.6007V6.39129C12.6007 6.95983 12.3796 7.49431 11.9784 7.89614L10.9152 8.96126C10.351 9.5265 10.0404 10.2777 10.0404 11.0769V14.4791C10.0404 14.9414 10.1513 15.3778 10.3466 15.7645C9.64735 15.8049 8.99559 16.0963 8.49626 16.5962L6.09465 19.0019C5.53051 19.5672 5.21987 20.3186 5.21987 21.1176V22.6238C5.21987 23.1924 4.99904 23.7269 4.59777 24.1287L4.4371 24.2896C4.43627 24.2902 4.43572 24.2907 4.43517 24.2913L4.37804 24.2339C4.16738 24.0229 3.88751 23.9068 3.5895 23.9068C3.29177 23.9068 3.01162 24.0229 2.80123 24.2339L0.325469 26.7138C-0.10849 27.1485 -0.10849 27.8561 0.325469 28.2908L1.17334 29.1398C1.37906 29.3461 1.71304 29.3464 1.91903 29.1406C2.12503 28.9346 2.12558 28.6009 1.91958 28.3947L1.07199 27.5454C1.04809 27.5215 1.04809 27.4828 1.07199 27.4589L3.54775 24.979C3.57082 24.9559 3.60845 24.9557 3.63152 24.979L4.06191 25.4102H4.06219L9.93904 31.2972L10.5974 31.957C10.6213 31.9809 10.6213 32.0196 10.5974 32.0435L8.1219 34.5234C8.09856 34.5467 8.06093 34.5467 8.03786 34.5234L3.41262 29.8902C3.2069 29.6839 2.87292 29.6836 2.66693 29.8894C2.46066 30.0953 2.46038 30.4291 2.6661 30.6353L7.29161 35.2685C7.502 35.4795 7.78215 35.5956 8.08016 35.5956C8.37788 35.5956 8.65776 35.4795 8.86842 35.2685L11.3439 32.7886C11.7779 32.3541 11.7779 31.6466 11.3439 31.2118L11.317 31.1849L11.6293 30.8721C11.994 30.5065 12.4785 30.2868 12.9935 30.2535C13.7183 30.2066 14.4003 29.8973 14.9136 29.3829L17.1878 27.1038C17.8437 26.9316 18.3543 26.3974 18.493 25.7283C18.7267 25.8395 18.9879 25.9021 19.2637 25.9021C20.2555 25.9021 21.0624 25.0944 21.0624 24.1012V22.8491C21.2893 22.9526 21.5411 23.0108 21.8064 23.0108C22.7982 23.0108 23.6049 22.2031 23.6049 21.2099V17.5081L25.227 19.1381C25.33 19.2417 25.4654 19.2933 25.6008 19.2933C25.7354 19.2933 25.87 19.2422 25.973 19.1398C26.1793 18.9344 26.1801 18.6006 25.9747 18.3941L24.6222 17.0351C24.884 16.8909 25.179 16.814 25.486 16.814C25.9661 16.814 26.4177 17.0013 26.7572 17.3416L29.1588 19.7471C29.5241 20.1132 29.7254 20.5999 29.7254 21.1176V22.6238C29.7254 23.4739 30.0558 24.2729 30.6556 24.8738L30.8193 25.0378L30.0544 25.8041L25.4281 30.4384L25.1702 30.1799C25.1674 30.1775 25.165 30.1747 25.1622 30.1722L25.1169 30.1267C24.5709 29.5798 23.8455 29.251 23.0748 29.2011C22.606 29.1706 22.1649 28.9706 21.8312 28.6366L20.0984 26.9132C19.8918 26.7077 19.5578 26.7085 19.3524 26.9151C19.1472 27.1216 19.148 27.4556 19.3546 27.6608L21.0863 29.3829C21.5996 29.8973 22.2816 30.2066 23.0067 30.2535C23.5214 30.2868 24.0059 30.5065 24.3707 30.8718L24.3962 30.8973C24.4099 30.913 24.4245 30.9276 24.4399 30.9413L24.6829 31.1846L24.656 31.2118C24.2221 31.6466 24.2221 32.3539 24.656 32.7886L27.1315 35.2685C27.3422 35.4795 27.6221 35.5956 27.9201 35.5956C28.2178 35.5956 28.4979 35.4795 28.7086 35.2685L35.6745 28.2906C36.1084 27.8558 36.1084 27.1485 35.6745 26.7138ZM31.1335 21.47L31.1237 21.4683L31.0275 21.4488L31.1335 21.47ZM14.1671 28.6377C13.8351 28.9706 13.394 29.1706 12.9254 29.2011C12.1544 29.251 11.4291 29.5798 10.883 30.1267L10.5718 30.4384L10.2917 30.1577C10.2881 30.1541 10.2846 30.1503 10.281 30.147L5.18059 25.0378L5.34429 24.8738C5.94414 24.2729 6.27456 23.4739 6.27456 22.6238V21.1176C6.27456 20.5999 6.4756 20.1132 6.84117 19.7471L9.24278 17.3416C9.58226 17.0013 10.0338 16.814 10.5139 16.814C10.8218 16.814 11.1179 16.8914 11.3804 17.0367L10.0258 18.3936C9.82011 18.5995 9.82039 18.9335 10.0264 19.1392C10.1294 19.242 10.2642 19.2933 10.3991 19.2933C10.5342 19.2933 10.6694 19.2417 10.7723 19.1387L12.3904 17.5177V24.1012C12.3904 25.0944 13.1973 25.9021 14.1891 25.9021C14.4687 25.9021 14.7335 25.8379 14.9697 25.7236C15.0768 26.2463 15.4108 26.6868 15.8634 26.9379L14.1671 28.6377ZM22.5505 21.2102C22.5505 21.6216 22.2165 21.9564 21.8064 21.9564C21.3961 21.9564 21.0624 21.6216 21.0624 21.2102V15.3278C21.0624 15.0367 20.8265 14.8005 20.5351 14.8005C20.2436 14.8005 20.0077 15.0367 20.0077 15.3278V24.1015C20.0077 24.5129 19.674 24.8475 19.2637 24.8475C18.8954 24.8475 18.5897 24.5777 18.5306 24.2248V15.3218C18.5306 15.0304 18.2947 14.7944 18.0033 14.7944C17.9096 14.7944 17.8214 14.8192 17.7451 14.862C17.5784 14.9507 17.4649 15.126 17.4649 15.3278V24.1012C17.4649 24.1682 17.4688 24.2339 17.4759 24.299V25.3616C17.4759 25.7731 17.1422 26.1079 16.7319 26.1079C16.3218 26.1079 15.9881 25.7731 15.9881 25.3616V15.3155C15.9881 15.0243 15.7519 14.7881 15.4608 14.7881C15.1693 14.7881 14.9331 15.0243 14.9331 15.3155V24.1012C14.9331 24.5127 14.5994 24.8475 14.1894 24.8475C13.779 24.8475 13.4453 24.5127 13.4453 24.1012V14.2918C13.4453 14.0004 13.2091 13.7642 12.918 13.7642C12.6266 13.7642 12.3906 14.0004 12.3906 14.2918V16.1062C12.3464 16.1205 12.3036 16.1405 12.2637 16.1669C11.5818 15.9106 11.0951 15.2509 11.0951 14.4791V11.0769C11.0951 10.5592 11.2964 10.0725 11.6617 9.7064L12.7249 8.64128C13.325 8.04033 13.6554 7.24135 13.6554 6.39129V6.16002H14.7156C15.007 6.16002 15.243 5.92382 15.243 5.63268C15.243 5.34127 15.007 5.10534 14.7156 5.10534H12.5194C12.4862 5.10534 12.4593 5.07815 12.4593 5.04491V1.53699C12.4593 1.50375 12.4862 1.47656 12.5194 1.47656H22.3698C22.4033 1.47656 22.4302 1.50375 22.4302 1.53699V5.04491C22.4302 5.07842 22.4033 5.10534 22.3698 5.10534H17.1914C16.9002 5.10534 16.664 5.34127 16.664 5.63268C16.664 5.92382 16.9002 6.16002 17.1914 6.16002H21.2791V6.60195C21.2791 7.37538 21.5595 8.12108 22.069 8.70226C22.3794 9.05601 22.5505 9.5103 22.5505 9.98134V21.2102ZM34.9279 27.5454L27.9621 34.5234C27.9505 34.5352 27.9365 34.541 27.9201 34.541C27.9038 34.541 27.8898 34.5352 27.878 34.5234L25.4025 32.0435C25.3786 32.0196 25.3786 31.9809 25.4025 31.957L25.8011 31.5576L25.8013 31.5573L29.8451 27.5067L32.3684 24.979C32.3915 24.9557 32.4291 24.9557 32.4522 24.979L34.9279 27.4589C34.9518 27.4828 34.9518 27.5215 34.9279 27.5454Z" fill="black"/>
<path d="M14.1893 2.72852C13.8798 2.72852 13.6279 2.98093 13.6279 3.29101C13.6279 3.60138 13.8798 3.85351 14.1893 3.85351C14.4991 3.85351 14.751 3.60138 14.751 3.29101C14.751 2.98093 14.4991 2.72852 14.1893 2.72852Z" fill="black"/>
<path d="M32.5832 26.7666C32.2733 26.7666 32.0215 27.019 32.0215 27.3291C32.0215 27.6392 32.2733 27.8916 32.5832 27.8916C32.8927 27.8916 33.1446 27.6392 33.1446 27.3291C33.1446 27.019 32.8927 26.7666 32.5832 26.7666Z" fill="black"/>
<path d="M8.78811 32.1475C8.78811 31.8374 8.53625 31.585 8.22671 31.585C7.9169 31.585 7.66504 31.8374 7.66504 32.1475C7.66504 32.4575 7.9169 32.71 8.22671 32.71C8.53625 32.71 8.78811 32.4575 8.78811 32.1475Z" fill="black"/>
</g>
<defs>
<clipPath id="clip0_87_5961">
<rect width="36" height="36" fill="white"/>
</clipPath>
</defs>
</svg>
