<svg width="37" height="36" viewBox="0 0 37 36" fill="none" xmlns="http://www.w3.org/2000/svg">
<path d="M17.2762 4.78377V24.4292C17.2762 24.936 16.8654 25.3467 16.3586 25.3467C15.9242 25.3467 15.5493 25.0421 15.4605 24.617L15.1065 22.9243C15.1065 22.9243 11.0357 24.062 10.9082 20.1873C10.9082 20.1873 8.767 19.4335 9.50627 17.2049C9.50627 17.2049 7.41602 16.4178 7.41602 13.0939C7.41602 9.76991 9.55302 9.10771 9.55302 9.10771C9.55302 9.10771 9.06604 7.54522 9.98587 6.57125C10.9057 5.59729 12.2873 5.96741 12.2873 5.96741C12.2873 5.96741 12.2873 4.76542 13.6652 4.29875C14.8031 3.91337 15.5049 4.51518 15.5049 4.51518C15.5049 4.51518 15.661 4.2681 15.9669 4.06855C16.5299 3.70124 17.2762 4.11144 17.2762 4.78377Z" fill="#FD8087"/>
<path d="M17.2764 4.78351V24.4288C17.2764 24.9358 16.8651 25.3464 16.3588 25.3464C16.1416 25.3464 15.9391 25.2705 15.7802 25.1411C15.6205 25.0117 15.5052 24.8296 15.4602 24.6173L15.1066 22.9241C15.1066 22.9241 14.8499 22.9959 14.4639 23.0423V4.78351C14.4639 4.53953 14.3655 4.33 14.2129 4.18023C15.0236 4.10289 15.5045 4.51492 15.5045 4.51492C15.5045 4.51492 15.6606 4.26812 15.9665 4.06843C16.5297 3.7014 17.2764 4.11132 17.2764 4.78351Z" fill="#FE646F"/>
<path d="M27.0067 13.6771C27.0067 15.558 26.4729 17.3141 25.5485 18.8022C24.0561 21.2055 23.2222 23.9593 23.2222 26.7888V26.9221H17.2754V4.89486C17.2754 4.36013 17.7377 3.94191 18.2697 3.99591C23.1772 4.494 27.0067 8.63822 27.0067 13.6771Z" fill="#FEE97D"/>
<path d="M27.0083 13.6773C27.0083 15.5581 26.4746 17.3139 25.55 18.8024C24.0573 21.2056 23.2234 23.9598 23.2234 26.7892V26.9221H20.4109V26.7892C20.4109 23.9598 21.2448 21.2056 22.7375 18.8024C23.6621 17.3139 24.1958 15.5581 24.1958 13.6773C24.1958 9.33409 21.3502 5.65534 17.4219 4.40377C17.5998 4.13026 17.9204 3.9601 18.2713 3.99596C23.1784 4.49377 27.0083 8.6387 27.0083 13.6773Z" fill="#FEE45A"/>
<path d="M23.2239 26.9219H12.2927C11.761 26.9219 11.3301 27.3528 11.3301 27.8845V30.7621C11.3301 31.7831 12.1577 32.6107 13.1787 32.6107H21.3753C22.3963 32.6107 23.2239 31.7831 23.2239 30.7621V26.9219H23.2239Z" fill="#8EBAC5"/>
<path d="M23.2235 26.9219V30.7623C23.2235 31.7833 22.3959 32.6109 21.375 32.6109H18.5625C19.5834 32.6109 20.411 31.7833 20.411 30.7623V26.9219H23.2235Z" fill="#7CA1B1"/>
<path d="M18.3369 35.4727H16.2164C15.371 35.4727 14.6855 34.7873 14.6855 33.9419V32.6104H19.8678V33.9419C19.8677 34.7873 19.1824 35.4727 18.3369 35.4727Z" fill="#A8D3D8"/>
<path d="M30.1281 10.3665H23.8866C23.5242 10.3665 23.2305 10.0727 23.2305 9.71039V6.04395H30.7841V9.71039C30.7841 10.0727 30.4904 10.3665 30.1281 10.3665Z" fill="#678D98"/>
<path d="M30.7849 6.04395V9.71004C30.7849 10.0729 30.491 10.3661 30.1289 10.3661H28.0195C28.3816 10.3661 28.6755 10.0729 28.6755 9.71004V6.04395H30.7849Z" fill="#537983"/>
<path d="M33.1287 6.03451L27.652 7.97675C27.2349 8.12469 26.7795 8.12469 26.3624 7.97675L20.8856 6.03451C20.5561 5.91765 20.3359 5.60588 20.3359 5.25629C20.3359 4.90663 20.5562 4.59493 20.8856 4.47807L26.3624 2.53576C26.7795 2.38782 27.2349 2.38782 27.652 2.53576L33.1287 4.47807C33.4583 4.59493 33.6784 4.9067 33.6784 5.25629C33.6785 5.60588 33.4583 5.91765 33.1287 6.03451Z" fill="#8EBAC5"/>
<path d="M33.6789 5.25629C33.6789 5.43137 33.6241 5.5966 33.5277 5.73301C33.4314 5.86871 33.2943 5.97629 33.1291 6.03465L30.3145 7.03238C30.872 6.8348 31.1856 6.47832 31.36 6.12746C31.5344 5.7759 31.5695 5.43137 31.5695 5.25629C31.5695 4.90684 31.3291 3.8416 30.512 3.5498L33.1291 4.47793C33.4588 4.59465 33.6789 4.90684 33.6789 5.25629Z" fill="#7CA1B1"/>
<path d="M10.9082 20.1873C10.9082 20.1873 8.767 19.4335 9.50627 17.2049C9.50627 17.2049 7.41602 16.4178 7.41602 13.0939C7.41602 9.76991 9.55302 9.10771 9.55302 9.10771C9.55302 9.10771 9.06604 7.54522 9.98587 6.57126C10.9057 5.59729 12.2873 5.96741 12.2873 5.96741C12.2873 5.96741 12.2873 4.76542 13.6652 4.29876C14.8031 3.91337 15.5049 4.51518 15.5049 4.51518C15.5049 4.51518 15.661 4.2681 15.9669 4.06855C16.5299 3.70124 17.2763 4.11144 17.2763 4.7837V24.4291C17.2763 24.9359 16.8655 25.3467 16.3587 25.3467C15.9243 25.3467 15.5494 25.0421 15.4605 24.6169L15.1066 22.9242C15.1066 22.9242 13.0685 23.4938 11.8314 22.4544" stroke="black" stroke-miterlimit="10" stroke-linecap="round" stroke-linejoin="round"/>
<path d="M9.55273 9.10742C9.55273 9.10742 10.349 11.0625 10.1956 12.698" stroke="black" stroke-miterlimit="10" stroke-linecap="round" stroke-linejoin="round"/>
<path d="M14.3164 7.67383C14.3164 7.67383 17.276 9.01869 17.276 11.472" stroke="black" stroke-miterlimit="10" stroke-linecap="round" stroke-linejoin="round"/>
<path d="M15.1062 22.9239C15.1062 22.9239 14.6472 20.3418 13.3711 19.0977" stroke="black" stroke-miterlimit="10" stroke-linecap="round" stroke-linejoin="round"/>
<path d="M13.3712 11.1328C13.3712 11.1328 13.7894 14.2035 11.8848 15.0198" stroke="black" stroke-miterlimit="10" stroke-linecap="round" stroke-linejoin="round"/>
<path d="M26.4287 10.366C26.8027 11.3996 27.0066 12.514 27.0066 13.6763C27.0066 15.5571 26.473 17.3128 25.5484 18.8014C24.0556 21.2046 23.2217 23.9588 23.2217 26.7882V26.9211H17.2754V4.89425C17.2754 4.35918 17.7373 3.94082 18.2696 3.99496C19.1183 4.08074 19.9346 4.27621 20.7052 4.5666" stroke="black" stroke-miterlimit="10" stroke-linecap="round" stroke-linejoin="round"/>
<path d="M5.70703 22.1601L6.78506 21.416" stroke="black" stroke-miterlimit="10" stroke-linecap="round" stroke-linejoin="round"/>
<path d="M3.32227 15.8698L4.62255 15.7119" stroke="black" stroke-miterlimit="10" stroke-linecap="round" stroke-linejoin="round"/>
<path d="M4.13281 9.19043L5.35752 9.65491" stroke="black" stroke-miterlimit="10" stroke-linecap="round" stroke-linejoin="round"/>
<path d="M7.95508 3.6543L8.82365 4.63473" stroke="black" stroke-miterlimit="10" stroke-linecap="round" stroke-linejoin="round"/>
<path d="M13.9121 0.527344L14.2256 1.79916" stroke="black" stroke-miterlimit="10" stroke-linecap="round" stroke-linejoin="round"/>
<path d="M20.6396 0.527344L20.3262 1.79916" stroke="black" stroke-miterlimit="10" stroke-linecap="round" stroke-linejoin="round"/>
<path d="M31.23 15.8698L29.9297 15.7119" stroke="black" stroke-miterlimit="10" stroke-linecap="round" stroke-linejoin="round"/>
<path d="M28.8436 22.1601L27.7656 21.416" stroke="black" stroke-miterlimit="10" stroke-linecap="round" stroke-linejoin="round"/>
<path d="M23.2239 26.9219H12.2927C11.761 26.9219 11.3301 27.3528 11.3301 27.8845V30.7621C11.3301 31.7831 12.1577 32.6107 13.1787 32.6107H21.3753C22.3963 32.6107 23.2239 31.7831 23.2239 30.7621V26.9219H23.2239Z" stroke="black" stroke-miterlimit="10" stroke-linecap="round" stroke-linejoin="round"/>
<path d="M18.3369 35.4727H16.2164C15.371 35.4727 14.6855 34.7873 14.6855 33.9419V32.6104H19.8678V33.9419C19.8677 34.7873 19.1824 35.4727 18.3369 35.4727Z" stroke="black" stroke-miterlimit="10" stroke-linecap="round" stroke-linejoin="round"/>
<path d="M19.7116 26.9219C19.7116 26.9219 20.2088 19.3765 22.6953 17.0258C22.6953 17.0258 20.9811 18.2079 19.8665 17.9299C18.9183 17.6934 18.8074 15.4336 18.8074 15.4336C18.8074 15.4336 18.0037 17.4326 17.2754 17.4779" stroke="black" stroke-miterlimit="10" stroke-linecap="round" stroke-linejoin="round"/>
<path d="M26.4297 10.3661H23.8865C23.5244 10.3661 23.2305 10.0729 23.2305 9.71008V6.86523" stroke="black" stroke-miterlimit="10" stroke-linecap="round" stroke-linejoin="round"/>
<path d="M30.784 6.86621V9.71035C30.784 10.0732 30.4901 10.3664 30.128 10.3664H28.9473" stroke="black" stroke-miterlimit="10" stroke-linecap="round" stroke-linejoin="round"/>
<path d="M33.1287 6.03451L27.652 7.97675C27.2349 8.12469 26.7795 8.12469 26.3624 7.97675L20.8856 6.03451C20.5561 5.91765 20.3359 5.60588 20.3359 5.25629C20.3359 4.90663 20.5562 4.59493 20.8856 4.47807L26.3624 2.53576C26.7795 2.38782 27.2349 2.38782 27.652 2.53576L33.1287 4.47807C33.4583 4.59493 33.6784 4.9067 33.6784 5.25629C33.6785 5.60588 33.4583 5.91765 33.1287 6.03451Z" stroke="black" stroke-miterlimit="10" stroke-linecap="round" stroke-linejoin="round"/>
<path d="M33.1289 6.03418V12.2522" stroke="black" stroke-miterlimit="10" stroke-linecap="round" stroke-linejoin="round"/>
</svg>
