<svg width="30" height="30" viewBox="0 0 30 30" fill="none" xmlns="http://www.w3.org/2000/svg">
<path fill-rule="evenodd" clip-rule="evenodd" d="M13.1358 5.85237V5.23726H17.8656V5.85237H13.1358Z" fill="#D40815"/>
<path fill-rule="evenodd" clip-rule="evenodd" d="M18.0402 4.53427H12.9613C12.0712 4.53427 11.3382 3.79613 11.3382 2.89982V1.63445C11.3382 0.738137 12.0712 0 12.9613 0H18.0402C18.9303 0 19.6458 0.738137 19.6458 1.63445V2.89982C19.6458 3.79613 18.9303 4.53427 18.0402 4.53427Z" fill="#D40815"/>
<path fill-rule="evenodd" clip-rule="evenodd" d="M7.98715 20.5272L8.85981 9.38489C8.98198 7.76801 10.2212 6.55536 11.7047 6.55536H12.2283V21.5817H9.88954C9.3485 21.0896 8.70273 20.7206 7.98715 20.5272ZM12.9264 6.55536H18.0576V9.36731H12.9264V6.55536ZM18.0576 10.0703V11.8981H12.9264V10.0703H18.0576ZM18.0576 12.6011V14.4112H12.9264V12.6011H18.0576ZM18.0576 15.1142V16.942H12.9264V15.1142H18.0576ZM18.0576 17.645V19.4552H12.9264V17.645H18.0576ZM18.0576 20.1582V21.5817H12.9264V20.1582H18.0576ZM18.7557 6.55536H19.2793C20.7803 6.55536 22.002 7.76801 22.1242 9.38489C22.2289 10.58 22.8747 17.5747 23.0318 20.5097C22.3162 20.703 21.653 21.0896 21.0945 21.5817H18.7557V6.55536Z" fill="#D40815"/>
<path fill-rule="evenodd" clip-rule="evenodd" d="M21.5133 30H9.47067C9.27868 30 9.12161 29.8418 9.12161 29.6485V22.6362C9.12161 22.4429 9.27868 22.2847 9.47067 22.2847H21.5133C21.7053 22.2847 21.8624 22.4429 21.8624 22.6362V29.6485C21.8624 29.8418 21.7053 30 21.5133 30Z" fill="#D40815"/>
<path fill-rule="evenodd" clip-rule="evenodd" d="M8.44093 29.8418C6.93996 29.4728 4.25218 28.3304 4.00784 24.6573C3.8333 21.5466 6.60835 20.1757 8.94707 21.7223C8.63292 21.9156 8.42348 22.2496 8.42348 22.6362L8.44093 29.8418Z" fill="#D40815"/>
<path fill-rule="evenodd" clip-rule="evenodd" d="M22.0544 21.7223C24.3757 20.1757 27.1507 21.5466 26.9936 24.6397C26.7493 28.3304 24.0615 29.4728 22.5431 29.8418L22.5605 22.6362C22.5605 22.2496 22.3511 21.9156 22.0544 21.7223Z" fill="#D40815"/>
</svg>
