<svg width="30" height="30" viewBox="0 0 30 30" fill="none" xmlns="http://www.w3.org/2000/svg">
<path d="M13.3301 26.8491C13.414 27.4354 13.8925 27.9199 14.4504 27.991C15.0217 28.0637 15.5706 27.6872 15.7615 27.1206C15.8493 26.8593 16.0194 26.4392 16.2333 25.9373L14.8712 24.7709L13.8345 25.5662C13.4554 25.8611 13.2599 26.3574 13.3301 26.8491C13.4292 27.5427 13.2589 26.3508 13.3301 26.8491Z" fill="#D40815"/>
<path d="M12.6611 2H17.3387V4.02392H12.6611V2Z" fill="#D40815"/>
<path d="M15.8919 4.94462H14.1079V7.9805C14.315 7.97209 15.6848 7.97209 15.8919 7.9805V4.94462Z" fill="#D40815"/>
<path d="M12.3072 27.0104C12.1787 26.1099 12.5302 25.2195 13.2251 24.6868L18.8193 20.3957C19.2439 20.0695 19.8221 20.5793 19.5877 21.0768C19.5635 21.1286 17.1468 26.2666 16.7365 27.4838C16.6738 27.6696 16.5882 27.8401 16.4897 27.9997H24.3158C24.5717 27.0492 24.7014 26.0627 24.7014 25.0617C24.7014 19.2785 20.3493 14.5733 15.0001 14.5733C9.65097 14.5733 5.29883 19.2785 5.29883 25.0617C5.29883 26.0625 5.42851 27.0492 5.68447 27.9997H12.6756C12.4891 27.7094 12.3592 27.3744 12.3072 27.0104C12.3592 27.3744 12.1785 26.1099 12.3072 27.0104Z" fill="#D40815"/>
<path d="M15.7354 24.1081L16.6787 24.9157C17.0215 24.1423 17.4045 23.3021 17.742 22.5688L15.7354 24.1081Z" fill="#D40815"/>
<path d="M25.8366 18.4062C25.2208 18.6744 24.8253 17.6688 25.441 17.4009L27.6835 16.4246C25.1875 12.1594 20.9038 9.23487 15.9773 8.8905C15.8239 8.8798 15.6708 8.87215 15.5171 8.86654V11.84C15.5171 12.1405 15.2856 12.3839 14.9999 12.3839C14.7142 12.3839 14.4826 12.1402 14.4826 11.84V8.86654C14.329 8.87215 14.1759 8.8798 14.0225 8.8905C9.08751 9.23564 4.79706 12.1696 2.30297 16.4468L4.83722 17.6836C5.43963 17.9775 5.00923 18.9663 4.40174 18.6708L1.78765 17.395C0.64814 19.6792 0 22.2899 0 25.0617C0 26.1305 0.069193 27.1359 0.201531 27.9997H4.61537C4.38335 27.0443 4.26408 26.0594 4.26408 25.0617C4.26408 18.6785 9.08001 13.4851 14.9999 13.4851C20.9198 13.4851 25.7357 18.6785 25.7357 25.0617C25.7357 26.0599 25.6164 27.0449 25.3846 27.9997H29.7542C29.9173 27.0357 30 26.0492 30 25.0617C30 22.2823 29.3487 19.6647 28.2032 17.3759L25.8366 18.4062Z" fill="#D40815"/>
</svg>
