<svg width="30" height="30" viewBox="0 0 30 30" fill="none" xmlns="http://www.w3.org/2000/svg">
<g clip-path="url(#clip0_50_111)">
<path d="M21.5545 0.00145598C21.0261 0.00995992 20.625 0.438069 20.625 0.955913V4.70247C20.625 5.96912 22.5 5.96912 22.5 4.70247V0.955913C22.5 0.426628 22.083 -0.00711173 21.5545 0.00145598ZM8.42833 4.57451e-05C7.90665 0.00500637 7.50002 0.434544 7.50002 0.955913V4.70247C7.50002 5.93459 9.375 5.93459 9.375 4.70247V0.955913C9.375 0.427365 8.95724 -0.00511685 8.42833 4.57451e-05ZM1.16089 1.87333C0.51944 1.87228 0 2.38948 0 3.03062V9.2401H30V3.03062C30 2.39036 29.4834 1.87333 28.8428 1.87333H24.3768V4.6219C24.3768 6.18365 23.0918 7.5084 21.5314 7.49317C19.9911 7.47829 18.75 6.16353 18.75 4.6219V1.87333H11.2537V4.6219C11.2537 6.18365 9.96864 7.5084 8.4082 7.49317C6.86789 7.47829 5.62685 6.16353 5.62685 4.6219V1.87333C4.11998 1.87333 2.69476 1.87582 1.16089 1.87333ZM0 11.2489V28.8427C0 29.4838 0.519439 30 1.16089 30H28.8428C29.4834 30 30 29.483 30 28.8427V11.2489H0ZM4.68752 15.0064H6.56249V16.8742H4.68752V15.0064ZM9.375 15.0064H11.25V16.8742H9.375V15.0064ZM14.0625 15.0064H15.9375V16.8742H14.0625V15.0064ZM18.75 15.0064H20.625V16.8742H18.75V15.0064ZM23.4375 15.0064H25.3125V16.8742H23.4375V15.0064ZM4.68752 19.6191H6.56249V21.562H4.68752V19.6191ZM9.375 19.6191H11.25V21.562H9.375V19.6191ZM14.0625 19.6191H15.9375V21.562H14.0625V19.6191ZM18.75 19.6191H20.625V21.562H18.75V19.6191ZM23.4375 19.6191H25.3125V21.562H23.4375V19.6191ZM4.68752 24.23H6.56249V26.2498H4.68752V24.23ZM9.375 24.23H11.25V26.2498H9.375V24.23ZM14.0625 24.23H15.9375V26.2498H14.0625V24.23ZM18.75 24.23H20.625V26.2498H18.75V24.23ZM23.4375 24.23H25.3125V26.2498H23.4375V24.23Z" fill="#D40815"/>
</g>
<defs>
<clipPath id="clip0_50_111">
<rect width="30" height="30" fill="white"/>
</clipPath>
</defs>
</svg>
