<svg width="30" height="30" viewBox="0 0 30 30" fill="none" xmlns="http://www.w3.org/2000/svg">
<path d="M18 4C18.3978 4 18.7794 4.15145 19.0607 4.42103C19.342 4.69062 19.5 5.05625 19.5 5.4375C19.5 5.81875 19.342 6.18438 19.0607 6.45397C18.7794 6.72355 18.3978 6.875 18 6.875H16.5V8.3125H17.0745C17.6312 8.31305 18.1768 8.46206 18.6502 8.74284C19.1236 9.02362 19.5061 9.42511 19.755 9.90237L21.93 14.0625H22.5V12.625C22.5 12.2729 22.6349 11.9331 22.8791 11.67C23.1232 11.4069 23.4596 11.2388 23.8245 11.1976L24 11.1875H27C27.7956 11.1875 28.5587 11.4904 29.1213 12.0296C29.6839 12.5687 30 13.3 30 14.0625V22.6875C30 23.45 29.6839 24.1813 29.1213 24.7204C28.5587 25.2596 27.7956 25.5625 27 25.5625H24C23.6022 25.5625 23.2206 25.4111 22.9393 25.1415C22.658 24.8719 22.5 24.5062 22.5 24.125V22.6875H21V24.125C21.0002 24.8503 20.7144 25.5489 20.1998 26.0808C19.6851 26.6126 18.9797 26.9384 18.225 26.9928L18 27H12.8025C12.3087 27.0001 11.8226 26.8833 11.3872 26.6602C10.9517 26.437 10.5805 26.1143 10.3065 25.7206L8.196 22.6875H6C5.6326 22.6875 5.27799 22.5582 5.00344 22.3242C4.72889 22.0903 4.55349 21.7679 4.5105 21.4182L4.5 21.25V18.375H3V21.25C3 21.6312 2.84196 21.9969 2.56066 22.2665C2.27936 22.5361 1.89782 22.6875 1.5 22.6875C1.10218 22.6875 0.720644 22.5361 0.43934 22.2665C0.158035 21.9969 0 21.6312 0 21.25V12.625C0 12.2438 0.158035 11.8781 0.43934 11.6085C0.720644 11.339 1.10218 11.1875 1.5 11.1875C1.89782 11.1875 2.27936 11.339 2.56066 11.6085C2.84196 11.8781 3 12.2438 3 12.625V15.5H4.5V12.625C4.5 12.2438 4.65804 11.8781 4.93934 11.6085C5.22064 11.339 5.60218 11.1875 6 11.1875H8.376L10.9395 8.73369C11.1728 8.51027 11.4765 8.36678 11.8035 8.32544L12 8.3125H13.5V6.875H12C11.6022 6.875 11.2206 6.72355 10.9393 6.45397C10.658 6.18438 10.5 5.81875 10.5 5.4375C10.5 5.05625 10.658 4.69062 10.9393 4.42103C11.2206 4.15145 11.6022 4 12 4H18Z" fill="#D40815"/>
</svg>
