<svg width="30" height="30" viewBox="0 0 30 30" fill="none" xmlns="http://www.w3.org/2000/svg">
<g clip-path="url(#clip0_50_102)">
<path d="M14.9995 10.1741C15.393 10.1741 15.7743 10.2266 16.1405 10.3162C15.9126 9.12579 15.6842 7.59705 15.585 5.91442C15.3904 5.90209 15.1968 5.88493 14.9995 5.88493C14.8021 5.88493 14.6086 5.90209 14.4139 5.91442C14.3147 7.59705 14.0863 9.12633 13.8584 10.3162C14.2252 10.2266 14.6059 10.1741 14.9995 10.1741Z" fill="#D40815"/>
<path d="M10.3709 13.645C10.5907 12.8948 10.9886 12.2213 11.5152 11.6701C10.3698 11.2728 8.92954 10.7049 7.4185 9.94727C7.20187 10.2711 7.01258 10.6138 6.83831 10.965C8.24373 11.8905 9.45342 12.8519 10.3709 13.6455V13.645Z" fill="#D40815"/>
<path d="M14.9995 19.8259C14.6059 19.8259 14.2246 19.7734 13.8584 19.6838C14.0863 20.8742 14.3147 22.4029 14.4139 24.0856C14.6086 24.0979 14.8021 24.1151 14.9995 24.1151C15.1968 24.1151 15.3904 24.0979 15.585 24.0856C15.6842 22.4029 15.9126 20.8737 16.1405 19.6838C15.7738 19.7734 15.393 19.8259 14.9995 19.8259Z" fill="#D40815"/>
<path d="M14.9995 3.73954C8.79066 3.73954 3.73901 8.7912 3.73901 15C3.73901 21.2088 8.79066 26.2605 14.9995 26.2605C21.2083 26.2605 26.2599 21.2088 26.2599 15C26.2599 8.7912 21.2083 3.73954 14.9995 3.73954ZM14.9995 25.188C9.38157 25.188 4.81143 20.6179 4.81143 15C4.81143 9.3821 9.38157 4.81197 14.9995 4.81197C20.6174 4.81197 25.1875 9.3821 25.1875 15C25.1875 20.6179 20.6174 25.188 14.9995 25.188Z" fill="#D40815"/>
<path d="M29.4772 14.4638H30C29.9174 12.1221 29.2976 9.91617 28.2578 7.9649L27.8058 8.22603C27.7216 8.27483 27.6294 8.29788 27.5382 8.29788C27.3527 8.29788 27.1726 8.20137 27.0734 8.02978C26.9254 7.77293 27.0133 7.44531 27.2696 7.29731L27.719 7.03779C26.5119 5.11654 24.8829 3.48806 22.9622 2.28105L22.7027 2.73039C22.603 2.90198 22.4233 2.9985 22.2378 2.9985C22.1466 2.9985 22.0544 2.97544 21.9702 2.92665C21.7134 2.77865 21.6254 2.45049 21.774 2.19418L22.0351 1.74215C20.0838 0.702438 17.8773 0.0831129 15.5362 0V0.522807C15.5362 0.819332 15.2965 1.05902 15 1.05902C14.7035 1.05902 14.4638 0.819332 14.4638 0.522807V0C12.1221 0.0825767 9.91617 0.702438 7.9649 1.74215L8.22603 2.19418C8.37403 2.45103 8.28609 2.77865 8.02978 2.92665C7.94559 2.97544 7.85336 2.9985 7.76221 2.9985C7.57668 2.9985 7.39651 2.90198 7.29731 2.73039L7.03779 2.28105C5.11654 3.48806 3.48806 5.11707 2.28105 7.03779L2.73039 7.29731C2.98724 7.44531 3.07518 7.77347 2.92665 8.02978C2.82691 8.20137 2.64728 8.29788 2.46175 8.29788C2.37059 8.29788 2.27837 8.27483 2.19418 8.22603L1.74215 7.9649C0.702438 9.91617 0.0831129 12.1227 0 14.4638H0.522807C0.819332 14.4638 1.05902 14.7035 1.05902 15C1.05902 15.2965 0.819332 15.5362 0.522807 15.5362H0C0.0825767 17.8779 0.702438 20.0838 1.74215 22.0351L2.19418 21.774C2.44995 21.626 2.77865 21.7139 2.92665 21.9702C3.07464 22.2265 2.9867 22.5547 2.73039 22.7027L2.28105 22.9622C3.48806 24.8835 5.11707 26.5119 7.03779 27.719L7.29731 27.2696C7.44477 27.0128 7.774 26.9248 8.02978 27.0734C8.28662 27.2213 8.37456 27.5495 8.22603 27.8058L7.9649 28.2578C9.91617 29.2976 12.1227 29.9169 14.4638 30V29.4772C14.4638 29.1807 14.7035 28.941 15 28.941C15.2965 28.941 15.5362 29.1807 15.5362 29.4772V30C17.8779 29.9174 20.0838 29.2976 22.0351 28.2578L21.774 27.8058C21.626 27.549 21.7139 27.2213 21.9702 27.0734C22.2255 26.9254 22.5542 27.0133 22.7027 27.2696L22.9622 27.719C24.8835 26.5119 26.5119 24.8829 27.719 22.9622L27.2696 22.7027C27.0128 22.5547 26.9248 22.2265 27.0734 21.9702C27.2219 21.7139 27.5495 21.6254 27.8058 21.774L28.2578 22.0351C29.2976 20.0838 29.9169 17.8773 30 15.5362H29.4772C29.1807 15.5362 28.941 15.2965 28.941 15C28.941 14.7035 29.1807 14.4638 29.4772 14.4638ZM14.9995 27.3329C8.19868 27.3329 2.66658 21.8008 2.66658 15C2.66658 8.19922 8.19868 2.66712 14.9995 2.66712C21.8002 2.66712 27.3323 8.19922 27.3323 15C27.3323 21.8008 21.8002 27.3329 14.9995 27.3329Z" fill="#D40815"/>
<path d="M18.4843 11.6701C19.0109 12.2208 19.4087 12.8948 19.6286 13.645C20.546 12.8519 21.7563 11.89 23.1612 10.9645C22.9869 10.6132 22.7976 10.2706 22.581 9.94674C21.0699 10.7044 19.6297 11.2723 18.4843 11.6696V11.6701Z" fill="#D40815"/>
<path d="M11.5146 18.3299C10.9881 17.7792 10.5902 17.1052 10.3703 16.355C9.45289 17.1481 8.24265 18.11 6.83778 19.0355C7.01205 19.3868 7.20133 19.7294 7.41796 20.0533C8.92901 19.2956 10.3693 18.7272 11.5146 18.3299Z" fill="#D40815"/>
<path d="M19.628 16.355C19.4082 17.1052 19.0103 17.7787 18.4838 18.3299C19.6291 18.7272 21.0694 19.2951 22.5804 20.0527C22.7971 19.7289 22.9863 19.3862 23.1606 19.035C21.7552 18.1095 20.5455 17.1486 19.628 16.355Z" fill="#D40815"/>
<path d="M14.9995 18.7535C17.0725 18.7535 18.7529 17.073 18.7529 15C18.7529 12.927 17.0725 11.2465 14.9995 11.2465C12.9265 11.2465 11.246 12.927 11.246 15C11.246 17.073 12.9265 18.7535 14.9995 18.7535Z" fill="#D40815"/>
</g>
<defs>
<clipPath id="clip0_50_102">
<rect width="30" height="30" fill="white"/>
</clipPath>
</defs>
</svg>
