<svg width="37" height="36" viewBox="0 0 37 36" fill="none" xmlns="http://www.w3.org/2000/svg">
<g clip-path="url(#clip0_87_6104)">
<mask id="mask0_87_6104" style="mask-type:luminance" maskUnits="userSpaceOnUse" x="0" y="0" width="37" height="36">
<path d="M0.5 3.8147e-06H36.5V36H0.5V3.8147e-06Z" fill="white"/>
</mask>
<g mask="url(#mask0_87_6104)">
<path d="M35.935 17.9864C35.935 27.6361 28.1205 35.459 18.4807 35.459C18.1116 35.459 17.7452 35.4477 17.3825 35.4253C8.25442 34.8578 1.02637 27.2669 1.02637 17.9864C1.02637 8.78186 8.13637 1.24022 17.1581 0.563037C17.5947 0.530693 18.0357 0.513886 18.4807 0.513886C20.9641 0.513886 23.3267 1.03279 25.4656 1.96929L34.5091 11.0592C35.4268 13.1827 35.935 15.5255 35.935 17.9864Z" fill="#F4F1E1"/>
<path d="M35.9352 17.9864C35.9352 27.6361 28.1206 35.459 18.4809 35.459C18.1117 35.459 17.7453 35.4477 17.3826 35.4253C26.552 34.9014 33.8258 27.3 33.8258 17.9998C33.8258 8.62366 26.4331 0.974435 17.1582 0.563037C17.5948 0.530693 18.0358 0.513886 18.4809 0.513886C20.9642 0.513886 23.3268 1.03279 25.4657 1.96929L34.5092 11.0592C35.4269 13.1827 35.9352 15.5255 35.9352 17.9864Z" fill="#F4E5CB"/>
<path d="M32.0091 17.9861C32.0091 25.4653 25.9524 31.5283 18.481 31.5283C18.3741 31.5283 18.2672 31.5268 18.1611 31.5248C10.8373 31.3546 4.95215 25.3584 4.95215 17.9861C4.95215 10.8044 10.5357 4.92924 17.5936 4.47221C17.8868 4.45316 18.1828 4.44339 18.481 4.44339C19.9386 4.44339 21.342 4.67394 22.6575 5.10144L31.3707 13.8617C31.7855 15.1618 32.0091 16.5475 32.0091 17.9861Z" fill="#FF7878"/>
<path d="M32.0092 17.9861C32.0092 25.4653 25.9525 31.5283 18.4812 31.5283C18.3742 31.5283 18.2673 31.5268 18.1612 31.5248C24.7446 30.5565 29.7972 24.8852 29.7972 18.034C29.7972 10.9866 24.4514 5.18792 17.5938 4.47221C17.887 4.45316 18.183 4.44339 18.4812 4.44339C19.9387 4.44339 21.3421 4.67394 22.6577 5.10144L31.3708 13.8617C31.7856 15.1618 32.0092 16.5475 32.0092 17.9861Z" fill="#F4536F"/>
<path d="M27.6842 17.9864C27.6842 23.075 23.5632 27.2002 18.4803 27.2002C18.0268 27.2002 17.5817 27.1671 17.1457 27.1039C12.695 26.457 9.27637 22.6214 9.27637 17.9864C9.27637 13.3923 12.6345 9.58347 17.0283 8.88667C17.5016 8.81144 17.986 8.77277 18.4803 8.77277C19.7185 8.77277 20.899 9.01745 21.9776 9.46112L27.0106 14.5193C27.4452 15.5895 27.6842 16.7603 27.6842 17.9864Z" fill="#F4F1E1"/>
<path d="M27.6842 17.9864C27.6842 23.075 23.5632 27.2002 18.4803 27.2002C18.0268 27.2002 17.5817 27.1671 17.1457 27.1039C21.837 26.72 25.5249 22.7902 25.5249 17.9998C25.5249 13.1694 21.7751 9.21433 17.0283 8.88667C17.5016 8.81144 17.986 8.77277 18.4803 8.77277C19.7185 8.77277 20.899 9.01745 21.9776 9.46112L27.0106 14.5193C27.4452 15.5895 27.6842 16.7603 27.6842 17.9864Z" fill="#F4E5CB"/>
<path d="M23.3194 17.9863C23.3194 20.6616 21.1531 22.8301 18.4806 22.8301C18.2218 22.8301 17.9686 22.8097 17.7211 22.7703C15.4093 22.4061 13.6416 20.4029 13.6416 17.9863C13.6416 15.5422 15.45 13.52 17.8007 13.1895C18.0228 13.158 18.2499 13.1418 18.4806 13.1418C19.6139 13.1418 20.6567 13.5327 21.4821 14.1859L22.4848 15.2659C23.0114 16.0415 23.3194 16.978 23.3194 17.9863Z" fill="#FF7878"/>
<path d="M23.32 17.9863C23.32 20.6616 21.1536 22.8301 18.4811 22.8301C18.2223 22.8301 17.9692 22.8097 17.7217 22.7703C19.6996 22.07 21.1164 20.1828 21.1164 17.9652C21.1164 15.7771 19.7375 13.911 17.8012 13.1895C18.0233 13.158 18.2504 13.1418 18.4811 13.1418C19.6145 13.1418 20.6572 13.5327 21.4827 14.1859L22.4854 15.2659C23.012 16.0415 23.32 16.978 23.32 17.9863Z" fill="#F4536F"/>
<path d="M35.972 8.94759C35.972 8.94759 31.0262 17.8878 25.0566 13.5249L25.6866 12.5032L26.9255 10.4945L30.8412 8.17345C32.7228 9.07549 34.9904 9.01642 35.7273 8.96798C35.8841 8.95743 35.972 8.94759 35.972 8.94759Z" fill="#FFE36C"/>
<path d="M27.5519 0.519633C27.5519 0.519633 18.3546 5.61884 23.1825 11.7129L26.2865 10.482L28.4991 5.99163C27.1998 3.66239 27.5519 0.519633 27.5519 0.519633Z" fill="#FFE36C"/>
<path d="M35.972 8.94759C35.972 8.94759 31.0262 17.8878 25.0566 13.5249L25.6866 12.5032C30.5142 13.7021 35.7273 8.96798 35.7273 8.96798C35.8841 8.95743 35.972 8.94759 35.972 8.94759Z" fill="#FFC46E"/>
<path d="M32.8157 5.87011C32.8157 5.87011 26.1565 12.9484 18.4805 18.2373C18.5248 18.1733 18.5691 18.1086 18.6141 18.0446C23.8818 10.4418 30.8343 3.8866 30.8343 3.8866C30.8343 3.8866 31.0804 4.47933 31.638 5.05442C31.9368 5.36316 32.3264 5.66684 32.8157 5.87011Z" fill="#8389AA"/>
<path d="M32.8157 5.87011C32.8157 5.87011 26.1565 12.9484 18.4805 18.2373C18.5248 18.1733 18.5691 18.1086 18.6141 18.0446L31.638 5.05442C31.9368 5.36316 32.3264 5.66684 32.8157 5.87011Z" fill="#646D91"/>
<path d="M6.57227 5.21191C9.69091 2.2976 13.8775 0.514055 18.4803 0.514055C20.9641 0.514055 23.3266 1.03338 25.4656 1.96945" stroke="black" stroke-miterlimit="10" stroke-linecap="round" stroke-linejoin="round"/>
<path d="M28.4991 32.2959C25.6636 34.2891 22.2086 35.459 18.4807 35.459C8.8409 35.459 1.02637 27.6362 1.02637 17.9864C1.02637 13.7987 2.49808 9.9551 4.95191 6.94558" stroke="black" stroke-miterlimit="10" stroke-linecap="round" stroke-linejoin="round"/>
<path d="M34.5098 11.0591C35.4269 13.183 35.9352 15.5252 35.9352 17.9863C35.9352 23.0599 33.7751 27.6283 30.3252 30.8203" stroke="black" stroke-miterlimit="10" stroke-linecap="round" stroke-linejoin="round"/>
<path d="M22.4852 15.2659C23.0117 16.0413 23.3195 16.9777 23.3195 17.986C23.3195 20.6613 21.1531 22.8301 18.4806 22.8301C15.8081 22.8301 13.6416 20.6613 13.6416 17.986C13.6416 15.3107 15.8081 13.142 18.4806 13.142C19.6144 13.142 20.6571 13.5324 21.4819 14.1861" stroke="black" stroke-miterlimit="10" stroke-linecap="round" stroke-linejoin="round"/>
<path d="M9.27637 17.9863C9.27637 12.8977 13.3971 8.77265 18.4804 8.77265C19.7186 8.77265 20.8997 9.01734 21.978 9.46115" stroke="black" stroke-miterlimit="10" stroke-linecap="round" stroke-linejoin="round"/>
<path d="M27.0112 14.5193C27.4457 15.5896 27.6851 16.76 27.6851 17.9864C27.6851 23.075 23.5643 27.2002 18.481 27.2002C14.1807 27.2002 10.5691 24.2478 9.55859 20.2574" stroke="black" stroke-miterlimit="10" stroke-linecap="round" stroke-linejoin="round"/>
<path d="M31.3702 13.8622C31.785 15.1627 32.009 16.5484 32.009 17.9866C32.009 25.466 25.9521 31.5293 18.4806 31.5293C11.0091 31.5293 4.95215 25.466 4.95215 17.9866C4.95215 10.5073 11.0091 4.44401 18.4806 4.44401C19.9382 4.44401 21.3419 4.67478 22.6574 5.10178" stroke="black" stroke-miterlimit="10" stroke-linecap="round" stroke-linejoin="round"/>
<path d="M25.0566 13.5249C31.0259 17.8878 35.972 8.94794 35.972 8.94794C35.972 8.94794 33.1227 9.26786 30.8412 8.17359" stroke="black" stroke-miterlimit="10" stroke-linecap="round" stroke-linejoin="round"/>
<path d="M28.4991 5.99163C27.1998 3.66239 27.5518 0.519633 27.5518 0.519633C27.5518 0.519633 18.3546 5.61884 23.1825 11.7129" stroke="black" stroke-miterlimit="10" stroke-linecap="round" stroke-linejoin="round"/>
<path d="M25.4657 9.46913C23.2635 11.9262 20.7124 14.9909 18.4805 18.2373C26.1566 12.9486 32.8162 5.87018 32.8162 5.87018C31.4162 5.28799 30.8346 3.88652 30.8346 3.88652C30.8346 3.88652 29.263 5.36822 27.0481 7.73965" stroke="black" stroke-miterlimit="10" stroke-linecap="round" stroke-linejoin="round"/>
</g>
</g>
<defs>
<clipPath id="clip0_87_6104">
<rect width="36" height="36" fill="white" transform="translate(0.5)"/>
</clipPath>
</defs>
</svg>
