<svg width="30" height="30" viewBox="0 0 30 30" fill="none" xmlns="http://www.w3.org/2000/svg">
<g clip-path="url(#clip0_50_103)">
<path d="M1.03455 24.643H28.9655C29.5361 24.6411 29.9984 24.1625 30 23.5715V11.7858C29.9986 11.3538 29.748 10.9646 29.3633 10.7977L27.3104 1.85355C27.0625 0.765697 26.1239 -0.00212907 25.0449 4.43505e-06H4.95506C3.87611 -0.00212907 2.93747 0.765697 2.68959 1.85355L0.636749 10.7977C0.251999 10.9646 0.00137329 11.3538 0 11.7858V23.5715C0.00160218 24.1625 0.463944 24.6411 1.03455 24.643ZM26.8966 16.6072C26.8966 18.0865 25.7387 19.2857 24.3105 19.2857C22.882 19.2857 21.7241 18.0865 21.7241 16.6072C21.7241 15.1278 22.882 13.9285 24.3105 13.9285C25.7385 13.9292 26.8961 15.128 26.8966 16.6072ZM5.06241 3.09051C5.1178 2.84919 5.32585 2.67874 5.56549 2.67851H24.4345C24.6741 2.67851 24.8824 2.84895 24.9378 3.09051L26.6844 10.7143H3.31558L5.06241 3.09051ZM5.68954 13.9285C7.118 13.9285 8.27591 15.1278 8.27591 16.6072C8.27591 18.0865 7.118 19.2857 5.68954 19.2857C4.26132 19.2857 3.10341 18.0865 3.10341 16.6072C3.10387 15.128 4.26155 13.9292 5.68954 13.9285Z" fill="#D40815"/>
<path d="M5.1725 30C5.58403 30.0007 5.97908 29.8315 6.27022 29.5299C6.56136 29.2284 6.72478 28.8195 6.72409 28.393V25.7142H1.03455V28.393C1.03386 28.8195 1.19728 29.2284 1.48842 29.5299C1.77956 29.8315 2.17461 30.0007 2.58614 30H5.1725Z" fill="#D40815"/>
<path d="M27.4139 30C27.8254 30.0007 28.2204 29.8315 28.5116 29.5299C28.8027 29.2284 28.9661 28.8195 28.9655 28.393V25.7142H23.2759V28.393C23.2752 28.8195 23.4386 29.2284 23.7298 29.5299C24.0209 29.8315 24.416 30.0007 24.8275 30H27.4139Z" fill="#D40815"/>
<path d="M7.75864 4.28575H6.72409C6.43845 4.28575 6.20682 4.52565 6.20682 4.8215C6.20682 5.11734 6.43845 5.35724 6.72409 5.35724H7.75864C8.04428 5.35724 8.27591 5.11734 8.27591 4.8215C8.27591 4.52565 8.04428 4.28575 7.75864 4.28575Z" fill="#D40815"/>
<path d="M18.6207 4.28575H9.8275C9.54186 4.28575 9.31046 4.52565 9.31046 4.8215C9.31046 5.11734 9.54186 5.35724 9.8275 5.35724H18.6207C18.9063 5.35724 19.138 5.11734 19.138 4.8215C19.138 4.52565 18.9063 4.28575 18.6207 4.28575Z" fill="#D40815"/>
</g>
<defs>
<clipPath id="clip0_50_103">
<rect width="30" height="30" fill="white"/>
</clipPath>
</defs>
</svg>
