<svg width="260" height="199" viewBox="0 0 260 199" fill="none" xmlns="http://www.w3.org/2000/svg">
<path d="M88.3261 128.737C88.0074 129.436 87.7525 130.198 87.3701 130.897C86.669 132.422 85.968 133.948 85.0757 135.346C83.1637 138.523 81.1242 141.7 79.0848 144.814C77.9376 146.53 76.408 147.991 74.6234 149.135C73.0938 150.152 71.5005 150.406 69.7159 149.898C66.9754 149.072 64.5535 147.737 62.3228 145.958C61.1119 144.941 60.1559 143.734 59.4548 142.272C57.7978 138.968 56.9692 135.473 56.7143 131.787C56.2682 124.86 55.9495 117.934 56.077 111.007C56.1407 108.91 56.2682 106.813 56.3956 104.652C56.3319 104.716 56.2682 104.716 56.2044 104.78C53.9738 107.449 51.042 109.291 48.174 111.261C44.4137 113.867 40.3985 115.837 36.0009 117.108C27.2057 119.522 18.9204 116.282 13.8217 108.275C10.635 103.254 8.46807 97.8529 7.767 91.9431C7.25713 87.3677 6.87473 82.7288 7.83074 78.0898C8.40434 75.1031 9.36034 72.3071 10.8899 69.6381C12.9294 66.0159 16.1161 63.6647 20.0038 62.2031C23.2542 60.9957 26.5684 60.4873 29.9462 61.5676C30.9023 61.8854 31.8583 62.3302 32.6231 62.9021C34.3439 64.1731 34.79 65.6346 34.0252 67.6046C33.0692 69.9558 32.0495 72.3706 30.8385 74.5948C28.2892 79.1701 26.7596 84.0632 26.0585 89.2105C25.7398 91.9431 25.8036 94.7391 26.6958 97.4081C28.2254 102.111 31.7945 104.716 36.4471 105.542C43.5215 106.813 49.8948 104.78 55.4396 100.331C56.5231 99.4416 57.4791 98.4248 58.4988 97.4716C59.1999 96.7726 60.1559 96.582 61.1119 96.5184C63.4063 96.4549 65.5733 97.2175 67.6127 98.1071C68.8874 98.679 70.0346 99.5051 71.1818 100.268C72.8389 101.348 73.2213 103 73.3487 104.843C73.6037 108.275 73.285 111.643 72.9663 115.074C72.5839 119.522 72.2015 124.034 71.9466 128.483C71.6917 132.422 71.6917 136.299 72.1378 140.239C72.2015 140.874 72.329 141.51 72.5202 142.082C72.7114 142.59 73.0938 142.717 73.4762 142.272C73.9861 141.7 74.4322 141.128 74.8146 140.556C78.4474 135.409 81.0605 129.753 84.1197 124.225C85.1394 122.382 86.1592 120.539 87.3064 118.76C88.0074 117.68 88.1986 116.536 88.0712 115.328C87.8162 111.071 87.5613 106.813 88.0074 102.555C88.1349 101.094 88.581 99.6958 89.1546 98.3613C89.792 96.7091 91.2578 96.0736 93.0424 96.2643C96.5477 96.7091 99.6069 98.1071 102.22 100.458C102.921 101.094 103.622 101.793 104.323 102.428C105.343 103.382 105.789 104.589 105.98 105.923C106.554 111.579 106.681 117.235 106.681 122.89C106.681 130.452 106.809 138.015 106.809 145.513C106.809 147.864 106.681 150.216 106.618 152.63C107.701 152.757 108.721 152.821 109.804 152.948C116.942 153.711 124.081 154.791 131.155 156.253C139.313 157.968 147.407 159.748 155.629 161.273C160.982 162.289 166.4 162.988 171.817 163.497C176.788 164.005 181.823 164.005 186.858 163.56C190.427 163.243 193.805 162.099 196.546 159.621C199.222 157.142 200.497 154.155 199.541 150.533C199.159 149.199 198.458 147.991 197.82 146.784C197.183 145.704 197.119 145.195 198.075 144.433C199.732 143.035 201.517 141.954 203.684 141.7C209.037 141.001 213.817 142.526 218.406 145.005C219.107 145.386 219.808 145.894 220.509 146.339C223.186 147.991 224.971 150.343 226.054 153.329C226.883 155.426 227.647 157.523 227.456 159.875C227.138 164.641 225.863 169.089 222.294 172.521C219.872 174.808 217.004 176.46 213.881 177.668C210.758 178.875 207.635 179.956 204.321 180.21C201.262 180.464 198.139 180.718 195.016 180.591C190.108 180.337 185.265 179.956 180.421 179.257C172.263 178.113 164.233 176.651 156.33 174.3C146.706 171.44 137.146 168.581 127.522 165.785C122.36 164.259 117.07 163.306 111.716 162.798C110.187 162.671 108.657 162.544 107.127 162.417C106.745 162.417 106.426 162.417 105.98 162.417C105.789 164.132 105.662 165.785 105.407 167.437C104.706 172.393 104.068 177.414 102.347 182.18C100.945 185.992 99.2245 189.678 96.7389 192.856C93.9347 196.414 90.1106 198.321 85.6493 198.893C83.6736 199.147 81.6978 198.956 79.8495 198.257C77.3002 197.304 75.1333 195.715 73.6037 193.491C71.3093 190.187 70.0983 186.437 69.3335 182.561C67.4853 173.474 72.6477 161.718 83.0362 157.333C84.6933 156.634 86.4141 155.998 88.1349 155.363C88.5173 155.236 88.7085 155.109 88.7085 154.664C88.7722 149.326 88.8997 144.052 88.9634 138.714C88.9634 135.346 88.836 132.041 88.7085 128.673C88.4536 128.737 88.3898 128.737 88.3261 128.737ZM87.7525 164.895C86.2229 165.594 84.8845 166.166 83.6098 166.928C76.8541 170.868 74.8146 177.541 76.9815 184.34C77.6826 186.564 79.0848 188.28 81.2517 189.233C81.6978 189.424 82.0802 189.424 82.3989 188.979C82.845 188.28 83.3549 187.645 83.6098 186.946C84.3109 184.912 85.012 182.879 85.5218 180.782C86.669 176.27 87.1152 171.694 87.5613 167.119C87.6888 166.484 87.6888 165.785 87.7525 164.895ZM11.3998 89.2741C11.3998 93.214 12.6745 97.98 15.1601 102.365C15.2238 102.492 15.2876 102.682 15.415 102.682C15.7337 102.81 16.1798 103 16.4348 102.873C16.6897 102.81 16.8809 102.301 16.8809 101.983C16.8809 101.666 16.7534 101.348 16.626 101.03C15.2876 97.9165 14.459 94.612 14.2041 91.1805C13.8217 85.9697 14.2678 80.8223 15.9886 75.8657C17.1358 72.4977 19.0478 69.511 22.362 67.7952C22.7444 67.6046 23.1268 67.4139 22.9993 66.842C22.8718 66.3337 22.4257 66.2701 21.9796 66.2066C21.7246 66.2066 21.4697 66.2066 21.2148 66.2701C20.0038 66.5878 18.9841 67.1598 18.1556 68.0494C16.4348 69.7652 15.0964 71.7351 14.1403 74.0228C12.3558 78.6618 11.5273 83.3642 11.3998 89.2741ZM206.679 152.44C206.424 151.169 206.233 149.898 205.787 148.69C205.596 148.055 205.086 147.483 204.576 147.102C204.321 146.848 203.747 146.848 203.429 146.975C203.238 147.038 203.174 147.674 203.238 148.055C203.365 149.135 203.747 150.152 203.747 151.232C203.747 152.948 203.62 154.664 203.365 156.38C202.791 160.002 200.879 162.671 197.502 164.196C195.781 164.958 193.932 165.594 192.148 166.229C191.064 166.611 189.917 166.865 188.77 167.183C188.324 167.31 188.005 167.5 188.069 168.009C188.133 168.454 188.515 168.517 188.898 168.517C188.961 168.517 189.089 168.517 189.152 168.517C192.339 168.39 195.398 167.691 198.33 166.293C201.772 164.641 204.321 162.162 205.341 158.413C206.042 156.443 206.297 154.473 206.679 152.44ZM93.4885 115.9H93.4248C93.2973 113.74 93.1698 111.579 93.1061 109.418C93.0424 107.449 93.1061 105.479 93.1061 103.509C93.1061 102.746 93.2973 102.111 94.1896 101.856C94.3808 101.793 94.6357 101.348 94.572 101.094C94.5082 100.84 94.1896 100.585 93.8709 100.522C92.9149 100.331 92.0864 100.649 91.5765 101.475C91.2578 101.983 90.9392 102.619 90.8754 103.191C90.748 105.034 90.5568 106.877 90.6205 108.719C90.9392 113.549 91.3216 118.442 91.7677 123.272C91.8952 124.733 92.1501 126.195 92.3413 127.656C92.405 128.101 92.5962 128.483 93.1061 128.419C93.616 128.419 93.8072 128.038 93.8709 127.593C93.8709 127.339 93.8709 127.148 93.8709 126.894C93.7435 123.208 93.616 119.522 93.4885 115.9ZM59.7098 127.402C59.7735 131.024 60.0922 134.583 61.1119 138.078C61.558 139.667 62.4503 141.128 63.2151 142.653C63.4701 143.162 63.9162 143.353 64.4261 143.098C64.9359 142.844 64.9359 142.399 64.7447 141.891C64.681 141.7 64.5535 141.446 64.4261 141.255C62.8965 138.587 62.3228 135.727 62.2591 132.677C62.2591 130.325 62.0679 127.974 61.8767 125.686C61.813 125.115 61.6218 124.543 61.4306 123.971C61.1756 123.399 60.4746 123.272 60.0922 123.717C59.8372 123.971 59.7098 124.352 59.646 124.67C59.7098 125.559 59.7098 126.513 59.7098 127.402ZM81.5066 193.999C83.0362 193.999 84.056 193.682 84.8845 192.983C86.3504 191.902 87.4338 190.568 88.1986 188.916C89.6008 185.992 90.1744 182.752 91.0029 179.638C91.1304 179.257 90.8117 178.748 90.6205 178.303C90.5568 178.176 90.1744 178.113 90.0469 178.176C89.9194 178.24 89.8557 178.557 89.8557 178.748C89.8557 179.002 89.9194 179.32 89.8557 179.511C89.0272 182.497 87.9437 185.357 86.5416 188.09C85.9042 189.36 85.012 190.441 83.9285 191.394C83.2274 191.966 82.3989 192.411 81.5066 192.157C80.5506 191.902 79.5946 191.394 78.6386 191.076C78.3837 191.013 78.065 190.822 77.9376 190.886C77.7463 191.013 77.6189 191.394 77.6826 191.585C77.8738 191.966 78.065 192.411 78.4474 192.665C79.4671 193.618 80.6781 193.999 81.5066 193.999ZM71.7554 175.889C71.7554 176.079 71.6917 176.333 71.7554 176.524C71.8829 176.715 72.0741 177.032 72.2015 177.096C72.3927 177.096 72.6477 176.905 72.8389 176.715C72.9663 176.588 72.9663 176.397 72.9663 176.27C73.285 173.982 74.1773 171.822 75.0695 169.724C75.9618 167.691 77.3002 166.039 79.2122 164.895C79.7221 164.577 80.2957 164.259 80.8056 163.878C81.188 163.624 81.6341 163.306 81.9528 162.988C82.144 162.734 82.2077 162.353 82.2714 162.035C81.9528 161.972 81.5704 161.908 81.2517 161.781C81.188 161.781 81.1242 161.781 81.0605 161.845C78.9573 162.861 76.9178 164.005 75.3882 165.912C73.0301 168.835 72.1378 172.266 71.7554 175.889ZM185.137 168.644C185.137 167.945 184.627 167.373 183.926 167.373C183.225 167.373 182.652 167.945 182.652 168.644C182.652 169.28 183.225 169.852 183.926 169.788C184.627 169.852 185.137 169.343 185.137 168.644ZM92.2139 172.902C92.2776 172.838 92.2776 172.838 92.3413 172.775C92.0864 172.521 91.8314 172.139 91.5128 172.076C91.0029 171.949 90.8754 172.393 90.9392 172.838C90.9392 172.902 90.9392 173.029 90.8754 173.092C90.8117 173.537 90.6205 174.109 91.2578 174.173C91.8315 174.3 91.9589 173.728 92.0864 173.283C92.2139 173.156 92.2139 173.029 92.2139 172.902ZM19.8126 107.512C19.8126 106.813 19.4302 106.368 18.9204 106.368C18.4742 106.368 18.2193 106.559 18.2193 107.004C18.2193 107.512 18.6654 108.084 19.1116 108.02C19.3665 107.957 19.6214 107.639 19.8126 107.512ZM92.2139 135.219C92.2776 135.282 92.2776 135.282 92.3413 135.346C92.3413 135.409 92.3413 135.473 92.3413 135.536C92.4688 135.79 92.5962 136.108 92.7874 136.235C92.9149 136.299 93.361 136.235 93.4248 136.108C93.4885 135.918 93.4248 135.6 93.3611 135.409C93.3611 135.346 93.3611 135.282 93.2973 135.219C93.1061 135.028 92.9149 134.837 92.7237 134.647C92.5963 134.774 92.405 134.964 92.2139 135.219ZM60.7295 119.522C60.9844 119.078 61.2394 118.823 61.3031 118.569C61.3668 118.188 61.0482 117.87 60.6658 117.997C60.4108 118.061 60.1559 118.442 60.0922 118.696C60.0284 118.887 60.4108 119.141 60.7295 119.522Z" fill="#D40815"/>
<path d="M194.953 46.507C196.291 45.2996 197.566 44.2829 198.713 43.139C202.282 39.644 205.724 35.9582 208.846 31.9548C210.567 29.7306 211.396 27.1888 211.587 24.3927C211.651 23.3124 211.714 22.2956 211.714 21.2154C211.714 19.6267 212.288 18.2922 213.563 17.4025C217.068 14.8607 220.892 14.1616 224.971 15.7503C227.52 16.7035 228.668 18.8641 229.114 21.3424C229.879 25.3459 228.986 28.9681 226.819 32.3996C224.907 35.3863 222.613 38.0553 220 40.4065C216.303 43.6474 212.543 46.8248 208.528 49.6208C206.042 51.3366 203.365 52.6075 200.497 53.4972C200.306 53.5607 200.051 53.6243 199.796 53.6878C199.86 53.7514 199.86 53.8149 199.924 53.8785C205.724 55.7849 209.548 59.9154 212.543 64.9992C215.22 69.5745 217.004 74.5312 218.47 79.5514C220.446 86.2238 221.657 93.0869 222.932 99.95C224.206 106.94 225.353 113.93 226.692 120.92C227.202 123.589 227.903 126.258 229.305 128.61C229.751 129.372 230.325 130.135 230.898 130.834C232.237 132.359 234.085 132.613 235.806 131.533C238.036 130.198 239.375 128.101 240.458 125.877C242.052 122.573 242.88 119.014 243.263 115.392C243.645 111.643 243.454 107.957 242.625 104.335C241.542 99.5687 238.674 96.1372 234.467 93.7859C233.129 93.0234 231.727 92.3243 230.325 91.5618C230.261 91.5618 230.261 91.4982 230.197 91.4982C226.947 89.7189 226.055 87.6219 226.309 83.9362C226.501 81.4578 227.457 79.4243 228.604 77.3908C230.006 74.8489 232.3 73.7686 235.041 73.3874C238.61 72.8154 241.924 73.7686 244.983 75.548C251.803 79.4243 256.2 85.2706 257.985 92.9598C259.387 99.0603 259.77 105.288 259.323 111.579C258.814 118.951 256.137 125.559 252.122 131.596C248.17 137.57 242.816 141.891 235.869 143.861C229.177 145.767 222.868 144.687 217.068 140.684C214.774 139.095 213.053 136.998 211.268 134.964C208.337 131.596 206.552 127.656 205.15 123.526C203.11 117.489 201.772 111.261 201.198 104.907C200.816 100.395 200.561 95.8194 200.242 91.3076C199.669 84.1268 198.84 76.946 196.418 70.0829C195.654 67.9223 194.634 65.9524 193.104 63.9824C193.041 64.6814 192.913 65.1898 192.849 65.7617C192.085 74.0864 190.874 82.3475 189.089 90.545C188.962 90.9899 188.834 91.4982 188.707 91.9431C188.261 93.1505 187.56 93.5953 186.285 93.6588C184.5 93.7224 182.716 92.7056 182.078 91.0534C181.632 89.9096 181.314 88.7022 181.25 87.4948C180.995 83.5549 180.74 79.615 180.676 75.675C180.549 65.1898 180.485 54.7046 180.358 44.2193C180.294 39.5169 179.975 34.7508 179.848 30.0484C179.784 26.6804 179.975 23.3124 180.103 19.9444C180.103 19.5631 180.23 19.1183 180.294 18.737C180.549 17.5296 181.25 16.7035 182.461 16.3222C185.584 15.369 188.579 15.4961 191.32 17.339C192.594 18.2286 193.869 19.1818 195.08 20.0715C196.164 20.8341 196.355 21.9779 196.355 23.1218C196.355 25.6636 196.291 28.2691 196.164 30.8109C196.036 33.7976 195.781 36.7843 195.59 39.771C195.335 41.9952 195.144 44.1558 194.953 46.507ZM205.978 101.602C206.17 107.83 206.807 114.057 208.464 120.094C209.548 123.971 211.141 127.466 214.136 130.325C214.519 130.707 214.965 131.024 215.538 130.707C216.112 130.325 215.985 129.753 215.73 129.245C215.22 128.292 214.646 127.275 214.073 126.322C212.989 124.67 212.033 122.954 211.523 120.984C211.077 119.332 210.504 117.616 210.249 115.9C209.42 110.88 208.719 105.796 208.018 100.713C207.827 99.6322 207.636 98.5519 207.381 97.4716C207.317 97.2174 206.871 97.0268 206.552 96.7726C206.425 97.0904 206.106 97.3445 206.106 97.6623C205.978 99.0603 205.978 100.331 205.978 101.602ZM233.766 78.4711C233.575 78.5982 233.129 78.7888 232.874 79.1066C232.045 79.9962 231.727 81.1401 231.536 82.2839C231.281 84.5081 232.045 86.4145 233.766 87.8125C236.061 89.7189 238.483 91.4982 240.267 93.913C240.522 94.2943 240.968 94.4849 241.414 94.1672C241.924 93.8495 241.797 93.4046 241.605 92.9598C240.649 91.0534 239.63 89.2105 237.845 87.8761C237.08 87.3041 236.379 86.6687 235.678 86.0967C234.212 84.8894 233.703 83.3007 234.212 81.4578C234.34 80.8859 234.659 80.314 234.85 79.7421C235.041 79.1066 234.722 78.4711 233.766 78.4711ZM184.883 28.5868H184.946C184.946 27.6971 184.946 26.7439 184.946 25.8543C185.01 24.2656 185.074 22.6769 185.138 21.0247C185.138 20.5799 185.138 20.0715 184.628 20.0715C184.309 20.0715 183.863 20.3257 183.608 20.5799C183.353 20.8341 183.226 21.1518 183.226 21.5331C183.034 22.804 182.843 24.075 182.779 25.3459C182.652 29.9213 182.652 34.5602 183.226 39.1356C183.289 39.5804 183.353 40.0888 183.927 40.0888C184.564 40.0888 184.564 39.5804 184.628 39.1356C184.628 39.072 184.628 38.9449 184.628 38.8814C184.691 35.3863 184.755 31.9548 184.883 28.5868ZM218.215 18.6099C217.068 18.6099 216.176 19.1183 215.73 20.0715C215.411 20.707 215.284 21.4695 215.092 22.1686C214.646 23.6301 214.328 25.1553 213.818 26.5533C213.626 27.1252 213.053 27.57 212.67 28.142C212.543 28.3326 212.416 28.6503 212.479 28.7774C212.543 28.9681 212.862 29.2858 213.053 29.2858C213.499 29.2223 214.073 29.0952 214.328 28.7774C215.347 27.6336 216.176 26.4262 216.558 24.9646C216.813 23.8208 217.004 22.6769 217.259 21.5331C217.387 20.7705 217.705 20.2621 218.534 20.0715C218.98 19.9444 219.362 19.7538 219.235 19.1818C219.044 18.6735 218.534 18.6735 218.215 18.6099ZM185.584 78.5347C185.584 76.946 185.584 75.548 185.584 74.1499C185.584 73.578 185.52 72.9425 184.819 72.879C184.054 72.8154 183.99 73.5145 183.927 74.0864C183.863 77.0731 183.863 80.0598 183.863 82.983C183.863 83.4278 183.99 83.8726 184.564 83.8726C185.138 83.8726 185.265 83.4278 185.329 82.983C185.393 81.3943 185.52 79.8691 185.584 78.5347ZM242.944 98.0436C243.071 98.1707 243.263 98.4248 243.517 98.4884C243.9 98.6155 244.665 97.7258 244.665 97.281C244.665 97.0904 244.41 96.7726 244.219 96.7091C243.709 96.582 243.008 97.281 242.944 98.0436ZM183.544 43.0755C183.927 43.3932 184.182 43.6474 184.437 43.9016C184.628 43.6474 185.074 43.3297 185.01 43.2026C184.883 42.8848 184.5 42.6307 184.245 42.3765C184.054 42.5671 183.863 42.7578 183.544 43.0755Z" fill="#D40815"/>
<path d="M39.1245 45.4268C37.5949 45.5539 36.1291 45.6174 34.6632 45.681C29.3096 45.9987 23.956 45.8716 18.6661 44.7913C12.9938 43.5839 8.21381 40.7878 4.7722 36.1489C0.756993 30.6839 -0.517676 24.5198 1.33059 17.911C3.11513 11.175 6.93914 5.9006 12.9301 2.40552C18.2837 -0.644734 23.8922 -0.771827 29.4371 1.89714C31.3491 2.85035 33.1973 3.99419 34.9819 5.20158C35.8741 5.83705 36.6389 6.79026 37.34 7.67991C38.1685 8.69666 37.8499 9.77696 36.6389 10.3489C35.8104 10.7937 34.9181 11.175 34.0896 11.6834C32.2413 12.7637 30.7755 14.1617 30.2656 16.2587C29.9469 17.5932 30.0107 18.8642 30.7117 20.0716C32.6237 23.3125 35.4917 25.2824 39.1245 26.1085C39.252 26.1085 39.3157 26.1085 39.5069 26.1085C39.6344 24.6469 39.6344 23.2489 39.8256 21.8509C40.208 19.2454 40.4629 16.5765 41.1003 13.9711C42.1837 9.64986 45.6891 7.48927 50.1504 8.06119C53.0184 8.44247 55.6315 9.39568 58.1808 10.6666C59.583 11.3021 60.9214 12.0646 62.2598 12.7637C62.8334 13.0179 63.1521 13.5262 63.0246 14.0981C62.8334 15.1784 62.6422 16.2587 62.3872 17.339C61.6862 20.2622 61.0488 23.2489 60.3478 26.1721C60.3478 26.2992 60.284 26.4262 60.284 26.6804C61.8774 26.4898 63.407 26.3627 65.0003 26.1721C63.5982 31.2558 64.2355 36.3396 63.7257 41.4869C62.5147 41.7411 61.24 41.9952 59.9654 42.2494C58.2446 42.6307 58.2446 42.5672 58.1171 44.3465C57.0336 55.912 56.5238 67.4775 56.5238 79.0431C56.5238 82.7288 56.9062 86.2874 57.671 89.9096C57.8622 90.7357 57.8622 91.6254 57.9259 92.4515C57.9896 93.5953 57.2248 94.3579 56.0776 94.1673C53.2096 93.7224 50.5328 92.7692 48.3022 90.9264C44.032 87.4948 41.7376 82.983 41.0365 77.5815C39.7619 67.1598 38.8696 56.6746 39.0608 46.1258C39.1245 45.8716 39.1245 45.681 39.1245 45.4268ZM43.3309 60.5509H43.3947C43.4584 61.949 43.5221 63.4105 43.5859 64.8086C43.7771 68.3037 43.8408 71.7987 44.5419 75.2303C44.7331 76.1835 44.9243 77.1367 45.243 78.0263C45.3067 78.2805 45.8166 78.5347 46.0715 78.5347C46.3264 78.4712 46.5813 78.0899 46.6451 77.7722C46.7088 77.4544 46.6451 77.0731 46.5814 76.6918C46.0715 73.5145 45.5616 70.3372 45.4979 67.0963C45.4342 62.9657 45.3704 58.8987 45.243 54.7682C45.1792 53.0524 44.9243 51.2731 44.7331 49.5573C44.6693 49.176 44.6056 48.6677 44.032 48.6677C43.4584 48.6677 43.4584 49.176 43.3947 49.5573C43.3309 50.2563 43.2035 51.0189 43.2035 51.7179C43.2035 54.6411 43.2672 57.6278 43.3309 60.5509ZM4.64473 23.6302C4.7722 27.3795 6.55674 30.5568 9.42474 33.1622C9.80715 33.48 10.2533 33.6706 10.6357 33.2893C11.0818 32.908 10.8269 32.4632 10.5719 32.0819C10.0621 31.3829 9.61594 30.6839 9.16981 29.9849C7.70394 27.6972 7.00287 25.2189 7.38527 22.4863C7.76767 20.0716 8.34128 17.7203 9.55221 15.5597C9.99835 14.7972 9.99835 14.2252 9.55221 13.844C9.10608 13.5262 8.46874 13.5898 7.89514 14.2252C7.25781 14.9243 6.62047 15.6233 6.23807 16.4494C5.21834 18.61 4.7722 20.9612 4.64473 23.6302ZM42.8848 17.8474C42.9485 17.8474 42.9485 17.8474 43.0123 17.8474C43.0123 18.4829 42.9485 19.1184 43.0123 19.6903C43.076 19.9445 43.3947 20.2622 43.6496 20.2622C43.9045 20.2622 44.2232 20.008 44.3507 19.7538C44.4781 19.5632 44.4781 19.2454 44.5419 18.9913C44.8605 17.4026 45.1155 15.7504 45.4979 14.1617C45.8166 12.9543 46.3901 12.5095 47.6648 12.3824C47.9198 12.3824 48.2384 12.3824 48.4934 12.2553C48.812 12.1282 49.1944 11.874 49.2582 11.6198C49.2582 11.3021 49.0032 10.9208 48.7483 10.6666C48.6208 10.476 48.3022 10.476 48.0472 10.4124C45.8166 9.9676 43.9683 11.2385 43.5221 13.6533C43.2035 15.0514 43.076 16.4494 42.8848 17.8474ZM44.0957 23.8844C43.5859 23.8844 43.2035 24.2657 43.2035 24.774C43.2035 25.2824 43.6496 25.7272 44.1595 25.7272C44.7331 25.7272 44.9243 25.346 44.988 24.9011C44.988 24.3927 44.6056 23.9479 44.0957 23.8844ZM14.396 35.3864C14.2685 35.2593 14.0136 34.9415 13.6949 34.8144C13.3125 34.6873 12.8026 35.2593 12.8026 35.7676C12.8026 36.2125 13.0576 36.5302 13.5037 36.5302C14.141 36.4667 14.3322 36.0854 14.396 35.3864Z" fill="#D40815"/>
<path d="M170.543 138.65C170.033 140.175 169.523 141.764 168.949 143.289C167.866 146.149 166.209 148.627 163.914 150.597C162.958 151.423 161.811 151.677 160.6 151.423C157.031 150.724 153.845 149.326 150.977 147.038C149.957 146.212 149.256 145.132 148.682 143.988C147.28 140.747 146.706 137.316 146.579 133.82C146.515 132.232 146.579 130.643 146.579 129.118C146.515 129.118 146.451 129.054 146.388 129.054C145.814 129.626 145.304 130.198 144.731 130.77C143.392 132.168 141.926 133.312 140.206 134.075C139.759 134.265 139.696 134.647 139.632 134.964C138.867 138.714 137.784 142.272 136.254 145.767C134.916 148.754 132.876 150.978 129.562 151.677C126.885 152.249 124.4 151.55 121.978 150.47C118.217 148.754 116.178 145.704 114.967 141.827C114.011 138.777 113.501 135.727 113.437 132.55C113.437 130.897 113.374 129.182 113.31 127.529C113.31 127.212 113.119 126.894 112.991 126.703C111.653 124.86 110.251 122.954 109.741 120.666C108.53 115.519 108.849 110.499 111.717 105.987C114.075 102.238 117.708 100.077 122.36 100.395C125.547 100.585 128.415 101.983 131.155 103.572C135.68 106.241 138.102 110.245 139.186 115.265C140.014 119.078 140.524 122.827 140.46 126.703C140.46 126.957 140.46 127.212 140.46 127.656C141.416 127.212 142.309 126.83 143.137 126.322C144.03 125.814 144.794 125.115 145.623 124.479C145.878 124.288 146.197 124.225 146.579 124.034C146.643 121.937 146.706 119.713 146.77 117.489C146.898 114.057 147.216 110.562 148.172 107.194C148.491 105.987 149.064 104.907 149.829 103.89C150.849 102.682 152.124 102.301 153.653 102.555C157.159 103.191 159.899 105.097 162.194 107.703C163.15 108.847 163.532 110.245 163.468 111.706C163.341 114.184 163.086 116.663 162.831 119.141C162.576 122.191 162.194 125.305 161.939 128.355C161.684 131.342 161.493 134.329 161.429 137.379C161.429 138.968 161.684 140.493 161.939 142.082C162.002 142.399 162.321 142.717 162.512 142.971C162.767 142.717 163.15 142.526 163.277 142.272C164.169 140.429 165.125 138.65 165.89 136.744C167.42 132.804 168.886 128.8 170.351 124.86C170.606 124.098 170.67 123.208 170.734 122.382C171.053 118.379 171.244 114.439 171.626 110.435C171.754 109.228 172.072 108.02 172.391 106.877C172.965 105.097 174.112 104.462 175.96 104.716C179.72 105.288 182.461 107.385 184.5 110.499C185.329 111.77 185.584 113.231 185.52 114.693C185.393 118.442 185.138 122.128 184.946 125.877C184.755 128.483 184.5 131.152 184.309 133.757C184.182 135.981 184.054 138.269 184.054 140.493C184.054 141.827 184.373 143.162 184.564 144.496C184.628 145.132 185.074 145.259 185.584 145.068C186.157 144.814 186.731 144.496 187.113 144.115C188.133 143.098 189.089 141.954 190.045 140.874C190.3 140.62 190.491 140.302 190.746 140.112C190.937 139.985 191.256 139.921 191.384 140.048C191.575 140.239 191.83 140.556 191.766 140.811C191.702 141.319 191.511 141.827 191.32 142.209C190.364 143.988 189.535 145.894 188.388 147.547C187.305 149.135 185.584 150.216 183.927 151.105C182.015 152.122 180.103 151.995 178.382 150.788C174.239 148.055 170.925 144.242 170.543 138.65ZM133.896 127.656C133.96 127.339 133.96 127.085 134.023 126.83C134.023 125.051 134.087 123.272 134.023 121.492C133.96 118.188 133.195 115.074 131.984 112.024C131.793 111.579 131.602 111.198 131.347 110.816C130.072 108.847 127.969 108.91 127.013 111.007C126.567 111.96 126.439 113.041 126.12 114.057C125.929 114.629 126.12 114.947 126.694 115.201C128.096 115.837 129.307 116.79 130.327 117.997C130.964 118.76 131.092 119.522 130.837 120.412C130.454 121.747 130.072 123.145 129.562 124.479C129.435 124.924 129.498 125.178 129.817 125.496C131.028 126.576 132.366 127.212 133.896 127.656ZM152.697 106.749C152.442 106.94 151.805 107.194 151.55 107.703C151.04 108.529 150.594 109.418 150.339 110.372C149.192 114.502 149.383 118.76 149.574 122.954C149.574 123.399 149.829 123.844 150.339 123.844C150.849 123.844 150.977 123.462 151.04 123.018C151.104 122.89 151.104 122.7 151.104 122.573C151.423 119.522 151.678 116.472 152.06 113.485C152.315 111.579 152.57 109.546 153.781 107.893C154.163 107.321 153.717 106.686 152.697 106.749ZM112.864 114.121C112.736 115.519 113.374 116.726 114.011 117.87C114.139 118.124 114.648 118.315 114.967 118.251C115.158 118.251 115.286 117.68 115.413 117.362C115.477 117.171 115.413 116.981 115.35 116.726C115.031 114.693 115.222 112.723 115.796 110.816C116.178 109.418 116.879 108.275 118.09 107.449C118.536 107.131 119.237 106.94 118.919 106.241C118.6 105.606 117.899 105.86 117.389 105.923C117.325 105.923 117.261 105.987 117.198 105.987C115.668 106.432 114.648 107.449 114.011 108.91C113.31 110.562 112.991 112.342 112.864 114.121ZM126.822 136.362C126.758 137.061 126.694 137.887 126.63 138.714C126.567 140.302 126.63 141.827 127.204 143.353C127.331 143.734 127.714 143.988 127.969 144.306C128.287 144.052 128.67 143.861 128.861 143.48C129.753 141.764 130.582 139.985 131.41 138.205C131.665 137.697 131.793 137.125 131.984 136.68C130.263 136.617 128.606 136.489 126.822 136.362ZM176.725 108.529C176.47 108.719 175.896 108.974 175.578 109.355C175.068 110.054 174.558 110.816 174.43 111.643C174.048 114.248 173.793 116.917 173.538 119.522C173.474 120.094 173.793 120.539 174.43 120.666C175.004 120.73 175.323 120.412 175.45 119.713C175.641 118.506 175.705 117.235 175.96 116.027C176.342 113.867 176.279 111.579 177.808 109.736C178.191 109.228 177.745 108.529 176.725 108.529ZM116.369 135.536C116.369 138.332 117.453 140.747 118.727 143.162C118.982 143.67 119.237 144.306 119.938 143.988C120.639 143.67 120.321 143.035 120.13 142.59C119.301 140.62 118.727 138.586 118.472 136.489C118.409 135.727 118.281 134.964 118.026 134.265C117.899 133.948 117.453 133.757 117.198 133.503C116.943 133.757 116.624 134.011 116.497 134.329C116.306 134.647 116.369 135.091 116.369 135.536ZM153.845 142.908C153.781 142.59 153.781 142.463 153.717 142.336C153.271 141.383 152.889 140.429 152.442 139.476C152.251 139.095 151.996 138.714 151.423 138.841C150.849 138.968 150.785 139.413 150.722 139.921C150.658 141.255 151.295 142.399 152.124 143.416C152.315 143.67 152.889 143.734 153.207 143.607C153.462 143.48 153.653 143.098 153.845 142.908ZM122.36 147.42C122.615 147.038 122.806 146.848 122.806 146.657C122.806 146.53 122.488 146.276 122.36 146.276C122.169 146.276 121.914 146.53 121.914 146.721C121.85 146.848 122.105 147.102 122.36 147.42Z" fill="#D40815"/>
<path d="M141.862 83.9361C140.97 85.9696 140.014 88.0667 139.058 90.1637C138.867 90.6086 138.484 91.0534 138.166 91.4982C137.019 92.8963 135.553 93.4046 133.768 93.0869C129.243 92.1972 126.439 89.4647 124.973 85.2706C124.654 84.381 124.399 83.4913 124.081 82.4746C123.635 83.4913 123.252 84.381 122.87 85.2706C121.978 87.3677 120.958 89.3376 119.428 91.0534C117.707 93.0233 115.477 93.4046 113.182 92.1972C109.295 90.1002 106.809 86.9228 105.725 82.7288C105.216 80.8859 105.407 79.043 105.662 77.2002C106.427 72.1164 107.255 67.0327 108.848 62.1396C109.804 59.1528 111.207 56.4203 113.055 53.942C113.756 52.9888 114.648 52.1627 115.54 51.4001C117.389 49.7479 119.683 49.8114 121.914 50.2563C125.164 50.8917 128.032 52.4804 130.773 54.2597C132.239 55.2129 133.641 56.2297 134.724 57.6277C135.808 59.0257 135.999 60.4873 134.979 62.0125C134.278 63.0292 133.641 64.046 132.876 65.1898C134.66 65.5075 136.19 66.2701 137.656 67.3504C138.612 68.0494 139.249 68.9391 139.122 70.21C138.931 73.1332 138.739 76.1199 138.548 79.043C138.421 80.5046 138.293 81.9026 138.293 83.4278C138.421 83.2371 138.484 83.0465 138.612 82.7923C139.44 80.7588 140.333 78.7253 141.161 76.6918C141.289 76.4376 141.289 76.0563 141.289 75.7386C141.289 72.1164 141.225 68.4942 141.289 64.8721C141.352 62.8386 141.671 60.8051 141.926 58.8351C141.99 58.5174 142.117 58.2632 142.181 58.009C142.755 56.3568 143.902 55.4036 145.686 55.4036C148.809 55.34 151.741 56.039 154.418 57.6913C155.693 58.4538 155.565 59.6612 155.501 60.8051C155.501 62.0125 155.501 63.2198 155.501 64.6179C155.693 64.3001 155.82 64.1095 155.947 63.8553C157.35 61.377 159.007 59.0257 160.982 56.9922C162.066 55.912 163.213 54.7681 164.806 54.7681C166.145 54.8316 167.547 55.0858 168.822 55.6578C171.562 56.8016 173.729 58.7716 175.769 60.9322C176.852 62.076 176.979 63.6647 177.107 65.1263C177.553 69.5745 177.298 74.0864 177.107 78.5346C176.979 82.5381 177.043 86.5416 178.7 90.3544C179.274 91.6253 178.891 92.3879 177.617 92.7056C173.092 93.7224 168.694 93.4682 164.87 90.4815C162.576 88.7022 161.556 86.2238 160.919 83.4913C160.154 79.9327 160.154 76.3105 160.6 72.6883C160.919 69.9558 161.237 67.1598 161.556 64.4272C161.556 64.3001 161.556 64.1095 161.556 63.8553C161.365 64.1095 161.237 64.2366 161.11 64.4272C159.771 66.3972 158.433 68.4307 157.095 70.4642C156.903 70.7819 156.776 71.0997 156.521 71.2903C154.864 72.6883 154.928 74.5947 154.864 76.5012C154.609 80.9494 154.099 85.3977 152.633 89.6554C152.442 90.2908 152.187 90.8627 151.932 91.4347C151.295 92.9598 150.084 93.6588 148.427 93.5953C147.598 93.5317 146.706 93.4046 145.941 93.214C144.603 92.8327 143.647 91.8795 143.264 90.545C142.691 88.6386 142.308 86.7322 141.862 84.8258C141.862 84.1903 141.862 83.9997 141.862 83.9361ZM118.6 61.9489C118.472 62.2666 118.408 62.4573 118.345 62.6479C117.899 66.0159 117.325 69.3839 117.006 72.7519C116.751 75.1667 116.688 77.645 116.624 80.1233C116.56 81.6484 116.688 83.1736 116.815 84.6352C116.879 85.2706 117.134 85.3342 117.644 84.9529C117.962 84.6352 118.345 84.3174 118.6 83.9361C119.619 82.3475 120.639 80.7588 121.659 79.1701C122.169 78.4076 122.679 77.7085 123.125 76.946C123.316 76.6918 123.507 76.3105 123.507 75.9928C123.635 74.976 123.635 73.9593 123.762 73.0061C123.89 71.7351 124.144 70.5277 124.272 69.2568C123.125 68.9391 122.36 68.1765 121.723 67.2233C121.276 66.5243 120.83 65.8888 120.448 65.1898C119.811 64.173 119.237 63.0928 118.6 61.9489ZM120.002 53.942C120.002 54.0055 120.065 54.0691 120.065 54.1326C120.129 54.1326 120.193 54.1326 120.257 54.1326C120.703 54.1326 121.213 54.1326 121.276 53.5607C121.34 52.9888 120.894 52.7982 120.512 52.6711C119.619 52.3533 118.727 52.4169 117.835 52.7982C115.604 53.8149 114.075 55.5307 113.31 57.8819C112.8 59.4706 112.481 61.0592 112.099 62.6479C111.971 63.0292 111.908 63.474 112.417 63.6011C112.927 63.7918 113.182 63.4105 113.373 63.0292C113.501 62.8386 113.565 62.5844 113.628 62.3302C114.138 60.9957 114.648 59.5977 115.222 58.2632C115.795 56.8652 116.751 55.7213 117.962 54.8317C118.6 54.5139 119.364 54.2597 120.002 53.942ZM163.022 78.7888C163.086 80.8223 163.341 82.8558 164.105 84.7622C164.743 86.4145 165.954 87.4948 167.674 88.0667C168.184 88.1938 168.63 88.1938 168.885 87.749C169.14 87.2406 168.949 86.8593 168.567 86.5416C168.248 86.2874 167.993 86.0332 167.674 85.8426C166.782 85.2706 166.209 84.4445 165.89 83.4278C165.507 82.0933 165.125 80.8223 164.743 79.4879C164.551 78.8524 164.424 78.2169 164.169 77.5815C164.105 77.3908 163.723 77.1366 163.532 77.2002C163.341 77.2002 163.086 77.5179 163.022 77.7721C162.958 78.0263 163.022 78.4076 163.022 78.7888ZM144.22 63.7282C144.22 64.3001 144.157 64.8085 144.22 65.3804C144.284 65.6346 144.539 65.8888 144.73 66.143C144.985 65.9524 145.24 65.6982 145.431 65.5075C145.495 65.3804 145.495 65.1898 145.559 65.0627C145.814 63.8553 146.069 62.5844 146.387 61.377C146.642 60.4873 147.088 59.8519 148.108 59.7248C148.363 59.6612 148.809 59.2799 148.809 59.0258C148.809 58.7716 148.427 58.3903 148.172 58.3267C146.834 57.8184 145.623 58.4538 144.922 59.9154C144.284 61.0593 144.157 62.3937 144.22 63.7282ZM126.821 83.3007C126.885 83.3642 126.949 83.3642 126.949 83.4278C126.949 83.6184 127.012 83.809 127.012 83.9997C127.267 85.9696 128.478 87.3677 129.88 88.6386C130.327 89.0199 130.773 89.5918 131.474 89.147C131.92 88.8293 131.856 88.3209 131.219 87.4312C130.199 86.0332 128.988 84.7623 128.542 82.9829C128.415 82.5381 128.032 82.1568 127.522 82.411C127.267 82.5381 127.076 82.9829 126.821 83.3007ZM144.985 68.113C144.475 68.113 144.093 68.5578 144.093 69.2568C144.093 69.8923 144.475 70.3371 145.049 70.4007C145.559 70.4007 146.005 70.0194 146.005 69.5745C146.005 68.8755 145.495 68.113 144.985 68.113ZM172.582 88.6386C172.582 88.1302 172.199 87.749 171.69 87.749C171.18 87.749 170.734 88.1302 170.67 88.5751C170.67 89.0834 171.116 89.5283 171.626 89.5283C172.136 89.5283 172.582 89.147 172.582 88.6386Z" fill="#D40815"/>
<path d="M81.3158 63.2834C82.5268 61.6312 83.5465 60.0425 84.8212 58.5174C85.7772 57.3735 86.8606 56.4203 88.0078 55.4671C88.9001 54.7046 89.9836 54.5775 91.1945 54.7681C93.1702 55.0859 94.9548 55.7849 96.5481 57.0558C97.8865 58.0726 99.0975 59.1529 100.372 60.2332C101.902 61.5041 102.157 63.3469 102.348 65.1263C102.794 69.5745 102.539 74.0864 102.348 78.5347C102.22 82.5381 102.284 86.5416 104.005 90.3544C104.579 91.6253 104.196 92.3879 102.858 92.6421C98.3327 93.6588 93.9351 93.4046 90.111 90.3544C87.8804 88.5751 86.8606 86.1603 86.2233 83.4913C85.3948 79.8691 85.4585 76.247 85.8409 72.6248C86.1596 69.8287 86.4782 67.0327 86.8606 64.2366C86.8606 64.1095 86.8606 63.9824 86.8606 63.7282C86.6694 63.9824 86.542 64.1095 86.4145 64.2366C85.0761 66.2701 83.7377 68.3036 82.3356 70.2736C81.9532 70.8455 81.6345 71.481 81.1246 71.9258C80.3598 72.6248 80.2324 73.4509 80.1686 74.4041C79.9774 78.7888 79.7862 83.11 79.595 87.4948C79.5313 88.8293 79.5313 90.2273 79.4676 91.5618C79.4676 92.5785 79.0852 92.9598 78.0654 93.0869C76.2171 93.3411 74.8787 92.4514 73.6678 91.244C73.6041 91.1805 73.5403 91.0534 73.4766 90.9899C70.4811 88.5115 69.5251 85.0164 68.6966 81.4578C67.1033 74.9125 66.5934 68.1765 66.3385 61.4405C66.0835 55.9755 65.7649 50.5105 65.7011 44.9819C65.6374 40.1523 65.8923 35.3228 66.0198 30.4932C66.1473 26.1085 66.7846 21.7873 68.123 17.5932C68.7603 15.6232 69.5889 13.7804 70.8635 12.1281C71.947 10.6666 73.3492 9.64981 75.2612 9.71336C76.8545 9.77691 78.4478 9.84045 79.9774 10.1582C82.6542 10.6666 85.2036 11.6833 87.5617 13.0813C89.2825 14.0981 89.6649 15.8139 89.4737 17.6567C89.3462 19.0548 89.0276 20.3892 88.6452 21.7873C87.8166 25.0282 86.7332 28.2055 86.0321 31.4464C85.331 34.7508 84.8849 38.1824 84.375 41.5504C83.3553 48.6041 82.3356 55.7213 81.3796 62.775C81.3158 62.9657 81.3158 63.0928 81.3158 63.2834ZM68.6329 35.3863C68.8878 40.9149 69.079 45.6809 69.2702 50.3834C69.2702 50.6376 69.5889 50.8918 69.7801 51.0824C70.035 50.8918 70.3537 50.7647 70.4811 50.574C70.6086 50.3198 70.6723 49.9386 70.6723 49.5573C70.7361 46.4435 70.7998 43.3297 70.9273 40.2159C71.1185 35.8311 71.2459 31.3829 71.5009 26.9981C71.6921 24.3291 72.1382 21.7237 73.0942 19.1818C73.9227 17.0848 75.1974 15.5597 77.6193 15.2419C77.683 15.2419 77.7467 15.2419 77.8105 15.1784C78.0017 14.9878 78.3204 14.7971 78.3204 14.6065C78.3204 14.4158 78.0654 14.0345 77.8105 13.971C77.1731 13.8439 76.5358 13.6533 75.8985 13.7168C73.5403 13.971 72.0745 15.4326 71.0547 17.4661C70.0987 19.3725 69.5251 21.4695 69.3339 23.6301C69.079 27.8242 68.8241 32.0183 68.6329 35.3863ZM92.278 85.2071C92.1505 84.8894 92.0868 84.6352 91.9593 84.381C91.2582 82.983 90.5572 81.5849 89.7924 80.1869C89.6012 79.8056 89.3462 79.4879 88.8364 79.615C88.3265 79.7421 88.199 80.1233 88.2628 80.5682C88.3265 82.7288 89.6649 84.3174 90.9396 85.779C91.067 85.9061 91.5132 85.9061 91.7681 85.8426C92.023 85.7155 92.1505 85.3977 92.278 85.2071ZM98.2052 88.5115C98.2052 87.4312 96.8031 86.4145 95.9745 86.6051C95.4647 86.7958 95.2097 87.3041 95.3372 87.8761C95.5284 88.5115 96.7393 89.2741 97.3767 89.0835C97.7591 89.0199 98.014 88.6386 98.2052 88.5115ZM70.6723 56.4839C70.6723 55.7849 70.4174 55.34 69.8438 55.34C69.3339 55.34 68.9515 55.8484 68.9515 56.4203C68.9515 56.9923 69.3339 57.3735 69.8438 57.31C70.4174 57.31 70.6723 56.9923 70.6723 56.4839Z" fill="#D40815"/>
<path d="M86.7329 36.1489C86.9878 35.005 87.1153 33.9883 87.3702 32.9715C88.135 29.6671 88.9635 26.4262 89.7283 23.1218C89.8558 22.6769 90.047 22.4227 90.5569 22.3592C106.426 20.1986 122.36 18.1651 138.484 18.2922C144.093 18.3557 149.638 18.8641 155.119 20.008C156.457 20.2621 157.732 20.707 159.007 21.2154C161.683 22.3592 164.36 23.4395 166.846 24.9011C171.243 27.5065 174.175 31.3829 175.004 36.5302C176.023 42.8848 172.391 48.2228 166.145 49.9385C164.042 50.5105 161.938 50.6376 159.771 50.1927C159.262 50.0656 158.752 49.9385 158.242 49.6844C156.84 49.0489 156.011 47.9051 156.075 46.3164C156.075 45.4267 156.075 44.4735 156.202 43.5839C156.776 39.3262 154.991 36.2124 151.677 33.7976C148.682 31.637 145.304 30.3661 141.671 29.6671C136.572 28.5868 131.41 28.5232 126.184 28.7774C116.178 29.2223 106.49 31.3193 96.8665 33.7341C93.7435 34.4967 90.5569 35.1957 87.4339 35.9582C87.3065 36.0853 87.1153 36.0853 86.7329 36.1489ZM163.086 39.8981C162.831 36.7208 161.492 33.607 158.178 31.5735C157.668 31.2558 157.095 30.8109 156.585 31.3829C156.075 31.9548 156.585 32.5267 156.967 33.0351C157.604 33.8612 158.306 34.6237 158.879 35.4499C160.472 37.9917 161.428 40.6607 160.281 43.6474C160.09 44.1558 160.345 44.7913 160.791 44.9819C161.301 45.2361 161.811 45.0454 162.13 44.4735C162.703 43.2026 163.149 41.8681 163.086 39.8981ZM152.251 28.142C151.486 28.142 151.04 28.5232 151.04 29.0952C151.04 29.7942 151.805 30.6203 152.442 30.6203C153.143 30.6203 153.717 30.0484 153.717 29.3494C153.653 28.6503 153.079 28.142 152.251 28.142Z" fill="#D40815"/>
<path d="M31.2213 135.854C34.5992 135.918 37.7221 136.998 40.5901 138.777C43.9043 140.938 46.7723 143.48 48.6206 146.975C48.9392 147.61 49.3854 148.246 49.1304 149.072C48.9392 149.644 48.6843 149.898 48.1744 150.025C47.792 150.088 47.4734 150.152 47.091 150.088C42.2472 149.834 37.3397 149.58 32.496 149.389C30.3928 149.326 28.2896 149.135 26.2501 148.563C25.0392 148.182 23.8282 147.674 22.8722 146.784C21.1514 145.132 20.769 143.225 21.9162 141.128C23.7008 137.76 26.6325 136.108 30.3928 135.79C30.6477 135.79 30.9664 135.854 31.2213 135.854ZM26.3776 141.827C26.4413 141.827 26.505 141.891 26.5688 141.891C26.5688 142.908 26.9512 143.797 27.7797 144.369C28.6082 144.941 29.5005 145.322 30.3928 145.767C30.8389 145.958 31.4125 145.894 31.6675 145.386C31.9224 144.814 31.6675 144.433 31.2213 144.115C30.6477 143.734 30.1379 143.353 29.5643 142.971C28.9907 142.59 28.7994 142.082 29.0544 141.446C29.2456 141.001 29.5005 140.493 29.5643 140.048C29.628 139.73 29.628 139.286 29.4368 139.031C29.2456 138.841 28.7357 138.714 28.4808 138.841C28.0984 138.968 27.6522 139.222 27.461 139.603C26.9512 140.302 26.6962 141.065 26.3776 141.827ZM35.2365 140.62C35.2365 139.921 34.7267 139.349 34.0256 139.413C33.3245 139.413 32.8784 139.921 32.8784 140.62C32.8784 141.383 33.3245 141.827 34.0256 141.827C34.8541 141.827 35.2365 141.446 35.2365 140.62Z" fill="#D40815"/>
<path d="M57.2246 156.443C57.352 156.634 57.352 157.079 57.1608 157.333C56.7784 158.032 56.3323 158.667 55.8224 159.239C53.1456 162.417 50.4688 165.594 47.7283 168.708C46.7723 169.788 45.6888 170.678 44.5416 171.504C43.7768 172.012 42.8845 172.457 41.9923 172.648C39.1243 173.283 36.3837 171.186 36.0013 168.072C35.5552 164.514 36.9573 161.59 39.6979 159.366C41.8648 157.587 44.4779 156.634 47.1547 156.062C50.8512 155.299 56.5235 155.363 57.2246 156.443ZM41.9285 164.005C41.9285 163.815 41.9285 163.751 41.9285 163.624C41.9285 163.179 41.9285 162.607 41.3549 162.607C41.0363 162.607 40.5264 162.861 40.3352 163.179C39.2517 164.704 39.5704 166.42 41.1 167.437C41.5461 167.755 42.056 168.009 42.5659 168.199C43.3944 168.517 44.0317 168.326 44.3504 167.691C44.6054 167.119 44.3504 166.738 43.5856 166.166C42.8208 165.594 41.6736 165.276 41.9285 164.005ZM45.1789 161.781C45.7525 161.781 46.4536 161.082 46.4536 160.447C46.4536 159.875 46.0075 159.366 45.4339 159.366C44.8603 159.366 44.2867 159.811 44.2867 160.383C44.2229 161.146 44.6691 161.718 45.1789 161.781Z" fill="#D40815"/>
<path d="M244.155 31.3193C245.557 31.3193 247.215 31.7006 248.68 32.5903C253.715 35.5134 254.544 41.4868 250.465 45.6809C248.234 47.9686 245.494 49.1125 242.435 49.8115C238.61 50.6376 234.786 51.4637 230.899 52.3533C228.732 52.8617 226.692 53.6243 224.78 54.7681C224.207 55.0859 223.569 55.5942 222.868 55.0223C222.231 54.5139 222.55 53.8149 222.677 53.243C223.251 50.574 224.27 48.0322 225.609 45.6174C227.967 41.4233 230.899 37.674 234.786 34.7508C237.654 32.4632 240.905 31.3193 244.155 31.3193ZM244.092 36.276C244.346 36.276 244.665 36.3395 244.984 36.276C245.239 36.2124 245.557 36.0218 245.621 35.7676C245.685 35.577 245.557 35.1957 245.366 35.005C245.239 34.8144 244.92 34.7508 244.729 34.6238C243.327 34.1154 241.925 34.2425 240.714 35.0686C239.248 36.0218 237.782 37.0385 236.38 38.1188C234.213 39.8346 232.428 41.9316 231.026 44.3464C230.771 44.7277 230.644 45.1725 231.09 45.4903C231.536 45.808 231.982 45.6809 232.301 45.3632C232.492 45.1725 232.683 44.9819 232.811 44.7913C235.233 41.741 238.101 39.1356 241.415 37.0385C242.18 36.4666 243.008 36.0853 244.092 36.276Z" fill="#D40815"/>
<path d="M238.165 57.0558C240.459 56.9923 241.989 57.31 243.455 58.009C244.793 58.6445 245.749 59.5977 246.45 60.8686C247.406 62.775 246.833 64.9356 244.984 65.9524C243.2 66.9691 241.288 67.0327 239.376 66.3337C236.954 65.3804 234.532 64.3637 232.11 63.4105C231.027 62.9657 229.879 62.5208 228.796 62.076C228.222 61.8218 228.222 61.4405 228.541 61.0593C228.923 60.6144 229.306 60.1061 229.816 59.7883C232.429 57.8184 235.615 57.1829 238.165 57.0558ZM236.253 59.7883C235.679 59.9154 235.106 59.8519 234.978 60.5509C234.851 61.2499 235.488 61.4405 235.998 61.5041C236.699 61.6312 237.464 61.7583 238.165 61.8854C238.611 61.9489 239.057 61.8854 239.185 61.377C239.312 60.8686 238.993 60.5509 238.611 60.4238C237.782 60.2332 237.018 60.0425 236.253 59.7883Z" fill="#D40815"/>
</svg>
