<svg width="384" height="345" viewBox="0 0 384 345" fill="none" xmlns="http://www.w3.org/2000/svg">
<g clip-path="url(#clip0_7306_10585)">
<path d="M45.3172 29.3708C50.8825 31.6358 154.285 54.7779 162.963 77.547L64.7824 55.3582C10.2482 0.142124 -94.9335 -120.808 -173.438 -109.826C-5.31827 -70.2612 74.5717 181.896 435.013 423.24C360.754 342.421 336.669 244.488 257.136 148.314C191.161 68.5348 134.353 45.9229 45.3155 29.3725L45.3172 29.3708ZM382.017 395.991C395.843 406.725 410.696 416.433 427.002 424.687C429.704 436.249 413.627 439.248 415.13 452.755C414.862 473.053 406.633 488.472 380.677 498.505C380.677 498.505 412.548 477.421 403.053 451.991C393.559 426.561 371.47 413.211 382.013 395.991L382.017 395.991ZM406.609 378.525C412.123 387.316 436.23 432.837 474.916 432.509C474.916 432.509 448.022 383.106 406.609 378.525ZM-219.023 -103.148C-161.49 -118.604 -93.7795 -71.3018 -57.8445 -36.1306C-136.539 -104.601 -145.501 -55.2306 -219.023 -103.148ZM76.6759 67.2995C111.022 74.8949 175.831 87.1246 197.57 108.212C229.635 131.362 306.2 236.283 331.5 297.487C264.155 255.436 159.889 150.182 76.6794 67.2995L76.6759 67.2995Z" fill="#FFEAEB"/>
</g>
<defs>
<clipPath id="clip0_7306_10585">
<rect width="384" height="345" fill="white"/>
</clipPath>
</defs>
</svg>
