<svg width="1390" height="258" viewBox="0 0 1390 258" fill="none" xmlns="http://www.w3.org/2000/svg">
<path opacity="0.5" d="M448.63 108.183C457.482 104.489 600.535 14.6728 636.085 30.4416L500.012 115.481C375.945 114.718 120.313 97.0723 43.9817 197.213C278.76 53.3526 654.124 246.129 1334.41 112.852C1159.11 105.512 1021.17 22.872 822.542 4.2494C657.774 -11.1988 567.993 27.0688 448.63 108.186V108.183ZM1243.7 141.666C1271.47 138.205 1299.23 132.448 1326.99 123.436C1343.12 133.352 1328.33 154.699 1345.3 168.133C1367.95 191.147 1376.07 217.61 1358.07 257.884C1358.07 257.884 1370.27 198.625 1330.79 180.792C1291.31 162.959 1251.24 172.738 1243.7 141.67L1243.7 141.666ZM1251.76 94.6C1267.93 98.2665 1346.64 122.231 1390 78.5718C1390 78.5718 1303.75 53.3831 1251.76 94.6ZM0 255.698C47.5663 174.02 177.582 151.181 257.965 150.327C91.6019 161.769 137.282 227.045 0 255.698ZM526.957 115.535C574.369 85.5997 661.458 26.7598 709.872 26.031C772.289 16.054 977.451 47.786 1075.24 87.9652C951.573 116.271 714.719 115.165 526.96 115.531L526.957 115.535Z" fill="#FFEAEB"/>
</svg>
