<svg width="48" height="48" viewBox="0 0 48 48" fill="none" xmlns="http://www.w3.org/2000/svg">
<path d="M24.0002 16.9635V10.2969H7.3335V40.2969H40.6668V16.9635H24.0002ZM14.0002 36.9635H10.6668V33.6302H14.0002V36.9635ZM14.0002 30.2969H10.6668V26.9635H14.0002V30.2969ZM14.0002 23.6302H10.6668V20.2969H14.0002V23.6302ZM14.0002 16.9635H10.6668V13.6302H14.0002V16.9635ZM20.6668 36.9635H17.3335V33.6302H20.6668V36.9635ZM20.6668 30.2969H17.3335V26.9635H20.6668V30.2969ZM20.6668 23.6302H17.3335V20.2969H20.6668V23.6302ZM20.6668 16.9635H17.3335V13.6302H20.6668V16.9635ZM37.3335 36.9635H24.0002V33.6302H27.3335V30.2969H24.0002V26.9635H27.3335V23.6302H24.0002V20.2969H37.3335V36.9635ZM34.0002 23.6302H30.6668V26.9635H34.0002V23.6302ZM34.0002 30.2969H30.6668V33.6302H34.0002V30.2969Z" fill="#E32934"/>
</svg>
