<svg width="48" height="49" viewBox="0 0 48 49" fill="none" xmlns="http://www.w3.org/2000/svg">
<path d="M13.9519 25.3144C14.0236 25.1627 14.1526 25.0457 14.3106 24.9892C14.4685 24.9326 14.6425 24.9411 14.7941 25.0128C14.9458 25.0845 15.0628 25.2135 15.1193 25.3715C15.1759 25.5294 15.1674 25.7034 15.0957 25.855C14.7633 26.5616 14.2344 27.1574 13.5722 27.571C12.91 27.9847 12.1426 28.1987 11.3619 28.1875C10.5811 28.1763 9.8202 27.9402 9.17016 27.5077C8.52013 27.0751 8.00854 26.4644 7.69666 25.7486C7.38478 25.0328 7.28582 24.2423 7.41164 23.4717C7.53747 22.7011 7.88273 21.9831 8.40609 21.4037C8.92946 20.8242 9.60874 20.4079 10.3626 20.2046C11.1165 20.0013 11.9129 20.0196 12.6567 20.2572C12.7363 20.2818 12.8102 20.3219 12.8742 20.3751C12.9382 20.4284 12.991 20.4938 13.0296 20.5676C13.0683 20.6413 13.0919 20.722 13.0992 20.805C13.1065 20.8879 13.0973 20.9715 13.0722 21.0509C13.047 21.1302 13.0064 21.2039 12.9527 21.2675C12.8989 21.3311 12.8332 21.3835 12.7591 21.4215C12.6851 21.4596 12.6042 21.4827 12.5212 21.4894C12.4382 21.496 12.3547 21.4862 12.2755 21.4605C11.8561 21.3276 11.4114 21.2954 10.9773 21.3664C10.5431 21.4375 10.1318 21.6097 9.7767 21.8693C9.42156 22.1289 9.13255 22.4685 8.93309 22.8606C8.73363 23.2527 8.62933 23.6862 8.62863 24.1261C8.62863 26.3334 11.0726 27.6562 12.9161 26.4878C13.3655 26.2026 13.7247 25.7957 13.9519 25.3144ZM28.3638 10.5685H33.8969C33.9134 10.5687 33.9297 10.5642 33.9437 10.5555C33.9578 10.5468 33.9692 10.5343 33.9764 10.5195C33.9837 10.5046 33.9867 10.488 33.9849 10.4716C33.9832 10.4551 33.9769 10.4395 33.9666 10.4265L28.4336 3.40145C28.4222 3.38732 28.4066 3.37707 28.3891 3.37209C28.3716 3.36711 28.353 3.36766 28.3359 3.37365C28.3187 3.37964 28.3038 3.39078 28.2932 3.40556C28.2826 3.42033 28.2768 3.43802 28.2767 3.4562V10.4815C28.2769 10.5046 28.2862 10.5266 28.3025 10.5429C28.3188 10.5592 28.3408 10.5685 28.3638 10.5687V10.5685ZM33.2018 38.9964C33.0822 38.8787 33.0142 38.7184 33.0128 38.5507C33.0114 38.383 33.0767 38.2216 33.1943 38.102C33.3119 37.9824 33.4722 37.9144 33.6399 37.913C33.8077 37.9116 33.9691 37.9769 34.0887 38.0945L35.1106 39.101C35.119 39.1094 35.129 39.116 35.14 39.1205C35.151 39.1249 35.1628 39.1271 35.1747 39.1269C35.1865 39.1266 35.1983 39.124 35.2091 39.1191C35.2199 39.1142 35.2296 39.1072 35.2377 39.0984L37.9407 36.2161C38.0558 36.0946 38.2144 36.0236 38.3818 36.0188C38.5491 36.014 38.7116 36.0756 38.8335 36.1904C38.9555 36.3051 39.027 36.4634 39.0324 36.6308C39.0378 36.7981 38.9767 36.9608 38.8624 37.0831L35.6532 40.5036C35.5958 40.565 35.5266 40.6143 35.4498 40.6485C35.373 40.6827 35.2901 40.7012 35.206 40.7028C35.1219 40.7045 35.0384 40.6892 34.9603 40.658C34.8822 40.6267 34.8112 40.5802 34.7514 40.521L33.2018 38.9964ZM30.8252 34.9879C31.5352 40.8747 31.5725 41.1886 35.561 43.7621C35.5749 43.7718 35.5914 43.7771 35.6084 43.7771C35.6253 43.7771 35.6418 43.7718 35.6557 43.7621C39.6442 41.1886 39.6815 40.8746 40.3916 34.9879L40.476 34.2904C40.4783 34.2691 40.4727 34.2477 40.4603 34.2303C40.448 34.2128 40.4296 34.2005 40.4088 34.1957L35.7452 33.1394C35.6654 33.122 35.5334 33.2789 35.2295 33.2042C35.1723 33.1893 31.2212 34.101 30.8075 34.1957C30.7867 34.2006 30.7684 34.2129 30.756 34.2303C30.7436 34.2478 30.738 34.2691 30.7403 34.2904L30.8252 34.9879ZM35.2571 45.0725C30.3868 41.946 30.3693 41.7841 29.5671 35.135C29.5222 34.7738 29.4774 34.3901 29.4052 33.7997C29.3849 33.6366 29.4289 33.4719 29.528 33.3407C29.6271 33.2096 29.7734 33.1222 29.9358 33.0971L35.1973 31.906C35.3767 31.8563 35.586 31.804 35.7578 31.8463L41.3233 33.1044C41.6496 33.1794 41.8315 33.4582 41.8115 33.7994C41.8091 33.8442 41.6671 35.0027 41.6496 35.1347C40.8475 41.7889 40.8301 41.9458 35.9496 45.0773C35.8463 45.1442 35.7257 45.1794 35.6026 45.1785C35.4795 45.1776 35.3594 45.1407 35.2571 45.0723V45.0725ZM10.2275 10.945C10.1732 10.8819 10.1318 10.8087 10.1058 10.7295C10.0798 10.6504 10.0697 10.567 10.076 10.4839C10.0824 10.4009 10.1051 10.3199 10.1428 10.2457C10.1805 10.1714 10.2324 10.1053 10.2957 10.0512C10.359 9.99709 10.4324 9.95601 10.5116 9.93031C10.5908 9.90461 10.6743 9.8948 10.7573 9.90145C10.8404 9.9081 10.9212 9.93107 10.9953 9.96905C11.0695 10.007 11.1353 10.0593 11.1892 10.1228L11.7597 10.793C11.7756 10.8107 11.7979 10.8215 11.8217 10.8229C11.8455 10.8243 11.8689 10.8162 11.8867 10.8004L14.2211 8.63307C14.2819 8.57644 14.3534 8.53235 14.4312 8.50331C14.5091 8.47428 14.592 8.46087 14.6751 8.46385C14.7581 8.46683 14.8398 8.48615 14.9154 8.52069C14.991 8.55524 15.0591 8.60434 15.1157 8.66518C15.1723 8.72603 15.2164 8.79744 15.2455 8.87533C15.2745 8.95322 15.2879 9.03607 15.2849 9.11914C15.2819 9.20221 15.2626 9.28388 15.2281 9.35949C15.1935 9.4351 15.1444 9.50316 15.0836 9.55979L12.1987 12.2379H12.1962C12.1341 12.2962 12.0607 12.3412 11.9806 12.3703C11.9005 12.3994 11.8153 12.4118 11.7303 12.4069C11.6452 12.402 11.562 12.3799 11.4858 12.3418C11.4095 12.3038 11.3419 12.2506 11.2868 12.1855L10.2275 10.945ZM13.9519 12.2753C13.9874 12.2002 14.0374 12.1328 14.0989 12.077C14.1604 12.0212 14.2324 11.9781 14.3106 11.9501C14.3888 11.922 14.4717 11.9097 14.5547 11.9138C14.6376 11.9178 14.719 11.9382 14.7941 11.9737C14.8692 12.0092 14.9366 12.0591 14.9924 12.1206C15.0482 12.1822 15.0913 12.2541 15.1193 12.3323C15.1473 12.4105 15.1596 12.4934 15.1556 12.5764C15.1515 12.6594 15.1312 12.7407 15.0957 12.8158C13.8998 15.352 10.5417 15.9523 8.54866 13.9596C7.9046 13.3157 7.49562 12.4741 7.38739 11.5699C7.27915 10.6656 7.47795 9.75124 7.95185 8.97357C8.42576 8.19589 9.14726 7.60005 10.0005 7.28172C10.8538 6.96339 11.7892 6.94106 12.6567 7.21829C12.7357 7.24334 12.809 7.28369 12.8724 7.33707C12.9358 7.39044 12.9881 7.45578 13.0263 7.52936C13.0645 7.60294 13.0878 7.68332 13.0949 7.7659C13.102 7.84848 13.0927 7.93165 13.0677 8.01067C13.0426 8.08968 13.0023 8.16299 12.9489 8.22641C12.8955 8.28983 12.8302 8.34211 12.7566 8.38027C12.683 8.41844 12.6027 8.44174 12.5201 8.44884C12.4375 8.45594 12.3543 8.44671 12.2753 8.42167C11.856 8.28882 11.4112 8.25661 10.9771 8.32764C10.543 8.39868 10.1317 8.57096 9.77656 8.83054C9.42142 9.09012 9.13241 9.4297 8.93294 9.82176C8.73348 10.2138 8.62916 10.6474 8.62844 11.0873C8.62844 13.297 11.0724 14.6174 12.9159 13.449C13.366 13.1644 13.7254 12.7572 13.9519 12.2753ZM18.2319 13.5034C18.0651 13.5014 17.9058 13.4337 17.7886 13.315C17.6713 13.1963 17.6056 13.0362 17.6056 12.8694C17.6056 12.7026 17.6713 12.5425 17.7886 12.4238C17.9058 12.3051 18.0651 12.2374 18.2319 12.2354H24.2413C24.3252 12.2344 24.4085 12.25 24.4863 12.2814C24.5641 12.3128 24.6349 12.3594 24.6946 12.4184C24.7543 12.4773 24.8017 12.5476 24.834 12.625C24.8664 12.7024 24.883 12.7855 24.883 12.8694C24.883 12.9533 24.8664 13.0364 24.834 13.1138C24.8017 13.1912 24.7543 13.2615 24.6946 13.3204C24.6349 13.3794 24.5641 13.426 24.4863 13.4574C24.4085 13.4888 24.3252 13.5044 24.2413 13.5034H18.2319ZM18.2319 26.5426C18.0638 26.5426 17.9025 26.4758 17.7836 26.3569C17.6647 26.238 17.5979 26.0767 17.5979 25.9086C17.5979 25.7404 17.6647 25.5792 17.7836 25.4602C17.9025 25.3413 18.0638 25.2745 18.2319 25.2745H24.2413C24.4094 25.2745 24.5707 25.3413 24.6896 25.4602C24.8085 25.5792 24.8753 25.7404 24.8753 25.9086C24.8753 26.0767 24.8085 26.238 24.6896 26.3569C24.5707 26.4758 24.4094 26.5426 24.2413 26.5426H18.2319ZM18.2319 22.9751C18.0638 22.9751 17.9025 22.9083 17.7836 22.7894C17.6647 22.6705 17.5979 22.5093 17.5979 22.3411C17.5979 22.173 17.6647 22.0117 17.7836 21.8928C17.9025 21.7739 18.0638 21.7071 18.2319 21.7071H29.5721C29.7403 21.7071 29.9015 21.7739 30.0204 21.8928C30.1393 22.0117 30.2061 22.173 30.2061 22.3411C30.2061 22.5093 30.1393 22.6705 30.0204 22.7894C29.9015 22.9083 29.7403 22.9751 29.5721 22.9751H18.2319ZM9.44538 38.239C9.27722 38.239 9.11595 38.1722 8.99705 38.0533C8.87815 37.9344 8.81135 37.7732 8.81135 37.605C8.81135 37.4369 8.87815 37.2756 8.99705 37.1567C9.11595 37.0378 9.27722 36.971 9.44538 36.971H21.8043C21.9725 36.971 22.1338 37.0378 22.2527 37.1567C22.3716 37.2756 22.4384 37.4369 22.4384 37.605C22.4384 37.7732 22.3716 37.9344 22.2527 38.0533C22.1338 38.1722 21.9725 38.239 21.8043 38.239H9.44538ZM35.6557 46.9758C42.1031 42.8227 42.1526 42.4289 43.269 33.157C43.3263 32.6912 43.3861 32.2029 43.4408 31.7495C43.4432 31.7279 43.4377 31.7062 43.4253 31.6884C43.413 31.6705 43.3946 31.6577 43.3736 31.6524L35.6283 29.8985C35.6151 29.896 35.6016 29.896 35.5885 29.8985L27.8457 31.6522C27.8241 31.6569 27.8051 31.6695 27.7922 31.6874C27.7794 31.7053 27.7736 31.7274 27.7759 31.7493C28.73 39.7138 27.7136 41.9136 35.561 46.9758C35.5749 46.9855 35.5914 46.9908 35.6084 46.9908C35.6253 46.9908 35.6419 46.9855 35.6557 46.9758ZM9.44538 34.674C9.27722 34.674 9.11595 34.6072 8.99705 34.4883C8.87815 34.3694 8.81135 34.2081 8.81135 34.04C8.81135 33.8718 8.87815 33.7106 8.99705 33.5917C9.11595 33.4727 9.27722 33.4059 9.44538 33.4059H26.6025C26.6149 33.4057 26.6272 33.4028 26.6384 33.3975C26.6497 33.3922 26.6598 33.3847 26.668 33.3753C26.6762 33.366 26.6824 33.355 26.6861 33.3431C26.6898 33.3313 26.6911 33.3188 26.6898 33.3064L26.4406 31.2561C26.4206 31.093 26.4648 30.9286 26.5638 30.7975C26.6628 30.6664 26.8089 30.5789 26.9712 30.5535H26.9762L34.6817 28.8098C34.7011 28.805 34.7183 28.7937 34.7305 28.7779C34.7427 28.7621 34.7492 28.7426 34.7489 28.7226V11.924C34.749 11.9125 34.7467 11.9011 34.7424 11.8905C34.738 11.8799 34.7316 11.8703 34.7235 11.8622C34.7154 11.8541 34.7058 11.8476 34.6951 11.8433C34.6845 11.8389 34.6732 11.8367 34.6617 11.8368H27.6414C27.4733 11.8364 27.3121 11.7693 27.1935 11.6502C27.0748 11.5311 27.0083 11.3697 27.0086 11.2015V10.0256C27.0086 10.0138 27.0064 10.0022 27.0019 9.99125C26.9974 9.98034 26.9908 9.97043 26.9824 9.96209C26.9741 9.95375 26.9642 9.94714 26.9533 9.94265C26.9424 9.93816 26.9307 9.93587 26.9189 9.93592H18.2319C18.0651 9.93389 17.9058 9.8662 17.7886 9.74753C17.6713 9.62885 17.6056 9.46876 17.6056 9.30194C17.6056 9.13511 17.6713 8.97502 17.7886 8.85634C17.9058 8.73767 18.0651 8.66998 18.2319 8.66795H26.9189C26.9423 8.66818 26.9649 8.65914 26.9817 8.64282C26.9985 8.62649 27.0082 8.60419 27.0086 8.58076V2.09598C27.0082 2.07255 26.9985 2.05023 26.9817 2.0339C26.9649 2.01757 26.9423 2.00854 26.9189 2.00879H4.64969C4.62665 2.00906 4.60463 2.01833 4.58833 2.03463C4.57204 2.05092 4.56277 2.07294 4.5625 2.09598V43.2863C4.56243 43.2977 4.56463 43.3091 4.56899 43.3197C4.57334 43.3303 4.57976 43.34 4.58787 43.3481C4.59598 43.3562 4.60562 43.3626 4.61624 43.367C4.62685 43.3713 4.63822 43.3735 4.64969 43.3735H28.8795C28.8952 43.3737 28.9108 43.3696 28.9244 43.3616C28.938 43.3536 28.9491 43.3421 28.9566 43.3282C28.964 43.3143 28.9675 43.2986 28.9667 43.2829C28.9658 43.2671 28.9607 43.2519 28.9518 43.2389C27.7734 41.4677 27.4072 39.1957 26.8641 34.7513C26.8618 34.7299 26.8515 34.7101 26.8354 34.6958C26.8193 34.6815 26.7985 34.6738 26.7769 34.674H9.44538ZM10.2275 23.9842C10.1206 23.8564 10.0684 23.6916 10.0823 23.5255C10.0961 23.3595 10.175 23.2056 10.3016 23.0973C10.4283 22.989 10.5925 22.9351 10.7587 22.9472C10.9249 22.9594 11.0796 23.0366 11.1892 23.1621L11.7597 23.8322C11.7756 23.85 11.7979 23.8607 11.8217 23.8621C11.8455 23.8635 11.8688 23.8555 11.8867 23.8397L14.2211 21.6723C14.344 21.5579 14.5073 21.497 14.6751 21.5031C14.8428 21.5091 15.0013 21.5815 15.1157 21.7044C15.2301 21.8273 15.291 21.9906 15.2849 22.1584C15.2789 22.3261 15.2065 22.4846 15.0836 22.599L12.1987 25.2772H12.1962C12.1339 25.3352 12.0605 25.3801 11.9805 25.409C11.9004 25.4379 11.8153 25.4503 11.7303 25.4454C11.6453 25.4405 11.5622 25.4184 11.486 25.3805C11.4098 25.3426 11.342 25.2897 11.2868 25.2249L10.2275 23.9842Z" fill="#E32934"/>
</svg>
