<svg width="48" height="49" viewBox="0 0 48 49" fill="none" xmlns="http://www.w3.org/2000/svg">
<path d="M35.6016 29.7422C35.6016 23.3447 30.3974 18.1406 24 18.1406C17.6026 18.1406 12.3984 23.3447 12.3984 29.7422C12.3984 36.1396 17.6026 41.3438 24 41.3438C30.3974 41.3438 35.6016 36.1396 35.6016 29.7422ZM24 23.2969C26.1325 23.2969 27.8672 25.0316 27.8672 27.1641C27.8672 28.3876 27.2781 29.5521 26.2924 30.2784C25.6642 30.7417 25.2891 31.4819 25.2891 32.2599L22.7109 32.3203C22.7109 30.6662 23.4776 29.1505 24.7616 28.2039C25.0964 27.9572 25.2891 27.5783 25.2891 27.1641C25.2891 26.4528 24.7112 25.875 24 25.875C23.2888 25.875 22.7109 26.4528 22.7109 27.1641H20.1328C20.1328 25.0316 21.8675 23.2969 24 23.2969ZM22.7109 33.6094H25.2891V36.1875H22.7109V33.6094Z" fill="#E32934"/>
<path d="M43.4219 20.9562C43.4219 19.3618 43.4219 13.7832 43.4219 14.1016C43.4219 7.70412 38.2178 2.5 31.8203 2.5H16.1797C9.78224 2.5 4.57812 7.70412 4.57812 14.1016C4.57812 14.5133 4.57812 21.3491 4.57812 20.9562C3.08092 21.4901 2 22.9076 2 24.5859V34.8984C2 37.0309 3.73473 38.7656 5.86719 38.7656H9.73438V20.7188H7.15625V17.9688H12.3125V14.1016C12.3125 11.9691 14.0472 10.2344 16.1797 10.2344H31.8203C33.9528 10.2344 35.6875 11.9691 35.6875 14.1016V17.9688H40.8438V20.7188H38.2656V38.7656H40.8438V40.0547C40.8438 42.1871 39.109 43.9219 36.9766 43.9219H22.7109V46.5H36.9766C40.5303 46.5 43.4219 43.6085 43.4219 40.0547V38.5282C44.9191 37.9943 46 36.5768 46 34.8984V24.5859C46 22.9076 44.9191 21.4901 43.4219 20.9562Z" fill="#E32934"/>
</svg>
