<svg width="48" height="48" viewBox="0 0 48 48" fill="none" xmlns="http://www.w3.org/2000/svg">
<path d="M10.6699 30.6615V40.6615H37.3366V30.6615C37.3366 28.8281 35.8366 27.3281 34.0033 27.3281H14.0033C12.1699 27.3281 10.6699 28.8281 10.6699 30.6615ZM34.0033 33.9948H14.0033V30.6615H34.0033V33.9948ZM24.0033 7.32812C19.4033 7.32812 15.6699 11.0615 15.6699 15.6615L24.0033 27.3281L32.3366 15.6615C32.3366 11.0615 28.6033 7.32812 24.0033 7.32812ZM24.0033 22.3281L19.0033 15.6615C19.0033 12.8948 21.2366 10.6615 24.0033 10.6615C26.7699 10.6615 29.0033 12.8948 29.0033 15.6615L24.0033 22.3281Z" fill="#E32934"/>
</svg>
