<svg width="48" height="49" viewBox="0 0 48 49" fill="none" xmlns="http://www.w3.org/2000/svg">
<path d="M24 35C26.8995 35 29.25 32.6495 29.25 29.75C29.25 26.8505 26.8995 24.5 24 24.5C21.1005 24.5 18.75 26.8505 18.75 29.75C18.75 32.6495 21.1005 35 24 35Z" fill="#E32934"/>
<path d="M36.75 41.75H41.25V43.25H36.75V41.75Z" fill="#E32934"/>
<path d="M39.075 22.25H8.925C8.77685 22.9701 8.4208 23.631 7.90092 24.1509C7.38104 24.6708 6.72014 25.0268 6 25.175V34.325C6.72014 34.4732 7.38104 34.8292 7.90092 35.3491C8.4208 35.869 8.77685 36.5299 8.925 37.25H39.075C39.2232 36.5299 39.5792 35.869 40.0991 35.3491C40.619 34.8292 41.2799 34.4732 42 34.325V25.175C41.2799 25.0268 40.619 24.6708 40.0991 24.1509C39.5792 23.631 39.2232 22.9701 39.075 22.25ZM24 36.5C22.665 36.5 21.3599 36.1041 20.2499 35.3624C19.1399 34.6207 18.2747 33.5665 17.7638 32.3331C17.2529 31.0997 17.1192 29.7425 17.3797 28.4331C17.6401 27.1238 18.283 25.921 19.227 24.977C20.171 24.033 21.3738 23.3901 22.6831 23.1297C23.9925 22.8692 25.3497 23.0029 26.5831 23.5138C27.8165 24.0247 28.8707 24.8899 29.6124 25.9999C30.3541 27.1099 30.75 28.415 30.75 29.75C30.7478 31.5395 30.036 33.2552 28.7706 34.5206C27.5052 35.786 25.7895 36.4978 24 36.5Z" fill="#E32934"/>
<path d="M4.5 44.75H43.5V46.25H4.5V44.75Z" fill="#E32934"/>
<path d="M3 19.25V40.25H45V19.25H3ZM43.5 35C43.5 35.1989 43.421 35.3897 43.2803 35.5303C43.1397 35.671 42.9489 35.75 42.75 35.75C42.1533 35.75 41.581 35.9871 41.159 36.409C40.7371 36.831 40.5 37.4033 40.5 38C40.5 38.1989 40.421 38.3897 40.2803 38.5303C40.1397 38.671 39.9489 38.75 39.75 38.75H8.25C8.05109 38.75 7.86032 38.671 7.71967 38.5303C7.57902 38.3897 7.5 38.1989 7.5 38C7.5 37.4033 7.26295 36.831 6.84099 36.409C6.41903 35.9871 5.84674 35.75 5.25 35.75C5.05109 35.75 4.86032 35.671 4.71967 35.5303C4.57902 35.3897 4.5 35.1989 4.5 35V24.5C4.5 24.3011 4.57902 24.1103 4.71967 23.9697C4.86032 23.829 5.05109 23.75 5.25 23.75C5.84674 23.75 6.41903 23.5129 6.84099 23.091C7.26295 22.669 7.5 22.0967 7.5 21.5C7.5 21.3011 7.57902 21.1103 7.71967 20.9697C7.86032 20.829 8.05109 20.75 8.25 20.75H39.75C39.9489 20.75 40.1397 20.829 40.2803 20.9697C40.421 21.1103 40.5 21.3011 40.5 21.5C40.5 22.0967 40.7371 22.669 41.159 23.091C41.581 23.5129 42.1533 23.75 42.75 23.75C42.9489 23.75 43.1397 23.829 43.2803 23.9697C43.421 24.1103 43.5 24.3011 43.5 24.5V35Z" fill="#E32934"/>
<path d="M6.75 41.75H11.25V43.25H6.75V41.75Z" fill="#E32934"/>
<path d="M21.75 41.75H26.25V43.25H21.75V41.75Z" fill="#E32934"/>
<path d="M6.75 16.25H11.25V17.75H6.75V16.25Z" fill="#E32934"/>
<path d="M24 9.5C24.8284 9.5 25.5 8.82843 25.5 8C25.5 7.17157 24.8284 6.5 24 6.5C23.1716 6.5 22.5 7.17157 22.5 8C22.5 8.82843 23.1716 9.5 24 9.5Z" fill="#E32934"/>
<path d="M5.25 13.25H42.75V14.75H5.25V13.25Z" fill="#E32934"/>
<path d="M43.5 10.7521L24 2.80957L4.5 10.7521V11.7496H43.5V10.7521ZM24 10.9996C23.4067 10.9996 22.8266 10.8236 22.3333 10.494C21.8399 10.1643 21.4554 9.6958 21.2284 9.14762C21.0013 8.59944 20.9419 7.99624 21.0576 7.4143C21.1734 6.83236 21.4591 6.29781 21.8787 5.87825C22.2982 5.45869 22.8328 5.17297 23.4147 5.05721C23.9967 4.94146 24.5999 5.00087 25.1481 5.22793C25.6962 5.45499 26.1648 5.83951 26.4944 6.33286C26.8241 6.82621 27 7.40623 27 7.99957C27 8.79522 26.6839 9.55828 26.1213 10.1209C25.5587 10.6835 24.7956 10.9996 24 10.9996Z" fill="#E32934"/>
<path d="M21.75 16.25H26.25V17.75H21.75V16.25Z" fill="#E32934"/>
<path d="M36.75 16.25H42V17.75H36.75V16.25Z" fill="#E32934"/>
</svg>
