<svg width="48" height="48" viewBox="0 0 48 48" fill="none" xmlns="http://www.w3.org/2000/svg">
<g clip-path="url(#clip0_5_6302)">
<path d="M45.6064 39.8087H44.8397V15.4844C44.8397 13.742 43.3761 12.2784 41.6336 12.2784H38.7064V9.97836H44.8397C45.1882 9.97836 45.5367 9.69957 45.5367 9.28139V5.44806C45.5367 3.14806 43.6548 1.33594 41.4245 1.33594C41.2155 1.33594 41.0064 1.33594 40.867 1.40563C40.7973 1.40563 40.7276 1.33594 40.6579 1.33594H11.6639C10.27 1.33594 9.15484 2.45109 9.15484 3.84503V12.3481H6.36696C4.62454 12.3481 3.1609 13.8117 3.1609 15.5541V39.8087H2.39424C1.97605 39.8087 1.69727 40.1572 1.69727 40.5056V42.1784C1.69727 44.1299 3.3003 45.7329 5.25181 45.7329H42.7488C44.7003 45.7329 46.3033 44.1299 46.3033 42.1784V40.5056C46.3033 40.0875 46.0245 39.8087 45.6064 39.8087ZM38.7064 16.4602H40.6579V36.9511H38.7064V16.4602ZM10.6185 3.77533C10.6185 3.14806 11.1064 2.66018 11.7336 2.66018H38.3579C37.7306 3.35715 37.3821 4.19351 37.3124 5.16927V5.23897V36.9511H10.6185V3.77533ZM4.55484 15.4844C4.55484 14.5087 5.39121 13.6723 6.36696 13.6723H9.15484V15.0662H6.64575C6.29727 15.0662 5.94878 15.345 5.94878 15.7632V37.6481C5.94878 37.9965 6.29727 38.345 6.64575 38.345H41.3548C41.7033 38.345 42.0518 37.9965 42.0518 37.6481V15.7632C42.0518 15.345 41.7033 15.0662 41.3548 15.0662H38.7064V13.6723H41.6336C42.6094 13.6723 43.4458 14.5087 43.4458 15.4844V39.739H28.6003C28.1821 39.739 27.9033 40.0875 27.9033 40.4359V40.9935C27.9033 41.342 27.6245 41.6208 27.2761 41.6208H20.7245C20.3761 41.6208 20.0973 41.342 20.0973 40.9935V40.4359C20.0973 40.0875 19.7488 39.739 19.4003 39.739H4.55484V15.4844ZM9.22454 16.4602V36.9511H7.34272V16.4602H9.22454Z" fill="#E32934"/>
<path d="M20.0277 7.53973C20.0277 9.00336 18.8428 10.1185 17.4489 10.1185C15.9853 10.1185 14.8701 8.93367 14.8701 7.53973C14.8701 6.14579 16.055 4.96094 17.4489 4.96094C18.8428 4.96094 20.0277 6.14579 20.0277 7.53973Z" fill="#E32934"/>
<path d="M22.0484 14.5776V15.1352C21.909 16.3897 20.7938 17.3655 19.4696 17.3655H15.3575C14.0332 17.3655 12.9181 16.3897 12.7787 15.1352C12.7787 14.9261 12.709 14.7867 12.709 14.5776C12.709 13.2534 13.3363 11.0231 17.3787 11.0231C21.4908 10.9534 22.0484 13.1837 22.0484 14.5776Z" fill="#E32934"/>
<path d="M34.8729 5.93525V9.62919C34.8729 10.0474 34.5941 10.3262 34.1759 10.3262H25.0456C24.6971 10.3262 24.3486 10.0474 24.3486 9.62919V5.93525C24.3486 5.51707 24.6971 5.23828 25.0456 5.23828H34.1759C34.5244 5.23828 34.8729 5.51707 34.8729 5.93525Z" fill="#E32934"/>
<path d="M25.0456 13.8119H34.1759C34.5941 13.8119 34.8729 13.5331 34.8729 13.1149C34.8729 12.6968 34.5941 12.418 34.1759 12.418H25.0456C24.6274 12.418 24.3486 12.6968 24.3486 13.1149C24.3486 13.5331 24.6274 13.8119 25.0456 13.8119Z" fill="#E32934"/>
<path d="M25.0456 17.0873H34.1759C34.5941 17.0873 34.8729 16.8085 34.8729 16.3903C34.8729 15.9721 34.5941 15.6934 34.1759 15.6934H25.0456C24.6274 15.6934 24.3486 15.9721 24.3486 16.3903C24.3486 16.8085 24.6274 17.0873 25.0456 17.0873Z" fill="#E32934"/>
<path d="M32.9915 19.5957H28.3915C28.043 19.5957 27.6945 19.9442 27.6945 20.2927V25.4502H23.7915C23.443 25.4502 23.0945 25.729 23.0945 26.1472V27.6806H19.1915C18.7733 27.6806 18.4945 27.9593 18.4945 28.3775V29.9109H14.5915C14.243 29.9109 13.8945 30.2593 13.8945 30.6078V33.8836C13.8945 34.3018 14.243 34.5806 14.5915 34.5806H32.9915C33.4097 34.5806 33.6885 34.3018 33.6885 33.8836V20.2927C33.6885 19.9442 33.4097 19.5957 32.9915 19.5957ZM18.4945 33.1866H15.2885V31.3048H18.4945V33.1866ZM27.6945 33.1866H24.4885V26.8442H27.6945V33.1866Z" fill="#E32934"/>
<path d="M15.4275 27.4034C15.5669 27.6125 15.776 27.6822 15.9851 27.6822C16.1244 27.6822 16.2638 27.6125 16.4032 27.5428L23.3729 22.2458L23.2335 23.361C23.1638 23.7095 23.4426 24.1276 23.7911 24.1276H23.8608C24.2093 24.1276 24.4881 23.8488 24.5578 23.5004L24.976 20.7125C24.976 20.6428 24.976 20.5034 24.976 20.4337C24.976 20.364 24.9063 20.2246 24.8366 20.1549C24.6972 20.0155 24.5578 19.8761 24.3487 19.8761L21.4214 19.4579C21.0729 19.3882 20.7244 19.667 20.6547 20.0852C20.5851 20.4337 20.8638 20.8519 21.282 20.8519L22.4669 20.9913L15.4972 26.2882C15.2184 26.6367 15.1487 27.1246 15.4275 27.4034Z" fill="#E32934"/>
</g>
<defs>
<clipPath id="clip0_5_6302">
<rect width="46" height="46" fill="white" transform="translate(1 0.5)"/>
</clipPath>
</defs>
</svg>
