<svg width="48" height="48" viewBox="0 0 48 48" fill="none" xmlns="http://www.w3.org/2000/svg">
<path d="M17.6094 27.4583C16.3258 28.1829 15.2203 29.2583 14.3897 30.5729C13.3603 32.2019 12.751 34.1998 12.751 36.3466V36.5082C12.751 37.2127 13.0082 37.8633 13.4225 38.3439C13.8731 38.8665 14.5067 39.1909 15.2145 39.1909H32.6863C33.3942 39.1909 34.0278 38.8665 34.4784 38.3439C34.8927 37.8633 35.1499 37.2127 35.1499 36.5082V36.3466C35.1499 34.2147 34.5505 32.2314 33.5368 30.6112C32.7117 29.2925 31.6112 28.2118 30.3318 27.4803C29.991 28.1754 29.5375 28.8159 28.9551 29.378C25.4747 32.7362 19.783 31.6645 17.6094 27.4582L17.6094 27.4583ZM23.9504 30.2806H23.9481L23.9441 30.2805C22.6033 30.2788 20.9936 29.7311 19.7643 28.5448C18.7825 27.5975 18.04 26.2518 17.867 24.4664C17.8543 24.334 17.8442 24.1049 17.8367 23.8572C17.8267 23.5262 17.8206 23.1247 17.8192 22.9315C17.8014 20.6281 18.545 19.1253 19.7197 18.1709C20.8632 17.2419 22.3608 16.9004 23.929 16.8695L23.9289 16.8654C23.9773 16.8645 24.0249 16.8667 24.0717 16.8719C25.6036 16.9152 27.0621 17.2617 28.1811 18.1709C29.3558 19.1253 30.0995 20.6281 30.0817 22.9315C30.0802 23.1247 30.0742 23.5262 30.0641 23.8572C30.0566 24.1049 30.0466 24.334 30.0338 24.4664C29.856 26.3027 29.1717 27.6496 28.1959 28.5911C27.0561 29.6908 25.5492 30.2018 24.0027 30.2762L24.0028 30.2793C23.9853 30.2801 23.9679 30.2805 23.9504 30.2805L23.9504 30.2806Z" fill="#E32934"/>
<path d="M24.3489 9.73388L24.838 11.2488L26.4309 11.2457L27.7265 11.2432L26.6768 12.0029L25.3866 12.9363L25.8817 14.4498L26.2842 15.6803L25.2378 14.9169L23.9506 13.978L22.6637 14.9169L21.6172 15.6803L22.0196 14.4498L22.5146 12.9363L21.2247 12.0029L20.1748 11.2432L21.4705 11.2457L23.0634 11.2488L23.5523 9.73388L23.9506 8.5L24.3489 9.73388Z" fill="#E32934"/>
<path d="M3.95303 28.1397C3.1728 28.5802 2.50092 29.2338 1.99603 30.0328C1.37037 31.0229 1 32.2372 1 33.5421V33.6403C1 34.0685 1.15634 34.4639 1.40819 34.7561C1.68207 35.0737 2.06719 35.2709 2.49742 35.2709H11.9603C12.1229 33.4516 12.699 31.6791 13.6781 30.1281C13.6634 30.104 13.6487 30.0799 13.6338 30.0561C13.1323 29.2545 12.4634 28.5977 11.6858 28.1532C11.4786 28.5756 11.203 28.9649 10.849 29.3066C8.73358 31.3477 5.27409 30.6963 3.95303 28.1397ZM7.80711 29.855H7.80569L7.80329 29.855C6.98833 29.854 6.00995 29.5211 5.26276 28.8001C4.66597 28.2243 4.21474 27.4064 4.10958 26.3212C4.10187 26.2408 4.09575 26.1015 4.09122 25.9509C4.0851 25.7498 4.08139 25.5058 4.08061 25.3883C4.06972 23.9883 4.52169 23.0748 5.23567 22.4947C5.93068 21.9301 6.84097 21.7225 7.79412 21.7038L7.79402 21.7013C7.82345 21.7008 7.85245 21.7021 7.88089 21.7052C8.8119 21.7316 9.69846 21.9421 10.3785 22.4947C11.0926 23.0748 11.5446 23.9883 11.5337 25.3883C11.5329 25.5058 11.5292 25.7498 11.5231 25.9509C11.5185 26.1015 11.5124 26.2408 11.5047 26.3211C11.3966 27.4373 10.9806 28.256 10.3876 28.8282C9.69481 29.4967 8.77883 29.8072 7.83891 29.8524L7.83901 29.8543C7.82833 29.8548 7.81772 29.855 7.80711 29.855L7.80711 29.855Z" fill="#E32934"/>
<path d="M36.3389 28.1397C35.5587 28.5802 34.8868 29.2338 34.382 30.0328C34.3455 30.0904 34.31 30.1488 34.2754 30.208C35.2242 31.7399 35.7823 33.483 35.9418 35.2708H45.5027C45.933 35.2708 46.3182 35.0736 46.592 34.756C46.8439 34.4639 47.0001 34.0685 47.0001 33.6403V33.5421C47.0001 32.2463 46.6359 31.0408 46.0197 30.0561C45.5182 29.2545 44.8493 28.5977 44.0717 28.1531C43.8645 28.5756 43.5889 28.9649 43.2349 29.3065C41.1195 31.3476 37.66 30.6963 36.3389 28.1397ZM40.193 29.855H40.1916L40.1892 29.855C39.3742 29.854 38.3959 29.5211 37.6487 28.8001C37.0519 28.2243 36.6006 27.4064 36.4955 26.3212C36.4878 26.2408 36.4817 26.1015 36.4771 25.9509C36.471 25.7498 36.4673 25.5058 36.4665 25.3883C36.4556 23.9883 36.9076 23.0748 37.6216 22.4947C38.3166 21.9301 39.2269 21.7225 40.18 21.7038L40.18 21.7013C40.2094 21.7008 40.2384 21.7021 40.2668 21.7052C41.1978 21.7316 42.0844 21.9421 42.7645 22.4947C43.4785 23.0748 43.9305 23.9883 43.9196 25.3883C43.9188 25.5058 43.9151 25.7498 43.909 25.9509C43.9044 26.1015 43.8983 26.2408 43.8906 26.3211C43.7825 27.4373 43.3665 28.256 42.7735 28.8282C42.0807 29.4967 41.1647 29.8072 40.2248 29.8524L40.2249 29.8543C40.2142 29.8548 40.2037 29.855 40.193 29.855L40.193 29.855Z" fill="#E32934"/>
</svg>
