<svg width="48" height="48" viewBox="0 0 48 48" fill="none" xmlns="http://www.w3.org/2000/svg">
<path d="M35.336 11.3272H28.717C28.0519 9.4903 26.31 8.16016 24.2515 8.16016C22.1929 8.16016 20.4511 9.4903 19.786 11.3272H13.167C11.4251 11.3272 10 12.7523 10 14.4942V36.6632C10 38.405 11.4251 39.8302 13.167 39.8302H35.336C37.0778 39.8302 38.503 38.405 38.503 36.6632V14.4942C38.503 12.7523 37.0778 11.3272 35.336 11.3272ZM24.2515 11.3272C25.1224 11.3272 25.835 12.0397 25.835 12.9107C25.835 13.7816 25.1224 14.4942 24.2515 14.4942C23.3806 14.4942 22.668 13.7816 22.668 12.9107C22.668 12.0397 23.3806 11.3272 24.2515 11.3272ZM24.2515 17.6612C26.8801 17.6612 29.002 19.783 29.002 22.4117C29.002 25.0403 26.8801 27.1622 24.2515 27.1622C21.6229 27.1622 19.501 25.0403 19.501 22.4117C19.501 19.783 21.6229 17.6612 24.2515 17.6612ZM33.7525 36.6632H14.7505V34.4463C14.7505 31.2793 21.0845 29.5374 24.2515 29.5374C27.4185 29.5374 33.7525 31.2793 33.7525 34.4463V36.6632Z" fill="#E32934"/>
</svg>
