<svg width="48" height="48" viewBox="0 0 48 48" fill="none" xmlns="http://www.w3.org/2000/svg">
<path fill-rule="evenodd" clip-rule="evenodd" d="M18 31.8268L23 26.9268C22.35 26.8602 21.8667 26.8268 21.3333 26.8268C16.8833 26.8268 8 29.0602 8 33.4935V36.8268H23L18 31.8268ZM21.3333 23.4935C25.0167 23.4935 28 20.5102 28 16.8268C28 13.1435 25.0167 10.1602 21.3333 10.1602C17.65 10.1602 14.6667 13.1435 14.6667 16.8268C14.6667 20.5102 17.65 23.4935 21.3333 23.4935ZM28.7833 37.6602L23 31.8268L25.3333 29.4768L28.7833 32.9435L37.3333 24.3268L39.6667 26.6768L28.7833 37.6602Z" fill="#E32934"/>
</svg>
