<svg width="48" height="48" viewBox="0 0 48 48" fill="none" xmlns="http://www.w3.org/2000/svg">
<g clip-path="url(#clip0_64_32161)">
<path d="M40.8 3H7.2C4.89 3 3 4.89 3 7.2V11.4H45V7.2C45 4.89 43.11 3 40.8 3ZM11.4 9.3C10.35 9.3 9.3 8.46 9.3 7.2C9.3 5.94 10.35 5.1 11.4 5.1C12.45 5.1 13.5 5.94 13.5 7.2C13.5 8.46 12.45 9.3 11.4 9.3ZM24 36.6L13.5 28.2V15.6H34.5V28.2L24 36.6ZM38.7 9.3C37.65 9.3 36.6 8.46 36.6 7.2C36.6 5.94 37.65 5.1 38.7 5.1C39.75 5.1 40.8 5.94 40.8 7.2C40.8 8.46 39.75 9.3 38.7 9.3ZM45 40.8C45 43.11 43.11 45 40.8 45H7.2C4.89 45 3 43.11 3 40.8V15.6H9.3V30.3L24 42.9L38.7 30.3V15.6H45V40.8Z" fill="#E32934"/>
</g>
<defs>
<clipPath id="clip0_64_32161">
<rect width="42" height="42" fill="white" transform="translate(3 3)"/>
</clipPath>
</defs>
</svg>
