<svg width="48" height="48" viewBox="0 0 48 48" fill="none" xmlns="http://www.w3.org/2000/svg">
<path d="M37.3281 15.6654H28.9948V10.6654C28.9948 8.83203 27.4948 7.33203 25.6615 7.33203H22.3281C20.4948 7.33203 18.9948 8.83203 18.9948 10.6654V15.6654H10.6615C8.82812 15.6654 7.32812 17.1654 7.32812 18.9987V37.332C7.32812 39.1654 8.82812 40.6654 10.6615 40.6654H37.3281C39.1615 40.6654 40.6615 39.1654 40.6615 37.332V18.9987C40.6615 17.1654 39.1615 15.6654 37.3281 15.6654ZM18.9948 23.9987C20.3781 23.9987 21.4948 25.1154 21.4948 26.4987C21.4948 27.882 20.3781 28.9987 18.9948 28.9987C17.6115 28.9987 16.4948 27.882 16.4948 26.4987C16.4948 25.1154 17.6115 23.9987 18.9948 23.9987ZM23.9948 33.9987H13.9948V32.7487C13.9948 31.082 17.3281 30.2487 18.9948 30.2487C20.6615 30.2487 23.9948 31.082 23.9948 32.7487V33.9987ZM25.6615 18.9987H22.3281V10.6654H25.6615V18.9987ZM33.9948 31.4987H27.3281V28.9987H33.9948V31.4987ZM33.9948 26.4987H27.3281V23.9987H33.9948V26.4987Z" fill="#E32934"/>
</svg>
