<svg width="42" height="36" viewBox="0 0 42 36" fill="none" xmlns="http://www.w3.org/2000/svg">
<path d="M38.25 7.625H27.21V8.015C26.8831 16.2473 15.1118 16.2362 14.79 8.01489V7.625H3.75C2.75555 7.62536 1.80193 8.02056 1.09875 8.72375C0.395563 9.42693 0.000359796 10.3805 0 11.375V31.625C0.000359796 32.6195 0.395563 33.5731 1.09875 34.2763C1.80193 34.9794 2.75555 35.3746 3.75 35.375H38.25C39.2445 35.3746 40.1981 34.9794 40.9013 34.2763C41.6044 33.5731 41.9996 32.6195 42 31.625V11.375C41.9996 10.3805 41.6044 9.42693 40.9013 8.72375C40.1981 8.02056 39.2445 7.62536 38.25 7.625ZM17.1825 15.395H37.5825C37.7795 15.3979 37.9674 15.4782 38.1057 15.6186C38.2439 15.7589 38.3214 15.948 38.3214 16.145C38.3214 16.342 38.2439 16.5311 38.1056 16.6715C37.9674 16.8118 37.7794 16.8921 37.5825 16.895H17.1825C16.9855 16.8921 16.7976 16.8118 16.6593 16.6714C16.521 16.5311 16.4435 16.342 16.4435 16.145C16.4435 15.948 16.521 15.7589 16.6593 15.6186C16.7976 15.4782 16.9855 15.3979 17.1825 15.395ZM17.1825 20.4275H37.5825C37.7795 20.4304 37.9674 20.5107 38.1057 20.6511C38.2439 20.7914 38.3214 20.9805 38.3214 21.1775C38.3214 21.3745 38.2439 21.5636 38.1056 21.704C37.9674 21.8443 37.7794 21.9246 37.5825 21.9275H17.1825C16.9855 21.9246 16.7976 21.8443 16.6593 21.7039C16.521 21.5636 16.4435 21.3745 16.4435 21.1775C16.4435 20.9805 16.521 20.7914 16.6593 20.6511C16.7976 20.5107 16.9855 20.4304 17.1825 20.4275ZM17.1825 25.4525H37.5825C37.7795 25.4554 37.9674 25.5357 38.1057 25.676C38.2439 25.8164 38.3214 26.0055 38.3214 26.2025C38.3214 26.3995 38.2439 26.5886 38.1056 26.7289C37.9674 26.8693 37.7794 26.9495 37.5825 26.9525H17.1825C16.9857 26.9492 16.7981 26.8688 16.6601 26.7285C16.5221 26.5882 16.4447 26.3993 16.4447 26.2025C16.4447 26.0057 16.5221 25.8168 16.6601 25.6765C16.7981 25.5362 16.9857 25.4557 17.1825 25.4525ZM37.5825 30.485C37.7794 30.488 37.9672 30.5684 38.1054 30.7087C38.2435 30.849 38.321 31.0381 38.3209 31.235C38.3209 31.4319 38.2435 31.6209 38.1053 31.7612C37.9672 31.9016 37.7794 31.9819 37.5825 31.985H6.3975C6.2006 31.9819 6.0128 31.9015 5.87464 31.7612C5.73648 31.6209 5.65905 31.4319 5.65905 31.2349C5.65906 31.038 5.7365 30.849 5.87467 30.7087C6.01284 30.5684 6.20064 30.488 6.39754 30.485H37.5825ZM3.57 13.1825C3.57175 12.5863 3.80936 12.015 4.23094 11.5934C4.65252 11.1719 5.2238 10.9342 5.82 10.9325H11.7375C12.3337 10.9343 12.905 11.1719 13.3266 11.5934C13.7481 12.015 13.9857 12.5863 13.9875 13.1825V19.1C13.9858 19.6962 13.7481 20.2675 13.3266 20.6891C12.905 21.1106 12.3337 21.3483 11.7375 21.35H5.82C5.2238 21.3483 4.65251 21.1106 4.23093 20.6891C3.80935 20.2675 3.57174 19.6962 3.57 19.1V13.1825Z" fill="#E32934"/>
<path d="M20.9991 12.7254C22.248 12.7245 23.4455 12.228 24.3286 11.3449C25.2117 10.4618 25.7082 9.26426 25.7091 8.01535V2.36035C25.7086 1.76376 25.4714 1.19174 25.0495 0.769884C24.6277 0.348029 24.0557 0.110824 23.4591 0.110352H18.5391C17.9425 0.110824 17.3705 0.348029 16.9486 0.769884C16.5267 1.19174 16.2895 1.76376 16.2891 2.36035V8.01535C16.2899 9.26426 16.7864 10.4618 17.6695 11.3449C18.5526 12.228 19.7502 12.7245 20.9991 12.7254ZM20.9991 2.24785C21.6579 2.25471 22.2875 2.52126 22.751 2.98959C23.2145 3.45793 23.4744 4.09023 23.4744 4.74914C23.4744 5.40805 23.2144 6.04034 22.7509 6.50866C22.2874 6.97699 21.6579 7.24352 20.999 7.25035C20.3401 7.2435 19.7106 6.97695 19.2471 6.50861C18.7836 6.04027 18.5236 5.40797 18.5236 4.74906C18.5236 4.09016 18.7836 3.45787 19.2471 2.98954C19.7106 2.52122 20.3402 2.25469 20.9991 2.24785Z" fill="#E32934"/>
<path d="M11.7378 12.4326H5.82031C5.4061 12.4326 5.07031 12.7684 5.07031 13.1826V19.1001C5.07031 19.5143 5.4061 19.8501 5.82031 19.8501H11.7378C12.152 19.8501 12.4878 19.5143 12.4878 19.1001V13.1826C12.4878 12.7684 12.152 12.4326 11.7378 12.4326Z" fill="#E32934"/>
<path d="M21.0008 5.75055C21.2642 5.74732 21.5158 5.6404 21.7009 5.45298C21.886 5.26555 21.9899 5.01272 21.9899 4.74927C21.9899 4.48583 21.886 4.233 21.7009 4.04558C21.5157 3.85817 21.2642 3.75127 21.0008 3.74805C20.7373 3.75128 20.4858 3.85819 20.3007 4.04562C20.1155 4.23304 20.0117 4.48587 20.0117 4.74932C20.0117 5.01276 20.1156 5.26559 20.3007 5.45301C20.4858 5.64043 20.7374 5.74733 21.0008 5.75055Z" fill="#E32934"/>
</svg>
