<svg width="48" height="48" viewBox="0 0 48 48" fill="none" xmlns="http://www.w3.org/2000/svg">
<path d="M23.9999 16.9635V10.2969H7.33325V40.2969H40.6666V16.9635H23.9999ZM13.9999 36.9635H10.6666V33.6302H13.9999V36.9635ZM13.9999 30.2969H10.6666V26.9635H13.9999V30.2969ZM13.9999 23.6302H10.6666V20.2969H13.9999V23.6302ZM13.9999 16.9635H10.6666V13.6302H13.9999V16.9635ZM20.6666 36.9635H17.3333V33.6302H20.6666V36.9635ZM20.6666 30.2969H17.3333V26.9635H20.6666V30.2969ZM20.6666 23.6302H17.3333V20.2969H20.6666V23.6302ZM20.6666 16.9635H17.3333V13.6302H20.6666V16.9635ZM37.3333 36.9635H23.9999V33.6302H27.3333V30.2969H23.9999V26.9635H27.3333V23.6302H23.9999V20.2969H37.3333V36.9635ZM33.9999 23.6302H30.6666V26.9635H33.9999V23.6302ZM33.9999 30.2969H30.6666V33.6302H33.9999V30.2969Z" fill="#E32934"/>
</svg>
