<svg width="48" height="48" viewBox="0 0 48 48" fill="none" xmlns="http://www.w3.org/2000/svg">
<path d="M24.7266 26.3936H19.4902V23.8482C19.4902 21.5936 17.9629 19.7027 15.8538 19.1209C15.0538 18.9027 14.3266 18.03 14.3266 17.1572V16.7209C15.7084 15.4845 16.5811 13.4482 16.5811 11.7027C16.5811 8.86634 14.2538 6.53906 11.4175 6.53906C8.58111 6.53906 6.25384 8.86634 6.25384 11.7027C6.25384 13.4482 7.12656 15.4845 8.50838 16.7209V17.23C8.50838 18.03 7.78111 18.9754 6.98111 19.1936C4.79929 19.7754 3.34474 21.6663 3.34474 23.9209V26.4663H1.45384C1.01747 26.4663 0.726562 26.83 0.726562 27.1936V30.7572C0.726562 31.1209 1.01747 31.4845 1.45384 31.4845H2.76293V46.03C2.76293 46.4663 3.05384 46.7572 3.4902 46.7572H22.6902C23.0538 46.7572 23.4175 46.4663 23.4175 46.03V31.4845H24.7266C25.1629 31.4845 25.4538 31.1209 25.4538 30.7572V27.1936C25.4538 26.7572 25.1629 26.3936 24.7266 26.3936ZM7.70838 11.7027C7.70838 9.66634 9.38111 7.99361 11.4175 7.99361C13.4538 7.99361 15.1266 9.66634 15.1266 11.7027C15.1266 13.8118 13.3811 16.5027 11.4175 16.5027C9.45383 16.5027 7.70838 13.8118 7.70838 11.7027ZM23.9993 29.9572H2.18111V27.8482H23.9993V29.9572Z" fill="#E32934"/>
<path d="M41.2357 19.9212V29.1575C41.2357 31.4848 39.3447 33.4484 36.9447 33.4484H30.7629V42.903C30.7629 44.1393 29.7447 45.1575 28.5084 45.1575C27.272 45.1575 26.2538 44.1393 26.2538 42.903V30.8303C26.2538 29.3757 27.4175 28.2121 28.872 28.2121H31.9993V23.9212L30.3266 25.5939C30.1811 25.7393 30.0357 25.8121 29.8175 25.8121H22.9084C22.3266 25.8121 21.672 25.5212 21.3084 25.0848C20.872 24.6484 20.7266 23.9939 20.7266 23.4121C20.872 22.3212 21.8175 21.4484 22.9811 21.4484H27.6357L31.4902 17.5939C32.072 17.0121 32.872 16.6484 33.7447 16.6484H37.9629C39.7811 16.6484 41.2357 18.103 41.2357 19.9212Z" fill="#E32934"/>
<path d="M47.2739 23.2663V45.23C47.2739 45.6663 46.983 45.9572 46.5466 45.9572H43.783C43.4193 45.9572 43.0557 45.6663 43.0557 45.23V39.0482H36.6557V45.23C36.6557 45.6663 36.3648 45.9572 35.9284 45.9572H33.1648C32.7284 45.9572 32.4375 45.6663 32.4375 45.23V35.63C32.4375 35.1936 32.7284 34.9027 33.1648 34.9027H42.692V23.2663C42.692 22.83 42.983 22.5391 43.4193 22.5391H46.5466C46.983 22.5391 47.2739 22.83 47.2739 23.2663Z" fill="#E32934"/>
<path d="M36.0722 15.3396C38.4722 15.3396 40.3631 13.4487 40.3631 11.0487C40.3631 8.64872 38.4722 6.75781 36.0722 6.75781C33.6722 6.75781 31.7812 8.64872 31.7812 11.0487C31.7812 13.376 33.6722 15.3396 36.0722 15.3396ZM36.0722 8.21236C37.6722 8.21236 38.9085 9.44872 38.9085 11.0487C38.9085 12.6487 37.6722 13.8851 36.0722 13.8851C34.5449 13.8851 33.2358 12.6487 33.2358 11.0487C33.2358 9.44872 34.4722 8.21236 36.0722 8.21236Z" fill="#E32934"/>
<path d="M30.9793 3.26832V8.94105C30.9793 10.032 30.1065 10.9047 29.0156 10.9047H23.6338L20.652 13.8865C20.5065 14.032 20.3611 14.1047 20.1429 14.1047C20.0702 14.1047 19.9247 14.1047 19.852 14.032C19.5611 13.8865 19.4156 13.6683 19.4156 13.3774V10.9047H18.9793C17.8884 10.9047 17.0156 10.032 17.0156 8.94105V3.26832C17.0156 2.17741 17.8884 1.30469 18.9793 1.30469H29.0884C30.1065 1.30469 30.9793 2.17741 30.9793 3.26832Z" fill="#E32934"/>
<path d="M24.7266 26.3936H19.4902V23.8482C19.4902 21.5936 17.9629 19.7027 15.8538 19.1209C15.0538 18.9027 14.3266 18.03 14.3266 17.1572V16.7209C15.7084 15.4845 16.5811 13.4482 16.5811 11.7027C16.5811 8.86634 14.2538 6.53906 11.4175 6.53906C8.58111 6.53906 6.25384 8.86634 6.25384 11.7027C6.25384 13.4482 7.12656 15.4845 8.50838 16.7209V17.23C8.50838 18.03 7.78111 18.9754 6.98111 19.1936C4.79929 19.7754 3.34474 21.6663 3.34474 23.9209V26.4663H1.45384C1.01747 26.4663 0.726562 26.83 0.726562 27.1936V30.7572C0.726562 31.1209 1.01747 31.4845 1.45384 31.4845H2.76293V46.03C2.76293 46.4663 3.05384 46.7572 3.4902 46.7572H22.6902C23.0538 46.7572 23.4175 46.4663 23.4175 46.03V31.4845H24.7266C25.1629 31.4845 25.4538 31.1209 25.4538 30.7572V27.1936C25.4538 26.7572 25.1629 26.3936 24.7266 26.3936ZM7.70838 11.7027C7.70838 9.66634 9.38111 7.99361 11.4175 7.99361C13.4538 7.99361 15.1266 9.66634 15.1266 11.7027C15.1266 13.8118 13.3811 16.5027 11.4175 16.5027C9.45383 16.5027 7.70838 13.8118 7.70838 11.7027ZM23.9993 29.9572H2.18111V27.8482H23.9993V29.9572Z" fill="#E32934"/>
<path d="M41.2357 19.9212V29.1575C41.2357 31.4848 39.3447 33.4484 36.9447 33.4484H30.7629V42.903C30.7629 44.1393 29.7447 45.1575 28.5084 45.1575C27.272 45.1575 26.2538 44.1393 26.2538 42.903V30.8303C26.2538 29.3757 27.4175 28.2121 28.872 28.2121H31.9993V23.9212L30.3266 25.5939C30.1811 25.7393 30.0357 25.8121 29.8175 25.8121H22.9084C22.3266 25.8121 21.672 25.5212 21.3084 25.0848C20.872 24.6484 20.7266 23.9939 20.7266 23.4121C20.872 22.3212 21.8175 21.4484 22.9811 21.4484H27.6357L31.4902 17.5939C32.072 17.0121 32.872 16.6484 33.7447 16.6484H37.9629C39.7811 16.6484 41.2357 18.103 41.2357 19.9212Z" fill="#E32934"/>
<path d="M47.2739 23.2663V45.23C47.2739 45.6663 46.983 45.9572 46.5466 45.9572H43.783C43.4193 45.9572 43.0557 45.6663 43.0557 45.23V39.0482H36.6557V45.23C36.6557 45.6663 36.3648 45.9572 35.9284 45.9572H33.1648C32.7284 45.9572 32.4375 45.6663 32.4375 45.23V35.63C32.4375 35.1936 32.7284 34.9027 33.1648 34.9027H42.692V23.2663C42.692 22.83 42.983 22.5391 43.4193 22.5391H46.5466C46.983 22.5391 47.2739 22.83 47.2739 23.2663Z" fill="#E32934"/>
<path d="M36.0722 15.3396C38.4722 15.3396 40.3631 13.4487 40.3631 11.0487C40.3631 8.64872 38.4722 6.75781 36.0722 6.75781C33.6722 6.75781 31.7812 8.64872 31.7812 11.0487C31.7812 13.376 33.6722 15.3396 36.0722 15.3396ZM36.0722 8.21236C37.6722 8.21236 38.9085 9.44872 38.9085 11.0487C38.9085 12.6487 37.6722 13.8851 36.0722 13.8851C34.5449 13.8851 33.2358 12.6487 33.2358 11.0487C33.2358 9.44872 34.4722 8.21236 36.0722 8.21236Z" fill="#E32934"/>
<path d="M30.9793 3.26832V8.94105C30.9793 10.032 30.1065 10.9047 29.0156 10.9047H23.6338L20.652 13.8865C20.5065 14.032 20.3611 14.1047 20.1429 14.1047C20.0702 14.1047 19.9247 14.1047 19.852 14.032C19.5611 13.8865 19.4156 13.6683 19.4156 13.3774V10.9047H18.9793C17.8884 10.9047 17.0156 10.032 17.0156 8.94105V3.26832C17.0156 2.17741 17.8884 1.30469 18.9793 1.30469H29.0884C30.1065 1.30469 30.9793 2.17741 30.9793 3.26832Z" fill="#E32934"/>
</svg>
