<svg width="48" height="48" viewBox="0 0 48 48" fill="none" xmlns="http://www.w3.org/2000/svg">
<path d="M37.3281 16.9622H28.9948V11.9622C28.9948 10.1289 27.4948 8.62891 25.6615 8.62891H22.3281C20.4948 8.62891 18.9948 10.1289 18.9948 11.9622V16.9622H10.6615C8.82812 16.9622 7.32812 18.4622 7.32812 20.2956V38.6289C7.32812 40.4622 8.82812 41.9622 10.6615 41.9622H37.3281C39.1615 41.9622 40.6615 40.4622 40.6615 38.6289V20.2956C40.6615 18.4622 39.1615 16.9622 37.3281 16.9622ZM18.9948 25.2956C20.3781 25.2956 21.4948 26.4122 21.4948 27.7956C21.4948 29.1789 20.3781 30.2956 18.9948 30.2956C17.6115 30.2956 16.4948 29.1789 16.4948 27.7956C16.4948 26.4122 17.6115 25.2956 18.9948 25.2956ZM23.9948 35.2956H13.9948V34.0456C13.9948 32.3789 17.3281 31.5456 18.9948 31.5456C20.6615 31.5456 23.9948 32.3789 23.9948 34.0456V35.2956ZM25.6615 20.2956H22.3281V11.9622H25.6615V20.2956ZM33.9948 32.7956H27.3281V30.2956H33.9948V32.7956ZM33.9948 27.7956H27.3281V25.2956H33.9948V27.7956Z" fill="#E32934"/>
</svg>
