<svg width="48" height="48" viewBox="0 0 48 48" fill="none" xmlns="http://www.w3.org/2000/svg">
<path d="M31.55 22.4317L29.7833 20.665L21.65 28.7984L18.1167 25.265L16.35 27.0317L21.65 32.3317L31.55 22.4317ZM35.6667 8.99837H34V5.66504H30.6667V8.99837H17.3333V5.66504H14V8.99837H12.3333C10.4833 8.99837 9.01667 10.4984 9.01667 12.3317L9 35.665C9 37.4984 10.4833 38.9984 12.3333 38.9984H35.6667C37.5 38.9984 39 37.4984 39 35.665V12.3317C39 10.4984 37.5 8.99837 35.6667 8.99837ZM35.6667 35.665H12.3333V17.3317H35.6667V35.665Z" fill="#E32934"/>
</svg>
