<svg width="48" height="48" viewBox="0 0 48 48" fill="none" xmlns="http://www.w3.org/2000/svg">
<g clip-path="url(#clip0_28_22511)">
<path d="M40.8 6.15H36.6V3H32.4V6.15H15.6V3H11.4V6.15H7.2C4.89 6.15 3 8.04 3 10.35V40.8C3 43.11 4.89 45 7.2 45H40.8C43.11 45 45 43.11 45 40.8V10.35C45 8.04 43.11 6.15 40.8 6.15ZM40.8 40.8H7.2V17.7H40.8V40.8ZM13.5 24H17.7V28.2H13.5V24ZM21.9 24H26.1V28.2H21.9V24ZM30.3 24H34.5V28.2H30.3V24Z" fill="#E32934"/>
</g>
<defs>
<clipPath id="clip0_28_22511">
<rect width="42" height="42" fill="white" transform="translate(3 3)"/>
</clipPath>
</defs>
</svg>
