<svg width="48" height="48" viewBox="0 0 48 48" fill="none" xmlns="http://www.w3.org/2000/svg">
<path d="M35.6667 8.99837H28.7C28 7.06504 26.1667 5.66504 24 5.66504C21.8333 5.66504 20 7.06504 19.3 8.99837H12.3333C10.5 8.99837 9 10.4984 9 12.3317V35.665C9 37.4984 10.5 38.9984 12.3333 38.9984H35.6667C37.5 38.9984 39 37.4984 39 35.665V12.3317C39 10.4984 37.5 8.99837 35.6667 8.99837ZM24 8.99837C24.9167 8.99837 25.6667 9.74837 25.6667 10.665C25.6667 11.5817 24.9167 12.3317 24 12.3317C23.0833 12.3317 22.3333 11.5817 22.3333 10.665C22.3333 9.74837 23.0833 8.99837 24 8.99837ZM27.3333 32.3317H15.6667V28.9984H27.3333V32.3317ZM32.3333 25.665H15.6667V22.3317H32.3333V25.665ZM32.3333 18.9984H15.6667V15.665H32.3333V18.9984Z" fill="#E32934"/>
</svg>
