<svg width="48" height="48" viewBox="0 0 48 48" fill="none" xmlns="http://www.w3.org/2000/svg">
<path d="M19.3134 14.5857C15.9134 18.4024 13.5801 23.8857 13.3634 24.4024L7.33008 21.8191L14.0801 15.0691C14.8634 14.2857 15.9967 13.9358 17.0967 14.1524L19.3134 14.5857ZM22.6134 32.3357C22.6134 32.3357 28.8467 29.7524 32.4301 26.1691C41.4301 17.1691 39.9301 10.1357 39.4467 8.55242C37.8634 8.05242 30.8301 6.56908 21.8301 15.5691C18.2467 19.1524 15.6634 25.3857 15.6634 25.3857L22.6134 32.3357ZM33.4134 28.6857C29.5967 32.0857 24.1134 34.4191 23.5967 34.6357L26.1801 40.6691L32.9301 33.9191C33.7134 33.1357 34.0634 32.0024 33.8467 30.9024L33.4134 28.6857ZM18.9967 34.0024C18.9967 35.3857 18.4301 36.6357 17.5301 37.5357C15.5634 39.5024 7.33008 40.6691 7.33008 40.6691C7.33008 40.6691 8.49674 32.4357 10.4634 30.4691C11.3634 29.5691 12.6134 29.0024 13.9967 29.0024C16.7634 29.0024 18.9967 31.2357 18.9967 34.0024ZM25.6634 19.0024C25.6634 17.1691 27.1634 15.6691 28.9967 15.6691C30.8301 15.6691 32.3301 17.1691 32.3301 19.0024C32.3301 20.8357 30.8301 22.3357 28.9967 22.3357C27.1634 22.3357 25.6634 20.8357 25.6634 19.0024Z" fill="#E32934"/>
</svg>
