<svg width="48" height="48" viewBox="0 0 48 48" fill="none" xmlns="http://www.w3.org/2000/svg">
<path d="M24.7266 26.4014H19.4902V23.856C19.4902 21.6014 17.9629 19.7105 15.8538 19.1287C15.0538 18.9105 14.3266 18.0378 14.3266 17.1651V16.7287C15.7084 15.4923 16.5811 13.456 16.5811 11.7105C16.5811 8.87415 14.2538 6.54688 11.4175 6.54688C8.58111 6.54688 6.25384 8.87415 6.25384 11.7105C6.25384 13.456 7.12656 15.4923 8.50838 16.7287V17.2378C8.50838 18.0378 7.78111 18.9832 6.98111 19.2014C4.79929 19.7832 3.34474 21.6741 3.34474 23.9287V26.4741H1.45384C1.01747 26.4741 0.726562 26.8378 0.726562 27.2014V30.7651C0.726562 31.1287 1.01747 31.4923 1.45384 31.4923H2.76293V46.0378C2.76293 46.4741 3.05384 46.7651 3.4902 46.7651H22.6902C23.0538 46.7651 23.4175 46.4741 23.4175 46.0378V31.4923H24.7266C25.1629 31.4923 25.4538 31.1287 25.4538 30.7651V27.2014C25.4538 26.7651 25.1629 26.4014 24.7266 26.4014ZM7.70838 11.7105C7.70838 9.67415 9.38111 8.00142 11.4175 8.00142C13.4538 8.00142 15.1266 9.67415 15.1266 11.7105C15.1266 13.8196 13.3811 16.5105 11.4175 16.5105C9.45383 16.5105 7.70838 13.8196 7.70838 11.7105ZM23.9993 29.9651H2.18111V27.856H23.9993V29.9651Z" fill="#E32934"/>
<path d="M41.2357 19.929V29.1653C41.2357 31.4926 39.3447 33.4563 36.9447 33.4563H30.7629V42.9108C30.7629 44.1472 29.7447 45.1653 28.5084 45.1653C27.272 45.1653 26.2538 44.1472 26.2538 42.9108V30.8381C26.2538 29.3835 27.4175 28.2199 28.872 28.2199H31.9993V23.929L30.3266 25.6017C30.1811 25.7472 30.0357 25.8199 29.8175 25.8199H22.9084C22.3266 25.8199 21.672 25.529 21.3084 25.0926C20.872 24.6563 20.7266 24.0017 20.7266 23.4199C20.872 22.329 21.8175 21.4563 22.9811 21.4563H27.6357L31.4902 17.6017C32.072 17.0199 32.872 16.6562 33.7447 16.6562H37.9629C39.7811 16.6562 41.2357 18.1108 41.2357 19.929Z" fill="#E32934"/>
<path d="M47.2739 23.2741V45.2378C47.2739 45.6741 46.983 45.9651 46.5466 45.9651H43.783C43.4193 45.9651 43.0557 45.6741 43.0557 45.2378V39.056H36.6557V45.2378C36.6557 45.6741 36.3648 45.9651 35.9284 45.9651H33.1648C32.7284 45.9651 32.4375 45.6741 32.4375 45.2378V35.6378C32.4375 35.2014 32.7284 34.9105 33.1648 34.9105H42.692V23.2741C42.692 22.8378 42.983 22.5469 43.4193 22.5469H46.5466C46.983 22.5469 47.2739 22.8378 47.2739 23.2741Z" fill="#E32934"/>
<path d="M36.0722 15.3435C38.4722 15.3435 40.3631 13.4526 40.3631 11.0526C40.3631 8.65263 38.4722 6.76172 36.0722 6.76172C33.6722 6.76172 31.7812 8.65263 31.7812 11.0526C31.7812 13.3799 33.6722 15.3435 36.0722 15.3435ZM36.0722 8.21626C37.6722 8.21626 38.9085 9.45263 38.9085 11.0526C38.9085 12.6526 37.6722 13.889 36.0722 13.889C34.5449 13.889 33.2358 12.6526 33.2358 11.0526C33.2358 9.45263 34.4722 8.21626 36.0722 8.21626Z" fill="#E32934"/>
<path d="M30.9793 3.27223V8.94496C30.9793 10.0359 30.1065 10.9086 29.0156 10.9086H23.6338L20.652 13.8904C20.5065 14.0359 20.3611 14.1086 20.1429 14.1086C20.0702 14.1086 19.9247 14.1086 19.852 14.0359C19.5611 13.8904 19.4156 13.6722 19.4156 13.3813V10.9086H18.9793C17.8884 10.9086 17.0156 10.0359 17.0156 8.94496V3.27223C17.0156 2.18132 17.8884 1.30859 18.9793 1.30859H29.0884C30.1065 1.30859 30.9793 2.18132 30.9793 3.27223Z" fill="#E32934"/>
<path d="M24.7266 26.4014H19.4902V23.856C19.4902 21.6014 17.9629 19.7105 15.8538 19.1287C15.0538 18.9105 14.3266 18.0378 14.3266 17.1651V16.7287C15.7084 15.4923 16.5811 13.456 16.5811 11.7105C16.5811 8.87415 14.2538 6.54688 11.4175 6.54688C8.58111 6.54688 6.25384 8.87415 6.25384 11.7105C6.25384 13.456 7.12656 15.4923 8.50838 16.7287V17.2378C8.50838 18.0378 7.78111 18.9832 6.98111 19.2014C4.79929 19.7832 3.34474 21.6741 3.34474 23.9287V26.4741H1.45384C1.01747 26.4741 0.726562 26.8378 0.726562 27.2014V30.7651C0.726562 31.1287 1.01747 31.4923 1.45384 31.4923H2.76293V46.0378C2.76293 46.4741 3.05384 46.7651 3.4902 46.7651H22.6902C23.0538 46.7651 23.4175 46.4741 23.4175 46.0378V31.4923H24.7266C25.1629 31.4923 25.4538 31.1287 25.4538 30.7651V27.2014C25.4538 26.7651 25.1629 26.4014 24.7266 26.4014ZM7.70838 11.7105C7.70838 9.67415 9.38111 8.00142 11.4175 8.00142C13.4538 8.00142 15.1266 9.67415 15.1266 11.7105C15.1266 13.8196 13.3811 16.5105 11.4175 16.5105C9.45383 16.5105 7.70838 13.8196 7.70838 11.7105ZM23.9993 29.9651H2.18111V27.856H23.9993V29.9651Z" fill="#E32934"/>
<path d="M41.2357 19.929V29.1653C41.2357 31.4926 39.3447 33.4563 36.9447 33.4563H30.7629V42.9108C30.7629 44.1472 29.7447 45.1653 28.5084 45.1653C27.272 45.1653 26.2538 44.1472 26.2538 42.9108V30.8381C26.2538 29.3835 27.4175 28.2199 28.872 28.2199H31.9993V23.929L30.3266 25.6017C30.1811 25.7472 30.0357 25.8199 29.8175 25.8199H22.9084C22.3266 25.8199 21.672 25.529 21.3084 25.0926C20.872 24.6563 20.7266 24.0017 20.7266 23.4199C20.872 22.329 21.8175 21.4563 22.9811 21.4563H27.6357L31.4902 17.6017C32.072 17.0199 32.872 16.6562 33.7447 16.6562H37.9629C39.7811 16.6562 41.2357 18.1108 41.2357 19.929Z" fill="#E32934"/>
<path d="M47.2739 23.2741V45.2378C47.2739 45.6741 46.983 45.9651 46.5466 45.9651H43.783C43.4193 45.9651 43.0557 45.6741 43.0557 45.2378V39.056H36.6557V45.2378C36.6557 45.6741 36.3648 45.9651 35.9284 45.9651H33.1648C32.7284 45.9651 32.4375 45.6741 32.4375 45.2378V35.6378C32.4375 35.2014 32.7284 34.9105 33.1648 34.9105H42.692V23.2741C42.692 22.8378 42.983 22.5469 43.4193 22.5469H46.5466C46.983 22.5469 47.2739 22.8378 47.2739 23.2741Z" fill="#E32934"/>
<path d="M36.0722 15.3435C38.4722 15.3435 40.3631 13.4526 40.3631 11.0526C40.3631 8.65263 38.4722 6.76172 36.0722 6.76172C33.6722 6.76172 31.7812 8.65263 31.7812 11.0526C31.7812 13.3799 33.6722 15.3435 36.0722 15.3435ZM36.0722 8.21626C37.6722 8.21626 38.9085 9.45263 38.9085 11.0526C38.9085 12.6526 37.6722 13.889 36.0722 13.889C34.5449 13.889 33.2358 12.6526 33.2358 11.0526C33.2358 9.45263 34.4722 8.21626 36.0722 8.21626Z" fill="#E32934"/>
<path d="M30.9793 3.27223V8.94496C30.9793 10.0359 30.1065 10.9086 29.0156 10.9086H23.6338L20.652 13.8904C20.5065 14.0359 20.3611 14.1086 20.1429 14.1086C20.0702 14.1086 19.9247 14.1086 19.852 14.0359C19.5611 13.8904 19.4156 13.6722 19.4156 13.3813V10.9086H18.9793C17.8884 10.9086 17.0156 10.0359 17.0156 8.94496V3.27223C17.0156 2.18132 17.8884 1.30859 18.9793 1.30859H29.0884C30.1065 1.30859 30.9793 2.18132 30.9793 3.27223Z" fill="#E32934"/>
</svg>
