<svg width="48" height="48" viewBox="0 0 48 48" fill="none" xmlns="http://www.w3.org/2000/svg">
<path d="M25.2459 39.0041C25.8529 39.5081 26.5462 39.8979 27.2922 40.1548V45.6771C27.2916 45.746 27.264 45.8119 27.2153 45.8606C27.1665 45.9093 27.1006 45.9369 27.0317 45.9375H25.5063C25.4496 45.9369 25.3946 45.918 25.3495 45.8835C25.3045 45.849 25.2719 45.8008 25.2565 45.7462C25.2299 45.6531 25.2459 39.828 25.2459 39.0041ZM18.371 11.0926H29.6201C29.7618 11.0926 29.8976 11.0363 29.9978 10.9362C30.098 10.836 30.1543 10.7001 30.1543 10.5585V9.46358C30.1543 9.32191 30.098 9.18605 29.9978 9.08588C29.8976 8.9857 29.7618 8.92942 29.6201 8.92941H18.371C18.2295 8.92987 18.0939 8.9863 17.9938 9.08637C17.8937 9.18645 17.8373 9.32205 17.8368 9.46358V10.5585C17.8373 10.7 17.8937 10.8356 17.9938 10.9357C18.0939 11.0357 18.2295 11.0922 18.371 11.0926ZM27.7864 33.9788C27.7864 35.5361 29.6786 36.3201 30.7814 35.2199C31.1095 34.8902 31.2936 34.444 31.2936 33.9788C31.2936 33.5137 31.1095 33.0675 30.7814 32.7378C29.6786 31.6376 27.7864 32.4215 27.7864 33.9788ZM33.3592 30.1574C34.1147 30.9129 34.6293 31.8756 34.8377 32.9235C35.0462 33.9715 34.9392 35.0578 34.5303 36.0449C34.1214 37.0321 33.4289 37.8759 32.5405 38.4695C31.6521 39.0631 30.6075 39.38 29.539 39.38C28.4705 39.38 27.426 39.0631 26.5376 38.4695C25.6492 37.8759 24.9567 37.0321 24.5478 36.0449C24.1389 35.0578 24.0319 33.9715 24.2404 32.9235C24.4488 31.8756 24.9634 30.9129 25.7189 30.1574C26.2205 29.6557 26.8161 29.2577 27.4716 28.9861C28.127 28.7146 28.8296 28.5748 29.539 28.5748C30.2485 28.5748 30.9511 28.7146 31.6065 28.9861C32.262 29.2577 32.8575 29.6557 33.3592 30.1574ZM32.4184 33.9788C32.4184 33.4096 32.2496 32.8532 31.9334 32.3799C31.6171 31.9066 31.1676 31.5377 30.6418 31.3199C30.1159 31.102 29.5372 31.045 28.9789 31.1561C28.4206 31.2671 27.9078 31.5412 27.5053 31.9437C27.1028 32.3463 26.8287 32.8591 26.7176 33.4174C26.6066 33.9756 26.6636 34.5543 26.8814 35.0802C27.0992 35.6061 27.4681 36.0556 27.9414 36.3718C28.4147 36.6881 28.9711 36.8569 29.5404 36.8569C30.3036 36.8568 31.0356 36.5535 31.5753 36.0138C32.115 35.4741 32.4183 34.7421 32.4184 33.9788ZM23.0136 33.9788C23.0106 35.2759 23.3966 36.5441 24.1218 37.6196V41.2152H13.6593C12.8636 39.7377 11.6731 38.5103 10.2205 37.6701V9.52203C11.6073 8.72041 12.7564 7.56489 13.5503 6.17361H34.2042C35.0444 7.64543 36.281 8.85168 37.7732 9.65492V37.7099C36.6598 38.3646 35.7 39.251 34.959 40.309V37.6196C35.5278 36.773 35.8903 35.8049 36.0174 34.7929C36.1445 33.7809 36.0327 32.7532 35.6909 31.7923C35.3492 30.8313 34.787 29.9638 34.0495 29.2593C33.3119 28.5548 32.4196 28.033 31.4439 27.7356C30.4683 27.4383 29.4366 27.3737 28.4315 27.547C27.4264 27.7204 26.4759 28.1269 25.6563 28.7339C24.8367 29.3409 24.1707 30.1315 23.7117 31.0423C23.2528 31.9532 23.0137 32.9589 23.0136 33.9788ZM16.7127 10.5585C16.7132 10.9984 16.888 11.4201 17.1988 11.7315C17.5096 12.0428 17.9311 12.2182 18.371 12.2194H29.6201C30.0603 12.2183 30.4821 12.043 30.7934 11.7317C31.1046 11.4205 31.28 10.9986 31.281 10.5585V9.46358C31.2799 9.02368 31.1044 8.60217 30.7931 8.29136C30.4818 7.98055 30.06 7.80577 29.6201 7.80531H18.371C17.9314 7.80587 17.5099 7.98077 17.199 8.29163C16.8882 8.60249 16.7133 9.02395 16.7127 9.46358L16.7127 10.5585ZM12.094 15.3047C12.0941 15.4541 12.1535 15.5974 12.2591 15.703C12.3648 15.8086 12.508 15.868 12.6574 15.8681H35.3736C35.523 15.8681 35.6663 15.8087 35.7719 15.7031C35.8776 15.5974 35.9369 15.4541 35.9369 15.3047C35.9369 15.1553 35.8776 15.012 35.7719 14.9064C35.6663 14.8007 35.523 14.7413 35.3736 14.7413H12.6574C12.508 14.7414 12.3648 14.8008 12.2591 14.9064C12.1535 15.0121 12.0941 15.1553 12.094 15.3047ZM12.094 18.9534C12.0941 19.1028 12.1535 19.2461 12.2591 19.3517C12.3648 19.4574 12.508 19.5167 12.6574 19.5168H35.3736C35.523 19.5168 35.6663 19.4575 35.7719 19.3518C35.8776 19.2462 35.9369 19.1029 35.9369 18.9534C35.9369 18.804 35.8776 18.6607 35.7719 18.5551C35.6663 18.4494 35.523 18.3901 35.3736 18.3901H12.6574C12.508 18.3901 12.3648 18.4495 12.2591 18.5552C12.1535 18.6608 12.0941 18.804 12.094 18.9534ZM12.094 22.6021C12.0941 22.7515 12.1535 22.8948 12.2591 23.0004C12.3648 23.1061 12.508 23.1655 12.6574 23.1655H35.3736C35.523 23.1655 35.6663 23.1062 35.7719 23.0005C35.8776 22.8949 35.9369 22.7516 35.9369 22.6022C35.9369 22.4527 35.8776 22.3094 35.7719 22.2038C35.6663 22.0981 35.523 22.0388 35.3736 22.0388H12.6574C12.508 22.0389 12.3648 22.0982 12.2591 22.2039C12.1535 22.3095 12.0941 22.4528 12.094 22.6021ZM17.1804 29.2299C17.3296 29.2295 17.4725 29.17 17.5779 29.0644C17.6832 28.9588 17.7424 28.8157 17.7424 28.6665C17.7424 28.5174 17.6832 28.3743 17.5779 28.2687C17.4725 28.1631 17.3296 28.1035 17.1804 28.1031H12.6574C12.5082 28.1035 12.3653 28.1631 12.26 28.2687C12.1546 28.3743 12.0955 28.5174 12.0955 28.6665C12.0955 28.8157 12.1546 28.9588 12.26 29.0644C12.3653 29.17 12.5082 29.2295 12.6574 29.2299H17.1804ZM18.3604 34.4067C18.0016 34.2499 17.1672 34.0054 16.7313 33.8274C16.6248 33.7874 16.5341 33.714 16.4728 33.6182C16.4115 33.5224 16.3828 33.4093 16.3912 33.2959C16.4231 32.5464 17.5658 32.5332 18.1106 33.1125C18.1611 33.1662 18.2218 33.2093 18.2891 33.2395C18.3563 33.2698 18.4289 33.2864 18.5026 33.2885C18.5763 33.2907 18.6498 33.2783 18.7187 33.252C18.7876 33.2258 18.8507 33.1862 18.9043 33.1356C18.9579 33.0849 19.001 33.0242 19.0311 32.9569C19.0612 32.8896 19.0778 32.817 19.0799 32.7433C19.0819 32.6696 19.0694 32.5962 19.0431 32.5273C19.0167 32.4584 18.9771 32.3954 18.9264 32.3418C18.6415 32.0355 18.2801 31.8108 17.8793 31.6908V30.843C17.879 30.6942 17.8196 30.5516 17.7142 30.4465C17.6089 30.3414 17.4661 30.2824 17.3173 30.2824C17.1685 30.2824 17.0258 30.3414 16.9204 30.4465C16.815 30.5516 16.7556 30.6942 16.7553 30.843V31.6163C14.9907 31.9007 14.7488 34.2047 16.2875 34.8585C16.6994 35.0339 17.4621 35.2518 17.9192 35.4378C18.3816 35.6265 18.3497 36.3334 17.8475 36.5035C17.616 36.5706 17.3706 36.5732 17.1378 36.5109C16.905 36.4486 16.6937 36.3238 16.5267 36.15C16.4763 36.0962 16.4157 36.053 16.3486 36.0226C16.2814 35.9922 16.209 35.9754 16.1353 35.9731C16.0616 35.9707 15.9882 35.9829 15.9193 36.0089C15.8503 36.035 15.7872 36.0743 15.7334 36.1247C15.6797 36.1752 15.6364 36.2357 15.606 36.3028C15.5757 36.37 15.5589 36.4425 15.5565 36.5161C15.5542 36.5898 15.5663 36.6632 15.5924 36.7322C15.6184 36.8011 15.6577 36.8643 15.7082 36.918C15.9931 37.2243 16.3545 37.4491 16.7553 37.5691V38.4168C16.7551 38.4908 16.7695 38.564 16.7976 38.6324C16.8258 38.7007 16.8671 38.7629 16.9194 38.8152C16.9716 38.8675 17.0336 38.9091 17.1019 38.9374C17.1702 38.9657 17.2434 38.9803 17.3173 38.9803C17.3912 38.9803 17.4644 38.9657 17.5327 38.9374C17.601 38.9091 17.663 38.8675 17.7152 38.8152C17.7674 38.7629 17.8088 38.7007 17.837 38.6324C17.8651 38.564 17.8795 38.4908 17.8793 38.4168V37.6435C19.62 37.3645 19.9017 35.0897 18.3604 34.4067ZM28.4163 45.3263H30.6645V42.3393H28.4163V45.3263ZM41.8844 2.59664V44.7921C41.8835 44.9335 41.8269 45.0689 41.7269 45.1688C41.6269 45.2688 41.4916 45.3254 41.3502 45.3263H34.959V42.2967C35.093 42.2402 35.2004 42.1347 35.2593 42.0018C35.9832 40.5246 37.1513 39.311 38.5997 38.5311C38.6891 38.4831 38.7637 38.4118 38.8157 38.3248C38.8676 38.2377 38.8949 38.1382 38.8947 38.0368H38.8974V9.3121C38.8975 9.20263 38.8656 9.09552 38.8056 9.00392C38.7457 8.91233 38.6602 8.84025 38.5599 8.79655C37.812 8.42881 37.1268 7.94541 36.5295 7.36416C35.9288 6.77649 35.4247 6.09754 35.036 5.35244C34.9888 5.2608 34.9171 5.184 34.829 5.13053C34.7408 5.07707 34.6396 5.04902 34.5364 5.0495H13.2181C13.1113 5.04903 13.0066 5.07903 12.9162 5.13598C12.8258 5.19294 12.7536 5.27448 12.7079 5.37105C12.3413 6.07272 11.8709 6.71508 11.3127 7.27647C10.7492 7.84333 10.1032 8.32176 9.39666 8.69557C9.30613 8.74254 9.23024 8.81348 9.17728 8.90065C9.12433 8.98782 9.09634 9.08786 9.09637 9.18986H9.09372V37.9996C9.09364 38.1087 9.12524 38.2155 9.18468 38.307C9.24412 38.3986 9.32885 38.4709 9.42857 38.5152C10.8983 39.298 12.0825 40.5259 12.8115 42.023C12.8573 42.118 12.9289 42.1982 13.0183 42.2541C13.1077 42.3101 13.211 42.3396 13.3165 42.3393H24.1218V45.3263H6.64354C6.50201 45.3258 6.36641 45.2694 6.26634 45.1693C6.16626 45.0693 6.10983 44.9337 6.10938 44.7921V2.59664C6.10939 2.45498 6.16567 2.31912 6.26584 2.21896C6.36602 2.11879 6.50187 2.06251 6.64354 2.0625H41.3502C41.4917 2.06296 41.6273 2.11938 41.7274 2.21945C41.8275 2.31952 41.8839 2.45512 41.8844 2.59664ZM8.84125 41.2152C8.69244 41.2155 8.54985 41.2749 8.44476 41.3803C8.33967 41.4857 8.28065 41.6284 8.28065 41.7772C8.28065 41.926 8.33967 42.0688 8.44476 42.1741C8.54985 42.2795 8.69244 42.3389 8.84125 42.3393H9.27975C9.42856 42.3389 9.57115 42.2795 9.67624 42.1741C9.78133 42.0688 9.84035 41.926 9.84035 41.7772C9.84035 41.6284 9.78133 41.4857 9.67624 41.3803C9.57115 41.2749 9.42856 41.2155 9.27975 41.2152H8.84125ZM9.84046 5.41093C9.84054 5.26194 9.78157 5.119 9.67648 5.01341C9.57138 4.90781 9.42872 4.84817 9.27974 4.84753H8.84126C8.69244 4.84792 8.54986 4.9073 8.44476 5.01267C8.33967 5.11803 8.28065 5.26077 8.28065 5.40959C8.28065 5.5584 8.33967 5.70114 8.44476 5.80651C8.54986 5.91187 8.69244 5.97126 8.84126 5.97164H9.27975C9.42845 5.97161 9.57105 5.91253 9.6762 5.80738C9.78135 5.70223 9.84043 5.55963 9.84046 5.41093ZM38.8974 41.7759C38.8973 41.702 38.8826 41.6289 38.8543 41.5608C38.8259 41.4926 38.7843 41.4307 38.732 41.3786C38.6797 41.3266 38.6176 41.2853 38.5493 41.2573C38.481 41.2292 38.4078 41.2149 38.334 41.2152H37.8982C37.8242 41.215 37.751 41.2294 37.6826 41.2575C37.6143 41.2857 37.5521 41.3271 37.4998 41.3793C37.4475 41.4315 37.4059 41.4935 37.3776 41.5618C37.3493 41.6301 37.3347 41.7033 37.3347 41.7772C37.3347 41.8511 37.3493 41.9244 37.3776 41.9926C37.4059 42.0609 37.4475 42.123 37.4998 42.1752C37.5521 42.2274 37.6143 42.2687 37.6826 42.2969C37.751 42.3251 37.8242 42.3395 37.8982 42.3393H38.334C38.4834 42.3392 38.6266 42.2798 38.7323 42.1742C38.8379 42.0685 38.8973 41.9253 38.8974 41.7759ZM38.8974 5.41093C38.8973 5.26152 38.8379 5.11826 38.7323 5.01262C38.6266 4.90698 38.4834 4.8476 38.334 4.84753H37.8982C37.8242 4.84734 37.751 4.86174 37.6826 4.8899C37.6143 4.91806 37.5521 4.95943 37.4998 5.01164C37.4475 5.06385 37.4059 5.12587 37.3776 5.19416C37.3493 5.26245 37.3347 5.33565 37.3347 5.40958C37.3347 5.48352 37.3493 5.55672 37.3776 5.62501C37.4059 5.6933 37.4475 5.75532 37.4998 5.80753C37.5521 5.85974 37.6143 5.90111 37.6826 5.92927C37.751 5.95743 37.8242 5.97183 37.8982 5.97164H38.334C38.4078 5.9719 38.481 5.9576 38.5493 5.92955C38.6176 5.90149 38.6797 5.86025 38.732 5.80816C38.7843 5.75608 38.8259 5.69418 38.8542 5.62602C38.8826 5.55785 38.8973 5.48476 38.8974 5.41093ZM31.7992 45.7462C31.8146 45.8008 31.8472 45.849 31.8923 45.8835C31.9373 45.918 31.9923 45.9369 32.049 45.9375H33.5744C33.6433 45.9369 33.7092 45.9093 33.758 45.8606C33.8067 45.8119 33.8343 45.746 33.8349 45.6771V39.0041C33.2275 39.5076 32.5343 39.8973 31.7886 40.1548C31.7886 41.0026 31.7727 45.6505 31.7992 45.7462Z" fill="#E32934"/>
</svg>
