<svg width="48" height="48" viewBox="0 0 48 48" fill="none" xmlns="http://www.w3.org/2000/svg">
<path d="M31.9703 6.4399C31.3984 6.4399 30.9672 6.46802 30.4797 6.04615C30.1984 5.8024 30.0016 5.45552 29.9453 5.0524C29.7297 3.4399 27.7891 2.71802 26.5703 3.78677C26.2047 4.10552 25.9516 4.54615 25.8859 5.0524C25.7734 5.84927 25.0984 6.4399 24.3016 6.4399C23.8891 6.4399 23.5609 6.38365 23.2609 6.69302C22.9891 6.9649 23.0078 7.21802 23.0078 7.55552V10.4243C23.0078 10.893 23.3922 11.2774 23.8609 11.2774H31.9703C32.4391 11.2774 32.8234 10.893 32.8234 10.4243V7.28365C32.8141 6.8149 32.4297 6.4399 31.9703 6.4399ZM37.4641 14.6336H35.4953C34.9141 14.6336 34.4359 15.1118 34.4359 15.693V17.6618C34.4359 18.243 34.9141 18.7211 35.4953 18.7211H37.4641C38.0453 18.7211 38.5234 18.243 38.5234 17.6618V15.693C38.5234 15.1118 38.0453 14.6336 37.4641 14.6336ZM35.4953 13.893H37.4641C38.4578 13.893 39.2734 14.7086 39.2734 15.7024V17.6711C39.2734 18.6649 38.4578 19.4805 37.4641 19.4805H35.4953C34.5016 19.4805 33.6859 18.6649 33.6859 17.6711V15.7024C33.6859 14.6993 34.5016 13.893 35.4953 13.893ZM37.4641 23.4461H35.4953C34.9141 23.4461 34.4359 23.9243 34.4359 24.5055V26.4743C34.4359 27.0555 34.9141 27.5337 35.4953 27.5337H37.4641C38.0453 27.5337 38.5234 27.0555 38.5234 26.4743V24.5055C38.5234 23.9243 38.0453 23.4461 37.4641 23.4461ZM35.4953 22.6961H37.4641C38.4578 22.6961 39.2734 23.5118 39.2734 24.5055V26.4743C39.2734 27.468 38.4578 28.2837 37.4641 28.2837H35.4953C34.5016 28.2837 33.6859 27.468 33.6859 26.4743V24.5055C33.6859 23.5024 34.5016 22.6961 35.4953 22.6961ZM37.4641 32.2493H35.4953C34.9141 32.2493 34.4359 32.7274 34.4359 33.3086V35.268C34.4359 35.8493 34.9141 36.3274 35.4953 36.3274H37.4641C38.0453 36.3274 38.5234 35.8493 38.5234 35.268V33.3086C38.5234 32.7274 38.0453 32.2493 37.4641 32.2493ZM35.4953 31.4993H37.4641C38.4578 31.4993 39.2734 32.3149 39.2734 33.3086V35.268C39.2734 36.2618 38.4578 37.0774 37.4641 37.0774H35.4953C34.5016 37.0774 33.6859 36.2618 33.6859 35.268V33.3086C33.6859 32.3055 34.5016 31.4993 35.4953 31.4993ZM21.2172 40.8743V36.318C21.2172 35.343 20.4203 34.5462 19.4453 34.5462H14.8891L21.2172 40.8743ZM13.6047 30.8805H11.5141V42.4399C11.5141 43.6962 12.5359 44.718 13.7922 44.718H42.0391C43.2953 44.718 44.3172 43.6962 44.3172 42.4399V10.1993C44.3172 8.94302 43.2953 7.92115 42.0391 7.92115H33.5641V9.76802H39.6859C41.0734 9.76802 42.2172 10.9024 42.2172 12.2899V39.6274C42.2172 41.0149 41.0828 42.1493 39.6859 42.1493H21.5922C21.4891 42.1493 21.3953 42.1118 21.3203 42.0368L13.7172 34.4336C13.6422 34.3587 13.6047 34.2649 13.6047 34.1618V30.8805ZM14.3547 15.5899H17.1859C18.2359 15.5899 19.0891 16.443 19.0891 17.493V28.9774C19.0891 30.0274 18.2359 30.8805 17.1859 30.8805H14.3547V33.7962H19.4453C20.8328 33.7962 21.9766 34.9305 21.9766 36.318V41.4087H39.6953C40.6703 41.4087 41.4672 40.6118 41.4672 39.6368V12.2899C41.4672 11.3149 40.6703 10.518 39.6953 10.518H33.5641C33.5078 11.3524 32.8047 12.0086 31.9703 12.0086H23.8609C23.0172 12.0086 22.3234 11.3524 22.2672 10.518H16.1359C15.1609 10.518 14.3547 11.3149 14.3547 12.2899V15.5899ZM8.86094 16.3399V22.0305L10.8484 20.9149C10.9609 20.8493 11.1016 20.8493 11.2141 20.9149L13.1734 22.0305V16.3493H8.86094V16.3399ZM13.9328 16.3399V22.668C13.9328 22.9399 13.6328 23.1555 13.3516 22.9774L11.0359 21.6649L8.67344 22.9961C8.42031 23.1368 8.11094 22.9493 8.11094 22.668V16.3399H4.84844C4.21094 16.3399 3.69531 16.8555 3.69531 17.493V28.9774C3.69531 29.6149 4.22031 30.1305 4.84844 30.1305H17.1953C17.8234 30.1305 18.3484 29.6055 18.3484 28.9774V17.493C18.3484 16.8649 17.8328 16.3399 17.1953 16.3399H13.9328ZM11.5141 15.5899H13.6047V12.2899C13.6047 10.9024 14.7391 9.76802 16.1359 9.76802H22.2578V7.92115H13.7922C12.5359 7.92115 11.5141 8.94302 11.5141 10.1993V15.5899ZM6.40469 27.6462C5.90781 27.6462 5.90781 26.8961 6.40469 26.8961H9.63906C10.1359 26.8961 10.1359 27.6462 9.63906 27.6462H6.40469ZM6.40469 26.0805C5.90781 26.0805 5.90781 25.3305 6.40469 25.3305H8.02656C8.51406 25.3305 8.51406 26.0805 8.02656 26.0805H6.40469ZM31.0422 16.3024C31.5391 16.3024 31.5391 17.0524 31.0422 17.0524H27.8734C26.7766 17.0524 25.8766 17.9524 25.8766 19.0493V25.1055H31.0422C31.5391 25.1055 31.5391 25.8555 31.0422 25.8555H25.8766V32.1743C25.8766 33.2712 26.7766 34.1712 27.8734 34.1712H31.0422C31.5391 34.1712 31.5391 34.9212 31.0422 34.9212H27.8734C26.3641 34.9212 25.1266 33.6837 25.1266 32.1743V25.8555H20.6453C20.1484 25.8555 20.1484 25.1055 20.6453 25.1055H25.1266V19.0493C25.1266 17.5399 26.3641 16.3024 27.8734 16.3024H31.0422Z" fill="#E32934"/>
</svg>
