<svg width="48" height="48" viewBox="0 0 48 48" fill="none" xmlns="http://www.w3.org/2000/svg">
<path fill-rule="evenodd" clip-rule="evenodd" d="M22.4653 24.8141C20.7525 23.8968 18.7996 23.3752 16.7305 23.3752C10.3158 23.3752 5.014 28.3829 4.54141 34.682C4.504 35.1796 4.89269 35.5984 5.39172 35.5984H24.1781C22.856 32.5107 22.021 29.0882 22.208 25.8447C22.2293 25.4787 22.3177 25.1309 22.4653 24.8141ZM37.3101 23.301H35.2196C34.7571 23.3012 34.4741 22.7683 34.77 22.3855L38.9997 16.9118C39.2274 16.6172 39.671 16.6172 39.8988 16.9118L44.1285 22.3855C44.4243 22.7684 44.1412 23.3012 43.6787 23.3009H41.5883L41.5882 32.2003C41.5881 32.6103 41.2538 32.9447 40.8438 32.9447L38.0546 32.9448C37.6446 32.9448 37.3101 32.6101 37.3101 32.2003V23.301ZM28.6526 31.8864C29.6735 34.5786 31.3723 37.5209 33.1933 39.7511L35.4364 39.1468C36.1359 38.9584 36.8376 39.1808 37.3008 39.7378L39.9178 42.8851C40.5274 43.6183 40.4142 44.6945 39.6651 45.2847C38.9158 45.8751 38.1795 46.3772 37.0998 46.9844C36.7106 47.2032 36.276 47.2134 35.8771 47.0129C29.0741 43.5914 23.2672 33.5335 23.7057 25.9312C23.7315 25.4857 23.9578 25.1142 24.3419 24.8867C25.4075 24.2553 26.2105 23.8687 27.0964 23.5149C27.9821 23.1613 28.9707 23.6014 29.3009 24.4959L30.718 28.3359C30.9688 29.0155 30.8105 29.7345 30.2976 30.246L28.6526 31.8864ZM27.256 12.9548H27.2631C27.1731 10.2982 26.0868 7.88222 24.368 6.07106C24.3097 6.12244 24.238 6.15769 24.156 6.17437C24.0032 6.20541 23.8577 6.16294 23.7456 6.05456C21.924 4.293 19.4476 3.20503 16.7306 3.20503C14.0136 3.20503 11.5372 4.29309 9.71556 6.05466C9.60344 6.16303 9.45803 6.2055 9.30522 6.17447C9.22328 6.15778 9.15147 6.12244 9.09325 6.07116C7.37444 7.88231 6.28816 10.2982 6.19816 12.9548H6.20528C6.39081 12.9548 6.54259 13.1066 6.54259 13.2922V15.1641C7.663 15.7706 8.75313 16.2479 9.81297 16.596C9.91244 16.6286 10.0116 16.6601 10.1104 16.6905C10.1584 17.2658 10.2798 17.8202 10.465 18.3445C10.0961 18.2511 9.72447 18.1428 9.35003 18.0199C8.43297 17.7188 7.49716 17.3289 6.5425 16.8506V17.1651C6.5425 17.3506 6.39072 17.5024 6.20519 17.5024H4.59728C4.13341 17.5024 3.75391 17.1229 3.75391 16.659V13.7983C3.75391 13.3344 4.13341 12.9549 4.59728 12.9549H4.69731C4.79116 9.78516 6.12494 6.91294 8.22766 4.81031C8.29694 4.74103 8.36706 4.67269 8.43794 4.60509C8.368 4.3005 8.47084 3.98559 8.71853 3.777C10.8891 1.94869 13.6864 0.84375 16.7306 0.84375C19.7748 0.84375 22.5721 1.94869 24.7426 3.77681C24.9903 3.98541 25.0931 4.30031 25.0232 4.60491C25.0941 4.6725 25.1643 4.74094 25.2335 4.81022C27.3363 6.91284 28.67 9.78506 28.7638 12.9549H28.8639C29.3278 12.9549 29.7073 13.3344 29.7073 13.7983V16.659C29.7073 17.1229 29.3278 17.5024 28.8639 17.5024H27.256C27.0705 17.5024 26.9186 17.3506 26.9186 17.1651V13.2922C26.9186 13.1066 27.0704 12.9548 27.256 12.9548ZM16.7306 9.52462C13.082 9.52462 10.1243 12.4823 10.1243 16.1309C10.1243 16.3235 10.133 16.514 10.1492 16.7023C11.3883 17.0797 12.58 17.2772 13.7239 17.2948C14.1365 17.2997 14.467 17.6381 14.4622 18.0507C14.4573 18.4633 14.1189 18.7938 13.7063 18.789C12.6641 18.773 11.5982 18.6284 10.5086 18.3555C11.4217 20.9095 13.8626 22.7373 16.7305 22.7373C20.3791 22.7373 23.3368 19.7796 23.3368 16.131C23.3369 12.4824 20.3792 9.52462 16.7306 9.52462Z" fill="#E32934"/>
</svg>
