<svg width="48" height="48" viewBox="0 0 48 48" fill="none" xmlns="http://www.w3.org/2000/svg">
<path d="M12.9156 23.6111C12.9211 19.5904 14.5208 15.7359 17.364 12.8928C20.2071 10.0497 24.0617 8.45008 28.0824 8.44462C28.7535 8.44649 29.4238 8.49183 30.0891 8.58038V7.371C30.0882 6.21266 29.6279 5.10197 28.8092 4.28255C27.9904 3.46313 26.8801 3.00189 25.7218 3H25.1387L24.5203 5.0145C24.3476 5.5786 23.9981 6.07218 23.5233 6.42232C23.0485 6.77246 22.4736 6.96057 21.8837 6.95887H14.5116C13.9221 6.96053 13.3478 6.77232 12.8737 6.42212C12.3996 6.07193 12.0508 5.57836 11.8791 5.0145L11.2551 3H10.6757C9.51673 3.00099 8.40553 3.46183 7.58602 4.28133C6.76651 5.10084 6.30568 6.21204 6.30469 7.371V40.629C6.30568 41.788 6.76651 42.8992 7.58602 43.7187C8.40553 44.5382 9.51673 44.999 10.6757 45H25.7218C26.8801 44.9981 27.9904 44.5369 28.8092 43.7175C29.6279 42.898 30.0882 41.7873 30.0891 40.629V38.6415C29.4238 38.7304 28.7536 38.7758 28.0824 38.7776C24.0617 38.7722 20.2071 37.1725 17.364 34.3295C14.5208 31.4864 12.9211 27.6319 12.9156 23.6111ZM20.1763 43.3875H16.2174C16.0112 43.3875 15.8133 43.3056 15.6675 43.1597C15.5216 43.0138 15.4397 42.816 15.4397 42.6097C15.4397 42.4035 15.5216 42.2057 15.6675 42.0598C15.8133 41.9139 16.0112 41.832 16.2174 41.832H20.1763C20.3826 41.832 20.5804 41.9139 20.7263 42.0598C20.8721 42.2057 20.9541 42.4035 20.9541 42.6097C20.9541 42.816 20.8721 43.0138 20.7263 43.1597C20.5804 43.3056 20.3826 43.3875 20.1763 43.3875Z" fill="#E32934"/>
<path d="M14.5099 5.40338H21.8821C22.1393 5.40334 22.3897 5.32103 22.5968 5.16847C22.8038 5.01592 22.9567 4.80113 23.0329 4.5555L23.5099 3H12.8828L13.3613 4.5555C13.4364 4.80142 13.5886 5.01665 13.7954 5.16935C14.0023 5.32205 14.2528 5.4041 14.5099 5.40338Z" fill="#E32934"/>
<path d="M28.0813 10C25.389 10 22.7571 10.7984 20.5186 12.2941C18.28 13.7899 16.5352 15.9159 15.5049 18.4032C14.4746 20.8906 14.2051 23.6276 14.7303 26.2682C15.2556 28.9087 16.552 31.3342 18.4558 33.238C20.3595 35.1417 22.785 36.4382 25.4256 36.9634C28.0662 37.4887 30.8032 37.2191 33.2905 36.1888C35.7779 35.1585 37.9039 33.4138 39.3996 31.1752C40.8954 28.9366 41.6938 26.3048 41.6938 23.6125C41.6903 20.0033 40.255 16.5429 37.7029 13.9908C35.1508 11.4388 31.6904 10.0035 28.0813 10ZM37.3561 30.8909C37.2486 31.0258 37.112 31.1347 36.9565 31.2095C36.801 31.2842 36.6306 31.3229 36.458 31.3225H19.7045C19.5316 31.3226 19.3608 31.2837 19.2051 31.2086C19.0493 31.1335 18.9124 31.0242 18.8048 30.8889C18.6971 30.7536 18.6213 30.5957 18.5832 30.427C18.545 30.2584 18.5454 30.0832 18.5844 29.9148C18.5853 29.902 18.5879 29.8893 18.5923 29.8772L20.2854 23.9414C20.3474 23.6924 20.4911 23.4713 20.6934 23.3134C20.8958 23.1555 21.1451 23.0699 21.4018 23.0702H23.9229C23.0945 21.6978 22.4491 20.2859 22.4491 19.1973C22.4491 18.4578 22.5948 17.7255 22.8778 17.0424C23.1607 16.3592 23.5755 15.7384 24.0984 15.2155C24.6213 14.6926 25.2421 14.2779 25.9252 13.9949C26.6084 13.7119 27.3407 13.5662 28.0801 13.5662C28.8196 13.5662 29.5518 13.7119 30.235 13.9949C30.9182 14.2779 31.539 14.6926 32.0618 15.2155C32.5847 15.7384 32.9995 16.3592 33.2825 17.0424C33.5655 17.7255 33.7111 18.4578 33.7111 19.1973C33.7111 20.2847 33.0658 21.6978 32.2374 23.0702H34.7611C35.0177 23.0699 35.2671 23.1555 35.4694 23.3134C35.6716 23.4713 35.8152 23.6924 35.8771 23.9414L37.5691 29.8761C37.5733 29.8882 37.5758 29.9008 37.5766 29.9136C37.6172 30.0825 37.6184 30.2585 37.5802 30.4279C37.542 30.5974 37.4653 30.7558 37.3561 30.8909Z" fill="#E32934"/>
<path d="M31.2166 24.6262C30.4226 25.7464 29.5714 26.8249 28.6666 27.8576C28.5931 27.9396 28.5032 28.0052 28.4027 28.0501C28.3022 28.095 28.1933 28.1183 28.0833 28.1183C27.9732 28.1183 27.8643 28.095 27.7638 28.0501C27.6633 28.0052 27.5734 27.9396 27.4999 27.8576C26.5953 26.8247 25.7442 25.7462 24.9499 24.6262H21.7084L20.2422 29.7671H35.9239L34.4562 24.6262H31.2166Z" fill="#E32934"/>
<path d="M32.1588 19.1976C32.1588 18.1167 31.7294 17.0801 30.9651 16.3158C30.2008 15.5515 29.1642 15.1221 28.0833 15.1221C27.0024 15.1221 25.9658 15.5515 25.2015 16.3158C24.4372 17.0801 24.0078 18.1167 24.0078 19.1976C24.0078 20.7531 26.3099 24.0276 28.0833 26.1467C29.8567 24.0276 32.1588 20.7531 32.1588 19.1976ZM25.4388 19.0689C25.4387 18.5459 25.5936 18.0345 25.8841 17.5995C26.1746 17.1646 26.5876 16.8255 27.0708 16.6252C27.554 16.4249 28.0857 16.3725 28.5988 16.4744C29.1118 16.5764 29.5831 16.8282 29.953 17.198C30.3229 17.5678 30.5748 18.039 30.6769 18.552C30.779 19.065 30.7267 19.5968 30.5266 20.08C30.3264 20.5633 29.9875 20.9763 29.5526 21.267C29.1177 21.5576 28.6064 21.7127 28.0833 21.7127C27.3823 21.7121 26.7101 21.4334 26.2143 20.9377C25.7185 20.4421 25.4396 19.77 25.4388 19.0689Z" fill="#E32934"/>
<path d="M28.0812 20.158C28.6826 20.158 29.1702 19.6704 29.1702 19.069C29.1702 18.4675 28.6826 17.98 28.0812 17.98C27.4797 17.98 26.9922 18.4675 26.9922 19.069C26.9922 19.6704 27.4797 20.158 28.0812 20.158Z" fill="#E32934"/>
</svg>
