<svg width="48" height="48" viewBox="0 0 48 48" fill="none" xmlns="http://www.w3.org/2000/svg">
<path d="M24.7266 26.4004H19.4902V23.855C19.4902 21.6004 17.9629 19.7095 15.8538 19.1277C15.0538 18.9095 14.3266 18.0368 14.3266 17.1641V16.7277C15.7084 15.4914 16.5811 13.455 16.5811 11.7095C16.5811 8.87317 14.2538 6.5459 11.4175 6.5459C8.58111 6.5459 6.25384 8.87317 6.25384 11.7095C6.25384 13.455 7.12656 15.4914 8.50838 16.7277V17.2368C8.50838 18.0368 7.78111 18.9823 6.98111 19.2004C4.79929 19.7823 3.34474 21.6732 3.34474 23.9277V26.4732H1.45384C1.01747 26.4732 0.726562 26.8368 0.726562 27.2004V30.7641C0.726562 31.1277 1.01747 31.4914 1.45384 31.4914H2.76293V46.0368C2.76293 46.4732 3.05384 46.7641 3.4902 46.7641H22.6902C23.0538 46.7641 23.4175 46.4732 23.4175 46.0368V31.4914H24.7266C25.1629 31.4914 25.4538 31.1277 25.4538 30.7641V27.2004C25.4538 26.7641 25.1629 26.4004 24.7266 26.4004ZM7.70838 11.7095C7.70838 9.67317 9.38111 8.00044 11.4175 8.00044C13.4538 8.00044 15.1266 9.67317 15.1266 11.7095C15.1266 13.8186 13.3811 16.5095 11.4175 16.5095C9.45383 16.5095 7.70838 13.8186 7.70838 11.7095ZM23.9993 29.9641H2.18111V27.855H23.9993V29.9641Z" fill="#E32934"/>
<path d="M41.2357 19.928V29.1644C41.2357 31.4916 39.3447 33.4553 36.9447 33.4553H30.7629V42.9098C30.7629 44.1462 29.7447 45.1644 28.5084 45.1644C27.272 45.1644 26.2538 44.1462 26.2538 42.9098V30.8371C26.2538 29.3825 27.4175 28.2189 28.872 28.2189H31.9993V23.928L30.3266 25.6007C30.1811 25.7462 30.0357 25.8189 29.8175 25.8189H22.9084C22.3266 25.8189 21.672 25.528 21.3084 25.0916C20.872 24.6553 20.7266 24.0007 20.7266 23.4189C20.872 22.328 21.8175 21.4553 22.9811 21.4553H27.6357L31.4902 17.6007C32.072 17.0189 32.872 16.6553 33.7447 16.6553H37.9629C39.7811 16.6553 41.2357 18.1098 41.2357 19.928Z" fill="#E32934"/>
<path d="M47.2739 23.2732V45.2368C47.2739 45.6732 46.983 45.9641 46.5466 45.9641H43.783C43.4193 45.9641 43.0557 45.6732 43.0557 45.2368V39.055H36.6557V45.2368C36.6557 45.6732 36.3648 45.9641 35.9284 45.9641H33.1648C32.7284 45.9641 32.4375 45.6732 32.4375 45.2368V35.6368C32.4375 35.2004 32.7284 34.9095 33.1648 34.9095H42.692V23.2732C42.692 22.8368 42.983 22.5459 43.4193 22.5459H46.5466C46.983 22.5459 47.2739 22.8368 47.2739 23.2732Z" fill="#E32934"/>
<path d="M36.0722 15.3455C38.4722 15.3455 40.3631 13.4546 40.3631 11.0546C40.3631 8.65458 38.4722 6.76367 36.0722 6.76367C33.6722 6.76367 31.7812 8.65458 31.7812 11.0546C31.7812 13.3819 33.6722 15.3455 36.0722 15.3455ZM36.0722 8.21822C37.6722 8.21822 38.9085 9.45458 38.9085 11.0546C38.9085 12.6546 37.6722 13.8909 36.0722 13.8909C34.5449 13.8909 33.2358 12.6546 33.2358 11.0546C33.2358 9.45458 34.4722 8.21822 36.0722 8.21822Z" fill="#E32934"/>
<path d="M30.9793 3.27321V8.94593C30.9793 10.0368 30.1065 10.9096 29.0156 10.9096H23.6338L20.652 13.8914C20.5065 14.0368 20.3611 14.1096 20.1429 14.1096C20.0702 14.1096 19.9247 14.1096 19.852 14.0368C19.5611 13.8914 19.4156 13.6732 19.4156 13.3823V10.9096H18.9793C17.8884 10.9096 17.0156 10.0368 17.0156 8.94593V3.27321C17.0156 2.1823 17.8884 1.30957 18.9793 1.30957H29.0884C30.1065 1.30957 30.9793 2.1823 30.9793 3.27321Z" fill="#E32934"/>
<path d="M24.7266 26.4004H19.4902V23.855C19.4902 21.6004 17.9629 19.7095 15.8538 19.1277C15.0538 18.9095 14.3266 18.0368 14.3266 17.1641V16.7277C15.7084 15.4914 16.5811 13.455 16.5811 11.7095C16.5811 8.87317 14.2538 6.5459 11.4175 6.5459C8.58111 6.5459 6.25384 8.87317 6.25384 11.7095C6.25384 13.455 7.12656 15.4914 8.50838 16.7277V17.2368C8.50838 18.0368 7.78111 18.9823 6.98111 19.2004C4.79929 19.7823 3.34474 21.6732 3.34474 23.9277V26.4732H1.45384C1.01747 26.4732 0.726562 26.8368 0.726562 27.2004V30.7641C0.726562 31.1277 1.01747 31.4914 1.45384 31.4914H2.76293V46.0368C2.76293 46.4732 3.05384 46.7641 3.4902 46.7641H22.6902C23.0538 46.7641 23.4175 46.4732 23.4175 46.0368V31.4914H24.7266C25.1629 31.4914 25.4538 31.1277 25.4538 30.7641V27.2004C25.4538 26.7641 25.1629 26.4004 24.7266 26.4004ZM7.70838 11.7095C7.70838 9.67317 9.38111 8.00044 11.4175 8.00044C13.4538 8.00044 15.1266 9.67317 15.1266 11.7095C15.1266 13.8186 13.3811 16.5095 11.4175 16.5095C9.45383 16.5095 7.70838 13.8186 7.70838 11.7095ZM23.9993 29.9641H2.18111V27.855H23.9993V29.9641Z" fill="#E32934"/>
<path d="M41.2357 19.928V29.1644C41.2357 31.4916 39.3447 33.4553 36.9447 33.4553H30.7629V42.9098C30.7629 44.1462 29.7447 45.1644 28.5084 45.1644C27.272 45.1644 26.2538 44.1462 26.2538 42.9098V30.8371C26.2538 29.3825 27.4175 28.2189 28.872 28.2189H31.9993V23.928L30.3266 25.6007C30.1811 25.7462 30.0357 25.8189 29.8175 25.8189H22.9084C22.3266 25.8189 21.672 25.528 21.3084 25.0916C20.872 24.6553 20.7266 24.0007 20.7266 23.4189C20.872 22.328 21.8175 21.4553 22.9811 21.4553H27.6357L31.4902 17.6007C32.072 17.0189 32.872 16.6553 33.7447 16.6553H37.9629C39.7811 16.6553 41.2357 18.1098 41.2357 19.928Z" fill="#E32934"/>
<path d="M47.2739 23.2732V45.2368C47.2739 45.6732 46.983 45.9641 46.5466 45.9641H43.783C43.4193 45.9641 43.0557 45.6732 43.0557 45.2368V39.055H36.6557V45.2368C36.6557 45.6732 36.3648 45.9641 35.9284 45.9641H33.1648C32.7284 45.9641 32.4375 45.6732 32.4375 45.2368V35.6368C32.4375 35.2004 32.7284 34.9095 33.1648 34.9095H42.692V23.2732C42.692 22.8368 42.983 22.5459 43.4193 22.5459H46.5466C46.983 22.5459 47.2739 22.8368 47.2739 23.2732Z" fill="#E32934"/>
<path d="M36.0722 15.3455C38.4722 15.3455 40.3631 13.4546 40.3631 11.0546C40.3631 8.65458 38.4722 6.76367 36.0722 6.76367C33.6722 6.76367 31.7812 8.65458 31.7812 11.0546C31.7812 13.3819 33.6722 15.3455 36.0722 15.3455ZM36.0722 8.21822C37.6722 8.21822 38.9085 9.45458 38.9085 11.0546C38.9085 12.6546 37.6722 13.8909 36.0722 13.8909C34.5449 13.8909 33.2358 12.6546 33.2358 11.0546C33.2358 9.45458 34.4722 8.21822 36.0722 8.21822Z" fill="#E32934"/>
<path d="M30.9793 3.27321V8.94593C30.9793 10.0368 30.1065 10.9096 29.0156 10.9096H23.6338L20.652 13.8914C20.5065 14.0368 20.3611 14.1096 20.1429 14.1096C20.0702 14.1096 19.9247 14.1096 19.852 14.0368C19.5611 13.8914 19.4156 13.6732 19.4156 13.3823V10.9096H18.9793C17.8884 10.9096 17.0156 10.0368 17.0156 8.94593V3.27321C17.0156 2.1823 17.8884 1.30957 18.9793 1.30957H29.0884C30.1065 1.30957 30.9793 2.1823 30.9793 3.27321Z" fill="#E32934"/>
</svg>
