<svg width="36" height="44" viewBox="0 0 36 44" fill="none" xmlns="http://www.w3.org/2000/svg">
<path d="M19.2459 37.0041C19.8529 37.5081 20.5462 37.8979 21.2922 38.1548V43.6771C21.2916 43.746 21.264 43.8119 21.2153 43.8606C21.1665 43.9093 21.1006 43.9369 21.0317 43.9375H19.5063C19.4496 43.9369 19.3946 43.918 19.3495 43.8835C19.3045 43.849 19.2719 43.8008 19.2565 43.7462C19.2299 43.6531 19.2459 37.828 19.2459 37.0041ZM12.371 9.09262H23.6201C23.7618 9.09261 23.8976 9.03633 23.9978 8.93616C24.098 8.83598 24.1543 8.70012 24.1543 8.55846V7.46358C24.1543 7.32191 24.098 7.18605 23.9978 7.08588C23.8976 6.9857 23.7618 6.92942 23.6201 6.92941H12.371C12.2295 6.92987 12.0939 6.9863 11.9938 7.08637C11.8937 7.18645 11.8373 7.32205 11.8368 7.46358V8.55846C11.8373 8.69998 11.8937 8.83558 11.9938 8.93566C12.0939 9.03574 12.2295 9.09216 12.371 9.09262ZM21.7864 31.9788C21.7864 33.5361 23.6786 34.3201 24.7814 33.2199C25.1095 32.8902 25.2936 32.444 25.2936 31.9788C25.2936 31.5137 25.1095 31.0675 24.7814 30.7378C23.6786 29.6376 21.7864 30.4215 21.7864 31.9788ZM27.3592 28.1574C28.1147 28.9129 28.6293 29.8756 28.8377 30.9235C29.0462 31.9715 28.9392 33.0578 28.5303 34.0449C28.1214 35.0321 27.4289 35.8759 26.5405 36.4695C25.6521 37.0631 24.6076 37.38 23.539 37.38C22.4705 37.38 21.426 37.0631 20.5376 36.4695C19.6492 35.8759 18.9567 35.0321 18.5478 34.0449C18.1389 33.0578 18.0319 31.9715 18.2404 30.9235C18.4488 29.8756 18.9634 28.9129 19.7189 28.1574C20.2205 27.6557 20.8161 27.2577 21.4716 26.9861C22.127 26.7146 22.8296 26.5748 23.539 26.5748C24.2485 26.5748 24.9511 26.7146 25.6065 26.9861C26.262 27.2577 26.8575 27.6557 27.3592 28.1574ZM26.4184 31.9788C26.4184 31.4096 26.2496 30.8532 25.9334 30.3799C25.6171 29.9066 25.1676 29.5377 24.6418 29.3199C24.1159 29.102 23.5372 29.045 22.9789 29.1561C22.4206 29.2671 21.9078 29.5412 21.5053 29.9437C21.1028 30.3463 20.8287 30.8591 20.7176 31.4174C20.6066 31.9756 20.6636 32.5543 20.8814 33.0802C21.0992 33.6061 21.4681 34.0556 21.9414 34.3719C22.4147 34.6881 22.9711 34.8569 23.5404 34.8569C24.3036 34.8568 25.0356 34.5535 25.5753 34.0138C26.115 33.4741 26.4183 32.7421 26.4184 31.9788ZM17.0136 31.9788C17.0106 33.2759 17.3966 34.5441 18.1218 35.6196V39.2152H7.65927C6.86363 37.7377 5.67309 36.5103 4.2205 35.6701V7.52203C5.60734 6.72041 6.75643 5.56489 7.55032 4.17361H28.2042C29.0444 5.64543 30.281 6.85168 31.7732 7.65492V35.7099C30.6598 36.3646 29.7 37.251 28.959 38.309V35.6196C29.5278 34.773 29.8903 33.8049 30.0174 32.7929C30.1445 31.7809 30.0327 30.7532 29.6909 29.7923C29.3492 28.8313 28.787 27.9638 28.0495 27.2593C27.3119 26.5548 26.4196 26.033 25.4439 25.7356C24.4683 25.4383 23.4366 25.3737 22.4315 25.547C21.4264 25.7204 20.4759 26.1269 19.6563 26.7339C18.8367 27.3409 18.1707 28.1315 17.7117 29.0423C17.2528 29.9532 17.0137 30.9589 17.0136 31.9788ZM10.7127 8.55846C10.7132 8.99836 10.888 9.42015 11.1988 9.73146C11.5096 10.0428 11.9311 10.2182 12.371 10.2194H23.6201C24.0603 10.2183 24.4821 10.043 24.7934 9.73173C25.1046 9.42048 25.28 8.99863 25.281 8.55846V7.46358C25.2798 7.02368 25.1044 6.60217 24.7931 6.29136C24.4818 5.98055 24.06 5.80577 23.6201 5.80531H12.371C11.9314 5.80587 11.5099 5.98077 11.199 6.29163C10.8882 6.60249 10.7133 7.02395 10.7127 7.46358L10.7127 8.55846ZM6.09404 13.3047C6.09411 13.4541 6.15348 13.5974 6.25912 13.703C6.36476 13.8086 6.50801 13.868 6.6574 13.8681H29.3736C29.523 13.8681 29.6663 13.8087 29.7719 13.7031C29.8776 13.5974 29.9369 13.4541 29.9369 13.3047C29.9369 13.1553 29.8776 13.012 29.7719 12.9064C29.6663 12.8007 29.523 12.7413 29.3736 12.7413H6.6574C6.50801 12.7414 6.36476 12.8008 6.25913 12.9064C6.15349 13.0121 6.09411 13.1553 6.09404 13.3047ZM6.09404 16.9534C6.09411 17.1028 6.15348 17.2461 6.25912 17.3517C6.36476 17.4574 6.50801 17.5167 6.6574 17.5168H29.3736C29.523 17.5168 29.6663 17.4575 29.7719 17.3518C29.8776 17.2462 29.9369 17.1029 29.9369 16.9534C29.9369 16.804 29.8776 16.6607 29.7719 16.5551C29.6663 16.4494 29.523 16.3901 29.3736 16.3901H6.6574C6.50801 16.3901 6.36476 16.4495 6.25913 16.5552C6.15349 16.6608 6.09411 16.804 6.09404 16.9534ZM6.09404 20.6021C6.09411 20.7515 6.15348 20.8948 6.25912 21.0004C6.36476 21.1061 6.50801 21.1655 6.6574 21.1655H29.3736C29.523 21.1655 29.6663 21.1062 29.7719 21.0005C29.8776 20.8949 29.9369 20.7516 29.9369 20.6022C29.9369 20.4527 29.8776 20.3094 29.7719 20.2038C29.6663 20.0981 29.523 20.0388 29.3736 20.0388H6.6574C6.50801 20.0389 6.36476 20.0982 6.25913 20.2039C6.15349 20.3095 6.09411 20.4528 6.09404 20.6021ZM11.1804 27.2299C11.3296 27.2295 11.4725 27.17 11.5779 27.0644C11.6832 26.9588 11.7424 26.8157 11.7424 26.6665C11.7424 26.5174 11.6832 26.3743 11.5779 26.2687C11.4725 26.1631 11.3296 26.1035 11.1804 26.1031H6.6574C6.50824 26.1035 6.36531 26.1631 6.25997 26.2687C6.15462 26.3743 6.09547 26.5174 6.09547 26.6665C6.09547 26.8157 6.15462 26.9588 6.25997 27.0644C6.36531 27.17 6.50824 27.2295 6.6574 27.2299H11.1804ZM12.3604 32.4067C12.0016 32.2499 11.1672 32.0054 10.7313 31.8274C10.6248 31.7874 10.5341 31.714 10.4728 31.6182C10.4115 31.5224 10.3828 31.4093 10.3912 31.2959C10.4231 30.5464 11.5658 30.5332 12.1106 31.1125C12.1611 31.1662 12.2218 31.2093 12.2891 31.2395C12.3563 31.2698 12.4289 31.2864 12.5026 31.2885C12.5763 31.2907 12.6498 31.2783 12.7187 31.252C12.7876 31.2258 12.8507 31.1862 12.9043 31.1356C12.9579 31.0849 13.001 31.0242 13.0311 30.9569C13.0612 30.8896 13.0778 30.817 13.0799 30.7433C13.0819 30.6696 13.0694 30.5962 13.0431 30.5273C13.0167 30.4584 12.9771 30.3954 12.9264 30.3418C12.6415 30.0355 12.2801 29.8108 11.8793 29.6908V28.843C11.879 28.6942 11.8196 28.5516 11.7142 28.4465C11.6089 28.3414 11.4661 28.2824 11.3173 28.2824C11.1685 28.2824 11.0258 28.3414 10.9204 28.4465C10.815 28.5516 10.7556 28.6942 10.7553 28.843V29.6163C8.99067 29.9007 8.74884 32.2047 10.2875 32.8585C10.6994 33.0339 11.4621 33.2518 11.9192 33.4378C12.3816 33.6265 12.3497 34.3334 11.8475 34.5035C11.616 34.5706 11.3706 34.5732 11.1378 34.5109C10.905 34.4486 10.6937 34.3238 10.5267 34.15C10.4763 34.0962 10.4157 34.053 10.3486 34.0226C10.2814 33.9922 10.209 33.9754 10.1353 33.9731C10.0616 33.9707 9.98823 33.9829 9.91928 34.0089C9.85032 34.035 9.78717 34.0743 9.73343 34.1247C9.67968 34.1752 9.63639 34.2357 9.60604 34.3028C9.57568 34.37 9.55885 34.4425 9.5565 34.5161C9.55416 34.5898 9.56635 34.6632 9.59237 34.7322C9.61839 34.8011 9.65774 34.8643 9.70817 34.918C9.99306 35.2243 10.3545 35.4491 10.7553 35.5691V36.4168C10.7551 36.4908 10.7695 36.564 10.7976 36.6324C10.8258 36.7007 10.8671 36.7629 10.9194 36.8152C10.9716 36.8675 11.0336 36.9091 11.1019 36.9374C11.1702 36.9657 11.2434 36.9803 11.3173 36.9803C11.3912 36.9803 11.4644 36.9657 11.5327 36.9374C11.601 36.9091 11.663 36.8675 11.7152 36.8152C11.7674 36.7629 11.8088 36.7007 11.837 36.6324C11.8651 36.564 11.8795 36.4908 11.8793 36.4168V35.6435C13.62 35.3645 13.9017 33.0897 12.3604 32.4067ZM22.4163 43.3263H24.6645V40.3393H22.4163V43.3263ZM35.8844 0.596642V42.7921C35.8835 42.9335 35.8269 43.0689 35.7269 43.1688C35.6269 43.2688 35.4916 43.3254 35.3502 43.3263H28.959V40.2967C29.093 40.2402 29.2004 40.1347 29.2593 40.0018C29.9832 38.5246 31.1513 37.311 32.5997 36.5311C32.6891 36.4831 32.7637 36.4118 32.8157 36.3248C32.8676 36.2377 32.8949 36.1382 32.8947 36.0368H32.8974V7.3121C32.8975 7.20263 32.8656 7.09552 32.8056 7.00392C32.7457 6.91233 32.6602 6.84025 32.5599 6.79655C31.812 6.42881 31.1268 5.94541 30.5295 5.36416C29.9288 4.77649 29.4247 4.09754 29.036 3.35244C28.9888 3.2608 28.9171 3.184 28.829 3.13053C28.7408 3.07707 28.6396 3.04902 28.5364 3.0495H7.21812C7.1113 3.04903 7.00656 3.07903 6.91619 3.13598C6.82582 3.19294 6.75356 3.27448 6.7079 3.37105C6.34127 4.07272 5.87093 4.71508 5.31272 5.27647C4.74917 5.84333 4.10319 6.32176 3.39666 6.69556C3.30613 6.74254 3.23024 6.81348 3.17728 6.90065C3.12433 6.98782 3.09634 7.08786 3.09637 7.18986H3.09372V35.9996C3.09364 36.1087 3.12524 36.2155 3.18468 36.307C3.24412 36.3986 3.32885 36.4709 3.42857 36.5152C4.8983 37.298 6.08252 38.5259 6.81154 40.023C6.85726 40.118 6.92894 40.1982 7.0183 40.2541C7.10765 40.3101 7.21102 40.3396 7.31645 40.3393H18.1218V43.3263H0.643536C0.50201 43.3258 0.366411 43.2694 0.266336 43.1693C0.16626 43.0693 0.109835 42.9337 0.109375 42.7921V0.596642C0.109389 0.45498 0.165672 0.319124 0.265844 0.218956C0.366016 0.118787 0.501874 0.0625094 0.643536 0.0625H35.3502C35.4917 0.0629585 35.6273 0.119381 35.7274 0.219452C35.8275 0.319523 35.8839 0.455117 35.8844 0.596642ZM2.84125 39.2152C2.69244 39.2155 2.54985 39.2749 2.44476 39.3803C2.33967 39.4857 2.28065 39.6284 2.28065 39.7772C2.28065 39.926 2.33967 40.0688 2.44476 40.1741C2.54985 40.2795 2.69244 40.3389 2.84125 40.3393H3.27975C3.42856 40.3389 3.57115 40.2795 3.67624 40.1741C3.78133 40.0688 3.84035 39.926 3.84035 39.7772C3.84035 39.6284 3.78133 39.4857 3.67624 39.3803C3.57115 39.2749 3.42856 39.2155 3.27975 39.2152H2.84125ZM3.84046 3.41093C3.84054 3.26194 3.78157 3.119 3.67648 3.01341C3.57138 2.90781 3.42872 2.84817 3.27974 2.84753H2.84126C2.69244 2.84792 2.54986 2.9073 2.44476 3.01267C2.33967 3.11803 2.28065 3.26077 2.28065 3.40959C2.28065 3.5584 2.33967 3.70114 2.44476 3.80651C2.54986 3.91187 2.69244 3.97126 2.84126 3.97164H3.27975C3.42845 3.97161 3.57105 3.91253 3.6762 3.80738C3.78135 3.70223 3.84043 3.55963 3.84046 3.41093ZM32.8974 39.7759C32.8973 39.702 32.8826 39.6289 32.8543 39.5608C32.8259 39.4926 32.7843 39.4307 32.732 39.3786C32.6797 39.3266 32.6176 39.2853 32.5493 39.2573C32.481 39.2292 32.4078 39.2149 32.334 39.2152H31.8982C31.8242 39.215 31.751 39.2294 31.6826 39.2575C31.6143 39.2857 31.5521 39.3271 31.4998 39.3793C31.4475 39.4315 31.4059 39.4935 31.3776 39.5618C31.3493 39.6301 31.3347 39.7033 31.3347 39.7772C31.3347 39.8511 31.3493 39.9244 31.3776 39.9926C31.4059 40.0609 31.4475 40.1229 31.4998 40.1752C31.5521 40.2274 31.6143 40.2687 31.6826 40.2969C31.751 40.3251 31.8242 40.3395 31.8982 40.3393H32.334C32.4834 40.3392 32.6266 40.2798 32.7323 40.1742C32.8379 40.0685 32.8973 39.9253 32.8974 39.7759ZM32.8974 3.41093C32.8973 3.26152 32.8379 3.11826 32.7323 3.01262C32.6266 2.90698 32.4834 2.8476 32.334 2.84753H31.8982C31.8242 2.84734 31.751 2.86174 31.6826 2.8899C31.6143 2.91806 31.5521 2.95943 31.4998 3.01164C31.4475 3.06385 31.4059 3.12587 31.3776 3.19416C31.3493 3.26245 31.3347 3.33565 31.3347 3.40958C31.3347 3.48352 31.3493 3.55672 31.3776 3.62501C31.4059 3.6933 31.4475 3.75532 31.4998 3.80753C31.5521 3.85974 31.6143 3.90111 31.6826 3.92927C31.751 3.95743 31.8242 3.97183 31.8982 3.97164H32.334C32.4078 3.9719 32.481 3.9576 32.5493 3.92955C32.6176 3.90149 32.6797 3.86025 32.732 3.80816C32.7843 3.75608 32.8259 3.69418 32.8542 3.62602C32.8826 3.55785 32.8973 3.48476 32.8974 3.41093ZM25.7992 43.7462C25.8146 43.8008 25.8472 43.849 25.8923 43.8835C25.9373 43.918 25.9923 43.9369 26.049 43.9375H27.5744C27.6433 43.9369 27.7092 43.9093 27.758 43.8606C27.8067 43.8119 27.8343 43.746 27.8349 43.6771V37.0041C27.2275 37.5076 26.5343 37.8973 25.7886 38.1548C25.7886 39.0026 25.7727 43.6505 25.7992 43.7462Z" fill="#E32934"/>
</svg>
