<svg width="42" height="36" viewBox="0 0 42 36" fill="none" xmlns="http://www.w3.org/2000/svg">
<path d="M38.25 8.125H27.21V8.515C26.8831 16.7473 15.1118 16.7362 14.79 8.51489V8.125H3.75C2.75555 8.12536 1.80193 8.52056 1.09875 9.22375C0.395563 9.92693 0.000359796 10.8805 0 11.875V32.125C0.000359796 33.1195 0.395563 34.0731 1.09875 34.7763C1.80193 35.4794 2.75555 35.8746 3.75 35.875H38.25C39.2445 35.8746 40.1981 35.4794 40.9013 34.7763C41.6044 34.0731 41.9996 33.1195 42 32.125V11.875C41.9996 10.8805 41.6044 9.92693 40.9013 9.22375C40.1981 8.52056 39.2445 8.12536 38.25 8.125ZM17.1825 15.895H37.5825C37.7795 15.8979 37.9674 15.9782 38.1057 16.1186C38.2439 16.2589 38.3214 16.448 38.3214 16.645C38.3214 16.842 38.2439 17.0311 38.1056 17.1715C37.9674 17.3118 37.7794 17.3921 37.5825 17.395H17.1825C16.9855 17.3921 16.7976 17.3118 16.6593 17.1714C16.521 17.0311 16.4435 16.842 16.4435 16.645C16.4435 16.448 16.521 16.2589 16.6593 16.1186C16.7976 15.9782 16.9855 15.8979 17.1825 15.895ZM17.1825 20.9275H37.5825C37.7795 20.9304 37.9674 21.0107 38.1057 21.1511C38.2439 21.2914 38.3214 21.4805 38.3214 21.6775C38.3214 21.8745 38.2439 22.0636 38.1056 22.204C37.9674 22.3443 37.7794 22.4246 37.5825 22.4275H17.1825C16.9855 22.4246 16.7976 22.3443 16.6593 22.2039C16.521 22.0636 16.4435 21.8745 16.4435 21.6775C16.4435 21.4805 16.521 21.2914 16.6593 21.1511C16.7976 21.0107 16.9855 20.9304 17.1825 20.9275ZM17.1825 25.9525H37.5825C37.7795 25.9554 37.9674 26.0357 38.1057 26.176C38.2439 26.3164 38.3214 26.5055 38.3214 26.7025C38.3214 26.8995 38.2439 27.0886 38.1056 27.2289C37.9674 27.3693 37.7794 27.4495 37.5825 27.4525H17.1825C16.9857 27.4492 16.7981 27.3688 16.6601 27.2285C16.5221 27.0882 16.4447 26.8993 16.4447 26.7025C16.4447 26.5057 16.5221 26.3168 16.6601 26.1765C16.7981 26.0362 16.9857 25.9557 17.1825 25.9525ZM37.5825 30.985C37.7794 30.988 37.9672 31.0684 38.1054 31.2087C38.2435 31.349 38.321 31.5381 38.3209 31.735C38.3209 31.9319 38.2435 32.1209 38.1053 32.2612C37.9672 32.4016 37.7794 32.4819 37.5825 32.485H6.3975C6.2006 32.4819 6.0128 32.4015 5.87464 32.2612C5.73648 32.1209 5.65905 31.9319 5.65905 31.7349C5.65906 31.538 5.7365 31.349 5.87467 31.2087C6.01284 31.0684 6.20064 30.988 6.39754 30.985H37.5825ZM3.57 13.6825C3.57175 13.0863 3.80936 12.515 4.23094 12.0934C4.65252 11.6719 5.2238 11.4342 5.82 11.4325H11.7375C12.3337 11.4343 12.905 11.6719 13.3266 12.0934C13.7481 12.515 13.9857 13.0863 13.9875 13.6825V19.6C13.9858 20.1962 13.7481 20.7675 13.3266 21.1891C12.905 21.6106 12.3337 21.8483 11.7375 21.85H5.82C5.2238 21.8483 4.65251 21.6106 4.23093 21.1891C3.80935 20.7675 3.57174 20.1962 3.57 19.6V13.6825Z" fill="#E32934"/>
<path d="M20.9991 13.2254C22.248 13.2245 23.4455 12.728 24.3286 11.8449C25.2117 10.9618 25.7082 9.76426 25.7091 8.51535V2.86035C25.7086 2.26376 25.4714 1.69174 25.0495 1.26988C24.6277 0.848029 24.0557 0.610824 23.4591 0.610352H18.5391C17.9425 0.610824 17.3705 0.848029 16.9486 1.26988C16.5267 1.69174 16.2895 2.26376 16.2891 2.86035V8.51535C16.2899 9.76426 16.7864 10.9618 17.6695 11.8449C18.5526 12.728 19.7502 13.2245 20.9991 13.2254ZM20.9991 2.74785C21.6579 2.75471 22.2875 3.02125 22.751 3.48959C23.2145 3.95793 23.4744 4.59023 23.4744 5.24914C23.4744 5.90805 23.2144 6.54034 22.7509 7.00866C22.2874 7.47699 21.6579 7.74352 20.999 7.75035C20.3401 7.7435 19.7106 7.47695 19.2471 7.00861C18.7836 6.54027 18.5236 5.90797 18.5236 5.24906C18.5236 4.59016 18.7836 3.95787 19.2471 3.48954C19.7106 3.02122 20.3402 2.75469 20.9991 2.74785Z" fill="#E32934"/>
<path d="M11.7378 12.9326H5.82031C5.4061 12.9326 5.07031 13.2684 5.07031 13.6826V19.6001C5.07031 20.0143 5.4061 20.3501 5.82031 20.3501H11.7378C12.152 20.3501 12.4878 20.0143 12.4878 19.6001V13.6826C12.4878 13.2684 12.152 12.9326 11.7378 12.9326Z" fill="#E32934"/>
<path d="M21.0047 6.25055C21.2681 6.24732 21.5197 6.1404 21.7048 5.95298C21.89 5.76555 21.9938 5.51272 21.9938 5.24927C21.9938 4.98583 21.8899 4.733 21.7048 4.54558C21.5196 4.35817 21.2681 4.25127 21.0047 4.24805C20.7412 4.25128 20.4897 4.35819 20.3046 4.54562C20.1194 4.73304 20.0156 4.98587 20.0156 5.24932C20.0156 5.51276 20.1195 5.76559 20.3046 5.95301C20.4897 6.14043 20.7413 6.24733 21.0047 6.25055Z" fill="#E32934"/>
</svg>
