<svg width="48" height="48" viewBox="0 0 48 48" fill="none" xmlns="http://www.w3.org/2000/svg">
<path d="M14 26.5C13.0721 26.5012 12.1825 26.8703 11.5264 27.5264C10.8703 28.1825 10.5012 29.0721 10.5 30V31.149C10.9673 31.3772 11.48 31.4972 12 31.5H16C16.52 31.4972 17.0327 31.3772 17.5 31.149V30C17.4988 29.0721 17.1297 28.1825 16.4736 27.5264C15.8175 26.8703 14.9279 26.5012 14 26.5Z" fill="#E32934"/>
<path d="M36 12H12C10.6868 12 9.38642 12.2587 8.17317 12.7612C6.95991 13.2638 5.85752 14.0003 4.92893 14.9289C3.05357 16.8043 2 19.3478 2 22V34C2 36.6522 3.05357 39.1957 4.92893 41.0711C5.85752 41.9997 6.95991 42.7362 8.17317 43.2388C9.38642 43.7413 10.6868 44 12 44H36C37.3132 44 38.6136 43.7413 39.8268 43.2388C41.0401 42.7362 42.1425 41.9997 43.0711 41.0711C43.9997 40.1425 44.7362 39.0401 45.2388 37.8268C45.7413 36.6136 46 35.3132 46 34V22C46 20.6868 45.7413 19.3864 45.2388 18.1732C44.7362 16.9599 43.9997 15.8575 43.0711 14.9289C42.1425 14.0003 41.0401 13.2638 39.8268 12.7612C38.6136 12.2587 37.3132 12 36 12ZM44.5 34C44.4977 36.2536 43.6014 38.4143 42.0078 40.0078C40.4143 41.6014 38.2536 42.4977 36 42.5H12C9.74637 42.4977 7.58572 41.6014 5.99217 40.0078C4.39861 38.4143 3.50233 36.2536 3.5 34V22C3.50238 19.7464 4.39868 17.5858 5.99222 15.9922C7.58577 14.3987 9.74639 13.5024 12 13.5H36C38.2536 13.5023 40.4143 14.3986 42.0078 15.9922C43.6014 17.5857 44.4977 19.7464 44.5 22V34Z" fill="#E32934"/>
<path d="M17 36.5H11C10.8674 36.5 10.7402 36.5527 10.6464 36.6464C10.5527 36.7402 10.5 36.8674 10.5 37C10.5 37.1326 10.5527 37.2598 10.6464 37.3536C10.7402 37.4473 10.8674 37.5 11 37.5H17C17.1326 37.5 17.2598 37.4473 17.3536 37.3536C17.4473 37.2598 17.5 37.1326 17.5 37C17.5 36.8674 17.4473 36.7402 17.3536 36.6464C17.2598 36.5527 17.1326 36.5 17 36.5Z" fill="#E32934"/>
<path d="M16 18.5H12C11.0721 18.5012 10.1825 18.8703 9.52641 19.5264C8.87029 20.1825 8.50116 21.0721 8.5 22V28C8.50044 28.9135 8.85954 29.7903 9.5 30.4416V30C9.5 28.8065 9.97411 27.6619 10.818 26.818C11.6619 25.9741 12.8065 25.5 14 25.5C15.1935 25.5 16.3381 25.9741 17.182 26.818C18.0259 27.6619 18.5 28.8065 18.5 30V30.4416C19.1405 29.7903 19.4996 28.9135 19.5 28V22C19.4988 21.0721 19.1297 20.1825 18.4736 19.5264C17.8175 18.8703 16.9279 18.5012 16 18.5ZM14 24.5C13.5055 24.5 13.0222 24.3534 12.6111 24.0787C12.2 23.804 11.8795 23.4135 11.6903 22.9567C11.5011 22.4999 11.4516 21.9972 11.548 21.5123C11.6445 21.0273 11.8826 20.5819 12.2322 20.2322C12.5819 19.8826 13.0273 19.6445 13.5123 19.548C13.9972 19.4516 14.4999 19.5011 14.9567 19.6903C15.4135 19.8795 15.804 20.2 16.0787 20.6111C16.3534 21.0222 16.5 21.5055 16.5 22C16.4994 22.6629 16.2358 23.2984 15.7671 23.7671C15.2984 24.2358 14.6629 24.4994 14 24.5Z" fill="#E32934"/>
<path d="M14 23.5C14.8284 23.5 15.5 22.8284 15.5 22C15.5 21.1716 14.8284 20.5 14 20.5C13.1716 20.5 12.5 21.1716 12.5 22C12.5 22.8284 13.1716 23.5 14 23.5Z" fill="#E32934"/>
<path d="M36 14.5H12C10.0116 14.5025 8.10543 15.2935 6.69945 16.6994C5.29346 18.1054 4.50249 20.0116 4.5 22V34C4.50249 35.9884 5.29346 37.8946 6.69945 39.3006C8.10543 40.7065 10.0116 41.4975 12 41.5H36C37.9884 41.4975 39.8946 40.7065 41.3006 39.3006C42.7065 37.8946 43.4975 35.9884 43.5 34V22C43.4975 20.0116 42.7065 18.1054 41.3006 16.6994C39.8946 15.2935 37.9884 14.5025 36 14.5ZM24 19.5H28C28.1326 19.5 28.2598 19.5527 28.3536 19.6464C28.4473 19.7402 28.5 19.8674 28.5 20C28.5 20.1326 28.4473 20.2598 28.3536 20.3536C28.2598 20.4473 28.1326 20.5 28 20.5H24C23.8674 20.5 23.7402 20.4473 23.6464 20.3536C23.5527 20.2598 23.5 20.1326 23.5 20C23.5 19.8674 23.5527 19.7402 23.6464 19.6464C23.7402 19.5527 23.8674 19.5 24 19.5ZM24 21.5H36C36.1326 21.5 36.2598 21.5527 36.3536 21.6464C36.4473 21.7402 36.5 21.8674 36.5 22C36.5 22.1326 36.4473 22.2598 36.3536 22.3536C36.2598 22.4473 36.1326 22.5 36 22.5H24C23.8674 22.5 23.7402 22.4473 23.6464 22.3536C23.5527 22.2598 23.5 22.1326 23.5 22C23.5 21.8674 23.5527 21.7402 23.6464 21.6464C23.7402 21.5527 23.8674 21.5 24 21.5ZM17 38.5H11C10.6022 38.5 10.2206 38.342 9.93934 38.0607C9.65804 37.7794 9.5 37.3978 9.5 37C9.5 36.6022 9.65804 36.2206 9.93934 35.9393C10.2206 35.658 10.6022 35.5 11 35.5H17C17.3978 35.5 17.7794 35.658 18.0607 35.9393C18.342 36.2206 18.5 36.6022 18.5 37C18.5 37.3978 18.342 37.7794 18.0607 38.0607C17.7794 38.342 17.3978 38.5 17 38.5ZM20.5 28C20.4984 29.193 20.0237 30.3366 19.1802 31.1802C18.3366 32.0237 17.193 32.4984 16 32.5H12C10.807 32.4984 9.66339 32.0237 8.81983 31.1802C7.97627 30.3366 7.50164 29.193 7.5 28V22C7.50164 20.807 7.97627 19.6634 8.81983 18.8198C9.66339 17.9763 10.807 17.5016 12 17.5H16C17.193 17.5016 18.3366 17.9763 19.1802 18.8198C20.0237 19.6634 20.4984 20.807 20.5 22V28ZM23.5 24C23.5 23.8674 23.5527 23.7402 23.6464 23.6464C23.7402 23.5527 23.8674 23.5 24 23.5H32C32.1326 23.5 32.2598 23.5527 32.3536 23.6464C32.4473 23.7402 32.5 23.8674 32.5 24C32.5 24.1326 32.4473 24.2598 32.3536 24.3536C32.2598 24.4473 32.1326 24.5 32 24.5H24C23.8674 24.5 23.7402 24.4473 23.6464 24.3536C23.5527 24.2598 23.5 24.1326 23.5 24ZM36.5 38C36.5 38.1326 36.4473 38.2598 36.3536 38.3536C36.2598 38.4473 36.1326 38.5 36 38.5C35.8674 38.5 35.7402 38.4473 35.6464 38.3536C35.5527 38.2598 35.5 38.1326 35.5 38V34C35.5 33.8674 35.5527 33.7402 35.6464 33.6464C35.7402 33.5527 35.8674 33.5 36 33.5C36.1326 33.5 36.2598 33.5527 36.3536 33.6464C36.4473 33.7402 36.5 33.8674 36.5 34V38ZM38.5 38C38.5 38.1326 38.4473 38.2598 38.3536 38.3536C38.2598 38.4473 38.1326 38.5 38 38.5C37.8674 38.5 37.7402 38.4473 37.6464 38.3536C37.5527 38.2598 37.5 38.1326 37.5 38V34C37.5 33.6022 37.342 33.2206 37.0607 32.9393C36.7794 32.658 36.3978 32.5 36 32.5C35.6022 32.5 35.2206 32.658 34.9393 32.9393C34.658 33.2206 34.5 33.6022 34.5 34V36C34.5 36.1326 34.4473 36.2598 34.3536 36.3536C34.2598 36.4473 34.1326 36.5 34 36.5C33.8674 36.5 33.7402 36.4473 33.6464 36.3536C33.5527 36.2598 33.5 36.1326 33.5 36V34C33.5 33.337 33.7634 32.7011 34.2322 32.2322C34.7011 31.7634 35.337 31.5 36 31.5C36.663 31.5 37.2989 31.7634 37.7678 32.2322C38.2366 32.7011 38.5 33.337 38.5 34V38ZM40.5 38C40.5 38.1326 40.4473 38.2598 40.3536 38.3536C40.2598 38.4473 40.1326 38.5 40 38.5C39.8674 38.5 39.7402 38.4473 39.6464 38.3536C39.5527 38.2598 39.5 38.1326 39.5 38V34C39.5 33.0717 39.1312 32.1815 38.4749 31.5251C37.8185 30.8687 36.9283 30.5 36 30.5C35.0717 30.5 34.1815 30.8687 33.5251 31.5251C32.8688 32.1815 32.5 33.0717 32.5 34V38C32.5 38.1326 32.4473 38.2598 32.3536 38.3536C32.2598 38.4473 32.1326 38.5 32 38.5C31.8674 38.5 31.7402 38.4473 31.6464 38.3536C31.5527 38.2598 31.5 38.1326 31.5 38V34C31.5 32.8065 31.9741 31.6619 32.818 30.818C33.6619 29.9741 34.8065 29.5 36 29.5C37.1935 29.5 38.3381 29.9741 39.182 30.818C40.0259 31.6619 40.5 32.8065 40.5 34V38Z" fill="#E32934"/>
<path d="M27.9992 8H19.9992C19.1145 8.00164 18.2554 8.29721 17.557 8.84024C16.8585 9.38327 16.3603 10.143 16.1406 11H31.8578C31.6381 10.143 31.1399 9.38327 30.4415 8.84024C29.743 8.29721 28.8839 8.00164 27.9992 8Z" fill="#E32934"/>
</svg>
