<svg width="40" height="43" viewBox="0 0 40 43" fill="none" xmlns="http://www.w3.org/2000/svg">
<path d="M9.10582 5.85742V16.3753H4.10156V7.63124C4.10156 6.6572 4.90137 5.85743 5.87988 5.85743L9.10582 5.85742Z" fill="#E32934"/>
<path d="M39.7211 8.47987H33.211C32.4847 8.47987 31.8984 7.89362 31.8984 7.16735V0.657227C32.0866 0.744735 32.2616 0.862869 32.4103 1.01161L39.3667 7.96799C39.5154 8.11676 39.6336 8.29174 39.7211 8.47987Z" fill="#E32934"/>
<path d="M15.1505 9.43199H27.3371C27.4589 9.43199 27.5579 9.33295 27.5579 9.21143V5.15633C27.5579 5.03459 27.4589 4.93555 27.3371 4.93555H15.1505C15.0287 4.93555 14.9297 5.03459 14.9297 5.15633V9.21143C14.9297 9.33295 15.0287 9.43199 15.1505 9.43199ZM18.5792 6.08201H21.3923C21.639 6.08201 21.8391 6.28207 21.8391 6.52883C21.8391 6.77556 21.639 6.97565 21.3923 6.97565H18.5792C18.3324 6.97565 18.1324 6.77556 18.1324 6.52883C18.1324 6.28207 18.3324 6.08201 18.5792 6.08201ZM16.6866 6.08201H16.9277C17.1744 6.08201 17.3745 6.28207 17.3745 6.52883C17.3745 6.77556 17.1744 6.97565 16.9277 6.97565H16.6866C16.4398 6.97565 16.2398 6.77556 16.2398 6.52883C16.2398 6.28207 16.4398 6.08201 16.6866 6.08201Z" fill="#E32934"/>
<path d="M33.2117 9.37361C31.9919 9.37361 31.0045 8.38616 31.0045 7.16638V0.5H12.0777C10.9294 0.5 10 1.42934 10 2.57764V16.4823C10.5674 16.6476 11.0723 16.9962 11.4208 17.4921L13.914 21.004H33.6406C35.1017 21.004 36.2902 22.1925 36.2902 23.6536V35.2081H37.8004C38.9487 35.2081 39.8781 34.2787 39.8781 33.1304V9.37361H33.2117ZM14.0337 5.15648C14.0337 4.54191 14.5335 4.04208 15.1481 4.04208H27.3347C27.9491 4.04208 28.4491 4.54191 28.4491 5.15648V9.21158C28.4491 9.82593 27.9491 10.3258 27.3347 10.3258H15.1481C14.5335 10.3258 14.0337 9.82593 14.0337 9.21158V5.15648ZM35.3987 19.2379H14.48C14.2333 19.2379 14.0332 19.0379 14.0332 18.7911C14.0332 18.5444 14.2333 18.3443 14.48 18.3443H35.3987C35.6456 18.3443 35.8455 18.5444 35.8455 18.7911C35.8455 19.0379 35.6456 19.2379 35.3987 19.2379ZM35.3987 16.6288H14.48C14.2333 16.6288 14.0332 16.4288 14.0332 16.182C14.0332 15.9353 14.2333 15.7352 14.48 15.7352H35.3987C35.6456 15.7352 35.8455 15.9353 35.8455 16.182C35.8455 16.4288 35.6456 16.6288 35.3987 16.6288ZM35.3987 14.0198H14.4805C14.2337 14.0198 14.0337 13.8197 14.0337 13.573C14.0337 13.3262 14.2337 13.1262 14.4805 13.1262H35.3987C35.6456 13.1262 35.8455 13.3262 35.8455 13.573C35.8455 13.8197 35.6456 14.0198 35.3987 14.0198Z" fill="#E32934"/>
<path d="M28.5552 27.9824H6.96004C6.62449 27.9824 6.35156 28.2554 6.35156 28.5909V36.5361C6.35156 36.8715 6.62449 37.1444 6.96004 37.1444H28.5552C28.8907 37.1444 29.1639 36.8715 29.1639 36.5361V28.5909C29.1639 28.2554 28.8907 27.9824 28.5552 27.9824ZM9.26477 30.4377H9.02348C8.77672 30.4377 8.57666 30.2376 8.57666 29.9909C8.57666 29.7441 8.77672 29.5441 9.02348 29.5441H9.26477C9.5115 29.5441 9.71156 29.7441 9.71156 29.9909C9.71156 30.2376 9.5115 30.4377 9.26477 30.4377ZM13.8875 30.4377H10.7577C10.5109 30.4377 10.3109 30.2376 10.3109 29.9909C10.3109 29.7441 10.5109 29.5441 10.7577 29.5441H13.8875C14.1343 29.5441 14.3343 29.7441 14.3343 29.9909C14.3343 30.2376 14.1343 30.4377 13.8875 30.4377Z" fill="#E32934"/>
<path d="M33.6429 21.8974H13.4505L10.6912 18.0066C10.362 17.5424 9.82823 17.2666 9.2592 17.2666H1.87662C0.907063 17.2666 0.121094 18.0526 0.121094 19.0221V40.744C0.121094 41.7136 0.907067 42.4996 1.87662 42.4996H33.6429C34.6125 42.4996 35.3985 41.7136 35.3985 40.744V23.653C35.3985 22.6834 34.6125 21.8974 33.6429 21.8974ZM30.0596 36.5356C30.0596 37.3637 29.3855 38.0374 28.5573 38.0374H6.96213C6.13397 38.0374 5.46004 37.3637 5.46004 36.5356V28.5903C5.46004 27.7622 6.13397 27.0882 6.96213 27.0882H28.5573C29.3855 27.0882 30.0596 27.7622 30.0596 28.5903L30.0596 36.5356Z" fill="#E32934"/>
</svg>
