<svg width="48" height="48" viewBox="0 0 48 48" fill="none" xmlns="http://www.w3.org/2000/svg">
<path d="M23.9987 16.9635V10.2969H7.33203V40.2969H40.6654V16.9635H23.9987ZM13.9987 36.9635H10.6654V33.6302H13.9987V36.9635ZM13.9987 30.2969H10.6654V26.9635H13.9987V30.2969ZM13.9987 23.6302H10.6654V20.2969H13.9987V23.6302ZM13.9987 16.9635H10.6654V13.6302H13.9987V16.9635ZM20.6654 36.9635H17.332V33.6302H20.6654V36.9635ZM20.6654 30.2969H17.332V26.9635H20.6654V30.2969ZM20.6654 23.6302H17.332V20.2969H20.6654V23.6302ZM20.6654 16.9635H17.332V13.6302H20.6654V16.9635ZM37.332 36.9635H23.9987V33.6302H27.332V30.2969H23.9987V26.9635H27.332V23.6302H23.9987V20.2969H37.332V36.9635ZM33.9987 23.6302H30.6654V26.9635H33.9987V23.6302ZM33.9987 30.2969H30.6654V33.6302H33.9987V30.2969Z" fill="#E32934"/>
</svg>
