<svg width="48" height="48" viewBox="0 0 48 48" fill="none" xmlns="http://www.w3.org/2000/svg">
<g clip-path="url(#clip0_19_33732)">
<path d="M21 0H19.5C18.3065 0 17.1619 0.474106 16.318 1.31802C15.4741 2.16193 15 3.30653 15 4.5C15 5.69347 15.4741 6.83807 16.318 7.68198C17.1619 8.52589 18.3065 9 19.5 9H21V0Z" fill="#E32934"/>
<path d="M24 0H39V9H24V0Z" fill="#E32934"/>
<path d="M47.1705 3.15774L42 0.573242V8.42724L47.1705 5.85024C47.4201 5.72584 47.6301 5.53431 47.7769 5.29716C47.9236 5.06001 48.0014 4.78664 48.0014 4.50774C48.0014 4.22885 47.9236 3.95548 47.7769 3.71833C47.6301 3.48118 47.4201 3.28965 47.1705 3.16524V3.15774Z" fill="#E32934"/>
<path d="M9 3C6.61305 3 4.32387 3.94821 2.63604 5.63604C0.948211 7.32387 0 9.61305 0 12L0 33C0 30.6131 0.948211 28.3239 2.63604 26.636C4.32387 24.9482 6.61305 24 9 24V3Z" fill="#E32934"/>
<path d="M42 42H24V46.5C24 46.8978 24.158 47.2794 24.4393 47.5607C24.7206 47.842 25.1022 48 25.5 48H42C42.7956 48 43.5587 47.6839 44.1213 47.1213C44.6839 46.5587 45 45.7956 45 45C45 44.2044 44.6839 43.4413 44.1213 42.8787C43.5587 42.3161 42.7956 42 42 42Z" fill="#E32934"/>
<path d="M42.0005 12H12.0005V24.258C12.0007 24.6181 11.9299 24.9748 11.7922 25.3076C11.6545 25.6403 11.4525 25.9427 11.1979 26.1973C10.9432 26.452 10.6408 26.654 10.3081 26.7917C9.97532 26.9294 9.61867 27.0002 9.25853 27C7.73566 26.9746 6.25716 27.5131 5.10725 28.5118C3.95734 29.5106 3.21717 30.8991 3.02903 32.4105C2.94673 33.2441 3.0399 34.0858 3.30254 34.8812C3.56519 35.6767 3.99149 36.4083 4.554 37.029C5.11651 37.6498 5.80277 38.1458 6.56859 38.4853C7.33442 38.8247 8.16284 39.0001 9.00053 39H42.0005C43.5918 39 45.118 39.6321 46.2432 40.7574C47.3684 41.8826 48.0005 43.4087 48.0005 45V18C48.0005 16.4087 47.3684 14.8826 46.2432 13.7574C45.118 12.6321 43.5918 12 42.0005 12ZM33.0005 34.5H18.0005C17.6027 34.5 17.2212 34.342 16.9399 34.0607C16.6586 33.7794 16.5005 33.3978 16.5005 33C16.5005 32.6022 16.6586 32.2206 16.9399 31.9393C17.2212 31.658 17.6027 31.5 18.0005 31.5H33.0005C33.3984 31.5 33.7799 31.658 34.0612 31.9393C34.3425 32.2206 34.5005 32.6022 34.5005 33C34.5005 33.3978 34.3425 33.7794 34.0612 34.0607C33.7799 34.342 33.3984 34.5 33.0005 34.5ZM16.5005 25.5C16.5005 25.1022 16.6586 24.7206 16.9399 24.4393C17.2212 24.158 17.6027 24 18.0005 24H25.5005C25.8984 24 26.2799 24.158 26.5612 24.4393C26.8425 24.7206 27.0005 25.1022 27.0005 25.5C27.0005 25.8978 26.8425 26.2794 26.5612 26.5607C26.2799 26.842 25.8984 27 25.5005 27H18.0005C17.6027 27 17.2212 26.842 16.9399 26.5607C16.6586 26.2794 16.5005 25.8978 16.5005 25.5ZM40.5005 19.5H18.0005C17.6027 19.5 17.2212 19.342 16.9399 19.0607C16.6586 18.7794 16.5005 18.3978 16.5005 18C16.5005 17.6022 16.6586 17.2206 16.9399 16.9393C17.2212 16.658 17.6027 16.5 18.0005 16.5H40.5005C40.8984 16.5 41.2799 16.658 41.5612 16.9393C41.8425 17.2206 42.0005 17.6022 42.0005 18C42.0005 18.3978 41.8425 18.7794 41.5612 19.0607C41.2799 19.342 40.8984 19.5 40.5005 19.5Z" fill="#E32934"/>
</g>
<defs>
<clipPath id="clip0_19_33732">
<rect width="48" height="48" fill="white"/>
</clipPath>
</defs>
</svg>
