<svg width="48" height="48" viewBox="0 0 48 48" fill="none" xmlns="http://www.w3.org/2000/svg">
<path d="M31.9684 6.44087C31.3965 6.44087 30.9652 6.469 30.4777 6.04712C30.1965 5.80337 29.9996 5.4565 29.9434 5.05337C29.7277 3.44087 27.7871 2.719 26.5684 3.78775C26.2027 4.1065 25.9496 4.54712 25.884 5.05337C25.7715 5.85025 25.0965 6.44087 24.2996 6.44087C23.8871 6.44087 23.559 6.38462 23.259 6.694C22.9871 6.96587 23.0059 7.219 23.0059 7.5565V10.4252C23.0059 10.894 23.3902 11.2784 23.859 11.2784H31.9684C32.4371 11.2784 32.8215 10.894 32.8215 10.4252V7.28462C32.8121 6.81587 32.4277 6.44087 31.9684 6.44087ZM37.4621 14.6346H35.4934C34.9121 14.6346 34.434 15.1127 34.434 15.694V17.6627C34.434 18.244 34.9121 18.7221 35.4934 18.7221H37.4621C38.0434 18.7221 38.5215 18.244 38.5215 17.6627V15.694C38.5215 15.1127 38.0434 14.6346 37.4621 14.6346ZM35.4934 13.894H37.4621C38.4559 13.894 39.2715 14.7096 39.2715 15.7034V17.6721C39.2715 18.6659 38.4559 19.4815 37.4621 19.4815H35.4934C34.4996 19.4815 33.684 18.6659 33.684 17.6721V15.7034C33.684 14.7002 34.4996 13.894 35.4934 13.894ZM37.4621 23.4471H35.4934C34.9121 23.4471 34.434 23.9252 34.434 24.5065V26.4753C34.434 27.0565 34.9121 27.5346 35.4934 27.5346H37.4621C38.0434 27.5346 38.5215 27.0565 38.5215 26.4753V24.5065C38.5215 23.9252 38.0434 23.4471 37.4621 23.4471ZM35.4934 22.6971H37.4621C38.4559 22.6971 39.2715 23.5127 39.2715 24.5065V26.4753C39.2715 27.469 38.4559 28.2846 37.4621 28.2846H35.4934C34.4996 28.2846 33.684 27.469 33.684 26.4753V24.5065C33.684 23.5034 34.4996 22.6971 35.4934 22.6971ZM37.4621 32.2503H35.4934C34.9121 32.2503 34.434 32.7284 34.434 33.3096V35.269C34.434 35.8503 34.9121 36.3284 35.4934 36.3284H37.4621C38.0434 36.3284 38.5215 35.8503 38.5215 35.269V33.3096C38.5215 32.7284 38.0434 32.2503 37.4621 32.2503ZM35.4934 31.5003H37.4621C38.4559 31.5003 39.2715 32.3159 39.2715 33.3096V35.269C39.2715 36.2628 38.4559 37.0784 37.4621 37.0784H35.4934C34.4996 37.0784 33.684 36.2628 33.684 35.269V33.3096C33.684 32.3065 34.4996 31.5003 35.4934 31.5003ZM21.2152 40.8753V36.319C21.2152 35.344 20.4184 34.5471 19.4434 34.5471H14.8871L21.2152 40.8753ZM13.6027 30.8815H11.5121V42.4409C11.5121 43.6971 12.534 44.719 13.7902 44.719H42.0371C43.2934 44.719 44.3152 43.6971 44.3152 42.4409V10.2002C44.3152 8.944 43.2934 7.92212 42.0371 7.92212H33.5621V9.769H39.684C41.0715 9.769 42.2152 10.9034 42.2152 12.2909V39.6284C42.2152 41.0159 41.0809 42.1503 39.684 42.1503H21.5902C21.4871 42.1503 21.3934 42.1128 21.3184 42.0378L13.7152 34.4346C13.6402 34.3596 13.6027 34.2659 13.6027 34.1628V30.8815ZM14.3527 15.5909H17.184C18.234 15.5909 19.0871 16.444 19.0871 17.494V28.9784C19.0871 30.0284 18.234 30.8815 17.184 30.8815H14.3527V33.7971H19.4434C20.8309 33.7971 21.9746 34.9315 21.9746 36.319V41.4096H39.6934C40.6684 41.4096 41.4652 40.6128 41.4652 39.6378V12.2909C41.4652 11.3159 40.6684 10.519 39.6934 10.519H33.5621C33.5059 11.3534 32.8027 12.0096 31.9684 12.0096H23.859C23.0152 12.0096 22.3215 11.3534 22.2652 10.519H16.134C15.159 10.519 14.3527 11.3159 14.3527 12.2909V15.5909ZM8.85898 16.3409V22.0315L10.8465 20.9159C10.959 20.8503 11.0996 20.8503 11.2121 20.9159L13.1715 22.0315V16.3502H8.85898V16.3409ZM13.9309 16.3409V22.669C13.9309 22.9409 13.6309 23.1565 13.3496 22.9784L11.034 21.6659L8.67148 22.9971C8.41836 23.1378 8.10898 22.9503 8.10898 22.669V16.3409H4.84648C4.20898 16.3409 3.69336 16.8565 3.69336 17.494V28.9784C3.69336 29.6159 4.21836 30.1315 4.84648 30.1315H17.1934C17.8215 30.1315 18.3465 29.6065 18.3465 28.9784V17.494C18.3465 16.8659 17.8309 16.3409 17.1934 16.3409H13.9309ZM11.5121 15.5909H13.6027V12.2909C13.6027 10.9034 14.7371 9.769 16.134 9.769H22.2559V7.92212H13.7902C12.534 7.92212 11.5121 8.944 11.5121 10.2002V15.5909ZM6.40273 27.6471C5.90586 27.6471 5.90586 26.8971 6.40273 26.8971H9.63711C10.134 26.8971 10.134 27.6471 9.63711 27.6471H6.40273ZM6.40273 26.0815C5.90586 26.0815 5.90586 25.3315 6.40273 25.3315H8.02461C8.51211 25.3315 8.51211 26.0815 8.02461 26.0815H6.40273ZM31.0402 16.3034C31.5371 16.3034 31.5371 17.0534 31.0402 17.0534H27.8715C26.7746 17.0534 25.8746 17.9534 25.8746 19.0502V25.1065H31.0402C31.5371 25.1065 31.5371 25.8565 31.0402 25.8565H25.8746V32.1753C25.8746 33.2721 26.7746 34.1721 27.8715 34.1721H31.0402C31.5371 34.1721 31.5371 34.9221 31.0402 34.9221H27.8715C26.3621 34.9221 25.1246 33.6846 25.1246 32.1753V25.8565H20.6434C20.1465 25.8565 20.1465 25.1065 20.6434 25.1065H25.1246V19.0502C25.1246 17.5409 26.3621 16.3034 27.8715 16.3034H31.0402Z" fill="#E32934"/>
</svg>
