<svg width="48" height="48" viewBox="0 0 48 48" fill="none" xmlns="http://www.w3.org/2000/svg">
<path fill-rule="evenodd" clip-rule="evenodd" d="M12.6576 5.86013C11.0972 7.98754 10.2557 10.557 10.2553 13.1953C10.2549 15.8336 11.0956 18.4034 12.6553 20.5312C13.9121 19.209 15.4198 18.1506 17.0904 17.4179C16.729 14.6135 16.7292 11.7743 17.0911 8.96991C15.4212 8.23847 13.914 7.18143 12.6575 5.86059L12.6576 5.86013ZM18.4374 9.47794C18.1493 11.9465 18.1491 14.4403 18.4368 16.9089C19.8037 16.472 21.2299 16.2487 22.6649 16.2472H22.6895C24.1327 16.2466 25.5673 16.4699 26.9422 16.9089C27.0877 15.677 27.1597 14.4375 27.1578 13.197C27.1597 11.9541 27.0874 10.7122 26.9414 9.47794C25.5745 9.9149 24.1483 10.1381 22.7133 10.1396H22.6897C21.2467 10.1401 19.8123 9.91692 18.4377 9.47794H18.4374ZM28.559 13.197C28.5607 14.6082 28.4704 16.018 28.2887 17.4174C29.9621 18.1508 31.472 19.2113 32.7294 20.5368C33.2425 19.8334 33.6804 19.0781 34.0358 18.2834C32.6543 16.4906 31.5442 14.4994 31.4428 11.9256C31.3607 9.82734 31.9915 8.00334 33.2457 6.62494C33.0807 6.36163 32.9065 6.10569 32.7232 5.85713C31.466 7.17894 29.9581 8.23704 28.2875 8.96963C28.4701 10.3714 28.5607 11.7836 28.5588 13.1972L28.559 13.197ZM28.0614 7.53187C27.8294 6.22636 27.4726 4.94613 26.9961 3.70875C26.5777 2.65172 26.094 1.7775 25.5617 1.1025C27.9653 1.67839 30.1444 2.95332 31.8242 4.76644C30.7576 5.91977 29.4803 6.85851 28.0612 7.53206L28.0614 7.53187ZM26.7351 8.07187C25.9633 3.64472 24.26 0.84375 22.6895 0.84375C21.119 0.84375 19.4157 3.64472 18.6439 8.07187C19.9468 8.51397 21.3135 8.73918 22.6894 8.73853H22.7107C24.0795 8.7372 25.4389 8.51201 26.7351 8.07187ZM17.3175 7.53187C15.8991 6.85886 14.6226 5.92069 13.5568 4.76794C15.2336 2.94891 17.4144 1.67083 19.8208 1.09687C19.2871 1.77356 18.8022 2.64947 18.3829 3.70856C17.9064 4.94602 17.5496 6.22632 17.3175 7.53187ZM17.3166 18.855C17.5486 20.1629 17.9057 21.4454 18.3829 22.6851C18.8022 23.7444 19.287 24.6192 19.8208 25.2959C17.4129 24.722 15.2309 23.4428 13.554 21.6219C14.6205 20.4684 15.8976 19.5292 17.3166 18.855ZM18.6427 18.3164C19.4141 22.7452 21.1183 25.5502 22.6895 25.5502C24.2606 25.5502 25.9649 22.7452 26.7362 18.3164C25.433 17.8734 24.0659 17.6479 22.6895 17.6487H22.6678C21.2988 17.6499 19.9392 17.8754 18.6431 18.3164H18.6427ZM28.0625 18.855C29.4848 19.5308 30.7645 20.4728 31.8324 21.63C30.1543 23.4521 27.9685 24.7293 25.5573 25.2969C26.0917 24.6202 26.5764 23.7442 26.9961 22.6851C27.4734 21.4455 27.8305 20.1629 28.0625 18.855ZM32.8437 11.8706C32.7277 8.91347 34.2392 7.33875 35.5286 6.53897C36.6679 5.83116 38.0663 5.47481 39.4661 5.47481C40.7261 5.46436 41.969 5.76719 43.083 6.35606C44.9803 7.38966 46.0477 9.18966 46.0866 11.4261C46.1467 14.7997 44.1465 17.0886 42.0292 19.5097C41.1443 20.5222 40.2334 21.5648 39.4625 22.7065C38.6957 21.5722 37.7887 20.5343 36.9078 19.5284C34.8817 17.2119 32.9665 15.0236 32.8434 11.8713L32.8437 11.8706ZM43.406 11.0057C43.406 10.2258 43.1747 9.4634 42.7414 8.81494C42.3081 8.16648 41.6923 7.66107 40.9717 7.36262C40.2512 7.06417 39.4583 6.98609 38.6934 7.13824C37.9285 7.2904 37.2259 7.66597 36.6744 8.21744C36.123 8.76892 35.7474 9.47155 35.5953 10.2365C35.4431 11.0014 35.5212 11.7942 35.8197 12.5148C36.1182 13.2353 36.6236 13.8511 37.2721 14.2844C37.9206 14.7177 38.6829 14.9489 39.4628 14.9489C40.5082 14.9475 41.5103 14.5316 42.2495 13.7924C42.9887 13.0532 43.4046 12.0511 43.406 11.0057ZM36.9211 11.0057C36.9213 11.5084 37.0705 11.9997 37.3499 12.4176C37.6293 12.8354 38.0263 13.1611 38.4908 13.3533C38.9553 13.5455 39.4663 13.5957 39.9593 13.4975C40.4523 13.3994 40.9051 13.1572 41.2605 12.8017C41.6158 12.4462 41.8578 11.9933 41.9558 11.5003C42.0538 11.0072 42.0034 10.4962 41.811 10.0318C41.6186 9.56746 41.2928 9.17055 40.8749 8.8913C40.4569 8.61205 39.9655 8.463 39.4628 8.463C38.7888 8.46377 38.1426 8.73194 37.6661 9.20864C37.1895 9.68535 36.9216 10.3316 36.9211 11.0057ZM37.5547 22.4713C36.1493 22.7876 35.4886 23.3783 35.4886 23.7097C35.4886 24.2843 37.0743 25.1512 39.4627 25.1512C41.8512 25.1512 43.437 24.2843 43.437 23.7097C43.437 23.3783 42.7763 22.7876 41.3698 22.4704C41.0229 22.9158 40.6931 23.3704 40.3978 23.8378C40.298 23.9953 40.16 24.1251 39.9966 24.215C39.8332 24.3049 39.6498 24.352 39.4633 24.352C39.2768 24.352 39.0934 24.3049 38.93 24.215C38.7666 24.1251 38.6286 23.9953 38.5288 23.8378C38.2325 23.3713 37.9022 22.9168 37.5547 22.4713ZM26.4214 32.3735C23.0799 30.2982 16.7228 29.163 14.6729 30.2702C14.49 30.3803 12.3766 31.6537 8.55872 33.9602L13.1417 41.8987L13.7229 41.5272C14.1127 41.2749 14.3511 41.1748 14.8411 41.346C14.9017 41.367 14.9705 41.3911 15.0683 41.4181L24.0214 43.8777C24.0367 43.8817 24.0518 43.8871 24.0668 43.8917C25.6449 44.4433 27.0368 44.3182 28.3224 43.5094L28.3335 43.5023L42.1482 35.1714C42.1708 35.1577 42.1942 35.1453 42.2183 35.1344C43.3152 34.6309 43.9421 33.9311 43.9808 33.1623C44.0139 32.5206 43.6276 31.8809 42.9709 31.4925C42.0548 30.9519 40.8526 31.035 39.7552 31.7157L39.7213 31.7358L30.465 36.7781C28.7432 38.0655 25.2525 37.8172 19.7976 36.0203C19.7098 35.9919 19.6286 35.9463 19.5585 35.8864C19.4884 35.8264 19.4308 35.7532 19.3891 35.6709C19.3474 35.5886 19.3223 35.4989 19.3154 35.407C19.3084 35.315 19.3197 35.2225 19.3486 35.1349C19.3775 35.0473 19.4234 34.9663 19.4836 34.8964C19.5439 34.8266 19.6174 34.7694 19.6999 34.728C19.7823 34.6867 19.8721 34.662 19.9641 34.6555C20.0562 34.649 20.1486 34.6607 20.236 34.6899C23.0371 35.6119 25.05 36.0334 26.4985 36.1555C27.5718 35.5939 28.1759 34.9872 28.1989 34.4417C28.2239 33.844 27.5762 33.0902 26.4217 32.3735H26.4214ZM12.5377 43.6554C12.68 43.9026 12.7185 44.1962 12.6447 44.4717C12.5709 44.7472 12.3908 44.9822 12.1439 45.1251L8.62566 47.1562L1.91016 35.5248L5.42822 33.4927C5.67556 33.3506 5.96911 33.3123 6.24459 33.3863C6.52007 33.4602 6.75504 33.6403 6.89803 33.8871L12.5377 43.6558V43.6554ZM6.66384 37.1175L5.77688 35.5808C5.68205 35.4238 5.52942 35.3102 5.35176 35.2644C5.17411 35.2187 4.98559 35.2444 4.8267 35.3361C4.66781 35.4278 4.5512 35.5782 4.50194 35.7549C4.45267 35.9316 4.47466 36.1206 4.56319 36.2812L5.45006 37.8179C5.5433 37.9783 5.6963 38.0951 5.87554 38.1428C6.05479 38.1906 6.24564 38.1653 6.40628 38.0726C6.56692 37.9798 6.68423 37.8272 6.73251 37.6481C6.78079 37.469 6.7561 37.278 6.66384 37.1171V37.1175Z" fill="#E32934"/>
</svg>
