<svg width="48" height="48" viewBox="0 0 48 48" fill="none" xmlns="http://www.w3.org/2000/svg">
<path fill-rule="evenodd" clip-rule="evenodd" d="M22.4633 24.8141C20.7505 23.8968 18.7976 23.3752 16.7285 23.3752C10.3139 23.3752 5.01205 28.3829 4.53945 34.682C4.50205 35.1796 4.89073 35.5984 5.38977 35.5984H24.1761C22.8541 32.5107 22.019 29.0882 22.2061 25.8447C22.2274 25.4787 22.3158 25.1309 22.4633 24.8141ZM37.3082 23.301H35.2176C34.7552 23.3012 34.4721 22.7683 34.768 22.3855L38.9977 16.9118C39.2255 16.6172 39.6691 16.6172 39.8968 16.9118L44.1265 22.3855C44.4224 22.7684 44.1393 23.3012 43.6767 23.3009H41.5864L41.5863 32.2003C41.5862 32.6103 41.2519 32.9447 40.8419 32.9447L38.0526 32.9448C37.6427 32.9448 37.3082 32.6101 37.3082 32.2003V23.301ZM28.6506 31.8864C29.6716 34.5786 31.3703 37.5209 33.1913 39.7511L35.4345 39.1468C36.134 38.9584 36.8357 39.1808 37.2988 39.7378L39.9158 42.8851C40.5255 43.6183 40.4122 44.6945 39.6632 45.2847C38.9138 45.8751 38.1775 46.3772 37.0978 46.9844C36.7086 47.2032 36.274 47.2134 35.8751 47.0129C29.0721 43.5914 23.2653 33.5335 23.7037 25.9312C23.7295 25.4857 23.9558 25.1142 24.3399 24.8867C25.4056 24.2553 26.2085 23.8687 27.0945 23.5149C27.9801 23.1613 28.9687 23.6014 29.2989 24.4959L30.716 28.3359C30.9668 29.0155 30.8086 29.7345 30.2957 30.246L28.6506 31.8864ZM27.254 12.9548H27.2612C27.1712 10.2982 26.0849 7.88222 24.3661 6.07106C24.3078 6.12244 24.236 6.15769 24.154 6.17437C24.0012 6.20541 23.8557 6.16294 23.7437 6.05456C21.922 4.293 19.4456 3.20503 16.7286 3.20503C14.0117 3.20503 11.5353 4.29309 9.71361 6.05466C9.60148 6.16303 9.45608 6.2055 9.30327 6.17447C9.22133 6.15778 9.14952 6.12244 9.0913 6.07116C7.37248 7.88231 6.2862 10.2982 6.1962 12.9548H6.20333C6.38886 12.9548 6.54064 13.1066 6.54064 13.2922V15.1641C7.66105 15.7706 8.75117 16.2479 9.81102 16.596C9.91049 16.6286 10.0097 16.6601 10.1085 16.6905C10.1565 17.2658 10.2778 17.8202 10.463 18.3445C10.0941 18.2511 9.72252 18.1428 9.34808 18.0199C8.43102 17.7188 7.4952 17.3289 6.54055 16.8506V17.1651C6.54055 17.3506 6.38877 17.5024 6.20323 17.5024H4.59533C4.13145 17.5024 3.75195 17.1229 3.75195 16.659V13.7983C3.75195 13.3344 4.13145 12.9549 4.59533 12.9549H4.69536C4.7892 9.78516 6.12298 6.91294 8.2257 4.81031C8.29498 4.74103 8.36511 4.67269 8.43599 4.60509C8.36605 4.3005 8.46889 3.98559 8.71658 3.777C10.8872 1.94869 13.6845 0.84375 16.7286 0.84375C19.7728 0.84375 22.5701 1.94869 24.7406 3.77681C24.9883 3.98541 25.0911 4.30031 25.0212 4.60491C25.0922 4.6725 25.1623 4.74094 25.2316 4.81022C27.3343 6.91284 28.6681 9.78506 28.7618 12.9549H28.862C29.3258 12.9549 29.7053 13.3344 29.7053 13.7983V16.659C29.7053 17.1229 29.3258 17.5024 28.862 17.5024H27.254C27.0685 17.5024 26.9166 17.3506 26.9166 17.1651V13.2922C26.9166 13.1066 27.0684 12.9548 27.254 12.9548ZM16.7286 9.52462C13.0801 9.52462 10.1224 12.4823 10.1224 16.1309C10.1224 16.3235 10.1311 16.514 10.1472 16.7023C11.3864 17.0797 12.578 17.2772 13.722 17.2948C14.1346 17.2997 14.465 17.6381 14.4603 18.0507C14.4554 18.4633 14.117 18.7938 13.7044 18.789C12.6621 18.773 11.5962 18.6284 10.5066 18.3555C11.4198 20.9095 13.8606 22.7373 16.7285 22.7373C20.3771 22.7373 23.3348 19.7796 23.3348 16.131C23.3349 12.4824 20.3772 9.52462 16.7286 9.52462Z" fill="#E32934"/>
</svg>
