<svg width="30" height="30" viewBox="0 0 30 30" fill="none" xmlns="http://www.w3.org/2000/svg">
<path d="M20.5996 13.0126C20.1121 13.5001 19.2996 13.5001 18.8121 13.0126L13.2246 7.43764L4.41211 16.2376L3.58711 15.4501C2.12461 13.9876 2.12461 11.6126 3.58711 10.1501L8.88711 4.85014C10.3496 3.38764 12.7246 3.38764 14.1871 4.85014L20.5996 11.2501C21.0871 11.7376 21.0871 12.5251 20.5996 13.0126ZM21.4746 10.3626C22.4496 11.3376 22.4496 12.9251 21.4746 13.9001C19.8871 15.4876 18.2121 14.1751 17.9371 13.9001L13.2371 9.20014L6.27461 16.1626C5.78711 16.6501 5.78711 17.4376 6.27461 17.9251C6.76211 18.4126 7.54961 18.4126 8.04961 17.9251L13.8246 12.1501L14.7121 13.0376L8.93711 18.8126C8.44961 19.3001 8.44961 20.0876 8.93711 20.5751C9.42461 21.0626 10.2121 21.0626 10.7121 20.5751L16.4871 14.8001L17.3746 15.6876L11.5996 21.4626C11.1121 21.9501 11.1121 22.7376 11.5996 23.2251C12.0871 23.7126 12.8746 23.7126 13.3621 23.2251L19.1371 17.4501L20.0246 18.3376L14.2496 24.1126C13.7621 24.6001 13.7621 25.3876 14.2496 25.8751C14.7371 26.3626 15.5246 26.3626 16.0121 25.8751L26.4121 15.4501C27.8746 13.9876 27.8746 11.6126 26.4121 10.1501L21.1121 4.85014C19.6746 3.41264 17.3496 3.38764 15.8871 4.77514L21.4746 10.3626Z" fill="#E32934"/>
</svg>
